%TF.GenerationSoftware,KiCad,Pcbnew,(6.0.7)*%
%TF.CreationDate,2022-08-19T14:00:51+02:00*%
%TF.ProjectId,faceplate,66616365-706c-4617-9465-2e6b69636164,rev?*%
%TF.SameCoordinates,Original*%
%TF.FileFunction,Profile,NP*%
%FSLAX46Y46*%
G04 Gerber Fmt 4.6, Leading zero omitted, Abs format (unit mm)*
G04 Created by KiCad (PCBNEW (6.0.7)) date 2022-08-19 14:00:51*
%MOMM*%
%LPD*%
G01*
G04 APERTURE LIST*
%TA.AperFunction,Profile*%
%ADD10C,0.200000*%
%TD*%
%TA.AperFunction,Profile*%
%ADD11C,0.282221*%
%TD*%
G04 APERTURE END LIST*
D10*
X70740000Y-46140000D02*
X103750000Y-46140000D01*
X103750000Y-46140000D02*
X103750000Y-63770000D01*
X103750000Y-63770000D02*
X70740000Y-63770000D01*
X70740000Y-63770000D02*
X70740000Y-46140000D01*
D11*
X133829982Y-155300001D02*
X133829982Y-155300001D01*
X63050000Y-155300001D02*
X63050000Y-155300001D01*
D10*
X128195041Y-150550984D02*
X128243703Y-150553935D01*
X128339639Y-150565613D01*
X128433423Y-150584768D01*
X128524691Y-150611133D01*
X128613082Y-150644442D01*
X128698234Y-150684430D01*
X128779786Y-150730830D01*
X128857374Y-150783374D01*
X128930638Y-150841799D01*
X128999214Y-150905836D01*
X129062742Y-150975219D01*
X129120859Y-151049683D01*
X129173203Y-151128962D01*
X129219413Y-151212788D01*
X129259126Y-151300895D01*
X129276433Y-151346472D01*
X129291980Y-151393018D01*
X129324319Y-151504237D01*
X129352347Y-151616318D01*
X129376062Y-151729137D01*
X129395466Y-151842572D01*
X129410557Y-151956498D01*
X129421337Y-152070795D01*
X129427805Y-152185337D01*
X129429961Y-152300003D01*
X129427805Y-152414669D01*
X129421337Y-152529211D01*
X129410557Y-152643509D01*
X129395466Y-152757437D01*
X129376062Y-152870873D01*
X129352347Y-152983694D01*
X129324319Y-153095777D01*
X129291980Y-153206998D01*
X129276433Y-153253544D01*
X129259126Y-153299119D01*
X129240104Y-153343690D01*
X129219413Y-153387224D01*
X129197098Y-153429688D01*
X129173203Y-153471048D01*
X129147775Y-153511271D01*
X129120859Y-153550324D01*
X129092500Y-153588174D01*
X129062742Y-153624787D01*
X129031632Y-153660129D01*
X128999214Y-153694169D01*
X128965534Y-153726872D01*
X128930638Y-153758204D01*
X128894569Y-153788134D01*
X128857374Y-153816627D01*
X128819098Y-153843650D01*
X128779786Y-153869171D01*
X128739483Y-153893154D01*
X128698234Y-153915568D01*
X128656086Y-153936380D01*
X128613082Y-153955554D01*
X128569269Y-153973060D01*
X128524691Y-153988862D01*
X128479394Y-154002929D01*
X128433423Y-154015226D01*
X128386823Y-154025720D01*
X128339639Y-154034378D01*
X128291918Y-154041167D01*
X128243703Y-154046054D01*
X128195041Y-154049004D01*
X128145976Y-154049986D01*
X124613978Y-154050001D01*
X124564913Y-154049018D01*
X124516251Y-154046066D01*
X124420315Y-154034388D01*
X124326532Y-154015234D01*
X124235263Y-153988869D01*
X124146872Y-153955559D01*
X124061720Y-153915571D01*
X123980169Y-153869172D01*
X123902580Y-153816627D01*
X123829317Y-153758203D01*
X123760740Y-153694166D01*
X123697212Y-153624782D01*
X123639095Y-153550318D01*
X123586751Y-153471040D01*
X123540541Y-153387214D01*
X123500828Y-153299106D01*
X123483522Y-153253530D01*
X123467974Y-153206983D01*
X123435635Y-153095764D01*
X123407608Y-152983684D01*
X123383892Y-152870864D01*
X123364488Y-152757430D01*
X123349397Y-152643503D01*
X123338617Y-152529207D01*
X123332149Y-152414664D01*
X123329993Y-152299999D01*
X123332149Y-152185333D01*
X123338617Y-152070790D01*
X123349397Y-151956493D01*
X123364488Y-151842565D01*
X123383892Y-151729129D01*
X123407608Y-151616308D01*
X123435635Y-151504225D01*
X123467974Y-151393003D01*
X123467982Y-151393003D01*
X123483529Y-151346458D01*
X123500836Y-151300883D01*
X123519858Y-151256312D01*
X123540549Y-151212778D01*
X123562864Y-151170315D01*
X123586758Y-151128955D01*
X123612185Y-151088732D01*
X123639101Y-151049679D01*
X123667461Y-151011830D01*
X123697218Y-150975218D01*
X123728328Y-150939876D01*
X123760745Y-150905837D01*
X123794425Y-150873134D01*
X123829321Y-150841802D01*
X123865389Y-150811873D01*
X123902584Y-150783380D01*
X123940860Y-150756357D01*
X123980172Y-150730837D01*
X124020474Y-150706854D01*
X124061722Y-150684440D01*
X124103871Y-150663629D01*
X124146874Y-150644454D01*
X124190687Y-150626948D01*
X124235264Y-150611146D01*
X124280561Y-150597079D01*
X124326532Y-150584782D01*
X124373132Y-150574287D01*
X124420315Y-150565628D01*
X124468036Y-150558838D01*
X124516251Y-150553950D01*
X124564913Y-150550999D01*
X124613978Y-150550016D01*
X128145976Y-150550001D01*
X128195041Y-150550984D01*
X72315064Y-150550984D02*
X72363726Y-150553935D01*
X72459662Y-150565613D01*
X72553445Y-150584768D01*
X72644713Y-150611133D01*
X72733104Y-150644442D01*
X72818256Y-150684430D01*
X72899807Y-150730830D01*
X72977395Y-150783374D01*
X73050658Y-150841799D01*
X73119234Y-150905836D01*
X73182762Y-150975219D01*
X73240878Y-151049683D01*
X73293222Y-151128962D01*
X73339432Y-151212788D01*
X73379144Y-151300895D01*
X73396451Y-151346472D01*
X73411999Y-151393018D01*
X73444338Y-151504237D01*
X73472365Y-151616318D01*
X73496081Y-151729137D01*
X73515484Y-151842572D01*
X73530576Y-151956498D01*
X73541355Y-152070795D01*
X73547823Y-152185337D01*
X73549979Y-152300003D01*
X73547823Y-152414669D01*
X73541355Y-152529211D01*
X73530576Y-152643509D01*
X73515484Y-152757437D01*
X73496081Y-152870873D01*
X73472365Y-152983694D01*
X73444338Y-153095777D01*
X73411999Y-153206998D01*
X73396452Y-153253544D01*
X73379145Y-153299119D01*
X73360123Y-153343690D01*
X73339432Y-153387224D01*
X73317117Y-153429688D01*
X73293223Y-153471048D01*
X73267795Y-153511271D01*
X73240879Y-153550324D01*
X73212519Y-153588174D01*
X73182762Y-153624787D01*
X73151652Y-153660129D01*
X73119235Y-153694169D01*
X73085555Y-153726872D01*
X73050658Y-153758204D01*
X73014590Y-153788134D01*
X72977395Y-153816627D01*
X72939119Y-153843650D01*
X72899807Y-153869171D01*
X72859504Y-153893154D01*
X72818256Y-153915568D01*
X72776108Y-153936380D01*
X72733104Y-153955554D01*
X72689291Y-153973060D01*
X72644713Y-153988862D01*
X72599416Y-154002929D01*
X72553445Y-154015226D01*
X72506846Y-154025720D01*
X72459662Y-154034378D01*
X72411941Y-154041167D01*
X72363726Y-154046054D01*
X72315064Y-154049004D01*
X72265999Y-154049986D01*
X68734000Y-154050001D01*
X68684935Y-154049018D01*
X68636273Y-154046066D01*
X68540336Y-154034388D01*
X68446553Y-154015234D01*
X68355285Y-153988869D01*
X68266894Y-153955559D01*
X68181742Y-153915571D01*
X68100191Y-153869172D01*
X68022603Y-153816627D01*
X67949340Y-153758203D01*
X67880764Y-153694166D01*
X67817236Y-153624782D01*
X67759120Y-153550318D01*
X67706775Y-153471040D01*
X67660566Y-153387214D01*
X67620853Y-153299106D01*
X67603546Y-153253530D01*
X67587999Y-153206983D01*
X67555660Y-153095764D01*
X67527633Y-152983684D01*
X67503917Y-152870864D01*
X67484514Y-152757430D01*
X67469422Y-152643503D01*
X67458642Y-152529207D01*
X67452174Y-152414664D01*
X67450018Y-152299999D01*
X67452174Y-152185333D01*
X67458642Y-152070790D01*
X67469422Y-151956493D01*
X67484514Y-151842565D01*
X67503917Y-151729129D01*
X67527633Y-151616308D01*
X67555660Y-151504225D01*
X67587999Y-151393003D01*
X67587998Y-151393003D01*
X67603545Y-151346458D01*
X67620852Y-151300883D01*
X67639874Y-151256312D01*
X67660565Y-151212778D01*
X67682880Y-151170314D01*
X67706774Y-151128954D01*
X67732202Y-151088730D01*
X67759118Y-151049677D01*
X67787477Y-151011828D01*
X67817235Y-150975215D01*
X67848345Y-150939872D01*
X67880762Y-150905833D01*
X67914442Y-150873130D01*
X67949338Y-150841797D01*
X67985407Y-150811867D01*
X68022602Y-150783374D01*
X68060878Y-150756351D01*
X68100190Y-150730831D01*
X68140492Y-150706847D01*
X68181741Y-150684433D01*
X68223889Y-150663622D01*
X68266892Y-150644447D01*
X68310706Y-150626942D01*
X68355283Y-150611139D01*
X68400580Y-150597073D01*
X68446551Y-150584776D01*
X68493151Y-150574282D01*
X68540334Y-150565623D01*
X68588056Y-150558834D01*
X68636271Y-150553948D01*
X68684933Y-150550997D01*
X68733998Y-150550016D01*
X72265999Y-150550001D01*
X72315064Y-150550984D01*
D11*
X63050000Y-155300001D02*
X63050000Y-155300001D01*
D10*
X72315064Y-28150982D02*
X72363726Y-28153933D01*
X72459662Y-28165609D01*
X72553445Y-28184762D01*
X72644713Y-28211126D01*
X72733103Y-28244434D01*
X72818255Y-28284420D01*
X72899806Y-28330818D01*
X72977394Y-28383361D01*
X73050657Y-28441784D01*
X73119233Y-28505820D01*
X73182761Y-28575203D01*
X73240878Y-28649666D01*
X73293222Y-28728944D01*
X73339431Y-28812769D01*
X73379144Y-28900877D01*
X73396451Y-28946453D01*
X73411999Y-28993000D01*
X73444338Y-29104223D01*
X73472366Y-29216306D01*
X73496081Y-29329128D01*
X73515485Y-29442564D01*
X73530576Y-29556493D01*
X73541356Y-29670790D01*
X73547824Y-29785334D01*
X73549980Y-29900000D01*
X73547824Y-30014666D01*
X73541356Y-30129210D01*
X73530576Y-30243507D01*
X73515485Y-30357436D01*
X73496081Y-30470872D01*
X73472366Y-30583694D01*
X73444338Y-30695777D01*
X73411999Y-30807000D01*
X73396451Y-30853547D01*
X73379144Y-30899123D01*
X73360123Y-30943695D01*
X73339431Y-30987230D01*
X73317116Y-31029695D01*
X73293222Y-31071056D01*
X73267794Y-31111280D01*
X73240878Y-31150334D01*
X73212518Y-31188184D01*
X73182761Y-31224797D01*
X73151651Y-31260140D01*
X73119233Y-31294180D01*
X73085554Y-31326883D01*
X73050657Y-31358216D01*
X73014589Y-31388146D01*
X72977394Y-31416639D01*
X72939118Y-31443662D01*
X72899806Y-31469183D01*
X72859504Y-31493166D01*
X72818255Y-31515581D01*
X72776107Y-31536392D01*
X72733103Y-31555567D01*
X72689290Y-31573072D01*
X72644713Y-31588875D01*
X72599416Y-31602941D01*
X72553445Y-31615238D01*
X72506845Y-31625733D01*
X72459662Y-31634391D01*
X72411940Y-31641180D01*
X72363726Y-31646067D01*
X72315064Y-31649018D01*
X72265999Y-31650000D01*
X68734000Y-31650000D01*
X68684935Y-31649018D01*
X68636273Y-31646067D01*
X68540337Y-31634391D01*
X68446554Y-31615239D01*
X68355286Y-31588875D01*
X68266896Y-31555567D01*
X68181744Y-31515581D01*
X68100193Y-31469183D01*
X68022605Y-31416639D01*
X67949342Y-31358216D01*
X67880765Y-31294180D01*
X67817238Y-31224798D01*
X67759121Y-31150334D01*
X67706777Y-31071056D01*
X67660567Y-30987231D01*
X67620854Y-30899123D01*
X67603547Y-30853547D01*
X67588000Y-30807000D01*
X67555660Y-30695777D01*
X67527633Y-30583693D01*
X67503917Y-30470872D01*
X67484513Y-30357435D01*
X67469421Y-30243507D01*
X67458641Y-30129209D01*
X67452173Y-30014666D01*
X67450017Y-29899999D01*
X67452173Y-29785333D01*
X67458641Y-29670789D01*
X67469421Y-29556492D01*
X67484513Y-29442563D01*
X67503916Y-29329127D01*
X67527632Y-29216305D01*
X67555660Y-29104221D01*
X67587999Y-28992999D01*
X67587998Y-28993000D01*
X67603545Y-28946453D01*
X67620853Y-28900877D01*
X67639874Y-28856305D01*
X67660565Y-28812769D01*
X67682881Y-28770305D01*
X67706775Y-28728944D01*
X67732203Y-28688720D01*
X67759119Y-28649666D01*
X67787478Y-28611816D01*
X67817236Y-28575203D01*
X67848346Y-28539859D01*
X67880763Y-28505820D01*
X67914443Y-28473117D01*
X67949340Y-28441784D01*
X67985408Y-28411854D01*
X68022603Y-28383361D01*
X68060879Y-28356338D01*
X68100191Y-28330818D01*
X68140493Y-28306834D01*
X68181742Y-28284420D01*
X68223890Y-28263609D01*
X68266894Y-28244434D01*
X68310707Y-28226928D01*
X68355284Y-28211126D01*
X68400581Y-28197059D01*
X68446552Y-28184762D01*
X68493152Y-28174268D01*
X68540335Y-28165610D01*
X68588057Y-28158820D01*
X68636272Y-28153934D01*
X68684934Y-28150983D01*
X68733999Y-28150001D01*
X72265999Y-28150000D01*
X72315064Y-28150982D01*
D11*
X63050000Y-26900000D02*
X63050000Y-26900000D01*
X133829982Y-155300001D02*
X133829982Y-155300001D01*
X133829982Y-155300001D02*
X133829982Y-155300001D01*
X63050000Y-26900000D02*
X63050000Y-26900000D01*
X133829982Y-26900000D02*
X63050000Y-26900000D01*
X63050000Y-26900000D02*
X63050000Y-155300001D01*
X63050000Y-26900000D02*
X63050000Y-26900000D01*
X133829982Y-155300001D02*
X133829982Y-26900000D01*
X63050000Y-155300001D02*
X133829982Y-155300001D01*
D10*
X128195041Y-28150982D02*
X128243703Y-28153933D01*
X128339639Y-28165609D01*
X128433423Y-28184762D01*
X128524691Y-28211125D01*
X128613082Y-28244433D01*
X128698234Y-28284419D01*
X128779786Y-28330817D01*
X128857374Y-28383360D01*
X128930638Y-28441783D01*
X128999214Y-28505819D01*
X129062742Y-28575202D01*
X129120859Y-28649666D01*
X129173203Y-28728943D01*
X129219413Y-28812769D01*
X129259126Y-28900877D01*
X129276433Y-28946454D01*
X129291980Y-28993001D01*
X129324319Y-29104223D01*
X129352347Y-29216307D01*
X129376062Y-29329128D01*
X129395466Y-29442564D01*
X129410557Y-29556493D01*
X129421337Y-29670790D01*
X129427805Y-29785334D01*
X129429961Y-29900000D01*
X129427805Y-30014666D01*
X129421337Y-30129210D01*
X129410557Y-30243507D01*
X129395466Y-30357436D01*
X129376062Y-30470872D01*
X129352347Y-30583694D01*
X129324319Y-30695777D01*
X129291980Y-30807000D01*
X129276433Y-30853547D01*
X129259126Y-30899123D01*
X129240104Y-30943696D01*
X129219413Y-30987231D01*
X129197098Y-31029696D01*
X129173203Y-31071057D01*
X129147775Y-31111281D01*
X129120859Y-31150335D01*
X129092500Y-31188185D01*
X129062742Y-31224799D01*
X129031632Y-31260142D01*
X128999214Y-31294182D01*
X128965534Y-31326885D01*
X128930638Y-31358218D01*
X128894569Y-31388147D01*
X128857374Y-31416640D01*
X128819098Y-31443664D01*
X128779786Y-31469184D01*
X128739483Y-31493168D01*
X128698234Y-31515582D01*
X128656086Y-31536393D01*
X128613082Y-31555568D01*
X128569269Y-31573073D01*
X128524691Y-31588876D01*
X128479394Y-31602942D01*
X128433423Y-31615239D01*
X128386823Y-31625733D01*
X128339639Y-31634392D01*
X128291918Y-31641181D01*
X128243703Y-31646068D01*
X128195041Y-31649018D01*
X128145976Y-31650000D01*
X124613978Y-31650000D01*
X124564913Y-31649018D01*
X124516251Y-31646068D01*
X124420315Y-31634392D01*
X124326532Y-31615239D01*
X124235263Y-31588876D01*
X124146872Y-31555568D01*
X124061720Y-31515582D01*
X123980169Y-31469184D01*
X123902580Y-31416640D01*
X123829317Y-31358218D01*
X123760740Y-31294182D01*
X123697212Y-31224799D01*
X123639095Y-31150335D01*
X123586751Y-31071057D01*
X123540541Y-30987231D01*
X123500828Y-30899123D01*
X123483522Y-30853547D01*
X123467974Y-30807000D01*
X123435635Y-30695777D01*
X123407608Y-30583693D01*
X123383892Y-30470872D01*
X123364488Y-30357435D01*
X123349397Y-30243507D01*
X123338617Y-30129209D01*
X123332149Y-30014666D01*
X123329993Y-29899999D01*
X123332149Y-29785333D01*
X123338617Y-29670789D01*
X123349397Y-29556492D01*
X123364488Y-29442563D01*
X123383892Y-29329127D01*
X123407608Y-29216305D01*
X123435635Y-29104221D01*
X123467974Y-28992999D01*
X123467982Y-28993000D01*
X123483529Y-28946453D01*
X123500836Y-28900877D01*
X123519858Y-28856305D01*
X123540549Y-28812770D01*
X123562864Y-28770305D01*
X123586758Y-28728945D01*
X123612185Y-28688721D01*
X123639101Y-28649667D01*
X123667461Y-28611817D01*
X123697218Y-28575204D01*
X123728328Y-28539861D01*
X123760745Y-28505821D01*
X123794425Y-28473118D01*
X123829321Y-28441785D01*
X123865389Y-28411856D01*
X123902584Y-28383362D01*
X123940860Y-28356339D01*
X123980172Y-28330819D01*
X124020474Y-28306835D01*
X124061722Y-28284421D01*
X124103871Y-28263610D01*
X124146874Y-28244435D01*
X124190687Y-28226930D01*
X124235264Y-28211127D01*
X124280561Y-28197060D01*
X124326532Y-28184763D01*
X124373132Y-28174269D01*
X124420315Y-28165610D01*
X124468036Y-28158821D01*
X124516251Y-28153934D01*
X124564913Y-28150983D01*
X124613978Y-28150001D01*
X128145976Y-28150000D01*
X128195041Y-28150982D01*
D11*
X63050000Y-155300001D02*
X63050000Y-155300001D01*
M02*
