%TF.GenerationSoftware,KiCad,Pcbnew,(6.0.7)*%
%TF.CreationDate,2022-08-19T14:00:51+02:00*%
%TF.ProjectId,faceplate,66616365-706c-4617-9465-2e6b69636164,rev?*%
%TF.SameCoordinates,Original*%
%TF.FileFunction,Legend,Top*%
%TF.FilePolarity,Positive*%
%FSLAX46Y46*%
G04 Gerber Fmt 4.6, Leading zero omitted, Abs format (unit mm)*
G04 Created by KiCad (PCBNEW (6.0.7)) date 2022-08-19 14:00:51*
%MOMM*%
%LPD*%
G01*
G04 APERTURE LIST*
%ADD10C,0.264582*%
%ADD11C,0.499999*%
%ADD12C,0.000000*%
G04 APERTURE END LIST*
D10*
X93699996Y-120300001D02*
X96899997Y-120300001D01*
X74699998Y-132300001D02*
X77899997Y-132300001D01*
D11*
X119849990Y-49248977D02*
X119849990Y-61351022D01*
D10*
X84199996Y-132300001D02*
X87399997Y-132300001D01*
X93699996Y-132300001D02*
X96899997Y-132300001D01*
D12*
G36*
X82215923Y-108847499D02*
G01*
X82279743Y-108848328D01*
X82341556Y-108850817D01*
X82401363Y-108854965D01*
X82459163Y-108860772D01*
X82514957Y-108868239D01*
X82568745Y-108877364D01*
X82620526Y-108888149D01*
X82670301Y-108900593D01*
X82718069Y-108914696D01*
X82763831Y-108930458D01*
X82807586Y-108947879D01*
X82849335Y-108966959D01*
X82889078Y-108987698D01*
X82926814Y-109010097D01*
X82962544Y-109034154D01*
X82996267Y-109059871D01*
X83028563Y-109087131D01*
X83058775Y-109115818D01*
X83086904Y-109145934D01*
X83112949Y-109177477D01*
X83136910Y-109210448D01*
X83158788Y-109244847D01*
X83178582Y-109280673D01*
X83196293Y-109317927D01*
X83211920Y-109356609D01*
X83225463Y-109396718D01*
X83236923Y-109438255D01*
X83246299Y-109481220D01*
X83253592Y-109525612D01*
X83258801Y-109571432D01*
X83261926Y-109618679D01*
X83262968Y-109667354D01*
X83262215Y-109709739D01*
X83259958Y-109751700D01*
X83256196Y-109793237D01*
X83250929Y-109834349D01*
X83244158Y-109875036D01*
X83235881Y-109915299D01*
X83226100Y-109955138D01*
X83214814Y-109994552D01*
X83202023Y-110033542D01*
X83187727Y-110072108D01*
X83171927Y-110110249D01*
X83154622Y-110147966D01*
X83135811Y-110185258D01*
X83115497Y-110222126D01*
X83093677Y-110258570D01*
X83070352Y-110294589D01*
X83046121Y-110329817D01*
X83020346Y-110363888D01*
X82993028Y-110396801D01*
X82964166Y-110428556D01*
X82933761Y-110459154D01*
X82901813Y-110488595D01*
X82868321Y-110516877D01*
X82833286Y-110544002D01*
X82796708Y-110569970D01*
X82758586Y-110594780D01*
X82718920Y-110618432D01*
X82677711Y-110640928D01*
X82634959Y-110662265D01*
X82590664Y-110682445D01*
X82544824Y-110701468D01*
X82497442Y-110719332D01*
X83095047Y-112250392D01*
X82615974Y-112250392D01*
X82077635Y-110803294D01*
X81598562Y-110803294D01*
X81396066Y-112250392D01*
X80951566Y-112250392D01*
X81204661Y-110452639D01*
X81647951Y-110452639D01*
X82028246Y-110452639D01*
X82079178Y-110451752D01*
X82128259Y-110449090D01*
X82175487Y-110444652D01*
X82220863Y-110438440D01*
X82264387Y-110430453D01*
X82306059Y-110420691D01*
X82345879Y-110409154D01*
X82383846Y-110395842D01*
X82419962Y-110380756D01*
X82454226Y-110363894D01*
X82486637Y-110345258D01*
X82517196Y-110324846D01*
X82545903Y-110302660D01*
X82572758Y-110278698D01*
X82597761Y-110252962D01*
X82620912Y-110225451D01*
X82643041Y-110196705D01*
X82663742Y-110167265D01*
X82683015Y-110137130D01*
X82700861Y-110106301D01*
X82717279Y-110074777D01*
X82732269Y-110042559D01*
X82745832Y-110009646D01*
X82757967Y-109976038D01*
X82768674Y-109941736D01*
X82777954Y-109906739D01*
X82785806Y-109871047D01*
X82792230Y-109834661D01*
X82797227Y-109797580D01*
X82800796Y-109759805D01*
X82802938Y-109721335D01*
X82803651Y-109682170D01*
X82803092Y-109651224D01*
X82801414Y-109621359D01*
X82798616Y-109592575D01*
X82794700Y-109564871D01*
X82789664Y-109538247D01*
X82783510Y-109512703D01*
X82776237Y-109488240D01*
X82767844Y-109464858D01*
X82758333Y-109442556D01*
X82747703Y-109421334D01*
X82735954Y-109401192D01*
X82723085Y-109382131D01*
X82709098Y-109364151D01*
X82693992Y-109347250D01*
X82677767Y-109331431D01*
X82660423Y-109316691D01*
X82641844Y-109302936D01*
X82621915Y-109290068D01*
X82600635Y-109278087D01*
X82578005Y-109266994D01*
X82554024Y-109256788D01*
X82528693Y-109247470D01*
X82502012Y-109239039D01*
X82473980Y-109231496D01*
X82444597Y-109224840D01*
X82413864Y-109219071D01*
X82381781Y-109214190D01*
X82348347Y-109210197D01*
X82313563Y-109207091D01*
X82277428Y-109204872D01*
X82239943Y-109203541D01*
X82201107Y-109203097D01*
X81825750Y-109203097D01*
X81647951Y-110452639D01*
X81204661Y-110452639D01*
X81430639Y-108847499D01*
X82215923Y-108847499D01*
G37*
G36*
X78079035Y-37581727D02*
G01*
X78086675Y-37454550D01*
X78099408Y-37327374D01*
X78117235Y-37200197D01*
X78140154Y-37073020D01*
X78168167Y-36945844D01*
X78201274Y-36818667D01*
X78239473Y-36691491D01*
X78260598Y-36627941D01*
X78283229Y-36565704D01*
X78307364Y-36504778D01*
X78333004Y-36445164D01*
X78360148Y-36386862D01*
X78388797Y-36329872D01*
X78418952Y-36274194D01*
X78450611Y-36219827D01*
X78483775Y-36166773D01*
X78518443Y-36115030D01*
X78554617Y-36064599D01*
X78592295Y-36015480D01*
X78631478Y-35967673D01*
X78672166Y-35921178D01*
X78714359Y-35875995D01*
X78758056Y-35832124D01*
X78803259Y-35789661D01*
X78849966Y-35749937D01*
X78898178Y-35712954D01*
X78947895Y-35678709D01*
X78999116Y-35647205D01*
X79051843Y-35618439D01*
X79106074Y-35592414D01*
X79161811Y-35569128D01*
X79219052Y-35548581D01*
X79277797Y-35530774D01*
X79338048Y-35515707D01*
X79399803Y-35503379D01*
X79463063Y-35493790D01*
X79527828Y-35486941D01*
X79594098Y-35482832D01*
X79661873Y-35481462D01*
X79661873Y-35481464D01*
X79723975Y-35482795D01*
X79784341Y-35486789D01*
X79842971Y-35493445D01*
X79899865Y-35502763D01*
X79955022Y-35514744D01*
X80008443Y-35529387D01*
X80060128Y-35546692D01*
X80110076Y-35566660D01*
X80158288Y-35589291D01*
X80204764Y-35614583D01*
X80249503Y-35642538D01*
X80292506Y-35673155D01*
X80333773Y-35706435D01*
X80373303Y-35742377D01*
X80411097Y-35780982D01*
X80447155Y-35822248D01*
X80481843Y-35865348D01*
X80514292Y-35910685D01*
X80544504Y-35958261D01*
X80572479Y-36008074D01*
X80598215Y-36060125D01*
X80621713Y-36114414D01*
X80642973Y-36170941D01*
X80661996Y-36229706D01*
X80678780Y-36290709D01*
X80693327Y-36353950D01*
X80705636Y-36419429D01*
X80715706Y-36487146D01*
X80723539Y-36557101D01*
X80729134Y-36629293D01*
X80732491Y-36703724D01*
X80733610Y-36780393D01*
X80731063Y-36911042D01*
X80723424Y-37041228D01*
X80710691Y-37170951D01*
X80692864Y-37300211D01*
X80669945Y-37429008D01*
X80641932Y-37557342D01*
X80608826Y-37685213D01*
X80570627Y-37812621D01*
X80550099Y-37875553D01*
X80528029Y-37937174D01*
X80504415Y-37997482D01*
X80479257Y-38056479D01*
X80452556Y-38114163D01*
X80424312Y-38170536D01*
X80394524Y-38225597D01*
X80363193Y-38279346D01*
X80330318Y-38331783D01*
X80295900Y-38382908D01*
X80259939Y-38432722D01*
X80222434Y-38481223D01*
X80183386Y-38528413D01*
X80142795Y-38574291D01*
X80100660Y-38618856D01*
X80056982Y-38662110D01*
X80011779Y-38702779D01*
X79965072Y-38740824D01*
X79916860Y-38776245D01*
X79867143Y-38809042D01*
X79815922Y-38839215D01*
X79763195Y-38866765D01*
X79708964Y-38891691D01*
X79653228Y-38913993D01*
X79595986Y-38933672D01*
X79537241Y-38950726D01*
X79476990Y-38965157D01*
X79415235Y-38976964D01*
X79351975Y-38986147D01*
X79287210Y-38992707D01*
X79220940Y-38996642D01*
X79153166Y-38997954D01*
X79091044Y-38996642D01*
X79030619Y-38992707D01*
X78971893Y-38986147D01*
X78914864Y-38976964D01*
X78859533Y-38965157D01*
X78805900Y-38950726D01*
X78753964Y-38933671D01*
X78703727Y-38913993D01*
X78655186Y-38891691D01*
X78608344Y-38866765D01*
X78563200Y-38839215D01*
X78519753Y-38809041D01*
X78478004Y-38776244D01*
X78437952Y-38740822D01*
X78399599Y-38702777D01*
X78362943Y-38662108D01*
X78328256Y-38619028D01*
X78295806Y-38573749D01*
X78265594Y-38526270D01*
X78237620Y-38476591D01*
X78211883Y-38424714D01*
X78188385Y-38370637D01*
X78167125Y-38314361D01*
X78148102Y-38255885D01*
X78131318Y-38195210D01*
X78116771Y-38132336D01*
X78104463Y-38067262D01*
X78094392Y-37999989D01*
X78086559Y-37930517D01*
X78080964Y-37858845D01*
X78077607Y-37784974D01*
X78076706Y-37723720D01*
X78540739Y-37723720D01*
X78543208Y-37833167D01*
X78550616Y-37935553D01*
X78562964Y-38030877D01*
X78580250Y-38119140D01*
X78602475Y-38200343D01*
X78629639Y-38274484D01*
X78645073Y-38308907D01*
X78661741Y-38341564D01*
X78679645Y-38372456D01*
X78698783Y-38401583D01*
X78719156Y-38428945D01*
X78740764Y-38454541D01*
X78763606Y-38478372D01*
X78787683Y-38500438D01*
X78812995Y-38520739D01*
X78839541Y-38539274D01*
X78867323Y-38556044D01*
X78896339Y-38571049D01*
X78926589Y-38584288D01*
X78958075Y-38595763D01*
X78990795Y-38605472D01*
X79024750Y-38613415D01*
X79059939Y-38619594D01*
X79096363Y-38624007D01*
X79134022Y-38626655D01*
X79172916Y-38627538D01*
X79222324Y-38626361D01*
X79270536Y-38622830D01*
X79317552Y-38616946D01*
X79363371Y-38608708D01*
X79407995Y-38598116D01*
X79451423Y-38585171D01*
X79493654Y-38569872D01*
X79534689Y-38552220D01*
X79574528Y-38532213D01*
X79613171Y-38509853D01*
X79650618Y-38485139D01*
X79686869Y-38458072D01*
X79721923Y-38428651D01*
X79755782Y-38396876D01*
X79788444Y-38362747D01*
X79819910Y-38326265D01*
X79850218Y-38287506D01*
X79879408Y-38247783D01*
X79907478Y-38207095D01*
X79934430Y-38165443D01*
X79960263Y-38122825D01*
X79984977Y-38079244D01*
X80008571Y-38034697D01*
X80031047Y-37989186D01*
X80052404Y-37942710D01*
X80072642Y-37895270D01*
X80091761Y-37846865D01*
X80109761Y-37797495D01*
X80126642Y-37747161D01*
X80142405Y-37695862D01*
X80157048Y-37643598D01*
X80170572Y-37590370D01*
X80194880Y-37482023D01*
X80215947Y-37374294D01*
X80233774Y-37267181D01*
X80248359Y-37160687D01*
X80259703Y-37054809D01*
X80267806Y-36949549D01*
X80272667Y-36844906D01*
X80274288Y-36740881D01*
X80273651Y-36684412D01*
X80271741Y-36629833D01*
X80268558Y-36577145D01*
X80264102Y-36526348D01*
X80258372Y-36477441D01*
X80251369Y-36430425D01*
X80243092Y-36385300D01*
X80233542Y-36342065D01*
X80222719Y-36300721D01*
X80210623Y-36261268D01*
X80197253Y-36223705D01*
X80182610Y-36188033D01*
X80166694Y-36154252D01*
X80149504Y-36122362D01*
X80131041Y-36092362D01*
X80111305Y-36064253D01*
X80090932Y-36037938D01*
X80069324Y-36013321D01*
X80046482Y-35990401D01*
X80022404Y-35969179D01*
X79997092Y-35949655D01*
X79970546Y-35931829D01*
X79942764Y-35915700D01*
X79913748Y-35901270D01*
X79883498Y-35888537D01*
X79852012Y-35877501D01*
X79819292Y-35868164D01*
X79785337Y-35860524D01*
X79750148Y-35854582D01*
X79713723Y-35850337D01*
X79676064Y-35847791D01*
X79637172Y-35846942D01*
X79588362Y-35848119D01*
X79540710Y-35851649D01*
X79494215Y-35857533D01*
X79448877Y-35865771D01*
X79404698Y-35876363D01*
X79361675Y-35889308D01*
X79319810Y-35904607D01*
X79279103Y-35922260D01*
X79239553Y-35942266D01*
X79201161Y-35964626D01*
X79163926Y-35989340D01*
X79127849Y-36016407D01*
X79092930Y-36045828D01*
X79059168Y-36077603D01*
X79026564Y-36111732D01*
X78995117Y-36148214D01*
X78964808Y-36186394D01*
X78935619Y-36225616D01*
X78907548Y-36265879D01*
X78880597Y-36307185D01*
X78854764Y-36349532D01*
X78830050Y-36392921D01*
X78806455Y-36437352D01*
X78783980Y-36482824D01*
X78762623Y-36529339D01*
X78742385Y-36576895D01*
X78723266Y-36625493D01*
X78705266Y-36675133D01*
X78688385Y-36725814D01*
X78672623Y-36777537D01*
X78657980Y-36830302D01*
X78644457Y-36884109D01*
X78620148Y-36991221D01*
X78599080Y-37097716D01*
X78581254Y-37203593D01*
X78566668Y-37308853D01*
X78555324Y-37413496D01*
X78547221Y-37517521D01*
X78542359Y-37620929D01*
X78540739Y-37723720D01*
X78076706Y-37723720D01*
X78076488Y-37708903D01*
X78079035Y-37581727D01*
G37*
G36*
X74846998Y-73889788D02*
G01*
X74909660Y-73890676D01*
X74970470Y-73893338D01*
X75029428Y-73897776D01*
X75086533Y-73903988D01*
X75141787Y-73911975D01*
X75195189Y-73921737D01*
X75246738Y-73933274D01*
X75296436Y-73946585D01*
X75344282Y-73961672D01*
X75390275Y-73978534D01*
X75434416Y-73997170D01*
X75476706Y-74017582D01*
X75517143Y-74039768D01*
X75555728Y-74063729D01*
X75592461Y-74089465D01*
X75627342Y-74116977D01*
X75660834Y-74146205D01*
X75692165Y-74177092D01*
X75721335Y-74209639D01*
X75748345Y-74243844D01*
X75773194Y-74279709D01*
X75795882Y-74317233D01*
X75816409Y-74356417D01*
X75834776Y-74397259D01*
X75850982Y-74439761D01*
X75865027Y-74483922D01*
X75876911Y-74529741D01*
X75886635Y-74577221D01*
X75894197Y-74626359D01*
X75899599Y-74677156D01*
X75902840Y-74729613D01*
X75903921Y-74783728D01*
X75903381Y-74824899D01*
X75901760Y-74865683D01*
X75899059Y-74906082D01*
X75895278Y-74946094D01*
X75890416Y-74985721D01*
X75884474Y-75024962D01*
X75877451Y-75063817D01*
X75869348Y-75102287D01*
X75860165Y-75140370D01*
X75849902Y-75178068D01*
X75838558Y-75215379D01*
X75826133Y-75252305D01*
X75812629Y-75288846D01*
X75798044Y-75325000D01*
X75782378Y-75360769D01*
X75765632Y-75396151D01*
X75748288Y-75430936D01*
X75729594Y-75464910D01*
X75709549Y-75498074D01*
X75688154Y-75530428D01*
X75665408Y-75561971D01*
X75641311Y-75592704D01*
X75615865Y-75622627D01*
X75589067Y-75651739D01*
X75560919Y-75680041D01*
X75531421Y-75707533D01*
X75500572Y-75734214D01*
X75468373Y-75760085D01*
X75434823Y-75785146D01*
X75399923Y-75809397D01*
X75363672Y-75832837D01*
X75326070Y-75855468D01*
X75287717Y-75876998D01*
X75247974Y-75897140D01*
X75206843Y-75915892D01*
X75164322Y-75933255D01*
X75120412Y-75949229D01*
X75075114Y-75963815D01*
X75028426Y-75977011D01*
X74980349Y-75988818D01*
X74930883Y-75999235D01*
X74880028Y-76008264D01*
X74827783Y-76015904D01*
X74774150Y-76022155D01*
X74719128Y-76027016D01*
X74662716Y-76030489D01*
X74604916Y-76032572D01*
X74545727Y-76033267D01*
X74200004Y-76033267D01*
X74022205Y-77292685D01*
X73577705Y-77292685D01*
X73805072Y-75677672D01*
X74249389Y-75677672D01*
X74565481Y-75677668D01*
X74624844Y-75676665D01*
X74681931Y-75673656D01*
X74736741Y-75668640D01*
X74789274Y-75661617D01*
X74839531Y-75652589D01*
X74887512Y-75641553D01*
X74933215Y-75628512D01*
X74976643Y-75613464D01*
X75017794Y-75596409D01*
X75056669Y-75577348D01*
X75093267Y-75556281D01*
X75127588Y-75533207D01*
X75159633Y-75508127D01*
X75189401Y-75481040D01*
X75216894Y-75451947D01*
X75242109Y-75420848D01*
X75266032Y-75388243D01*
X75288411Y-75354636D01*
X75309247Y-75320025D01*
X75328540Y-75284411D01*
X75346289Y-75247794D01*
X75362495Y-75210174D01*
X75377157Y-75171550D01*
X75390276Y-75131924D01*
X75401851Y-75091294D01*
X75411884Y-75049660D01*
X75420372Y-75007024D01*
X75427317Y-74963384D01*
X75432719Y-74918741D01*
X75436578Y-74873095D01*
X75438893Y-74826445D01*
X75439664Y-74778792D01*
X75439028Y-74743622D01*
X75437118Y-74709726D01*
X75433935Y-74677103D01*
X75429478Y-74645752D01*
X75423748Y-74615676D01*
X75416745Y-74586872D01*
X75408468Y-74559342D01*
X75398918Y-74533085D01*
X75388095Y-74508101D01*
X75375998Y-74484390D01*
X75362628Y-74461953D01*
X75347985Y-74440789D01*
X75332069Y-74420898D01*
X75314879Y-74402280D01*
X75296416Y-74384936D01*
X75276680Y-74368865D01*
X75256287Y-74353913D01*
X75234622Y-74339927D01*
X75211683Y-74326904D01*
X75187471Y-74314847D01*
X75161985Y-74303754D01*
X75135226Y-74293625D01*
X75107194Y-74284461D01*
X75077889Y-74276262D01*
X75047310Y-74269027D01*
X75015458Y-74262758D01*
X74982333Y-74257452D01*
X74947934Y-74253111D01*
X74912262Y-74249735D01*
X74875317Y-74247324D01*
X74837099Y-74245877D01*
X74797607Y-74245395D01*
X74451885Y-74245395D01*
X74249389Y-75677672D01*
X73805072Y-75677672D01*
X74056777Y-73889788D01*
X74846998Y-73889788D01*
G37*
G36*
X80857732Y-109232730D02*
G01*
X80023061Y-109232730D01*
X79598316Y-112250392D01*
X79153816Y-112250392D01*
X79578562Y-109232730D01*
X78719194Y-109232730D01*
X78773525Y-108847499D01*
X80961452Y-108847499D01*
X80857732Y-109232730D01*
G37*
G36*
X88428405Y-35535792D02*
G01*
X88917356Y-38938687D01*
X88453100Y-38938687D01*
X88349380Y-38074381D01*
X87228252Y-38074381D01*
X86882530Y-38938687D01*
X86423214Y-38938687D01*
X86944085Y-37713841D01*
X87371479Y-37713841D01*
X88304929Y-37713841D01*
X88092558Y-35911147D01*
X87371479Y-37713841D01*
X86944085Y-37713841D01*
X87870310Y-35535792D01*
X88428405Y-35535792D01*
G37*
D10*
X74699998Y-120300001D02*
X77899997Y-120300001D01*
D12*
G36*
X84105051Y-144279818D02*
G01*
X85260749Y-141360927D01*
X85725004Y-141360927D01*
X84297668Y-144763827D01*
X83793901Y-144763827D01*
X83309890Y-141360927D01*
X83769207Y-141360927D01*
X84105051Y-144279818D01*
G37*
G36*
X84072944Y-112250392D02*
G01*
X83628444Y-112250392D01*
X84107517Y-108847499D01*
X84552017Y-108847499D01*
X84072944Y-112250392D01*
G37*
D11*
X126803370Y-47061641D02*
X128438456Y-44994379D01*
D12*
G36*
X82402961Y-35535792D02*
G01*
X82466781Y-35536622D01*
X82528594Y-35539110D01*
X82588401Y-35543258D01*
X82646202Y-35549065D01*
X82701996Y-35556532D01*
X82755783Y-35565657D01*
X82807564Y-35576441D01*
X82857339Y-35588885D01*
X82905107Y-35602988D01*
X82950869Y-35618750D01*
X82994625Y-35636171D01*
X83036374Y-35655251D01*
X83076116Y-35675991D01*
X83113852Y-35698389D01*
X83149582Y-35722447D01*
X83183305Y-35748164D01*
X83215601Y-35775424D01*
X83245814Y-35804112D01*
X83273942Y-35834228D01*
X83299987Y-35865771D01*
X83323949Y-35898742D01*
X83345826Y-35933141D01*
X83365621Y-35968967D01*
X83383331Y-36006221D01*
X83398958Y-36044903D01*
X83412502Y-36085012D01*
X83423961Y-36126549D01*
X83433338Y-36169513D01*
X83440630Y-36213905D01*
X83445839Y-36259725D01*
X83448964Y-36306973D01*
X83450006Y-36355648D01*
X83450004Y-36355648D01*
X83449252Y-36398034D01*
X83446995Y-36439995D01*
X83443233Y-36481532D01*
X83437966Y-36522644D01*
X83431194Y-36563332D01*
X83422918Y-36603596D01*
X83413137Y-36643435D01*
X83401850Y-36682849D01*
X83389060Y-36721840D01*
X83374764Y-36760406D01*
X83358963Y-36798547D01*
X83341658Y-36836264D01*
X83322848Y-36873556D01*
X83302533Y-36910424D01*
X83280713Y-36946868D01*
X83257389Y-36982887D01*
X83233157Y-37018115D01*
X83207383Y-37052186D01*
X83180064Y-37085099D01*
X83151203Y-37116854D01*
X83120798Y-37147452D01*
X83088849Y-37176893D01*
X83055357Y-37205175D01*
X83020322Y-37232301D01*
X82983743Y-37258268D01*
X82945621Y-37283078D01*
X82905955Y-37306731D01*
X82864746Y-37329226D01*
X82821994Y-37350564D01*
X82777698Y-37370743D01*
X82731859Y-37389766D01*
X82684477Y-37407631D01*
X83282083Y-38938687D01*
X82803011Y-38938687D01*
X82264671Y-37491592D01*
X81785598Y-37491592D01*
X81583105Y-38938687D01*
X81138605Y-38938687D01*
X81391700Y-37140932D01*
X81834987Y-37140932D01*
X82215282Y-37140931D01*
X82266215Y-37140043D01*
X82315295Y-37137381D01*
X82362523Y-37132944D01*
X82407899Y-37126732D01*
X82451424Y-37118745D01*
X82493095Y-37108983D01*
X82532915Y-37097446D01*
X82570883Y-37084134D01*
X82606999Y-37069047D01*
X82641262Y-37052185D01*
X82673673Y-37033549D01*
X82704233Y-37013137D01*
X82732940Y-36990951D01*
X82759795Y-36966989D01*
X82784798Y-36941253D01*
X82807949Y-36913742D01*
X82830077Y-36884996D01*
X82850778Y-36855555D01*
X82870052Y-36825421D01*
X82887897Y-36794591D01*
X82904315Y-36763067D01*
X82919305Y-36730848D01*
X82932868Y-36697935D01*
X82945003Y-36664328D01*
X82955711Y-36630026D01*
X82964990Y-36595029D01*
X82972842Y-36559338D01*
X82979267Y-36522952D01*
X82984264Y-36485872D01*
X82987833Y-36448097D01*
X82989974Y-36409628D01*
X82990688Y-36370464D01*
X82990128Y-36339519D01*
X82988450Y-36309654D01*
X82985653Y-36280870D01*
X82981736Y-36253166D01*
X82976701Y-36226542D01*
X82970547Y-36200999D01*
X82963273Y-36176536D01*
X82954881Y-36153153D01*
X82945370Y-36130851D01*
X82934739Y-36109630D01*
X82922990Y-36089488D01*
X82910122Y-36070427D01*
X82896135Y-36052447D01*
X82881029Y-36035546D01*
X82864804Y-36019726D01*
X82847459Y-36004987D01*
X82828881Y-35991231D01*
X82808951Y-35978363D01*
X82787672Y-35966382D01*
X82765042Y-35955289D01*
X82741061Y-35945084D01*
X82715730Y-35935765D01*
X82689048Y-35927334D01*
X82661016Y-35919791D01*
X82631634Y-35913135D01*
X82600901Y-35907367D01*
X82568818Y-35902486D01*
X82535384Y-35898492D01*
X82500599Y-35895386D01*
X82464464Y-35893167D01*
X82426979Y-35891836D01*
X82388143Y-35891393D01*
X82012787Y-35891393D01*
X81834987Y-37140932D01*
X81391700Y-37140932D01*
X81617677Y-35535792D01*
X82402961Y-35535792D01*
G37*
G36*
X82344702Y-141306960D02*
G01*
X82376670Y-141308002D01*
X82408136Y-141309738D01*
X82439100Y-141312169D01*
X82469563Y-141315294D01*
X82499524Y-141319114D01*
X82528984Y-141323628D01*
X82557942Y-141328837D01*
X82586398Y-141334741D01*
X82614353Y-141341338D01*
X82641806Y-141348631D01*
X82668758Y-141356618D01*
X82695208Y-141365299D01*
X82721157Y-141374675D01*
X82746604Y-141384746D01*
X82771549Y-141395510D01*
X82796108Y-141406357D01*
X82820398Y-141417898D01*
X82844417Y-141430133D01*
X82868166Y-141443062D01*
X82891645Y-141456685D01*
X82914854Y-141471001D01*
X82937793Y-141486012D01*
X82960461Y-141501716D01*
X82982860Y-141518115D01*
X83004988Y-141535207D01*
X83026847Y-141552993D01*
X83048435Y-141571473D01*
X83069753Y-141590647D01*
X83090801Y-141610514D01*
X83111579Y-141631076D01*
X83132087Y-141652331D01*
X82875265Y-141899272D01*
X82840847Y-141870643D01*
X82806738Y-141844020D01*
X82772937Y-141819403D01*
X82756153Y-141807847D01*
X82739445Y-141796792D01*
X82722815Y-141786239D01*
X82706262Y-141776187D01*
X82689786Y-141766637D01*
X82673387Y-141757589D01*
X82657066Y-141749042D01*
X82640821Y-141740997D01*
X82624654Y-141733454D01*
X82608564Y-141726413D01*
X82592397Y-141719837D01*
X82575998Y-141713686D01*
X82559368Y-141707959D01*
X82542507Y-141702656D01*
X82525413Y-141697777D01*
X82508089Y-141693323D01*
X82490533Y-141689293D01*
X82472745Y-141685688D01*
X82454726Y-141682506D01*
X82436475Y-141679749D01*
X82417993Y-141677416D01*
X82399279Y-141675508D01*
X82380334Y-141674023D01*
X82361157Y-141672962D01*
X82341749Y-141672326D01*
X82322109Y-141672114D01*
X82274476Y-141673252D01*
X82227884Y-141676667D01*
X82182334Y-141682358D01*
X82137826Y-141690326D01*
X82094360Y-141700570D01*
X82051936Y-141713091D01*
X82010553Y-141727889D01*
X81970212Y-141744963D01*
X81930913Y-141764313D01*
X81892656Y-141785940D01*
X81855441Y-141809844D01*
X81819267Y-141836024D01*
X81784136Y-141864481D01*
X81750046Y-141895214D01*
X81716998Y-141928224D01*
X81684992Y-141963511D01*
X81654644Y-141999878D01*
X81625339Y-142037363D01*
X81597076Y-142075968D01*
X81569854Y-142115691D01*
X81543674Y-142156533D01*
X81518536Y-142198494D01*
X81494440Y-142241574D01*
X81471385Y-142285773D01*
X81449372Y-142331091D01*
X81428401Y-142377528D01*
X81408472Y-142425084D01*
X81389585Y-142473760D01*
X81371739Y-142523554D01*
X81354935Y-142574468D01*
X81339173Y-142626500D01*
X81324453Y-142679652D01*
X81298987Y-142787226D01*
X81276916Y-142895110D01*
X81258241Y-143003302D01*
X81242961Y-143111803D01*
X81231077Y-143220612D01*
X81222588Y-143329730D01*
X81217495Y-143439157D01*
X81215797Y-143548892D01*
X81216453Y-143605361D01*
X81218421Y-143659940D01*
X81221701Y-143712628D01*
X81226292Y-143763426D01*
X81232196Y-143812332D01*
X81239411Y-143859348D01*
X81247939Y-143904474D01*
X81257778Y-143947708D01*
X81268929Y-143989052D01*
X81281392Y-144028505D01*
X81295167Y-144066067D01*
X81310254Y-144101739D01*
X81326653Y-144135520D01*
X81344363Y-144167411D01*
X81363386Y-144197411D01*
X81383720Y-144225520D01*
X81405810Y-144251835D01*
X81428864Y-144276452D01*
X81452884Y-144299372D01*
X81477867Y-144320593D01*
X81503816Y-144340117D01*
X81530729Y-144357943D01*
X81558607Y-144374071D01*
X81587449Y-144388502D01*
X81617256Y-144401235D01*
X81648028Y-144412270D01*
X81679764Y-144421607D01*
X81712465Y-144429247D01*
X81746130Y-144435188D01*
X81780760Y-144439433D01*
X81816355Y-144441979D01*
X81852914Y-144442828D01*
X81877416Y-144442558D01*
X81901532Y-144441748D01*
X81925262Y-144440399D01*
X81948606Y-144438509D01*
X81971564Y-144436080D01*
X81994136Y-144433111D01*
X82016323Y-144429602D01*
X82038123Y-144425553D01*
X82059538Y-144420965D01*
X82080567Y-144415836D01*
X82101210Y-144410168D01*
X82121467Y-144403960D01*
X82141338Y-144397212D01*
X82160823Y-144389924D01*
X82179923Y-144382096D01*
X82198637Y-144373729D01*
X82237531Y-144354201D01*
X82277660Y-144332667D01*
X82319023Y-144309128D01*
X82361621Y-144283583D01*
X82405453Y-144256033D01*
X82450521Y-144226477D01*
X82496822Y-144194916D01*
X82544359Y-144161349D01*
X82732036Y-144457690D01*
X82679811Y-144501946D01*
X82626853Y-144543347D01*
X82573162Y-144581892D01*
X82518737Y-144617582D01*
X82463580Y-144650418D01*
X82407689Y-144680398D01*
X82351066Y-144707523D01*
X82293709Y-144731792D01*
X82235619Y-144753207D01*
X82176796Y-144771766D01*
X82117240Y-144787470D01*
X82056951Y-144800319D01*
X81995929Y-144810312D01*
X81934174Y-144817450D01*
X81871685Y-144821733D01*
X81808464Y-144823161D01*
X81748734Y-144821830D01*
X81690548Y-144817836D01*
X81633905Y-144811180D01*
X81578805Y-144801862D01*
X81525249Y-144789881D01*
X81473237Y-144775238D01*
X81422767Y-144757933D01*
X81373841Y-144737965D01*
X81326459Y-144715335D01*
X81280620Y-144690043D01*
X81236324Y-144662088D01*
X81193572Y-144631471D01*
X81152363Y-144598191D01*
X81112697Y-144562250D01*
X81074575Y-144523645D01*
X81037996Y-144482379D01*
X81003308Y-144438681D01*
X80970858Y-144392784D01*
X80940646Y-144344688D01*
X80912672Y-144294392D01*
X80886936Y-144241897D01*
X80863438Y-144187203D01*
X80842177Y-144130309D01*
X80823155Y-144071216D01*
X80806370Y-144009924D01*
X80791824Y-143946432D01*
X80779515Y-143880741D01*
X80769444Y-143812851D01*
X80761612Y-143742762D01*
X80756017Y-143670473D01*
X80752660Y-143595985D01*
X80751541Y-143519297D01*
X80754165Y-143388648D01*
X80762036Y-143258462D01*
X80775155Y-143128739D01*
X80793521Y-142999479D01*
X80817135Y-142870682D01*
X80845996Y-142742348D01*
X80880105Y-142614478D01*
X80919462Y-142487071D01*
X80941166Y-142424157D01*
X80964298Y-142362594D01*
X80988857Y-142302381D01*
X81014844Y-142243519D01*
X81042259Y-142186008D01*
X81071101Y-142129847D01*
X81101371Y-142075036D01*
X81133069Y-142021577D01*
X81166194Y-141969468D01*
X81200747Y-141918709D01*
X81236727Y-141869301D01*
X81274136Y-141821244D01*
X81312972Y-141774537D01*
X81353235Y-141729180D01*
X81394926Y-141685175D01*
X81438045Y-141642520D01*
X81482553Y-141601852D01*
X81528411Y-141563808D01*
X81575620Y-141528387D01*
X81624180Y-141495591D01*
X81674090Y-141465418D01*
X81725350Y-141437868D01*
X81777961Y-141412943D01*
X81831922Y-141390641D01*
X81887234Y-141370963D01*
X81943896Y-141353909D01*
X82001909Y-141339478D01*
X82061272Y-141327671D01*
X82121985Y-141318488D01*
X82184049Y-141311929D01*
X82247464Y-141307993D01*
X82312229Y-141306681D01*
X82312233Y-141306613D01*
X82344702Y-141306960D01*
G37*
G36*
X113977266Y-38024993D02*
G01*
X114905779Y-35535792D01*
X115523142Y-35535792D01*
X115300894Y-38938687D01*
X114871210Y-38938687D01*
X114979868Y-37407631D01*
X115007959Y-37038140D01*
X115037901Y-36680379D01*
X115069694Y-36334349D01*
X115103338Y-36000048D01*
X114120500Y-38553453D01*
X113685877Y-38553453D01*
X113369787Y-36004986D01*
X113354044Y-36124600D01*
X113333979Y-36261191D01*
X113280886Y-36585306D01*
X113210507Y-36977330D01*
X113122843Y-37437264D01*
X112821569Y-38938687D01*
X112386945Y-38938687D01*
X113122839Y-35535792D01*
X113685873Y-35535792D01*
X113977266Y-38024993D01*
G37*
G36*
X92054186Y-111865153D02*
G01*
X92058739Y-111714285D01*
X92064991Y-111565424D01*
X92072940Y-111418569D01*
X92082587Y-111273721D01*
X92093930Y-111130879D01*
X92106972Y-110990043D01*
X92121711Y-110851213D01*
X92138147Y-110714389D01*
X92394972Y-108847491D01*
X92809839Y-108847491D01*
X92330763Y-112250392D01*
X91747972Y-112250392D01*
X90947874Y-109237666D01*
X90942625Y-109396095D01*
X90934290Y-109560236D01*
X90922869Y-109730088D01*
X90908361Y-109905650D01*
X90890766Y-110086923D01*
X90870085Y-110273906D01*
X90846317Y-110466600D01*
X90819463Y-110665004D01*
X90602152Y-112250384D01*
X90187284Y-112250384D01*
X90666357Y-108847491D01*
X91249147Y-108847491D01*
X92054186Y-111865153D01*
G37*
G36*
X90021837Y-144378588D02*
G01*
X90026391Y-144227720D01*
X90032642Y-144078859D01*
X90040591Y-143932005D01*
X90050237Y-143787157D01*
X90061581Y-143644316D01*
X90074622Y-143503481D01*
X90089360Y-143364653D01*
X90105796Y-143227832D01*
X90362615Y-141360934D01*
X90777483Y-141360934D01*
X90298414Y-144763827D01*
X89715627Y-144763827D01*
X88915527Y-141751109D01*
X88910279Y-141909538D01*
X88901944Y-142073678D01*
X88890523Y-142243528D01*
X88876015Y-142419089D01*
X88858420Y-142600361D01*
X88837739Y-142787343D01*
X88813971Y-142980036D01*
X88787117Y-143178439D01*
X88569805Y-144763827D01*
X88154937Y-144763827D01*
X88634010Y-141360927D01*
X89216798Y-141360927D01*
X90021837Y-144378588D01*
G37*
G36*
X119047632Y-73889788D02*
G01*
X119110294Y-73890676D01*
X119171104Y-73893338D01*
X119230062Y-73897776D01*
X119287168Y-73903988D01*
X119342422Y-73911975D01*
X119395824Y-73921737D01*
X119447373Y-73933274D01*
X119497071Y-73946585D01*
X119544916Y-73961672D01*
X119590910Y-73978534D01*
X119635051Y-73997170D01*
X119677341Y-74017582D01*
X119717778Y-74039768D01*
X119756363Y-74063729D01*
X119793097Y-74089465D01*
X119827978Y-74116977D01*
X119861469Y-74146205D01*
X119892800Y-74177092D01*
X119921970Y-74209639D01*
X119948980Y-74243844D01*
X119973828Y-74279709D01*
X119996516Y-74317233D01*
X120017044Y-74356417D01*
X120035410Y-74397259D01*
X120051616Y-74439761D01*
X120065661Y-74483922D01*
X120077545Y-74529741D01*
X120087269Y-74577221D01*
X120094831Y-74626359D01*
X120100233Y-74677156D01*
X120103474Y-74729613D01*
X120104555Y-74783728D01*
X120104015Y-74824899D01*
X120102394Y-74865683D01*
X120099693Y-74906082D01*
X120095912Y-74946094D01*
X120091050Y-74985721D01*
X120085108Y-75024962D01*
X120078085Y-75063817D01*
X120069982Y-75102287D01*
X120060799Y-75140370D01*
X120050535Y-75178068D01*
X120039191Y-75215379D01*
X120026766Y-75252305D01*
X120013262Y-75288846D01*
X119998676Y-75325000D01*
X119983011Y-75360769D01*
X119966264Y-75396151D01*
X119948920Y-75430936D01*
X119930226Y-75464910D01*
X119910181Y-75498074D01*
X119888785Y-75530428D01*
X119866039Y-75561971D01*
X119841943Y-75592704D01*
X119816496Y-75622627D01*
X119789699Y-75651739D01*
X119761551Y-75680041D01*
X119732053Y-75707533D01*
X119701204Y-75734214D01*
X119669005Y-75760085D01*
X119635456Y-75785146D01*
X119600556Y-75809397D01*
X119564305Y-75832837D01*
X119526704Y-75855468D01*
X119488351Y-75876998D01*
X119448608Y-75897140D01*
X119407477Y-75915892D01*
X119364956Y-75933255D01*
X119321046Y-75949229D01*
X119275747Y-75963815D01*
X119229059Y-75977011D01*
X119180982Y-75988818D01*
X119131516Y-75999235D01*
X119080660Y-76008264D01*
X119028416Y-76015904D01*
X118974783Y-76022155D01*
X118919760Y-76027016D01*
X118863349Y-76030489D01*
X118805548Y-76032572D01*
X118746359Y-76033267D01*
X118400636Y-76033267D01*
X118222837Y-77292685D01*
X117778337Y-77292685D01*
X118005705Y-75677672D01*
X118450025Y-75677672D01*
X118766115Y-75677668D01*
X118825478Y-75676665D01*
X118882565Y-75673656D01*
X118937375Y-75668640D01*
X118989908Y-75661617D01*
X119040165Y-75652589D01*
X119088146Y-75641553D01*
X119133850Y-75628512D01*
X119177278Y-75613464D01*
X119218429Y-75596409D01*
X119257303Y-75577348D01*
X119293901Y-75556281D01*
X119328223Y-75533207D01*
X119360268Y-75508127D01*
X119390036Y-75481040D01*
X119417528Y-75451947D01*
X119442743Y-75420848D01*
X119466666Y-75388243D01*
X119489045Y-75354636D01*
X119509881Y-75320025D01*
X119529173Y-75284411D01*
X119546922Y-75247794D01*
X119563128Y-75210174D01*
X119577790Y-75171550D01*
X119590909Y-75131924D01*
X119602485Y-75091294D01*
X119612517Y-75049660D01*
X119621006Y-75007024D01*
X119627951Y-74963384D01*
X119633353Y-74918741D01*
X119637212Y-74873095D01*
X119639527Y-74826445D01*
X119640299Y-74778792D01*
X119639662Y-74743622D01*
X119637752Y-74709726D01*
X119634569Y-74677103D01*
X119630112Y-74645752D01*
X119624382Y-74615676D01*
X119617379Y-74586872D01*
X119609102Y-74559342D01*
X119599552Y-74533085D01*
X119588729Y-74508101D01*
X119576633Y-74484390D01*
X119563263Y-74461953D01*
X119548620Y-74440789D01*
X119532704Y-74420898D01*
X119515514Y-74402280D01*
X119497052Y-74384936D01*
X119477316Y-74368865D01*
X119456923Y-74353913D01*
X119435257Y-74339927D01*
X119412318Y-74326904D01*
X119388105Y-74314847D01*
X119362620Y-74303754D01*
X119335861Y-74293625D01*
X119307829Y-74284461D01*
X119278523Y-74276262D01*
X119247945Y-74269027D01*
X119216093Y-74262758D01*
X119182967Y-74257452D01*
X119148569Y-74253111D01*
X119112897Y-74249735D01*
X119075953Y-74247324D01*
X119037734Y-74245877D01*
X118998243Y-74245395D01*
X118652521Y-74245395D01*
X118450025Y-75677672D01*
X118005705Y-75677672D01*
X118257410Y-73889788D01*
X119047632Y-73889788D01*
G37*
G36*
X97091222Y-38553454D02*
G01*
X97095776Y-38402586D01*
X97102028Y-38253725D01*
X97109977Y-38106870D01*
X97119623Y-37962022D01*
X97130967Y-37819180D01*
X97144009Y-37678345D01*
X97158748Y-37539515D01*
X97175184Y-37402693D01*
X97432008Y-35535792D01*
X97846876Y-35535792D01*
X97367799Y-38938687D01*
X96785009Y-38938687D01*
X95984911Y-35925964D01*
X95979662Y-36084394D01*
X95971327Y-36248535D01*
X95959906Y-36418387D01*
X95945398Y-36593949D01*
X95927803Y-36775221D01*
X95907122Y-36962205D01*
X95883354Y-37154898D01*
X95856500Y-37353303D01*
X95639188Y-38938687D01*
X95224321Y-38938687D01*
X95703394Y-35535792D01*
X96286184Y-35535792D01*
X97091222Y-38553454D01*
G37*
G36*
X124782559Y-111052726D02*
G01*
X124813449Y-111053925D01*
X124843325Y-111055925D01*
X124872186Y-111058725D01*
X124900034Y-111062325D01*
X124926867Y-111066725D01*
X124952687Y-111071925D01*
X124977493Y-111077925D01*
X125001285Y-111084726D01*
X125024063Y-111092327D01*
X125045829Y-111100728D01*
X125066581Y-111109929D01*
X125086319Y-111119931D01*
X125105044Y-111130734D01*
X125122757Y-111142337D01*
X125139456Y-111154741D01*
X125155143Y-111167945D01*
X125169817Y-111181950D01*
X125183478Y-111196756D01*
X125196126Y-111212362D01*
X125207762Y-111228770D01*
X125218386Y-111245978D01*
X125227997Y-111263987D01*
X125236597Y-111282797D01*
X125244184Y-111302408D01*
X125250759Y-111322820D01*
X125256323Y-111344034D01*
X125260875Y-111366048D01*
X125264414Y-111388864D01*
X125266943Y-111412481D01*
X125268460Y-111436900D01*
X125268966Y-111462119D01*
X125268212Y-111503467D01*
X125265950Y-111543547D01*
X125262182Y-111582359D01*
X125256906Y-111619903D01*
X125250125Y-111656177D01*
X125241837Y-111691180D01*
X125232044Y-111724912D01*
X125220745Y-111757372D01*
X125207942Y-111788558D01*
X125193634Y-111818469D01*
X125177822Y-111847106D01*
X125160507Y-111874467D01*
X125141688Y-111900551D01*
X125121367Y-111925357D01*
X125099543Y-111948884D01*
X125076217Y-111971132D01*
X125051584Y-111992061D01*
X125025839Y-112011635D01*
X124998980Y-112029853D01*
X124971008Y-112046717D01*
X124941920Y-112062228D01*
X124911716Y-112076386D01*
X124880395Y-112089192D01*
X124847956Y-112100647D01*
X124814398Y-112110751D01*
X124779721Y-112119505D01*
X124743922Y-112126911D01*
X124707003Y-112132968D01*
X124668960Y-112137678D01*
X124629794Y-112141042D01*
X124589503Y-112143059D01*
X124548087Y-112143731D01*
X124098498Y-112143731D01*
X124251460Y-111052326D01*
X124750655Y-111052326D01*
X124782559Y-111052726D01*
G37*
G36*
X86572023Y-108793170D02*
G01*
X86607540Y-108793556D01*
X86642479Y-108794713D01*
X86676839Y-108796643D01*
X86710620Y-108799344D01*
X86743823Y-108802817D01*
X86776446Y-108807061D01*
X86808491Y-108812077D01*
X86839957Y-108817865D01*
X86870845Y-108824425D01*
X86901153Y-108831756D01*
X86930883Y-108839859D01*
X86960034Y-108848733D01*
X86988606Y-108858380D01*
X87016600Y-108868797D01*
X87044014Y-108879987D01*
X87070850Y-108891948D01*
X87097262Y-108904044D01*
X87123403Y-108916874D01*
X87149275Y-108930437D01*
X87174876Y-108944733D01*
X87200207Y-108959763D01*
X87225269Y-108975525D01*
X87250060Y-108992020D01*
X87274580Y-109009249D01*
X87298831Y-109027210D01*
X87322812Y-109045905D01*
X87346522Y-109065332D01*
X87369963Y-109085493D01*
X87393133Y-109106386D01*
X87416033Y-109128013D01*
X87438663Y-109150372D01*
X87461023Y-109173465D01*
X87179506Y-109415469D01*
X87161024Y-109398491D01*
X87142619Y-109382131D01*
X87124291Y-109366389D01*
X87106040Y-109351263D01*
X87087866Y-109336755D01*
X87069770Y-109322865D01*
X87051751Y-109309592D01*
X87033809Y-109296936D01*
X87015944Y-109284897D01*
X86998156Y-109273476D01*
X86980446Y-109262673D01*
X86962812Y-109252486D01*
X86945256Y-109242917D01*
X86927777Y-109233965D01*
X86910375Y-109225631D01*
X86893051Y-109217913D01*
X86875572Y-109210736D01*
X86857707Y-109204022D01*
X86839457Y-109197771D01*
X86820820Y-109191983D01*
X86801798Y-109186657D01*
X86782389Y-109181795D01*
X86762595Y-109177396D01*
X86742415Y-109173460D01*
X86721850Y-109169987D01*
X86700898Y-109166977D01*
X86679560Y-109164430D01*
X86657837Y-109162346D01*
X86635728Y-109160725D01*
X86613233Y-109159567D01*
X86590352Y-109158872D01*
X86567085Y-109158641D01*
X86518815Y-109159779D01*
X86471548Y-109163194D01*
X86425285Y-109168885D01*
X86380025Y-109176853D01*
X86335767Y-109187097D01*
X86292513Y-109199618D01*
X86250263Y-109214415D01*
X86209015Y-109231489D01*
X86168771Y-109250840D01*
X86129530Y-109272467D01*
X86091292Y-109296370D01*
X86054057Y-109322550D01*
X86017826Y-109351007D01*
X85982598Y-109381741D01*
X85948373Y-109414751D01*
X85915151Y-109450038D01*
X85883569Y-109487061D01*
X85853029Y-109525280D01*
X85823531Y-109564695D01*
X85795075Y-109605306D01*
X85767660Y-109647113D01*
X85741287Y-109690116D01*
X85715956Y-109734315D01*
X85691667Y-109779710D01*
X85668419Y-109826301D01*
X85646213Y-109874088D01*
X85625049Y-109923071D01*
X85604927Y-109973251D01*
X85585847Y-110024627D01*
X85567808Y-110077199D01*
X85550812Y-110130967D01*
X85534856Y-110185931D01*
X85505918Y-110297442D01*
X85480837Y-110409724D01*
X85459615Y-110522779D01*
X85442252Y-110636605D01*
X85428747Y-110751203D01*
X85419101Y-110866573D01*
X85413313Y-110982714D01*
X85411384Y-111099627D01*
X85412021Y-111153049D01*
X85413931Y-111204656D01*
X85417114Y-111254450D01*
X85421571Y-111302431D01*
X85427301Y-111348598D01*
X85434304Y-111392952D01*
X85442581Y-111435492D01*
X85452131Y-111476218D01*
X85462954Y-111515131D01*
X85475051Y-111552230D01*
X85488420Y-111587516D01*
X85503064Y-111620989D01*
X85518980Y-111652647D01*
X85536170Y-111682493D01*
X85554633Y-111710525D01*
X85574369Y-111736743D01*
X85595359Y-111761263D01*
X85617585Y-111784202D01*
X85641044Y-111805558D01*
X85665739Y-111825333D01*
X85691668Y-111843526D01*
X85718832Y-111860136D01*
X85747230Y-111875165D01*
X85776864Y-111888612D01*
X85807732Y-111900476D01*
X85839834Y-111910759D01*
X85873172Y-111919460D01*
X85907744Y-111926579D01*
X85943551Y-111932116D01*
X85980593Y-111936071D01*
X86018869Y-111938444D01*
X86058380Y-111939235D01*
X86097158Y-111938598D01*
X86135704Y-111936688D01*
X86174019Y-111933505D01*
X86212103Y-111929048D01*
X86249955Y-111923318D01*
X86287575Y-111916315D01*
X86324964Y-111908038D01*
X86362122Y-111898488D01*
X86399048Y-111887664D01*
X86435742Y-111875568D01*
X86472205Y-111862198D01*
X86508436Y-111847555D01*
X86544436Y-111831638D01*
X86580204Y-111814448D01*
X86615741Y-111795984D01*
X86651046Y-111776248D01*
X86799213Y-110734141D01*
X86280630Y-110734141D01*
X86285530Y-110368663D01*
X87288124Y-110368663D01*
X87065874Y-111988620D01*
X87002729Y-112027494D01*
X86939238Y-112063861D01*
X86875399Y-112097720D01*
X86811212Y-112129070D01*
X86746679Y-112157913D01*
X86681798Y-112184247D01*
X86616570Y-112208074D01*
X86550994Y-112229392D01*
X86485072Y-112248202D01*
X86418802Y-112264504D01*
X86352184Y-112278299D01*
X86285220Y-112289585D01*
X86217908Y-112298363D01*
X86150249Y-112304633D01*
X86082243Y-112308395D01*
X86013889Y-112309649D01*
X85951188Y-112308395D01*
X85890263Y-112304633D01*
X85831112Y-112298363D01*
X85773736Y-112289585D01*
X85718135Y-112278299D01*
X85664309Y-112264504D01*
X85612257Y-112248202D01*
X85561981Y-112229392D01*
X85513479Y-112208074D01*
X85466753Y-112184247D01*
X85421801Y-112157913D01*
X85378624Y-112129070D01*
X85337223Y-112097720D01*
X85297596Y-112063861D01*
X85259744Y-112027494D01*
X85223667Y-111988620D01*
X85190175Y-111947333D01*
X85158844Y-111903732D01*
X85129673Y-111857815D01*
X85102664Y-111809584D01*
X85077815Y-111759037D01*
X85055127Y-111706175D01*
X85034599Y-111650999D01*
X85016233Y-111593507D01*
X85000027Y-111533700D01*
X84985982Y-111471577D01*
X84974098Y-111407140D01*
X84964374Y-111340388D01*
X84956812Y-111271320D01*
X84951410Y-111199937D01*
X84948168Y-111126240D01*
X84947088Y-111050227D01*
X84949866Y-110913636D01*
X84958200Y-110777971D01*
X84972091Y-110643231D01*
X84991538Y-110509418D01*
X85016541Y-110376531D01*
X85047100Y-110244570D01*
X85083216Y-110113534D01*
X85124887Y-109983424D01*
X85148443Y-109919314D01*
X85173427Y-109856632D01*
X85199839Y-109795378D01*
X85227678Y-109735552D01*
X85256945Y-109677153D01*
X85287639Y-109620182D01*
X85319761Y-109564639D01*
X85353311Y-109510524D01*
X85388289Y-109457836D01*
X85424694Y-109406575D01*
X85462527Y-109356743D01*
X85501787Y-109308338D01*
X85542475Y-109261360D01*
X85584591Y-109215810D01*
X85628134Y-109171688D01*
X85673105Y-109128993D01*
X85719445Y-109088324D01*
X85767098Y-109050278D01*
X85816062Y-109014857D01*
X85866338Y-108982059D01*
X85917927Y-108951885D01*
X85970827Y-108924336D01*
X86025039Y-108899410D01*
X86080563Y-108877107D01*
X86137399Y-108857429D01*
X86195546Y-108840375D01*
X86255006Y-108825944D01*
X86315778Y-108814137D01*
X86377861Y-108804954D01*
X86441257Y-108798394D01*
X86505964Y-108794459D01*
X86571983Y-108793147D01*
X86572023Y-108793170D01*
G37*
D10*
X84199996Y-120300001D02*
X87399997Y-120300001D01*
D11*
X128438456Y-44994379D02*
X130104930Y-47041444D01*
X115349990Y-88800001D02*
X80449996Y-88800001D01*
D12*
G36*
X111670808Y-38938687D02*
G01*
X111226312Y-38938687D01*
X111705381Y-35535792D01*
X112149881Y-35535792D01*
X111670808Y-38938687D01*
G37*
G36*
X115685065Y-112874955D02*
G01*
X114751796Y-112874955D01*
X115472674Y-111071966D01*
X115685065Y-112874955D01*
G37*
G36*
X100420034Y-35921025D02*
G01*
X99585359Y-35921025D01*
X99160616Y-38938687D01*
X98716116Y-38938687D01*
X99140859Y-35921025D01*
X98281492Y-35921025D01*
X98335821Y-35535792D01*
X100523748Y-35535792D01*
X100420034Y-35921025D01*
G37*
G36*
X121205927Y-73939177D02*
G01*
X121253445Y-73940065D01*
X121299689Y-73942727D01*
X121344660Y-73947164D01*
X121388358Y-73953377D01*
X121430782Y-73961364D01*
X121471933Y-73971126D01*
X121511810Y-73982663D01*
X121550415Y-73995974D01*
X121587746Y-74011061D01*
X121623803Y-74027923D01*
X121658587Y-74046559D01*
X121692098Y-74066971D01*
X121724336Y-74089157D01*
X121755301Y-74113118D01*
X121784992Y-74138854D01*
X121813409Y-74166365D01*
X121840323Y-74194668D01*
X121865499Y-74224012D01*
X121888940Y-74254397D01*
X121910644Y-74285825D01*
X121930612Y-74318295D01*
X121948844Y-74351806D01*
X121965339Y-74386359D01*
X121980098Y-74421954D01*
X121993121Y-74458591D01*
X122004407Y-74496269D01*
X122013957Y-74534989D01*
X122021770Y-74574751D01*
X122027848Y-74615555D01*
X122032189Y-74657400D01*
X122034793Y-74700287D01*
X122035661Y-74744216D01*
X122035160Y-74778749D01*
X122033655Y-74813205D01*
X122031147Y-74847585D01*
X122027636Y-74881887D01*
X122023121Y-74916112D01*
X122017603Y-74950260D01*
X122011082Y-74984330D01*
X122003558Y-75018324D01*
X121995031Y-75052240D01*
X121985501Y-75086079D01*
X121974967Y-75119841D01*
X121963430Y-75153526D01*
X121950890Y-75187134D01*
X121937347Y-75220664D01*
X121922801Y-75254118D01*
X121907251Y-75287493D01*
X121891006Y-75320677D01*
X121873141Y-75354786D01*
X121853655Y-75389821D01*
X121832549Y-75425782D01*
X121809822Y-75462670D01*
X121785475Y-75500483D01*
X121759507Y-75539223D01*
X121731919Y-75578888D01*
X121671881Y-75660997D01*
X121605361Y-75746811D01*
X121532359Y-75836328D01*
X121452875Y-75929549D01*
X121364978Y-76027401D01*
X121266740Y-76133278D01*
X121158162Y-76247181D01*
X121039242Y-76369110D01*
X120909982Y-76499065D01*
X120770381Y-76637045D01*
X120620440Y-76783052D01*
X120460157Y-76937083D01*
X121793657Y-76927184D01*
X121684999Y-77292662D01*
X119931696Y-77292662D01*
X119981085Y-76937064D01*
X120327115Y-76581772D01*
X120619436Y-76276487D01*
X120858047Y-76021209D01*
X121042948Y-75815936D01*
X121119886Y-75726881D01*
X121190189Y-75642457D01*
X121253854Y-75562663D01*
X121310883Y-75487499D01*
X121361275Y-75416965D01*
X121405030Y-75351062D01*
X121442149Y-75289789D01*
X121458220Y-75260888D01*
X121472631Y-75233145D01*
X121486387Y-75205268D01*
X121499255Y-75177197D01*
X121511235Y-75148934D01*
X121522329Y-75120477D01*
X121532534Y-75091828D01*
X121541853Y-75062985D01*
X121550283Y-75033950D01*
X121557827Y-75004722D01*
X121564483Y-74975301D01*
X121570251Y-74945687D01*
X121575132Y-74915880D01*
X121579126Y-74885880D01*
X121582232Y-74855688D01*
X121584450Y-74825303D01*
X121585782Y-74794724D01*
X121586225Y-74763953D01*
X121585801Y-74735979D01*
X121584527Y-74708854D01*
X121582405Y-74682577D01*
X121579434Y-74657150D01*
X121575614Y-74632571D01*
X121570945Y-74608841D01*
X121565427Y-74585960D01*
X121559060Y-74563928D01*
X121551845Y-74542745D01*
X121543780Y-74522410D01*
X121534867Y-74502925D01*
X121525105Y-74484288D01*
X121514494Y-74466500D01*
X121503034Y-74449562D01*
X121490725Y-74433472D01*
X121477567Y-74418231D01*
X121463657Y-74403877D01*
X121449092Y-74390450D01*
X121433870Y-74377948D01*
X121417992Y-74366373D01*
X121401459Y-74355723D01*
X121384269Y-74346000D01*
X121366424Y-74337202D01*
X121347922Y-74329331D01*
X121328765Y-74322385D01*
X121308951Y-74316366D01*
X121288482Y-74311273D01*
X121267356Y-74307105D01*
X121245575Y-74303864D01*
X121223137Y-74301549D01*
X121200044Y-74300160D01*
X121176294Y-74299697D01*
X121152969Y-74300044D01*
X121129915Y-74301086D01*
X121107130Y-74302822D01*
X121084616Y-74305253D01*
X121062372Y-74308378D01*
X121040398Y-74312198D01*
X121018694Y-74316713D01*
X120997260Y-74321922D01*
X120976096Y-74327825D01*
X120955202Y-74334423D01*
X120934579Y-74341716D01*
X120914225Y-74349703D01*
X120894142Y-74358385D01*
X120874328Y-74367762D01*
X120854785Y-74377833D01*
X120835512Y-74388598D01*
X120816316Y-74399498D01*
X120797004Y-74411209D01*
X120777577Y-74423730D01*
X120758033Y-74437061D01*
X120738374Y-74451203D01*
X120718599Y-74466155D01*
X120698709Y-74481917D01*
X120678703Y-74498489D01*
X120658580Y-74515872D01*
X120638343Y-74534065D01*
X120617989Y-74553068D01*
X120597520Y-74572882D01*
X120576935Y-74593506D01*
X120556234Y-74614940D01*
X120535418Y-74637184D01*
X120514486Y-74660239D01*
X120257662Y-74423171D01*
X120284883Y-74392804D01*
X120312221Y-74363441D01*
X120339674Y-74335081D01*
X120367244Y-74307724D01*
X120394929Y-74281370D01*
X120422729Y-74256019D01*
X120450646Y-74231672D01*
X120478678Y-74208328D01*
X120506826Y-74185987D01*
X120535089Y-74164650D01*
X120563469Y-74144315D01*
X120591964Y-74124984D01*
X120620575Y-74106656D01*
X120649301Y-74089332D01*
X120678144Y-74073010D01*
X120707101Y-74057692D01*
X120736252Y-74043339D01*
X120765673Y-74029911D01*
X120795365Y-74017410D01*
X120825326Y-74005834D01*
X120855558Y-73995185D01*
X120886059Y-73985461D01*
X120916831Y-73976664D01*
X120947873Y-73968792D01*
X120979185Y-73961847D01*
X121010767Y-73955827D01*
X121042619Y-73950734D01*
X121074741Y-73946567D01*
X121107133Y-73943326D01*
X121139796Y-73941010D01*
X121172728Y-73939621D01*
X121205930Y-73939158D01*
X121205927Y-73939177D01*
G37*
G36*
X109813791Y-35535792D02*
G01*
X109877611Y-35536622D01*
X109939424Y-35539110D01*
X109999231Y-35543258D01*
X110057031Y-35549065D01*
X110112825Y-35556532D01*
X110166612Y-35565657D01*
X110218393Y-35576441D01*
X110268168Y-35588885D01*
X110315936Y-35602988D01*
X110361697Y-35618750D01*
X110405453Y-35636171D01*
X110447202Y-35655251D01*
X110486944Y-35675991D01*
X110524680Y-35698389D01*
X110560410Y-35722447D01*
X110594133Y-35748164D01*
X110626429Y-35775424D01*
X110656641Y-35804112D01*
X110684769Y-35834228D01*
X110710814Y-35865771D01*
X110734775Y-35898742D01*
X110756653Y-35933141D01*
X110776447Y-35968967D01*
X110794158Y-36006221D01*
X110809785Y-36044903D01*
X110823329Y-36085012D01*
X110834789Y-36126549D01*
X110844165Y-36169513D01*
X110851458Y-36213905D01*
X110856667Y-36259725D01*
X110859792Y-36306973D01*
X110860834Y-36355648D01*
X110860838Y-36355648D01*
X110860085Y-36398034D01*
X110857828Y-36439995D01*
X110854066Y-36481532D01*
X110848799Y-36522644D01*
X110842028Y-36563332D01*
X110833751Y-36603596D01*
X110823970Y-36643435D01*
X110812684Y-36682849D01*
X110799893Y-36721840D01*
X110785597Y-36760406D01*
X110769797Y-36798547D01*
X110752491Y-36836264D01*
X110733681Y-36873556D01*
X110713366Y-36910424D01*
X110691547Y-36946868D01*
X110668222Y-36982887D01*
X110643991Y-37018115D01*
X110618216Y-37052186D01*
X110590898Y-37085099D01*
X110562036Y-37116854D01*
X110531631Y-37147452D01*
X110499683Y-37176893D01*
X110466191Y-37205175D01*
X110431155Y-37232301D01*
X110394577Y-37258268D01*
X110356455Y-37283078D01*
X110316789Y-37306731D01*
X110275581Y-37329226D01*
X110232828Y-37350564D01*
X110188533Y-37370743D01*
X110142694Y-37389766D01*
X110095312Y-37407631D01*
X110692918Y-38938687D01*
X110213842Y-38938687D01*
X109675504Y-37491592D01*
X109196432Y-37491592D01*
X108993936Y-38938687D01*
X108549436Y-38938687D01*
X108802531Y-37140932D01*
X109245825Y-37140932D01*
X109626116Y-37140931D01*
X109677048Y-37140043D01*
X109726128Y-37137381D01*
X109773356Y-37132944D01*
X109818732Y-37126732D01*
X109862256Y-37118745D01*
X109903927Y-37108983D01*
X109943747Y-37097446D01*
X109981715Y-37084134D01*
X110017831Y-37069047D01*
X110052094Y-37052185D01*
X110084506Y-37033549D01*
X110115065Y-37013137D01*
X110143772Y-36990951D01*
X110170628Y-36966989D01*
X110195631Y-36941253D01*
X110218782Y-36913742D01*
X110240911Y-36884996D01*
X110261612Y-36855555D01*
X110280885Y-36825421D01*
X110298730Y-36794591D01*
X110315148Y-36763067D01*
X110330139Y-36730848D01*
X110343702Y-36697935D01*
X110355837Y-36664328D01*
X110366544Y-36630026D01*
X110375824Y-36595029D01*
X110383676Y-36559338D01*
X110390100Y-36522952D01*
X110395097Y-36485872D01*
X110398666Y-36448097D01*
X110400808Y-36409628D01*
X110401521Y-36370464D01*
X110400962Y-36339519D01*
X110399284Y-36309654D01*
X110396486Y-36280870D01*
X110392570Y-36253166D01*
X110387535Y-36226542D01*
X110381380Y-36200999D01*
X110374107Y-36176536D01*
X110365715Y-36153153D01*
X110356204Y-36130851D01*
X110345574Y-36109630D01*
X110333825Y-36089488D01*
X110320957Y-36070427D01*
X110306970Y-36052447D01*
X110291864Y-36035546D01*
X110275639Y-36019726D01*
X110258295Y-36004987D01*
X110239716Y-35991231D01*
X110219787Y-35978363D01*
X110198507Y-35966382D01*
X110175877Y-35955289D01*
X110151897Y-35945084D01*
X110126566Y-35935765D01*
X110099884Y-35927334D01*
X110071852Y-35919791D01*
X110042470Y-35913135D01*
X110011737Y-35907367D01*
X109979654Y-35902486D01*
X109946220Y-35898492D01*
X109911435Y-35895386D01*
X109875300Y-35893167D01*
X109837815Y-35891836D01*
X109798979Y-35891393D01*
X109423624Y-35891393D01*
X109245825Y-37140932D01*
X108802531Y-37140932D01*
X109028509Y-35535792D01*
X109813791Y-35535792D01*
G37*
G36*
X118056795Y-35896331D02*
G01*
X116896158Y-35896331D01*
X116733175Y-37027337D01*
X117750585Y-37027337D01*
X117701196Y-37387876D01*
X116683786Y-37387876D01*
X116515863Y-38578149D01*
X117770342Y-38578149D01*
X117711073Y-38938687D01*
X116021974Y-38938687D01*
X116501047Y-35535792D01*
X118160513Y-35535792D01*
X118056795Y-35896331D01*
G37*
D11*
X126911860Y-63655088D02*
X128453051Y-65563051D01*
D12*
G36*
X89327919Y-112250392D02*
G01*
X88883419Y-112250392D01*
X89362491Y-108847499D01*
X89806991Y-108847499D01*
X89327919Y-112250392D01*
G37*
G36*
X94913168Y-35896331D02*
G01*
X93752527Y-35896331D01*
X93589544Y-37027337D01*
X94606954Y-37027337D01*
X94557565Y-37387876D01*
X93540155Y-37387876D01*
X93372232Y-38578149D01*
X94626711Y-38578149D01*
X94567442Y-38938687D01*
X92878343Y-38938687D01*
X93357416Y-35535792D01*
X95016882Y-35535792D01*
X94913168Y-35896331D01*
G37*
D11*
X128453051Y-65563051D02*
X130095622Y-63669794D01*
D12*
G36*
X107668209Y-35481811D02*
G01*
X107700177Y-35482853D01*
X107731643Y-35484590D01*
X107762608Y-35487020D01*
X107793071Y-35490146D01*
X107823032Y-35493966D01*
X107852492Y-35498480D01*
X107881450Y-35503689D01*
X107909906Y-35509593D01*
X107937861Y-35516191D01*
X107965314Y-35523483D01*
X107992266Y-35531470D01*
X108018716Y-35540152D01*
X108044664Y-35549528D01*
X108070111Y-35559599D01*
X108095056Y-35570364D01*
X108119615Y-35581206D01*
X108143905Y-35592743D01*
X108167924Y-35604974D01*
X108191673Y-35617900D01*
X108215152Y-35631521D01*
X108238361Y-35645835D01*
X108261300Y-35660845D01*
X108283969Y-35676549D01*
X108306367Y-35692948D01*
X108328496Y-35710041D01*
X108350354Y-35727829D01*
X108371943Y-35746311D01*
X108393261Y-35765488D01*
X108414309Y-35785359D01*
X108435087Y-35805925D01*
X108455595Y-35827185D01*
X108198770Y-36074131D01*
X108164353Y-36045501D01*
X108130244Y-36018877D01*
X108096444Y-35994260D01*
X108079660Y-35982703D01*
X108062952Y-35971649D01*
X108046322Y-35961096D01*
X108029769Y-35951045D01*
X108013293Y-35941495D01*
X107996894Y-35932446D01*
X107980572Y-35923900D01*
X107964327Y-35915855D01*
X107948160Y-35908312D01*
X107932069Y-35901270D01*
X107915903Y-35894691D01*
X107899504Y-35888536D01*
X107882874Y-35882806D01*
X107866013Y-35877501D01*
X107848920Y-35872619D01*
X107831595Y-35868163D01*
X107814039Y-35864130D01*
X107796251Y-35860522D01*
X107778232Y-35857339D01*
X107759982Y-35854580D01*
X107741500Y-35852246D01*
X107722786Y-35850335D01*
X107703841Y-35848850D01*
X107684664Y-35847789D01*
X107665256Y-35847152D01*
X107645616Y-35846940D01*
X107597983Y-35848078D01*
X107551391Y-35851493D01*
X107505841Y-35857184D01*
X107461333Y-35865152D01*
X107417867Y-35875396D01*
X107375442Y-35887917D01*
X107334060Y-35902715D01*
X107293719Y-35919789D01*
X107254420Y-35939139D01*
X107216163Y-35960766D01*
X107178948Y-35984670D01*
X107142775Y-36010850D01*
X107107644Y-36039306D01*
X107073554Y-36070039D01*
X107040506Y-36103049D01*
X107008501Y-36138335D01*
X106978153Y-36174701D01*
X106948848Y-36212187D01*
X106920584Y-36250791D01*
X106893362Y-36290514D01*
X106867182Y-36331357D01*
X106842044Y-36373318D01*
X106817948Y-36416398D01*
X106794893Y-36460597D01*
X106772881Y-36505916D01*
X106751910Y-36552353D01*
X106731981Y-36599909D01*
X106713094Y-36648584D01*
X106695248Y-36698378D01*
X106678444Y-36749291D01*
X106662682Y-36801323D01*
X106647962Y-36854474D01*
X106622496Y-36962049D01*
X106600425Y-37069933D01*
X106581750Y-37178125D01*
X106566469Y-37286626D01*
X106554585Y-37395436D01*
X106546096Y-37504555D01*
X106541002Y-37613982D01*
X106539304Y-37723718D01*
X106539960Y-37780187D01*
X106541928Y-37834765D01*
X106545208Y-37887453D01*
X106549800Y-37938251D01*
X106555703Y-37987157D01*
X106562918Y-38034173D01*
X106571445Y-38079299D01*
X106581285Y-38122533D01*
X106592436Y-38163877D01*
X106604899Y-38203330D01*
X106618674Y-38240893D01*
X106633761Y-38276565D01*
X106650159Y-38310346D01*
X106667870Y-38342237D01*
X106686893Y-38372236D01*
X106707227Y-38400346D01*
X106729317Y-38426661D01*
X106752371Y-38451278D01*
X106776390Y-38474197D01*
X106801374Y-38495419D01*
X106827322Y-38514943D01*
X106854235Y-38532769D01*
X106882112Y-38548898D01*
X106910955Y-38563329D01*
X106940762Y-38576062D01*
X106971533Y-38587097D01*
X107003269Y-38596435D01*
X107035970Y-38604075D01*
X107069636Y-38610017D01*
X107104266Y-38614261D01*
X107139861Y-38616808D01*
X107176420Y-38617657D01*
X107200921Y-38617386D01*
X107225037Y-38616576D01*
X107248766Y-38615226D01*
X107272110Y-38613335D01*
X107295068Y-38610905D01*
X107317641Y-38607934D01*
X107339827Y-38604423D01*
X107361628Y-38600372D01*
X107383043Y-38595780D01*
X107404071Y-38590649D01*
X107424715Y-38584977D01*
X107444972Y-38578765D01*
X107464843Y-38572013D01*
X107484329Y-38564721D01*
X107503428Y-38556889D01*
X107522142Y-38548516D01*
X107561036Y-38528993D01*
X107601164Y-38507463D01*
X107642528Y-38483926D01*
X107685126Y-38458383D01*
X107728958Y-38430833D01*
X107774026Y-38401277D01*
X107820328Y-38369714D01*
X107867864Y-38336144D01*
X108055544Y-38632478D01*
X108003319Y-38676735D01*
X107950361Y-38718137D01*
X107896670Y-38756683D01*
X107842246Y-38792374D01*
X107787088Y-38825210D01*
X107731198Y-38855191D01*
X107674575Y-38882316D01*
X107617218Y-38906586D01*
X107559128Y-38928001D01*
X107500305Y-38946561D01*
X107440749Y-38962265D01*
X107380460Y-38975114D01*
X107319437Y-38985107D01*
X107257682Y-38992246D01*
X107195193Y-38996529D01*
X107131971Y-38997956D01*
X107072241Y-38996625D01*
X107014055Y-38992631D01*
X106957412Y-38985975D01*
X106902313Y-38976657D01*
X106848756Y-38964677D01*
X106796744Y-38950034D01*
X106746274Y-38932728D01*
X106697348Y-38912760D01*
X106649966Y-38890130D01*
X106604127Y-38864838D01*
X106559831Y-38836883D01*
X106517079Y-38806265D01*
X106475870Y-38772986D01*
X106436205Y-38737043D01*
X106398083Y-38698439D01*
X106361505Y-38657172D01*
X106326818Y-38613474D01*
X106294368Y-38567577D01*
X106264156Y-38519481D01*
X106236182Y-38469186D01*
X106210447Y-38416691D01*
X106186948Y-38361996D01*
X106165688Y-38305102D01*
X106146666Y-38246009D01*
X106129881Y-38184717D01*
X106115335Y-38121225D01*
X106103026Y-38055534D01*
X106092955Y-37987644D01*
X106085123Y-37917554D01*
X106079528Y-37845265D01*
X106076171Y-37770777D01*
X106075052Y-37694089D01*
X106077676Y-37563440D01*
X106085547Y-37433253D01*
X106098666Y-37303530D01*
X106117032Y-37174270D01*
X106140646Y-37045473D01*
X106169508Y-36917139D01*
X106203618Y-36789268D01*
X106242975Y-36661860D01*
X106264679Y-36598947D01*
X106287811Y-36537385D01*
X106312371Y-36477173D01*
X106338358Y-36418311D01*
X106365773Y-36360800D01*
X106394615Y-36304640D01*
X106424885Y-36249830D01*
X106456582Y-36196370D01*
X106489707Y-36144261D01*
X106524260Y-36093502D01*
X106560240Y-36044094D01*
X106597648Y-35996036D01*
X106636484Y-35949329D01*
X106676747Y-35903972D01*
X106718438Y-35859966D01*
X106761556Y-35817310D01*
X106806065Y-35776641D01*
X106851923Y-35738596D01*
X106899132Y-35703175D01*
X106947692Y-35670378D01*
X106997602Y-35640204D01*
X107048862Y-35612655D01*
X107101473Y-35587728D01*
X107155434Y-35565426D01*
X107210745Y-35545748D01*
X107267408Y-35528693D01*
X107325420Y-35514262D01*
X107384783Y-35502455D01*
X107445497Y-35493272D01*
X107507561Y-35486713D01*
X107570975Y-35482777D01*
X107635740Y-35481465D01*
X107635740Y-35481464D01*
X107668209Y-35481811D01*
G37*
G36*
X77069496Y-77292685D02*
G01*
X76634874Y-77292685D01*
X77029985Y-74502211D01*
X76294090Y-74956588D01*
X76136045Y-74625682D01*
X77148517Y-73988566D01*
X77533752Y-73988566D01*
X77069496Y-77292685D01*
G37*
G36*
X90833639Y-38024991D02*
G01*
X91762151Y-35535790D01*
X92379511Y-35535790D01*
X92157262Y-38938687D01*
X91727579Y-38938687D01*
X91836237Y-37407631D01*
X91864328Y-37038140D01*
X91894270Y-36680379D01*
X91926063Y-36334349D01*
X91959707Y-36000048D01*
X90976869Y-38553453D01*
X90542246Y-38553453D01*
X90226156Y-36004985D01*
X90210413Y-36124599D01*
X90190348Y-36261190D01*
X90137256Y-36585305D01*
X90066878Y-36977329D01*
X89979213Y-37437263D01*
X89677942Y-38938685D01*
X89243320Y-38938685D01*
X89979213Y-35535790D01*
X90542246Y-35535790D01*
X90833639Y-38024991D01*
G37*
G36*
X101741257Y-38090201D02*
G01*
X101744440Y-38051944D01*
X101748897Y-38014189D01*
X101754627Y-37976935D01*
X101761630Y-37940183D01*
X101769907Y-37903932D01*
X101779456Y-37868183D01*
X101790279Y-37832935D01*
X101802376Y-37798190D01*
X101815746Y-37763945D01*
X101830389Y-37730203D01*
X101846305Y-37696962D01*
X101863494Y-37664222D01*
X101881957Y-37631984D01*
X101901693Y-37600248D01*
X101923030Y-37568068D01*
X101946297Y-37535734D01*
X101971493Y-37503246D01*
X101998618Y-37470603D01*
X102027673Y-37437805D01*
X102058656Y-37404854D01*
X102091569Y-37371748D01*
X102126412Y-37338488D01*
X102163183Y-37305073D01*
X102201884Y-37271504D01*
X102242514Y-37237781D01*
X102285073Y-37203903D01*
X102329562Y-37169871D01*
X102375980Y-37135684D01*
X102424327Y-37101344D01*
X102474603Y-37066849D01*
X102436326Y-37015607D01*
X102400519Y-36965601D01*
X102367181Y-36916829D01*
X102336312Y-36869293D01*
X102307914Y-36822991D01*
X102281985Y-36777923D01*
X102258525Y-36734091D01*
X102237535Y-36691493D01*
X102228564Y-36670406D01*
X102220172Y-36649127D01*
X102212359Y-36627654D01*
X102205124Y-36605988D01*
X102198468Y-36584130D01*
X102192391Y-36562079D01*
X102186893Y-36539834D01*
X102181974Y-36517397D01*
X102177633Y-36494767D01*
X102173871Y-36471944D01*
X102170688Y-36448928D01*
X102168084Y-36425718D01*
X102166058Y-36402317D01*
X102164611Y-36378722D01*
X102163743Y-36354934D01*
X102163454Y-36330953D01*
X102163522Y-36326013D01*
X102583299Y-36326013D01*
X102584206Y-36359467D01*
X102586926Y-36393151D01*
X102591460Y-36427068D01*
X102597808Y-36461215D01*
X102605968Y-36495595D01*
X102615943Y-36530206D01*
X102627731Y-36565048D01*
X102641332Y-36600122D01*
X102656747Y-36635427D01*
X102673975Y-36670964D01*
X102693017Y-36706732D01*
X102713872Y-36742732D01*
X102736541Y-36778964D01*
X102761023Y-36815427D01*
X102787318Y-36852121D01*
X102815427Y-36889047D01*
X102889356Y-36843748D01*
X102958037Y-36799221D01*
X103021471Y-36755466D01*
X103079657Y-36712482D01*
X103132596Y-36670270D01*
X103157098Y-36649453D01*
X103180287Y-36628829D01*
X103202165Y-36608398D01*
X103222731Y-36588160D01*
X103241985Y-36568115D01*
X103259927Y-36548263D01*
X103277271Y-36527659D01*
X103293497Y-36506592D01*
X103308603Y-36485061D01*
X103322590Y-36463068D01*
X103335458Y-36440611D01*
X103347207Y-36417692D01*
X103357837Y-36394309D01*
X103367348Y-36370464D01*
X103375740Y-36346155D01*
X103383013Y-36321384D01*
X103389167Y-36296149D01*
X103394203Y-36270451D01*
X103398119Y-36244291D01*
X103400916Y-36217667D01*
X103402595Y-36190580D01*
X103403154Y-36163030D01*
X103402768Y-36142330D01*
X103401611Y-36122207D01*
X103399681Y-36102664D01*
X103396980Y-36083700D01*
X103393507Y-36065314D01*
X103389263Y-36047507D01*
X103384246Y-36030279D01*
X103378458Y-36013629D01*
X103371898Y-35997559D01*
X103364567Y-35982067D01*
X103356464Y-35967154D01*
X103347589Y-35952819D01*
X103337942Y-35939064D01*
X103327524Y-35925887D01*
X103316334Y-35913289D01*
X103304372Y-35901270D01*
X103292353Y-35889308D01*
X103279755Y-35878118D01*
X103266578Y-35867700D01*
X103252822Y-35858054D01*
X103238487Y-35849179D01*
X103223574Y-35841076D01*
X103208082Y-35833745D01*
X103192011Y-35827185D01*
X103175362Y-35821397D01*
X103158134Y-35816381D01*
X103140327Y-35812137D01*
X103121941Y-35808664D01*
X103102977Y-35805963D01*
X103083434Y-35804033D01*
X103063312Y-35802876D01*
X103042612Y-35802490D01*
X103042616Y-35802492D01*
X103015818Y-35803071D01*
X102989754Y-35804807D01*
X102964423Y-35807701D01*
X102939825Y-35811752D01*
X102915960Y-35816961D01*
X102892828Y-35823328D01*
X102870430Y-35830852D01*
X102848764Y-35839534D01*
X102827832Y-35849373D01*
X102807633Y-35860370D01*
X102788167Y-35872524D01*
X102769434Y-35885836D01*
X102751434Y-35900305D01*
X102734167Y-35915932D01*
X102717634Y-35932717D01*
X102701833Y-35950659D01*
X102687480Y-35968909D01*
X102674052Y-35987855D01*
X102661551Y-36007494D01*
X102649975Y-36027828D01*
X102639326Y-36048857D01*
X102629602Y-36070581D01*
X102620805Y-36092998D01*
X102612933Y-36116111D01*
X102605988Y-36139918D01*
X102599969Y-36164419D01*
X102594875Y-36189615D01*
X102590708Y-36215506D01*
X102587467Y-36242091D01*
X102585151Y-36269371D01*
X102583762Y-36297345D01*
X102583299Y-36326013D01*
X102163522Y-36326013D01*
X102163859Y-36301494D01*
X102165074Y-36272381D01*
X102167100Y-36243616D01*
X102169936Y-36215199D01*
X102173582Y-36187128D01*
X102178039Y-36159405D01*
X102183306Y-36132029D01*
X102189383Y-36105000D01*
X102196271Y-36078318D01*
X102203969Y-36051984D01*
X102212477Y-36025997D01*
X102221795Y-36000357D01*
X102231924Y-35975065D01*
X102242863Y-35950119D01*
X102254612Y-35925521D01*
X102267172Y-35901271D01*
X102281101Y-35876924D01*
X102295725Y-35853271D01*
X102311043Y-35830313D01*
X102327056Y-35808049D01*
X102343764Y-35786480D01*
X102361166Y-35765606D01*
X102379263Y-35745426D01*
X102398054Y-35725940D01*
X102417540Y-35707149D01*
X102437720Y-35689053D01*
X102458595Y-35671651D01*
X102480164Y-35654943D01*
X102502427Y-35638931D01*
X102525385Y-35623612D01*
X102549038Y-35608988D01*
X102573385Y-35595059D01*
X102598967Y-35581304D01*
X102625090Y-35568435D01*
X102651752Y-35556455D01*
X102678955Y-35545361D01*
X102706697Y-35535156D01*
X102734980Y-35525837D01*
X102763803Y-35517406D01*
X102793166Y-35509863D01*
X102823070Y-35503207D01*
X102853513Y-35497438D01*
X102884497Y-35492557D01*
X102916021Y-35488564D01*
X102948085Y-35485458D01*
X102980689Y-35483239D01*
X103013833Y-35481908D01*
X103047517Y-35481464D01*
X103090212Y-35482217D01*
X103131864Y-35484474D01*
X103172475Y-35488236D01*
X103212043Y-35493503D01*
X103250570Y-35500275D01*
X103288056Y-35508551D01*
X103324499Y-35518333D01*
X103359901Y-35529619D01*
X103394261Y-35542410D01*
X103427579Y-35556706D01*
X103459856Y-35572506D01*
X103491090Y-35589812D01*
X103521283Y-35608622D01*
X103550435Y-35628937D01*
X103578544Y-35650757D01*
X103605612Y-35674082D01*
X103631329Y-35698545D01*
X103655387Y-35723779D01*
X103677785Y-35749786D01*
X103698525Y-35776564D01*
X103717605Y-35804113D01*
X103735026Y-35832435D01*
X103750788Y-35861528D01*
X103764891Y-35891393D01*
X103777334Y-35922029D01*
X103788119Y-35953437D01*
X103797244Y-35985617D01*
X103804710Y-36018569D01*
X103810517Y-36052292D01*
X103814665Y-36086787D01*
X103817154Y-36122054D01*
X103817983Y-36158092D01*
X103817598Y-36186857D01*
X103816440Y-36215121D01*
X103814510Y-36242883D01*
X103811809Y-36270143D01*
X103808336Y-36296902D01*
X103804092Y-36323159D01*
X103799075Y-36348915D01*
X103793287Y-36374169D01*
X103786728Y-36398921D01*
X103779396Y-36423172D01*
X103771293Y-36446921D01*
X103762418Y-36470168D01*
X103752772Y-36492914D01*
X103742353Y-36515159D01*
X103731163Y-36536901D01*
X103719202Y-36558142D01*
X103706603Y-36578978D01*
X103693504Y-36599506D01*
X103679902Y-36619724D01*
X103665799Y-36639634D01*
X103651195Y-36659235D01*
X103636089Y-36678528D01*
X103620481Y-36697512D01*
X103604372Y-36716187D01*
X103587761Y-36734553D01*
X103570648Y-36752611D01*
X103553035Y-36770361D01*
X103534919Y-36787801D01*
X103516302Y-36804933D01*
X103497183Y-36821756D01*
X103477563Y-36838271D01*
X103457441Y-36854477D01*
X103415075Y-36885808D01*
X103369468Y-36918065D01*
X103320619Y-36951248D01*
X103268529Y-36985357D01*
X103213197Y-37020392D01*
X103154625Y-37056353D01*
X103092812Y-37093241D01*
X103027757Y-37131054D01*
X103674753Y-37970666D01*
X103732400Y-37867721D01*
X103786805Y-37766319D01*
X103837969Y-37666461D01*
X103885892Y-37568146D01*
X103930573Y-37471374D01*
X103972013Y-37376146D01*
X104010213Y-37282462D01*
X104045171Y-37190321D01*
X104415590Y-37333548D01*
X104361108Y-37452390D01*
X104303847Y-37569380D01*
X104243808Y-37684518D01*
X104180992Y-37797804D01*
X104115397Y-37909237D01*
X104047024Y-38018819D01*
X103975874Y-38126549D01*
X103901945Y-38232426D01*
X104311872Y-38751010D01*
X103966150Y-38997954D01*
X103625368Y-38538637D01*
X103595734Y-38568367D01*
X103566100Y-38597054D01*
X103536467Y-38624701D01*
X103506833Y-38651305D01*
X103477200Y-38676868D01*
X103447567Y-38701388D01*
X103417933Y-38724867D01*
X103388300Y-38747305D01*
X103358667Y-38768700D01*
X103329034Y-38789054D01*
X103299401Y-38808366D01*
X103269768Y-38826636D01*
X103240135Y-38843864D01*
X103210501Y-38860051D01*
X103180868Y-38875195D01*
X103151235Y-38889298D01*
X103121370Y-38902456D01*
X103091042Y-38914765D01*
X103060251Y-38926224D01*
X103028997Y-38936835D01*
X102997279Y-38946597D01*
X102965099Y-38955510D01*
X102932456Y-38963575D01*
X102899350Y-38970790D01*
X102865781Y-38977157D01*
X102831749Y-38982674D01*
X102797254Y-38987343D01*
X102762296Y-38991163D01*
X102726875Y-38994134D01*
X102690991Y-38996256D01*
X102654644Y-38997530D01*
X102617834Y-38997954D01*
X102584747Y-38997530D01*
X102552162Y-38996256D01*
X102520079Y-38994134D01*
X102488497Y-38991163D01*
X102457417Y-38987343D01*
X102426838Y-38982674D01*
X102396761Y-38977157D01*
X102367185Y-38970790D01*
X102338111Y-38963575D01*
X102309539Y-38955510D01*
X102281468Y-38946597D01*
X102253899Y-38936835D01*
X102226831Y-38926224D01*
X102200265Y-38914765D01*
X102174201Y-38902456D01*
X102148638Y-38889298D01*
X102124290Y-38875408D01*
X102100638Y-38860900D01*
X102077680Y-38845774D01*
X102055417Y-38830031D01*
X102033848Y-38813671D01*
X102012973Y-38796694D01*
X101992794Y-38779099D01*
X101973308Y-38760887D01*
X101954517Y-38742057D01*
X101936421Y-38722611D01*
X101919019Y-38702546D01*
X101902312Y-38681865D01*
X101886299Y-38660566D01*
X101870981Y-38638650D01*
X101856357Y-38616116D01*
X101842428Y-38592965D01*
X101829868Y-38568734D01*
X101818119Y-38544193D01*
X101807180Y-38519345D01*
X101797051Y-38494187D01*
X101787733Y-38468721D01*
X101779225Y-38442946D01*
X101771527Y-38416862D01*
X101764639Y-38390470D01*
X101758562Y-38363769D01*
X101753295Y-38336760D01*
X101748839Y-38309442D01*
X101745192Y-38281815D01*
X101742356Y-38253879D01*
X101740331Y-38225635D01*
X101739115Y-38197082D01*
X101738710Y-38168220D01*
X101738870Y-38158343D01*
X102178308Y-38158343D01*
X102178790Y-38186973D01*
X102180237Y-38214832D01*
X102182649Y-38241918D01*
X102186025Y-38268233D01*
X102190366Y-38293776D01*
X102195671Y-38318548D01*
X102201941Y-38342548D01*
X102209176Y-38365776D01*
X102217376Y-38388232D01*
X102226540Y-38409917D01*
X102236668Y-38430830D01*
X102247762Y-38450971D01*
X102259820Y-38470341D01*
X102272843Y-38488939D01*
X102286830Y-38506765D01*
X102301782Y-38523820D01*
X102317621Y-38539370D01*
X102334271Y-38553916D01*
X102351730Y-38567460D01*
X102370000Y-38580000D01*
X102389080Y-38591537D01*
X102408971Y-38602071D01*
X102429671Y-38611602D01*
X102451183Y-38620129D01*
X102473504Y-38627653D01*
X102496636Y-38634174D01*
X102520578Y-38639692D01*
X102545331Y-38644206D01*
X102570894Y-38647718D01*
X102597267Y-38650226D01*
X102624451Y-38651730D01*
X102652445Y-38652232D01*
X102702258Y-38650766D01*
X102751686Y-38646367D01*
X102800727Y-38639036D01*
X102849383Y-38628772D01*
X102897653Y-38615576D01*
X102945537Y-38599448D01*
X102993035Y-38580387D01*
X103040148Y-38558393D01*
X103086874Y-38533467D01*
X103133214Y-38505609D01*
X103179169Y-38474818D01*
X103224738Y-38441095D01*
X103269921Y-38404439D01*
X103314718Y-38364850D01*
X103359129Y-38322330D01*
X103403154Y-38276876D01*
X102672197Y-37323670D01*
X102637104Y-37348365D01*
X102603439Y-37373059D01*
X102571202Y-37397753D01*
X102540392Y-37422448D01*
X102511010Y-37447142D01*
X102483055Y-37471837D01*
X102456528Y-37496531D01*
X102431428Y-37521226D01*
X102407756Y-37545920D01*
X102385512Y-37570615D01*
X102364695Y-37595309D01*
X102345306Y-37620004D01*
X102327345Y-37644698D01*
X102310811Y-37669392D01*
X102295705Y-37694087D01*
X102282026Y-37718781D01*
X102269466Y-37743649D01*
X102257717Y-37768865D01*
X102246778Y-37794427D01*
X102236649Y-37820337D01*
X102227331Y-37846594D01*
X102218823Y-37873199D01*
X102211125Y-37900150D01*
X102204238Y-37927449D01*
X102198160Y-37955096D01*
X102192894Y-37983089D01*
X102188437Y-38011430D01*
X102184791Y-38040118D01*
X102181955Y-38069153D01*
X102179929Y-38098536D01*
X102178713Y-38128266D01*
X102178308Y-38158343D01*
X101738870Y-38158343D01*
X101739347Y-38128960D01*
X101741257Y-38090201D01*
G37*
G36*
X87295570Y-144763827D02*
G01*
X86851070Y-144763827D01*
X87330143Y-141360927D01*
X87774643Y-141360927D01*
X87295570Y-144763827D01*
G37*
G36*
X124923218Y-138287543D02*
G01*
X124969404Y-138289626D01*
X125014278Y-138293097D01*
X125057840Y-138297956D01*
X125100091Y-138304204D01*
X125141029Y-138311841D01*
X125180656Y-138320867D01*
X125218971Y-138331281D01*
X125255973Y-138343085D01*
X125291664Y-138356277D01*
X125326043Y-138370859D01*
X125359110Y-138386830D01*
X125390865Y-138404191D01*
X125421309Y-138422941D01*
X125450440Y-138443081D01*
X125478259Y-138464610D01*
X125505179Y-138488051D01*
X125530359Y-138513919D01*
X125553801Y-138542216D01*
X125575505Y-138572942D01*
X125595470Y-138606096D01*
X125613698Y-138641681D01*
X125630189Y-138679695D01*
X125644942Y-138720140D01*
X125657959Y-138763015D01*
X125669239Y-138808322D01*
X125678783Y-138856060D01*
X125686590Y-138906231D01*
X125692663Y-138958834D01*
X125697000Y-139013869D01*
X125699602Y-139071338D01*
X125700469Y-139131240D01*
X125698624Y-139247762D01*
X125693088Y-139362728D01*
X125683855Y-139476143D01*
X125670924Y-139588010D01*
X125654289Y-139698333D01*
X125633947Y-139807117D01*
X125609896Y-139914364D01*
X125582129Y-140020080D01*
X125567309Y-140071380D01*
X125551249Y-140121568D01*
X125533949Y-140170641D01*
X125515411Y-140218600D01*
X125495635Y-140265443D01*
X125474622Y-140311170D01*
X125452372Y-140355779D01*
X125428888Y-140399271D01*
X125404168Y-140441644D01*
X125378215Y-140482897D01*
X125351029Y-140523030D01*
X125322610Y-140562041D01*
X125292960Y-140599931D01*
X125262079Y-140636697D01*
X125229968Y-140672340D01*
X125196628Y-140706859D01*
X125162055Y-140739163D01*
X125126249Y-140769380D01*
X125089211Y-140797510D01*
X125050938Y-140823555D01*
X125011432Y-140847514D01*
X124970692Y-140869387D01*
X124928718Y-140889175D01*
X124885510Y-140906879D01*
X124841067Y-140922499D01*
X124795389Y-140936035D01*
X124748476Y-140947487D01*
X124700328Y-140956856D01*
X124650945Y-140964143D01*
X124600326Y-140969347D01*
X124548471Y-140972469D01*
X124495379Y-140973510D01*
X124154830Y-140973510D01*
X124535170Y-138286849D01*
X124875720Y-138286849D01*
X124923218Y-138287543D01*
G37*
G36*
X109245444Y-109916040D02*
G01*
X109250911Y-109843726D01*
X109259916Y-109772488D01*
X109272370Y-109702414D01*
X109288185Y-109633591D01*
X109307273Y-109566107D01*
X109329547Y-109500050D01*
X109354918Y-109435508D01*
X109383299Y-109372568D01*
X109414600Y-109311319D01*
X109448735Y-109251849D01*
X109485615Y-109194244D01*
X109525153Y-109138593D01*
X109567259Y-109084984D01*
X109611847Y-109033504D01*
X109658828Y-108984242D01*
X109708114Y-108937285D01*
X109759618Y-108892721D01*
X109813250Y-108850638D01*
X109868924Y-108811124D01*
X109926551Y-108774266D01*
X109986043Y-108740152D01*
X110047312Y-108708871D01*
X110110270Y-108680509D01*
X110174829Y-108655155D01*
X110240902Y-108632897D01*
X110308399Y-108613822D01*
X110377234Y-108598018D01*
X110447318Y-108585574D01*
X110518563Y-108576576D01*
X110590881Y-108571113D01*
X110664184Y-108569272D01*
X128925597Y-108569270D01*
X128998900Y-108571111D01*
X129071219Y-108576574D01*
X129142464Y-108585572D01*
X129212548Y-108598016D01*
X129281382Y-108613820D01*
X129348880Y-108632895D01*
X129414953Y-108655153D01*
X129479512Y-108680507D01*
X129542470Y-108708869D01*
X129603740Y-108740150D01*
X129663232Y-108774264D01*
X129720858Y-108811122D01*
X129776532Y-108850636D01*
X129830164Y-108892720D01*
X129881668Y-108937283D01*
X129930954Y-108984240D01*
X129977935Y-109033503D01*
X130022522Y-109084982D01*
X130064629Y-109138591D01*
X130104166Y-109194242D01*
X130141046Y-109251847D01*
X130175181Y-109311317D01*
X130206482Y-109372566D01*
X130234863Y-109435506D01*
X130260234Y-109500048D01*
X130282507Y-109566105D01*
X130301596Y-109633589D01*
X130317411Y-109702412D01*
X130329865Y-109772486D01*
X130338870Y-109843724D01*
X130344337Y-109916038D01*
X130346179Y-109989339D01*
X130346179Y-142258697D01*
X130344337Y-142331999D01*
X130338870Y-142404313D01*
X130329865Y-142475551D01*
X130317411Y-142545625D01*
X130301596Y-142614449D01*
X130282507Y-142681933D01*
X130260233Y-142747990D01*
X130234862Y-142812532D01*
X130206482Y-142875472D01*
X130175180Y-142936721D01*
X130141045Y-142996192D01*
X130104165Y-143053796D01*
X130064628Y-143109447D01*
X130022521Y-143163056D01*
X129977933Y-143214536D01*
X129930952Y-143263798D01*
X129881666Y-143310755D01*
X129830163Y-143355319D01*
X129776530Y-143397402D01*
X129720857Y-143436917D01*
X129663230Y-143473774D01*
X129603738Y-143507888D01*
X129542469Y-143539170D01*
X129479511Y-143567531D01*
X129414951Y-143592885D01*
X129348879Y-143615143D01*
X129281381Y-143634218D01*
X129212546Y-143650022D01*
X129142463Y-143662466D01*
X129071218Y-143671464D01*
X128998900Y-143676927D01*
X128925597Y-143678768D01*
X110664184Y-143678768D01*
X110590880Y-143676927D01*
X110518562Y-143671464D01*
X110447317Y-143662466D01*
X110377233Y-143650022D01*
X110308398Y-143634218D01*
X110240901Y-143615143D01*
X110174828Y-143592885D01*
X110110269Y-143567531D01*
X110047310Y-143539169D01*
X109986041Y-143507887D01*
X109926549Y-143473774D01*
X109868922Y-143436916D01*
X109813249Y-143397401D01*
X109759616Y-143355318D01*
X109708113Y-143310754D01*
X109658827Y-143263797D01*
X109611846Y-143214534D01*
X109567258Y-143163055D01*
X109525152Y-143109446D01*
X109485614Y-143053795D01*
X109448734Y-142996190D01*
X109414600Y-142936719D01*
X109383298Y-142875470D01*
X109354918Y-142812530D01*
X109329547Y-142747988D01*
X109307273Y-142681931D01*
X109288185Y-142614447D01*
X109272370Y-142545624D01*
X109259916Y-142475550D01*
X109250911Y-142404312D01*
X109245444Y-142331998D01*
X109243602Y-142258697D01*
X109243602Y-140025276D01*
X113917224Y-140025276D01*
X113918341Y-140101961D01*
X113921692Y-140176440D01*
X113927279Y-140248713D01*
X113935101Y-140318783D01*
X113945159Y-140386649D01*
X113957454Y-140452313D01*
X113971985Y-140515775D01*
X113988754Y-140577036D01*
X114007761Y-140636098D01*
X114029006Y-140692960D01*
X114052491Y-140747625D01*
X114078214Y-140800092D01*
X114106178Y-140850363D01*
X114136382Y-140898438D01*
X114168827Y-140944319D01*
X114203513Y-140988006D01*
X114240092Y-141029276D01*
X114278214Y-141067889D01*
X114317881Y-141103845D01*
X114359091Y-141137143D01*
X114401845Y-141167782D01*
X114446143Y-141195761D01*
X114491984Y-141221079D01*
X114539369Y-141243736D01*
X114588297Y-141263730D01*
X114638769Y-141281061D01*
X114690784Y-141295728D01*
X114744341Y-141307731D01*
X114799442Y-141317067D01*
X114856086Y-141323737D01*
X114914273Y-141327740D01*
X114974002Y-141329074D01*
X114975523Y-141329040D01*
X123660804Y-141329040D01*
X124416312Y-141329040D01*
X124490801Y-141327863D01*
X124563630Y-141324332D01*
X124634800Y-141318448D01*
X124704310Y-141310210D01*
X124772162Y-141299618D01*
X124838353Y-141286672D01*
X124902886Y-141271373D01*
X124965759Y-141253720D01*
X125026973Y-141233714D01*
X125086529Y-141211354D01*
X125144425Y-141186640D01*
X125200662Y-141159573D01*
X125255240Y-141130153D01*
X125308160Y-141098379D01*
X125359420Y-141064251D01*
X125409022Y-141027770D01*
X125456947Y-140989357D01*
X125503178Y-140949435D01*
X125547717Y-140908007D01*
X125590561Y-140865071D01*
X125631711Y-140820630D01*
X125671165Y-140774682D01*
X125708923Y-140727229D01*
X125744984Y-140678270D01*
X125779347Y-140627807D01*
X125812012Y-140575840D01*
X125842978Y-140522369D01*
X125872243Y-140467394D01*
X125899809Y-140410917D01*
X125925672Y-140352937D01*
X125949834Y-140293455D01*
X125972293Y-140232471D01*
X125993829Y-140170308D01*
X126013973Y-140107294D01*
X126032727Y-140043428D01*
X126050090Y-139978712D01*
X126066063Y-139913145D01*
X126080645Y-139846728D01*
X126105640Y-139711345D01*
X126125078Y-139572566D01*
X126138959Y-139430395D01*
X126147286Y-139284836D01*
X126150062Y-139135890D01*
X126148651Y-139054095D01*
X126144421Y-138975396D01*
X126137371Y-138899793D01*
X126127501Y-138827282D01*
X126114814Y-138757864D01*
X126099307Y-138691537D01*
X126080984Y-138628299D01*
X126059843Y-138568149D01*
X126035886Y-138511087D01*
X126009112Y-138457109D01*
X125994670Y-138431277D01*
X125979523Y-138406215D01*
X125963673Y-138381925D01*
X125947119Y-138358404D01*
X125929862Y-138335654D01*
X125911901Y-138313675D01*
X125893236Y-138292465D01*
X125873868Y-138272025D01*
X125853797Y-138252354D01*
X125833022Y-138233453D01*
X125811544Y-138215322D01*
X125789363Y-138197959D01*
X125743948Y-138165061D01*
X125696605Y-138134282D01*
X125647334Y-138105622D01*
X125596135Y-138079083D01*
X125543008Y-138054665D01*
X125487951Y-138032368D01*
X125430966Y-138012192D01*
X125372052Y-137994139D01*
X125311209Y-137978207D01*
X125248436Y-137964399D01*
X125183734Y-137952714D01*
X125117101Y-137943152D01*
X125048539Y-137935715D01*
X124978047Y-137930402D01*
X124905624Y-137927213D01*
X124831271Y-137926151D01*
X124139842Y-137926151D01*
X123660804Y-141329040D01*
X114975523Y-141329040D01*
X115037222Y-141327648D01*
X115099708Y-141323369D01*
X115161458Y-141316237D01*
X115222473Y-141306252D01*
X115282754Y-141293412D01*
X115342301Y-141277719D01*
X115401115Y-141259171D01*
X115459194Y-141237768D01*
X115516540Y-141213510D01*
X115573154Y-141186396D01*
X115629035Y-141156426D01*
X115684183Y-141123600D01*
X115738600Y-141087918D01*
X115792284Y-141049378D01*
X115845238Y-141007981D01*
X115897460Y-140963725D01*
X115709880Y-140667095D01*
X115662344Y-140700666D01*
X115616043Y-140732231D01*
X115570977Y-140761789D01*
X115527144Y-140789340D01*
X115484547Y-140814885D01*
X115443183Y-140838424D01*
X115403055Y-140859958D01*
X115364161Y-140879485D01*
X115345447Y-140887843D01*
X115326347Y-140895665D01*
X115306862Y-140902952D01*
X115286991Y-140909703D01*
X115266734Y-140915917D01*
X115246092Y-140921594D01*
X115225064Y-140926733D01*
X115203650Y-140931334D01*
X115181850Y-140935395D01*
X115159665Y-140938917D01*
X115137094Y-140941899D01*
X115114137Y-140944340D01*
X115090794Y-140946240D01*
X115067066Y-140947597D01*
X115042951Y-140948412D01*
X115018451Y-140948684D01*
X114981890Y-140947832D01*
X114946294Y-140945278D01*
X114911662Y-140941022D01*
X114877995Y-140935064D01*
X114845292Y-140927405D01*
X114813553Y-140918047D01*
X114782779Y-140906990D01*
X114752969Y-140894234D01*
X114724124Y-140879780D01*
X114696244Y-140863629D01*
X114669328Y-140845782D01*
X114643376Y-140826239D01*
X114618390Y-140805001D01*
X114594368Y-140782068D01*
X114571312Y-140757443D01*
X114549220Y-140731124D01*
X114528887Y-140703018D01*
X114509865Y-140673024D01*
X114492155Y-140641143D01*
X114475756Y-140607374D01*
X114460668Y-140571716D01*
X114446892Y-140534169D01*
X114434427Y-140494732D01*
X114423274Y-140453406D01*
X114413433Y-140410188D01*
X114404903Y-140365080D01*
X114397686Y-140318079D01*
X114391781Y-140269187D01*
X114387188Y-140218401D01*
X114383907Y-140165723D01*
X114381938Y-140111150D01*
X114381282Y-140054683D01*
X114382975Y-139944949D01*
X114388057Y-139835527D01*
X114396529Y-139726416D01*
X114408392Y-139617615D01*
X114423650Y-139509122D01*
X114442303Y-139400936D01*
X114464353Y-139293056D01*
X114489802Y-139185481D01*
X114504524Y-139132330D01*
X114520291Y-139080296D01*
X114537103Y-139029380D01*
X114554959Y-138979580D01*
X114573858Y-138930899D01*
X114593801Y-138883335D01*
X114614786Y-138836890D01*
X114636814Y-138791563D01*
X114659883Y-138747355D01*
X114683994Y-138704266D01*
X114709145Y-138662297D01*
X114735338Y-138621448D01*
X114762570Y-138581718D01*
X114790841Y-138543109D01*
X114820152Y-138505621D01*
X114850501Y-138469253D01*
X114882507Y-138433967D01*
X114915557Y-138400956D01*
X114949649Y-138370220D01*
X114984784Y-138341759D01*
X115020962Y-138315575D01*
X115058181Y-138291666D01*
X115096443Y-138270033D01*
X115135747Y-138250676D01*
X115176093Y-138233596D01*
X115217481Y-138218793D01*
X115259909Y-138206267D01*
X115303380Y-138196017D01*
X115347891Y-138188045D01*
X115393443Y-138182351D01*
X115440036Y-138178934D01*
X115487670Y-138177795D01*
X115507307Y-138178007D01*
X115526710Y-138178643D01*
X115545878Y-138179703D01*
X115564813Y-138181188D01*
X115583514Y-138183097D01*
X115601983Y-138185430D01*
X115620219Y-138188187D01*
X115638223Y-138191368D01*
X115655996Y-138194974D01*
X115673537Y-138199004D01*
X115690848Y-138203458D01*
X115707929Y-138208337D01*
X115724780Y-138213639D01*
X115741402Y-138219366D01*
X115757795Y-138225518D01*
X115773959Y-138232093D01*
X115790047Y-138239138D01*
X115806212Y-138246690D01*
X115822453Y-138254748D01*
X115838771Y-138263313D01*
X115855165Y-138272382D01*
X115871636Y-138281955D01*
X115888184Y-138292031D01*
X115904810Y-138302609D01*
X115921513Y-138313689D01*
X115938293Y-138325269D01*
X115972086Y-138349927D01*
X116006192Y-138376577D01*
X116040610Y-138405212D01*
X116297439Y-138158191D01*
X116276934Y-138136931D01*
X116256166Y-138116366D01*
X116235135Y-138096496D01*
X116213839Y-138077320D01*
X116192277Y-138058839D01*
X116170448Y-138041053D01*
X116148352Y-138023960D01*
X116125986Y-138007562D01*
X116103350Y-137991859D01*
X116080443Y-137976849D01*
X116057264Y-137962533D01*
X116033812Y-137948912D01*
X116010085Y-137935984D01*
X115986083Y-137923750D01*
X115961804Y-137912210D01*
X115937247Y-137901363D01*
X115912302Y-137890591D01*
X115886853Y-137880516D01*
X115860901Y-137871137D01*
X115834446Y-137862453D01*
X115807489Y-137854465D01*
X115780028Y-137847173D01*
X115752066Y-137840575D01*
X115723602Y-137834673D01*
X115694636Y-137829466D01*
X115665168Y-137824954D01*
X115635200Y-137821136D01*
X115604730Y-137818013D01*
X115573760Y-137815584D01*
X115542289Y-137813849D01*
X115510318Y-137812808D01*
X115477847Y-137812461D01*
X115477855Y-137812496D01*
X115413088Y-137813808D01*
X115349668Y-137817745D01*
X115287596Y-137824307D01*
X115226871Y-137833494D01*
X115167494Y-137845305D01*
X115109466Y-137859740D01*
X115052787Y-137876800D01*
X114997458Y-137896483D01*
X114943479Y-137918790D01*
X114890851Y-137943721D01*
X114839575Y-137971275D01*
X114789651Y-138001453D01*
X114741079Y-138034254D01*
X114693860Y-138069678D01*
X114647995Y-138107725D01*
X114603484Y-138148395D01*
X114560369Y-138191043D01*
X114518686Y-138235040D01*
X114478437Y-138280386D01*
X114439618Y-138327081D01*
X114402231Y-138375125D01*
X114366273Y-138424520D01*
X114331745Y-138475265D01*
X114298645Y-138527360D01*
X114266973Y-138580807D01*
X114236728Y-138635604D01*
X114207908Y-138691754D01*
X114180514Y-138749255D01*
X114154544Y-138808108D01*
X114129998Y-138868314D01*
X114106875Y-138929873D01*
X114085173Y-138992786D01*
X114045815Y-139120203D01*
X114011703Y-139248103D01*
X113982836Y-139376480D01*
X113959217Y-139505326D01*
X113940846Y-139634635D01*
X113927723Y-139764400D01*
X113919849Y-139894616D01*
X113917224Y-140025276D01*
X109243602Y-140025276D01*
X109243602Y-132296520D01*
X111900287Y-132296520D01*
X111904402Y-132458613D01*
X111916583Y-132618578D01*
X111936630Y-132776216D01*
X111964347Y-132931330D01*
X111999535Y-133083722D01*
X112041997Y-133233194D01*
X112091535Y-133379547D01*
X112147950Y-133522585D01*
X112211045Y-133662108D01*
X112280622Y-133797920D01*
X112356484Y-133929822D01*
X112438432Y-134057617D01*
X112526268Y-134181107D01*
X112619795Y-134300093D01*
X112718814Y-134414378D01*
X112823129Y-134523763D01*
X112932541Y-134628052D01*
X113046852Y-134727047D01*
X113165864Y-134820548D01*
X113289380Y-134908359D01*
X113417201Y-134990281D01*
X113549130Y-135066117D01*
X113684969Y-135135668D01*
X113824520Y-135198738D01*
X113967585Y-135255127D01*
X114113967Y-135304639D01*
X114263467Y-135347074D01*
X114415887Y-135382236D01*
X114571031Y-135409927D01*
X114728699Y-135429948D01*
X114888694Y-135442101D01*
X115050818Y-135446189D01*
X115212912Y-135442083D01*
X115372877Y-135429912D01*
X115530516Y-135409875D01*
X115685632Y-135382168D01*
X115838025Y-135346990D01*
X115987499Y-135304539D01*
X116133855Y-135255013D01*
X116276896Y-135198610D01*
X116416423Y-135135528D01*
X116552239Y-135065965D01*
X116684146Y-134990118D01*
X116811945Y-134908186D01*
X116935440Y-134820367D01*
X117054432Y-134726859D01*
X117168723Y-134627859D01*
X117278115Y-134523566D01*
X117382410Y-134414178D01*
X117481411Y-134299892D01*
X117574920Y-134180906D01*
X117662738Y-134057419D01*
X117744668Y-133929629D01*
X117820512Y-133797733D01*
X117890072Y-133661929D01*
X117953150Y-133522416D01*
X118009549Y-133379391D01*
X118059069Y-133233053D01*
X118101514Y-133083598D01*
X118136686Y-132931226D01*
X118164386Y-132776134D01*
X118184417Y-132618521D01*
X118196580Y-132458583D01*
X118200679Y-132296520D01*
X121400485Y-132296520D01*
X121404601Y-132458613D01*
X121416781Y-132618577D01*
X121436828Y-132776215D01*
X121464545Y-132931329D01*
X121499733Y-133083720D01*
X121542195Y-133233192D01*
X121591732Y-133379545D01*
X121648146Y-133522582D01*
X121711241Y-133662105D01*
X121780818Y-133797917D01*
X121856679Y-133929819D01*
X121938626Y-134057613D01*
X122026462Y-134181103D01*
X122119988Y-134300089D01*
X122219007Y-134414373D01*
X122323321Y-134523759D01*
X122432732Y-134628048D01*
X122547043Y-134727042D01*
X122666054Y-134820544D01*
X122789569Y-134908354D01*
X122917390Y-134990277D01*
X123049318Y-135066113D01*
X123185157Y-135135664D01*
X123324707Y-135198734D01*
X123467772Y-135255124D01*
X123614153Y-135304636D01*
X123763652Y-135347072D01*
X123916072Y-135382234D01*
X124071215Y-135409925D01*
X124228883Y-135429946D01*
X124388877Y-135442100D01*
X124551001Y-135446189D01*
X124713076Y-135442058D01*
X124873022Y-135429864D01*
X125030641Y-135409806D01*
X125185736Y-135382080D01*
X125338109Y-135346885D01*
X125487562Y-135304419D01*
X125633897Y-135254879D01*
X125776916Y-135198465D01*
X125916422Y-135135373D01*
X126052217Y-135065801D01*
X126184102Y-134989948D01*
X126311881Y-134908012D01*
X126435355Y-134820189D01*
X126554326Y-134726679D01*
X126668597Y-134627679D01*
X126777970Y-134523387D01*
X126882246Y-134414001D01*
X126981229Y-134299719D01*
X127074721Y-134180739D01*
X127162522Y-134057259D01*
X127244437Y-133929476D01*
X127320266Y-133797589D01*
X127389812Y-133661795D01*
X127452878Y-133522293D01*
X127509264Y-133379281D01*
X127558775Y-133232955D01*
X127601211Y-133083515D01*
X127636375Y-132931158D01*
X127664069Y-132776082D01*
X127684096Y-132618485D01*
X127696257Y-132458565D01*
X127700355Y-132296520D01*
X127696266Y-132134425D01*
X127684113Y-131974458D01*
X127664092Y-131816816D01*
X127636401Y-131661697D01*
X127601239Y-131509299D01*
X127558803Y-131359820D01*
X127509292Y-131213458D01*
X127452902Y-131070410D01*
X127389832Y-130930876D01*
X127320280Y-130795052D01*
X127244444Y-130663137D01*
X127162521Y-130535328D01*
X127074710Y-130411824D01*
X126981208Y-130292822D01*
X126882214Y-130178520D01*
X126777925Y-130069116D01*
X126668538Y-129964809D01*
X126554253Y-129865796D01*
X126435266Y-129772274D01*
X126311776Y-129684443D01*
X126183981Y-129602499D01*
X126052078Y-129526641D01*
X125916266Y-129457067D01*
X125776742Y-129393974D01*
X125633704Y-129337561D01*
X125487350Y-129288025D01*
X125337878Y-129245565D01*
X125185486Y-129210377D01*
X125030371Y-129182661D01*
X124872733Y-129162614D01*
X124712767Y-129150435D01*
X124550771Y-129146322D01*
X124394659Y-129150172D01*
X124239506Y-129161698D01*
X124085671Y-129180789D01*
X123933412Y-129207339D01*
X123782987Y-129241241D01*
X123634654Y-129282388D01*
X123488672Y-129330672D01*
X123345300Y-129385988D01*
X123204794Y-129448228D01*
X123067414Y-129517285D01*
X122933418Y-129593052D01*
X122803064Y-129675422D01*
X122676610Y-129764289D01*
X122554315Y-129859545D01*
X122436437Y-129961084D01*
X122323234Y-130068797D01*
X122215506Y-130181987D01*
X122113954Y-130299854D01*
X122018684Y-130422138D01*
X121929802Y-130548582D01*
X121847416Y-130678929D01*
X121771632Y-130812920D01*
X121702559Y-130950298D01*
X121640302Y-131090804D01*
X121584968Y-131234180D01*
X121536666Y-131380169D01*
X121495501Y-131528513D01*
X121461580Y-131678953D01*
X121435012Y-131831231D01*
X121415901Y-131985091D01*
X121404357Y-132140273D01*
X121400485Y-132296520D01*
X118200679Y-132296520D01*
X118196817Y-132140308D01*
X118185282Y-131985155D01*
X118166182Y-131831321D01*
X118139623Y-131679064D01*
X118105712Y-131528641D01*
X118064556Y-131380311D01*
X118016262Y-131234332D01*
X117960938Y-131090963D01*
X117898690Y-130950462D01*
X117829624Y-130813086D01*
X117753849Y-130679095D01*
X117671471Y-130548746D01*
X117582597Y-130422297D01*
X117487333Y-130300008D01*
X117385788Y-130182135D01*
X117278067Y-130068939D01*
X117164871Y-129961217D01*
X117047000Y-129859671D01*
X116924711Y-129764408D01*
X116798263Y-129675533D01*
X116667914Y-129593154D01*
X116533923Y-129517379D01*
X116396547Y-129448313D01*
X116256046Y-129386064D01*
X116112676Y-129330740D01*
X115966698Y-129282446D01*
X115818368Y-129241289D01*
X115667944Y-129207378D01*
X115515687Y-129180819D01*
X115361852Y-129161718D01*
X115206699Y-129150182D01*
X115050587Y-129146322D01*
X114894476Y-129150172D01*
X114739322Y-129161697D01*
X114585486Y-129180787D01*
X114433226Y-129207337D01*
X114282800Y-129241238D01*
X114134467Y-129282385D01*
X113988485Y-129330669D01*
X113845111Y-129385985D01*
X113704605Y-129448224D01*
X113567225Y-129517281D01*
X113433228Y-129593048D01*
X113302874Y-129675419D01*
X113176420Y-129764285D01*
X113054124Y-129859541D01*
X112936246Y-129961080D01*
X112823043Y-130068794D01*
X112715315Y-130181984D01*
X112613762Y-130299850D01*
X112518491Y-130422134D01*
X112429608Y-130548579D01*
X112347221Y-130678926D01*
X112271437Y-130812917D01*
X112202363Y-130950294D01*
X112140106Y-131090801D01*
X112084772Y-131234177D01*
X112036469Y-131380166D01*
X111995303Y-131528510D01*
X111961383Y-131678951D01*
X111934814Y-131831230D01*
X111915703Y-131985090D01*
X111904159Y-132140272D01*
X111900287Y-132296520D01*
X109243602Y-132296520D01*
X109243602Y-129146320D01*
X115050487Y-129146320D01*
X115050587Y-129146322D01*
X115050689Y-129146320D01*
X124550673Y-129146320D01*
X124550771Y-129146322D01*
X124550872Y-129146320D01*
X124550673Y-129146320D01*
X115050689Y-129146320D01*
X115050487Y-129146320D01*
X109243602Y-129146320D01*
X109243602Y-120296211D01*
X111900287Y-120296211D01*
X111904149Y-120452423D01*
X111915683Y-120607575D01*
X111934784Y-120761409D01*
X111961343Y-120913667D01*
X111995254Y-121064090D01*
X112036410Y-121212420D01*
X112084703Y-121358399D01*
X112140028Y-121501768D01*
X112202276Y-121642270D01*
X112271342Y-121779646D01*
X112347118Y-121913637D01*
X112429496Y-122043986D01*
X112518371Y-122170434D01*
X112613635Y-122292724D01*
X112715181Y-122410595D01*
X112822902Y-122523792D01*
X112936098Y-122631512D01*
X113053971Y-122733058D01*
X113176259Y-122828321D01*
X113302706Y-122917196D01*
X113433053Y-122999574D01*
X113567040Y-123075350D01*
X113704410Y-123144415D01*
X113844904Y-123206664D01*
X113988263Y-123261989D01*
X114134229Y-123310283D01*
X114282544Y-123351439D01*
X114432948Y-123385350D01*
X114585184Y-123411909D01*
X114738992Y-123431010D01*
X114894114Y-123442545D01*
X115050292Y-123446407D01*
X115206504Y-123442554D01*
X115361657Y-123431029D01*
X115515492Y-123411937D01*
X115667751Y-123385387D01*
X115818176Y-123351486D01*
X115966508Y-123310339D01*
X116112490Y-123262054D01*
X116255862Y-123206738D01*
X116396367Y-123144498D01*
X116533747Y-123075442D01*
X116667743Y-122999674D01*
X116798097Y-122917304D01*
X116924550Y-122828437D01*
X117046845Y-122733181D01*
X117164723Y-122631643D01*
X117277926Y-122523929D01*
X117385654Y-122410739D01*
X117487207Y-122292873D01*
X117582478Y-122170588D01*
X117671360Y-122044144D01*
X117753747Y-121913797D01*
X117829530Y-121779806D01*
X117898604Y-121642428D01*
X117960862Y-121501922D01*
X118016195Y-121358545D01*
X118064498Y-121212556D01*
X118105663Y-121064212D01*
X118139583Y-120913772D01*
X118166152Y-120761493D01*
X118185262Y-120607633D01*
X118196807Y-120452450D01*
X118200679Y-120296211D01*
X121400485Y-120296211D01*
X121404347Y-120452423D01*
X121415882Y-120607575D01*
X121434982Y-120761409D01*
X121461541Y-120913666D01*
X121495452Y-121064089D01*
X121536608Y-121212419D01*
X121584901Y-121358397D01*
X121640225Y-121501767D01*
X121702474Y-121642268D01*
X121771538Y-121779643D01*
X121847313Y-121913634D01*
X121929691Y-122043983D01*
X122018565Y-122170431D01*
X122113828Y-122292720D01*
X122215373Y-122410592D01*
X122323092Y-122523788D01*
X122436288Y-122631508D01*
X122554160Y-122733054D01*
X122676448Y-122828317D01*
X122802894Y-122917192D01*
X122933240Y-122999570D01*
X123067227Y-123075346D01*
X123204596Y-123144412D01*
X123345089Y-123206661D01*
X123488448Y-123261986D01*
X123634414Y-123310280D01*
X123782728Y-123351436D01*
X123933132Y-123385348D01*
X124085367Y-123411908D01*
X124239175Y-123431009D01*
X124394297Y-123442544D01*
X124550475Y-123446407D01*
X124712569Y-123442302D01*
X124872535Y-123430132D01*
X125030175Y-123410094D01*
X125185291Y-123382388D01*
X125337686Y-123347210D01*
X125487160Y-123304758D01*
X125633517Y-123255231D01*
X125776559Y-123198825D01*
X125916087Y-123135740D01*
X126051904Y-123066172D01*
X126183811Y-122990321D01*
X126311612Y-122908383D01*
X126435107Y-122820556D01*
X126554099Y-122727039D01*
X126668391Y-122628029D01*
X126777784Y-122523724D01*
X126882080Y-122414322D01*
X126981082Y-122300021D01*
X127074591Y-122181019D01*
X127162410Y-122057513D01*
X127244341Y-121929702D01*
X127320185Y-121797783D01*
X127389746Y-121661954D01*
X127452824Y-121522413D01*
X127509223Y-121379358D01*
X127558744Y-121232988D01*
X127601189Y-121083498D01*
X127636361Y-120931089D01*
X127664061Y-120775956D01*
X127684092Y-120618299D01*
X127696256Y-120458316D01*
X127700355Y-120296203D01*
X127696240Y-120134128D01*
X127684063Y-119974180D01*
X127664020Y-119816559D01*
X127636310Y-119661461D01*
X127601130Y-119509084D01*
X127558678Y-119359627D01*
X127509153Y-119213286D01*
X127452751Y-119070261D01*
X127389671Y-118930749D01*
X127320111Y-118794947D01*
X127244268Y-118663053D01*
X127162341Y-118535266D01*
X127074526Y-118411783D01*
X126981023Y-118292803D01*
X126882028Y-118178521D01*
X126777740Y-118069138D01*
X126668356Y-117964850D01*
X126554075Y-117865856D01*
X126435094Y-117772353D01*
X126311611Y-117684538D01*
X126183824Y-117602611D01*
X126051930Y-117526769D01*
X125916128Y-117457209D01*
X125776616Y-117394129D01*
X125633590Y-117337728D01*
X125487250Y-117288203D01*
X125337793Y-117245752D01*
X125185416Y-117210572D01*
X125030318Y-117182863D01*
X124872696Y-117162820D01*
X124712749Y-117150643D01*
X124550673Y-117146530D01*
X124550349Y-117146528D01*
X124388255Y-117150633D01*
X124228290Y-117162803D01*
X124070650Y-117182840D01*
X123915534Y-117210547D01*
X123763141Y-117245724D01*
X123613667Y-117288174D01*
X123467310Y-117337700D01*
X123324269Y-117394103D01*
X123184742Y-117457185D01*
X123048926Y-117526748D01*
X122917019Y-117602595D01*
X122789219Y-117684526D01*
X122665724Y-117772346D01*
X122546733Y-117865854D01*
X122432442Y-117964854D01*
X122323049Y-118069147D01*
X122218754Y-118178536D01*
X122119753Y-118292823D01*
X122026244Y-118411809D01*
X121938426Y-118535296D01*
X121856496Y-118663087D01*
X121780651Y-118794984D01*
X121711091Y-118930789D01*
X121648013Y-119070303D01*
X121591615Y-119213329D01*
X121542094Y-119359669D01*
X121499649Y-119509124D01*
X121464478Y-119661498D01*
X121436778Y-119816591D01*
X121416747Y-119974206D01*
X121404583Y-120134145D01*
X121400485Y-120296211D01*
X118200679Y-120296211D01*
X118200679Y-120296203D01*
X118196564Y-120134110D01*
X118184383Y-119974145D01*
X118164336Y-119816507D01*
X118136620Y-119661393D01*
X118101433Y-119509002D01*
X118058972Y-119359530D01*
X118009437Y-119213177D01*
X117953023Y-119070140D01*
X117889931Y-118930616D01*
X117820357Y-118794804D01*
X117744499Y-118662902D01*
X117662555Y-118535107D01*
X117574724Y-118411617D01*
X117481203Y-118292631D01*
X117382190Y-118178346D01*
X117277883Y-118068960D01*
X117168480Y-117964671D01*
X117054178Y-117865677D01*
X116935177Y-117772175D01*
X116811673Y-117684364D01*
X116683865Y-117602441D01*
X116551950Y-117526605D01*
X116416126Y-117457053D01*
X116276592Y-117393984D01*
X116133546Y-117337594D01*
X115987184Y-117288082D01*
X115837705Y-117245646D01*
X115685308Y-117210484D01*
X115530189Y-117182793D01*
X115372548Y-117162772D01*
X115212581Y-117150618D01*
X115050487Y-117146530D01*
X115050166Y-117146528D01*
X114888072Y-117150632D01*
X114728106Y-117162802D01*
X114570466Y-117182839D01*
X114415350Y-117210545D01*
X114262955Y-117245722D01*
X114113481Y-117288172D01*
X113967124Y-117337697D01*
X113824082Y-117394100D01*
X113684554Y-117457182D01*
X113548737Y-117526745D01*
X113416830Y-117602591D01*
X113289030Y-117684523D01*
X113165534Y-117772342D01*
X113046542Y-117865850D01*
X112932250Y-117964850D01*
X112822857Y-118069144D01*
X112718561Y-118178533D01*
X112619559Y-118292819D01*
X112526050Y-118411805D01*
X112438231Y-118535293D01*
X112356300Y-118663084D01*
X112280456Y-118794981D01*
X112210895Y-118930786D01*
X112147817Y-119070301D01*
X112091418Y-119213327D01*
X112041897Y-119359667D01*
X111999452Y-119509123D01*
X111964280Y-119661496D01*
X111936580Y-119816590D01*
X111916549Y-119974205D01*
X111904385Y-120134145D01*
X111900287Y-120296211D01*
X109243602Y-120296211D01*
X109243602Y-114099685D01*
X113803519Y-114099685D01*
X114262931Y-114099685D01*
X114608642Y-113235137D01*
X115729503Y-113235137D01*
X115833373Y-114099685D01*
X116297435Y-114099685D01*
X123377623Y-114099685D01*
X124241652Y-114099685D01*
X124329625Y-114098470D01*
X124414511Y-114094826D01*
X124496309Y-114088752D01*
X124575021Y-114080247D01*
X124650645Y-114069313D01*
X124723183Y-114055948D01*
X124792634Y-114040153D01*
X124858998Y-114021927D01*
X124922275Y-114001270D01*
X124982466Y-113978182D01*
X125039570Y-113952662D01*
X125093587Y-113924712D01*
X125144518Y-113894330D01*
X125192362Y-113861516D01*
X125237120Y-113826270D01*
X125278792Y-113788593D01*
X125318266Y-113749000D01*
X125355196Y-113708011D01*
X125389581Y-113665626D01*
X125421421Y-113621847D01*
X125450715Y-113576675D01*
X125477465Y-113530110D01*
X125501668Y-113482154D01*
X125523324Y-113432808D01*
X125542435Y-113382073D01*
X125558998Y-113329950D01*
X125573014Y-113276440D01*
X125584482Y-113221544D01*
X125593402Y-113165263D01*
X125599775Y-113107599D01*
X125603598Y-113048552D01*
X125604873Y-112988124D01*
X125604200Y-112950429D01*
X125602183Y-112913896D01*
X125598819Y-112878523D01*
X125594109Y-112844311D01*
X125588052Y-112811259D01*
X125580646Y-112779366D01*
X125571891Y-112748632D01*
X125561787Y-112719056D01*
X125550332Y-112690638D01*
X125537526Y-112663376D01*
X125523368Y-112637271D01*
X125507858Y-112612322D01*
X125490993Y-112588528D01*
X125472775Y-112565888D01*
X125453202Y-112544402D01*
X125432273Y-112524070D01*
X125410799Y-112504681D01*
X125388359Y-112486027D01*
X125364953Y-112468106D01*
X125340580Y-112450919D01*
X125315243Y-112434465D01*
X125288940Y-112418745D01*
X125261672Y-112403758D01*
X125233439Y-112389505D01*
X125204241Y-112375985D01*
X125174080Y-112363198D01*
X125142954Y-112351143D01*
X125110864Y-112339822D01*
X125077811Y-112329233D01*
X125043795Y-112319377D01*
X125008815Y-112310253D01*
X124972873Y-112301862D01*
X125014929Y-112292042D01*
X125055902Y-112281101D01*
X125095791Y-112269040D01*
X125134598Y-112255859D01*
X125172322Y-112241559D01*
X125208965Y-112226139D01*
X125244526Y-112209600D01*
X125279006Y-112191942D01*
X125312406Y-112173165D01*
X125344726Y-112153269D01*
X125375966Y-112132254D01*
X125406128Y-112110121D01*
X125435211Y-112086870D01*
X125463216Y-112062500D01*
X125490143Y-112037013D01*
X125515994Y-112010408D01*
X125541115Y-111982745D01*
X125564610Y-111954085D01*
X125586480Y-111924427D01*
X125606724Y-111893770D01*
X125625345Y-111862112D01*
X125642343Y-111829454D01*
X125657718Y-111795794D01*
X125671472Y-111761132D01*
X125683605Y-111725466D01*
X125694117Y-111688797D01*
X125703011Y-111651123D01*
X125710285Y-111612443D01*
X125715942Y-111572756D01*
X125719981Y-111532063D01*
X125722405Y-111490361D01*
X125723212Y-111447650D01*
X125722171Y-111403236D01*
X125719047Y-111360127D01*
X125713840Y-111318325D01*
X125706551Y-111277830D01*
X125697178Y-111238643D01*
X125685723Y-111200766D01*
X125672184Y-111164199D01*
X125656561Y-111128943D01*
X125638855Y-111094999D01*
X125619066Y-111062368D01*
X125597192Y-111031050D01*
X125573234Y-111001047D01*
X125547193Y-110972359D01*
X125519067Y-110944987D01*
X125488856Y-110918933D01*
X125456561Y-110894197D01*
X125423109Y-110870276D01*
X125388193Y-110847901D01*
X125351813Y-110827072D01*
X125313970Y-110807790D01*
X125274661Y-110790052D01*
X125233888Y-110773859D01*
X125191649Y-110759210D01*
X125147945Y-110746105D01*
X125102774Y-110734544D01*
X125056137Y-110724525D01*
X125008032Y-110716049D01*
X124958460Y-110709116D01*
X124907421Y-110703723D01*
X124854912Y-110699872D01*
X124800936Y-110697562D01*
X124745490Y-110696792D01*
X123856662Y-110696792D01*
X123377623Y-114099685D01*
X116297435Y-114099685D01*
X115808574Y-110696792D01*
X115250464Y-110696792D01*
X113803519Y-114099685D01*
X109243602Y-114099685D01*
X109243602Y-109989341D01*
X109245444Y-109916040D01*
G37*
G36*
X85682377Y-38553454D02*
G01*
X85686930Y-38402586D01*
X85693182Y-38253725D01*
X85701130Y-38106870D01*
X85710777Y-37962022D01*
X85722120Y-37819180D01*
X85735161Y-37678345D01*
X85749900Y-37539515D01*
X85766336Y-37402693D01*
X86023159Y-35535792D01*
X86438026Y-35535792D01*
X85958957Y-38938687D01*
X85376167Y-38938687D01*
X84576069Y-35925964D01*
X84570820Y-36084394D01*
X84562486Y-36248535D01*
X84551064Y-36418387D01*
X84536556Y-36593949D01*
X84518962Y-36775221D01*
X84498280Y-36962205D01*
X84474513Y-37154898D01*
X84447658Y-37353303D01*
X84230346Y-38938687D01*
X83815479Y-38938687D01*
X84294552Y-35535792D01*
X84877338Y-35535792D01*
X85682377Y-38553454D01*
G37*
G36*
X124578805Y-112495060D02*
G01*
X124613605Y-112496394D01*
X124647325Y-112498617D01*
X124679962Y-112501729D01*
X124711519Y-112505730D01*
X124741994Y-112510619D01*
X124771389Y-112516396D01*
X124799703Y-112523060D01*
X124826937Y-112530612D01*
X124853090Y-112539051D01*
X124878164Y-112548378D01*
X124902158Y-112558590D01*
X124925073Y-112569690D01*
X124946908Y-112581675D01*
X124967664Y-112594546D01*
X124987342Y-112608302D01*
X125006476Y-112623078D01*
X125024378Y-112639008D01*
X125041048Y-112656092D01*
X125056486Y-112674331D01*
X125070692Y-112693726D01*
X125083664Y-112714276D01*
X125095402Y-112735983D01*
X125105906Y-112758847D01*
X125115177Y-112782868D01*
X125123212Y-112808047D01*
X125130012Y-112834385D01*
X125135577Y-112861883D01*
X125139906Y-112890540D01*
X125142998Y-112920357D01*
X125144854Y-112951335D01*
X125145472Y-112983474D01*
X125144724Y-113026147D01*
X125142479Y-113067735D01*
X125138735Y-113108238D01*
X125133492Y-113147659D01*
X125126749Y-113185996D01*
X125118504Y-113223251D01*
X125108757Y-113259424D01*
X125097505Y-113294516D01*
X125084749Y-113328528D01*
X125070488Y-113361460D01*
X125054719Y-113393313D01*
X125037442Y-113424087D01*
X125018655Y-113453784D01*
X124998359Y-113482403D01*
X124976551Y-113509946D01*
X124953231Y-113536413D01*
X124928612Y-113560934D01*
X124901676Y-113583874D01*
X124872423Y-113605235D01*
X124840853Y-113625014D01*
X124806967Y-113643213D01*
X124770766Y-113659831D01*
X124732248Y-113674866D01*
X124691416Y-113688321D01*
X124648268Y-113700193D01*
X124602806Y-113710483D01*
X124555029Y-113719191D01*
X124504938Y-113726316D01*
X124452534Y-113731858D01*
X124397815Y-113735817D01*
X124340784Y-113738193D01*
X124281440Y-113738984D01*
X123871131Y-113738984D01*
X124049411Y-112494617D01*
X124542922Y-112494615D01*
X124578805Y-112495060D01*
G37*
M02*
