<?xml version="1.0" encoding="UTF-8" standalone="no"?>
<svg
   width="80mm"
   height="140mm"
   version="1.1"
   viewBox="0 0 80 140"
   id="svg2"
   inkscape:version="1.2.1 (9c6d41e410, 2022-07-14)"
   sodipodi:docname="O_C_blank_spacer.svg"
   xml:space="preserve"
   xmlns:inkscape="http://www.inkscape.org/namespaces/inkscape"
   xmlns:sodipodi="http://sodipodi.sourceforge.net/DTD/sodipodi-0.dtd"
   xmlns="http://www.w3.org/2000/svg"
   xmlns:svg="http://www.w3.org/2000/svg"
   xmlns:rdf="http://www.w3.org/1999/02/22-rdf-syntax-ns#"
   xmlns:cc="http://creativecommons.org/ns#"
   xmlns:dc="http://purl.org/dc/elements/1.1/"><metadata
     id="metadata68"><rdf:RDF><cc:Work
         rdf:about=""><dc:format>image/svg+xml</dc:format><dc:type
           rdf:resource="http://purl.org/dc/dcmitype/StillImage" /></cc:Work></rdf:RDF></metadata><sodipodi:namedview
     pagecolor="#ffffff"
     bordercolor="#666666"
     borderopacity="1"
     objecttolerance="10"
     gridtolerance="10"
     guidetolerance="10"
     inkscape:pageopacity="0"
     inkscape:pageshadow="2"
     inkscape:window-width="3840"
     inkscape:window-height="2109"
     id="namedview66"
     showgrid="false"
     width="120mm"
     inkscape:zoom="3.1349907"
     inkscape:cx="205.90173"
     inkscape:cy="258.85244"
     inkscape:window-x="0"
     inkscape:window-y="24"
     inkscape:window-maximized="0"
     inkscape:current-layer="layer2"
     inkscape:showpageshadow="0"
     inkscape:pagecheckerboard="0"
     inkscape:deskcolor="#d1d1d1"
     inkscape:document-units="mm" /><desc
     id="desc4">Created with the Front Panel Designer by the export of the file 'O_C_blank_spacer.fpd'.</desc><defs
     id="defs6"><pattern
       id="revside-fill"
       x="1"
       y="1"
       width="1.5"
       height="1.5"
       patternUnits="userSpaceOnUse"><line
         x1="0"
         y1="0"
         x2="1"
         y2="1"
         style="stroke-width:0.2; stroke:black; stroke-dasharray:none;"
         id="line9" /><line
         x1="0"
         y1="1"
         x2="1"
         y2="0"
         style="stroke-width:0.2; stroke:black; stroke-dasharray:none;"
         id="line11" /></pattern><pattern
       id="revside-fill-e0e0e0"
       x="1"
       y="1"
       width="1.5"
       height="1.5"
       patternUnits="userSpaceOnUse"><line
         x1="0"
         y1="0"
         x2="1.5"
         y2="1.5"
         style="stroke-width:0.2; stroke:#e0e0e0; stroke-dasharray:none;"
         id="line14" /><line
         x1="0"
         y1="1.5"
         x2="1.5"
         y2="0"
         style="stroke-width:0.2; stroke:#e0e0e0; stroke-dasharray:none;"
         id="line16" /></pattern></defs><g
     inkscape:groupmode="layer"
     id="layer2"
     inkscape:label="Layer 2"
     style="display:inline;opacity:1"><path
       d="M 75.617862,4.97976 H 4.8378625 v 0 128.4 0 H 75.617862 v 0 z"
       vector-effect="non-scaling-stroke"
       id="path20"
       inkscape:connector-curvature="0"
       style="fill:none;fill-opacity:0.0590353;fill-rule:evenodd;stroke:#000000;stroke-width:0.282222;stroke-linecap:round;stroke-linejoin:round;stroke-miterlimit:4;stroke-dasharray:none;stroke-opacity:1" /><circle
       cx="13.337863"
       cy="-98.379761"
       r="3.1500001"
       vector-effect="non-scaling-stroke"
       id="circle22"
       style="fill:#ffffff;fill-rule:evenodd;stroke:#000000;stroke-width:0.282222;stroke-linecap:round;stroke-linejoin:round;stroke-miterlimit:4;stroke-dasharray:none;stroke-opacity:1"
       transform="scale(1,-1)" /><circle
       cx="22.837862"
       cy="-98.379761"
       r="3.1500001"
       vector-effect="non-scaling-stroke"
       id="circle24"
       style="fill:#ffffff;fill-rule:evenodd;stroke:#000000;stroke-width:0.282222;stroke-linecap:round;stroke-linejoin:round;stroke-miterlimit:4;stroke-dasharray:none;stroke-opacity:1"
       transform="scale(1,-1)" /><circle
       cx="32.337864"
       cy="-98.379761"
       r="3.1500001"
       vector-effect="non-scaling-stroke"
       id="circle26"
       style="fill:#ffffff;fill-rule:evenodd;stroke:#000000;stroke-width:0.282222;stroke-linecap:round;stroke-linejoin:round;stroke-miterlimit:4;stroke-dasharray:none;stroke-opacity:1"
       transform="scale(1,-1)" /><circle
       cx="41.837864"
       cy="-98.379761"
       r="3.1500001"
       vector-effect="non-scaling-stroke"
       id="circle28"
       style="fill:#ffffff;fill-rule:evenodd;stroke:#000000;stroke-width:0.282222;stroke-linecap:round;stroke-linejoin:round;stroke-miterlimit:4;stroke-dasharray:none;stroke-opacity:1"
       transform="scale(1,-1)" /><path
       id="rect6617"
       style="fill:#3e6541;fill-opacity:1;stroke:none;stroke-width:0.499999;stroke-linecap:round;stroke-linejoin:round;stroke-dasharray:none"
       d="M 52.451579 86.652592 C 51.66474 86.652592 51.030994 87.285822 51.030994 88.07266 L 51.030994 120.34201 C 51.030994 121.12885 51.66474 121.76208 52.451579 121.76208 L 70.712996 121.76208 C 71.499842 121.76208 72.133582 121.12885 72.133582 120.34201 L 72.133582 88.07266 C 72.133582 87.285822 71.499842 86.652592 70.712996 86.652592 L 52.451579 86.652592 z M 57.037862 88.780111 L 57.595968 88.780111 L 58.084827 92.183004 L 57.620772 92.183004 L 57.516903 91.318457 L 56.396041 91.318457 L 56.050326 92.183004 L 55.590922 92.183004 L 57.037862 88.780111 z M 65.644055 88.780111 L 66.53289 88.780111 C 66.832516 88.780111 67.06945 88.845811 67.243958 88.977515 C 67.421757 89.105926 67.510608 89.29061 67.510608 89.530969 C 67.510608 89.761451 67.441674 89.948852 67.303385 90.093726 C 67.168389 90.2386 66.987455 90.335792 66.760266 90.385181 C 66.954529 90.427984 67.107722 90.502026 67.21967 90.607389 C 67.33491 90.712752 67.392269 90.867303 67.392269 91.071444 C 67.392269 91.39741 67.283502 91.664478 67.066191 91.871912 C 66.852172 92.079345 66.50647 92.183004 66.029045 92.183004 L 65.165015 92.183004 L 65.644055 88.780111 z M 66.038863 89.135645 L 65.885901 90.227051 L 66.335486 90.227051 C 66.559382 90.227051 66.735208 90.169692 66.863619 90.054451 C 66.99203 89.939211 67.056372 89.769335 67.056372 89.545439 C 67.056372 89.272154 66.883779 89.135645 66.538057 89.135645 L 66.038863 89.135645 z M 57.260071 89.155282 L 56.539185 90.958272 L 57.472461 90.958272 L 57.260071 89.155282 z M 65.836808 90.577934 L 65.658525 91.822302 L 66.068835 91.822302 C 66.391509 91.822302 66.615511 91.754727 66.740629 91.619731 C 66.86904 91.481442 66.932865 91.297274 66.932865 91.066793 C 66.932865 90.892286 66.880098 90.767351 66.774736 90.691622 C 66.672665 90.615892 66.524581 90.577934 66.330318 90.577934 L 65.836808 90.577934 z M 56.837874 95.229846 A 3.1500001 3.1500001 0 0 1 59.98807 98.379525 A 3.1500001 3.1500001 0 0 1 56.837874 101.52972 A 3.1500001 3.1500001 0 0 1 53.687679 98.379525 A 3.1500001 3.1500001 0 0 1 56.837874 95.229846 z M 66.33807 95.229846 A 3.1500001 3.1500001 0 0 1 69.487748 98.379525 A 3.1500001 3.1500001 0 0 1 66.33807 101.52972 A 3.1500001 3.1500001 0 0 1 63.187874 98.379525 A 3.1500001 3.1500001 0 0 1 66.33807 95.229846 z M 56.837874 107.22963 A 3.1500001 3.1500001 0 0 1 59.98807 110.37983 A 3.1500001 3.1500001 0 0 1 56.837874 113.5295 A 3.1500001 3.1500001 0 0 1 53.687679 110.37983 A 3.1500001 3.1500001 0 0 1 56.837874 107.22963 z M 66.33807 107.22963 A 3.1500001 3.1500001 0 0 1 69.487748 110.37983 A 3.1500001 3.1500001 0 0 1 66.33807 113.5295 A 3.1500001 3.1500001 0 0 1 63.187874 110.37983 A 3.1500001 3.1500001 0 0 1 66.33807 107.22963 z M 57.265238 115.89577 C 57.439746 115.89577 57.592938 115.92539 57.724642 115.98465 C 57.856346 116.04063 57.976171 116.12624 58.084827 116.24148 L 57.827995 116.4885 C 57.735802 116.40947 57.646952 116.3516 57.561344 116.31538 C 57.475737 116.27916 57.38042 116.26112 57.275057 116.26112 C 57.018235 116.26112 56.805806 116.35831 56.637887 116.55258 C 56.473257 116.74355 56.352915 116.98236 56.277185 117.26881 C 56.204748 117.55527 56.168665 117.84497 56.168665 118.13801 C 56.168665 118.44422 56.224665 118.66958 56.336613 118.81445 C 56.451854 118.95933 56.60828 119.03201 56.805835 119.03201 C 56.937539 119.03201 57.052773 119.00886 57.15155 118.96276 C 57.253621 118.91338 57.368855 118.84257 57.497266 118.75037 L 57.684851 119.047 C 57.408274 119.29065 57.10053 119.41235 56.761393 119.41235 C 56.438722 119.41235 56.181865 119.29847 55.990898 119.07128 C 55.799927 118.84413 55.70461 118.52342 55.70461 118.10855 C 55.70461 117.75954 55.760611 117.41519 55.872559 117.07606 C 55.984504 116.73692 56.157099 116.45553 56.390873 116.23167 C 56.624647 116.00777 56.916227 115.89577 57.265238 115.89577 z M 65.927242 116.00946 L 66.618673 116.00946 C 67.020367 116.00946 67.339687 116.10018 67.576754 116.28127 C 67.817113 116.46237 67.937455 116.7747 67.937455 117.2192 C 67.937455 117.6209 67.878222 117.98652 67.759688 118.31578 C 67.644448 118.64503 67.45653 118.91023 67.196415 119.11108 C 66.936301 119.31192 66.605407 119.41235 66.203711 119.41235 L 65.448201 119.41235 L 65.927242 116.00946 z M 66.322567 116.37016 L 65.942228 119.05682 L 66.282776 119.05682 C 66.569231 119.05682 66.802933 118.96797 66.984025 118.79017 C 67.165118 118.60907 67.293802 118.37996 67.369531 118.10339 C 67.448553 117.82352 67.48787 117.52735 67.48787 117.21455 C 67.48787 116.88858 67.413826 116.66646 67.265662 116.54792 C 67.120788 116.42939 66.919936 116.37016 66.663114 116.37016 L 66.322567 116.37016 z " /><circle
       cx="13.337863"
       cy="-110.37976"
       r="3.1500001"
       vector-effect="non-scaling-stroke"
       id="circle34"
       style="fill:#ffffff;fill-rule:evenodd;stroke:#000000;stroke-width:0.282222;stroke-linecap:round;stroke-linejoin:round;stroke-miterlimit:4;stroke-dasharray:none;stroke-opacity:1"
       transform="scale(1,-1)" /><circle
       cx="22.837862"
       cy="-110.37976"
       r="3.1500001"
       vector-effect="non-scaling-stroke"
       id="circle36"
       style="fill:#ffffff;fill-rule:evenodd;stroke:#000000;stroke-width:0.282222;stroke-linecap:round;stroke-linejoin:round;stroke-miterlimit:4;stroke-dasharray:none;stroke-opacity:1"
       transform="scale(1,-1)" /><circle
       cx="32.337864"
       cy="-110.37976"
       r="3.1500001"
       vector-effect="non-scaling-stroke"
       id="circle38"
       style="fill:#ffffff;fill-rule:evenodd;stroke:#000000;stroke-width:0.282222;stroke-linecap:round;stroke-linejoin:round;stroke-miterlimit:4;stroke-dasharray:none;stroke-opacity:1"
       transform="scale(1,-1)" /><circle
       cx="41.837864"
       cy="-110.37976"
       r="3.1500001"
       vector-effect="non-scaling-stroke"
       id="circle40"
       style="fill:#ffffff;fill-rule:evenodd;stroke:#000000;stroke-width:0.282222;stroke-linecap:round;stroke-linejoin:round;stroke-miterlimit:4;stroke-dasharray:none;stroke-opacity:1"
       transform="scale(1,-1)" /><circle
       cx="61.637863"
       cy="-66.879761"
       r="4.5"
       vector-effect="non-scaling-stroke"
       id="circle46"
       style="fill:#ffffff;fill-rule:evenodd;stroke:#000000;stroke-width:0.282222;stroke-linecap:round;stroke-linejoin:round;stroke-miterlimit:4;stroke-dasharray:none;stroke-opacity:1"
       transform="scale(1,-1)" /><circle
       cx="17.737862"
       cy="-66.879761"
       r="4.5"
       vector-effect="non-scaling-stroke"
       id="circle48"
       style="fill:#ffffff;fill-rule:evenodd;stroke:#000000;stroke-width:0.282222;stroke-linecap:round;stroke-linejoin:round;stroke-miterlimit:4;stroke-dasharray:none;stroke-opacity:1"
       transform="scale(1,-1)" /><circle
       cx="61.637863"
       cy="-42.779762"
       r="3.3489792"
       vector-effect="non-scaling-stroke"
       id="circle50"
       style="fill:#ffffff;fill-rule:evenodd;stroke:#000000;stroke-width:0.252042;stroke-linecap:round;stroke-linejoin:round;stroke-miterlimit:4;stroke-dasharray:none;stroke-opacity:1"
       transform="scale(1,-1)" /><circle
       cx="61.637863"
       cy="-23.979759"
       r="3.3489792"
       vector-effect="non-scaling-stroke"
       id="circle52"
       style="fill:#ffffff;fill-rule:evenodd;stroke:#000000;stroke-width:0.252042;stroke-linecap:round;stroke-linejoin:round;stroke-miterlimit:4;stroke-dasharray:none;stroke-opacity:1"
       transform="scale(1,-1)" /><rect
       x="12.521863"
       y="-41.750763"
       width="33"
       height="17.5"
       rx="1.5"
       vector-effect="non-scaling-stroke"
       id="rect54"
       style="fill:#ffffff;fill-rule:evenodd;stroke:#000000;stroke-width:0.282222;stroke-linecap:round;stroke-linejoin:round;stroke-miterlimit:4;stroke-dasharray:none;stroke-opacity:1"
       transform="scale(1,-1)" /><path
       d="m 9.3758625,129.47276 a 1.2,1.2 0 0 1 1.1460005,-0.843 h 3.532 a 1.2,1.2 0 0 1 1.146,0.843 3.05,3.05 0 0 1 0,1.814 1.2,1.2 0 0 1 -1.146001,0.843 h -3.531999 a 1.2,1.2 0 0 1 -1.1460005,-0.843 3.05,3.05 0 0 1 0,-1.814 z"
       vector-effect="non-scaling-stroke"
       id="path56"
       inkscape:connector-curvature="0"
       style="fill:#ffffff;fill-rule:evenodd;stroke:#000000;stroke-width:0.282222;stroke-linecap:round;stroke-linejoin:round;stroke-miterlimit:4;stroke-dasharray:none;stroke-opacity:1" /><path
       d="m 9.3758625,7.07276 a 1.2,1.2 0 0 1 1.1460005,-0.843 h 3.532 a 1.2,1.2 0 0 1 1.146,0.843 3.05,3.05 0 0 1 0,1.814 1.2,1.2 0 0 1 -1.146,0.843 h -3.532 a 1.2,1.2 0 0 1 -1.1460005,-0.843 3.05,3.05 0 0 1 0,-1.814 z"
       vector-effect="non-scaling-stroke"
       id="path58"
       inkscape:connector-curvature="0"
       style="fill:#ffffff;fill-rule:evenodd;stroke:#000000;stroke-width:0.282222;stroke-linecap:round;stroke-linejoin:round;stroke-miterlimit:4;stroke-dasharray:none;stroke-opacity:1" /><path
       d="m 65.255863,129.47276 a 1.2,1.2 0 0 1 1.145999,-0.843 h 3.532001 a 1.2,1.2 0 0 1 1.146,0.843 3.05,3.05 0 0 1 0,1.814 1.2,1.2 0 0 1 -1.146,0.843 h -3.532 a 1.2,1.2 0 0 1 -1.146,-0.843 3.05,3.05 0 0 1 0,-1.814 z"
       vector-effect="non-scaling-stroke"
       id="path60"
       inkscape:connector-curvature="0"
       style="fill:#ffffff;fill-rule:evenodd;stroke:#000000;stroke-width:0.282222;stroke-linecap:round;stroke-linejoin:round;stroke-miterlimit:4;stroke-dasharray:none;stroke-opacity:1" /><path
       d="m 65.255863,7.07276 a 1.2,1.2 0 0 1 1.145999,-0.843 h 3.532001 a 1.2,1.2 0 0 1 1.146,0.843 3.05,3.05 0 0 1 0,1.814 1.2,1.2 0 0 1 -1.146,0.843 h -3.532 a 1.2,1.2 0 0 1 -1.146,-0.843 3.05,3.05 0 0 1 0,-1.814 z"
       vector-effect="non-scaling-stroke"
       id="path62"
       inkscape:connector-curvature="0"
       style="fill:#ffffff;fill-rule:evenodd;stroke:#000000;stroke-width:0.282222;stroke-linecap:round;stroke-linejoin:round;stroke-miterlimit:4;stroke-dasharray:none;stroke-opacity:1" /><circle
       cx="51.137863"
       cy="-23.982758"
       r="1.551"
       vector-effect="non-scaling-stroke"
       id="circle64"
       style="fill:#ffffff;fill-rule:evenodd;stroke:#000000;stroke-width:0.282222;stroke-linecap:round;stroke-linejoin:round;stroke-miterlimit:4;stroke-dasharray:none;stroke-opacity:1"
       transform="scale(1,-1)" /><g
       aria-label="ORNAMENT &amp; CRIME"
       id="text4813"
       style="font-size:4.93889px;line-height:1.25;stroke-width:0.264583"><path
         d="m 21.543368,12.842675 q 0.503767,0 0.785283,0.340784 0.286456,0.335844 0.286456,0.958144 0,0.523523 -0.162983,1.032228 -0.158045,0.508706 -0.513645,0.849489 -0.3556,0.335845 -0.903817,0.335845 -0.503767,0 -0.790222,-0.335845 -0.286456,-0.335844 -0.286456,-0.953205 0,-0.508706 0.162984,-1.017412 0.162983,-0.513644 0.518583,-0.859367 0.3556,-0.350661 0.903817,-0.350661 z m -0.0247,0.365478 q -0.395111,0 -0.642055,0.301272 -0.246945,0.301273 -0.350661,0.735895 -0.103717,0.429683 -0.103717,0.839611 0,0.903817 0.632178,0.903817 0.40005,0 0.646994,-0.301272 0.246945,-0.306211 0.350662,-0.735895 0.103716,-0.434622 0.103716,-0.849489 0,-0.459317 -0.162983,-0.676628 -0.158045,-0.217311 -0.474134,-0.217311 z"
         style="font-style:italic;font-family:'Fira Sans Condensed';-inkscape-font-specification:'Fira Sans Condensed,  Italic'"
         id="path11933" /><path
         d="m 25.331499,13.716859 q 0,0.340783 -0.192616,0.627239 -0.187678,0.286455 -0.572912,0.424744 l 0.597606,1.531056 h -0.479072 l -0.538339,-1.447095 h -0.479073 l -0.202494,1.447095 h -0.4445 l 0.479072,-3.402895 h 0.785284 q 0.518583,0 0.780344,0.212372 0.2667,0.212372 0.2667,0.607484 z m -1.234722,0.785283 q 0.414867,0 0.592667,-0.227189 0.182739,-0.227189 0.182739,-0.543278 0,-0.251883 -0.143228,-0.365478 -0.143228,-0.113594 -0.459317,-0.113594 h -0.375356 l -0.1778,1.249539 z"
         style="font-style:italic;font-family:'Fira Sans Condensed';-inkscape-font-specification:'Fira Sans Condensed,  Italic'"
         id="path11935" /><path
         d="m 27.840455,16.299898 h -0.58279 l -0.8001,-3.012723 q -0.01482,0.6223 -0.128411,1.427339 l -0.217311,1.585384 h -0.414867 l 0.479073,-3.402895 h 0.582789 l 0.805039,3.017662 q 0.01482,-0.607484 0.08396,-1.150762 l 0.256822,-1.8669 h 0.414867 z"
         style="font-style:italic;font-family:'Fira Sans Condensed';-inkscape-font-specification:'Fira Sans Condensed,  Italic'"
         id="path11937" /><path
         d="m 30.230876,15.435592 h -1.121128 l -0.345722,0.864306 h -0.459317 l 1.447095,-3.402895 h 0.558095 l 0.48895,3.402895 h -0.464256 z m -0.04445,-0.360539 -0.212372,-1.802694 -0.721078,1.802694 z"
         style="font-style:italic;font-family:'Fira Sans Condensed';-inkscape-font-specification:'Fira Sans Condensed,  Italic'"
         id="path11939" /><path
         d="m 34.038763,16.299898 h -0.429684 l 0.108656,-1.531056 q 0.05433,-0.750711 0.123472,-1.407583 l -0.982839,2.553406 h -0.434622 l -0.316089,-2.548468 q -0.05433,0.444501 -0.246945,1.432279 l -0.301272,1.501422 h -0.434622 l 0.735894,-3.402895 h 0.563034 l 0.291394,2.489201 0.928512,-2.489201 h 0.617361 z"
         style="font-style:italic;font-family:'Fira Sans Condensed';-inkscape-font-specification:'Fira Sans Condensed,  Italic'"
         id="path11941" /><path
         d="m 36.794667,13.257542 h -1.16064 l -0.162983,1.131006 h 1.017411 l -0.04939,0.360539 h -1.017411 l -0.167922,1.190272 h 1.254478 l -0.05927,0.360539 h -1.6891 l 0.479072,-3.402895 h 1.659467 z"
         style="font-style:italic;font-family:'Fira Sans Condensed';-inkscape-font-specification:'Fira Sans Condensed,  Italic'"
         id="path11943" /><path
         d="m 39.249298,16.299898 h -0.582789 l -0.8001,-3.012723 q -0.01482,0.6223 -0.128411,1.427339 l -0.217311,1.585384 H 37.10582 l 0.479072,-3.402895 h 0.582789 l 0.805039,3.017662 q 0.01482,-0.607484 0.08396,-1.150762 l 0.256823,-1.8669 h 0.414866 z"
         style="font-style:italic;font-family:'Fira Sans Condensed';-inkscape-font-specification:'Fira Sans Condensed,  Italic'"
         id="path11945" /><path
         d="m 42.301531,13.282236 h -0.834673 l -0.424744,3.017662 h -0.4445 l 0.424744,-3.017662 h -0.859367 l 0.05433,-0.385233 h 2.187928 z"
         style="font-style:italic;font-family:'Fira Sans Condensed';-inkscape-font-specification:'Fira Sans Condensed,  Italic'"
         id="path11947" /><path
         d="m 44.929015,12.842675 q 0.345722,0 0.558095,0.192617 0.212372,0.192617 0.212372,0.484011 0,0.232128 -0.09878,0.40005 -0.09878,0.167922 -0.261761,0.296334 -0.162983,0.123472 -0.429683,0.276577 l 0.646994,0.839612 q 0.237067,-0.414867 0.370417,-0.780345 l 0.370417,0.143228 q -0.212373,0.479072 -0.513645,0.898878 l 0.409928,0.518583 -0.345722,0.246945 -0.340784,-0.459317 q -0.237067,0.242006 -0.474133,0.350661 -0.237067,0.108656 -0.5334,0.108656 -0.2667,0 -0.469195,-0.108656 -0.197556,-0.108655 -0.306211,-0.296333 -0.103717,-0.192617 -0.103717,-0.424745 0,-0.316089 0.162984,-0.567972 0.162983,-0.256822 0.572911,-0.5334 -0.158045,-0.207434 -0.237067,-0.375356 -0.07408,-0.167922 -0.07408,-0.360539 0,-0.237066 0.103716,-0.429683 0.108656,-0.197556 0.306212,-0.306211 0.202494,-0.113595 0.474133,-0.113595 z m -0.0049,0.321028 q -0.217311,0 -0.340783,0.148167 -0.118534,0.143228 -0.118534,0.375355 0,0.2667 0.232128,0.563034 0.306211,-0.182739 0.4445,-0.340784 0.143228,-0.162983 0.143228,-0.385233 0,-0.167922 -0.09878,-0.261761 -0.09384,-0.09878 -0.261761,-0.09878 z m -0.370417,1.521178 q -0.286455,0.197556 -0.390172,0.395111 -0.103717,0.197556 -0.103717,0.439562 0,0.232127 0.123473,0.365477 0.123472,0.128412 0.350661,0.128412 0.40005,0 0.750711,-0.375356 z"
         style="font-style:italic;font-family:'Fira Sans Condensed';-inkscape-font-specification:'Fira Sans Condensed,  Italic'"
         id="path11949" /><path
         d="m 49.517238,12.842675 q 0.261761,0 0.459317,0.0889 0.197555,0.08396 0.360539,0.256822 l -0.256823,0.246945 q -0.138288,-0.118533 -0.2667,-0.172861 -0.128411,-0.05433 -0.286455,-0.05433 -0.385234,0 -0.637117,0.291395 -0.246945,0.286455 -0.360539,0.716139 -0.108656,0.429683 -0.108656,0.869244 0,0.459317 0.167923,0.676628 0.172861,0.217311 0.469194,0.217311 0.197556,0 0.345723,-0.06914 0.153105,-0.07408 0.345722,-0.212372 l 0.187678,0.296333 q -0.414867,0.365478 -0.923573,0.365478 -0.484011,0 -0.770467,-0.340784 -0.286455,-0.340783 -0.286455,-0.963083 0,-0.523522 0.167922,-1.032228 0.167922,-0.508706 0.518583,-0.84455 0.350662,-0.335845 0.874184,-0.335845 z"
         style="font-style:italic;font-family:'Fira Sans Condensed';-inkscape-font-specification:'Fira Sans Condensed,  Italic'"
         id="path11951" /><path
         d="m 52.742335,13.716859 q 0,0.340783 -0.192616,0.627239 -0.187678,0.286455 -0.572911,0.424744 l 0.597605,1.531056 H 52.095341 L 51.557002,14.852803 H 51.07793 l -0.202495,1.447095 h -0.4445 l 0.479072,-3.402895 h 0.785284 q 0.518583,0 0.780344,0.212372 0.2667,0.212372 0.2667,0.607484 z m -1.234722,0.785283 q 0.414867,0 0.592667,-0.227189 0.182739,-0.227189 0.182739,-0.543278 0,-0.251883 -0.143228,-0.365478 -0.143228,-0.113594 -0.459317,-0.113594 h -0.375355 l -0.177801,1.249539 z"
         style="font-style:italic;font-family:'Fira Sans Condensed';-inkscape-font-specification:'Fira Sans Condensed,  Italic'"
         id="path11953" /><path
         d="m 53.552311,16.299898 h -0.4445 l 0.479072,-3.402895 h 0.4445 z"
         style="font-style:italic;font-family:'Fira Sans Condensed';-inkscape-font-specification:'Fira Sans Condensed,  Italic'"
         id="path11955" /><path
         d="m 57.182396,16.299898 h -0.429684 l 0.108656,-1.531056 q 0.05433,-0.750711 0.123472,-1.407583 l -0.982839,2.553406 H 55.567379 L 55.25129,13.366197 q -0.05433,0.444501 -0.246945,1.432279 l -0.301272,1.501422 h -0.434622 l 0.735894,-3.402895 h 0.563034 l 0.291394,2.489201 0.928511,-2.489201 h 0.617362 z"
         style="font-style:italic;font-family:'Fira Sans Condensed';-inkscape-font-specification:'Fira Sans Condensed,  Italic'"
         id="path11957" /><path
         d="M 59.938299,13.257542 H 58.77766 l -0.162983,1.131006 h 1.017411 l -0.04939,0.360539 h -1.017411 l -0.167922,1.190272 h 1.254478 l -0.05927,0.360539 h -1.6891 l 0.479072,-3.402895 h 1.659467 z"
         style="font-style:italic;font-family:'Fira Sans Condensed';-inkscape-font-specification:'Fira Sans Condensed,  Italic'"
         id="path11959" /></g><path
       style="fill:none;stroke:#000000;stroke-width:0.5;stroke-linecap:butt;stroke-linejoin:miter;stroke-dasharray:none;stroke-opacity:1"
       d="M 61.637862,27.328738 V 39.430782"
       id="path4869" /><path
       style="fill:none;stroke:#000000;stroke-width:0.5;stroke-linecap:round;stroke-linejoin:round;stroke-dasharray:none;stroke-opacity:1"
       d="m 68.591249,25.141401 1.635086,-2.067263 1.666472,2.047066"
       id="path4921" /><path
       style="fill:none;stroke:#000000;stroke-width:0.5;stroke-linecap:round;stroke-linejoin:round;stroke-dasharray:none;stroke-opacity:1"
       d="m 68.699737,41.734847 1.541189,1.907964 1.64257,-1.893257"
       id="path4923"
       sodipodi:nodetypes="ccc" /><g
       aria-label="P1"
       id="text5028"
       style="font-size:4.93889px;line-height:1.25;stroke-width:0.264583"><path
         d="m 16.728492,51.251001 q 0.508706,0 0.780344,0.227189 0.276578,0.227189 0.276578,0.66675 0,0.330906 -0.138289,0.612423 -0.13335,0.281516 -0.439561,0.459316 -0.301272,0.1778 -0.780344,0.1778 h -0.345723 l -0.1778,1.259417 h -0.4445 l 0.479072,-3.402895 z m -0.281517,1.787878 q 0.484011,0 0.676628,-0.256822 0.197556,-0.256822 0.197556,-0.642056 0,-0.286455 -0.162984,-0.409928 -0.158044,-0.123472 -0.479072,-0.123472 h -0.345722 l -0.202495,1.432278 z"
         style="font-style:italic;font-family:'Fira Sans Condensed';-inkscape-font-specification:'Fira Sans Condensed,  Italic'"
         id="path11967" /><path
         d="m 18.950991,54.653896 h -0.434622 l 0.395111,-2.790473 -0.735895,0.454378 -0.158044,-0.330905 1.012472,-0.637117 h 0.385234 z"
         style="font-style:italic;font-family:'Fira Sans Condensed';-inkscape-font-specification:'Fira Sans Condensed,  Italic'"
         id="path11969" /></g><g
       aria-label="P2"
       id="text5032"
       style="font-size:4.93889px;line-height:1.25;stroke-width:0.264583"><path
         d="m 60.929134,51.251001 q 0.508706,0 0.780345,0.227189 0.276578,0.227189 0.276578,0.66675 0,0.330906 -0.138289,0.612423 -0.13335,0.281516 -0.439561,0.459316 -0.301273,0.1778 -0.780345,0.1778 H 60.28214 l -0.1778,1.259417 h -0.4445 l 0.479072,-3.402895 z m -0.281516,1.787878 q 0.484011,0 0.676628,-0.256822 0.197555,-0.256822 0.197555,-0.642056 0,-0.286455 -0.162983,-0.409928 -0.158045,-0.123472 -0.479072,-0.123472 h -0.345723 l -0.202494,1.432278 z"
         style="font-style:italic;font-family:'Fira Sans Condensed';-inkscape-font-specification:'Fira Sans Condensed,  Italic'"
         id="path11962" /><path
         d="m 63.087428,51.30039 q 0.385234,0 0.607484,0.227189 0.22225,0.22225 0.22225,0.57785 0,0.276578 -0.128411,0.543278 -0.123473,0.261761 -0.454378,0.642056 -0.330906,0.375355 -0.992717,1.007533 l 1.3335,-0.0099 -0.108656,0.365478 h -1.753305 l 0.04939,-0.3556 q 0.745773,-0.760589 1.061862,-1.121128 0.321028,-0.365478 0.429683,-0.582789 0.113595,-0.22225 0.113595,-0.469194 0,-0.227189 -0.108656,-0.345723 -0.108655,-0.118533 -0.301272,-0.118533 -0.187678,0 -0.340784,0.0889 -0.153105,0.08396 -0.321027,0.271639 l -0.256823,-0.237067 q 0.217311,-0.246944 0.449439,-0.365478 0.232128,-0.118533 0.498828,-0.118533 z"
         style="font-style:italic;font-family:'Fira Sans Condensed';-inkscape-font-specification:'Fira Sans Condensed,  Italic'"
         id="path11964" /></g><path
       style="fill:none;stroke:#000000;stroke-width:0.5;stroke-linecap:butt;stroke-linejoin:miter;stroke-dasharray:none;stroke-opacity:1"
       d="M 57.137863,66.87976 H 22.237861"
       id="path5034" /><g
       aria-label="TRIG IN"
       id="text5038"
       style="font-size:4.93889px;line-height:1.25;stroke-width:0.264583"><path
         d="m 22.739227,86.593941 h -0.834672 l -0.424745,3.017662 h -0.4445 l 0.424745,-3.017662 h -0.859367 l 0.05433,-0.385233 h 2.187928 z"
         style="font-style:italic;font-family:'Fira Sans Condensed';-inkscape-font-specification:'Fira Sans Condensed,  Italic'"
         id="path11972" /><path
         d="m 25.144463,87.028563 q 0,0.340784 -0.192616,0.627239 -0.187678,0.286456 -0.572911,0.424745 l 0.597605,1.531056 H 24.497469 L 23.95913,88.164508 h -0.479072 l -0.202495,1.447095 h -0.4445 l 0.479072,-3.402895 h 0.785284 q 0.518583,0 0.780344,0.212372 0.2667,0.212372 0.2667,0.607483 z m -1.234722,0.785284 q 0.414867,0 0.592667,-0.227189 0.182739,-0.227189 0.182739,-0.543278 0,-0.251883 -0.143228,-0.365478 -0.143228,-0.113594 -0.459317,-0.113594 h -0.375356 l -0.1778,1.249539 z"
         style="font-style:italic;font-family:'Fira Sans Condensed';-inkscape-font-specification:'Fira Sans Condensed,  Italic'"
         id="path11974" /><path
         d="m 25.95444,89.611603 h -0.4445 l 0.479073,-3.402895 h 0.4445 z"
         style="font-style:italic;font-family:'Fira Sans Condensed';-inkscape-font-specification:'Fira Sans Condensed,  Italic'"
         id="path11976" /><path
         d="m 28.453519,86.15438 q 0.286455,0 0.498827,0.09878 0.212373,0.09384 0.390173,0.281516 l -0.281517,0.242006 q -0.148167,-0.138289 -0.286456,-0.197556 -0.138289,-0.05927 -0.325966,-0.05927 -0.390173,0 -0.651934,0.291394 -0.256822,0.291395 -0.380294,0.735895 -0.123473,0.4445 -0.123473,0.913694 0,0.434623 0.162984,0.637117 0.162983,0.202495 0.484011,0.202495 0.31115,0 0.592667,-0.162984 l 0.148166,-1.042105 h -0.518583 l 0.0049,-0.365478 h 1.002595 l -0.22225,1.619956 q -0.503767,0.321027 -1.051984,0.321027 -0.508706,0 -0.790222,-0.321027 -0.276578,-0.321028 -0.276578,-0.938389 0,-0.548217 0.1778,-1.066801 0.182739,-0.518583 0.548217,-0.854428 0.365477,-0.335844 0.898878,-0.335844 z"
         style="font-style:italic;font-family:'Fira Sans Condensed';-inkscape-font-specification:'Fira Sans Condensed,  Italic'"
         id="path11978" /><path
         d="m 31.209416,89.611603 h -0.4445 l 0.479072,-3.402895 h 0.4445 z"
         style="font-style:italic;font-family:'Fira Sans Condensed';-inkscape-font-specification:'Fira Sans Condensed,  Italic'"
         id="path11980" /><path
         d="m 34.21226,89.611603 h -0.582789 l -0.8001,-3.012723 q -0.01482,0.6223 -0.128411,1.427339 l -0.217311,1.585384 h -0.414867 l 0.479072,-3.402895 h 0.582789 l 0.805039,3.017661 q 0.01482,-0.607483 0.08396,-1.150761 l 0.256823,-1.8669 h 0.414867 z"
         style="font-style:italic;font-family:'Fira Sans Condensed';-inkscape-font-specification:'Fira Sans Condensed,  Italic'"
         id="path11982" /></g><g
       aria-label="CV IN"
       id="text5042"
       style="font-size:4.93889px;line-height:1.25;stroke-width:0.264583"><path
         d="m 24.193727,118.66782 q 0.261761,0 0.459317,0.0889 0.197555,0.084 0.360539,0.25682 l -0.256823,0.24694 q -0.138289,-0.11853 -0.2667,-0.17286 -0.128411,-0.0543 -0.286455,-0.0543 -0.385234,0 -0.637117,0.2914 -0.246945,0.28645 -0.360539,0.71614 -0.108656,0.42968 -0.108656,0.86924 0,0.45932 0.167923,0.67663 0.172861,0.21731 0.469194,0.21731 0.197556,0 0.345722,-0.0691 0.153106,-0.0741 0.345723,-0.21238 l 0.187678,0.29634 q -0.414867,0.36547 -0.923573,0.36547 -0.484011,0 -0.770467,-0.34078 -0.286455,-0.34078 -0.286455,-0.96308 0,-0.52352 0.167922,-1.03223 0.167922,-0.50871 0.518583,-0.84455 0.350662,-0.33584 0.874184,-0.33584 z"
         style="font-style:italic;font-family:'Fira Sans Condensed';-inkscape-font-specification:'Fira Sans Condensed,  Italic'"
         id="path11985" /><path
         d="m 26.179163,122.12504 h -0.503767 l -0.484011,-3.4029 h 0.459317 l 0.335845,2.91889 1.1557,-2.91889 h 0.464255 z"
         style="font-style:italic;font-family:'Fira Sans Condensed';-inkscape-font-specification:'Fira Sans Condensed,  Italic'"
         id="path11987" /><path
         d="m 29.177066,122.12504 h -0.4445 l 0.479072,-3.4029 h 0.4445 z"
         style="font-style:italic;font-family:'Fira Sans Condensed';-inkscape-font-specification:'Fira Sans Condensed,  Italic'"
         id="path11989" /><path
         d="m 32.179911,122.12504 h -0.582789 l -0.800101,-3.01272 q -0.01482,0.6223 -0.128411,1.42733 l -0.217311,1.58539 h -0.414867 l 0.479073,-3.4029 h 0.582789 l 0.805039,3.01766 q 0.01482,-0.60748 0.08396,-1.15076 l 0.256822,-1.8669 h 0.414867 z"
         style="font-style:italic;font-family:'Fira Sans Condensed';-inkscape-font-specification:'Fira Sans Condensed,  Italic'"
         id="path11991" /></g><path
       style="fill:none;stroke:#000000;stroke-width:0.264583px;stroke-linecap:butt;stroke-linejoin:miter;stroke-opacity:1"
       d="m 16.487863,98.37976 h 3.199999"
       id="path5044" /><path
       style="fill:none;stroke:#000000;stroke-width:0.264583px;stroke-linecap:butt;stroke-linejoin:miter;stroke-opacity:1"
       d="m 25.987862,98.37976 h 3.200003"
       id="path5046" /><path
       style="fill:none;stroke:#000000;stroke-width:0.264583px;stroke-linecap:butt;stroke-linejoin:miter;stroke-opacity:1"
       d="m 35.487864,98.37976 h 3.2"
       id="path5048" /><path
       style="fill:none;stroke:#000000;stroke-width:0.264583px;stroke-linecap:butt;stroke-linejoin:miter;stroke-opacity:1"
       d="m 16.487863,110.37976 h 3.199999"
       id="path5050" /><path
       style="fill:none;stroke:#000000;stroke-width:0.264583px;stroke-linecap:butt;stroke-linejoin:miter;stroke-opacity:1"
       d="m 25.987862,110.37976 h 3.200003"
       id="path5052" /><path
       style="fill:none;stroke:#000000;stroke-width:0.264583px;stroke-linecap:butt;stroke-linejoin:miter;stroke-opacity:1"
       d="m 35.487864,110.37976 h 3.2"
       id="path5054" /></g><g
     inkscape:groupmode="layer"
     id="layer3"
     inkscape:label="Layer 3"
     style="display:none"><circle
       cx="56.837864"
       cy="-98.379761"
       r="3.1500001"
       vector-effect="non-scaling-stroke"
       id="circle6755"
       style="display:inline;opacity:1;fill:#ffffff;fill-rule:evenodd;stroke:#000000;stroke-width:0.282222;stroke-linecap:round;stroke-linejoin:round;stroke-miterlimit:4;stroke-dasharray:none;stroke-opacity:1"
       transform="scale(1,-1)" /><circle
       cx="66.33786"
       cy="-98.379761"
       r="3.1500001"
       vector-effect="non-scaling-stroke"
       id="circle6757"
       style="display:inline;opacity:1;fill:#ffffff;fill-rule:evenodd;stroke:#000000;stroke-width:0.282222;stroke-linecap:round;stroke-linejoin:round;stroke-miterlimit:4;stroke-dasharray:none;stroke-opacity:1"
       transform="scale(1,-1)" /><circle
       cx="56.837864"
       cy="-110.37976"
       r="3.1500001"
       vector-effect="non-scaling-stroke"
       id="circle6759"
       style="display:inline;opacity:1;fill:#ffffff;fill-rule:evenodd;stroke:#000000;stroke-width:0.282222;stroke-linecap:round;stroke-linejoin:round;stroke-miterlimit:4;stroke-dasharray:none;stroke-opacity:1"
       transform="scale(1,-1)" /><circle
       cx="66.33786"
       cy="-110.37976"
       r="3.1500001"
       vector-effect="non-scaling-stroke"
       id="circle6761"
       style="display:inline;opacity:1;fill:#ffffff;fill-rule:evenodd;stroke:#000000;stroke-width:0.282222;stroke-linecap:round;stroke-linejoin:round;stroke-miterlimit:4;stroke-dasharray:none;stroke-opacity:1"
       transform="scale(1,-1)" /></g></svg>
