<?xml version="1.0" encoding="UTF-8" standalone="no"?>
<svg
   width="80mm"
   height="140mm"
   version="1.1"
   viewBox="0 0 80 140"
   id="svg2"
   inkscape:version="1.2.1 (9c6d41e410, 2022-07-14)"
   sodipodi:docname="O_C_blank_spacer2.svg"
   xml:space="preserve"
   xmlns:inkscape="http://www.inkscape.org/namespaces/inkscape"
   xmlns:sodipodi="http://sodipodi.sourceforge.net/DTD/sodipodi-0.dtd"
   xmlns="http://www.w3.org/2000/svg"
   xmlns:svg="http://www.w3.org/2000/svg"
   xmlns:rdf="http://www.w3.org/1999/02/22-rdf-syntax-ns#"
   xmlns:cc="http://creativecommons.org/ns#"
   xmlns:dc="http://purl.org/dc/elements/1.1/"><metadata
     id="metadata68"><rdf:RDF><cc:Work
         rdf:about=""><dc:format>image/svg+xml</dc:format><dc:type
           rdf:resource="http://purl.org/dc/dcmitype/StillImage" /></cc:Work></rdf:RDF></metadata><sodipodi:namedview
     pagecolor="#ffffff"
     bordercolor="#666666"
     borderopacity="1"
     objecttolerance="10"
     gridtolerance="10"
     guidetolerance="10"
     inkscape:pageopacity="0"
     inkscape:pageshadow="2"
     inkscape:window-width="3840"
     inkscape:window-height="2109"
     id="namedview66"
     showgrid="false"
     width="120mm"
     inkscape:zoom="3.1349907"
     inkscape:cx="109.72919"
     inkscape:cy="237.16179"
     inkscape:window-x="0"
     inkscape:window-y="24"
     inkscape:window-maximized="0"
     inkscape:current-layer="layer2"
     inkscape:showpageshadow="0"
     inkscape:pagecheckerboard="0"
     inkscape:deskcolor="#d1d1d1"
     inkscape:document-units="mm" /><desc
     id="desc4">Created with the Front Panel Designer by the export of the file 'O_C_blank_spacer.fpd'.</desc><defs
     id="defs6"><pattern
       id="revside-fill"
       x="1"
       y="1"
       width="1.5"
       height="1.5"
       patternUnits="userSpaceOnUse"><line
         x1="0"
         y1="0"
         x2="1"
         y2="1"
         style="stroke-width:0.2; stroke:black; stroke-dasharray:none;"
         id="line9" /><line
         x1="0"
         y1="1"
         x2="1"
         y2="0"
         style="stroke-width:0.2; stroke:black; stroke-dasharray:none;"
         id="line11" /></pattern><pattern
       id="revside-fill-e0e0e0"
       x="1"
       y="1"
       width="1.5"
       height="1.5"
       patternUnits="userSpaceOnUse"><line
         x1="0"
         y1="0"
         x2="1.5"
         y2="1.5"
         style="stroke-width:0.2; stroke:#e0e0e0; stroke-dasharray:none;"
         id="line14" /><line
         x1="0"
         y1="1.5"
         x2="1.5"
         y2="0"
         style="stroke-width:0.2; stroke:#e0e0e0; stroke-dasharray:none;"
         id="line16" /></pattern></defs><g
     inkscape:groupmode="layer"
     id="layer2"
     inkscape:label="Layer 2"
     style="display:inline;opacity:1"><path
       id="rect6617"
       style="fill:#3e6541;fill-opacity:1;stroke:none;stroke-width:0.499999;stroke-linecap:round;stroke-linejoin:round;stroke-dasharray:none"
       d="m 42.112377,22.744413 c -0.78684,0 -1.42058,0.63323 -1.42058,1.420068 v 32.269355 c 0,0.78684 0.63374,1.42007 1.42058,1.42007 h 18.26142 c 0.78684,0 1.42058,-0.63323 1.42058,-1.42007 V 24.164481 c 0,-0.786838 -0.63374,-1.420068 -1.42058,-1.420068 z m 4.58628,2.127519 h 0.55811 l 0.48886,3.402893 h -0.46406 l -0.10387,-0.864547 h -1.12086 l -0.34571,0.864547 h -0.45941 z m 8.6062,0 h 0.88883 c 0.29963,0 0.53656,0.0657 0.71107,0.197404 0.1778,0.128411 0.26665,0.313095 0.26665,0.553454 0,0.230482 -0.0689,0.417883 -0.20722,0.562757 -0.135,0.144874 -0.31593,0.242066 -0.54312,0.291455 0.19426,0.0428 0.34745,0.116845 0.4594,0.222208 0.11524,0.105363 0.1726,0.259914 0.1726,0.464055 0,0.325966 -0.10877,0.593034 -0.32608,0.800468 -0.21402,0.207433 -0.55972,0.311092 -1.03714,0.311092 h -0.86403 z m 0.3948,0.355534 -0.15296,1.091406 h 0.44959 c 0.22389,0 0.39972,-0.05736 0.52813,-0.1726 0.12841,-0.11524 0.19275,-0.285116 0.19275,-0.509012 0,-0.273285 -0.17259,-0.409794 -0.51831,-0.409794 z m -8.77879,0.01964 -0.72088,1.80299 h 0.93327 z m 8.57674,1.422652 -0.17828,1.244368 h 0.41031 c 0.32267,0 0.54667,-0.06758 0.67179,-0.202571 0.12841,-0.138289 0.19224,-0.322457 0.19224,-0.552938 0,-0.174507 -0.0528,-0.299442 -0.15813,-0.375171 -0.10207,-0.07573 -0.25016,-0.113688 -0.44442,-0.113688 z m -8.99893,4.651912 a 3.1500001,3.1500001 0 0 1 3.15019,3.149679 3.1500001,3.1500001 0 0 1 -3.15019,3.150195 3.1500001,3.1500001 0 0 1 -3.1502,-3.150195 3.1500001,3.1500001 0 0 1 3.1502,-3.149679 z m 9.50019,0 a 3.1500001,3.1500001 0 0 1 3.14968,3.149679 3.1500001,3.1500001 0 0 1 -3.14968,3.150195 3.1500001,3.1500001 0 0 1 -3.15019,-3.150195 3.1500001,3.1500001 0 0 1 3.15019,-3.149679 z m -9.50019,11.999789 a 3.1500001,3.1500001 0 0 1 3.15019,3.1502 3.1500001,3.1500001 0 0 1 -3.15019,3.14967 3.1500001,3.1500001 0 0 1 -3.1502,-3.14967 3.1500001,3.1500001 0 0 1 3.1502,-3.1502 z m 9.50019,0 a 3.1500001,3.1500001 0 0 1 3.14968,3.1502 3.1500001,3.1500001 0 0 1 -3.14968,3.14967 3.1500001,3.1500001 0 0 1 -3.15019,-3.14967 3.1500001,3.1500001 0 0 1 3.15019,-3.1502 z m -9.07283,8.66614 c 0.17451,0 0.3277,0.0296 0.4594,0.0889 0.13171,0.056 0.25153,0.14159 0.36019,0.25683 l -0.25683,0.24702 c -0.0922,-0.079 -0.18105,-0.1369 -0.26665,-0.17312 -0.0856,-0.0362 -0.18093,-0.0543 -0.28629,-0.0543 -0.25682,0 -0.46925,0.0972 -0.63717,0.29146 -0.16463,0.19097 -0.28497,0.42978 -0.3607,0.71623 -0.0724,0.28646 -0.10852,0.57616 -0.10852,0.8692 0,0.30621 0.056,0.53157 0.16794,0.67644 0.11525,0.14488 0.27167,0.21756 0.46923,0.21756 0.1317,0 0.24693,-0.0232 0.34571,-0.0692 0.10207,-0.0494 0.21731,-0.12019 0.34572,-0.21239 l 0.18758,0.29663 c -0.27657,0.24365 -0.58432,0.36535 -0.92346,0.36535 -0.32267,0 -0.57952,-0.11388 -0.77049,-0.34107 -0.19097,-0.22715 -0.28629,-0.54786 -0.28629,-0.96273 0,-0.34901 0.056,-0.69336 0.16795,-1.03249 0.11195,-0.33914 0.28454,-0.62053 0.51831,-0.84439 0.23378,-0.2239 0.52536,-0.3359 0.87437,-0.3359 z m 8.662,0.11369 h 0.69143 c 0.4017,0 0.72102,0.0907 0.95809,0.27181 0.24035,0.1811 0.3607,0.49343 0.3607,0.93793 0,0.4017 -0.0592,0.76732 -0.17777,1.09658 -0.11524,0.32925 -0.30316,0.59445 -0.56327,0.7953 -0.26012,0.20084 -0.59101,0.30127 -0.99271,0.30127 h -0.75551 z m 0.39533,0.3607 -0.38034,2.68666 h 0.34055 c 0.28645,0 0.52015,-0.0888 0.70125,-0.26665 0.18109,-0.1811 0.30977,-0.41021 0.3855,-0.68678 0.079,-0.27987 0.11834,-0.57604 0.11834,-0.88884 0,-0.32597 -0.074,-0.54809 -0.22221,-0.66663 -0.14487,-0.11853 -0.34572,-0.17776 -0.60254,-0.17776 z" /></g><g
     inkscape:groupmode="layer"
     id="layer3"
     inkscape:label="Layer 3"
     style="display:none"><circle
       cx="56.837864"
       cy="-98.379761"
       r="3.1500001"
       vector-effect="non-scaling-stroke"
       id="circle6755"
       style="display:inline;opacity:1;fill:#ffffff;fill-rule:evenodd;stroke:#000000;stroke-width:0.282222;stroke-linecap:round;stroke-linejoin:round;stroke-miterlimit:4;stroke-dasharray:none;stroke-opacity:1"
       transform="scale(1,-1)" /><circle
       cx="66.33786"
       cy="-98.379761"
       r="3.1500001"
       vector-effect="non-scaling-stroke"
       id="circle6757"
       style="display:inline;opacity:1;fill:#ffffff;fill-rule:evenodd;stroke:#000000;stroke-width:0.282222;stroke-linecap:round;stroke-linejoin:round;stroke-miterlimit:4;stroke-dasharray:none;stroke-opacity:1"
       transform="scale(1,-1)" /><circle
       cx="56.837864"
       cy="-110.37976"
       r="3.1500001"
       vector-effect="non-scaling-stroke"
       id="circle6759"
       style="display:inline;opacity:1;fill:#ffffff;fill-rule:evenodd;stroke:#000000;stroke-width:0.282222;stroke-linecap:round;stroke-linejoin:round;stroke-miterlimit:4;stroke-dasharray:none;stroke-opacity:1"
       transform="scale(1,-1)" /><circle
       cx="66.33786"
       cy="-110.37976"
       r="3.1500001"
       vector-effect="non-scaling-stroke"
       id="circle6761"
       style="display:inline;opacity:1;fill:#ffffff;fill-rule:evenodd;stroke:#000000;stroke-width:0.282222;stroke-linecap:round;stroke-linejoin:round;stroke-miterlimit:4;stroke-dasharray:none;stroke-opacity:1"
       transform="scale(1,-1)" /></g></svg>
