<?xml version="1.0" encoding="UTF-8" standalone="no"?>
<!-- Created with Inkscape (http://www.inkscape.org/) -->

<svg
   version="1.1"
   id="svg2"
   width="152.31467"
   height="485.66934"
   viewBox="0 0 152.31467 485.66934"
   sodipodi:docname="faceplate.svg"
   inkscape:version="1.2.1 (9c6d41e410, 2022-07-14)"
   xml:space="preserve"
   xmlns:inkscape="http://www.inkscape.org/namespaces/inkscape"
   xmlns:sodipodi="http://sodipodi.sourceforge.net/DTD/sodipodi-0.dtd"
   xmlns="http://www.w3.org/2000/svg"
   xmlns:svg="http://www.w3.org/2000/svg"><defs
     id="defs6"><linearGradient
       x1="0"
       y1="0"
       x2="1"
       y2="0"
       gradientUnits="userSpaceOnUse"
       gradientTransform="matrix(114.23622,0,0,-114.23622,0,182.12599)"
       spreadMethod="pad"
       id="linearGradient28"><stop
         style="stop-opacity:1;stop-color:#cccccc"
         offset="0"
         id="stop24" /><stop
         style="stop-opacity:1;stop-color:#999999"
         offset="1"
         id="stop26" /></linearGradient><clipPath
       clipPathUnits="userSpaceOnUse"
       id="clipPath38"><path
         d="M 0,364.252 H 114.236 V 0 H 0 Z"
         id="path36" /></clipPath><clipPath
       clipPathUnits="userSpaceOnUse"
       id="clipPath46"><path
         d="M -97.3029,337.475 H 108.617 V 30.7547 H -97.3029 Z"
         id="path44" /></clipPath><clipPath
       clipPathUnits="userSpaceOnUse"
       id="clipPath50"><path
         d="m -97.303,30.755 h 205.92 v 306.72 h -205.92 z"
         id="path48" /></clipPath><clipPath
       clipPathUnits="userSpaceOnUse"
       id="clipPath72"><path
         d="M 0,364.252 H 114.236 V 0 H 0 Z"
         id="path70" /></clipPath><clipPath
       clipPathUnits="userSpaceOnUse"
       id="clipPath96"><path
         d="M 0,364.252 H 114.236 V 0 H 0 Z"
         id="path94" /></clipPath><clipPath
       clipPathUnits="userSpaceOnUse"
       id="clipPath166"><path
         d="M 0,364.252 H 114.236 V 0 H 0 Z"
         id="path164" /></clipPath><clipPath
       clipPathUnits="userSpaceOnUse"
       id="clipPath738"><path
         d="M 0,364.252 H 114.236 V 0 H 0 Z"
         id="path736" /></clipPath><clipPath
       clipPathUnits="userSpaceOnUse"
       id="clipPath746"><path
         d="M 15.4649,329.428 H 40.9767 V 303.916 H 15.4649 Z"
         id="path744" /></clipPath><clipPath
       clipPathUnits="userSpaceOnUse"
       id="clipPath762"><path
         d="M 73.0767,329.343 H 98.5885 V 303.832 H 73.0767 Z"
         id="path760" /></clipPath><clipPath
       clipPathUnits="userSpaceOnUse"
       id="clipPath778"><path
         d="M 15.4652,239.641 H 40.977 V 214.129 H 15.4652 Z"
         id="path776" /></clipPath><clipPath
       clipPathUnits="userSpaceOnUse"
       id="clipPath794"><path
         d="M 73.0767,239.641 H 98.5885 V 214.129 H 73.0767 Z"
         id="path792" /></clipPath><clipPath
       clipPathUnits="userSpaceOnUse"
       id="clipPath810"><path
         d="M 15.4652,99.0002 H 40.977 V 73.4884 H 15.4652 Z"
         id="path808" /></clipPath><clipPath
       clipPathUnits="userSpaceOnUse"
       id="clipPath826"><path
         d="M 73.0767,98.915 H 98.5885 V 73.4032 H 73.0767 Z"
         id="path824" /></clipPath><clipPath
       clipPathUnits="userSpaceOnUse"
       id="clipPath842"><path
         d="M 15.4652,63.0145 H 40.977 V 37.5027 H 15.4652 Z"
         id="path840" /></clipPath><clipPath
       clipPathUnits="userSpaceOnUse"
       id="clipPath858"><path
         d="M 73.0767,62.9293 H 98.5885 V 37.4174 H 73.0767 Z"
         id="path856" /></clipPath><clipPath
       clipPathUnits="userSpaceOnUse"
       id="clipPath874"><path
         d="m 10.2208,291.402 h 36 v -36 h -36 z"
         id="path872" /></clipPath><clipPath
       clipPathUnits="userSpaceOnUse"
       id="clipPath890"><path
         d="m 67.8326,291.402 h 36.0004 v -36 H 67.8326 Z"
         id="path888" /></clipPath><clipPath
       clipPathUnits="userSpaceOnUse"
       id="clipPath906"><path
         d="m 67.8326,197.759 h 36.0004 v -36 H 67.8326 Z"
         id="path904" /></clipPath><clipPath
       clipPathUnits="userSpaceOnUse"
       id="clipPath922"><path
         d="m 10.2211,198.107 h 36 v -36 h -36 z"
         id="path920" /></clipPath><clipPath
       clipPathUnits="userSpaceOnUse"
       id="clipPath938"><path
         d="M 70.5255,144.666 H 101.14 V 114.052 H 70.5255 Z"
         id="path936" /></clipPath><clipPath
       clipPathUnits="userSpaceOnUse"
       id="clipPath954"><path
         d="M 12.9548,144.666 H 43.569 V 114.052 H 12.9548 Z"
         id="path952" /></clipPath><clipPath
       clipPathUnits="userSpaceOnUse"
       id="clipPath11197"><g
         id="g11201"
         transform="translate(-57.1672,-305.3335)"><path
           d="M 0,364.252 H 114.236 V 0 H 0 Z"
           id="path11199" /></g></clipPath><clipPath
       clipPathUnits="userSpaceOnUse"
       id="clipPath11299"><g
         id="g11303"
         transform="translate(-63.2492,-308.5157)"><path
           d="M 0,364.252 H 114.236 V 0 H 0 Z"
           id="path11301" /></g></clipPath><clipPath
       clipPathUnits="userSpaceOnUse"
       id="clipPath11203"><g
         id="g11207"
         transform="translate(-57.1179,-334.5225)"><path
           d="M 0,364.252 H 114.236 V 0 H 0 Z"
           id="path11205" /></g></clipPath></defs><sodipodi:namedview
     id="namedview4"
     pagecolor="#ffffff"
     bordercolor="#999999"
     borderopacity="1"
     inkscape:showpageshadow="0"
     inkscape:pageopacity="0"
     inkscape:pagecheckerboard="0"
     inkscape:deskcolor="#d1d1d1"
     showgrid="false"
     inkscape:zoom="2.9905065"
     inkscape:cx="-83.263487"
     inkscape:cy="254.63914"
     inkscape:window-width="3840"
     inkscape:window-height="2109"
     inkscape:window-x="0"
     inkscape:window-y="24"
     inkscape:window-maximized="1"
     inkscape:current-layer="text2913"><inkscape:page
       x="0"
       y="0"
       id="page8"
       width="152.31467"
       height="485.66934" /></sodipodi:namedview><g
     id="g10"
     inkscape:groupmode="layer"
     inkscape:label="Page 1"
     transform="matrix(1.3333333,0,0,-1.3333333,0,485.66933)"><rect
       style="fill:none;fill-opacity:1;stroke:#000000;stroke-width:0.75;stroke-linecap:round;stroke-linejoin:round;stroke-dasharray:none;stroke-opacity:1"
       id="rect4543"
       width="114.23579"
       height="364.25162"
       x="0.00020000001"
       y="-364.25162"
       transform="scale(1,-1)"
       rx="0" /><g
       id="g66"><g
         id="g68"
         clip-path="url(#clipPath72)"><g
           id="g74"
           transform="translate(25.2282,351.2124)"><path
             d="m 0,0 h -7.937 c -2.494,0 -4.535,2.041 -4.535,4.536 0,2.494 2.041,4.535 4.535,4.535 H 0 C 2.495,9.071 4.536,7.03 4.536,4.536 4.536,2.041 2.495,0 0,0"
             style="fill:#005928;fill-opacity:1;fill-rule:nonzero;stroke:none"
             id="path76" /></g><g
           id="g78"
           transform="translate(25.2282,3.9688)"><path
             d="m 0,0 h -7.937 c -2.494,0 -4.535,2.041 -4.535,4.535 0,2.494 2.041,4.535 4.535,4.535 H 0 C 2.495,9.07 4.536,7.029 4.536,4.535 4.536,2.041 2.495,0 0,0"
             style="fill:#005928;fill-opacity:1;fill-rule:nonzero;stroke:none"
             id="path80" /></g><g
           id="g82"
           transform="translate(96.9445,351.2124)"><path
             d="m 0,0 h -7.937 c -2.494,0 -4.535,2.041 -4.535,4.536 0,2.494 2.041,4.535 4.535,4.535 H 0 C 2.495,9.071 4.536,7.03 4.536,4.536 4.536,2.041 2.495,0 0,0"
             style="fill:#005928;fill-opacity:1;fill-rule:nonzero;stroke:none"
             id="path84" /></g><g
           id="g86"
           transform="translate(96.9445,3.9688)"><path
             d="m 0,0 h -7.937 c -2.494,0 -4.535,2.041 -4.535,4.535 0,2.494 2.041,4.535 4.535,4.535 H 0 C 2.495,9.07 4.536,7.029 4.536,4.535 4.536,2.041 2.495,0 0,0"
             style="fill:#005928;fill-opacity:1;fill-rule:nonzero;stroke:none"
             id="path88" /></g></g></g><g
       aria-label="Ray Wilson Dual VCA"
       transform="matrix(1,0,0,-1,35.5132,352.9136)"
       id="text158"
       style="font-weight:600;font-size:9px;font-family:'Open Sans Semibold';-inkscape-font-specification:OpenSans-Semibold"><g
         aria-label="Jan Ypma
Quad Attenuverter"
         id="text2913"><path
           d="m 1.3089051,0.72087757 q -0.243,0 -0.432,-0.027 -0.189,-0.027 -0.324,-0.072 v -0.963 q 0.144,0.036 0.306,0.063 0.162,0.027 0.342,0.027 0.234,0 0.423,-0.09 0.198,-0.09 0.315,-0.333 0.117,-0.243 0.117,-0.69299997 v -6.156 h 1.152 v 6.129 q 0,1.12499997 -0.531,1.61999997 -0.522,0.495 -1.368,0.495 z"
           style="text-align:center;text-anchor:middle"
           id="path13420" /><path
           d="m 6.6909052,-6.0651224 q 0.945,0 1.431,0.414 0.495,0.414 0.495,1.278 v 3.276 h -0.801 l -0.225,-0.675 h -0.036 q -0.315,0.396 -0.666,0.585 -0.351,0.18 -0.954,0.18 -0.657,0 -1.089,-0.369 -0.432,-0.369 -0.432,-1.143 0,-0.756 0.549,-1.134 0.558,-0.378 1.683,-0.423 l 0.846,-0.027 v -0.243 q 0,-0.459 -0.225,-0.657 -0.225,-0.207 -0.63,-0.207 -0.369,0 -0.711,0.108 -0.333,0.108 -0.666,0.252 l -0.36,-0.792 q 0.36,-0.189 0.819,-0.306 0.468,-0.117 0.972,-0.117 z m 0.207,2.682 q -0.747,0.027 -1.035,0.261 -0.288,0.225 -0.288,0.612 0,0.351 0.198,0.504 0.207,0.144 0.54,0.144 0.495,0 0.837,-0.279 0.342,-0.288 0.342,-0.846 v -0.414 z"
           style="text-align:center;text-anchor:middle"
           id="path13422" /><path
           d="m 12.648899,-6.0651224 q 0.819,0 1.278,0.423 0.468,0.423 0.468,1.368 v 3.177 h -1.134 v -2.952 q 0,-1.098 -0.9,-1.098 -0.684,0 -0.936,0.432 -0.252,0.432 -0.252,1.233 v 2.385 h -1.134 v -4.878 h 0.873 l 0.162,0.639 h 0.063 q 0.234,-0.378 0.639,-0.549 0.414,-0.18 0.873,-0.18 z"
           style="text-align:center;text-anchor:middle"
           id="path13424" /><path
           d="m 20.136903,-4.6881224 1.467,-2.835 h 1.242 l -2.133,3.924 v 2.502 h -1.152 v -2.457 l -2.133,-3.969 h 1.251 z"
           style="text-align:center;text-anchor:middle"
           id="path13426" /><path
           d="m 25.869891,-6.0651224 q 0.855,0 1.377,0.639 0.522,0.63 0.522,1.881 0,1.251 -0.54,1.899 -0.531,0.639 -1.386,0.639 -0.54,0 -0.873,-0.198 -0.333,-0.198 -0.531,-0.459 h -0.072 q 0.027,0.171 0.045,0.378 0.027,0.198 0.027,0.36899997 V 1.0628776 h -1.134 v -7.038 h 0.918 l 0.162,0.648 h 0.054 q 0.198,-0.306 0.54,-0.522 0.342,-0.216 0.891,-0.216 z m -0.324,0.918 q -0.603,0 -0.855,0.36 -0.243,0.36 -0.252,1.089 v 0.144 q 0,0.783 0.234,1.206 0.243,0.414 0.891,0.414 0.531,0 0.783,-0.432 0.261,-0.441 0.261,-1.197 0,-0.756 -0.261,-1.17 -0.252,-0.414 -0.801,-0.414 z"
           style="text-align:center;text-anchor:middle"
           id="path13428" /><path
           d="m 34.527886,-6.0651224 q 0.828,0 1.242,0.423 0.423,0.423 0.423,1.368 v 3.177 h -1.134 v -2.961 q 0,-1.089 -0.828,-1.089 -0.594,0 -0.846,0.387 -0.252,0.387 -0.252,1.125 v 2.538 h -1.134 v -2.961 q 0,-1.089 -0.837,-1.089 -0.621,0 -0.855,0.432 -0.234,0.432 -0.234,1.233 v 2.385 h -1.134 v -4.878 h 0.873 l 0.162,0.639 h 0.063 q 0.216,-0.378 0.603,-0.549 0.396,-0.18 0.819,-0.18 0.549,0 0.918,0.189 0.378,0.18 0.576,0.567 h 0.09 q 0.225,-0.396 0.63,-0.576 0.405,-0.18 0.855,-0.18 z"
           style="text-align:center;text-anchor:middle"
           id="path13430" /><path
           d="m 39.558892,-6.0651224 q 0.945,0 1.431,0.414 0.495,0.414 0.495,1.278 v 3.276 h -0.801 l -0.225,-0.675 h -0.036 q -0.315,0.396 -0.666,0.585 -0.351,0.18 -0.954,0.18 -0.657,0 -1.089,-0.369 -0.432,-0.369 -0.432,-1.143 0,-0.756 0.549,-1.134 0.558,-0.378 1.683,-0.423 l 0.846,-0.027 v -0.243 q 0,-0.459 -0.225,-0.657 -0.225,-0.207 -0.63,-0.207 -0.369,0 -0.711,0.108 -0.333,0.108 -0.666,0.252 l -0.36,-0.792 q 0.36,-0.189 0.819,-0.306 0.468,-0.117 0.972,-0.117 z m 0.207,2.682 q -0.747,0.027 -1.035,0.261 -0.288,0.225 -0.288,0.612 0,0.351 0.198,0.504 0.207,0.144 0.54,0.144 0.495,0 0.837,-0.279 0.342,-0.288 0.342,-0.846 v -0.414 z"
           style="text-align:center;text-anchor:middle"
           id="path13432" /><path
           d="m -13.320589,6.9308776 q 0,1.116 -0.423,1.926 -0.414,0.801 -1.269,1.143 l 1.548,1.6830004 h -1.53 l -1.197,-1.44 q -0.036,0 -0.081,0 -0.036,0 -0.072,0 -1.026,0 -1.701,-0.4140004 -0.666,-0.414 -0.999,-1.161 -0.324,-0.747 -0.324,-1.746 0,-0.99 0.324,-1.728 0.333,-0.747 0.999,-1.152 0.675,-0.414 1.71,-0.414 1.017,0 1.683,0.414 0.675,0.405 0.999,1.152 0.333,0.738 0.333,1.737 z m -4.833,0 q 0,1.089 0.432,1.71 0.432,0.621 1.377,0.621 0.954,0 1.377,-0.621 0.432,-0.621 0.432,-1.71 0,-1.089 -0.423,-1.71 -0.423,-0.621 -1.377,-0.621 -0.945,0 -1.386,0.621 -0.432,0.621 -0.432,1.71 z"
           style="text-align:center;text-anchor:middle"
           id="path13434" /><path
           d="m -7.7315803,5.2748776 v 4.8780004 h -0.891 l -0.153,-0.6300004 h -0.054 q -0.243,0.378 -0.657,0.5490004 -0.405,0.171 -0.8639997,0.171 -0.819,0 -1.287,-0.4230004 -0.459,-0.423 -0.459,-1.359 v -3.186 h 1.134 v 2.961 q 0,1.089 0.9,1.089 0.6839997,0 0.9359997,-0.423 0.261,-0.432 0.261,-1.242 v -2.385 z"
           style="text-align:center;text-anchor:middle"
           id="path13436" /><path
           d="m -4.3385786,5.1848776 q 0.945,0 1.431,0.414 0.495,0.414 0.495,1.278 v 3.2760004 h -0.801 l -0.225,-0.6750004 h -0.036 q -0.315,0.396 -0.666,0.5850004 -0.351,0.18 -0.954,0.18 -0.657,0 -1.089,-0.3690004 -0.432,-0.369 -0.432,-1.143 0,-0.756 0.549,-1.134 0.558,-0.378 1.683,-0.423 l 0.846,-0.027 v -0.243 q 0,-0.459 -0.225,-0.657 -0.225,-0.207 -0.63,-0.207 -0.369,0 -0.711,0.108 -0.333,0.108 -0.666,0.252 l -0.36,-0.792 q 0.36,-0.189 0.819,-0.306 0.468,-0.117 0.972,-0.117 z m 0.207,2.682 q -0.747,0.027 -1.035,0.261 -0.288,0.225 -0.288,0.612 0,0.351 0.198,0.504 0.207,0.144 0.54,0.144 0.495,0 0.837,-0.279 0.342,-0.288 0.342,-0.846 v -0.414 z"
           style="text-align:center;text-anchor:middle"
           id="path13438" /><path
           d="m 0.62041553,10.242878 q -0.855,0 -1.377,-0.6390004 -0.52200003,-0.639 -0.52200003,-1.881 0,-1.26 0.53100003,-1.899 0.531,-0.639 1.395,-0.639 0.53999997,0 0.88199997,0.207 0.351,0.207 0.558,0.504 h 0.054 q -0.027,-0.126 -0.054,-0.387 -0.027,-0.261 -0.027,-0.486 v -1.71 h 1.134 v 6.8400004 h -0.882 l -0.207,-0.6390004 h -0.045 q -0.207,0.306 -0.549,0.5220004 -0.342,0.207 -0.89099997,0.207 z m 0.342,-0.9180004 q 0.62999997,0 0.88199997,-0.36 0.261,-0.36 0.27,-1.089 v -0.144 q 0,-0.783 -0.252,-1.197 -0.243,-0.423 -0.91799997,-0.423 -0.522,0 -0.801,0.432 -0.27,0.423 -0.27,1.197 0,0.774 0.279,1.179 0.279,0.405 0.81,0.405 z"
           style="text-align:center;text-anchor:middle"
           id="path13440" /><path
           d="m 11.060413,10.152878 -0.585,-1.7010004 H 8.0544127 l -0.576,1.7010004 h -1.224 l 2.358,-6.4530004 h 1.314 L 12.284413,10.152878 Z M 9.6204127,5.8058776 q -0.036,-0.126 -0.108,-0.342 -0.072,-0.216 -0.144,-0.441 -0.063,-0.234 -0.099,-0.387 -0.045,0.18 -0.117,0.414 -0.063,0.234 -0.126,0.441 -0.063,0.207 -0.09,0.315 l -0.567,1.656 h 1.8090003 z"
           style="text-align:center;text-anchor:middle"
           id="path13442" /><path
           d="m 14.912408,9.3338776 q 0.207,0 0.405,-0.036 0.207,-0.045 0.378,-0.099 v 0.8460004 q -0.18,0.081 -0.468,0.135 -0.288,0.063 -0.603,0.063 -0.414,0 -0.756,-0.135 -0.342,-0.1440004 -0.54,-0.4860004 -0.198,-0.342 -0.198,-0.954 v -2.538 h -0.657 v -0.495 l 0.72,-0.396 0.36,-1.035 h 0.711 v 1.071 h 1.386 v 0.855 h -1.386 v 2.529 q 0,0.342 0.18,0.513 0.18,0.162 0.468,0.162 z"
           style="text-align:center;text-anchor:middle"
           id="path13444" /><path
           d="m 18.566412,9.3338776 q 0.207,0 0.405,-0.036 0.207,-0.045 0.378,-0.099 v 0.8460004 q -0.18,0.081 -0.468,0.135 -0.288,0.063 -0.603,0.063 -0.414,0 -0.756,-0.135 -0.342,-0.1440004 -0.54,-0.4860004 -0.198,-0.342 -0.198,-0.954 v -2.538 h -0.657 v -0.495 l 0.72,-0.396 0.36,-1.035 h 0.711 v 1.071 h 1.386 v 0.855 h -1.386 v 2.529 q 0,0.342 0.18,0.513 0.18,0.162 0.468,0.162 z"
           style="text-align:center;text-anchor:middle"
           id="path13446" /><path
           d="m 22.292411,5.1848776 q 0.981,0 1.548,0.585 0.576,0.585 0.576,1.629 v 0.576 h -3.222 q 0.018,0.666 0.369,1.035 0.351,0.36 0.972,0.36 0.468,0 0.846,-0.09 0.378,-0.099 0.774,-0.279 v 0.909 q -0.36,0.1710004 -0.747,0.2520004 -0.387,0.081 -0.927,0.081 -0.711,0 -1.269,-0.2700004 -0.549,-0.279 -0.864,-0.837 -0.306,-0.558 -0.306,-1.386 0,-1.251 0.621,-1.908 0.621,-0.657 1.629,-0.657 z m 0,0.837 q -0.459,0 -0.747,0.297 -0.279,0.288 -0.324,0.864 h 2.097 q -0.009,-0.504 -0.261,-0.828 -0.243,-0.333 -0.765,-0.333 z"
           style="text-align:center;text-anchor:middle"
           id="path13448" /><path
           d="m 28.169407,5.1848776 q 0.819,0 1.278,0.423 0.468,0.423 0.468,1.368 v 3.1770004 h -1.134 V 7.2008776 q 0,-1.098 -0.9,-1.098 -0.684,0 -0.936,0.432 -0.252,0.432 -0.252,1.233 v 2.3850004 h -1.134 V 5.2748776 h 0.873 l 0.162,0.639 h 0.063 q 0.234,-0.378 0.639,-0.549 0.414,-0.18 0.873,-0.18 z"
           style="text-align:center;text-anchor:middle"
           id="path13450" /><path
           d="m 35.666407,5.2748776 v 4.8780004 h -0.891 l -0.153,-0.6300004 h -0.054 q -0.243,0.378 -0.657,0.5490004 -0.405,0.171 -0.864,0.171 -0.819,0 -1.287,-0.4230004 -0.459,-0.423 -0.459,-1.359 v -3.186 h 1.134 v 2.961 q 0,1.089 0.9,1.089 0.684,0 0.936,-0.423 0.261,-0.432 0.261,-1.242 v -2.385 z"
           style="text-align:center;text-anchor:middle"
           id="path13452" /><path
           d="m 38.240407,10.152878 -1.854,-4.8780004 h 1.197 l 0.972,2.817 q 0.09,0.261 0.162,0.576 0.081,0.315 0.099,0.531 h 0.036 q 0.027,-0.225 0.108,-0.531 0.081,-0.315 0.171,-0.576 l 0.972,-2.817 h 1.197 l -1.854,4.8780004 z"
           style="text-align:center;text-anchor:middle"
           id="path13454" /><path
           d="m 43.991405,5.1848776 q 0.981,0 1.548,0.585 0.576,0.585 0.576,1.629 v 0.576 h -3.222 q 0.018,0.666 0.369,1.035 0.351,0.36 0.972,0.36 0.468,0 0.846,-0.09 0.378,-0.099 0.774,-0.279 v 0.909 q -0.36,0.1710004 -0.747,0.2520004 -0.387,0.081 -0.927,0.081 -0.711,0 -1.269,-0.2700004 -0.549,-0.279 -0.864,-0.837 -0.306,-0.558 -0.306,-1.386 0,-1.251 0.621,-1.908 0.621,-0.657 1.629,-0.657 z m 0,0.837 q -0.459,0 -0.747,0.297 -0.279,0.288 -0.324,0.864 h 2.097 q -0.009,-0.504 -0.261,-0.828 -0.243,-0.333 -0.765,-0.333 z"
           style="text-align:center;text-anchor:middle"
           id="path13456" /><path
           d="m 49.814397,5.1848776 q 0.117,0 0.252,0.009 0.144,0.009 0.243,0.036 l -0.099,1.053 q -0.09,-0.018 -0.216,-0.027 -0.126,-0.018 -0.225,-0.018 -0.36,0 -0.675,0.153 -0.315,0.144 -0.513,0.459 -0.189,0.306 -0.189,0.774 v 2.5290004 h -1.134 V 5.2748776 h 0.873 l 0.162,0.846 h 0.054 q 0.216,-0.387 0.594,-0.657 0.378,-0.279 0.873,-0.279 z"
           style="text-align:center;text-anchor:middle"
           id="path13458" /><path
           d="m 53.099393,9.3338776 q 0.207,0 0.405,-0.036 0.207,-0.045 0.378,-0.099 v 0.8460004 q -0.18,0.081 -0.468,0.135 -0.288,0.063 -0.603,0.063 -0.414,0 -0.756,-0.135 -0.342,-0.1440004 -0.54,-0.4860004 -0.198,-0.342 -0.198,-0.954 v -2.538 h -0.657 v -0.495 l 0.72,-0.396 0.36,-1.035 h 0.711 v 1.071 h 1.386 v 0.855 h -1.386 v 2.529 q 0,0.342 0.18,0.513 0.18,0.162 0.468,0.162 z"
           style="text-align:center;text-anchor:middle"
           id="path13460" /><path
           d="m 56.825393,5.1848776 q 0.981,0 1.548,0.585 0.576,0.585 0.576,1.629 v 0.576 h -3.222 q 0.018,0.666 0.369,1.035 0.351,0.36 0.972,0.36 0.468,0 0.846,-0.09 0.378,-0.099 0.774,-0.279 v 0.909 q -0.36,0.1710004 -0.747,0.2520004 -0.387,0.081 -0.927,0.081 -0.711,0 -1.269,-0.2700004 -0.549,-0.279 -0.864,-0.837 -0.306,-0.558 -0.306,-1.386 0,-1.251 0.621,-1.908 0.621,-0.657 1.629,-0.657 z m 0,0.837 q -0.459,0 -0.747,0.297 -0.279,0.288 -0.324,0.864 h 2.097 q -0.009,-0.504 -0.261,-0.828 -0.243,-0.333 -0.765,-0.333 z"
           style="text-align:center;text-anchor:middle"
           id="path13462" /><path
           d="m 62.648389,5.1848776 q 0.117,0 0.252,0.009 0.144,0.009 0.243,0.036 l -0.099,1.053 q -0.09,-0.018 -0.216,-0.027 -0.126,-0.018 -0.225,-0.018 -0.36,0 -0.675,0.153 -0.315,0.144 -0.513,0.459 -0.189,0.306 -0.189,0.774 v 2.5290004 h -1.134 V 5.2748776 h 0.873 l 0.162,0.846 h 0.054 q 0.216,-0.387 0.594,-0.657 0.378,-0.279 0.873,-0.279 z"
           style="text-align:center;text-anchor:middle"
           id="path13464" /></g></g><g
       inkscape:groupmode="layer"
       id="layer1"
       inkscape:label="Layer 1"
       style="display:inline"><path
         id="circle12800"
         style="fill:#010101;fill-opacity:1;stroke:none;stroke-width:0.75;stroke-linecap:round;stroke-linejoin:round;stroke-dasharray:0.75, 0.75;stroke-dashoffset:0"
         d="M 57.118654 -256.30474 A 5.9797521 5.9797521 0 0 0 51.137697 -250.32525 A 5.9797521 5.9797521 0 0 0 57.118654 -244.34575 A 5.9797521 5.9797521 0 0 0 63.098146 -250.32525 A 5.9797521 5.9797521 0 0 0 57.118654 -256.30474 z M 55.882326 -253.08208 L 57.401369 -253.08208 C 57.924035 -253.08208 58.343538 -252.97807 58.658205 -252.77007 C 58.972871 -252.5674 59.129884 -252.26081 59.129884 -251.85015 C 59.129884 -251.48215 59.012988 -251.18101 58.778322 -250.94634 C 58.543655 -250.71167 58.24995 -250.55665 57.897951 -250.48198 C 58.228617 -250.42332 58.495089 -250.30496 58.697755 -250.12896 C 58.905755 -249.95296 59.009767 -249.68649 59.009767 -249.32915 C 59.009767 -248.79582 58.82353 -248.37034 58.450197 -248.05034 C 58.082197 -247.73034 57.474465 -247.56987 56.626466 -247.56987 L 55.105958 -247.56987 L 55.882326 -253.08208 z M 56.5459 -252.4815 L 56.305665 -250.74566 L 57.114259 -250.74566 C 57.471592 -250.74566 57.767288 -250.83678 58.001955 -251.01812 C 58.241954 -251.19945 58.362306 -251.46791 58.362306 -251.82525 C 58.362306 -252.07058 58.276625 -252.24194 58.105958 -252.33794 C 57.940625 -252.43394 57.714271 -252.4815 57.426271 -252.4815 L 56.5459 -252.4815 z M 56.226564 -250.16118 L 55.945314 -248.17778 L 56.658693 -248.17778 C 57.240026 -248.17778 57.64518 -248.27834 57.874513 -248.48101 C 58.10918 -248.68901 58.226076 -248.97727 58.226076 -249.34527 C 58.226076 -249.88926 57.863029 -250.16118 57.137697 -250.16118 L 56.226564 -250.16118 z "
         transform="scale(1,-1)" /><path
         id="path12798"
         style="fill:#010101;fill-opacity:1;stroke:none;stroke-width:0.75;stroke-linecap:round;stroke-linejoin:round;stroke-dasharray:0.75, 0.75;stroke-dashoffset:0"
         d="M 57.118654 -295.85552 A 5.9797521 5.9797521 0 0 0 51.137697 -289.87456 A 5.9797521 5.9797521 0 0 0 57.118654 -283.89507 A 5.9797521 5.9797521 0 0 0 63.098146 -289.87456 A 5.9797521 5.9797521 0 0 0 57.118654 -295.85552 z M 57.421876 -292.6314 L 58.374025 -292.6314 L 59.342287 -287.11919 L 58.565919 -287.11919 L 58.350587 -288.50347 L 56.277833 -288.50347 L 55.669923 -287.11919 L 54.893556 -287.11919 L 57.421876 -292.6314 z M 57.805666 -291.99859 L 56.541505 -289.1187 L 58.253908 -289.1187 L 57.805666 -291.99859 z "
         transform="scale(1,-1)" /><path
         id="circle12806"
         style="fill:#010101;fill-opacity:1;stroke:none;stroke-width:0.75;stroke-linecap:round;stroke-linejoin:round;stroke-dasharray:0.75, 0.75;stroke-dashoffset:0"
         d="M 57.118654 -218.79009 A 5.9797521 5.9797521 0 0 0 51.137697 -212.8106 A 5.9797521 5.9797521 0 0 0 57.118654 -206.8311 A 5.9797521 5.9797521 0 0 0 63.098146 -212.8106 A 5.9797521 5.9797521 0 0 0 57.118654 -218.79009 z M 57.710451 -215.66265 C 58.019784 -215.66265 58.293693 -215.61363 58.533693 -215.51763 C 58.773693 -215.42163 58.99261 -215.28095 59.189943 -215.09429 L 58.757814 -214.67095 C 58.592481 -214.79895 58.42803 -214.89207 58.262697 -214.95073 C 58.102697 -215.0094 57.929344 -215.03862 57.742677 -215.03862 C 57.294678 -215.03862 56.926185 -214.88905 56.638185 -214.59038 C 56.355519 -214.29705 56.149486 -213.92856 56.021486 -213.48589 C 55.898819 -213.04322 55.83838 -212.5925 55.83838 -212.13384 C 55.83838 -211.60584 55.947839 -211.21702 56.166505 -210.96636 C 56.385172 -210.72103 56.680868 -210.59868 57.054201 -210.59868 C 57.2942 -210.59868 57.507671 -210.6388 57.694337 -210.7188 C 57.881004 -210.80413 58.080125 -210.92103 58.293458 -211.07036 L 58.630373 -210.55767 C 58.155706 -210.15767 57.61386 -209.95855 57.005861 -209.95855 C 56.403195 -209.95855 55.926708 -210.15222 55.574708 -210.54155 C 55.222709 -210.93089 55.0459 -211.48363 55.0459 -212.19829 C 55.0459 -212.73162 55.139018 -213.26457 55.325685 -213.7979 C 55.517685 -214.33123 55.813381 -214.77451 56.21338 -215.12651 C 56.61338 -215.48385 57.113118 -215.66265 57.710451 -215.66265 z "
         transform="scale(1,-1)" /><path
         id="circle12812"
         style="fill:#010101;fill-opacity:1;stroke:none;stroke-width:0.75;stroke-linecap:round;stroke-linejoin:round;stroke-dasharray:0.75, 0.75;stroke-dashoffset:0"
         d="M 57.118654 -180.06255 A 5.9797521 5.9797521 0 0 0 51.137697 -174.08306 A 5.9797521 5.9797521 0 0 0 57.118654 -168.1021 A 5.9797521 5.9797521 0 0 0 63.098146 -174.08306 A 5.9797521 5.9797521 0 0 0 57.118654 -180.06255 z M 55.737306 -176.83843 L 56.866701 -176.83843 C 57.597367 -176.83843 58.181321 -176.68686 58.618654 -176.38286 C 59.055987 -176.08419 59.273439 -175.54036 59.273439 -174.75103 C 59.273439 -174.12703 59.172883 -173.55596 58.970216 -173.03862 C 58.76755 -172.52129 58.44263 -172.10524 57.99463 -171.79058 C 57.551964 -171.48124 56.982885 -171.32622 56.289552 -171.32622 L 54.962404 -171.32622 L 55.737306 -176.83843 z M 56.402345 -176.23052 L 55.801759 -171.92681 L 56.402345 -171.92681 C 56.903678 -171.92681 57.310823 -172.06549 57.62549 -172.34282 C 57.940156 -172.62016 58.16452 -172.97231 58.297853 -173.39897 C 58.43652 -173.82564 58.505861 -174.28034 58.505861 -174.76567 C 58.505861 -175.17101 58.43652 -175.48105 58.297853 -175.69438 C 58.159186 -175.90772 57.978396 -176.04839 57.754396 -176.11772 C 57.53573 -176.19239 57.276695 -176.23052 56.978029 -176.23052 L 56.402345 -176.23052 z "
         transform="scale(1,-1)" /><path
         style="color:#000000;fill:#000000;stroke-dasharray:0.75, 0.75;-inkscape-stroke:none"
         d="m 0.28320313,153.1543 v 0.75 H 1.0332031 v -0.75 z m 1.49999997,0 v 0.75 h 0.75 v -0.75 z m 1.5,0 v 0.75 h 0.75 v -0.75 z m 1.5,0 v 0.75 h 0.75 v -0.75 z m 1.5,0 v 0.75 h 0.75 v -0.75 z m 1.5,0 v 0.75 h 0.75 v -0.75 z m 1.5,0 v 0.75 h 0.7499999 v -0.75 z m 1.4999999,0 v 0.75 h 0.75 v -0.75 z m 1.5,0 v 0.75 h 0.75 v -0.75 z m 1.5,0 v 0.75 h 0.75 v -0.75 z m 1.5,0 v 0.75 h 0.75 v -0.75 z m 1.5,0 v 0.75 h 0.75 v -0.75 z m 1.5,0 v 0.75 h 0.75 v -0.75 z m 1.5,0 v 0.75 h 0.75 v -0.75 z m 1.5,0 v 0.75 h 0.75 v -0.75 z m 1.5,0 v 0.75 h 0.75 v -0.75 z m 1.5,0 v 0.75 h 0.75 v -0.75 z m 1.5,0 v 0.75 h 0.75 v -0.75 z m 1.5,0 v 0.75 h 0.75 v -0.75 z m 1.5,0 v 0.75 h 0.75 v -0.75 z m 1.5,0 v 0.75 h 0.75 v -0.75 z m 1.5,0 v 0.75 h 0.75 v -0.75 z m 1.5,0 v 0.75 h 0.75 v -0.75 z m 1.5,0 v 0.75 h 0.75 v -0.75 z m 1.5,0 v 0.75 h 0.75 v -0.75 z m 1.5,0 v 0.75 h 0.75 v -0.75 z m 1.5,0 v 0.75 h 0.75 v -0.75 z m 1.5,0 v 0.75 h 0.75 v -0.75 z m 1.5,0 v 0.75 h 0.75 v -0.75 z m 1.5,0 v 0.75 h 0.75 v -0.75 z m 1.5,0 v 0.75 h 0.75 v -0.75 z m 1.5,0 v 0.75 h 0.75 v -0.75 z m 1.5,0 v 0.75 h 0.75 v -0.75 z m 1.5,0 v 0.75 h 0.75 v -0.75 z m 1.5,0 v 0.75 h 0.75 v -0.75 z m 1.5,0 v 0.75 h 0.75 v -0.75 z m 1.5,0 v 0.75 h 0.75 v -0.75 z m 1.5,0 v 0.75 h 0.75 v -0.75 z m 1.5,0 v 0.75 h 0.75 v -0.75 z m 1.5,0 v 0.75 h 0.75 v -0.75 z m 1.5,0 v 0.75 h 0.75 v -0.75 z m 1.5,0 v 0.75 h 0.75 v -0.75 z m 1.5,0 v 0.75 h 0.75 v -0.75 z m 1.5,0 v 0.75 h 0.75 v -0.75 z m 1.5,0 v 0.75 h 0.75 v -0.75 z m 1.5,0 v 0.75 h 0.75 v -0.75 z m 1.5,0 v 0.75 h 0.75 v -0.75 z m 1.5,0 v 0.75 h 0.75 v -0.75 z m 1.5,0 v 0.75 h 0.75 v -0.75 z m 1.5,0 v 0.75 h 0.75 v -0.75 z m 1.5,0 v 0.75 h 0.75 v -0.75 z m 1.5,0 v 0.75 h 0.75 v -0.75 z m 1.5,0 v 0.75 h 0.75 v -0.75 z m 1.5,0 v 0.75 h 0.75 v -0.75 z m 1.5,0 v 0.75 h 0.75 v -0.75 z m 1.5,0 v 0.75 h 0.75 v -0.75 z m 1.5,0 v 0.75 h 0.75 v -0.75 z m 1.5,0 v 0.75 h 0.75 v -0.75 z m 1.5,0 v 0.75 h 0.75 v -0.75 z m 1.5,0 v 0.75 h 0.75 v -0.75 z m 1.5,0 v 0.75 h 0.75 v -0.75 z m 1.5,0 v 0.75 h 0.75 v -0.75 z m 1.5,0 v 0.75 h 0.75 v -0.75 z m 1.5,0 v 0.75 h 0.75 v -0.75 z m 1.5,0 v 0.75 h 0.75 v -0.75 z m 1.5,0 v 0.75 h 0.75 v -0.75 z m 1.5,0 v 0.75 h 0.749997 v -0.75 z m 1.499997,0 v 0.75 h 0.75 v -0.75 z m 1.5,0 v 0.75 h 0.75 v -0.75 z m 1.5,0 v 0.75 h 0.75 v -0.75 z m 1.5,0 v 0.75 h 0.75 v -0.75 z m 1.5,0 v 0.75 h 0.75 v -0.75 z m 1.5,0 v 0.75 h 0.75 v -0.75 z m 1.5,0 v 0.75 h 0.75 v -0.75 z m 1.5,0 v 0.75 h 0.75 v -0.75 z m 1.5,0 v 0.75 h 0.75 v -0.75 z"
         id="path12818" /><path
         id="path13140"
         style="fill:#010101;fill-opacity:1;stroke:none;stroke-width:0.75;stroke-linecap:round;stroke-linejoin:round;stroke-dasharray:0.75, 0.75;stroke-dashoffset:0"
         d="m 57.118654,144.83595 a 5.9797521,5.9797521 0 0 1 -5.980957,-5.98096 5.9797521,5.9797521 0 0 1 5.980957,-5.97949 5.9797521,5.9797521 0 0 1 5.979492,5.97949 5.9797521,5.9797521 0 0 1 -5.979492,5.98096 z m 0.303222,-3.22412 h 0.952149 l 0.968262,-5.51221 h -0.776368 l -0.215332,1.38428 h -2.072754 l -0.60791,-1.38428 h -0.776367 z m 0.38379,-0.63281 -1.264161,-2.87989 h 1.712403 z" /><path
         id="path13142"
         style="fill:#010101;fill-opacity:1;stroke:none;stroke-width:0.75;stroke-linecap:round;stroke-linejoin:round;stroke-dasharray:0.75, 0.75;stroke-dashoffset:0"
         d="m 57.118654,115.50604 a 5.9797521,5.9797521 0 0 1 -5.980957,-5.97949 5.9797521,5.9797521 0 0 1 5.980957,-5.9795 5.9797521,5.9797521 0 0 1 5.979492,5.9795 5.9797521,5.9797521 0 0 1 -5.979492,5.97949 z m -1.236328,-3.22266 h 1.519043 c 0.522666,0 0.942169,-0.10401 1.256836,-0.31201 0.314666,-0.20267 0.471679,-0.50926 0.471679,-0.91992 0,-0.368 -0.116896,-0.66914 -0.351562,-0.90381 -0.234667,-0.23467 -0.528372,-0.38969 -0.880371,-0.46436 0.330666,-0.0587 0.597138,-0.17702 0.799804,-0.35302 0.208,-0.176 0.312012,-0.44247 0.312012,-0.79981 0,-0.53333 -0.186237,-0.95881 -0.55957,-1.27881 -0.368,-0.32 -0.975732,-0.48047 -1.823731,-0.48047 h -1.520508 z m 0.663574,-0.60058 -0.240235,-1.73584 h 0.808594 c 0.357333,0 0.653029,0.0911 0.887696,0.27246 0.239999,0.18133 0.360351,0.44979 0.360351,0.80713 0,0.24533 -0.08568,0.41669 -0.256348,0.51269 -0.165333,0.096 -0.391687,0.14356 -0.679687,0.14356 z m -0.319336,-2.32032 -0.28125,-1.9834 h 0.713379 c 0.581333,0 0.986487,0.10056 1.21582,0.30323 0.234667,0.208 0.351563,0.49626 0.351563,0.86426 0,0.54399 -0.363047,0.81591 -1.088379,0.81591 z" /><path
         id="path13144"
         style="fill:#010101;fill-opacity:1;stroke:none;stroke-width:0.75;stroke-linecap:round;stroke-linejoin:round;stroke-dasharray:0.75, 0.75;stroke-dashoffset:0"
         d="m 57.118654,86.17759 a 5.9797521,5.9797521 0 0 1 -5.980957,-5.97949 5.9797521,5.9797521 0 0 1 5.980957,-5.9795 5.9797521,5.9797521 0 0 1 5.979492,5.9795 5.9797521,5.9797521 0 0 1 -5.979492,5.97949 z m 0.591797,-3.12744 c 0.309333,0 0.583242,-0.04902 0.823242,-0.14502 0.24,-0.096 0.458917,-0.23668 0.65625,-0.42334 l -0.432129,-0.42334 c -0.165333,0.128 -0.329784,0.22112 -0.495117,0.27978 -0.16,0.05867 -0.333353,0.08789 -0.52002,0.08789 -0.447999,0 -0.816492,-0.14957 -1.104492,-0.44824 C 56.355519,81.68455 56.149486,81.31606 56.021486,80.87339 55.898819,80.43072 55.83838,79.98 55.83838,79.52134 c 0,-0.528 0.109459,-0.91682 0.328125,-1.16748 0.218667,-0.24533 0.514363,-0.36768 0.887696,-0.36768 0.239999,0 0.45347,0.04012 0.640136,0.12012 0.186667,0.08533 0.385788,0.20223 0.599121,0.35156 l 0.336915,-0.51269 c -0.474667,-0.4 -1.016513,-0.59912 -1.624512,-0.59912 -0.602666,0 -1.079153,0.19367 -1.431153,0.583 -0.351999,0.38934 -0.528808,0.94208 -0.528808,1.65674 0,0.53333 0.09312,1.06628 0.279785,1.59961 0.192,0.53333 0.487696,0.97661 0.887695,1.32861 0.4,0.35734 0.899738,0.53614 1.497071,0.53614 z" /><path
         id="path13146"
         style="fill:#010101;fill-opacity:1;stroke:none;stroke-width:0.75;stroke-linecap:round;stroke-linejoin:round;stroke-dasharray:0.75, 0.75;stroke-dashoffset:0"
         d="m 57.118654,56.84914 a 5.9797521,5.9797521 0 0 1 -5.980957,-5.97949 5.9797521,5.9797521 0 0 1 5.980957,-5.98096 5.9797521,5.9797521 0 0 1 5.979492,5.98096 5.9797521,5.9797521 0 0 1 -5.979492,5.97949 z m -1.381348,-3.22412 h 1.129395 c 0.730666,0 1.31462,-0.15157 1.751953,-0.45557 0.437333,-0.29867 0.654785,-0.8425 0.654785,-1.63183 0,-0.624 -0.100556,-1.19507 -0.303223,-1.71241 C 58.76755,49.30788 58.44263,48.89183 57.99463,48.57717 57.551964,48.26783 56.982885,48.11281 56.289552,48.11281 h -1.327148 z m 0.665039,-0.60791 -0.600586,-4.30371 h 0.600586 c 0.501333,0 0.908478,0.13868 1.223145,0.41601 0.314666,0.27734 0.53903,0.62949 0.672363,1.05615 0.138667,0.42667 0.208008,0.88137 0.208008,1.3667 0,0.40534 -0.06934,0.71538 -0.208008,0.92871 -0.138667,0.21334 -0.319457,0.35401 -0.543457,0.42334 -0.218666,0.07467 -0.477701,0.1128 -0.776367,0.1128 z" /></g><g
       id="g3319"
       transform="translate(57.4003,324.56485)"
       clip-path="url(#clipPath11203)" /><path
       id="rect12665"
       style="fill:#000000;fill-opacity:1;stroke:none;stroke-width:0.75;stroke-linecap:round;stroke-linejoin:round"
       d="M 19.630372 -329.59527 C 16.465034 -329.59527 13.916016 -326.92871 13.916016 -323.61578 C 13.916016 -320.30284 16.465034 -317.63482 19.630372 -317.63482 L 37.555665 -317.63482 C 40.721002 -317.63482 43.268556 -320.30284 43.268556 -323.61578 C 43.268556 -326.92871 40.721002 -329.59527 37.555665 -329.59527 L 19.630372 -329.59527 z M 30.654786 -327.09917 C 30.809452 -327.09917 30.933786 -327.05162 31.029786 -326.95562 C 31.125786 -326.85962 31.174805 -326.73927 31.174805 -326.59527 C 31.174805 -326.45127 31.125786 -326.33092 31.029786 -326.23492 C 30.933786 -326.14425 30.809452 -326.10015 30.654786 -326.10015 C 30.505453 -326.10015 30.381645 -326.14425 30.285645 -326.23492 C 30.189645 -326.33092 30.142091 -326.45127 30.142091 -326.59527 C 30.142091 -326.73927 30.189645 -326.85962 30.285645 -326.95562 C 30.381645 -327.05162 30.505453 -327.09917 30.654786 -327.09917 z M 23.030274 -326.46783 C 23.37694 -326.46783 23.676092 -326.41682 23.926758 -326.31548 C 24.182758 -326.21948 24.434881 -326.06792 24.685547 -325.85992 L 24.23877 -325.39556 C 24.041437 -325.55556 23.851744 -325.67047 23.670411 -325.7398 C 23.489078 -325.80913 23.275607 -325.8438 23.030274 -325.8438 C 22.747608 -325.8438 22.486582 -325.76556 22.246583 -325.61089 C 22.011916 -325.46156 21.820232 -325.21886 21.670899 -324.88286 C 21.521566 -324.5522 21.446778 -324.13217 21.446778 -323.62017 C 21.446778 -322.84684 21.571111 -322.28121 21.821778 -321.92388 C 22.077778 -321.56655 22.453708 -321.38775 22.949708 -321.38775 C 23.355041 -321.38775 23.705203 -321.46997 23.998536 -321.63531 L 23.998536 -323.29937 L 23.02295 -323.29937 L 22.933594 -323.91607 L 24.750001 -323.91607 L 24.750001 -321.25152 C 24.179335 -320.92618 23.57904 -320.76372 22.949708 -320.76372 C 22.224375 -320.76372 21.656761 -321.00642 21.246094 -321.49175 C 20.840761 -321.97708 20.638184 -322.68684 20.638184 -323.62017 C 20.638184 -324.2175 20.745652 -324.72866 20.958985 -325.15533 C 21.177651 -325.58733 21.467901 -325.91225 21.830567 -326.13091 C 22.198567 -326.35491 22.598274 -326.46783 23.030274 -326.46783 z M 27.326661 -325.17144 C 27.82266 -325.17144 28.193144 -325.0491 28.438477 -324.80376 C 28.68381 -324.56376 28.806153 -324.21905 28.806153 -323.77105 L 28.806153 -321.84331 C 28.806153 -321.67265 28.835377 -321.54486 28.894044 -321.45953 C 28.95271 -321.37953 29.040382 -321.31762 29.157716 -321.27495 L 28.990723 -320.76372 C 28.772057 -320.79039 28.595248 -320.85083 28.461915 -320.94683 C 28.328582 -321.04283 28.230016 -321.19241 28.166016 -321.39507 C 27.88335 -320.97374 27.465311 -320.76372 26.910645 -320.76372 C 26.494646 -320.76372 26.16627 -320.88062 25.92627 -321.11529 C 25.68627 -321.34995 25.565919 -321.65654 25.565919 -322.03521 C 25.565919 -322.48321 25.726388 -322.82792 26.046387 -323.06792 C 26.37172 -323.30792 26.829876 -323.42681 27.421876 -323.42681 L 28.070801 -323.42681 L 28.070801 -323.73882 C 28.070801 -324.03749 27.998004 -324.25096 27.854005 -324.37896 C 27.710005 -324.50696 27.489097 -324.57085 27.19043 -324.57085 C 26.881097 -324.57085 26.501711 -324.49753 26.053712 -324.3482 L 25.870606 -324.88286 C 26.393272 -325.07486 26.878661 -325.17144 27.326661 -325.17144 z M 34.486817 -325.17144 C 34.870817 -325.17144 35.168504 -325.05653 35.381837 -324.8272 C 35.600503 -324.59787 35.709962 -324.28384 35.709962 -323.88384 L 35.709962 -320.85894 L 34.97461 -320.85894 L 34.97461 -323.77984 C 34.97461 -324.0785 34.918153 -324.28852 34.806153 -324.41119 C 34.694153 -324.53385 34.528238 -324.59576 34.309571 -324.59576 C 34.085571 -324.59576 33.888441 -324.53186 33.717774 -324.40386 C 33.547108 -324.27586 33.388104 -324.09161 33.23877 -323.85161 L 33.23877 -320.85894 L 32.501954 -320.85894 L 32.501954 -325.07476 L 33.134766 -325.07476 L 33.197755 -324.45074 C 33.347088 -324.67474 33.531334 -324.85154 33.750001 -324.97954 C 33.974001 -325.10754 34.220151 -325.17144 34.486817 -325.17144 z M 30.294434 -325.07476 L 31.029786 -325.07476 L 31.029786 -320.85894 L 30.294434 -320.85894 L 30.294434 -325.07476 z M 27.518555 -322.93902 C 26.739889 -322.93902 26.34961 -322.65076 26.34961 -322.07476 C 26.34961 -321.82409 26.411514 -321.63586 26.53418 -321.50786 C 26.656847 -321.37987 26.837638 -321.31597 27.077637 -321.31597 C 27.49897 -321.31597 27.830802 -321.53342 28.070801 -321.97076 L 28.070801 -322.93902 L 27.518555 -322.93902 z "
       transform="scale(1,-1)" /><path
       id="rect12671"
       style="fill:#000000;fill-opacity:1;stroke:none;stroke-width:0.75;stroke-linecap:round;stroke-linejoin:round"
       d="M 76.372561 -329.59527 C 73.207223 -329.59527 70.658205 -326.92871 70.658205 -323.61578 C 70.658205 -320.30284 73.207223 -317.63482 76.372561 -317.63482 L 94.297854 -317.63482 C 97.463191 -317.63482 100.01074 -320.30284 100.01074 -323.61578 C 100.01074 -326.92871 97.463191 -329.59527 94.297854 -329.59527 L 76.372561 -329.59527 z M 84.667971 -326.85894 C 84.859971 -326.85894 85.029868 -326.84061 85.179201 -326.80328 C 85.333868 -326.77128 85.499784 -326.71827 85.675783 -326.64361 L 85.444338 -326.10747 C 85.204338 -326.21414 84.958188 -326.26714 84.707522 -326.26714 C 84.483522 -326.26714 84.323053 -326.21613 84.227053 -326.1148 C 84.131053 -326.0188 84.083498 -325.86723 84.083498 -325.65923 L 84.083498 -325.07476 L 85.107424 -325.07476 L 85.028322 -324.50786 L 84.083498 -324.50786 L 84.083498 -320.85894 L 83.348147 -320.85894 L 83.348147 -324.50786 L 81.804201 -324.50786 L 81.804201 -320.85894 L 81.067385 -320.85894 L 81.067385 -324.50786 L 80.395022 -324.50786 L 80.395022 -325.07476 L 81.067385 -325.07476 L 81.067385 -325.57134 C 81.067385 -325.93934 81.185746 -326.23305 81.420412 -326.45171 C 81.660412 -326.67038 82.007118 -326.77984 82.460451 -326.77984 C 82.679118 -326.77984 82.878239 -326.75805 83.059572 -326.71538 C 83.240906 -326.67272 83.443483 -326.60139 83.667483 -326.50005 C 83.907482 -326.74005 84.241305 -326.85894 84.667971 -326.85894 z M 77.547365 -326.46783 C 78.011365 -326.46783 78.416519 -326.35491 78.763186 -326.13091 C 79.115185 -325.91225 79.387104 -325.59078 79.579104 -325.16412 C 79.776437 -324.73745 79.875002 -324.21938 79.875002 -323.61138 C 79.875002 -323.01405 79.776437 -322.50143 79.579104 -322.07476 C 79.387104 -321.64809 79.115185 -321.32317 78.763186 -321.09917 C 78.416519 -320.87517 78.011365 -320.76372 77.547365 -320.76372 C 77.083366 -320.76372 76.67622 -320.87318 76.324221 -321.09185 C 75.977554 -321.31052 75.705636 -321.63344 75.508303 -322.06011 C 75.316303 -322.48678 75.219728 -323.00139 75.219728 -323.60406 C 75.219728 -324.19606 75.316303 -324.70721 75.508303 -325.13921 C 75.705636 -325.57121 75.979545 -325.89959 76.331545 -326.12359 C 76.683545 -326.35292 77.088699 -326.46783 77.547365 -326.46783 z M 82.507326 -326.18804 C 82.245993 -326.18804 82.061747 -326.13902 81.95508 -326.04302 C 81.853747 -325.94702 81.804201 -325.79346 81.804201 -325.58013 L 81.804201 -325.07476 L 83.348147 -325.07476 L 83.348147 -325.65191 C 83.348147 -325.78524 83.363022 -325.90758 83.395022 -326.01958 C 83.235022 -326.07825 83.086911 -326.12036 82.948244 -326.14703 C 82.814911 -326.17369 82.667326 -326.18804 82.507326 -326.18804 z M 94.787112 -326.1148 L 94.787112 -325.07476 L 95.7876 -325.07476 L 95.707034 -324.50786 L 94.787112 -324.50786 L 94.787112 -321.99566 C 94.787112 -321.77699 94.825238 -321.61652 94.899905 -321.51519 C 94.979905 -321.41919 95.109685 -321.37163 95.291018 -321.37163 C 95.456351 -321.37163 95.644053 -321.42809 95.852053 -321.54009 L 96.131838 -321.05083 C 95.854505 -320.85883 95.539014 -320.76372 95.187014 -320.76372 C 94.829681 -320.76372 94.550325 -320.86428 94.347659 -321.06695 C 94.150325 -321.27495 94.05176 -321.5741 94.05176 -321.96343 L 94.05176 -324.50786 L 93.316409 -324.50786 L 93.316409 -325.07476 L 94.05176 -325.07476 L 94.05176 -326.02691 L 94.787112 -326.1148 z M 77.547365 -325.8438 C 77.067366 -325.8438 76.694891 -325.66155 76.428225 -325.29888 C 76.161558 -324.93621 76.028322 -324.37206 76.028322 -323.60406 C 76.028322 -322.84139 76.161558 -322.28121 76.428225 -321.92388 C 76.700224 -321.56655 77.072699 -321.38775 77.547365 -321.38775 C 78.560698 -321.38775 79.067873 -322.12872 79.067873 -323.61138 C 79.067873 -325.09938 78.560698 -325.8438 77.547365 -325.8438 z M 87.060061 -325.17144 C 87.34806 -325.17144 87.607095 -325.13132 87.836428 -325.05132 C 88.065761 -324.97132 88.283213 -324.85097 88.491213 -324.69097 L 88.179201 -324.22808 C 87.987202 -324.35075 87.80442 -324.44041 87.62842 -324.49908 C 87.457754 -324.55774 87.275498 -324.58697 87.083498 -324.58697 C 86.843499 -324.58697 86.653805 -324.53742 86.515139 -324.43609 C 86.376472 -324.34009 86.307131 -324.20685 86.307131 -324.03619 C 86.307131 -323.86552 86.371026 -323.73082 86.499026 -323.63482 C 86.632359 -323.53882 86.871072 -323.4457 87.212405 -323.35503 C 87.681737 -323.2377 88.030435 -323.0787 88.259768 -322.87603 C 88.494434 -322.67336 88.61133 -322.396 88.61133 -322.044 C 88.61133 -321.628 88.44887 -321.31052 88.123537 -321.09185 C 87.803538 -320.87318 87.411267 -320.76372 86.947268 -320.76372 C 86.307268 -320.76372 85.77778 -320.94797 85.356447 -321.31597 L 85.747561 -321.76275 C 86.104894 -321.49075 86.499155 -321.35552 86.931155 -321.35552 C 87.208488 -321.35552 87.427405 -321.41198 87.587405 -321.52398 C 87.752738 -321.64131 87.836428 -321.79832 87.836428 -321.99566 C 87.836428 -322.13966 87.805739 -322.25456 87.747073 -322.3399 C 87.688406 -322.43056 87.58785 -322.50734 87.44385 -322.57134 C 87.29985 -322.64067 87.08837 -322.71347 86.811037 -322.78814 C 86.363038 -322.90547 86.038118 -323.06248 85.835451 -323.25982 C 85.638118 -323.45715 85.539553 -323.70728 85.539553 -324.01128 C 85.539553 -324.22995 85.603448 -324.42708 85.731447 -324.60308 C 85.864781 -324.78441 86.047036 -324.9231 86.276369 -325.0191 C 86.511036 -325.12043 86.772061 -325.17144 87.060061 -325.17144 z M 91.1001 -325.17144 C 91.660099 -325.17144 92.089031 -324.98719 92.387698 -324.61919 C 92.686364 -324.25119 92.83594 -323.74203 92.83594 -323.09136 C 92.83594 -322.96869 92.830493 -322.8429 92.819827 -322.7149 L 90.131838 -322.7149 C 90.163838 -322.2509 90.280734 -321.90964 90.483401 -321.69097 C 90.686067 -321.4723 90.947092 -321.36285 91.267092 -321.36285 C 91.469759 -321.36285 91.657461 -321.39207 91.828127 -321.45074 C 91.998794 -321.5094 92.177594 -321.60399 92.36426 -321.73199 L 92.683596 -321.29107 C 92.235597 -320.93907 91.744761 -320.76372 91.211428 -320.76372 C 90.624762 -320.76372 90.166606 -320.95541 89.83594 -321.33941 C 89.510607 -321.72341 89.348147 -322.2509 89.348147 -322.9229 C 89.348147 -323.36024 89.417488 -323.74706 89.556155 -324.08306 C 89.700154 -324.42439 89.902732 -324.69087 90.164065 -324.88286 C 90.430731 -325.07486 90.742767 -325.17144 91.1001 -325.17144 z M 91.116213 -324.58697 C 90.513547 -324.58697 90.185171 -324.14515 90.131838 -323.25982 L 92.107912 -323.25982 L 92.107912 -323.30816 C 92.107912 -323.72416 92.025687 -324.04018 91.860354 -324.25884 C 91.695021 -324.47751 91.44688 -324.58697 91.116213 -324.58697 z "
       transform="scale(1,-1)" /><path
       id="rect12916"
       style="fill:#000000;fill-opacity:1;stroke:none;stroke-width:0.75;stroke-linecap:round;stroke-linejoin:round"
       d="M 24.325196 -35.998092 C 21.159859 -35.998092 18.61084 -33.381586 18.61084 -30.132858 L 18.61084 -29.901412 C 18.61084 -26.652684 21.159859 -24.037643 24.325196 -24.037643 L 32.831544 -24.037643 C 35.996881 -24.037643 38.545899 -26.652684 38.545899 -29.901412 L 38.545899 -30.132858 C 38.545899 -33.381586 35.996881 -35.998092 32.831544 -35.998092 L 24.325196 -35.998092 z M 25.826661 -32.773971 L 26.586915 -32.773971 L 26.586915 -27.261764 L 25.826661 -27.261764 L 25.826661 -32.773971 z M 30.106934 -31.572799 C 30.490934 -31.572799 30.788621 -31.459359 31.001954 -31.230026 C 31.22062 -31.000693 31.330079 -30.685201 31.330079 -30.285201 L 31.330079 -27.261764 L 30.594727 -27.261764 L 30.594727 -30.181197 C 30.594727 -30.479864 30.53827 -30.691343 30.42627 -30.81401 C 30.31427 -30.936677 30.14982 -30.997115 29.931153 -30.997115 C 29.707153 -30.997115 29.508558 -30.933221 29.337891 -30.805221 C 29.167225 -30.677221 29.008221 -30.492975 28.858887 -30.252975 L 28.858887 -27.261764 L 28.122071 -27.261764 L 28.122071 -31.477584 L 28.754884 -31.477584 L 28.817872 -30.853561 C 28.967205 -31.077561 29.151451 -31.252905 29.370118 -31.380905 C 29.594118 -31.508904 29.840268 -31.572799 30.106934 -31.572799 z "
       transform="scale(1,-1)" /><path
       id="rect12922"
       style="fill:#000000;fill-opacity:1;stroke:none;stroke-width:0.75;stroke-linecap:round;stroke-linejoin:round"
       d="M 82.108889 -35.998092 C 78.943552 -35.998092 76.395998 -33.381586 76.395998 -30.132858 L 76.395998 -29.901412 C 76.395998 -26.652684 78.943552 -24.037643 82.108889 -24.037643 L 90.616701 -24.037643 C 93.782039 -24.037643 96.329592 -26.652684 96.329592 -29.901412 L 96.329592 -30.132858 C 96.329592 -33.381586 93.782039 -35.998092 90.616701 -35.998092 L 82.108889 -35.998092 z M 82.863283 -32.869186 C 83.327283 -32.869186 83.732437 -32.757736 84.079104 -32.533737 C 84.431103 -32.31507 84.703022 -31.992141 84.895022 -31.565475 C 85.092355 -31.138809 85.19092 -30.622205 85.19092 -30.014205 C 85.19092 -29.416873 85.092355 -28.90425 84.895022 -28.477584 C 84.703022 -28.050918 84.431103 -27.725998 84.079104 -27.501998 C 83.732437 -27.277998 83.327283 -27.165084 82.863283 -27.165084 C 82.399284 -27.165084 81.990674 -27.274543 81.638674 -27.493209 C 81.292008 -27.711876 81.020089 -28.034805 80.822756 -28.461471 C 80.630756 -28.888137 80.534182 -29.40275 80.534182 -30.005416 C 80.534182 -30.597416 80.630756 -31.110038 80.822756 -31.542037 C 81.020089 -31.974037 81.295463 -32.300948 81.647463 -32.524948 C 81.999463 -32.754281 82.404617 -32.869186 82.863283 -32.869186 z M 91.775393 -32.517623 L 91.775393 -31.477584 L 92.774416 -31.477584 L 92.695315 -30.909225 L 91.775393 -30.909225 L 91.775393 -28.397018 C 91.775393 -28.178351 91.812054 -28.019347 91.886721 -27.918014 C 91.966721 -27.822014 92.097966 -27.772994 92.279299 -27.772994 C 92.444632 -27.772994 92.63087 -27.829451 92.83887 -27.941451 L 93.118655 -27.453658 C 92.841322 -27.261659 92.527295 -27.165084 92.175295 -27.165084 C 91.817962 -27.165084 91.537141 -27.267105 91.334475 -27.469772 C 91.137142 -27.677771 91.038576 -27.975458 91.038576 -28.364791 L 91.038576 -30.909225 L 90.303225 -30.909225 L 90.303225 -31.477584 L 91.038576 -31.477584 L 91.038576 -32.429733 L 91.775393 -32.517623 z M 82.863283 -32.245162 C 82.383284 -32.245162 82.009344 -32.064372 81.742678 -31.701705 C 81.476011 -31.339039 81.342775 -30.773415 81.342775 -30.005416 C 81.342775 -29.24275 81.476011 -28.682573 81.742678 -28.32524 C 82.014678 -27.967907 82.388617 -27.789108 82.863283 -27.789108 C 83.876616 -27.789108 84.382326 -28.53154 84.382326 -30.014205 C 84.382326 -31.502204 83.876616 -32.245162 82.863283 -32.245162 z M 86.31885 -31.477584 L 87.054201 -31.477584 L 87.054201 -28.533248 C 87.054201 -28.245249 87.105212 -28.04068 87.206545 -27.918014 C 87.307878 -27.800681 87.473794 -27.740768 87.703127 -27.740768 C 88.113793 -27.740768 88.465947 -27.983462 88.75928 -28.468795 L 88.75928 -31.477584 L 89.494631 -31.477584 L 89.494631 -27.261764 L 88.863283 -27.261764 L 88.806155 -27.918014 C 88.646155 -27.656681 88.463373 -27.463532 88.255373 -27.340865 C 88.047374 -27.223532 87.793786 -27.165084 87.495119 -27.165084 C 87.12712 -27.165084 86.838861 -27.277998 86.630862 -27.501998 C 86.422862 -27.725998 86.31885 -28.04348 86.31885 -28.454147 L 86.31885 -31.477584 z "
       transform="scale(1,-1)" /></g></svg>
