<?xml version="1.0" encoding="UTF-8" standalone="no"?>
<!-- Created with Inkscape (http://www.inkscape.org/) -->

<svg
   version="1.1"
   id="svg2"
   width="152.31467"
   height="485.66934"
   viewBox="0 0 152.31467 485.66934"
   sodipodi:docname="faceplate.svg"
   inkscape:version="1.2.1 (9c6d41e410, 2022-07-14)"
   xml:space="preserve"
   xmlns:inkscape="http://www.inkscape.org/namespaces/inkscape"
   xmlns:sodipodi="http://sodipodi.sourceforge.net/DTD/sodipodi-0.dtd"
   xmlns="http://www.w3.org/2000/svg"
   xmlns:svg="http://www.w3.org/2000/svg"><defs
     id="defs6"><linearGradient
       x1="0"
       y1="0"
       x2="1"
       y2="0"
       gradientUnits="userSpaceOnUse"
       gradientTransform="matrix(114.23622,0,0,-114.23622,0,182.12599)"
       spreadMethod="pad"
       id="linearGradient28"><stop
         style="stop-opacity:1;stop-color:#cccccc"
         offset="0"
         id="stop24" /><stop
         style="stop-opacity:1;stop-color:#999999"
         offset="1"
         id="stop26" /></linearGradient><clipPath
       clipPathUnits="userSpaceOnUse"
       id="clipPath38"><path
         d="M 0,364.252 H 114.236 V 0 H 0 Z"
         id="path36" /></clipPath><clipPath
       clipPathUnits="userSpaceOnUse"
       id="clipPath46"><path
         d="M -97.3029,337.475 H 108.617 V 30.7547 H -97.3029 Z"
         id="path44" /></clipPath><clipPath
       clipPathUnits="userSpaceOnUse"
       id="clipPath50"><path
         d="m -97.303,30.755 h 205.92 v 306.72 h -205.92 z"
         id="path48" /></clipPath><clipPath
       clipPathUnits="userSpaceOnUse"
       id="clipPath72"><path
         d="M 0,364.252 H 114.236 V 0 H 0 Z"
         id="path70" /></clipPath><clipPath
       clipPathUnits="userSpaceOnUse"
       id="clipPath96"><path
         d="M 0,364.252 H 114.236 V 0 H 0 Z"
         id="path94" /></clipPath><clipPath
       clipPathUnits="userSpaceOnUse"
       id="clipPath166"><path
         d="M 0,364.252 H 114.236 V 0 H 0 Z"
         id="path164" /></clipPath><clipPath
       clipPathUnits="userSpaceOnUse"
       id="clipPath738"><path
         d="M 0,364.252 H 114.236 V 0 H 0 Z"
         id="path736" /></clipPath><clipPath
       clipPathUnits="userSpaceOnUse"
       id="clipPath746"><path
         d="M 15.4649,329.428 H 40.9767 V 303.916 H 15.4649 Z"
         id="path744" /></clipPath><clipPath
       clipPathUnits="userSpaceOnUse"
       id="clipPath762"><path
         d="M 73.0767,329.343 H 98.5885 V 303.832 H 73.0767 Z"
         id="path760" /></clipPath><clipPath
       clipPathUnits="userSpaceOnUse"
       id="clipPath778"><path
         d="M 15.4652,239.641 H 40.977 V 214.129 H 15.4652 Z"
         id="path776" /></clipPath><clipPath
       clipPathUnits="userSpaceOnUse"
       id="clipPath794"><path
         d="M 73.0767,239.641 H 98.5885 V 214.129 H 73.0767 Z"
         id="path792" /></clipPath><clipPath
       clipPathUnits="userSpaceOnUse"
       id="clipPath810"><path
         d="M 15.4652,99.0002 H 40.977 V 73.4884 H 15.4652 Z"
         id="path808" /></clipPath><clipPath
       clipPathUnits="userSpaceOnUse"
       id="clipPath826"><path
         d="M 73.0767,98.915 H 98.5885 V 73.4032 H 73.0767 Z"
         id="path824" /></clipPath><clipPath
       clipPathUnits="userSpaceOnUse"
       id="clipPath842"><path
         d="M 15.4652,63.0145 H 40.977 V 37.5027 H 15.4652 Z"
         id="path840" /></clipPath><clipPath
       clipPathUnits="userSpaceOnUse"
       id="clipPath858"><path
         d="M 73.0767,62.9293 H 98.5885 V 37.4174 H 73.0767 Z"
         id="path856" /></clipPath><clipPath
       clipPathUnits="userSpaceOnUse"
       id="clipPath874"><path
         d="m 10.2208,291.402 h 36 v -36 h -36 z"
         id="path872" /></clipPath><clipPath
       clipPathUnits="userSpaceOnUse"
       id="clipPath890"><path
         d="m 67.8326,291.402 h 36.0004 v -36 H 67.8326 Z"
         id="path888" /></clipPath><clipPath
       clipPathUnits="userSpaceOnUse"
       id="clipPath906"><path
         d="m 67.8326,197.759 h 36.0004 v -36 H 67.8326 Z"
         id="path904" /></clipPath><clipPath
       clipPathUnits="userSpaceOnUse"
       id="clipPath922"><path
         d="m 10.2211,198.107 h 36 v -36 h -36 z"
         id="path920" /></clipPath><clipPath
       clipPathUnits="userSpaceOnUse"
       id="clipPath938"><path
         d="M 70.5255,144.666 H 101.14 V 114.052 H 70.5255 Z"
         id="path936" /></clipPath><clipPath
       clipPathUnits="userSpaceOnUse"
       id="clipPath954"><path
         d="M 12.9548,144.666 H 43.569 V 114.052 H 12.9548 Z"
         id="path952" /></clipPath><clipPath
       clipPathUnits="userSpaceOnUse"
       id="clipPath11197"><g
         id="g11201"
         transform="translate(-57.1672,-305.3335)"><path
           d="M 0,364.252 H 114.236 V 0 H 0 Z"
           id="path11199" /></g></clipPath><clipPath
       clipPathUnits="userSpaceOnUse"
       id="clipPath11299"><g
         id="g11303"
         transform="translate(-63.2492,-308.5157)"><path
           d="M 0,364.252 H 114.236 V 0 H 0 Z"
           id="path11301" /></g></clipPath><clipPath
       clipPathUnits="userSpaceOnUse"
       id="clipPath11203"><g
         id="g11207"
         transform="translate(-57.1179,-334.5225)"><path
           d="M 0,364.252 H 114.236 V 0 H 0 Z"
           id="path11205" /></g></clipPath></defs><sodipodi:namedview
     id="namedview4"
     pagecolor="#ffffff"
     bordercolor="#999999"
     borderopacity="1"
     inkscape:showpageshadow="0"
     inkscape:pageopacity="0"
     inkscape:pagecheckerboard="0"
     inkscape:deskcolor="#d1d1d1"
     showgrid="false"
     inkscape:zoom="2.9905065"
     inkscape:cx="5.6846558"
     inkscape:cy="223.54073"
     inkscape:window-width="3840"
     inkscape:window-height="2109"
     inkscape:window-x="0"
     inkscape:window-y="24"
     inkscape:window-maximized="1"
     inkscape:current-layer="g10"><inkscape:page
       x="0"
       y="0"
       id="page8"
       width="152.31467"
       height="485.66934" /></sodipodi:namedview><g
     id="g10"
     inkscape:groupmode="layer"
     inkscape:label="Page 1"
     transform="matrix(1.3333333,0,0,-1.3333333,0,485.66933)"><path
       id="rect4543"
       style="opacity:0.596664;fill:none;stroke:#000000;stroke-width:0.75;stroke-linecap:round;stroke-linejoin:round"
       transform="scale(1,-1)"
       d="M 2.0000001e-4,-364.25162 H 114.23599 V 0 H 2.0000001e-4 Z" /><path
       id="rect3797"
       style="opacity:1;fill:#010101;stroke-width:0.780006;stroke-linecap:round;stroke-linejoin:round;stroke-dasharray:0.780006, 0.780006"
       d="M 56.097658 -305.10894 C 52.673977 -305.10894 49.917482 -302.44238 49.917482 -299.12945 L 49.917482 -298.72515 C 49.917482 -295.41221 52.673977 -292.74566 56.097658 -292.74566 L 59.107912 -292.74566 C 62.531593 -292.74566 65.288088 -295.41221 65.288088 -298.72515 L 65.288088 -299.12945 C 65.288088 -302.44238 62.531593 -305.10894 59.107912 -305.10894 L 56.097658 -305.10894 z M 57.402833 -302.53521 L 58.353517 -302.53521 L 60.1084 -295.36919 L 59.387697 -295.36919 C 59.304364 -295.36919 59.239539 -295.38925 59.192873 -295.42925 C 59.146206 -295.47258 59.113263 -295.52811 59.093263 -295.59478 L 58.703615 -297.34527 L 55.788576 -297.34527 L 54.968263 -295.59478 C 54.938263 -295.53478 54.890971 -295.48178 54.827638 -295.43511 C 54.767638 -295.39178 54.699227 -295.36919 54.62256 -295.36919 L 53.893068 -295.36919 L 57.402833 -302.53521 z M 57.777833 -301.6856 C 57.727834 -301.5456 57.678419 -301.41701 57.628419 -301.30034 L 57.493654 -300.9854 L 56.107912 -298.02495 L 58.552736 -298.02495 L 57.897951 -300.9898 C 57.881284 -301.0798 57.861225 -301.18368 57.837892 -301.30034 C 57.814559 -301.42034 57.7945 -301.54893 57.777833 -301.6856 z "
       transform="scale(1,-1)" /><g
       id="g68"
       clip-path="url(#clipPath72)"
       transform="matrix(0.9985642,0,0,0.99462828,0.01831547,1.9353414)"><g
         id="g74"
         transform="translate(25.2282,351.2124)"><path
           d="m 0,0 h -7.937 c -2.494,0 -4.535,2.041 -4.535,4.536 0,2.494 2.041,4.535 4.535,4.535 H 0 C 2.495,9.071 4.536,7.03 4.536,4.536 4.536,2.041 2.495,0 0,0"
           style="fill:#005928;fill-opacity:1;fill-rule:nonzero;stroke:none"
           id="path76" /></g><g
         id="g78"
         transform="translate(25.2282,3.9688)"><path
           d="m 0,0 h -7.937 c -2.494,0 -4.535,2.041 -4.535,4.535 0,2.494 2.041,4.535 4.535,4.535 H 0 C 2.495,9.07 4.536,7.029 4.536,4.535 4.536,2.041 2.495,0 0,0"
           style="fill:#005928;fill-opacity:1;fill-rule:nonzero;stroke:none"
           id="path80" /></g><g
         id="g82"
         transform="translate(96.9445,351.2124)"><path
           d="m 0,0 h -7.937 c -2.494,0 -4.535,2.041 -4.535,4.536 0,2.494 2.041,4.535 4.535,4.535 H 0 C 2.495,9.071 4.536,7.03 4.536,4.536 4.536,2.041 2.495,0 0,0"
           style="fill:#005928;fill-opacity:1;fill-rule:nonzero;stroke:none"
           id="path84" /></g><g
         id="g86"
         transform="translate(96.9445,3.9688)"><path
           d="m 0,0 h -7.937 c -2.494,0 -4.535,2.041 -4.535,4.535 0,2.494 2.041,4.535 4.535,4.535 H 0 C 2.495,9.07 4.536,7.029 4.536,4.535 4.536,2.041 2.495,0 0,0"
           style="fill:#005928;fill-opacity:1;fill-rule:nonzero;stroke:none"
           id="path88" /></g></g><g
       aria-label="Dual Mixer"
       transform="scale(1,-1)"
       id="text2689"
       style="font-size:10px;line-height:1.25;-inkscape-font-specification:OpenSans-Semibold;stroke-width:0.75"><path
         d="m 39.431339,-355.57789 q 0,0.805 -0.255,1.465 -0.255,0.66 -0.72,1.13 -0.465,0.47 -1.12,0.73 -0.65,0.255 -1.44,0.255 h -2.675 v -7.165 h 2.675 q 0.79,0 1.44,0.26 0.655,0.255 1.12,0.73 0.465,0.47 0.72,1.13 0.255,0.66 0.255,1.465 z m -0.995,0 q 0,-0.66 -0.18,-1.18 -0.18,-0.52 -0.51,-0.88 -0.33,-0.36 -0.8,-0.55 -0.47,-0.19 -1.05,-0.19 h -1.705 v 5.595 h 1.705 q 0.58,0 1.05,-0.19 0.47,-0.19 0.8,-0.545 0.33,-0.36 0.51,-0.88 0.18,-0.52 0.18,-1.18 z"
         style="font-family:Lato;-inkscape-font-specification:Lato"
         id="path4255" /><path
         d="m 44.701345,-357.06289 v 5.065 h -0.53 q -0.19,0 -0.24,-0.185 l -0.07,-0.545 q -0.33,0.365 -0.74,0.59 -0.41,0.22 -0.94,0.22 -0.415,0 -0.735,-0.135 -0.315,-0.14 -0.53,-0.39 -0.215,-0.25 -0.325,-0.605 -0.105,-0.355 -0.105,-0.785 v -3.23 h 0.89 v 3.23 q 0,0.575 0.26,0.89 0.265,0.315 0.805,0.315 0.395,0 0.735,-0.185 0.345,-0.19 0.635,-0.52 v -3.73 z"
         style="font-family:Lato;-inkscape-font-specification:Lato"
         id="path4257" /><path
         d="m 48.856353,-354.27789 q -0.615,0.02 -1.05,0.1 -0.43,0.075 -0.705,0.2 -0.27,0.125 -0.395,0.295 -0.12,0.17 -0.12,0.38 0,0.2 0.065,0.345 0.065,0.145 0.175,0.24 0.115,0.09 0.265,0.135 0.155,0.04 0.33,0.04 0.235,0 0.43,-0.045 0.195,-0.05 0.365,-0.14 0.175,-0.09 0.33,-0.215 0.16,-0.125 0.31,-0.285 z m -2.875,-2.07 q 0.42,-0.405 0.905,-0.605 0.485,-0.2 1.075,-0.2 0.425,0 0.755,0.14 0.33,0.14 0.555,0.39 0.225,0.25 0.34,0.605 0.115,0.355 0.115,0.78 v 3.24 h -0.395 q -0.13,0 -0.2,-0.04 -0.07,-0.045 -0.11,-0.17 l -0.1,-0.48 q -0.2,0.185 -0.39,0.33 -0.19,0.14 -0.4,0.24 -0.21,0.095 -0.45,0.145 -0.235,0.055 -0.525,0.055 -0.295,0 -0.555,-0.08 -0.26,-0.085 -0.455,-0.25 -0.19,-0.165 -0.305,-0.415 -0.11,-0.255 -0.11,-0.6 0,-0.3 0.165,-0.575 0.165,-0.28 0.535,-0.495 0.37,-0.215 0.965,-0.35 0.595,-0.14 1.46,-0.16 v -0.395 q 0,-0.59 -0.255,-0.89 -0.255,-0.305 -0.745,-0.305 -0.33,0 -0.555,0.085 -0.22,0.08 -0.385,0.185 -0.16,0.1 -0.28,0.185 -0.115,0.08 -0.23,0.08 -0.09,0 -0.155,-0.045 -0.065,-0.05 -0.11,-0.12 z"
         style="font-family:Lato;-inkscape-font-specification:Lato"
         id="path4259" /><path
         d="m 52.00135,-359.36289 v 7.365 h -0.89 v -7.365 z"
         style="font-family:Lato;-inkscape-font-specification:Lato"
         id="path4261" /><path
         d="m 63.666356,-359.16289 v 7.165 h -0.85 v -5.265 q 0,-0.105 0.005,-0.225 0.01,-0.12 0.02,-0.245 l -2.46,4.48 q -0.115,0.225 -0.35,0.225 h -0.14 q -0.235,0 -0.35,-0.225 l -2.51,-4.5 q 0.03,0.265 0.03,0.49 v 5.265 h -0.85 v -7.165 h 0.715 q 0.13,0 0.2,0.025 0.07,0.025 0.135,0.14 l 2.475,4.41 q 0.06,0.12 0.115,0.25 0.06,0.13 0.11,0.265 0.05,-0.135 0.105,-0.265 0.055,-0.135 0.12,-0.255 l 2.43,-4.405 q 0.06,-0.115 0.13,-0.14 0.075,-0.025 0.205,-0.025 z"
         style="font-family:Lato;-inkscape-font-specification:Lato"
         id="path4263" /><path
         d="m 66.151351,-357.06289 v 5.065 h -0.89 v -5.065 z m 0.19,-1.59 q 0,0.13 -0.055,0.245 -0.05,0.11 -0.14,0.2 -0.085,0.085 -0.205,0.135 -0.115,0.05 -0.245,0.05 -0.13,0 -0.245,-0.05 -0.11,-0.05 -0.195,-0.135 -0.085,-0.09 -0.135,-0.2 -0.05,-0.115 -0.05,-0.245 0,-0.13 0.05,-0.245 0.05,-0.12 0.135,-0.205 0.085,-0.09 0.195,-0.14 0.115,-0.05 0.245,-0.05 0.13,0 0.245,0.05 0.12,0.05 0.205,0.14 0.09,0.085 0.14,0.205 0.055,0.115 0.055,0.245 z"
         style="font-family:Lato;-inkscape-font-specification:Lato"
         id="path4265" /><path
         d="m 71.771349,-351.99789 h -0.855 q -0.11,0 -0.175,-0.055 -0.06,-0.06 -0.1,-0.13 l -1.275,-1.985 q -0.02,0.07 -0.045,0.14 -0.02,0.065 -0.06,0.12 l -1.18,1.725 q -0.05,0.07 -0.11,0.13 -0.055,0.055 -0.155,0.055 h -0.795 l 1.775,-2.6 -1.705,-2.465 h 0.855 q 0.11,0 0.16,0.035 0.05,0.035 0.09,0.1 l 1.245,1.9 q 0.04,-0.145 0.125,-0.28 l 1.09,-1.6 q 0.045,-0.07 0.095,-0.11 0.055,-0.045 0.13,-0.045 h 0.82 l -1.705,2.42 z"
         style="font-family:Lato;-inkscape-font-specification:Lato"
         id="path4267" /><path
         d="m 75.75635,-355.08289 q 0,-0.31 -0.09,-0.565 -0.085,-0.26 -0.255,-0.445 -0.165,-0.19 -0.405,-0.29 -0.24,-0.105 -0.545,-0.105 -0.64,0 -1.015,0.375 -0.37,0.37 -0.46,1.03 z m 0.72,2.375 q -0.165,0.2 -0.395,0.35 -0.23,0.145 -0.495,0.24 -0.26,0.095 -0.54,0.14 -0.28,0.05 -0.555,0.05 -0.525,0 -0.97,-0.175 -0.44,-0.18 -0.765,-0.52 -0.32,-0.345 -0.5,-0.85 -0.18,-0.505 -0.18,-1.16 0,-0.53 0.16,-0.99 0.165,-0.46 0.47,-0.795 0.305,-0.34 0.745,-0.53 0.44,-0.195 0.99,-0.195 0.455,0 0.84,0.155 0.39,0.15 0.67,0.44 0.285,0.285 0.445,0.71 0.16,0.42 0.16,0.96 0,0.21 -0.045,0.28 -0.045,0.07 -0.17,0.07 h -3.385 q 0.015,0.48 0.13,0.835 0.12,0.355 0.33,0.595 0.21,0.235 0.5,0.355 0.29,0.115 0.65,0.115 0.335,0 0.575,-0.075 0.245,-0.08 0.42,-0.17 0.175,-0.09 0.29,-0.165 0.12,-0.08 0.205,-0.08 0.11,0 0.17,0.085 z"
         style="font-family:Lato;-inkscape-font-specification:Lato"
         id="path4269" /><path
         d="m 78.491349,-356.04789 q 0.24,-0.52 0.59,-0.81 0.35,-0.295 0.855,-0.295 0.16,0 0.305,0.035 0.15,0.035 0.265,0.11 l -0.065,0.665 q -0.03,0.125 -0.15,0.125 -0.07,0 -0.205,-0.03 -0.135,-0.03 -0.305,-0.03 -0.24,0 -0.43,0.07 -0.185,0.07 -0.335,0.21 -0.145,0.135 -0.265,0.34 -0.115,0.2 -0.21,0.46 v 3.2 h -0.895 v -5.065 h 0.51 q 0.145,0 0.2,0.055 0.055,0.055 0.075,0.19 z"
         style="font-family:Lato;-inkscape-font-specification:Lato"
         id="path4271" /></g><g
       inkscape:groupmode="layer"
       id="layer1"
       inkscape:label="Layer 1"
       style="display:inline" /><g
       id="g3319"
       transform="translate(57.4003,324.56485)"
       clip-path="url(#clipPath11203)" /><g
       aria-label="1"
       transform="scale(1,-1)"
       id="text3569"
       style="font-size:10px;line-height:1.25;-inkscape-font-specification:OpenSans-Semibold;stroke-width:0.75"><path
         d="m 53.212822,-331.1074 v 0.68 h -3.84 v -0.68 h 1.535 v -4.885 q 0,-0.22 0.015,-0.445 l -1.275,1.095 q -0.065,0.055 -0.13,0.07 -0.065,0.01 -0.12,0 -0.055,-0.01 -0.105,-0.04 -0.045,-0.03 -0.07,-0.065 l -0.28,-0.385 2.135,-1.845 h 0.725 v 6.5 z"
         style="font-family:Lato;-inkscape-font-specification:Lato"
         id="path4252" /></g><g
       aria-label="2"
       transform="scale(1,-1)"
       id="text3573"
       style="font-size:10px;line-height:1.25;-inkscape-font-specification:OpenSans-Semibold;stroke-width:0.75"><path
         d="m 66.307162,-331.2724 q 0.145,0 0.23,0.085 0.085,0.085 0.085,0.22 v 0.54 h -4.78 v -0.305 q 0,-0.095 0.04,-0.195 0.04,-0.1 0.125,-0.185 l 2.295,-2.305 q 0.285,-0.29 0.52,-0.555 0.235,-0.27 0.4,-0.54 0.165,-0.27 0.255,-0.545 0.09,-0.28 0.09,-0.595 0,-0.315 -0.1,-0.55 -0.1,-0.24 -0.275,-0.395 -0.17,-0.155 -0.405,-0.23 -0.235,-0.08 -0.505,-0.08 -0.275,0 -0.505,0.08 -0.23,0.08 -0.41,0.225 -0.175,0.14 -0.295,0.335 -0.12,0.195 -0.17,0.43 -0.06,0.175 -0.165,0.235 -0.1,0.055 -0.285,0.03 l -0.465,-0.08 q 0.07,-0.49 0.27,-0.865 0.205,-0.38 0.51,-0.635 0.31,-0.255 0.705,-0.385 0.395,-0.135 0.855,-0.135 0.455,0 0.85,0.135 0.395,0.135 0.685,0.395 0.29,0.255 0.455,0.625 0.165,0.37 0.165,0.84 0,0.4 -0.12,0.745 -0.12,0.34 -0.325,0.65 -0.205,0.31 -0.475,0.605 -0.265,0.295 -0.565,0.595 l -1.89,1.93 q 0.2,-0.055 0.405,-0.085 0.205,-0.035 0.395,-0.035 z"
         style="font-family:Lato;-inkscape-font-specification:Lato"
         id="path4249" /></g><g
       aria-label="3"
       transform="scale(1,-1)"
       id="text3577"
       style="font-size:10px;line-height:1.25;-inkscape-font-specification:OpenSans-Semibold;stroke-width:0.75"><path
         d="m 48.892821,-267.98913 q 0.07,-0.49 0.27,-0.865 0.2,-0.38 0.505,-0.635 0.31,-0.255 0.705,-0.385 0.4,-0.135 0.86,-0.135 0.455,0 0.84,0.13 0.385,0.13 0.66,0.37 0.28,0.24 0.435,0.58 0.155,0.34 0.155,0.755 0,0.34 -0.09,0.61 -0.085,0.265 -0.25,0.465 -0.16,0.2 -0.39,0.34 -0.23,0.14 -0.515,0.23 0.7,0.18 1.05,0.62 0.355,0.435 0.355,1.09 0,0.495 -0.19,0.89 -0.185,0.395 -0.51,0.675 -0.325,0.275 -0.76,0.425 -0.43,0.145 -0.925,0.145 -0.57,0 -0.975,-0.14 -0.405,-0.145 -0.685,-0.395 -0.28,-0.25 -0.46,-0.59 -0.18,-0.345 -0.305,-0.745 l 0.385,-0.16 q 0.15,-0.065 0.29,-0.035 0.145,0.03 0.21,0.165 0.065,0.14 0.16,0.335 0.1,0.195 0.27,0.375 0.17,0.18 0.43,0.305 0.265,0.125 0.67,0.125 0.375,0 0.655,-0.12 0.285,-0.125 0.47,-0.32 0.19,-0.195 0.285,-0.435 0.095,-0.24 0.095,-0.475 0,-0.29 -0.075,-0.53 -0.075,-0.24 -0.28,-0.415 -0.205,-0.175 -0.565,-0.275 -0.355,-0.1 -0.915,-0.1 v -0.645 q 0.46,-0.005 0.78,-0.1 0.325,-0.095 0.525,-0.26 0.205,-0.165 0.295,-0.395 0.095,-0.23 0.095,-0.51 0,-0.31 -0.1,-0.54 -0.095,-0.23 -0.265,-0.38 -0.17,-0.15 -0.405,-0.225 -0.23,-0.075 -0.5,-0.075 -0.27,0 -0.505,0.08 -0.23,0.08 -0.41,0.225 -0.175,0.14 -0.295,0.335 -0.12,0.195 -0.17,0.43 -0.065,0.175 -0.165,0.235 -0.095,0.055 -0.28,0.03 z"
         style="font-family:Lato;-inkscape-font-specification:Lato"
         id="path4246" /></g><g
       aria-label="4"
       transform="scale(1,-1)"
       id="text3581"
       style="font-size:10px;line-height:1.25;-inkscape-font-specification:OpenSans-Semibold;stroke-width:0.75"><path
         d="m 64.623068,-265.34913 v -2.955 q 0,-0.13 0.01,-0.285 0.01,-0.155 0.03,-0.315 l -2.61,3.555 z m 1.865,0 v 0.51 q 0,0.08 -0.05,0.135 -0.045,0.055 -0.145,0.055 h -0.89 v 1.885 h -0.78 v -1.885 h -3.18 q -0.1,0 -0.175,-0.055 -0.07,-0.06 -0.09,-0.145 l -0.09,-0.455 3.485,-4.625 h 0.83 v 4.58 z"
         style="font-family:Lato;-inkscape-font-specification:Lato"
         id="path4243" /></g><path
       style="fill:none;stroke:#000000;stroke-width:0.75px;stroke-linecap:butt;stroke-linejoin:miter;stroke-opacity:1"
       d="M 57.541815,334.03365 V 305.10939"
       id="path3643" /><path
       style="fill:none;stroke:#000000;stroke-width:0.75px;stroke-linecap:butt;stroke-linejoin:miter;stroke-opacity:1"
       d="m 54.946738,266.34663 h 5.312619"
       id="path3645" /><path
       style="fill:none;stroke:#000000;stroke-width:0.75px;stroke-linecap:butt;stroke-linejoin:miter;stroke-opacity:1"
       d="m 57.535215,292.74568 0.0066,-26.44608"
       id="path3647"
       sodipodi:nodetypes="cc" /><path
       id="rect3799"
       style="opacity:1;fill:#010101;stroke-width:0.780006;stroke-linecap:round;stroke-linejoin:round;stroke-dasharray:0.780006, 0.780006"
       d="M 56.097658 -225.74956 C 52.673977 -225.74956 49.917482 -223.08154 49.917482 -219.7686 L 49.917482 -219.36577 C 49.917482 -216.05283 52.673977 -213.38628 56.097658 -213.38628 L 59.107912 -213.38628 C 62.531593 -213.38628 65.288088 -216.05283 65.288088 -219.36577 L 65.288088 -219.7686 C 65.288088 -223.08154 62.531593 -225.74956 59.107912 -225.74956 L 56.097658 -225.74956 z M 55.587892 -223.17437 L 57.71338 -223.17437 C 58.08338 -223.17437 58.401792 -223.13678 58.668458 -223.06011 C 58.938458 -222.98678 59.160164 -222.87931 59.333498 -222.73931 C 59.506831 -222.60264 59.635418 -222.4354 59.718751 -222.2354 C 59.802085 -222.03874 59.843263 -221.81809 59.843263 -221.57476 C 59.843263 -221.36476 59.811382 -221.16205 59.748048 -220.96538 C 59.688048 -220.77205 59.595991 -220.59258 59.472658 -220.42925 C 59.352658 -220.26592 59.199363 -220.12086 59.012697 -219.99419 C 58.829364 -219.86752 58.614832 -219.76617 58.368166 -219.6895 C 58.798165 -219.59284 59.120164 -219.42413 59.333498 -219.18413 C 59.550164 -218.94413 59.658693 -218.63648 59.658693 -218.25982 C 59.658693 -217.92982 59.598517 -217.62681 59.478517 -217.35015 C 59.361851 -217.07681 59.192085 -216.8397 58.968751 -216.6397 C 58.745418 -216.4397 58.471772 -216.28534 58.148439 -216.17534 C 57.828439 -216.06534 57.466323 -216.00982 57.06299 -216.00982 L 54.707521 -216.00982 L 55.587892 -223.17437 z M 56.433107 -222.43901 L 56.128419 -219.94439 L 57.282716 -219.94439 C 57.552716 -219.94439 57.788771 -219.97985 57.988771 -220.04985 C 58.192104 -220.12319 58.359344 -220.22348 58.492677 -220.35015 C 58.629344 -220.48015 58.730698 -220.6345 58.797365 -220.8145 C 58.864031 -220.9945 58.898439 -221.19256 58.898439 -221.40923 C 58.898439 -221.75256 58.794559 -222.00974 58.587892 -222.17974 C 58.381226 -222.35307 58.061752 -222.43901 57.628419 -222.43901 L 56.433107 -222.43901 z M 56.043458 -219.28521 L 55.732912 -216.74956 L 57.137697 -216.74956 C 57.404363 -216.74956 57.637892 -216.78503 57.837892 -216.85503 C 58.037892 -216.92503 58.203009 -217.02532 58.333009 -217.15532 C 58.466342 -217.28532 58.566636 -217.44074 58.633302 -217.62407 C 58.699969 -217.80741 58.732912 -218.01517 58.732912 -218.24517 C 58.732912 -218.56183 58.626909 -218.8129 58.413576 -218.99956 C 58.203576 -219.18956 57.881577 -219.28521 57.448244 -219.28521 L 56.043458 -219.28521 z "
       transform="scale(1,-1)" /><g
       aria-label="1"
       transform="scale(1,-1)"
       id="text3803"
       style="font-size:10px;line-height:1.25;-inkscape-font-specification:OpenSans-Semibold;stroke-width:0.75"><path
         d="m 53.212822,-251.74725 v 0.68 h -3.84 v -0.68 h 1.535 v -4.885 q 0,-0.22 0.015,-0.445 l -1.275,1.095 q -0.065,0.055 -0.13,0.07 -0.065,0.01 -0.12,0 -0.055,-0.01 -0.105,-0.04 -0.045,-0.03 -0.07,-0.065 l -0.28,-0.385 2.135,-1.845 h 0.725 v 6.5 z"
         style="font-family:Lato;-inkscape-font-specification:Lato"
         id="path4240" /></g><g
       aria-label="2"
       transform="scale(1,-1)"
       id="text3807"
       style="font-size:10px;line-height:1.25;-inkscape-font-specification:OpenSans-Semibold;stroke-width:0.75"><path
         d="m 66.307162,-251.91225 q 0.145,0 0.23,0.085 0.085,0.085 0.085,0.22 v 0.54 h -4.78 v -0.305 q 0,-0.095 0.04,-0.195 0.04,-0.1 0.125,-0.185 l 2.295,-2.305 q 0.285,-0.29 0.52,-0.555 0.235,-0.27 0.4,-0.54 0.165,-0.27 0.255,-0.545 0.09,-0.28 0.09,-0.595 0,-0.315 -0.1,-0.55 -0.1,-0.24 -0.275,-0.395 -0.17,-0.155 -0.405,-0.23 -0.235,-0.08 -0.505,-0.08 -0.275,0 -0.505,0.08 -0.23,0.08 -0.41,0.225 -0.175,0.14 -0.295,0.335 -0.12,0.195 -0.17,0.43 -0.06,0.175 -0.165,0.235 -0.1,0.055 -0.285,0.03 l -0.465,-0.08 q 0.07,-0.49 0.27,-0.865 0.205,-0.38 0.51,-0.635 0.31,-0.255 0.705,-0.385 0.395,-0.135 0.855,-0.135 0.455,0 0.85,0.135 0.395,0.135 0.685,0.395 0.29,0.255 0.455,0.625 0.165,0.37 0.165,0.84 0,0.4 -0.12,0.745 -0.12,0.34 -0.325,0.65 -0.205,0.31 -0.475,0.605 -0.265,0.295 -0.565,0.595 l -1.89,1.93 q 0.2,-0.055 0.405,-0.085 0.205,-0.035 0.395,-0.035 z"
         style="font-family:Lato;-inkscape-font-specification:Lato"
         id="path4237" /></g><g
       aria-label="3"
       transform="scale(1,-1)"
       id="text3811"
       style="font-size:10px;line-height:1.25;-inkscape-font-specification:OpenSans-Semibold;stroke-width:0.75"><path
         d="m 48.892821,-188.62898 q 0.07,-0.49 0.27,-0.865 0.2,-0.38 0.505,-0.635 0.31,-0.255 0.705,-0.385 0.4,-0.135 0.86,-0.135 0.455,0 0.84,0.13 0.385,0.13 0.66,0.37 0.28,0.24 0.435,0.58 0.155,0.34 0.155,0.755 0,0.34 -0.09,0.61 -0.085,0.265 -0.25,0.465 -0.16,0.2 -0.39,0.34 -0.23,0.14 -0.515,0.23 0.7,0.18 1.05,0.62 0.355,0.435 0.355,1.09 0,0.495 -0.19,0.89 -0.185,0.395 -0.51,0.675 -0.325,0.275 -0.76,0.425 -0.43,0.145 -0.925,0.145 -0.57,0 -0.975,-0.14 -0.405,-0.145 -0.685,-0.395 -0.28,-0.25 -0.46,-0.59 -0.18,-0.345 -0.305,-0.745 l 0.385,-0.16 q 0.15,-0.065 0.29,-0.035 0.145,0.03 0.21,0.165 0.065,0.14 0.16,0.335 0.1,0.195 0.27,0.375 0.17,0.18 0.43,0.305 0.265,0.125 0.67,0.125 0.375,0 0.655,-0.12 0.285,-0.125 0.47,-0.32 0.19,-0.195 0.285,-0.435 0.095,-0.24 0.095,-0.475 0,-0.29 -0.075,-0.53 -0.075,-0.24 -0.28,-0.415 -0.205,-0.175 -0.565,-0.275 -0.355,-0.1 -0.915,-0.1 v -0.645 q 0.46,-0.005 0.78,-0.1 0.325,-0.095 0.525,-0.26 0.205,-0.165 0.295,-0.395 0.095,-0.23 0.095,-0.51 0,-0.31 -0.1,-0.54 -0.095,-0.23 -0.265,-0.38 -0.17,-0.15 -0.405,-0.225 -0.23,-0.075 -0.5,-0.075 -0.27,0 -0.505,0.08 -0.23,0.08 -0.41,0.225 -0.175,0.14 -0.295,0.335 -0.12,0.195 -0.17,0.43 -0.065,0.175 -0.165,0.235 -0.095,0.055 -0.28,0.03 z"
         style="font-family:Lato;-inkscape-font-specification:Lato"
         id="path4234" /></g><g
       aria-label="4"
       transform="scale(1,-1)"
       id="text3815"
       style="font-size:10px;line-height:1.25;-inkscape-font-specification:OpenSans-Semibold;stroke-width:0.75"><path
         d="m 64.623068,-185.98898 v -2.955 q 0,-0.13 0.01,-0.285 0.01,-0.155 0.03,-0.315 l -2.61,3.555 z m 1.865,0 v 0.51 q 0,0.08 -0.05,0.135 -0.045,0.055 -0.145,0.055 h -0.89 v 1.885 h -0.78 v -1.885 h -3.18 q -0.1,0 -0.175,-0.055 -0.07,-0.06 -0.09,-0.145 l -0.09,-0.455 3.485,-4.625 h 0.83 v 4.58 z"
         style="font-family:Lato;-inkscape-font-specification:Lato"
         id="path4231" /></g><path
       style="fill:none;stroke:#000000;stroke-width:0.75px;stroke-linecap:butt;stroke-linejoin:miter;stroke-opacity:1"
       d="M 57.541815,254.6735 V 225.74924"
       id="path3823" /><path
       style="fill:none;stroke:#000000;stroke-width:0.75px;stroke-linecap:butt;stroke-linejoin:miter;stroke-opacity:1"
       d="m 54.946738,186.98648 h 5.312619"
       id="path3825" /><path
       style="fill:none;stroke:#000000;stroke-width:0.75px;stroke-linecap:butt;stroke-linejoin:miter;stroke-opacity:1"
       d="m 57.535215,213.38553 0.0066,-26.44608"
       id="path3827"
       sodipodi:nodetypes="cc" /><path
       style="fill:none;stroke:#000000;stroke-width:0.75px;stroke-linecap:butt;stroke-linejoin:miter;stroke-opacity:1"
       d="m 54.946738,254.6735 h 5.312619"
       id="path3829" /><path
       style="fill:none;stroke:#000000;stroke-width:0.75px;stroke-linecap:butt;stroke-linejoin:miter;stroke-opacity:1"
       d="m 54.946738,334.03365 h 5.312619"
       id="path3831" /><path
       id="rect3937"
       style="opacity:1;fill:#010101;stroke-width:0.780006;stroke-linecap:round;stroke-linejoin:round;stroke-dasharray:0.780006, 0.780006"
       d="M 52.93799 -159.3189 C 49.514309 -159.3189 46.757814 -156.65088 46.757814 -153.33794 L 46.757814 -152.93511 C 46.757814 -149.62217 49.514309 -146.95561 52.93799 -146.95561 L 62.118166 -146.95561 C 65.541847 -146.95561 68.298342 -149.62217 68.298342 -152.93511 L 68.298342 -153.33794 C 68.298342 -156.65088 65.541847 -159.3189 62.118166 -159.3189 L 52.93799 -159.3189 z M 51.634279 -156.87407 C 51.714279 -156.87407 51.790926 -156.8576 51.864259 -156.82427 C 51.940926 -156.79093 52.008276 -156.74364 52.064943 -156.68364 C 52.121609 -156.62698 52.166375 -156.55856 52.199708 -156.47856 C 52.236375 -156.4019 52.253908 -156.3206 52.253908 -156.23393 C 52.253908 -156.14727 52.236375 -156.06597 52.199708 -155.98931 C 52.166375 -155.91597 52.119083 -155.84862 52.059083 -155.78862 C 52.002417 -155.73196 51.936531 -155.68719 51.859865 -155.65386 C 51.786531 -155.62052 51.709884 -155.60405 51.629884 -155.60405 C 51.553218 -155.60405 51.477631 -155.62052 51.404298 -155.65386 C 51.330965 -155.68719 51.266141 -155.73196 51.209474 -155.78862 C 51.156141 -155.84862 51.112436 -155.91597 51.079103 -155.98931 C 51.04577 -156.06597 51.029298 -156.14727 51.029298 -156.23393 C 51.029298 -156.3206 51.04577 -156.4019 51.079103 -156.47856 C 51.112436 -156.55523 51.157202 -156.62258 51.213868 -156.67925 C 51.270535 -156.73925 51.335359 -156.78507 51.408693 -156.81841 C 51.482026 -156.85507 51.557612 -156.87407 51.634279 -156.87407 z M 62.929689 -156.7437 L 63.878908 -156.7437 L 65.633791 -149.57915 L 64.914552 -149.57915 C 64.831219 -149.57915 64.766395 -149.59921 64.719728 -149.63921 C 64.673062 -149.68254 64.638654 -149.73807 64.618654 -149.80474 L 64.229006 -151.55376 L 61.313966 -151.55376 L 60.493654 -149.80474 C 60.463654 -149.74474 60.417827 -149.69027 60.354494 -149.6436 C 60.294494 -149.60027 60.226082 -149.57915 60.149416 -149.57915 L 59.419923 -149.57915 L 62.929689 -156.7437 z M 63.304689 -155.89409 C 63.254689 -155.75409 63.20381 -155.6255 63.15381 -155.50884 L 63.019045 -155.1939 L 61.634767 -152.23345 L 64.079591 -152.23345 L 63.424806 -155.19976 C 63.40814 -155.28976 63.388081 -155.39217 63.364748 -155.50884 C 63.341414 -155.62884 63.321356 -155.75742 63.304689 -155.89409 z M 55.918947 -154.71929 C 56.13228 -154.71929 56.319982 -154.67558 56.479982 -154.58892 C 56.643315 -154.50558 56.774025 -154.38311 56.874025 -154.21977 C 56.977358 -154.05644 57.048296 -153.85479 57.084962 -153.61479 C 57.121629 -153.37813 57.121629 -153.10807 57.084962 -152.80474 L 56.704103 -149.57915 L 55.819337 -149.57915 L 56.198732 -152.80474 C 56.245398 -153.20474 56.220691 -153.4995 56.124025 -153.6895 C 56.027358 -153.88283 55.849357 -153.97954 55.589357 -153.97954 C 55.429357 -153.97954 55.265301 -153.93584 55.098634 -153.84917 C 54.935301 -153.7625 54.777358 -153.63856 54.624025 -153.47856 C 54.470692 -153.31856 54.328159 -153.12515 54.194826 -152.89849 C 54.064826 -152.67515 53.95271 -152.42515 53.859376 -152.14849 L 53.569337 -149.57915 L 52.678712 -149.57915 L 53.289552 -154.64897 L 53.729005 -154.64897 C 53.929005 -154.64897 54.029298 -154.54868 54.029298 -154.34868 L 53.954591 -153.36431 C 54.224591 -153.81097 54.528654 -154.14692 54.868654 -154.37358 C 55.208653 -154.60358 55.558947 -154.71929 55.918947 -154.71929 z M 51.039552 -154.64458 L 51.914064 -154.64458 L 51.304689 -149.57915 L 50.428712 -149.57915 L 51.039552 -154.64458 z "
       transform="scale(1,-1)" /><g
       aria-label="1"
       transform="scale(1,-1)"
       id="text3941"
       style="font-size:10px;line-height:1.25;-inkscape-font-specification:OpenSans-Semibold;stroke-width:0.75"><path
         d="m 48.40282,-163.97294 v 0.68 h -3.84 v -0.68 h 1.535 v -4.885 q 0,-0.22 0.015,-0.445 l -1.275,1.095 q -0.065,0.055 -0.13,0.07 -0.065,0.01 -0.12,0 -0.055,-0.01 -0.105,-0.04 -0.045,-0.03 -0.07,-0.065 l -0.28,-0.385 2.135,-1.845 h 0.725 v 6.5 z"
         style="font-family:Lato;-inkscape-font-specification:Lato"
         id="path4228" /></g><g
       aria-label="2"
       transform="scale(1,-1)"
       id="text3945"
       style="font-size:10px;line-height:1.25;-inkscape-font-specification:OpenSans-Semibold;stroke-width:0.75"><path
         d="m 70.81737,-164.13794 q 0.145,0 0.23,0.085 0.085,0.085 0.085,0.22 v 0.54 h -4.78 v -0.305 q 0,-0.095 0.04,-0.195 0.04,-0.1 0.125,-0.185 l 2.295,-2.305 q 0.285,-0.29 0.52,-0.555 0.235,-0.27 0.4,-0.54 0.165,-0.27 0.255,-0.545 0.09,-0.28 0.09,-0.595 0,-0.315 -0.1,-0.55 -0.1,-0.24 -0.275,-0.395 -0.17,-0.155 -0.405,-0.23 -0.235,-0.08 -0.505,-0.08 -0.275,0 -0.505,0.08 -0.23,0.08 -0.41,0.225 -0.175,0.14 -0.295,0.335 -0.12,0.195 -0.17,0.43 -0.06,0.175 -0.165,0.235 -0.1,0.055 -0.285,0.03 l -0.465,-0.08 q 0.07,-0.49 0.27,-0.865 0.205,-0.38 0.51,-0.635 0.31,-0.255 0.705,-0.385 0.395,-0.135 0.855,-0.135 0.455,0 0.85,0.135 0.395,0.135 0.685,0.395 0.29,0.255 0.455,0.625 0.165,0.37 0.165,0.84 0,0.4 -0.12,0.745 -0.12,0.34 -0.325,0.65 -0.205,0.31 -0.475,0.605 -0.265,0.295 -0.565,0.595 l -1.89,1.93 q 0.2,-0.055 0.405,-0.085 0.205,-0.035 0.395,-0.035 z"
         style="font-family:Lato;-inkscape-font-specification:Lato"
         id="path4225" /></g><g
       aria-label="3"
       transform="scale(1,-1)"
       id="text3949"
       style="font-size:10px;line-height:1.25;-inkscape-font-specification:OpenSans-Semibold;stroke-width:0.75"><path
         d="m 44.082819,-140.23655 q 0.07,-0.49 0.27,-0.865 0.2,-0.38 0.505,-0.635 0.31,-0.255 0.705,-0.385 0.4,-0.135 0.86,-0.135 0.455,0 0.84,0.13 0.385,0.13 0.66,0.37 0.28,0.24 0.435,0.58 0.155,0.34 0.155,0.755 0,0.34 -0.09,0.61 -0.085,0.265 -0.25,0.465 -0.16,0.2 -0.39,0.34 -0.23,0.14 -0.515,0.23 0.7,0.18 1.05,0.62 0.355,0.435 0.355,1.09 0,0.495 -0.19,0.89 -0.185,0.395 -0.51,0.675 -0.325,0.275 -0.76,0.425 -0.43,0.145 -0.925,0.145 -0.57,0 -0.975,-0.14 -0.405,-0.145 -0.685,-0.395 -0.28,-0.25 -0.46,-0.59 -0.18,-0.345 -0.305,-0.745 l 0.385,-0.16 q 0.15,-0.065 0.29,-0.035 0.145,0.03 0.21,0.165 0.065,0.14 0.16,0.335 0.1,0.195 0.27,0.375 0.17,0.18 0.43,0.305 0.265,0.125 0.67,0.125 0.375,0 0.655,-0.12 0.285,-0.125 0.47,-0.32 0.19,-0.195 0.285,-0.435 0.095,-0.24 0.095,-0.475 0,-0.29 -0.075,-0.53 -0.075,-0.24 -0.28,-0.415 -0.205,-0.175 -0.565,-0.275 -0.355,-0.1 -0.915,-0.1 v -0.645 q 0.46,-0.005 0.78,-0.1 0.325,-0.095 0.525,-0.26 0.205,-0.165 0.295,-0.395 0.095,-0.23 0.095,-0.51 0,-0.31 -0.1,-0.54 -0.095,-0.23 -0.265,-0.38 -0.17,-0.15 -0.405,-0.225 -0.23,-0.075 -0.5,-0.075 -0.27,0 -0.505,0.08 -0.23,0.08 -0.41,0.225 -0.175,0.14 -0.295,0.335 -0.12,0.195 -0.17,0.43 -0.065,0.175 -0.165,0.235 -0.095,0.055 -0.28,0.03 z"
         style="font-family:Lato;-inkscape-font-specification:Lato"
         id="path4222" /></g><g
       aria-label="4"
       transform="scale(1,-1)"
       id="text3953"
       style="font-size:10px;line-height:1.25;-inkscape-font-specification:OpenSans-Semibold;stroke-width:0.75"><path
         d="m 69.133276,-137.59655 v -2.955 q 0,-0.13 0.01,-0.285 0.01,-0.155 0.03,-0.315 l -2.61,3.555 z m 1.865,0 v 0.51 q 0,0.08 -0.05,0.135 -0.045,0.055 -0.145,0.055 h -0.89 v 1.885 h -0.78 v -1.885 h -3.18 q -0.1,0 -0.175,-0.055 -0.07,-0.06 -0.09,-0.145 l -0.09,-0.455 3.485,-4.625 h 0.83 v 4.58 z"
         style="font-family:Lato;-inkscape-font-specification:Lato"
         id="path4219" /></g><path
       style="fill:none;stroke:#000000;stroke-width:0.75px;stroke-linecap:butt;stroke-linejoin:miter;stroke-opacity:1"
       d="m 57.541815,166.89918 0,-7.58055"
       id="path3959"
       sodipodi:nodetypes="cc" /><path
       style="fill:none;stroke:#000000;stroke-width:0.75px;stroke-linecap:butt;stroke-linejoin:miter;stroke-opacity:1"
       d="m 51.077821,138.59405 12.710247,0.0163"
       id="path3961"
       sodipodi:nodetypes="cc" /><path
       style="fill:none;stroke:#000000;stroke-width:0.75px;stroke-linecap:butt;stroke-linejoin:miter;stroke-opacity:1"
       d="m 57.535215,146.95502 0.0066,-8.36097"
       id="path3963"
       sodipodi:nodetypes="cc" /><path
       style="fill:none;stroke:#000000;stroke-width:0.75px;stroke-linecap:butt;stroke-linejoin:miter;stroke-opacity:1"
       d="m 51.077821,166.89918 12.710247,0.0163"
       id="path3965"
       sodipodi:nodetypes="cc" /><path
       id="rect4019"
       style="opacity:1;fill:#010101;stroke-width:0.780006;stroke-linecap:round;stroke-linejoin:round;stroke-dasharray:0.780006, 0.780006"
       d="M 52.93799 -99.444871 C 49.514309 -99.444871 46.757814 -96.776852 46.757814 -93.463914 L 46.757814 -93.061082 C 46.757814 -89.748144 49.514309 -87.08159 52.93799 -87.08159 L 62.118166 -87.08159 C 65.541847 -87.08159 68.298342 -89.748144 68.298342 -93.061082 L 68.298342 -93.463914 C 68.298342 -96.776852 65.541847 -99.444871 62.118166 -99.444871 L 52.93799 -99.444871 z M 51.634279 -97.000047 C 51.714279 -97.000047 51.790926 -96.983575 51.864259 -96.950242 C 51.940926 -96.916909 52.008276 -96.869617 52.064943 -96.809617 C 52.121609 -96.75295 52.166375 -96.684539 52.199708 -96.604539 C 52.236375 -96.527872 52.253908 -96.446577 52.253908 -96.35991 C 52.253908 -96.273243 52.236375 -96.191948 52.199708 -96.115281 C 52.166375 -96.041948 52.119083 -95.974597 52.059083 -95.914598 C 52.002417 -95.857931 51.936531 -95.813165 51.859865 -95.779832 C 51.786531 -95.746499 51.709884 -95.730027 51.629884 -95.730027 C 51.553218 -95.730027 51.477631 -95.746499 51.404298 -95.779832 C 51.330965 -95.813165 51.266141 -95.857931 51.209474 -95.914598 C 51.156141 -95.974597 51.112436 -96.041948 51.079103 -96.115281 C 51.04577 -96.191948 51.029298 -96.273243 51.029298 -96.35991 C 51.029298 -96.446577 51.04577 -96.527872 51.079103 -96.604539 C 51.112436 -96.681206 51.157202 -96.748556 51.213868 -96.805223 C 51.270535 -96.865223 51.335359 -96.911049 51.408693 -96.944383 C 51.482026 -96.981049 51.557612 -97.000047 51.634279 -97.000047 z M 61.394533 -96.869676 L 63.520021 -96.869676 C 63.890021 -96.869676 64.206968 -96.832084 64.473634 -96.755418 C 64.743634 -96.682085 64.96534 -96.574617 65.138674 -96.434617 C 65.312007 -96.297951 65.440594 -96.130711 65.523927 -95.930711 C 65.607261 -95.734044 65.649904 -95.513399 65.649904 -95.270066 C 65.649904 -95.060066 65.618022 -94.857358 65.554689 -94.660691 C 65.494689 -94.467358 65.402632 -94.287892 65.279299 -94.124558 C 65.159299 -93.961225 65.006004 -93.816166 64.819338 -93.6895 C 64.636004 -93.562833 64.421473 -93.461479 64.174806 -93.384812 C 64.604806 -93.288146 64.92534 -93.119441 65.138674 -92.879441 C 65.35534 -92.639441 65.463869 -92.331791 65.463869 -91.955125 C 65.463869 -91.625125 65.403693 -91.322123 65.283693 -91.045457 C 65.167026 -90.772124 64.997261 -90.535007 64.773927 -90.335008 C 64.550594 -90.135008 64.276948 -89.980652 63.953615 -89.870652 C 63.633615 -89.760652 63.272963 -89.705125 62.86963 -89.705125 L 60.514162 -89.705125 L 61.394533 -96.869676 z M 62.239748 -96.135789 L 61.933595 -93.639695 L 63.089357 -93.639695 C 63.359357 -93.639695 63.593947 -93.675164 63.793947 -93.745164 C 63.99728 -93.818497 64.165985 -93.91879 64.299318 -94.045457 C 64.435985 -94.175457 64.537339 -94.329813 64.604006 -94.509812 C 64.670672 -94.689812 64.703615 -94.887872 64.703615 -95.104539 C 64.703615 -95.447872 64.601199 -95.705047 64.394533 -95.875047 C 64.187866 -96.04838 63.866928 -96.135789 63.433595 -96.135789 L 62.239748 -96.135789 z M 55.918947 -94.845262 C 56.13228 -94.845262 56.319982 -94.801557 56.479982 -94.71489 C 56.643315 -94.631557 56.774025 -94.509083 56.874025 -94.34575 C 56.977358 -94.182417 57.048296 -93.980769 57.084962 -93.740769 C 57.121629 -93.504103 57.121629 -93.234044 57.084962 -92.930711 L 56.704103 -89.705125 L 55.819337 -89.705125 L 56.198732 -92.930711 C 56.245398 -93.33071 56.220691 -93.625477 56.124025 -93.815476 C 56.027358 -94.00881 55.849357 -94.105515 55.589357 -94.105515 C 55.429357 -94.105515 55.265301 -94.061811 55.098634 -93.975144 C 54.935301 -93.888478 54.777358 -93.764539 54.624025 -93.604539 C 54.470692 -93.444539 54.328159 -93.251127 54.194826 -93.024461 C 54.064826 -92.801128 53.95271 -92.551127 53.859376 -92.274461 L 53.569337 -89.705125 L 52.678712 -89.705125 L 53.289552 -94.774949 L 53.729005 -94.774949 C 53.929005 -94.774949 54.029298 -94.674656 54.029298 -94.474656 L 53.954591 -93.490281 C 54.224591 -93.936947 54.528654 -94.272892 54.868654 -94.499558 C 55.208653 -94.729558 55.558947 -94.845262 55.918947 -94.845262 z M 51.039552 -94.770555 L 51.914064 -94.770555 L 51.304689 -89.705125 L 50.428712 -89.705125 L 51.039552 -94.770555 z M 61.848634 -92.980515 L 61.539552 -90.444871 L 62.944338 -90.444871 C 63.211004 -90.444871 63.444533 -90.48034 63.644533 -90.55034 C 63.844533 -90.62034 64.00965 -90.720633 64.13965 -90.850633 C 64.272983 -90.980632 64.373276 -91.136049 64.439943 -91.319383 C 64.50661 -91.502716 64.539552 -91.710477 64.539552 -91.940476 C 64.539552 -92.257143 64.432085 -92.508204 64.218752 -92.694871 C 64.008752 -92.884871 63.688217 -92.980515 63.254884 -92.980515 L 61.848634 -92.980515 z "
       transform="scale(1,-1)" /><g
       aria-label="1"
       transform="scale(1,-1)"
       id="text4023"
       style="font-size:10px;line-height:1.25;-inkscape-font-specification:OpenSans-Semibold;stroke-width:0.75"><path
         d="m 48.40282,-104.09892 v 0.68 h -3.84 v -0.68 h 1.535 v -4.885 q 0,-0.22 0.015,-0.445 l -1.275,1.095 q -0.065,0.055 -0.13,0.07 -0.065,0.01 -0.12,0 -0.055,-0.01 -0.105,-0.04 -0.045,-0.03 -0.07,-0.065 l -0.28,-0.385 2.135,-1.845 h 0.725 v 6.5 z"
         style="font-family:Lato;-inkscape-font-specification:Lato"
         id="path4216" /></g><g
       aria-label="2"
       transform="scale(1,-1)"
       id="text4027"
       style="font-size:10px;line-height:1.25;-inkscape-font-specification:OpenSans-Semibold;stroke-width:0.75"><path
         d="m 70.81737,-104.26392 q 0.145,0 0.23,0.085 0.085,0.085 0.085,0.22 v 0.54 h -4.78 v -0.305 q 0,-0.095 0.04,-0.195 0.04,-0.1 0.125,-0.185 l 2.295,-2.305 q 0.285,-0.29 0.52,-0.555 0.235,-0.27 0.4,-0.54 0.165,-0.27 0.255,-0.545 0.09,-0.28 0.09,-0.595 0,-0.315 -0.1,-0.55 -0.1,-0.24 -0.275,-0.395 -0.17,-0.155 -0.405,-0.23 -0.235,-0.08 -0.505,-0.08 -0.275,0 -0.505,0.08 -0.23,0.08 -0.41,0.225 -0.175,0.14 -0.295,0.335 -0.12,0.195 -0.17,0.43 -0.06,0.175 -0.165,0.235 -0.1,0.055 -0.285,0.03 l -0.465,-0.08 q 0.07,-0.49 0.27,-0.865 0.205,-0.38 0.51,-0.635 0.31,-0.255 0.705,-0.385 0.395,-0.135 0.855,-0.135 0.455,0 0.85,0.135 0.395,0.135 0.685,0.395 0.29,0.255 0.455,0.625 0.165,0.37 0.165,0.84 0,0.4 -0.12,0.745 -0.12,0.34 -0.325,0.65 -0.205,0.31 -0.475,0.605 -0.265,0.295 -0.565,0.595 l -1.89,1.93 q 0.2,-0.055 0.405,-0.085 0.205,-0.035 0.395,-0.035 z"
         style="font-family:Lato;-inkscape-font-specification:Lato"
         id="path4213" /></g><g
       aria-label="3"
       transform="scale(1,-1)"
       id="text4031"
       style="font-size:10px;line-height:1.25;-inkscape-font-specification:OpenSans-Semibold;stroke-width:0.75"><path
         d="m 44.082819,-80.362535 q 0.07,-0.49 0.27,-0.865 0.2,-0.38 0.505,-0.635 0.31,-0.255 0.705,-0.385 0.4,-0.135 0.86,-0.135 0.455,0 0.84,0.13 0.385,0.13 0.66,0.37 0.28,0.24 0.435,0.58 0.155,0.34 0.155,0.755 0,0.34 -0.09,0.61 -0.085,0.265 -0.25,0.465 -0.16,0.2 -0.39,0.34 -0.23,0.14 -0.515,0.23 0.7,0.18 1.05,0.62 0.355,0.435 0.355,1.09 0,0.495 -0.19,0.89 -0.185,0.395 -0.51,0.675 -0.325,0.275 -0.76,0.425 -0.43,0.145 -0.925,0.145 -0.57,0 -0.975,-0.14 -0.405,-0.145 -0.685,-0.395 -0.28,-0.25 -0.46,-0.59 -0.18,-0.345 -0.305,-0.745 l 0.385,-0.16 q 0.15,-0.065 0.29,-0.035 0.145,0.03 0.21,0.165 0.065,0.14 0.16,0.335 0.1,0.195 0.27,0.375 0.17,0.18 0.43,0.305 0.265,0.125 0.67,0.125 0.375,0 0.655,-0.12 0.285,-0.125 0.47,-0.32 0.19,-0.195 0.285,-0.435 0.095,-0.24 0.095,-0.475 0,-0.29 -0.075,-0.53 -0.075,-0.24 -0.28,-0.415 -0.205,-0.175 -0.565,-0.275 -0.355,-0.1 -0.915,-0.1 v -0.645 q 0.46,-0.005 0.78,-0.1 0.325,-0.095 0.525,-0.26 0.205,-0.165 0.295,-0.395 0.095,-0.23 0.095,-0.51 0,-0.31 -0.1,-0.54 -0.095,-0.23 -0.265,-0.38 -0.17,-0.15 -0.405,-0.225 -0.23,-0.075 -0.5,-0.075 -0.27,0 -0.505,0.08 -0.23,0.08 -0.41,0.225 -0.175,0.14 -0.295,0.335 -0.12,0.195 -0.17,0.43 -0.065,0.175 -0.165,0.235 -0.095,0.055 -0.28,0.03 z"
         style="font-family:Lato;-inkscape-font-specification:Lato"
         id="path4210" /></g><g
       aria-label="4"
       transform="scale(1,-1)"
       id="text4035"
       style="font-size:10px;line-height:1.25;-inkscape-font-specification:OpenSans-Semibold;stroke-width:0.75"><path
         d="m 69.133276,-77.722535 v -2.955 q 0,-0.13 0.01,-0.285 0.01,-0.155 0.03,-0.315 l -2.61,3.555 z m 1.865,0 v 0.51 q 0,0.08 -0.05,0.135 -0.045,0.055 -0.145,0.055 h -0.89 v 1.885 h -0.78 v -1.885 h -3.18 q -0.1,0 -0.175,-0.055 -0.07,-0.06 -0.09,-0.145 l -0.09,-0.455 3.485,-4.625 h 0.83 v 4.58 z"
         style="font-family:Lato;-inkscape-font-specification:Lato"
         id="path4207" /></g><path
       style="fill:none;stroke:#000000;stroke-width:0.75px;stroke-linecap:butt;stroke-linejoin:miter;stroke-opacity:1"
       d="M 57.541815,107.02516 V 99.444613"
       id="path4041"
       sodipodi:nodetypes="cc" /><path
       style="fill:none;stroke:#000000;stroke-width:0.75px;stroke-linecap:butt;stroke-linejoin:miter;stroke-opacity:1"
       d="m 51.077821,78.720033 12.710247,0.0163"
       id="path4043"
       sodipodi:nodetypes="cc" /><path
       style="fill:none;stroke:#000000;stroke-width:0.75px;stroke-linecap:butt;stroke-linejoin:miter;stroke-opacity:1"
       d="m 57.535215,87.081003 0.0066,-8.36097"
       id="path4045"
       sodipodi:nodetypes="cc" /><path
       style="fill:none;stroke:#000000;stroke-width:0.75px;stroke-linecap:butt;stroke-linejoin:miter;stroke-opacity:1"
       d="m 51.077821,107.02516 12.710247,0.0163"
       id="path4047"
       sodipodi:nodetypes="cc" /><path
       id="rect4049"
       style="opacity:1;fill:#010101;stroke-width:0.780006;stroke-linecap:round;stroke-linejoin:round;stroke-dasharray:0.780006, 0.780006"
       d="M 17.894532 -30.983932 C 14.470851 -30.983932 11.714356 -28.356791 11.714356 -25.093795 L 11.714356 -24.509322 C 11.714356 -21.246326 14.470851 -18.62065 17.894532 -18.62065 L 34.020997 -18.62065 C 37.444678 -18.62065 40.199708 -21.246326 40.199708 -24.509322 L 40.199708 -25.093795 C 40.199708 -28.356791 37.444678 -30.983932 34.020997 -30.983932 L 17.894532 -30.983932 z M 34.316895 -28.408736 L 35.266114 -28.408736 L 37.020997 -21.244186 L 36.301759 -21.244186 C 36.218425 -21.244186 36.153601 -21.264244 36.106934 -21.304244 C 36.060268 -21.347577 36.02586 -21.40164 36.00586 -21.468307 L 35.616212 -23.218795 L 32.701173 -23.218795 L 31.88086 -21.468307 C 31.85086 -21.408307 31.805033 -21.355305 31.7417 -21.308639 C 31.6817 -21.265305 31.613288 -21.244186 31.536622 -21.244186 L 30.805665 -21.244186 L 34.316895 -28.408736 z M 27.312012 -27.95317 L 27.776368 -27.95317 L 27.561036 -26.208541 L 28.891114 -26.208541 L 28.816407 -25.56401 L 27.481934 -25.56401 L 27.175782 -23.073775 C 27.159115 -22.937109 27.146231 -22.827519 27.136231 -22.744186 C 27.126231 -22.660852 27.117995 -22.593502 27.111329 -22.543502 C 27.107995 -22.493502 27.104408 -22.459498 27.101075 -22.439498 L 27.101075 -22.394088 C 27.101075 -22.224088 27.141192 -22.096562 27.221192 -22.013229 C 27.301192 -21.933229 27.40866 -21.893111 27.541993 -21.893111 C 27.631993 -21.893111 27.70864 -21.904934 27.771973 -21.928268 C 27.83864 -21.954934 27.89629 -21.983229 27.94629 -22.013229 C 27.99629 -22.043228 28.037468 -22.070462 28.070801 -22.093795 C 28.104135 -22.120462 28.132429 -22.133346 28.155762 -22.133346 C 28.185762 -22.133346 28.208347 -22.127636 28.22168 -22.114303 C 28.238347 -22.100969 28.253757 -22.078385 28.267091 -22.048385 L 28.456055 -21.62358 C 28.292722 -21.480247 28.106485 -21.36707 27.896485 -21.283736 C 27.689819 -21.203736 27.480997 -21.163619 27.270997 -21.163619 C 26.947664 -21.163619 26.693015 -21.252089 26.506348 -21.428756 C 26.323015 -21.605422 26.22737 -21.862597 26.220704 -22.199264 L 26.220704 -22.273971 C 26.220704 -22.307304 26.22323 -22.353131 26.226563 -22.413131 C 26.23323 -22.473131 26.241466 -22.552304 26.251466 -22.648971 C 26.264799 -22.745637 26.28127 -22.871699 26.30127 -23.028365 L 26.611817 -25.56401 L 26.046387 -25.56401 C 25.999721 -25.56401 25.96213 -25.57942 25.93213 -25.60942 C 25.905463 -25.642753 25.894701 -25.692167 25.901368 -25.758834 L 25.940919 -26.113326 L 26.72168 -26.218795 L 27.101075 -27.783248 C 27.117742 -27.833248 27.142449 -27.873365 27.175782 -27.903365 C 27.212449 -27.936699 27.258679 -27.95317 27.312012 -27.95317 z M 34.691895 -27.559127 C 34.641895 -27.419127 34.591016 -27.29054 34.541016 -27.173873 L 34.406251 -26.858932 L 33.021973 -23.898482 L 35.466798 -23.898482 L 34.812013 -26.863326 C 34.795346 -26.953326 34.775287 -27.057207 34.751954 -27.173873 C 34.728621 -27.293873 34.708562 -27.422461 34.691895 -27.559127 z M 17.926758 -26.384322 C 18.203425 -26.384322 18.457012 -26.335969 18.687012 -26.239303 C 18.917012 -26.14597 19.115072 -26.009146 19.281739 -25.829147 C 19.448405 -25.649147 19.578054 -25.428502 19.671387 -25.168502 C 19.76472 -24.908502 19.812012 -24.613736 19.812012 -24.283736 C 19.812012 -23.860403 19.744662 -23.460696 19.611329 -23.084029 C 19.477995 -22.707363 19.295345 -22.377128 19.062012 -22.093795 C 18.832012 -21.810462 18.558366 -21.585168 18.2417 -21.418502 C 17.925033 -21.255169 17.584037 -21.173873 17.220704 -21.173873 C 16.944037 -21.173873 16.691914 -21.221165 16.461914 -21.314498 C 16.231915 -21.411165 16.03239 -21.549049 15.865723 -21.729049 C 15.699057 -21.909049 15.569408 -22.128229 15.476075 -22.388229 C 15.382741 -22.648228 15.336914 -22.945521 15.336914 -23.278854 C 15.336914 -23.70552 15.4028 -24.107754 15.536133 -24.48442 C 15.669466 -24.861086 15.853581 -25.188795 16.086914 -25.468795 C 16.320248 -25.752128 16.592429 -25.974895 16.905762 -26.138229 C 17.222428 -26.301562 17.563425 -26.384322 17.926758 -26.384322 z M 21.086426 -26.308151 L 21.971192 -26.308151 L 21.591797 -23.088424 C 21.545131 -22.691758 21.568777 -22.396991 21.66211 -22.203658 C 21.758776 -22.010325 21.937839 -21.913619 22.201172 -21.913619 C 22.354506 -21.913619 22.512449 -21.954798 22.675782 -22.038131 C 22.839115 -22.121464 22.995997 -22.240755 23.145997 -22.394088 C 23.295997 -22.547421 23.436407 -22.732597 23.566407 -22.949264 C 23.69974 -23.169263 23.812917 -23.41209 23.906251 -23.678756 L 24.221192 -26.308151 L 25.105958 -26.308151 L 24.496583 -21.244186 L 24.055665 -21.244186 C 23.838998 -21.244186 23.731934 -21.350188 23.731934 -21.563521 L 23.806641 -22.489303 C 23.539975 -22.05597 23.238034 -21.726796 22.901368 -21.503463 C 22.568035 -21.283463 22.224916 -21.173873 21.871583 -21.173873 C 21.658249 -21.173873 21.469486 -21.215052 21.306153 -21.298385 C 21.14282 -21.385051 21.009584 -21.510052 20.906251 -21.673385 C 20.806251 -21.836718 20.737839 -22.037304 20.701172 -22.273971 C 20.664506 -22.510637 20.667032 -22.781757 20.707032 -23.088424 L 21.086426 -26.308151 z M 17.846192 -25.684127 C 17.599525 -25.684127 17.376758 -25.616777 17.176758 -25.483443 C 16.980092 -25.353444 16.811387 -25.179029 16.671387 -24.959029 C 16.531387 -24.73903 16.422858 -24.484381 16.346192 -24.194381 C 16.269525 -23.904381 16.231934 -23.599914 16.231934 -23.283248 C 16.231934 -22.816582 16.322527 -22.464166 16.50586 -22.224166 C 16.689193 -21.9875 16.95713 -21.868209 17.307129 -21.868209 C 17.550462 -21.868209 17.769643 -21.935559 17.966309 -22.068893 C 18.166309 -22.202226 18.336075 -22.379166 18.476075 -22.599166 C 18.619408 -22.822499 18.730463 -23.078209 18.807129 -23.368209 C 18.883796 -23.658209 18.921387 -23.962676 18.921387 -24.279342 C 18.921387 -24.746008 18.828269 -25.094837 18.641602 -25.32817 C 18.458269 -25.564836 18.192858 -25.684127 17.846192 -25.684127 z "
       transform="scale(1,-1)" /><path
       id="rect4055"
       style="opacity:1;fill:#010101;stroke-width:0.780006;stroke-linecap:round;stroke-linejoin:round;stroke-dasharray:0.780006, 0.780006"
       d="M 80.321779 -30.983932 C 76.898098 -30.983932 74.143068 -28.356791 74.143068 -25.093795 L 74.143068 -24.509322 C 74.143068 -21.246326 76.898098 -18.62065 80.321779 -18.62065 L 96.448245 -18.62065 C 99.871926 -18.62065 102.62842 -21.246326 102.62842 -24.509322 L 102.62842 -25.093795 C 102.62842 -28.356791 99.871926 -30.983932 96.448245 -30.983932 L 80.321779 -30.983932 z M 95.208987 -28.408736 L 97.334475 -28.408736 C 97.704475 -28.408736 98.021422 -28.371145 98.288088 -28.294479 C 98.558088 -28.221145 98.779794 -28.113678 98.953127 -27.973678 C 99.126461 -27.837011 99.255048 -27.668307 99.338381 -27.468307 C 99.421715 -27.27164 99.464358 -27.05246 99.464358 -26.809127 C 99.464358 -26.599127 99.432476 -26.394954 99.369143 -26.198287 C 99.309143 -26.004954 99.217086 -25.826952 99.093752 -25.663619 C 98.973753 -25.500286 98.820458 -25.355227 98.633792 -25.228561 C 98.450458 -25.101894 98.235927 -25.00054 97.98926 -24.923873 C 98.41926 -24.827207 98.739794 -24.658502 98.953127 -24.418502 C 99.169794 -24.178502 99.278323 -23.870852 99.278323 -23.494186 C 99.278323 -23.164186 99.218147 -22.861184 99.098147 -22.584518 C 98.98148 -22.311185 98.811714 -22.074068 98.588381 -21.874068 C 98.365048 -21.674069 98.091402 -21.518248 97.768069 -21.408248 C 97.448069 -21.298248 97.087417 -21.244186 96.684084 -21.244186 L 94.328616 -21.244186 L 95.208987 -28.408736 z M 89.73926 -27.95317 L 90.203616 -27.95317 L 89.988283 -26.208541 L 91.318362 -26.208541 L 91.243655 -25.56401 L 89.909182 -25.56401 L 89.604494 -23.073775 C 89.587828 -22.937109 89.573479 -22.827519 89.563479 -22.744186 C 89.553479 -22.660852 89.545243 -22.593502 89.538576 -22.543502 C 89.535243 -22.493502 89.531656 -22.459498 89.528323 -22.439498 L 89.528323 -22.394088 C 89.528323 -22.224088 89.56844 -22.096562 89.64844 -22.013229 C 89.72844 -21.933229 89.835907 -21.893111 89.969241 -21.893111 C 90.05924 -21.893111 90.135888 -21.904934 90.199221 -21.928268 C 90.265888 -21.954934 90.323537 -21.983229 90.373537 -22.013229 C 90.423537 -22.043228 90.466181 -22.070462 90.499514 -22.093795 C 90.532847 -22.120462 90.561142 -22.133346 90.584475 -22.133346 C 90.614475 -22.133346 90.635595 -22.127636 90.648928 -22.114303 C 90.665595 -22.100969 90.681005 -22.078385 90.694338 -22.048385 L 90.883303 -21.62358 C 90.71997 -21.480247 90.533733 -21.36707 90.323733 -21.283736 C 90.117066 -21.203736 89.908244 -21.163619 89.698244 -21.163619 C 89.374911 -21.163619 89.120262 -21.252089 88.933596 -21.428756 C 88.750263 -21.605422 88.656083 -21.862597 88.649416 -22.199264 L 88.649416 -22.273971 C 88.649416 -22.307304 88.650477 -22.353131 88.653811 -22.413131 C 88.660477 -22.473131 88.668713 -22.552304 88.678713 -22.648971 C 88.692046 -22.745637 88.708518 -22.871699 88.728518 -23.028365 L 89.039065 -25.56401 L 88.473635 -25.56401 C 88.426968 -25.56401 88.389377 -25.57942 88.359377 -25.60942 C 88.332711 -25.642753 88.321949 -25.692167 88.328615 -25.758834 L 88.368166 -26.113326 L 89.148928 -26.218795 L 89.528323 -27.783248 C 89.544989 -27.833248 89.571161 -27.873365 89.604494 -27.903365 C 89.641161 -27.936699 89.685927 -27.95317 89.73926 -27.95317 z M 96.054202 -27.673385 L 95.749514 -25.178756 L 96.903811 -25.178756 C 97.173811 -25.178756 97.408401 -25.214225 97.608401 -25.284225 C 97.811734 -25.357558 97.980439 -25.457851 98.113772 -25.584518 C 98.250439 -25.714518 98.351793 -25.868873 98.418459 -26.048873 C 98.485126 -26.228873 98.518069 -26.426933 98.518069 -26.6436 C 98.518069 -26.986933 98.415653 -27.244108 98.208987 -27.414108 C 98.00232 -27.587441 97.682847 -27.673385 97.249514 -27.673385 L 96.054202 -27.673385 z M 80.354006 -26.384322 C 80.630672 -26.384322 80.88426 -26.335969 81.11426 -26.239303 C 81.34426 -26.14597 81.54232 -26.009146 81.708986 -25.829147 C 81.875653 -25.649147 82.005302 -25.428502 82.098635 -25.168502 C 82.191968 -24.908502 82.23926 -24.613736 82.23926 -24.283736 C 82.23926 -23.860403 82.171909 -23.460696 82.038576 -23.084029 C 81.905243 -22.707363 81.722593 -22.377128 81.48926 -22.093795 C 81.25926 -21.810462 80.985614 -21.585168 80.668947 -21.418502 C 80.352281 -21.255169 80.012749 -21.173873 79.649416 -21.173873 C 79.37275 -21.173873 79.119162 -21.221165 78.889162 -21.314498 C 78.659162 -21.411165 78.461102 -21.549049 78.294436 -21.729049 C 78.127769 -21.909049 77.996656 -22.128229 77.903322 -22.388229 C 77.809989 -22.648228 77.764162 -22.945521 77.764162 -23.278854 C 77.764162 -23.70552 77.830048 -24.107754 77.963381 -24.48442 C 78.096714 -24.861086 78.280829 -25.188795 78.514162 -25.468795 C 78.747495 -25.752128 79.021142 -25.974895 79.334475 -26.138229 C 79.651141 -26.301562 79.990673 -26.384322 80.354006 -26.384322 z M 83.513674 -26.308151 L 84.39844 -26.308151 L 84.019045 -23.088424 C 83.972378 -22.691758 83.996024 -22.396991 84.089358 -22.203658 C 84.186024 -22.010325 84.365087 -21.913619 84.62842 -21.913619 C 84.781753 -21.913619 84.941161 -21.954798 85.104494 -22.038131 C 85.267827 -22.121464 85.423244 -22.240755 85.573244 -22.394088 C 85.723244 -22.547421 85.863655 -22.732597 85.993654 -22.949264 C 86.126988 -23.169263 86.240165 -23.41209 86.333498 -23.678756 L 86.64844 -26.308151 L 87.533205 -26.308151 L 86.92383 -21.244186 L 86.484377 -21.244186 C 86.267711 -21.244186 86.159182 -21.350188 86.159182 -21.563521 L 86.233889 -22.489303 C 85.967222 -22.05597 85.665282 -21.726796 85.328615 -21.503463 C 84.995282 -21.283463 84.652163 -21.173873 84.29883 -21.173873 C 84.085497 -21.173873 83.896734 -21.215052 83.733401 -21.298385 C 83.570067 -21.385051 83.436831 -21.510052 83.333498 -21.673385 C 83.233498 -21.836718 83.165087 -22.037304 83.12842 -22.273971 C 83.091753 -22.510637 83.094279 -22.781757 83.134279 -23.088424 L 83.513674 -26.308151 z M 80.27344 -25.684127 C 80.026773 -25.684127 79.804006 -25.616777 79.604006 -25.483443 C 79.407339 -25.353444 79.238635 -25.179029 79.098635 -24.959029 C 78.958635 -24.73903 78.850106 -24.484381 78.773439 -24.194381 C 78.696773 -23.904381 78.659182 -23.599914 78.659182 -23.283248 C 78.659182 -22.816582 78.749774 -22.464166 78.933107 -22.224166 C 79.116441 -21.9875 79.384377 -21.868209 79.734377 -21.868209 C 79.97771 -21.868209 80.19689 -21.935559 80.393557 -22.068893 C 80.593556 -22.202226 80.763322 -22.379166 80.903322 -22.599166 C 81.046656 -22.822499 81.15771 -23.078209 81.234377 -23.368209 C 81.311044 -23.658209 81.348635 -23.962676 81.348635 -24.279342 C 81.348635 -24.746008 81.255516 -25.094837 81.06885 -25.32817 C 80.885517 -25.564836 80.620106 -25.684127 80.27344 -25.684127 z M 95.663088 -24.518111 L 95.354006 -21.983932 L 96.758791 -21.983932 C 97.025458 -21.983932 97.258987 -22.0194 97.458987 -22.0894 C 97.658987 -22.1594 97.824104 -22.258229 97.954104 -22.388229 C 98.087437 -22.518228 98.18773 -22.67511 98.254397 -22.858443 C 98.321064 -23.041777 98.354006 -23.249537 98.354006 -23.479537 C 98.354006 -23.796203 98.246539 -24.047265 98.033206 -24.233932 C 97.823206 -24.423932 97.502671 -24.518111 97.069338 -24.518111 L 95.663088 -24.518111 z "
       transform="scale(1,-1)" /></g></svg>
