%TF.GenerationSoftware,KiCad,Pcbnew,(6.0.7)*%
%TF.CreationDate,2022-08-20T14:38:10+02:00*%
%TF.ProjectId,ioboard,696f626f-6172-4642-9e6b-696361645f70,rev?*%
%TF.SameCoordinates,Original*%
%TF.FileFunction,Soldermask,Top*%
%TF.FilePolarity,Negative*%
%FSLAX46Y46*%
G04 Gerber Fmt 4.6, Leading zero omitted, Abs format (unit mm)*
G04 Created by KiCad (PCBNEW (6.0.7)) date 2022-08-20 14:38:10*
%MOMM*%
%LPD*%
G01*
G04 APERTURE LIST*
G04 Aperture macros list*
%AMRoundRect*
0 Rectangle with rounded corners*
0 $1 Rounding radius*
0 $2 $3 $4 $5 $6 $7 $8 $9 X,Y pos of 4 corners*
0 Add a 4 corners polygon primitive as box body*
4,1,4,$2,$3,$4,$5,$6,$7,$8,$9,$2,$3,0*
0 Add four circle primitives for the rounded corners*
1,1,$1+$1,$2,$3*
1,1,$1+$1,$4,$5*
1,1,$1+$1,$6,$7*
1,1,$1+$1,$8,$9*
0 Add four rect primitives between the rounded corners*
20,1,$1+$1,$2,$3,$4,$5,0*
20,1,$1+$1,$4,$5,$6,$7,0*
20,1,$1+$1,$6,$7,$8,$9,0*
20,1,$1+$1,$8,$9,$2,$3,0*%
%AMFreePoly0*
4,1,25,0.333266,0.742596,0.345389,0.732242,0.732242,0.345389,0.760749,0.289441,0.762000,0.273547,0.762000,-0.273547,0.742596,-0.333266,0.732242,-0.345389,0.345389,-0.732242,0.289441,-0.760749,0.273547,-0.762000,-0.273547,-0.762000,-0.333266,-0.742596,-0.345389,-0.732242,-0.732242,-0.345389,-0.760749,-0.289441,-0.762000,-0.273547,-0.762000,0.273547,-0.742596,0.333266,-0.732242,0.345389,
-0.345389,0.732242,-0.289441,0.760749,-0.273547,0.762000,0.273547,0.762000,0.333266,0.742596,0.333266,0.742596,$1*%
%AMFreePoly1*
4,1,25,0.391131,0.882296,0.403254,0.871942,0.871942,0.403254,0.900449,0.347306,0.901700,0.331412,0.901700,-0.331412,0.882296,-0.391131,0.871942,-0.403254,0.403254,-0.871942,0.347306,-0.900449,0.331412,-0.901700,-0.331412,-0.901700,-0.391131,-0.882296,-0.403254,-0.871942,-0.871942,-0.403254,-0.900449,-0.347306,-0.901700,-0.331412,-0.901700,0.331412,-0.882296,0.391131,-0.871942,0.403254,
-0.403254,0.871942,-0.347306,0.900449,-0.331412,0.901700,0.331412,0.901700,0.391131,0.882296,0.391131,0.882296,$1*%
%AMFreePoly2*
4,1,25,0.354308,0.793396,0.366431,0.783042,0.783042,0.366431,0.811549,0.310483,0.812800,0.294589,0.812800,-0.294589,0.793396,-0.354308,0.783042,-0.366431,0.366431,-0.783042,0.310483,-0.811549,0.294589,-0.812800,-0.294589,-0.812800,-0.354308,-0.793396,-0.366431,-0.783042,-0.783042,-0.366431,-0.811549,-0.310483,-0.812800,-0.294589,-0.812800,0.294589,-0.793396,0.354308,-0.783042,0.366431,
-0.366431,0.783042,-0.310483,0.811549,-0.294589,0.812800,0.294589,0.812800,0.354308,0.793396,0.354308,0.793396,$1*%
%AMFreePoly3*
4,1,25,0.406913,0.920396,0.419036,0.910042,0.910042,0.419036,0.938549,0.363088,0.939800,0.347194,0.939800,-0.347194,0.920396,-0.406913,0.910042,-0.419036,0.419036,-0.910042,0.363088,-0.938549,0.347194,-0.939800,-0.347194,-0.939800,-0.406913,-0.920396,-0.419036,-0.910042,-0.910042,-0.419036,-0.938549,-0.363088,-0.939800,-0.347194,-0.939800,0.347194,-0.920396,0.406913,-0.910042,0.419036,
-0.419036,0.910042,-0.363088,0.938549,-0.347194,0.939800,0.347194,0.939800,0.406913,0.920396,0.406913,0.920396,$1*%
G04 Aperture macros list end*
%ADD10C,2.130000*%
%ADD11R,1.930000X1.830000*%
%ADD12FreePoly0,180.000000*%
%ADD13O,1.727200X3.251200*%
%ADD14FreePoly0,270.000000*%
%ADD15FreePoly0,90.000000*%
%ADD16FreePoly1,270.000000*%
%ADD17C,1.803400*%
%ADD18O,1.524000X2.844800*%
%ADD19O,2.908300X5.613400*%
%ADD20FreePoly2,90.000000*%
%ADD21RoundRect,0.101600X1.400000X1.400000X-1.400000X1.400000X-1.400000X-1.400000X1.400000X-1.400000X0*%
%ADD22FreePoly3,180.000000*%
%ADD23RoundRect,0.101600X0.838200X0.838200X-0.838200X0.838200X-0.838200X-0.838200X0.838200X-0.838200X0*%
%ADD24FreePoly0,0.000000*%
G04 APERTURE END LIST*
D10*
%TO.C,CV2_2*%
X163110000Y-129870000D03*
X163110000Y-138170000D03*
D11*
X163110000Y-126770000D03*
%TD*%
%TO.C,CV2_1*%
X163110000Y-119410000D03*
D10*
X163110000Y-108010000D03*
X163110000Y-116310000D03*
%TD*%
D11*
%TO.C,CV1_2*%
X194850000Y-126780000D03*
D10*
X194850000Y-138180000D03*
X194850000Y-129880000D03*
%TD*%
D11*
%TO.C,CV1_1*%
X194830000Y-119410000D03*
D10*
X194830000Y-108010000D03*
X194830000Y-116310000D03*
%TD*%
D11*
%TO.C,AUDIO_OUT_2*%
X100890000Y-126800000D03*
D10*
X100890000Y-138200000D03*
X100890000Y-129900000D03*
%TD*%
D11*
%TO.C,AUDIO_OUT_1*%
X100880000Y-119400000D03*
D10*
X100880000Y-108000000D03*
X100880000Y-116300000D03*
%TD*%
%TO.C,AUDIO_IN_2*%
X113570000Y-129890000D03*
X113570000Y-138190000D03*
D11*
X113570000Y-126790000D03*
%TD*%
D10*
%TO.C,AUDIO_IN_1*%
X113580000Y-116290000D03*
X113580000Y-107990000D03*
D11*
X113580000Y-119390000D03*
%TD*%
D12*
%TO.C,R38*%
X166916100Y-125641100D03*
X174536100Y-125641100D03*
%TD*%
D13*
%TO.C,JP4*%
X135166100Y-90716100D03*
X132626100Y-90716100D03*
X130086100Y-90716100D03*
X127546100Y-90716100D03*
X125006100Y-90716100D03*
X122466100Y-90716100D03*
%TD*%
D14*
%TO.C,C4*%
X169456100Y-89446100D03*
X169456100Y-84366100D03*
%TD*%
%TO.C,R35*%
X192316100Y-102146100D03*
X192316100Y-94526100D03*
%TD*%
D15*
%TO.C,R10*%
X151676100Y-71666100D03*
X151676100Y-79286100D03*
%TD*%
D13*
%TO.C,JP3*%
X135166100Y-83096100D03*
X132626100Y-83096100D03*
X130086100Y-83096100D03*
X127546100Y-83096100D03*
X125006100Y-83096100D03*
X122466100Y-83096100D03*
%TD*%
D16*
%TO.C,C7*%
X111036100Y-97066100D03*
D17*
X111036100Y-94526100D03*
%TD*%
D16*
%TO.C,C6*%
X111036100Y-79286100D03*
D17*
X111036100Y-76746100D03*
%TD*%
D15*
%TO.C,R29*%
X155486100Y-94526100D03*
X155486100Y-102146100D03*
%TD*%
%TO.C,R39*%
X136436100Y-94526100D03*
X136436100Y-102146100D03*
%TD*%
%TO.C,C3*%
X144056100Y-84366100D03*
X144056100Y-89446100D03*
%TD*%
D18*
%TO.C,IC1*%
X192316100Y-90716100D03*
X189776100Y-90716100D03*
X187236100Y-90716100D03*
X184696100Y-90716100D03*
X182156100Y-90716100D03*
X179616100Y-90716100D03*
X177076100Y-90716100D03*
X177076100Y-83096100D03*
X179616100Y-83096100D03*
X182156100Y-83096100D03*
X184696100Y-83096100D03*
X187236100Y-83096100D03*
X189776100Y-83096100D03*
X192316100Y-83096100D03*
%TD*%
D19*
%TO.C,S2*%
X124117100Y-133261100D03*
X128816100Y-133261100D03*
X133515100Y-133261100D03*
%TD*%
D15*
%TO.C,R24*%
X184696100Y-71666100D03*
X184696100Y-79286100D03*
%TD*%
D20*
%TO.C,PWR0*%
X102146100Y-81826100D03*
X104686100Y-81826100D03*
X102146100Y-84366100D03*
X104686100Y-84366100D03*
X102146100Y-86906100D03*
X104686100Y-86906100D03*
X102146100Y-89446100D03*
X104686100Y-89446100D03*
X102146100Y-91986100D03*
X104686100Y-91986100D03*
%TD*%
D15*
%TO.C,R3*%
X168186100Y-75476100D03*
X170726100Y-75476100D03*
X168186100Y-78016100D03*
X168186100Y-72936100D03*
%TD*%
%TO.C,R45*%
X177076100Y-94526100D03*
X177076100Y-102146100D03*
%TD*%
D14*
%TO.C,R16*%
X154216100Y-118021100D03*
X154216100Y-110401100D03*
%TD*%
D15*
%TO.C,R11*%
X146596100Y-71666100D03*
X146596100Y-79286100D03*
%TD*%
D13*
%TO.C,JP6*%
X111036100Y-86906100D03*
X113576100Y-86906100D03*
X116116100Y-86906100D03*
X118656100Y-86906100D03*
%TD*%
D14*
%TO.C,R25*%
X177076100Y-79286100D03*
X177076100Y-71666100D03*
%TD*%
%TO.C,R6*%
X149136100Y-79286100D03*
X149136100Y-71666100D03*
%TD*%
D15*
%TO.C,R13*%
X189776100Y-71666100D03*
X189776100Y-79286100D03*
%TD*%
D12*
%TO.C,Q4*%
X118656100Y-100241100D03*
X117386100Y-102146100D03*
X116116100Y-100241100D03*
%TD*%
D21*
%TO.C,CV_ATTN_1*%
X179616100Y-108441100D03*
X179616100Y-117441100D03*
D22*
X172616100Y-115441100D03*
X172616100Y-112941100D03*
D23*
X172616100Y-110441100D03*
%TD*%
D14*
%TO.C,R19*%
X136436100Y-79286100D03*
X136436100Y-71666100D03*
%TD*%
D15*
%TO.C,R15*%
X192316100Y-71666100D03*
X192316100Y-79286100D03*
%TD*%
%TO.C,R5*%
X149136100Y-94526100D03*
X149136100Y-102146100D03*
%TD*%
D14*
%TO.C,C1*%
X173266100Y-89446100D03*
X173266100Y-84366100D03*
%TD*%
D12*
%TO.C,R40*%
X122466100Y-94526100D03*
X130086100Y-94526100D03*
%TD*%
D24*
%TO.C,Q3*%
X116116100Y-96431100D03*
X117386100Y-94526100D03*
X118656100Y-96431100D03*
%TD*%
D13*
%TO.C,JP5*%
X118656100Y-123101100D03*
X116116100Y-123101100D03*
X113576100Y-123101100D03*
X111036100Y-123101100D03*
%TD*%
D24*
%TO.C,Q2*%
X115481100Y-72936100D03*
X116751100Y-71031100D03*
X118021100Y-72936100D03*
%TD*%
D15*
%TO.C,R42*%
X174536100Y-94526100D03*
X174536100Y-102146100D03*
%TD*%
D24*
%TO.C,R17*%
X150406100Y-120561100D03*
X142786100Y-120561100D03*
%TD*%
D15*
%TO.C,R43*%
X182156100Y-94526100D03*
X182156100Y-102146100D03*
%TD*%
D14*
%TO.C,R14*%
X187236100Y-79286100D03*
X187236100Y-71666100D03*
%TD*%
D15*
%TO.C,R41*%
X179616100Y-94526100D03*
X179616100Y-102146100D03*
%TD*%
D14*
%TO.C,R9*%
X155486100Y-79286100D03*
X155486100Y-71666100D03*
%TD*%
D15*
%TO.C,R34*%
X187236100Y-94526100D03*
X187236100Y-102146100D03*
%TD*%
D14*
%TO.C,R21*%
X179616100Y-79286100D03*
X179616100Y-71666100D03*
%TD*%
%TO.C,R4*%
X169456100Y-98336100D03*
X166916100Y-98336100D03*
X169456100Y-95796100D03*
X169456100Y-100876100D03*
%TD*%
D12*
%TO.C,Q1*%
X118021100Y-76746100D03*
X116751100Y-78651100D03*
X115481100Y-76746100D03*
%TD*%
D14*
%TO.C,R7*%
X158026100Y-79286100D03*
X158026100Y-71666100D03*
%TD*%
D15*
%TO.C,R28*%
X160566100Y-94526100D03*
X160566100Y-102146100D03*
%TD*%
%TO.C,R46*%
X138976100Y-94526100D03*
X138976100Y-102146100D03*
%TD*%
D13*
%TO.C,JP2*%
X122466100Y-119291100D03*
X125006100Y-119291100D03*
X127546100Y-119291100D03*
X130086100Y-119291100D03*
X132626100Y-119291100D03*
X135166100Y-119291100D03*
%TD*%
D12*
%TO.C,R18*%
X166916100Y-120561100D03*
X174536100Y-120561100D03*
%TD*%
D15*
%TO.C,R36*%
X154216100Y-128181100D03*
X154216100Y-135801100D03*
%TD*%
D14*
%TO.C,R31*%
X146596100Y-102146100D03*
X146596100Y-94526100D03*
%TD*%
%TO.C,R12*%
X144056100Y-79286100D03*
X144056100Y-71666100D03*
%TD*%
D21*
%TO.C,BIAS_2*%
X146596100Y-128761100D03*
X146596100Y-137761100D03*
D22*
X139596100Y-135761100D03*
X139596100Y-133261100D03*
D23*
X139596100Y-130761100D03*
%TD*%
D14*
%TO.C,R30*%
X151676100Y-102146100D03*
X151676100Y-94526100D03*
%TD*%
%TO.C,R23*%
X182156100Y-79286100D03*
X182156100Y-71666100D03*
%TD*%
D15*
%TO.C,R27*%
X158026100Y-94526100D03*
X158026100Y-102146100D03*
%TD*%
D21*
%TO.C,CV_ATTN_2*%
X179616100Y-128761100D03*
X179616100Y-137761100D03*
D22*
X172616100Y-135761100D03*
X172616100Y-133261100D03*
D23*
X172616100Y-130761100D03*
%TD*%
D24*
%TO.C,R1*%
X126276100Y-99606100D03*
X126276100Y-102146100D03*
X123736100Y-99606100D03*
X128816100Y-99606100D03*
%TD*%
D14*
%TO.C,R22*%
X174536100Y-79286100D03*
X174536100Y-71666100D03*
%TD*%
%TO.C,R8*%
X160566100Y-79286100D03*
X160566100Y-71666100D03*
%TD*%
D13*
%TO.C,JP1*%
X122466100Y-126911100D03*
X125006100Y-126911100D03*
X127546100Y-126911100D03*
X130086100Y-126911100D03*
X132626100Y-126911100D03*
X135166100Y-126911100D03*
%TD*%
D19*
%TO.C,S1*%
X124117100Y-112941100D03*
X128816100Y-112941100D03*
X133515100Y-112941100D03*
%TD*%
D14*
%TO.C,C2*%
X194856100Y-95796100D03*
X194856100Y-90716100D03*
%TD*%
%TO.C,R26*%
X138976100Y-79286100D03*
X138976100Y-71666100D03*
%TD*%
%TO.C,R33*%
X189776100Y-102146100D03*
X189776100Y-94526100D03*
%TD*%
D12*
%TO.C,R20*%
X122466100Y-79286100D03*
X130086100Y-79286100D03*
%TD*%
D14*
%TO.C,R44*%
X184696100Y-102146100D03*
X184696100Y-94526100D03*
%TD*%
D24*
%TO.C,R2*%
X126276100Y-72936100D03*
X126276100Y-75476100D03*
X123736100Y-72936100D03*
X128816100Y-72936100D03*
%TD*%
D15*
%TO.C,R32*%
X144056100Y-94526100D03*
X144056100Y-102146100D03*
%TD*%
D18*
%TO.C,IC2*%
X165646100Y-90716100D03*
X163106100Y-90716100D03*
X160566100Y-90716100D03*
X158026100Y-90716100D03*
X155486100Y-90716100D03*
X152946100Y-90716100D03*
X150406100Y-90716100D03*
X147866100Y-90716100D03*
X147866100Y-83096100D03*
X150406100Y-83096100D03*
X152946100Y-83096100D03*
X155486100Y-83096100D03*
X158026100Y-83096100D03*
X160566100Y-83096100D03*
X163106100Y-83096100D03*
X165646100Y-83096100D03*
%TD*%
D24*
%TO.C,R37*%
X142786100Y-125641100D03*
X150406100Y-125641100D03*
%TD*%
D21*
%TO.C,BIAS_1*%
X146596100Y-108441100D03*
X146596100Y-117441100D03*
D22*
X139596100Y-115441100D03*
X139596100Y-112941100D03*
D23*
X139596100Y-110441100D03*
%TD*%
M02*
