%TF.GenerationSoftware,KiCad,Pcbnew,(6.0.7)*%
%TF.CreationDate,2022-08-20T16:45:58+02:00*%
%TF.ProjectId,ioboard,696f626f-6172-4642-9e6b-696361645f70,rev?*%
%TF.SameCoordinates,Original*%
%TF.FileFunction,Soldermask,Top*%
%TF.FilePolarity,Negative*%
%FSLAX46Y46*%
G04 Gerber Fmt 4.6, Leading zero omitted, Abs format (unit mm)*
G04 Created by KiCad (PCBNEW (6.0.7)) date 2022-08-20 16:45:58*
%MOMM*%
%LPD*%
G01*
G04 APERTURE LIST*
G04 Aperture macros list*
%AMRoundRect*
0 Rectangle with rounded corners*
0 $1 Rounding radius*
0 $2 $3 $4 $5 $6 $7 $8 $9 X,Y pos of 4 corners*
0 Add a 4 corners polygon primitive as box body*
4,1,4,$2,$3,$4,$5,$6,$7,$8,$9,$2,$3,0*
0 Add four circle primitives for the rounded corners*
1,1,$1+$1,$2,$3*
1,1,$1+$1,$4,$5*
1,1,$1+$1,$6,$7*
1,1,$1+$1,$8,$9*
0 Add four rect primitives between the rounded corners*
20,1,$1+$1,$2,$3,$4,$5,0*
20,1,$1+$1,$4,$5,$6,$7,0*
20,1,$1+$1,$6,$7,$8,$9,0*
20,1,$1+$1,$8,$9,$2,$3,0*%
%AMFreePoly0*
4,1,25,0.333266,0.742596,0.345389,0.732242,0.732242,0.345389,0.760749,0.289441,0.762000,0.273547,0.762000,-0.273547,0.742596,-0.333266,0.732242,-0.345389,0.345389,-0.732242,0.289441,-0.760749,0.273547,-0.762000,-0.273547,-0.762000,-0.333266,-0.742596,-0.345389,-0.732242,-0.732242,-0.345389,-0.760749,-0.289441,-0.762000,-0.273547,-0.762000,0.273547,-0.742596,0.333266,-0.732242,0.345389,
-0.345389,0.732242,-0.289441,0.760749,-0.273547,0.762000,0.273547,0.762000,0.333266,0.742596,0.333266,0.742596,$1*%
%AMFreePoly1*
4,1,25,0.406913,0.920396,0.419036,0.910042,0.910042,0.419036,0.938549,0.363088,0.939800,0.347194,0.939800,-0.347194,0.920396,-0.406913,0.910042,-0.419036,0.419036,-0.910042,0.363088,-0.938549,0.347194,-0.939800,-0.347194,-0.939800,-0.406913,-0.920396,-0.419036,-0.910042,-0.910042,-0.419036,-0.938549,-0.363088,-0.939800,-0.347194,-0.939800,0.347194,-0.920396,0.406913,-0.910042,0.419036,
-0.419036,0.910042,-0.363088,0.938549,-0.347194,0.939800,0.347194,0.939800,0.406913,0.920396,0.406913,0.920396,$1*%
G04 Aperture macros list end*
%ADD10O,2.908300X5.613400*%
%ADD11FreePoly0,270.000000*%
%ADD12RoundRect,0.101600X0.838200X0.838200X-0.838200X0.838200X-0.838200X-0.838200X0.838200X-0.838200X0*%
%ADD13FreePoly1,180.000000*%
%ADD14RoundRect,0.101600X1.400000X1.400000X-1.400000X1.400000X-1.400000X-1.400000X1.400000X-1.400000X0*%
%ADD15FreePoly0,180.000000*%
%ADD16O,1.727200X3.251200*%
%ADD17R,1.930000X1.830000*%
%ADD18C,2.130000*%
%ADD19FreePoly0,0.000000*%
%ADD20FreePoly0,90.000000*%
G04 APERTURE END LIST*
D10*
%TO.C,S2*%
X133515100Y-133261100D03*
X128816100Y-133261100D03*
X124117100Y-133261100D03*
%TD*%
D11*
%TO.C,R16*%
X154216100Y-110401100D03*
X154216100Y-118021100D03*
%TD*%
D12*
%TO.C,CV_ATTN_1*%
X172616100Y-110441100D03*
D13*
X172616100Y-112941100D03*
X172616100Y-115441100D03*
D14*
X179616100Y-117441100D03*
X179616100Y-108441100D03*
%TD*%
D15*
%TO.C,R38*%
X174536100Y-125641100D03*
X166916100Y-125641100D03*
%TD*%
%TO.C,R18*%
X174536100Y-120561100D03*
X166916100Y-120561100D03*
%TD*%
D16*
%TO.C,JP2*%
X135166100Y-119291100D03*
X132626100Y-119291100D03*
X130086100Y-119291100D03*
X127546100Y-119291100D03*
X125006100Y-119291100D03*
X122466100Y-119291100D03*
%TD*%
D17*
%TO.C,AUDIO_OUT_2*%
X100890000Y-126800000D03*
D18*
X100890000Y-138200000D03*
X100890000Y-129900000D03*
%TD*%
D19*
%TO.C,R37*%
X142786100Y-125641100D03*
X150406100Y-125641100D03*
%TD*%
D12*
%TO.C,BIAS_1*%
X139596100Y-110441100D03*
D13*
X139596100Y-112941100D03*
X139596100Y-115441100D03*
D14*
X146596100Y-117441100D03*
X146596100Y-108441100D03*
%TD*%
D20*
%TO.C,R36*%
X154216100Y-135801100D03*
X154216100Y-128181100D03*
%TD*%
D19*
%TO.C,R17*%
X142786100Y-120561100D03*
X150406100Y-120561100D03*
%TD*%
D16*
%TO.C,JP5*%
X111036100Y-123101100D03*
X113576100Y-123101100D03*
X116116100Y-123101100D03*
X118656100Y-123101100D03*
%TD*%
D17*
%TO.C,CV2_2*%
X163110000Y-126770000D03*
D18*
X163110000Y-138170000D03*
X163110000Y-129870000D03*
%TD*%
D12*
%TO.C,BIAS_2*%
X139596100Y-130761100D03*
D13*
X139596100Y-133261100D03*
X139596100Y-135761100D03*
D14*
X146596100Y-137761100D03*
X146596100Y-128761100D03*
%TD*%
D17*
%TO.C,AUDIO_IN_2*%
X113570000Y-126790000D03*
D18*
X113570000Y-138190000D03*
X113570000Y-129890000D03*
%TD*%
D12*
%TO.C,CV_ATTN_2*%
X172616100Y-130761100D03*
D13*
X172616100Y-133261100D03*
X172616100Y-135761100D03*
D14*
X179616100Y-137761100D03*
X179616100Y-128761100D03*
%TD*%
D16*
%TO.C,JP1*%
X135166100Y-126911100D03*
X132626100Y-126911100D03*
X130086100Y-126911100D03*
X127546100Y-126911100D03*
X125006100Y-126911100D03*
X122466100Y-126911100D03*
%TD*%
D17*
%TO.C,AUDIO_IN_1*%
X113580000Y-119390000D03*
D18*
X113580000Y-107990000D03*
X113580000Y-116290000D03*
%TD*%
D10*
%TO.C,S1*%
X133515100Y-112941100D03*
X128816100Y-112941100D03*
X124117100Y-112941100D03*
%TD*%
D17*
%TO.C,AUDIO_OUT_1*%
X100880000Y-119400000D03*
D18*
X100880000Y-108000000D03*
X100880000Y-116300000D03*
%TD*%
D17*
%TO.C,CV2_1*%
X163110000Y-119410000D03*
D18*
X163110000Y-108010000D03*
X163110000Y-116310000D03*
%TD*%
D17*
%TO.C,CV1_2*%
X194850000Y-126780000D03*
D18*
X194850000Y-138180000D03*
X194850000Y-129880000D03*
%TD*%
D17*
%TO.C,CV1_1*%
X194830000Y-119410000D03*
D18*
X194830000Y-108010000D03*
X194830000Y-116310000D03*
%TD*%
M02*
