M48
; DRILL file {KiCad (6.0.7)} date Sat 20 Aug 2022 02:38:09 PM CEST
; FORMAT={-:-/ absolute / inch / decimal}
; #@! TF.CreationDate,2022-08-20T14:38:09+02:00
; #@! TF.GenerationSoftware,Kicad,Pcbnew,(6.0.7)
; #@! TF.FileFunction,Plated,1,2,PTH
FMAT,2
INCH
; #@! TA.AperFunction,Plated,PTH,ViaDrill
T1C0.0236
; #@! TA.AperFunction,Plated,PTH,ComponentDrill
T2C0.0320
; #@! TA.AperFunction,Plated,PTH,ComponentDrill
T3C0.0360
; #@! TA.AperFunction,Plated,PTH,ComponentDrill
T4C0.0400
; #@! TA.AperFunction,Plated,PTH,ComponentDrill
T5C0.0433
; #@! TA.AperFunction,Plated,PTH,ComponentDrill
T6C0.0480
; #@! TA.AperFunction,Plated,PTH,ComponentDrill
T7C0.0559
; #@! TA.AperFunction,Plated,PTH,ComponentDrill
T8C0.0563
; #@! TA.AperFunction,Plated,PTH,ComponentDrill
T9C0.0710
; #@! TA.AperFunction,Plated,PTH,ComponentDrill
T10C0.0827
%
G90
G05
T1
X4.9215Y-3.0215
X4.9215Y-3.8215
X5.0215Y-3.0715
X5.0215Y-3.7715
X5.0715Y-4.0215
X5.1715Y-3.6715
X5.2215Y-2.8715
X5.2215Y-3.8715
X5.2715Y-3.1215
X5.2715Y-3.7215
X5.4215Y-3.6715
X5.4215Y-3.9215
X5.4715Y-3.0215
X5.4715Y-3.2215
X5.4715Y-3.8215
X5.4965Y-3.6215
X5.5715Y-2.8215
X5.5715Y-3.3715
X5.5715Y-4.0215
X5.6215Y-3.1715
X5.7715Y-3.8715
X5.8715Y-2.9215
X6.0715Y-3.4715
X6.4715Y-3.7715
X6.5215Y-3.0715
X6.9715Y-3.0215
X6.9715Y-3.8215
X7.1715Y-3.3715
X7.3215Y-3.4715
T2
X4.3715Y-3.0215
X4.3715Y-3.1215
X4.3715Y-3.7215
X4.3715Y-3.8215
X4.5465Y-2.8715
X4.5465Y-3.0215
X4.5715Y-3.7965
X4.5715Y-3.9465
X4.5965Y-2.7965
X4.5965Y-3.0965
X4.6215Y-3.7215
X4.6215Y-4.0215
X4.6465Y-2.8715
X4.6465Y-3.0215
X4.6715Y-3.7965
X4.6715Y-3.9465
X4.8215Y-3.1215
X4.8215Y-3.7215
X4.8715Y-2.8715
X4.8715Y-3.9215
X4.9715Y-2.8715
X4.9715Y-2.9715
X4.9715Y-3.9215
X4.9715Y-4.0215
X5.0715Y-2.8715
X5.0715Y-3.9215
X5.1215Y-3.1215
X5.1215Y-3.7215
X5.3715Y-2.8215
X5.3715Y-3.1215
X5.3715Y-3.7215
X5.3715Y-4.0215
X5.4715Y-2.8215
X5.4715Y-3.1215
X5.4715Y-3.7215
X5.4715Y-4.0215
X5.6215Y-4.7465
X5.6215Y-4.9465
X5.6715Y-2.8215
X5.6715Y-3.1215
X5.6715Y-3.3215
X5.6715Y-3.5215
X5.6715Y-3.7215
X5.6715Y-4.0215
X5.7715Y-2.8215
X5.7715Y-3.1215
X5.7715Y-3.7215
X5.7715Y-4.0215
X5.8215Y-3.2715
X5.8215Y-3.5715
X5.8715Y-2.8215
X5.8715Y-3.1215
X5.8715Y-3.7215
X5.8715Y-4.0215
X5.9215Y-3.2715
X5.9215Y-3.5715
X5.9215Y-4.7465
X5.9215Y-4.9465
X5.9715Y-2.8215
X5.9715Y-3.1215
X5.9715Y-3.7215
X5.9715Y-4.0215
X6.0215Y-3.2715
X6.0215Y-3.5715
X6.0715Y-4.3465
X6.0715Y-4.6465
X6.0715Y-5.0465
X6.0715Y-5.3465
X6.1215Y-2.8215
X6.1215Y-3.1215
X6.1215Y-3.2715
X6.1215Y-3.5715
X6.1215Y-3.7215
X6.1215Y-4.0215
X6.2215Y-2.8215
X6.2215Y-3.1215
X6.2215Y-3.2715
X6.2215Y-3.5715
X6.2215Y-3.7215
X6.2215Y-4.0215
X6.3215Y-2.8215
X6.3215Y-3.1215
X6.3215Y-3.2715
X6.3215Y-3.5715
X6.3215Y-3.7215
X6.3215Y-4.0215
X6.4215Y-3.2715
X6.4215Y-3.5715
X6.5215Y-3.2715
X6.5215Y-3.5715
X6.5715Y-3.8715
X6.5715Y-4.7465
X6.5715Y-4.9465
X6.6215Y-2.8715
X6.6215Y-2.9715
X6.6215Y-3.0715
X6.6715Y-3.3215
X6.6715Y-3.5215
X6.6715Y-3.7715
X6.6715Y-3.8715
X6.6715Y-3.9715
X6.7215Y-2.9715
X6.8215Y-3.3215
X6.8215Y-3.5215
X6.8715Y-2.8215
X6.8715Y-3.1215
X6.8715Y-3.7215
X6.8715Y-4.0215
X6.8715Y-4.7465
X6.8715Y-4.9465
X6.9715Y-2.8215
X6.9715Y-3.1215
X6.9715Y-3.2715
X6.9715Y-3.5715
X6.9715Y-3.7215
X6.9715Y-4.0215
X7.0715Y-2.8215
X7.0715Y-3.1215
X7.0715Y-3.2715
X7.0715Y-3.5715
X7.0715Y-3.7215
X7.0715Y-4.0215
X7.1715Y-2.8215
X7.1715Y-3.1215
X7.1715Y-3.2715
X7.1715Y-3.5715
X7.1715Y-3.7215
X7.1715Y-4.0215
X7.2715Y-2.8215
X7.2715Y-3.1215
X7.2715Y-3.2715
X7.2715Y-3.5715
X7.2715Y-3.7215
X7.2715Y-4.0215
X7.3715Y-2.8215
X7.3715Y-3.1215
X7.3715Y-3.2715
X7.3715Y-3.5715
X7.3715Y-3.7215
X7.3715Y-4.0215
X7.4715Y-2.8215
X7.4715Y-3.1215
X7.4715Y-3.2715
X7.4715Y-3.5715
X7.4715Y-3.7215
X7.4715Y-4.0215
X7.5715Y-2.8215
X7.5715Y-3.1215
X7.5715Y-3.2715
X7.5715Y-3.5715
X7.5715Y-3.7215
X7.5715Y-4.0215
X7.6715Y-3.5715
X7.6715Y-3.7715
T3
X4.0215Y-3.2215
X4.0215Y-3.3215
X4.0215Y-3.4215
X4.0215Y-3.5215
X4.0215Y-3.6215
X4.1215Y-3.2215
X4.1215Y-3.3215
X4.1215Y-3.4215
X4.1215Y-3.5215
X4.1215Y-3.6215
T4
X4.3715Y-3.4215
X4.3715Y-4.8465
X4.4715Y-3.4215
X4.4715Y-4.8465
X4.5715Y-3.4215
X4.5715Y-4.8465
X4.6715Y-3.4215
X4.6715Y-4.8465
X4.8215Y-3.2715
X4.8215Y-3.5715
X4.8215Y-4.6965
X4.8215Y-4.9965
X4.9215Y-3.2715
X4.9215Y-3.5715
X4.9215Y-4.6965
X4.9215Y-4.9965
X5.0215Y-3.2715
X5.0215Y-3.5715
X5.0215Y-4.6965
X5.0215Y-4.9965
X5.1215Y-3.2715
X5.1215Y-3.5715
X5.1215Y-4.6965
X5.1215Y-4.9965
X5.2215Y-3.2715
X5.2215Y-3.5715
X5.2215Y-4.6965
X5.2215Y-4.9965
X5.3215Y-3.2715
X5.3215Y-3.5715
X5.3215Y-4.6965
X5.3215Y-4.9965
T5
X5.4959Y-4.3481
X5.4959Y-4.4465
X5.4959Y-4.5449
X5.4959Y-5.1481
X5.4959Y-5.2465
X5.4959Y-5.3449
X6.7959Y-4.3481
X6.7959Y-4.4465
X6.7959Y-4.5449
X6.7959Y-5.1481
X6.7959Y-5.2465
X6.7959Y-5.3449
T6
X3.9717Y-4.7008
X3.972Y-4.9921
X4.4713Y-4.9917
X4.4717Y-4.7004
X6.4217Y-4.7012
X6.4217Y-4.9909
X7.6705Y-4.7012
X7.6713Y-4.9913
T7
X3.9717Y-4.5787
X3.972Y-5.1142
X4.4713Y-5.1138
X4.4717Y-4.5783
X6.4217Y-4.5791
X6.4217Y-5.113
X7.6705Y-4.5791
X7.6713Y-5.1134
T8
X3.9717Y-4.252
X3.972Y-5.4409
X4.4713Y-5.4406
X4.4717Y-4.2516
X6.4217Y-4.2524
X6.4217Y-5.4398
X7.6705Y-4.2524
X7.6713Y-5.4402
T9
X4.8865Y-4.4465
X4.8865Y-5.2465
X5.0715Y-4.4465
X5.0715Y-5.2465
X5.2565Y-4.4465
X5.2565Y-5.2465
T10
X5.7715Y-4.2693
X5.7715Y-4.6237
X5.7715Y-5.0693
X5.7715Y-5.4237
X7.0715Y-4.2693
X7.0715Y-4.6237
X7.0715Y-5.0693
X7.0715Y-5.4237
T0
M30
