M48
; DRILL file {KiCad (6.0.7)} date Sat 20 Aug 2022 04:45:57 PM CEST
; FORMAT={-:-/ absolute / inch / decimal}
; #@! TF.CreationDate,2022-08-20T16:45:57+02:00
; #@! TF.GenerationSoftware,Kicad,Pcbnew,(6.0.7)
; #@! TF.FileFunction,Plated,1,2,PTH
FMAT,2
INCH
; #@! TA.AperFunction,Plated,PTH,ComponentDrill
T1C0.0320
; #@! TA.AperFunction,Plated,PTH,ComponentDrill
T2C0.0400
; #@! TA.AperFunction,Plated,PTH,ComponentDrill
T3C0.0433
; #@! TA.AperFunction,Plated,PTH,ComponentDrill
T4C0.0480
; #@! TA.AperFunction,Plated,PTH,ComponentDrill
T5C0.0559
; #@! TA.AperFunction,Plated,PTH,ComponentDrill
T6C0.0563
; #@! TA.AperFunction,Plated,PTH,ComponentDrill
T7C0.0710
; #@! TA.AperFunction,Plated,PTH,ComponentDrill
T8C0.0827
%
G90
G05
T1
X5.6215Y-4.7465
X5.6215Y-4.9465
X5.9215Y-4.7465
X5.9215Y-4.9465
X6.0715Y-4.3465
X6.0715Y-4.6465
X6.0715Y-5.0465
X6.0715Y-5.3465
X6.5715Y-4.7465
X6.5715Y-4.9465
X6.8715Y-4.7465
X6.8715Y-4.9465
T2
X4.3715Y-4.8465
X4.4715Y-4.8465
X4.5715Y-4.8465
X4.6715Y-4.8465
X4.8215Y-4.6965
X4.8215Y-4.9965
X4.9215Y-4.6965
X4.9215Y-4.9965
X5.0215Y-4.6965
X5.0215Y-4.9965
X5.1215Y-4.6965
X5.1215Y-4.9965
X5.2215Y-4.6965
X5.2215Y-4.9965
X5.3215Y-4.6965
X5.3215Y-4.9965
T3
X5.4959Y-4.3481
X5.4959Y-4.4465
X5.4959Y-4.5449
X5.4959Y-5.1481
X5.4959Y-5.2465
X5.4959Y-5.3449
X6.7959Y-4.3481
X6.7959Y-4.4465
X6.7959Y-4.5449
X6.7959Y-5.1481
X6.7959Y-5.2465
X6.7959Y-5.3449
T4
X3.9717Y-4.7008
X3.972Y-4.9921
X4.4713Y-4.9917
X4.4717Y-4.7004
X6.4217Y-4.7012
X6.4217Y-4.9909
X7.6705Y-4.7012
X7.6713Y-4.9913
T5
X3.9717Y-4.5787
X3.972Y-5.1142
X4.4713Y-5.1138
X4.4717Y-4.5783
X6.4217Y-4.5791
X6.4217Y-5.113
X7.6705Y-4.5791
X7.6713Y-5.1134
T6
X3.9717Y-4.252
X3.972Y-5.4409
X4.4713Y-5.4406
X4.4717Y-4.2516
X6.4217Y-4.2524
X6.4217Y-5.4398
X7.6705Y-4.2524
X7.6713Y-5.4402
T7
X4.8865Y-4.4465
X4.8865Y-5.2465
X5.0715Y-4.4465
X5.0715Y-5.2465
X5.2565Y-4.4465
X5.2565Y-5.2465
T8
X5.7715Y-4.2693
X5.7715Y-4.6237
X5.7715Y-5.0693
X5.7715Y-5.4237
X7.0715Y-4.2693
X7.0715Y-4.6237
X7.0715Y-5.0693
X7.0715Y-5.4237
T0
M30
