%TF.GenerationSoftware,KiCad,Pcbnew,(6.0.7)*%
%TF.CreationDate,2022-08-20T16:45:58+02:00*%
%TF.ProjectId,ioboard,696f626f-6172-4642-9e6b-696361645f70,rev?*%
%TF.SameCoordinates,Original*%
%TF.FileFunction,Copper,L1,Top*%
%TF.FilePolarity,Positive*%
%FSLAX46Y46*%
G04 Gerber Fmt 4.6, Leading zero omitted, Abs format (unit mm)*
G04 Created by KiCad (PCBNEW (6.0.7)) date 2022-08-20 16:45:58*
%MOMM*%
%LPD*%
G01*
G04 APERTURE LIST*
G04 Aperture macros list*
%AMOutline5P*
0 Free polygon, 5 corners , with rotation*
0 The origin of the aperture is its center*
0 number of corners: always 5*
0 $1 to $10 corner X, Y*
0 $11 Rotation angle, in degrees counterclockwise*
0 create outline with 5 corners*
4,1,5,$1,$2,$3,$4,$5,$6,$7,$8,$9,$10,$1,$2,$11*%
%AMOutline6P*
0 Free polygon, 6 corners , with rotation*
0 The origin of the aperture is its center*
0 number of corners: always 6*
0 $1 to $12 corner X, Y*
0 $13 Rotation angle, in degrees counterclockwise*
0 create outline with 6 corners*
4,1,6,$1,$2,$3,$4,$5,$6,$7,$8,$9,$10,$11,$12,$1,$2,$13*%
%AMOutline7P*
0 Free polygon, 7 corners , with rotation*
0 The origin of the aperture is its center*
0 number of corners: always 7*
0 $1 to $14 corner X, Y*
0 $15 Rotation angle, in degrees counterclockwise*
0 create outline with 7 corners*
4,1,7,$1,$2,$3,$4,$5,$6,$7,$8,$9,$10,$11,$12,$13,$14,$1,$2,$15*%
%AMOutline8P*
0 Free polygon, 8 corners , with rotation*
0 The origin of the aperture is its center*
0 number of corners: always 8*
0 $1 to $16 corner X, Y*
0 $17 Rotation angle, in degrees counterclockwise*
0 create outline with 8 corners*
4,1,8,$1,$2,$3,$4,$5,$6,$7,$8,$9,$10,$11,$12,$13,$14,$15,$16,$1,$2,$17*%
G04 Aperture macros list end*
%TA.AperFunction,ComponentPad*%
%ADD10O,2.705100X5.410200*%
%TD*%
%TA.AperFunction,ComponentPad*%
%ADD11Outline8P,-0.660400X0.273547X-0.273547X0.660400X0.273547X0.660400X0.660400X0.273547X0.660400X-0.273547X0.273547X-0.660400X-0.273547X-0.660400X-0.660400X-0.273547X270.000000*%
%TD*%
%TA.AperFunction,ComponentPad*%
%ADD12R,1.676400X1.676400*%
%TD*%
%TA.AperFunction,ComponentPad*%
%ADD13Outline8P,-0.838200X0.347194X-0.347194X0.838200X0.347194X0.838200X0.838200X0.347194X0.838200X-0.347194X0.347194X-0.838200X-0.347194X-0.838200X-0.838200X-0.347194X180.000000*%
%TD*%
%TA.AperFunction,ComponentPad*%
%ADD14R,2.800000X2.800000*%
%TD*%
%TA.AperFunction,ComponentPad*%
%ADD15Outline8P,-0.660400X0.273547X-0.273547X0.660400X0.273547X0.660400X0.660400X0.273547X0.660400X-0.273547X0.273547X-0.660400X-0.273547X-0.660400X-0.660400X-0.273547X180.000000*%
%TD*%
%TA.AperFunction,ComponentPad*%
%ADD16O,1.524000X3.048000*%
%TD*%
%TA.AperFunction,ComponentPad*%
%ADD17R,1.930000X1.830000*%
%TD*%
%TA.AperFunction,ComponentPad*%
%ADD18C,2.130000*%
%TD*%
%TA.AperFunction,ComponentPad*%
%ADD19Outline8P,-0.660400X0.273547X-0.273547X0.660400X0.273547X0.660400X0.660400X0.273547X0.660400X-0.273547X0.273547X-0.660400X-0.273547X-0.660400X-0.660400X-0.273547X0.000000*%
%TD*%
%TA.AperFunction,ComponentPad*%
%ADD20Outline8P,-0.660400X0.273547X-0.273547X0.660400X0.273547X0.660400X0.660400X0.273547X0.660400X-0.273547X0.273547X-0.660400X-0.273547X-0.660400X-0.660400X-0.273547X90.000000*%
%TD*%
%TA.AperFunction,Conductor*%
%ADD21C,0.609600*%
%TD*%
%TA.AperFunction,Conductor*%
%ADD22C,0.406400*%
%TD*%
G04 APERTURE END LIST*
D10*
%TO.P,S2,1,O*%
%TO.N,/SWA2_IO*%
X133515100Y-133261100D03*
%TO.P,S2,2,P*%
%TO.N,/SWB2_IO*%
X128816100Y-133261100D03*
%TO.P,S2,3,S*%
%TO.N,/SWC2_IO*%
X124117100Y-133261100D03*
%TD*%
D11*
%TO.P,R16,1,1*%
%TO.N,Net-(CV2_1-PadT)*%
X154216100Y-110401100D03*
%TO.P,R16,2,2*%
%TO.N,/CV1_IO*%
X154216100Y-118021100D03*
%TD*%
D12*
%TO.P,CV_ATTN_1,1,A*%
%TO.N,Net-(CV_ATTN_1-Pad1)*%
X172616100Y-110441100D03*
D13*
%TO.P,CV_ATTN_1,2,S*%
%TO.N,Net-(CV1_1-PadT)*%
X172616100Y-112941100D03*
%TO.P,CV_ATTN_1,3,E*%
%TO.N,GND*%
X172616100Y-115441100D03*
D14*
%TO.P,CV_ATTN_1,M1*%
%TO.N,N/C*%
X179616100Y-117441100D03*
%TO.P,CV_ATTN_1,M2*%
X179616100Y-108441100D03*
%TD*%
D15*
%TO.P,R38,1,1*%
%TO.N,Net-(CV_ATTN_2-Pad1)*%
X174536100Y-125641100D03*
%TO.P,R38,2,2*%
%TO.N,/CV2_IO*%
X166916100Y-125641100D03*
%TD*%
%TO.P,R18,1,1*%
%TO.N,Net-(CV_ATTN_1-Pad1)*%
X174536100Y-120561100D03*
%TO.P,R18,2,2*%
%TO.N,/CV1_IO*%
X166916100Y-120561100D03*
%TD*%
D16*
%TO.P,JP2,1,1*%
%TO.N,/CV1_IO*%
X135166100Y-119291100D03*
%TO.P,JP2,2,2*%
%TO.N,/AI1_IO*%
X132626100Y-119291100D03*
%TO.P,JP2,3,3*%
%TO.N,/SWA1_IO*%
X130086100Y-119291100D03*
%TO.P,JP2,4,4*%
%TO.N,/SWB1_IO*%
X127546100Y-119291100D03*
%TO.P,JP2,5,5*%
%TO.N,/SWC1_IO*%
X125006100Y-119291100D03*
%TO.P,JP2,6,6*%
%TO.N,/AO1_IO*%
X122466100Y-119291100D03*
%TD*%
D17*
%TO.P,AUDIO_OUT_2,S*%
%TO.N,GND*%
X100890000Y-126800000D03*
D18*
%TO.P,AUDIO_OUT_2,T*%
%TO.N,/AO2_IO*%
X100890000Y-138200000D03*
%TO.P,AUDIO_OUT_2,TN*%
%TO.N,unconnected-(AUDIO_OUT_2-PadTN)*%
X100890000Y-129900000D03*
%TD*%
D19*
%TO.P,R37,1,1*%
%TO.N,Net-(BIAS_2-Pad2)*%
X142786100Y-125641100D03*
%TO.P,R37,2,2*%
%TO.N,/CV2_IO*%
X150406100Y-125641100D03*
%TD*%
D12*
%TO.P,BIAS_1,1,A*%
%TO.N,-12V*%
X139596100Y-110441100D03*
D13*
%TO.P,BIAS_1,2,S*%
%TO.N,Net-(BIAS_1-Pad2)*%
X139596100Y-112941100D03*
%TO.P,BIAS_1,3,E*%
%TO.N,+12V*%
X139596100Y-115441100D03*
D14*
%TO.P,BIAS_1,M1*%
%TO.N,N/C*%
X146596100Y-117441100D03*
%TO.P,BIAS_1,M2*%
X146596100Y-108441100D03*
%TD*%
D20*
%TO.P,R36,1,1*%
%TO.N,Net-(CV2_2-PadT)*%
X154216100Y-135801100D03*
%TO.P,R36,2,2*%
%TO.N,/CV2_IO*%
X154216100Y-128181100D03*
%TD*%
D19*
%TO.P,R17,1,1*%
%TO.N,Net-(BIAS_1-Pad2)*%
X142786100Y-120561100D03*
%TO.P,R17,2,2*%
%TO.N,/CV1_IO*%
X150406100Y-120561100D03*
%TD*%
D16*
%TO.P,JP5,1,1*%
%TO.N,GND*%
X111036100Y-123101100D03*
%TO.P,JP5,2,2*%
%TO.N,+12V*%
X113576100Y-123101100D03*
%TO.P,JP5,3,3*%
%TO.N,-12V*%
X116116100Y-123101100D03*
%TO.P,JP5,4,4*%
%TO.N,GND*%
X118656100Y-123101100D03*
%TD*%
D17*
%TO.P,CV2_2,S*%
%TO.N,GND*%
X163110000Y-126770000D03*
D18*
%TO.P,CV2_2,T*%
%TO.N,Net-(CV2_2-PadT)*%
X163110000Y-138170000D03*
%TO.P,CV2_2,TN*%
%TO.N,unconnected-(CV2_2-PadTN)*%
X163110000Y-129870000D03*
%TD*%
D12*
%TO.P,BIAS_2,1,A*%
%TO.N,-12V*%
X139596100Y-130761100D03*
D13*
%TO.P,BIAS_2,2,S*%
%TO.N,Net-(BIAS_2-Pad2)*%
X139596100Y-133261100D03*
%TO.P,BIAS_2,3,E*%
%TO.N,+12V*%
X139596100Y-135761100D03*
D14*
%TO.P,BIAS_2,M1*%
%TO.N,N/C*%
X146596100Y-137761100D03*
%TO.P,BIAS_2,M2*%
X146596100Y-128761100D03*
%TD*%
D17*
%TO.P,AUDIO_IN_2,S*%
%TO.N,GND*%
X113570000Y-126790000D03*
D18*
%TO.P,AUDIO_IN_2,T*%
%TO.N,/AI2_IO*%
X113570000Y-138190000D03*
%TO.P,AUDIO_IN_2,TN*%
%TO.N,unconnected-(AUDIO_IN_2-PadTN)*%
X113570000Y-129890000D03*
%TD*%
D12*
%TO.P,CV_ATTN_2,1,A*%
%TO.N,Net-(CV_ATTN_2-Pad1)*%
X172616100Y-130761100D03*
D13*
%TO.P,CV_ATTN_2,2,S*%
%TO.N,Net-(CV1_2-PadT)*%
X172616100Y-133261100D03*
%TO.P,CV_ATTN_2,3,E*%
%TO.N,GND*%
X172616100Y-135761100D03*
D14*
%TO.P,CV_ATTN_2,M1*%
%TO.N,N/C*%
X179616100Y-137761100D03*
%TO.P,CV_ATTN_2,M2*%
X179616100Y-128761100D03*
%TD*%
D16*
%TO.P,JP1,1,1*%
%TO.N,/CV2_IO*%
X135166100Y-126911100D03*
%TO.P,JP1,2,2*%
%TO.N,/AI2_IO*%
X132626100Y-126911100D03*
%TO.P,JP1,3,3*%
%TO.N,/SWA2_IO*%
X130086100Y-126911100D03*
%TO.P,JP1,4,4*%
%TO.N,/SWB2_IO*%
X127546100Y-126911100D03*
%TO.P,JP1,5,5*%
%TO.N,/SWC2_IO*%
X125006100Y-126911100D03*
%TO.P,JP1,6,6*%
%TO.N,/AO2_IO*%
X122466100Y-126911100D03*
%TD*%
D17*
%TO.P,AUDIO_IN_1,S*%
%TO.N,GND*%
X113580000Y-119390000D03*
D18*
%TO.P,AUDIO_IN_1,T*%
%TO.N,/AI1_IO*%
X113580000Y-107990000D03*
%TO.P,AUDIO_IN_1,TN*%
%TO.N,unconnected-(AUDIO_IN_1-PadTN)*%
X113580000Y-116290000D03*
%TD*%
D10*
%TO.P,S1,1,O*%
%TO.N,/SWA1_IO*%
X133515100Y-112941100D03*
%TO.P,S1,2,P*%
%TO.N,/SWB1_IO*%
X128816100Y-112941100D03*
%TO.P,S1,3,S*%
%TO.N,/SWC1_IO*%
X124117100Y-112941100D03*
%TD*%
D17*
%TO.P,AUDIO_OUT_1,S*%
%TO.N,GND*%
X100880000Y-119400000D03*
D18*
%TO.P,AUDIO_OUT_1,T*%
%TO.N,/AO1_IO*%
X100880000Y-108000000D03*
%TO.P,AUDIO_OUT_1,TN*%
%TO.N,unconnected-(AUDIO_OUT_1-PadTN)*%
X100880000Y-116300000D03*
%TD*%
D17*
%TO.P,CV2_1,S*%
%TO.N,GND*%
X163110000Y-119410000D03*
D18*
%TO.P,CV2_1,T*%
%TO.N,Net-(CV2_1-PadT)*%
X163110000Y-108010000D03*
%TO.P,CV2_1,TN*%
%TO.N,unconnected-(CV2_1-PadTN)*%
X163110000Y-116310000D03*
%TD*%
D17*
%TO.P,CV1_2,S*%
%TO.N,GND*%
X194850000Y-126780000D03*
D18*
%TO.P,CV1_2,T*%
%TO.N,Net-(CV1_2-PadT)*%
X194850000Y-138180000D03*
%TO.P,CV1_2,TN*%
%TO.N,unconnected-(CV1_2-PadTN)*%
X194850000Y-129880000D03*
%TD*%
D17*
%TO.P,CV1_1,S*%
%TO.N,GND*%
X194830000Y-119410000D03*
D18*
%TO.P,CV1_1,T*%
%TO.N,Net-(CV1_1-PadT)*%
X194830000Y-108010000D03*
%TO.P,CV1_1,TN*%
%TO.N,unconnected-(CV1_1-PadTN)*%
X194830000Y-116310000D03*
%TD*%
D21*
%TO.N,+12V*%
X139596100Y-115481100D02*
X139596100Y-115441100D01*
X121196100Y-131520100D02*
X113576100Y-123900100D01*
%TO.N,-12V*%
X116116100Y-124371100D02*
X117386100Y-125641100D01*
%TO.N,+12V*%
X139611100Y-123101100D02*
X139596100Y-115481100D01*
X113576100Y-123900100D02*
X113576100Y-123101100D01*
X139611100Y-135801100D02*
X135801100Y-139611100D01*
X139611100Y-135761100D02*
X139611100Y-135801100D01*
%TO.N,-12V*%
X137706100Y-111076100D02*
X137706100Y-123101100D01*
%TO.N,+12V*%
X124371100Y-139611100D02*
X121196100Y-136436100D01*
X139611100Y-135761100D02*
X141516100Y-133856100D01*
X135801100Y-139611100D02*
X124371100Y-139611100D01*
%TO.N,-12V*%
X122466100Y-123101100D02*
X137706100Y-123101100D01*
X116116100Y-123101100D02*
X116116100Y-124371100D01*
X139596100Y-110441100D02*
X138341100Y-110401100D01*
%TO.N,+12V*%
X139596100Y-135761100D02*
X139611100Y-135761100D01*
D22*
%TO.N,/AI1_IO*%
X118656100Y-115481100D02*
X119926100Y-116751100D01*
X131991100Y-116751100D02*
X132626100Y-117386100D01*
X118656100Y-113066100D02*
X113580000Y-107990000D01*
D21*
%TO.N,+12V*%
X141516100Y-133856100D02*
X141516100Y-125006100D01*
X121196100Y-136436100D02*
X121196100Y-131520100D01*
X141516100Y-125006100D02*
X139611100Y-123101100D01*
%TO.N,-12V*%
X137706100Y-123101100D02*
X139611100Y-125006100D01*
X139611100Y-128816100D02*
X139596100Y-130721100D01*
%TO.N,+12V*%
X113576100Y-123101100D02*
X113576100Y-124371100D01*
%TO.N,-12V*%
X117386100Y-125641100D02*
X119926100Y-125641100D01*
X139596100Y-130721100D02*
X139596100Y-130761100D01*
X138341100Y-110401100D02*
X138341100Y-110441100D01*
X119926100Y-125641100D02*
X122466100Y-123101100D01*
X138341100Y-110441100D02*
X137706100Y-111076100D01*
D22*
%TO.N,/AI1_IO*%
X118656100Y-115481100D02*
X118656100Y-113066100D01*
X119926100Y-116751100D02*
X131991100Y-116751100D01*
D21*
%TO.N,-12V*%
X139611100Y-125006100D02*
X139611100Y-128816100D01*
D22*
%TO.N,/SWA2_IO*%
X130086100Y-129451100D02*
X130086100Y-126911100D01*
X133261100Y-132626100D02*
X130086100Y-129451100D01*
X133515100Y-133261100D02*
X133261100Y-133261100D01*
X133261100Y-133261100D02*
X133261100Y-132626100D01*
%TO.N,/SWB2_IO*%
X128816100Y-130721100D02*
X127546100Y-129451100D01*
X127546100Y-129451100D02*
X127546100Y-126911100D01*
X128816100Y-133261100D02*
X128816100Y-130721100D01*
%TO.N,/SWC2_IO*%
X125006100Y-129451100D02*
X124117100Y-130086100D01*
%TO.N,/AI1_IO*%
X132626100Y-117386100D02*
X132626100Y-119291100D01*
%TO.N,/SWC2_IO*%
X125006100Y-126911100D02*
X125006100Y-129451100D01*
X124117100Y-130086100D02*
X124117100Y-133261100D01*
%TD*%
%TA.AperFunction,Conductor*%
%TO.N,GND*%
G36*
X99658821Y-105195163D02*
G01*
X201943848Y-105345816D01*
X202002951Y-105365116D01*
X202039422Y-105415470D01*
X202044300Y-105446416D01*
X202044300Y-140755000D01*
X202025087Y-140814131D01*
X201974787Y-140850676D01*
X201943700Y-140855600D01*
X94652200Y-140855600D01*
X94593069Y-140836387D01*
X94556524Y-140786087D01*
X94551600Y-140755000D01*
X94551600Y-138200000D01*
X99616454Y-138200000D01*
X99635802Y-138421149D01*
X99693258Y-138635578D01*
X99787077Y-138836773D01*
X99789596Y-138840370D01*
X99909580Y-139011726D01*
X99914407Y-139018620D01*
X100071380Y-139175593D01*
X100074974Y-139178110D01*
X100074977Y-139178112D01*
X100150313Y-139230862D01*
X100253227Y-139302923D01*
X100454422Y-139396742D01*
X100558319Y-139424581D01*
X100664603Y-139453060D01*
X100664606Y-139453060D01*
X100668851Y-139454198D01*
X100890000Y-139473546D01*
X101111149Y-139454198D01*
X101115394Y-139453060D01*
X101115397Y-139453060D01*
X101221681Y-139424581D01*
X101325578Y-139396742D01*
X101526773Y-139302923D01*
X101629687Y-139230862D01*
X101705023Y-139178112D01*
X101705026Y-139178110D01*
X101708620Y-139175593D01*
X101865593Y-139018620D01*
X101870421Y-139011726D01*
X101990404Y-138840370D01*
X101992923Y-138836773D01*
X102086742Y-138635578D01*
X102144198Y-138421149D01*
X102163546Y-138200000D01*
X102162671Y-138190000D01*
X112296454Y-138190000D01*
X112315802Y-138411149D01*
X112316940Y-138415394D01*
X112316940Y-138415397D01*
X112318481Y-138421149D01*
X112373258Y-138625578D01*
X112467077Y-138826773D01*
X112469596Y-138830370D01*
X112589580Y-139001726D01*
X112594407Y-139008620D01*
X112751380Y-139165593D01*
X112754974Y-139168110D01*
X112754977Y-139168112D01*
X112780544Y-139186014D01*
X112933227Y-139292923D01*
X113134422Y-139386742D01*
X113269963Y-139423060D01*
X113344603Y-139443060D01*
X113344606Y-139443060D01*
X113348851Y-139444198D01*
X113570000Y-139463546D01*
X113791149Y-139444198D01*
X113795394Y-139443060D01*
X113795397Y-139443060D01*
X113870037Y-139423060D01*
X114005578Y-139386742D01*
X114206773Y-139292923D01*
X114359456Y-139186014D01*
X114385023Y-139168112D01*
X114385026Y-139168110D01*
X114388620Y-139165593D01*
X114545593Y-139008620D01*
X114550421Y-139001726D01*
X114670404Y-138830370D01*
X114672923Y-138826773D01*
X114766742Y-138625578D01*
X114821519Y-138421149D01*
X114823060Y-138415397D01*
X114823060Y-138415394D01*
X114824198Y-138411149D01*
X114843546Y-138190000D01*
X114824198Y-137968851D01*
X114822693Y-137963232D01*
X114767879Y-137758667D01*
X114766742Y-137754422D01*
X114672923Y-137553227D01*
X114552595Y-137381380D01*
X114548112Y-137374977D01*
X114548110Y-137374974D01*
X114545593Y-137371380D01*
X114388620Y-137214407D01*
X114385026Y-137211890D01*
X114385023Y-137211888D01*
X114224652Y-137099596D01*
X114206773Y-137087077D01*
X114005578Y-136993258D01*
X113828470Y-136945802D01*
X113795397Y-136936940D01*
X113795394Y-136936940D01*
X113791149Y-136935802D01*
X113570000Y-136916454D01*
X113348851Y-136935802D01*
X113344606Y-136936940D01*
X113344603Y-136936940D01*
X113311530Y-136945802D01*
X113134422Y-136993258D01*
X112933227Y-137087077D01*
X112915348Y-137099596D01*
X112754977Y-137211888D01*
X112754974Y-137211890D01*
X112751380Y-137214407D01*
X112594407Y-137371380D01*
X112591890Y-137374974D01*
X112591888Y-137374977D01*
X112587405Y-137381380D01*
X112467077Y-137553227D01*
X112373258Y-137754422D01*
X112372121Y-137758667D01*
X112317308Y-137963232D01*
X112315802Y-137968851D01*
X112296454Y-138190000D01*
X102162671Y-138190000D01*
X102144198Y-137978851D01*
X102142693Y-137973232D01*
X102087879Y-137768667D01*
X102086742Y-137764422D01*
X101992923Y-137563227D01*
X101865593Y-137381380D01*
X101708620Y-137224407D01*
X101705026Y-137221890D01*
X101705023Y-137221888D01*
X101617697Y-137160742D01*
X101526773Y-137097077D01*
X101325578Y-137003258D01*
X101141002Y-136953801D01*
X101115397Y-136946940D01*
X101115394Y-136946940D01*
X101111149Y-136945802D01*
X100890000Y-136926454D01*
X100668851Y-136945802D01*
X100664606Y-136946940D01*
X100664603Y-136946940D01*
X100638998Y-136953801D01*
X100454422Y-137003258D01*
X100253227Y-137097077D01*
X100162304Y-137160742D01*
X100074977Y-137221888D01*
X100074974Y-137221890D01*
X100071380Y-137224407D01*
X99914407Y-137381380D01*
X99787077Y-137563227D01*
X99693258Y-137764422D01*
X99692121Y-137768667D01*
X99637308Y-137973232D01*
X99635802Y-137978851D01*
X99616454Y-138200000D01*
X94551600Y-138200000D01*
X94551600Y-133243226D01*
X99385308Y-133243226D01*
X99399507Y-133489475D01*
X99400413Y-133493494D01*
X99400413Y-133493496D01*
X99452342Y-133723921D01*
X99453734Y-133730099D01*
X99546532Y-133958634D01*
X99548683Y-133962144D01*
X99548686Y-133962150D01*
X99667127Y-134155427D01*
X99675411Y-134168945D01*
X99743305Y-134247324D01*
X99816883Y-134332264D01*
X99836908Y-134355382D01*
X99840076Y-134358012D01*
X99840081Y-134358017D01*
X99993057Y-134485019D01*
X100026687Y-134512939D01*
X100239650Y-134637385D01*
X100243505Y-134638857D01*
X100243507Y-134638858D01*
X100297702Y-134659553D01*
X100470079Y-134725377D01*
X100474122Y-134726200D01*
X100474127Y-134726201D01*
X100662634Y-134764553D01*
X100711785Y-134774553D01*
X100958278Y-134783592D01*
X101079311Y-134768087D01*
X101198848Y-134752774D01*
X101198852Y-134752773D01*
X101202936Y-134752250D01*
X101439191Y-134681370D01*
X101660697Y-134572856D01*
X101664052Y-134570463D01*
X101858145Y-134432018D01*
X101858148Y-134432016D01*
X101861505Y-134429621D01*
X101967255Y-134324240D01*
X102033304Y-134258421D01*
X102033305Y-134258420D01*
X102036223Y-134255512D01*
X102180158Y-134055205D01*
X102185101Y-134045205D01*
X102247872Y-133918195D01*
X102289445Y-133834079D01*
X102291361Y-133827775D01*
X102359948Y-133602027D01*
X102361149Y-133598074D01*
X102393344Y-133353526D01*
X102395141Y-133280000D01*
X102391295Y-133233226D01*
X112065308Y-133233226D01*
X112079507Y-133479475D01*
X112080413Y-133483494D01*
X112080413Y-133483496D01*
X112132342Y-133713921D01*
X112133734Y-133720099D01*
X112226532Y-133948634D01*
X112228683Y-133952144D01*
X112228686Y-133952150D01*
X112345957Y-134143518D01*
X112355411Y-134158945D01*
X112424255Y-134238421D01*
X112496883Y-134322264D01*
X112516908Y-134345382D01*
X112520076Y-134348012D01*
X112520081Y-134348017D01*
X112672090Y-134474216D01*
X112706687Y-134502939D01*
X112919650Y-134627385D01*
X113150079Y-134715377D01*
X113154122Y-134716200D01*
X113154127Y-134716201D01*
X113360928Y-134758275D01*
X113391785Y-134764553D01*
X113638278Y-134773592D01*
X113782191Y-134755156D01*
X113878848Y-134742774D01*
X113878852Y-134742773D01*
X113882936Y-134742250D01*
X114119191Y-134671370D01*
X114340697Y-134562856D01*
X114352176Y-134554668D01*
X114538145Y-134422018D01*
X114538148Y-134422016D01*
X114541505Y-134419621D01*
X114637220Y-134324240D01*
X114713304Y-134248421D01*
X114713305Y-134248420D01*
X114716223Y-134245512D01*
X114855627Y-134051511D01*
X114857753Y-134048552D01*
X114857753Y-134048551D01*
X114860158Y-134045205D01*
X114865101Y-134035205D01*
X114926896Y-133910170D01*
X114969445Y-133824079D01*
X114971361Y-133817775D01*
X115039948Y-133592027D01*
X115041149Y-133588074D01*
X115071678Y-133356178D01*
X115072995Y-133346178D01*
X115072995Y-133346175D01*
X115073344Y-133343526D01*
X115074284Y-133305051D01*
X115075076Y-133272669D01*
X115075076Y-133272665D01*
X115075141Y-133270000D01*
X115054930Y-133024171D01*
X115052419Y-133014171D01*
X115007354Y-132834761D01*
X114994841Y-132784945D01*
X114896486Y-132558744D01*
X114762508Y-132351645D01*
X114759734Y-132348596D01*
X114759729Y-132348590D01*
X114599282Y-132172263D01*
X114596504Y-132169210D01*
X114575046Y-132152263D01*
X114406176Y-132018898D01*
X114402932Y-132016336D01*
X114399318Y-132014341D01*
X114399315Y-132014339D01*
X114190605Y-131899125D01*
X114190600Y-131899123D01*
X114186992Y-131897131D01*
X113954482Y-131814794D01*
X113950419Y-131814070D01*
X113950418Y-131814070D01*
X113882852Y-131802035D01*
X113711646Y-131771539D01*
X113707517Y-131771489D01*
X113707511Y-131771488D01*
X113589858Y-131770051D01*
X113465007Y-131768525D01*
X113460925Y-131769150D01*
X113460920Y-131769150D01*
X113284334Y-131796172D01*
X113221187Y-131805835D01*
X113217261Y-131807118D01*
X113217262Y-131807118D01*
X112996956Y-131879125D01*
X112986734Y-131882466D01*
X112983066Y-131884375D01*
X112983067Y-131884375D01*
X112782398Y-131988837D01*
X112767946Y-131996360D01*
X112764652Y-131998833D01*
X112764646Y-131998837D01*
X112593363Y-132127440D01*
X112570697Y-132144458D01*
X112567849Y-132147438D01*
X112567847Y-132147440D01*
X112403136Y-132319801D01*
X112403133Y-132319805D01*
X112400286Y-132322784D01*
X112261288Y-132526548D01*
X112157436Y-132750278D01*
X112091519Y-132987965D01*
X112091080Y-132992071D01*
X112091080Y-132992072D01*
X112066377Y-133223226D01*
X112065308Y-133233226D01*
X102391295Y-133233226D01*
X102374930Y-133034171D01*
X102372419Y-133024171D01*
X102324842Y-132834761D01*
X102314841Y-132794945D01*
X102216486Y-132568744D01*
X102082508Y-132361645D01*
X102079734Y-132358596D01*
X102079729Y-132358590D01*
X101919282Y-132182263D01*
X101916504Y-132179210D01*
X101895046Y-132162263D01*
X101726176Y-132028898D01*
X101722932Y-132026336D01*
X101719318Y-132024341D01*
X101719315Y-132024339D01*
X101510605Y-131909125D01*
X101510600Y-131909123D01*
X101506992Y-131907131D01*
X101274482Y-131824794D01*
X101270419Y-131824070D01*
X101270418Y-131824070D01*
X101214277Y-131814070D01*
X101031646Y-131781539D01*
X101027517Y-131781489D01*
X101027511Y-131781488D01*
X100909858Y-131780051D01*
X100785007Y-131778525D01*
X100780925Y-131779150D01*
X100780920Y-131779150D01*
X100610621Y-131805210D01*
X100541187Y-131815835D01*
X100443873Y-131847642D01*
X100316956Y-131889125D01*
X100306734Y-131892466D01*
X100281208Y-131905754D01*
X100102398Y-131998837D01*
X100087946Y-132006360D01*
X100084652Y-132008833D01*
X100084646Y-132008837D01*
X99913363Y-132137440D01*
X99890697Y-132154458D01*
X99887849Y-132157438D01*
X99887847Y-132157440D01*
X99723136Y-132329801D01*
X99723133Y-132329805D01*
X99720286Y-132332784D01*
X99581288Y-132536548D01*
X99477436Y-132760278D01*
X99411519Y-132997965D01*
X99411080Y-133002071D01*
X99411080Y-133002072D01*
X99386377Y-133233226D01*
X99385308Y-133243226D01*
X94551600Y-133243226D01*
X94551600Y-129900000D01*
X99616454Y-129900000D01*
X99635802Y-130121149D01*
X99636940Y-130125394D01*
X99636940Y-130125397D01*
X99656681Y-130199069D01*
X99693258Y-130335578D01*
X99787077Y-130536773D01*
X99795842Y-130549291D01*
X99909580Y-130711726D01*
X99914407Y-130718620D01*
X100071380Y-130875593D01*
X100074974Y-130878110D01*
X100074977Y-130878112D01*
X100151264Y-130931528D01*
X100253227Y-131002923D01*
X100454422Y-131096742D01*
X100558319Y-131124581D01*
X100664603Y-131153060D01*
X100664606Y-131153060D01*
X100668851Y-131154198D01*
X100890000Y-131173546D01*
X101111149Y-131154198D01*
X101115394Y-131153060D01*
X101115397Y-131153060D01*
X101221681Y-131124581D01*
X101325578Y-131096742D01*
X101526773Y-131002923D01*
X101628736Y-130931528D01*
X101705023Y-130878112D01*
X101705026Y-130878110D01*
X101708620Y-130875593D01*
X101865593Y-130718620D01*
X101870421Y-130711726D01*
X101984158Y-130549291D01*
X101992923Y-130536773D01*
X102086742Y-130335578D01*
X102123319Y-130199069D01*
X102143060Y-130125397D01*
X102143060Y-130125394D01*
X102144198Y-130121149D01*
X102163546Y-129900000D01*
X102162671Y-129890000D01*
X112296454Y-129890000D01*
X112296837Y-129894378D01*
X112297322Y-129899917D01*
X112315802Y-130111149D01*
X112316940Y-130115394D01*
X112316940Y-130115397D01*
X112318481Y-130121149D01*
X112373258Y-130325578D01*
X112467077Y-130526773D01*
X112482844Y-130549291D01*
X112589580Y-130701726D01*
X112594407Y-130708620D01*
X112751380Y-130865593D01*
X112754974Y-130868110D01*
X112754977Y-130868112D01*
X112769259Y-130878112D01*
X112933227Y-130992923D01*
X113134422Y-131086742D01*
X113239666Y-131114942D01*
X113344603Y-131143060D01*
X113344606Y-131143060D01*
X113348851Y-131144198D01*
X113570000Y-131163546D01*
X113791149Y-131144198D01*
X113795394Y-131143060D01*
X113795397Y-131143060D01*
X113900334Y-131114942D01*
X114005578Y-131086742D01*
X114206773Y-130992923D01*
X114370741Y-130878112D01*
X114385023Y-130868112D01*
X114385026Y-130868110D01*
X114388620Y-130865593D01*
X114545593Y-130708620D01*
X114550421Y-130701726D01*
X114657156Y-130549291D01*
X114672923Y-130526773D01*
X114766742Y-130325578D01*
X114821519Y-130121149D01*
X114823060Y-130115397D01*
X114823060Y-130115394D01*
X114824198Y-130111149D01*
X114842678Y-129899917D01*
X114843163Y-129894378D01*
X114843546Y-129890000D01*
X114824198Y-129668851D01*
X114822693Y-129663232D01*
X114767879Y-129458667D01*
X114766742Y-129454422D01*
X114672923Y-129253227D01*
X114552595Y-129081380D01*
X114548112Y-129074977D01*
X114548110Y-129074974D01*
X114545593Y-129071380D01*
X114388620Y-128914407D01*
X114385026Y-128911890D01*
X114385023Y-128911888D01*
X114297697Y-128850742D01*
X114206773Y-128787077D01*
X114005578Y-128693258D01*
X113828470Y-128645802D01*
X113795397Y-128636940D01*
X113795394Y-128636940D01*
X113791149Y-128635802D01*
X113570000Y-128616454D01*
X113348851Y-128635802D01*
X113344606Y-128636940D01*
X113344603Y-128636940D01*
X113311530Y-128645802D01*
X113134422Y-128693258D01*
X112933227Y-128787077D01*
X112842303Y-128850742D01*
X112754977Y-128911888D01*
X112754974Y-128911890D01*
X112751380Y-128914407D01*
X112594407Y-129071380D01*
X112591890Y-129074974D01*
X112591888Y-129074977D01*
X112587405Y-129081380D01*
X112467077Y-129253227D01*
X112373258Y-129454422D01*
X112372121Y-129458667D01*
X112317308Y-129663232D01*
X112315802Y-129668851D01*
X112296454Y-129890000D01*
X102162671Y-129890000D01*
X102144198Y-129678851D01*
X102142693Y-129673232D01*
X102108703Y-129546381D01*
X102086742Y-129464422D01*
X101992923Y-129263227D01*
X101865593Y-129081380D01*
X101708620Y-128924407D01*
X101705026Y-128921890D01*
X101705023Y-128921888D01*
X101550550Y-128813726D01*
X101526773Y-128797077D01*
X101325578Y-128703258D01*
X101189069Y-128666681D01*
X101115397Y-128646940D01*
X101115394Y-128646940D01*
X101111149Y-128645802D01*
X100890000Y-128626454D01*
X100668851Y-128645802D01*
X100664606Y-128646940D01*
X100664603Y-128646940D01*
X100590931Y-128666681D01*
X100454422Y-128703258D01*
X100253227Y-128797077D01*
X100229450Y-128813726D01*
X100074977Y-128921888D01*
X100074974Y-128921890D01*
X100071380Y-128924407D01*
X99914407Y-129081380D01*
X99787077Y-129263227D01*
X99693258Y-129464422D01*
X99671297Y-129546381D01*
X99637308Y-129673232D01*
X99635802Y-129678851D01*
X99616454Y-129900000D01*
X94551600Y-129900000D01*
X94551600Y-127767176D01*
X99468601Y-127767176D01*
X99468823Y-127771884D01*
X99471043Y-127795380D01*
X99473653Y-127807275D01*
X99514602Y-127923878D01*
X99521562Y-127937024D01*
X99594164Y-128035321D01*
X99604679Y-128045836D01*
X99702976Y-128118438D01*
X99716122Y-128125398D01*
X99832729Y-128166349D01*
X99844614Y-128168957D01*
X99868100Y-128171177D01*
X99872841Y-128171400D01*
X100645867Y-128171400D01*
X100658757Y-128167212D01*
X100661800Y-128163023D01*
X100661800Y-128155466D01*
X101118200Y-128155466D01*
X101122388Y-128168356D01*
X101126577Y-128171399D01*
X101907176Y-128171399D01*
X101911884Y-128171177D01*
X101935380Y-128168957D01*
X101947275Y-128166347D01*
X102063878Y-128125398D01*
X102077024Y-128118438D01*
X102175321Y-128045836D01*
X102185836Y-128035321D01*
X102258438Y-127937024D01*
X102265398Y-127923878D01*
X102306349Y-127807271D01*
X102308957Y-127795386D01*
X102311177Y-127771900D01*
X102311400Y-127767159D01*
X102311400Y-127757176D01*
X112148601Y-127757176D01*
X112148823Y-127761884D01*
X112151043Y-127785380D01*
X112153653Y-127797275D01*
X112194602Y-127913878D01*
X112201562Y-127927024D01*
X112274164Y-128025321D01*
X112284679Y-128035836D01*
X112382976Y-128108438D01*
X112396122Y-128115398D01*
X112512729Y-128156349D01*
X112524614Y-128158957D01*
X112548100Y-128161177D01*
X112552841Y-128161400D01*
X113325867Y-128161400D01*
X113338757Y-128157212D01*
X113341800Y-128153023D01*
X113341800Y-128145466D01*
X113798200Y-128145466D01*
X113802388Y-128158356D01*
X113806577Y-128161399D01*
X114587176Y-128161399D01*
X114591884Y-128161177D01*
X114615380Y-128158957D01*
X114627275Y-128156347D01*
X114743878Y-128115398D01*
X114757024Y-128108438D01*
X114855321Y-128035836D01*
X114865836Y-128025321D01*
X114938438Y-127927024D01*
X114945398Y-127913878D01*
X114986349Y-127797271D01*
X114988957Y-127785386D01*
X114991177Y-127761900D01*
X114991400Y-127757159D01*
X114991400Y-127034133D01*
X114987212Y-127021243D01*
X114983023Y-127018200D01*
X113814133Y-127018200D01*
X113801243Y-127022388D01*
X113798200Y-127026577D01*
X113798200Y-128145466D01*
X113341800Y-128145466D01*
X113341800Y-127034133D01*
X113337612Y-127021243D01*
X113333423Y-127018200D01*
X112164534Y-127018200D01*
X112151644Y-127022388D01*
X112148601Y-127026577D01*
X112148601Y-127757176D01*
X102311400Y-127757176D01*
X102311400Y-127044133D01*
X102307212Y-127031243D01*
X102303023Y-127028200D01*
X101134133Y-127028200D01*
X101121243Y-127032388D01*
X101118200Y-127036577D01*
X101118200Y-128155466D01*
X100661800Y-128155466D01*
X100661800Y-127044133D01*
X100657612Y-127031243D01*
X100653423Y-127028200D01*
X99484534Y-127028200D01*
X99471644Y-127032388D01*
X99468601Y-127036577D01*
X99468601Y-127767176D01*
X94551600Y-127767176D01*
X94551600Y-126555867D01*
X99468600Y-126555867D01*
X99472788Y-126568757D01*
X99476977Y-126571800D01*
X100645867Y-126571800D01*
X100658757Y-126567612D01*
X100661800Y-126563423D01*
X100661800Y-126555867D01*
X101118200Y-126555867D01*
X101122388Y-126568757D01*
X101126577Y-126571800D01*
X102295466Y-126571800D01*
X102308356Y-126567612D01*
X102311399Y-126563423D01*
X102311399Y-126545867D01*
X112148600Y-126545867D01*
X112152788Y-126558757D01*
X112156977Y-126561800D01*
X113325867Y-126561800D01*
X113338757Y-126557612D01*
X113341800Y-126553423D01*
X113341800Y-125434534D01*
X113337612Y-125421644D01*
X113333423Y-125418601D01*
X112552824Y-125418601D01*
X112548116Y-125418823D01*
X112524620Y-125421043D01*
X112512725Y-125423653D01*
X112396122Y-125464602D01*
X112382976Y-125471562D01*
X112284679Y-125544164D01*
X112274164Y-125554679D01*
X112201562Y-125652976D01*
X112194602Y-125666122D01*
X112153651Y-125782729D01*
X112151043Y-125794614D01*
X112148823Y-125818100D01*
X112148600Y-125822841D01*
X112148600Y-126545867D01*
X102311399Y-126545867D01*
X102311399Y-125832824D01*
X102311177Y-125828116D01*
X102308957Y-125804620D01*
X102306347Y-125792725D01*
X102265398Y-125676122D01*
X102258438Y-125662976D01*
X102185836Y-125564679D01*
X102175321Y-125554164D01*
X102077024Y-125481562D01*
X102063878Y-125474602D01*
X101947271Y-125433651D01*
X101935386Y-125431043D01*
X101911900Y-125428823D01*
X101907159Y-125428600D01*
X101134133Y-125428600D01*
X101121243Y-125432788D01*
X101118200Y-125436977D01*
X101118200Y-126555867D01*
X100661800Y-126555867D01*
X100661800Y-125444534D01*
X100657612Y-125431644D01*
X100653423Y-125428601D01*
X99872824Y-125428601D01*
X99868116Y-125428823D01*
X99844620Y-125431043D01*
X99832725Y-125433653D01*
X99716122Y-125474602D01*
X99702976Y-125481562D01*
X99604679Y-125554164D01*
X99594164Y-125564679D01*
X99521562Y-125662976D01*
X99514602Y-125676122D01*
X99473651Y-125792729D01*
X99471043Y-125804614D01*
X99468823Y-125828100D01*
X99468600Y-125832841D01*
X99468600Y-126555867D01*
X94551600Y-126555867D01*
X94551600Y-123916035D01*
X109817700Y-123916035D01*
X109817900Y-123920519D01*
X109831711Y-124075274D01*
X109833291Y-124084053D01*
X109888316Y-124285189D01*
X109891431Y-124293566D01*
X109981204Y-124481779D01*
X109985746Y-124489459D01*
X110107434Y-124658807D01*
X110113265Y-124665563D01*
X110263021Y-124810685D01*
X110269958Y-124816302D01*
X110443039Y-124932609D01*
X110450859Y-124936908D01*
X110641805Y-125020727D01*
X110650271Y-125023576D01*
X110792405Y-125057700D01*
X110805311Y-125056684D01*
X110807900Y-125047504D01*
X110807900Y-125046923D01*
X111264300Y-125046923D01*
X111268488Y-125059813D01*
X111270194Y-125061052D01*
X111275193Y-125061538D01*
X111285993Y-125060231D01*
X111294727Y-125058374D01*
X111494035Y-124997060D01*
X111502307Y-124993684D01*
X111687604Y-124898044D01*
X111695151Y-124893255D01*
X111860587Y-124766312D01*
X111867150Y-124760277D01*
X112007496Y-124606039D01*
X112012899Y-124598920D01*
X112123708Y-124422277D01*
X112127764Y-124414316D01*
X112205542Y-124220837D01*
X112208121Y-124212295D01*
X112250569Y-124007322D01*
X112251531Y-124000016D01*
X112254417Y-123949961D01*
X112254500Y-123947073D01*
X112254500Y-123912127D01*
X112610400Y-123912127D01*
X112625246Y-124058282D01*
X112626771Y-124063147D01*
X112676188Y-124220837D01*
X112683914Y-124245492D01*
X112779027Y-124417080D01*
X112906700Y-124566039D01*
X112910730Y-124569165D01*
X113043043Y-124671797D01*
X113061718Y-124686283D01*
X113066293Y-124688534D01*
X113221527Y-124764919D01*
X113237748Y-124772901D01*
X113260941Y-124778942D01*
X113290301Y-124791876D01*
X113342841Y-124825931D01*
X113360615Y-124837452D01*
X113500166Y-124879186D01*
X113507333Y-124879230D01*
X113507334Y-124879230D01*
X113571059Y-124879619D01*
X113645821Y-124880076D01*
X113652710Y-124878107D01*
X113652711Y-124878107D01*
X113737546Y-124853861D01*
X113799681Y-124856085D01*
X113836326Y-124879453D01*
X114203738Y-125246865D01*
X114231964Y-125302263D01*
X114222238Y-125363671D01*
X114178274Y-125407635D01*
X114132603Y-125418600D01*
X113814133Y-125418600D01*
X113801243Y-125422788D01*
X113798200Y-125426977D01*
X113798200Y-126545867D01*
X113802388Y-126558757D01*
X113806577Y-126561800D01*
X114975466Y-126561800D01*
X114988356Y-126557612D01*
X114991399Y-126553423D01*
X114991399Y-126277396D01*
X115010612Y-126218265D01*
X115060912Y-126181720D01*
X115123086Y-126181720D01*
X115163134Y-126206261D01*
X120658135Y-131701262D01*
X120686361Y-131756660D01*
X120687600Y-131772397D01*
X120687600Y-136367868D01*
X120686159Y-136380766D01*
X120686183Y-136380768D01*
X120685609Y-136387906D01*
X120684026Y-136394900D01*
X120684470Y-136402055D01*
X120687407Y-136449398D01*
X120687600Y-136455627D01*
X120687600Y-136472613D01*
X120688108Y-136476160D01*
X120688108Y-136476162D01*
X120689227Y-136483974D01*
X120690049Y-136491999D01*
X120693045Y-136540277D01*
X120695478Y-136547015D01*
X120695478Y-136547017D01*
X120696582Y-136550074D01*
X120701543Y-136569972D01*
X120703020Y-136580287D01*
X120720981Y-136619790D01*
X120723038Y-136624313D01*
X120726081Y-136631789D01*
X120742504Y-136677281D01*
X120746731Y-136683068D01*
X120746732Y-136683069D01*
X120748652Y-136685698D01*
X120758996Y-136703399D01*
X120760341Y-136706358D01*
X120760343Y-136706361D01*
X120763308Y-136712882D01*
X120767985Y-136718310D01*
X120794885Y-136749530D01*
X120799900Y-136755846D01*
X120808525Y-136767652D01*
X120820171Y-136779298D01*
X120825247Y-136784766D01*
X120858387Y-136823227D01*
X120865716Y-136827978D01*
X120882132Y-136841259D01*
X123963285Y-139922412D01*
X123971388Y-139932553D01*
X123971406Y-139932538D01*
X123976051Y-139937996D01*
X123979876Y-139944058D01*
X123985249Y-139948803D01*
X124020807Y-139980207D01*
X124025348Y-139984475D01*
X124037355Y-139996482D01*
X124046551Y-140003374D01*
X124052792Y-140008456D01*
X124089051Y-140040478D01*
X124096323Y-140043892D01*
X124098480Y-140044905D01*
X124116054Y-140055464D01*
X124124395Y-140061716D01*
X124131105Y-140064232D01*
X124131106Y-140064232D01*
X124169694Y-140078698D01*
X124177118Y-140081826D01*
X124220900Y-140102381D01*
X124231192Y-140103983D01*
X124251017Y-140109185D01*
X124254068Y-140110328D01*
X124254072Y-140110329D01*
X124260784Y-140112845D01*
X124284391Y-140114599D01*
X124309005Y-140116428D01*
X124317030Y-140117349D01*
X124327645Y-140119002D01*
X124327647Y-140119002D01*
X124331486Y-140119600D01*
X124347960Y-140119600D01*
X124355414Y-140119877D01*
X124406041Y-140123639D01*
X124413049Y-140122143D01*
X124413051Y-140122143D01*
X124414580Y-140121817D01*
X124435582Y-140119600D01*
X135732868Y-140119600D01*
X135745766Y-140121041D01*
X135745768Y-140121017D01*
X135752906Y-140121591D01*
X135759900Y-140123174D01*
X135814398Y-140119793D01*
X135820627Y-140119600D01*
X135837613Y-140119600D01*
X135841160Y-140119092D01*
X135841162Y-140119092D01*
X135843805Y-140118713D01*
X135848981Y-140117972D01*
X135856999Y-140117151D01*
X135873333Y-140116137D01*
X135898126Y-140114599D01*
X135898128Y-140114599D01*
X135905277Y-140114155D01*
X135912015Y-140111722D01*
X135912017Y-140111722D01*
X135915074Y-140110618D01*
X135934972Y-140105657D01*
X135945287Y-140104180D01*
X135989318Y-140084160D01*
X135996789Y-140081119D01*
X136042281Y-140064696D01*
X136048069Y-140060468D01*
X136050698Y-140058548D01*
X136068399Y-140048204D01*
X136071358Y-140046859D01*
X136071361Y-140046857D01*
X136077882Y-140043892D01*
X136114530Y-140012315D01*
X136120849Y-140007298D01*
X136132652Y-139998675D01*
X136144298Y-139987029D01*
X136149766Y-139981953D01*
X136182798Y-139953491D01*
X136188227Y-139948813D01*
X136192978Y-139941484D01*
X136206259Y-139925068D01*
X136950163Y-139181164D01*
X144992400Y-139181164D01*
X145004219Y-139240580D01*
X145049240Y-139307960D01*
X145116620Y-139352981D01*
X145176036Y-139364800D01*
X148016164Y-139364800D01*
X148075580Y-139352981D01*
X148142960Y-139307960D01*
X148187981Y-139240580D01*
X148199800Y-139181164D01*
X148199800Y-138170000D01*
X161836454Y-138170000D01*
X161855802Y-138391149D01*
X161856940Y-138395394D01*
X161856940Y-138395397D01*
X161863840Y-138421149D01*
X161913258Y-138605578D01*
X162007077Y-138806773D01*
X162134407Y-138988620D01*
X162291380Y-139145593D01*
X162294974Y-139148110D01*
X162294977Y-139148112D01*
X162335117Y-139176218D01*
X162473227Y-139272923D01*
X162674422Y-139366742D01*
X162779457Y-139394886D01*
X162884603Y-139423060D01*
X162884606Y-139423060D01*
X162888851Y-139424198D01*
X163110000Y-139443546D01*
X163331149Y-139424198D01*
X163335394Y-139423060D01*
X163335397Y-139423060D01*
X163440543Y-139394886D01*
X163545578Y-139366742D01*
X163746773Y-139272923D01*
X163877819Y-139181164D01*
X178012400Y-139181164D01*
X178024219Y-139240580D01*
X178069240Y-139307960D01*
X178136620Y-139352981D01*
X178196036Y-139364800D01*
X181036164Y-139364800D01*
X181095580Y-139352981D01*
X181162960Y-139307960D01*
X181207981Y-139240580D01*
X181219800Y-139181164D01*
X181219800Y-138180000D01*
X193576454Y-138180000D01*
X193595802Y-138401149D01*
X193596940Y-138405394D01*
X193596940Y-138405397D01*
X193598481Y-138411149D01*
X193653258Y-138615578D01*
X193747077Y-138816773D01*
X193749596Y-138820370D01*
X193869580Y-138991726D01*
X193874407Y-138998620D01*
X194031380Y-139155593D01*
X194034974Y-139158110D01*
X194034977Y-139158112D01*
X194067899Y-139181164D01*
X194213227Y-139282923D01*
X194414422Y-139376742D01*
X194550931Y-139413319D01*
X194624603Y-139433060D01*
X194624606Y-139433060D01*
X194628851Y-139434198D01*
X194850000Y-139453546D01*
X195071149Y-139434198D01*
X195075394Y-139433060D01*
X195075397Y-139433060D01*
X195149069Y-139413319D01*
X195285578Y-139376742D01*
X195486773Y-139282923D01*
X195632101Y-139181164D01*
X195665023Y-139158112D01*
X195665026Y-139158110D01*
X195668620Y-139155593D01*
X195825593Y-138998620D01*
X195830421Y-138991726D01*
X195950404Y-138820370D01*
X195952923Y-138816773D01*
X196046742Y-138615578D01*
X196101519Y-138411149D01*
X196103060Y-138405397D01*
X196103060Y-138405394D01*
X196104198Y-138401149D01*
X196123546Y-138180000D01*
X196104198Y-137958851D01*
X196102693Y-137953232D01*
X196052101Y-137764422D01*
X196046742Y-137744422D01*
X195952923Y-137543227D01*
X195839597Y-137381380D01*
X195828112Y-137364977D01*
X195828110Y-137364974D01*
X195825593Y-137361380D01*
X195668620Y-137204407D01*
X195665026Y-137201890D01*
X195665023Y-137201888D01*
X195577696Y-137140742D01*
X195486773Y-137077077D01*
X195285578Y-136983258D01*
X195108470Y-136935802D01*
X195075397Y-136926940D01*
X195075394Y-136926940D01*
X195071149Y-136925802D01*
X194850000Y-136906454D01*
X194628851Y-136925802D01*
X194624606Y-136926940D01*
X194624603Y-136926940D01*
X194591530Y-136935802D01*
X194414422Y-136983258D01*
X194213227Y-137077077D01*
X194122304Y-137140742D01*
X194034977Y-137201888D01*
X194034974Y-137201890D01*
X194031380Y-137204407D01*
X193874407Y-137361380D01*
X193871890Y-137364974D01*
X193871888Y-137364977D01*
X193860403Y-137381380D01*
X193747077Y-137543227D01*
X193653258Y-137744422D01*
X193647899Y-137764422D01*
X193597308Y-137953232D01*
X193595802Y-137958851D01*
X193576454Y-138180000D01*
X181219800Y-138180000D01*
X181219800Y-136341036D01*
X181207981Y-136281620D01*
X181162960Y-136214240D01*
X181095580Y-136169219D01*
X181036164Y-136157400D01*
X178196036Y-136157400D01*
X178136620Y-136169219D01*
X178069240Y-136214240D01*
X178024219Y-136281620D01*
X178012400Y-136341036D01*
X178012400Y-139181164D01*
X163877819Y-139181164D01*
X163884883Y-139176218D01*
X163925023Y-139148112D01*
X163925026Y-139148110D01*
X163928620Y-139145593D01*
X164085593Y-138988620D01*
X164212923Y-138806773D01*
X164306742Y-138605578D01*
X164356160Y-138421149D01*
X164363060Y-138395397D01*
X164363060Y-138395394D01*
X164364198Y-138391149D01*
X164383546Y-138170000D01*
X164364198Y-137948851D01*
X164306742Y-137734422D01*
X164212923Y-137533227D01*
X164106599Y-137381380D01*
X164088112Y-137354977D01*
X164088110Y-137354974D01*
X164085593Y-137351380D01*
X163928620Y-137194407D01*
X163925026Y-137191890D01*
X163925023Y-137191888D01*
X163793215Y-137099596D01*
X163746773Y-137067077D01*
X163545578Y-136973258D01*
X163372717Y-136926940D01*
X163335397Y-136916940D01*
X163335394Y-136916940D01*
X163331149Y-136915802D01*
X163110000Y-136896454D01*
X162888851Y-136915802D01*
X162884606Y-136916940D01*
X162884603Y-136916940D01*
X162847283Y-136926940D01*
X162674422Y-136973258D01*
X162473227Y-137067077D01*
X162426785Y-137099596D01*
X162294977Y-137191888D01*
X162294974Y-137191890D01*
X162291380Y-137194407D01*
X162134407Y-137351380D01*
X162131890Y-137354974D01*
X162131888Y-137354977D01*
X162113401Y-137381380D01*
X162007077Y-137533227D01*
X161913258Y-137734422D01*
X161855802Y-137948851D01*
X161836454Y-138170000D01*
X148199800Y-138170000D01*
X148199800Y-136341036D01*
X148187981Y-136281620D01*
X148142960Y-136214240D01*
X148075580Y-136169219D01*
X148016164Y-136157400D01*
X145176036Y-136157400D01*
X145116620Y-136169219D01*
X145049240Y-136214240D01*
X145004219Y-136281620D01*
X144992400Y-136341036D01*
X144992400Y-139181164D01*
X136950163Y-139181164D01*
X139298863Y-136832465D01*
X139354261Y-136804239D01*
X139369998Y-136803000D01*
X139963450Y-136803000D01*
X140023109Y-136791043D01*
X140073080Y-136757590D01*
X140592590Y-136238078D01*
X140626320Y-136187439D01*
X140638000Y-136128450D01*
X140638000Y-136094803D01*
X153352000Y-136094803D01*
X153363957Y-136154462D01*
X153397410Y-136204433D01*
X153812769Y-136619790D01*
X153863408Y-136653520D01*
X153905522Y-136661859D01*
X153917568Y-136664244D01*
X153917570Y-136664244D01*
X153922397Y-136665200D01*
X154509803Y-136665200D01*
X154569462Y-136653243D01*
X154619433Y-136619790D01*
X155034790Y-136204431D01*
X155052572Y-136177735D01*
X155063037Y-136162024D01*
X155063037Y-136162023D01*
X155068520Y-136153792D01*
X155069765Y-136147504D01*
X171321499Y-136147504D01*
X171321877Y-136153646D01*
X171329220Y-136213183D01*
X171332671Y-136226253D01*
X171380073Y-136340411D01*
X171386884Y-136352068D01*
X171423399Y-136398720D01*
X171427425Y-136403267D01*
X171973905Y-136949746D01*
X171978521Y-136953827D01*
X172025810Y-136990733D01*
X172037491Y-136997534D01*
X172151733Y-137044738D01*
X172164790Y-137048163D01*
X172223592Y-137055331D01*
X172229666Y-137055700D01*
X172371967Y-137055700D01*
X172384857Y-137051512D01*
X172387900Y-137047323D01*
X172387900Y-137039768D01*
X172844300Y-137039768D01*
X172848488Y-137052658D01*
X172852677Y-137055701D01*
X173002504Y-137055701D01*
X173008646Y-137055323D01*
X173068183Y-137047980D01*
X173081253Y-137044529D01*
X173195411Y-136997127D01*
X173207068Y-136990316D01*
X173253720Y-136953801D01*
X173258267Y-136949775D01*
X173804746Y-136403295D01*
X173808827Y-136398679D01*
X173845733Y-136351390D01*
X173852534Y-136339709D01*
X173899738Y-136225467D01*
X173903163Y-136212410D01*
X173910331Y-136153608D01*
X173910700Y-136147534D01*
X173910700Y-136005233D01*
X173906512Y-135992343D01*
X173902323Y-135989300D01*
X172860233Y-135989300D01*
X172847343Y-135993488D01*
X172844300Y-135997677D01*
X172844300Y-137039768D01*
X172387900Y-137039768D01*
X172387900Y-136005233D01*
X172383712Y-135992343D01*
X172379523Y-135989300D01*
X171337432Y-135989300D01*
X171324542Y-135993488D01*
X171321499Y-135997677D01*
X171321499Y-136147504D01*
X155069765Y-136147504D01*
X155080200Y-136094803D01*
X155080200Y-135516967D01*
X171321500Y-135516967D01*
X171325688Y-135529857D01*
X171329877Y-135532900D01*
X173894768Y-135532900D01*
X173907658Y-135528712D01*
X173910701Y-135524523D01*
X173910701Y-135374696D01*
X173910323Y-135368554D01*
X173902980Y-135309017D01*
X173899529Y-135295947D01*
X173852127Y-135181789D01*
X173845316Y-135170132D01*
X173808801Y-135123480D01*
X173804775Y-135118933D01*
X173258295Y-134572454D01*
X173253679Y-134568373D01*
X173206390Y-134531467D01*
X173194709Y-134524666D01*
X173080472Y-134477464D01*
X173068090Y-134474216D01*
X173015769Y-134440628D01*
X172993183Y-134382701D01*
X173008959Y-134322562D01*
X173044366Y-134292920D01*
X173043109Y-134291043D01*
X173093080Y-134257590D01*
X173612590Y-133738078D01*
X173628982Y-133713469D01*
X173640837Y-133695671D01*
X173640837Y-133695670D01*
X173646320Y-133687439D01*
X173658000Y-133628450D01*
X173658000Y-133223226D01*
X193345308Y-133223226D01*
X193359507Y-133469475D01*
X193360413Y-133473494D01*
X193360413Y-133473496D01*
X193412342Y-133703921D01*
X193413734Y-133710099D01*
X193506532Y-133938634D01*
X193508683Y-133942144D01*
X193508686Y-133942150D01*
X193627127Y-134135427D01*
X193635411Y-134148945D01*
X193704255Y-134228421D01*
X193731892Y-134260325D01*
X193796908Y-134335382D01*
X193800076Y-134338012D01*
X193800081Y-134338017D01*
X193913307Y-134432018D01*
X193986687Y-134492939D01*
X194199650Y-134617385D01*
X194203505Y-134618857D01*
X194203507Y-134618858D01*
X194252025Y-134637385D01*
X194430079Y-134705377D01*
X194434122Y-134706200D01*
X194434127Y-134706201D01*
X194622634Y-134744553D01*
X194671785Y-134754553D01*
X194918278Y-134763592D01*
X195035597Y-134748563D01*
X195158848Y-134732774D01*
X195158852Y-134732773D01*
X195162936Y-134732250D01*
X195399191Y-134661370D01*
X195620697Y-134552856D01*
X195632176Y-134544668D01*
X195818145Y-134412018D01*
X195818148Y-134412016D01*
X195821505Y-134409621D01*
X195974068Y-134257590D01*
X195993304Y-134238421D01*
X195993305Y-134238420D01*
X195996223Y-134235512D01*
X196096405Y-134096094D01*
X196137753Y-134038552D01*
X196137753Y-134038551D01*
X196140158Y-134035205D01*
X196145101Y-134025205D01*
X196207200Y-133899555D01*
X196249445Y-133814079D01*
X196251361Y-133807775D01*
X196319948Y-133582027D01*
X196321149Y-133578074D01*
X196350711Y-133353526D01*
X196352995Y-133336178D01*
X196352995Y-133336175D01*
X196353344Y-133333526D01*
X196354717Y-133277342D01*
X196355076Y-133262669D01*
X196355076Y-133262665D01*
X196355141Y-133260000D01*
X196334930Y-133014171D01*
X196332419Y-133004171D01*
X196292134Y-132843792D01*
X196274841Y-132774945D01*
X196176486Y-132548744D01*
X196042508Y-132341645D01*
X196039734Y-132338596D01*
X196039729Y-132338590D01*
X195879282Y-132162263D01*
X195876504Y-132159210D01*
X195848939Y-132137440D01*
X195686176Y-132008898D01*
X195682932Y-132006336D01*
X195679318Y-132004341D01*
X195679315Y-132004339D01*
X195470605Y-131889125D01*
X195470600Y-131889123D01*
X195466992Y-131887131D01*
X195234482Y-131804794D01*
X195230419Y-131804070D01*
X195230418Y-131804070D01*
X195158058Y-131791181D01*
X194991646Y-131761539D01*
X194987517Y-131761489D01*
X194987511Y-131761488D01*
X194869858Y-131760051D01*
X194745007Y-131758525D01*
X194740925Y-131759150D01*
X194740920Y-131759150D01*
X194589873Y-131782264D01*
X194501187Y-131795835D01*
X194266734Y-131872466D01*
X194263066Y-131874375D01*
X194263067Y-131874375D01*
X194062398Y-131978837D01*
X194047946Y-131986360D01*
X194044652Y-131988833D01*
X194044646Y-131988837D01*
X193991290Y-132028898D01*
X193850697Y-132134458D01*
X193847849Y-132137438D01*
X193847847Y-132137440D01*
X193683136Y-132309801D01*
X193683133Y-132309805D01*
X193680286Y-132312784D01*
X193541288Y-132516548D01*
X193437436Y-132740278D01*
X193371519Y-132977965D01*
X193371080Y-132982071D01*
X193371080Y-132982072D01*
X193346377Y-133213226D01*
X193345308Y-133223226D01*
X173658000Y-133223226D01*
X173658000Y-132893750D01*
X173646043Y-132834091D01*
X173612590Y-132784120D01*
X173093078Y-132264610D01*
X173042439Y-132230880D01*
X173000325Y-132222541D01*
X172988279Y-132220156D01*
X172988277Y-132220156D01*
X172983450Y-132219200D01*
X172248750Y-132219200D01*
X172189091Y-132231157D01*
X172139120Y-132264610D01*
X171619610Y-132784122D01*
X171616850Y-132788266D01*
X171591802Y-132825871D01*
X171585880Y-132834761D01*
X171574200Y-132893750D01*
X171574200Y-133628450D01*
X171586157Y-133688109D01*
X171619610Y-133738080D01*
X172139122Y-134257590D01*
X172181529Y-134285837D01*
X172189761Y-134291320D01*
X172188245Y-134293596D01*
X172224214Y-134324240D01*
X172238803Y-134384678D01*
X172215080Y-134442149D01*
X172164183Y-134474176D01*
X172150947Y-134477670D01*
X172036789Y-134525073D01*
X172025132Y-134531884D01*
X171978480Y-134568399D01*
X171973933Y-134572425D01*
X171427454Y-135118905D01*
X171423373Y-135123521D01*
X171386467Y-135170810D01*
X171379666Y-135182491D01*
X171332462Y-135296733D01*
X171329037Y-135309790D01*
X171321869Y-135368592D01*
X171321500Y-135374666D01*
X171321500Y-135516967D01*
X155080200Y-135516967D01*
X155080200Y-135507397D01*
X155068243Y-135447738D01*
X155034790Y-135397767D01*
X154619431Y-134982410D01*
X154568792Y-134948680D01*
X154526678Y-134940341D01*
X154514632Y-134937956D01*
X154514630Y-134937956D01*
X154509803Y-134937000D01*
X153922397Y-134937000D01*
X153862738Y-134948957D01*
X153812767Y-134982410D01*
X153397410Y-135397769D01*
X153394650Y-135401913D01*
X153369602Y-135439518D01*
X153363680Y-135448408D01*
X153352000Y-135507397D01*
X153352000Y-136094803D01*
X140638000Y-136094803D01*
X140638000Y-135494997D01*
X140657213Y-135435866D01*
X140667465Y-135423862D01*
X141827416Y-134263912D01*
X141837554Y-134255811D01*
X141837539Y-134255793D01*
X141842995Y-134251150D01*
X141849058Y-134247324D01*
X141885200Y-134206401D01*
X141889467Y-134201861D01*
X141901483Y-134189845D01*
X141903622Y-134186990D01*
X141903627Y-134186985D01*
X141908371Y-134180654D01*
X141913470Y-134174391D01*
X141924358Y-134162063D01*
X141945478Y-134138149D01*
X141948860Y-134130945D01*
X141949908Y-134128715D01*
X141960465Y-134111146D01*
X141962416Y-134108542D01*
X141962417Y-134108541D01*
X141966716Y-134102804D01*
X141983698Y-134057502D01*
X141986833Y-134050064D01*
X141989115Y-134045205D01*
X142007381Y-134006300D01*
X142008984Y-133996007D01*
X142014185Y-133976181D01*
X142015327Y-133973133D01*
X142015327Y-133973132D01*
X142017845Y-133966416D01*
X142021428Y-133918195D01*
X142022349Y-133910170D01*
X142024002Y-133899555D01*
X142024002Y-133899553D01*
X142024600Y-133895714D01*
X142024600Y-133879240D01*
X142024877Y-133871785D01*
X142028108Y-133828305D01*
X142028639Y-133821159D01*
X142027128Y-133814079D01*
X142026817Y-133812620D01*
X142024600Y-133791618D01*
X142024600Y-133213226D01*
X161605308Y-133213226D01*
X161619507Y-133459475D01*
X161620413Y-133463494D01*
X161620413Y-133463496D01*
X161668846Y-133678408D01*
X161673734Y-133700099D01*
X161766532Y-133928634D01*
X161768683Y-133932144D01*
X161768686Y-133932150D01*
X161893255Y-134135427D01*
X161895411Y-134138945D01*
X161921398Y-134168945D01*
X162029067Y-134293241D01*
X162056908Y-134325382D01*
X162060076Y-134328012D01*
X162060081Y-134328017D01*
X162173307Y-134422018D01*
X162246687Y-134482939D01*
X162459650Y-134607385D01*
X162463505Y-134608857D01*
X162463507Y-134608858D01*
X162512025Y-134627385D01*
X162690079Y-134695377D01*
X162694122Y-134696200D01*
X162694127Y-134696201D01*
X162892990Y-134736660D01*
X162931785Y-134744553D01*
X163178278Y-134753592D01*
X163295597Y-134738563D01*
X163418848Y-134722774D01*
X163418852Y-134722773D01*
X163422936Y-134722250D01*
X163659191Y-134651370D01*
X163880697Y-134542856D01*
X163905628Y-134525073D01*
X164078145Y-134402018D01*
X164078148Y-134402016D01*
X164081505Y-134399621D01*
X164224033Y-134257590D01*
X164253304Y-134228421D01*
X164253305Y-134228420D01*
X164256223Y-134225512D01*
X164382295Y-134050064D01*
X164397753Y-134028552D01*
X164397753Y-134028551D01*
X164400158Y-134025205D01*
X164406296Y-134012787D01*
X164497472Y-133828305D01*
X164509445Y-133804079D01*
X164536183Y-133716076D01*
X164579948Y-133572027D01*
X164581149Y-133568074D01*
X164609045Y-133356178D01*
X164612995Y-133326178D01*
X164612995Y-133326175D01*
X164613344Y-133323526D01*
X164614717Y-133267342D01*
X164615076Y-133252669D01*
X164615076Y-133252665D01*
X164615141Y-133250000D01*
X164594930Y-133004171D01*
X164593372Y-132997965D01*
X164552209Y-132834091D01*
X164534841Y-132764945D01*
X164436486Y-132538744D01*
X164302508Y-132331645D01*
X164299734Y-132328596D01*
X164299729Y-132328590D01*
X164139282Y-132152263D01*
X164136504Y-132149210D01*
X164108939Y-132127440D01*
X163946176Y-131998898D01*
X163942932Y-131996336D01*
X163939318Y-131994341D01*
X163939315Y-131994339D01*
X163730605Y-131879125D01*
X163730600Y-131879123D01*
X163726992Y-131877131D01*
X163494482Y-131794794D01*
X163490419Y-131794070D01*
X163490418Y-131794070D01*
X163424138Y-131782264D01*
X163251646Y-131751539D01*
X163247517Y-131751489D01*
X163247511Y-131751488D01*
X163129858Y-131750051D01*
X163005007Y-131748525D01*
X163000925Y-131749150D01*
X163000920Y-131749150D01*
X162811219Y-131778179D01*
X162761187Y-131785835D01*
X162526734Y-131862466D01*
X162307946Y-131976360D01*
X162304652Y-131978833D01*
X162304646Y-131978837D01*
X162114000Y-132121978D01*
X162110697Y-132124458D01*
X162107849Y-132127438D01*
X162107847Y-132127440D01*
X161943136Y-132299801D01*
X161943133Y-132299805D01*
X161940286Y-132302784D01*
X161801288Y-132506548D01*
X161697436Y-132730278D01*
X161631519Y-132967965D01*
X161631080Y-132972071D01*
X161631080Y-132972072D01*
X161624444Y-133034171D01*
X161605308Y-133213226D01*
X142024600Y-133213226D01*
X142024600Y-131619364D01*
X171574200Y-131619364D01*
X171586019Y-131678780D01*
X171631040Y-131746160D01*
X171639279Y-131751665D01*
X171685075Y-131782264D01*
X171698420Y-131791181D01*
X171757836Y-131803000D01*
X173474364Y-131803000D01*
X173533780Y-131791181D01*
X173547126Y-131782264D01*
X173592921Y-131751665D01*
X173601160Y-131746160D01*
X173646181Y-131678780D01*
X173658000Y-131619364D01*
X173658000Y-130181164D01*
X178012400Y-130181164D01*
X178024219Y-130240580D01*
X178069240Y-130307960D01*
X178136620Y-130352981D01*
X178196036Y-130364800D01*
X181036164Y-130364800D01*
X181095580Y-130352981D01*
X181162960Y-130307960D01*
X181207981Y-130240580D01*
X181219800Y-130181164D01*
X181219800Y-129880000D01*
X193576454Y-129880000D01*
X193595802Y-130101149D01*
X193596940Y-130105394D01*
X193596940Y-130105397D01*
X193597917Y-130109042D01*
X193653258Y-130315578D01*
X193747077Y-130516773D01*
X193749596Y-130520370D01*
X193871549Y-130694538D01*
X193874407Y-130698620D01*
X194031380Y-130855593D01*
X194034974Y-130858110D01*
X194034977Y-130858112D01*
X194122304Y-130919258D01*
X194213227Y-130982923D01*
X194414422Y-131076742D01*
X194550931Y-131113319D01*
X194624603Y-131133060D01*
X194624606Y-131133060D01*
X194628851Y-131134198D01*
X194850000Y-131153546D01*
X195071149Y-131134198D01*
X195075394Y-131133060D01*
X195075397Y-131133060D01*
X195149069Y-131113319D01*
X195285578Y-131076742D01*
X195486773Y-130982923D01*
X195577697Y-130919258D01*
X195665023Y-130858112D01*
X195665026Y-130858110D01*
X195668620Y-130855593D01*
X195825593Y-130698620D01*
X195828452Y-130694538D01*
X195950404Y-130520370D01*
X195952923Y-130516773D01*
X196046742Y-130315578D01*
X196102083Y-130109042D01*
X196103060Y-130105397D01*
X196103060Y-130105394D01*
X196104198Y-130101149D01*
X196123546Y-129880000D01*
X196104198Y-129658851D01*
X196102693Y-129653232D01*
X196074062Y-129546381D01*
X196046742Y-129444422D01*
X195952923Y-129243227D01*
X195839597Y-129081380D01*
X195828112Y-129064977D01*
X195828110Y-129064974D01*
X195825593Y-129061380D01*
X195668620Y-128904407D01*
X195665026Y-128901890D01*
X195665023Y-128901888D01*
X195544866Y-128817754D01*
X195486773Y-128777077D01*
X195285578Y-128683258D01*
X195144361Y-128645419D01*
X195075397Y-128626940D01*
X195075394Y-128626940D01*
X195071149Y-128625802D01*
X194850000Y-128606454D01*
X194628851Y-128625802D01*
X194624606Y-128626940D01*
X194624603Y-128626940D01*
X194555639Y-128645419D01*
X194414422Y-128683258D01*
X194213227Y-128777077D01*
X194155134Y-128817754D01*
X194034977Y-128901888D01*
X194034974Y-128901890D01*
X194031380Y-128904407D01*
X193874407Y-129061380D01*
X193871890Y-129064974D01*
X193871888Y-129064977D01*
X193860403Y-129081380D01*
X193747077Y-129243227D01*
X193653258Y-129444422D01*
X193625938Y-129546381D01*
X193597308Y-129653232D01*
X193595802Y-129658851D01*
X193576454Y-129880000D01*
X181219800Y-129880000D01*
X181219800Y-127747176D01*
X193428601Y-127747176D01*
X193428823Y-127751884D01*
X193431043Y-127775380D01*
X193433653Y-127787275D01*
X193474602Y-127903878D01*
X193481562Y-127917024D01*
X193554164Y-128015321D01*
X193564679Y-128025836D01*
X193662976Y-128098438D01*
X193676122Y-128105398D01*
X193792729Y-128146349D01*
X193804614Y-128148957D01*
X193828100Y-128151177D01*
X193832841Y-128151400D01*
X194605867Y-128151400D01*
X194618757Y-128147212D01*
X194621800Y-128143023D01*
X194621800Y-128135466D01*
X195078200Y-128135466D01*
X195082388Y-128148356D01*
X195086577Y-128151399D01*
X195867176Y-128151399D01*
X195871884Y-128151177D01*
X195895380Y-128148957D01*
X195907275Y-128146347D01*
X196023878Y-128105398D01*
X196037024Y-128098438D01*
X196135321Y-128025836D01*
X196145836Y-128015321D01*
X196218438Y-127917024D01*
X196225398Y-127903878D01*
X196266349Y-127787271D01*
X196268957Y-127775386D01*
X196271177Y-127751900D01*
X196271400Y-127747159D01*
X196271400Y-127024133D01*
X196267212Y-127011243D01*
X196263023Y-127008200D01*
X195094133Y-127008200D01*
X195081243Y-127012388D01*
X195078200Y-127016577D01*
X195078200Y-128135466D01*
X194621800Y-128135466D01*
X194621800Y-127024133D01*
X194617612Y-127011243D01*
X194613423Y-127008200D01*
X193444534Y-127008200D01*
X193431644Y-127012388D01*
X193428601Y-127016577D01*
X193428601Y-127747176D01*
X181219800Y-127747176D01*
X181219800Y-127341036D01*
X181207981Y-127281620D01*
X181162960Y-127214240D01*
X181095580Y-127169219D01*
X181036164Y-127157400D01*
X178196036Y-127157400D01*
X178136620Y-127169219D01*
X178069240Y-127214240D01*
X178024219Y-127281620D01*
X178012400Y-127341036D01*
X178012400Y-130181164D01*
X173658000Y-130181164D01*
X173658000Y-129902836D01*
X173646181Y-129843420D01*
X173601160Y-129776040D01*
X173533780Y-129731019D01*
X173474364Y-129719200D01*
X171757836Y-129719200D01*
X171698420Y-129731019D01*
X171631040Y-129776040D01*
X171586019Y-129843420D01*
X171574200Y-129902836D01*
X171574200Y-131619364D01*
X142024600Y-131619364D01*
X142024600Y-130181164D01*
X144992400Y-130181164D01*
X145004219Y-130240580D01*
X145049240Y-130307960D01*
X145116620Y-130352981D01*
X145176036Y-130364800D01*
X148016164Y-130364800D01*
X148075580Y-130352981D01*
X148142960Y-130307960D01*
X148187981Y-130240580D01*
X148199800Y-130181164D01*
X148199800Y-129870000D01*
X161836454Y-129870000D01*
X161855802Y-130091149D01*
X161856940Y-130095394D01*
X161856940Y-130095397D01*
X161863840Y-130121149D01*
X161913258Y-130305578D01*
X162007077Y-130506773D01*
X162134407Y-130688620D01*
X162291380Y-130845593D01*
X162294974Y-130848110D01*
X162294977Y-130848112D01*
X162337822Y-130878112D01*
X162473227Y-130972923D01*
X162674422Y-131066742D01*
X162779457Y-131094886D01*
X162884603Y-131123060D01*
X162884606Y-131123060D01*
X162888851Y-131124198D01*
X163110000Y-131143546D01*
X163331149Y-131124198D01*
X163335394Y-131123060D01*
X163335397Y-131123060D01*
X163440543Y-131094886D01*
X163545578Y-131066742D01*
X163746773Y-130972923D01*
X163882178Y-130878112D01*
X163925023Y-130848112D01*
X163925026Y-130848110D01*
X163928620Y-130845593D01*
X164085593Y-130688620D01*
X164212923Y-130506773D01*
X164306742Y-130305578D01*
X164356160Y-130121149D01*
X164363060Y-130095397D01*
X164363060Y-130095394D01*
X164364198Y-130091149D01*
X164383546Y-129870000D01*
X164381848Y-129850586D01*
X164375566Y-129778793D01*
X164364198Y-129648851D01*
X164361093Y-129637261D01*
X164313238Y-129458667D01*
X164306742Y-129434422D01*
X164212923Y-129233227D01*
X164106599Y-129081380D01*
X164088112Y-129054977D01*
X164088110Y-129054974D01*
X164085593Y-129051380D01*
X163928620Y-128894407D01*
X163925026Y-128891890D01*
X163925023Y-128891888D01*
X163793215Y-128799596D01*
X163746773Y-128767077D01*
X163545578Y-128673258D01*
X163404361Y-128635419D01*
X163335397Y-128616940D01*
X163335394Y-128616940D01*
X163331149Y-128615802D01*
X163110000Y-128596454D01*
X162888851Y-128615802D01*
X162884606Y-128616940D01*
X162884603Y-128616940D01*
X162815639Y-128635419D01*
X162674422Y-128673258D01*
X162473227Y-128767077D01*
X162426785Y-128799596D01*
X162294977Y-128891888D01*
X162294974Y-128891890D01*
X162291380Y-128894407D01*
X162134407Y-129051380D01*
X162131890Y-129054974D01*
X162131888Y-129054977D01*
X162113401Y-129081380D01*
X162007077Y-129233227D01*
X161913258Y-129434422D01*
X161906762Y-129458667D01*
X161858908Y-129637261D01*
X161855802Y-129648851D01*
X161844434Y-129778793D01*
X161838153Y-129850586D01*
X161836454Y-129870000D01*
X148199800Y-129870000D01*
X148199800Y-128474803D01*
X153352000Y-128474803D01*
X153363957Y-128534462D01*
X153397410Y-128584433D01*
X153812769Y-128999790D01*
X153863408Y-129033520D01*
X153905522Y-129041859D01*
X153917568Y-129044244D01*
X153917570Y-129044244D01*
X153922397Y-129045200D01*
X154509803Y-129045200D01*
X154569462Y-129033243D01*
X154619433Y-128999790D01*
X154724816Y-128894407D01*
X155031269Y-128587952D01*
X155034790Y-128584431D01*
X155055096Y-128553946D01*
X155063037Y-128542024D01*
X155063037Y-128542023D01*
X155068520Y-128533792D01*
X155080200Y-128474803D01*
X155080200Y-127887397D01*
X155068243Y-127827738D01*
X155034790Y-127777767D01*
X154994199Y-127737176D01*
X161688601Y-127737176D01*
X161688823Y-127741884D01*
X161691043Y-127765380D01*
X161693653Y-127777275D01*
X161734602Y-127893878D01*
X161741562Y-127907024D01*
X161814164Y-128005321D01*
X161824679Y-128015836D01*
X161922976Y-128088438D01*
X161936122Y-128095398D01*
X162052729Y-128136349D01*
X162064614Y-128138957D01*
X162088100Y-128141177D01*
X162092841Y-128141400D01*
X162865867Y-128141400D01*
X162878757Y-128137212D01*
X162881800Y-128133023D01*
X162881800Y-128125466D01*
X163338200Y-128125466D01*
X163342388Y-128138356D01*
X163346577Y-128141399D01*
X164127176Y-128141399D01*
X164131884Y-128141177D01*
X164155380Y-128138957D01*
X164167275Y-128136347D01*
X164283878Y-128095398D01*
X164297024Y-128088438D01*
X164395321Y-128015836D01*
X164405836Y-128005321D01*
X164478438Y-127907024D01*
X164485398Y-127893878D01*
X164526349Y-127777271D01*
X164528957Y-127765386D01*
X164531177Y-127741900D01*
X164531400Y-127737159D01*
X164531400Y-127014133D01*
X164527212Y-127001243D01*
X164523023Y-126998200D01*
X163354133Y-126998200D01*
X163341243Y-127002388D01*
X163338200Y-127006577D01*
X163338200Y-128125466D01*
X162881800Y-128125466D01*
X162881800Y-127014133D01*
X162877612Y-127001243D01*
X162873423Y-126998200D01*
X161704534Y-126998200D01*
X161691644Y-127002388D01*
X161688601Y-127006577D01*
X161688601Y-127737176D01*
X154994199Y-127737176D01*
X154619431Y-127362410D01*
X154568792Y-127328680D01*
X154526678Y-127320341D01*
X154514632Y-127317956D01*
X154514630Y-127317956D01*
X154509803Y-127317000D01*
X153922397Y-127317000D01*
X153862738Y-127328957D01*
X153812767Y-127362410D01*
X153397410Y-127777769D01*
X153391081Y-127787271D01*
X153369602Y-127819518D01*
X153363680Y-127828408D01*
X153352000Y-127887397D01*
X153352000Y-128474803D01*
X148199800Y-128474803D01*
X148199800Y-127341036D01*
X148187981Y-127281620D01*
X148142960Y-127214240D01*
X148075580Y-127169219D01*
X148016164Y-127157400D01*
X145176036Y-127157400D01*
X145116620Y-127169219D01*
X145049240Y-127214240D01*
X145004219Y-127281620D01*
X144992400Y-127341036D01*
X144992400Y-130181164D01*
X142024600Y-130181164D01*
X142024600Y-126525867D01*
X161688600Y-126525867D01*
X161692788Y-126538757D01*
X161696977Y-126541800D01*
X162865867Y-126541800D01*
X162878757Y-126537612D01*
X162881800Y-126533423D01*
X162881800Y-126525867D01*
X163338200Y-126525867D01*
X163342388Y-126538757D01*
X163346577Y-126541800D01*
X164515466Y-126541800D01*
X164528356Y-126537612D01*
X164529624Y-126535867D01*
X193428600Y-126535867D01*
X193432788Y-126548757D01*
X193436977Y-126551800D01*
X194605867Y-126551800D01*
X194618757Y-126547612D01*
X194621800Y-126543423D01*
X194621800Y-126535867D01*
X195078200Y-126535867D01*
X195082388Y-126548757D01*
X195086577Y-126551800D01*
X196255466Y-126551800D01*
X196268356Y-126547612D01*
X196271399Y-126543423D01*
X196271399Y-125812824D01*
X196271177Y-125808116D01*
X196268957Y-125784620D01*
X196266347Y-125772725D01*
X196225398Y-125656122D01*
X196218438Y-125642976D01*
X196145836Y-125544679D01*
X196135321Y-125534164D01*
X196037024Y-125461562D01*
X196023878Y-125454602D01*
X195907271Y-125413651D01*
X195895386Y-125411043D01*
X195871900Y-125408823D01*
X195867159Y-125408600D01*
X195094133Y-125408600D01*
X195081243Y-125412788D01*
X195078200Y-125416977D01*
X195078200Y-126535867D01*
X194621800Y-126535867D01*
X194621800Y-125424534D01*
X194617612Y-125411644D01*
X194613423Y-125408601D01*
X193832824Y-125408601D01*
X193828116Y-125408823D01*
X193804620Y-125411043D01*
X193792725Y-125413653D01*
X193676122Y-125454602D01*
X193662976Y-125461562D01*
X193564679Y-125534164D01*
X193554164Y-125544679D01*
X193481562Y-125642976D01*
X193474602Y-125656122D01*
X193433651Y-125772729D01*
X193431043Y-125784614D01*
X193428823Y-125808100D01*
X193428600Y-125812841D01*
X193428600Y-126535867D01*
X164529624Y-126535867D01*
X164531399Y-126533423D01*
X164531399Y-125934803D01*
X166052000Y-125934803D01*
X166063957Y-125994462D01*
X166097410Y-126044433D01*
X166100887Y-126047910D01*
X166203995Y-126151017D01*
X166512769Y-126459790D01*
X166563408Y-126493520D01*
X166605522Y-126501859D01*
X166617568Y-126504244D01*
X166617570Y-126504244D01*
X166622397Y-126505200D01*
X167209803Y-126505200D01*
X167269462Y-126493243D01*
X167319433Y-126459790D01*
X167734790Y-126044431D01*
X167757586Y-126010207D01*
X167763037Y-126002024D01*
X167763037Y-126002023D01*
X167768520Y-125993792D01*
X167780200Y-125934803D01*
X173672000Y-125934803D01*
X173683957Y-125994462D01*
X173717410Y-126044433D01*
X173720887Y-126047910D01*
X173823995Y-126151017D01*
X174132769Y-126459790D01*
X174183408Y-126493520D01*
X174225522Y-126501859D01*
X174237568Y-126504244D01*
X174237570Y-126504244D01*
X174242397Y-126505200D01*
X174829803Y-126505200D01*
X174889462Y-126493243D01*
X174939433Y-126459790D01*
X175354790Y-126044431D01*
X175377586Y-126010207D01*
X175383037Y-126002024D01*
X175383037Y-126002023D01*
X175388520Y-125993792D01*
X175400200Y-125934803D01*
X175400200Y-125347397D01*
X175388243Y-125287738D01*
X175354790Y-125237767D01*
X175249623Y-125132600D01*
X174942952Y-124825931D01*
X174939431Y-124822410D01*
X174888792Y-124788680D01*
X174839611Y-124778942D01*
X174834632Y-124777956D01*
X174834630Y-124777956D01*
X174829803Y-124777000D01*
X174242397Y-124777000D01*
X174182738Y-124788957D01*
X174132767Y-124822410D01*
X173717410Y-125237769D01*
X173714650Y-125241913D01*
X173689602Y-125279518D01*
X173683680Y-125288408D01*
X173672000Y-125347397D01*
X173672000Y-125934803D01*
X167780200Y-125934803D01*
X167780200Y-125347397D01*
X167768243Y-125287738D01*
X167734790Y-125237767D01*
X167629623Y-125132600D01*
X167322952Y-124825931D01*
X167319431Y-124822410D01*
X167268792Y-124788680D01*
X167219611Y-124778942D01*
X167214632Y-124777956D01*
X167214630Y-124777956D01*
X167209803Y-124777000D01*
X166622397Y-124777000D01*
X166562738Y-124788957D01*
X166512767Y-124822410D01*
X166097410Y-125237769D01*
X166094650Y-125241913D01*
X166069602Y-125279518D01*
X166063680Y-125288408D01*
X166052000Y-125347397D01*
X166052000Y-125934803D01*
X164531399Y-125934803D01*
X164531399Y-125802824D01*
X164531177Y-125798116D01*
X164528957Y-125774620D01*
X164526347Y-125762725D01*
X164485398Y-125646122D01*
X164478438Y-125632976D01*
X164405836Y-125534679D01*
X164395321Y-125524164D01*
X164297024Y-125451562D01*
X164283878Y-125444602D01*
X164167271Y-125403651D01*
X164155386Y-125401043D01*
X164131900Y-125398823D01*
X164127159Y-125398600D01*
X163354133Y-125398600D01*
X163341243Y-125402788D01*
X163338200Y-125406977D01*
X163338200Y-126525867D01*
X162881800Y-126525867D01*
X162881800Y-125414534D01*
X162877612Y-125401644D01*
X162873423Y-125398601D01*
X162092824Y-125398601D01*
X162088116Y-125398823D01*
X162064620Y-125401043D01*
X162052725Y-125403653D01*
X161936122Y-125444602D01*
X161922976Y-125451562D01*
X161824679Y-125524164D01*
X161814164Y-125534679D01*
X161741562Y-125632976D01*
X161734602Y-125646122D01*
X161693651Y-125762729D01*
X161691043Y-125774614D01*
X161688823Y-125798100D01*
X161688600Y-125802841D01*
X161688600Y-126525867D01*
X142024600Y-126525867D01*
X142024600Y-126344492D01*
X142043813Y-126285361D01*
X142094113Y-126248816D01*
X142156287Y-126248816D01*
X142196335Y-126273357D01*
X142382769Y-126459790D01*
X142433408Y-126493520D01*
X142475522Y-126501859D01*
X142487568Y-126504244D01*
X142487570Y-126504244D01*
X142492397Y-126505200D01*
X143079803Y-126505200D01*
X143139462Y-126493243D01*
X143189433Y-126459790D01*
X143604790Y-126044431D01*
X143627586Y-126010207D01*
X143633037Y-126002024D01*
X143633037Y-126002023D01*
X143638520Y-125993792D01*
X143650200Y-125934803D01*
X149542000Y-125934803D01*
X149553957Y-125994462D01*
X149587410Y-126044433D01*
X149590887Y-126047910D01*
X149693995Y-126151017D01*
X150002769Y-126459790D01*
X150053408Y-126493520D01*
X150095522Y-126501859D01*
X150107568Y-126504244D01*
X150107570Y-126504244D01*
X150112397Y-126505200D01*
X150699803Y-126505200D01*
X150759462Y-126493243D01*
X150809433Y-126459790D01*
X151224790Y-126044431D01*
X151247586Y-126010207D01*
X151253037Y-126002024D01*
X151253037Y-126002023D01*
X151258520Y-125993792D01*
X151270200Y-125934803D01*
X151270200Y-125347397D01*
X151258243Y-125287738D01*
X151224790Y-125237767D01*
X151119623Y-125132600D01*
X150812952Y-124825931D01*
X150809431Y-124822410D01*
X150758792Y-124788680D01*
X150709611Y-124778942D01*
X150704632Y-124777956D01*
X150704630Y-124777956D01*
X150699803Y-124777000D01*
X150112397Y-124777000D01*
X150052738Y-124788957D01*
X150002767Y-124822410D01*
X149587410Y-125237769D01*
X149584650Y-125241913D01*
X149559602Y-125279518D01*
X149553680Y-125288408D01*
X149542000Y-125347397D01*
X149542000Y-125934803D01*
X143650200Y-125934803D01*
X143650200Y-125347397D01*
X143638243Y-125287738D01*
X143604790Y-125237767D01*
X143499623Y-125132600D01*
X143192952Y-124825931D01*
X143189431Y-124822410D01*
X143138792Y-124788680D01*
X143089611Y-124778942D01*
X143084632Y-124777956D01*
X143084630Y-124777956D01*
X143079803Y-124777000D01*
X142492397Y-124777000D01*
X142432738Y-124788957D01*
X142382767Y-124822410D01*
X142379290Y-124825887D01*
X142193481Y-125011697D01*
X142138084Y-125039923D01*
X142076675Y-125030197D01*
X142032711Y-124986234D01*
X142021939Y-124946792D01*
X142019599Y-124909075D01*
X142019599Y-124909073D01*
X142019155Y-124901923D01*
X142015618Y-124892125D01*
X142010657Y-124872228D01*
X142010196Y-124869011D01*
X142009180Y-124861913D01*
X141989160Y-124817882D01*
X141986117Y-124810407D01*
X141979427Y-124791876D01*
X141969696Y-124764919D01*
X141965468Y-124759131D01*
X141963548Y-124756502D01*
X141953204Y-124738801D01*
X141951859Y-124735842D01*
X141951857Y-124735839D01*
X141948892Y-124729318D01*
X141917315Y-124692670D01*
X141912298Y-124686351D01*
X141909965Y-124683158D01*
X141903675Y-124674548D01*
X141892029Y-124662902D01*
X141886953Y-124657434D01*
X141858491Y-124624402D01*
X141853813Y-124618973D01*
X141846484Y-124614222D01*
X141830068Y-124600941D01*
X140148569Y-122919442D01*
X140120343Y-122864044D01*
X140119104Y-122848505D01*
X140118983Y-122787130D01*
X140115179Y-120854803D01*
X141922000Y-120854803D01*
X141933957Y-120914462D01*
X141967410Y-120964433D01*
X142382769Y-121379790D01*
X142433408Y-121413520D01*
X142475522Y-121421859D01*
X142487568Y-121424244D01*
X142487570Y-121424244D01*
X142492397Y-121425200D01*
X143079803Y-121425200D01*
X143139462Y-121413243D01*
X143189433Y-121379790D01*
X143604790Y-120964431D01*
X143632484Y-120922854D01*
X143633037Y-120922024D01*
X143633037Y-120922023D01*
X143638520Y-120913792D01*
X143650200Y-120854803D01*
X149542000Y-120854803D01*
X149553957Y-120914462D01*
X149587410Y-120964433D01*
X150002769Y-121379790D01*
X150053408Y-121413520D01*
X150095522Y-121421859D01*
X150107568Y-121424244D01*
X150107570Y-121424244D01*
X150112397Y-121425200D01*
X150699803Y-121425200D01*
X150759462Y-121413243D01*
X150809433Y-121379790D01*
X151224790Y-120964431D01*
X151252484Y-120922854D01*
X151253037Y-120922024D01*
X151253037Y-120922023D01*
X151258520Y-120913792D01*
X151270200Y-120854803D01*
X166052000Y-120854803D01*
X166063957Y-120914462D01*
X166097410Y-120964433D01*
X166512769Y-121379790D01*
X166563408Y-121413520D01*
X166605522Y-121421859D01*
X166617568Y-121424244D01*
X166617570Y-121424244D01*
X166622397Y-121425200D01*
X167209803Y-121425200D01*
X167269462Y-121413243D01*
X167319433Y-121379790D01*
X167734790Y-120964431D01*
X167762484Y-120922854D01*
X167763037Y-120922024D01*
X167763037Y-120922023D01*
X167768520Y-120913792D01*
X167780200Y-120854803D01*
X173672000Y-120854803D01*
X173683957Y-120914462D01*
X173717410Y-120964433D01*
X174132769Y-121379790D01*
X174183408Y-121413520D01*
X174225522Y-121421859D01*
X174237568Y-121424244D01*
X174237570Y-121424244D01*
X174242397Y-121425200D01*
X174829803Y-121425200D01*
X174889462Y-121413243D01*
X174939433Y-121379790D01*
X175354790Y-120964431D01*
X175382484Y-120922854D01*
X175383037Y-120922024D01*
X175383037Y-120922023D01*
X175388520Y-120913792D01*
X175400200Y-120854803D01*
X175400200Y-120377176D01*
X193408601Y-120377176D01*
X193408823Y-120381884D01*
X193411043Y-120405380D01*
X193413653Y-120417275D01*
X193454602Y-120533878D01*
X193461562Y-120547024D01*
X193534164Y-120645321D01*
X193544679Y-120655836D01*
X193642976Y-120728438D01*
X193656122Y-120735398D01*
X193772729Y-120776349D01*
X193784614Y-120778957D01*
X193808100Y-120781177D01*
X193812841Y-120781400D01*
X194585867Y-120781400D01*
X194598757Y-120777212D01*
X194601800Y-120773023D01*
X194601800Y-120765466D01*
X195058200Y-120765466D01*
X195062388Y-120778356D01*
X195066577Y-120781399D01*
X195847176Y-120781399D01*
X195851884Y-120781177D01*
X195875380Y-120778957D01*
X195887275Y-120776347D01*
X196003878Y-120735398D01*
X196017024Y-120728438D01*
X196115321Y-120655836D01*
X196125836Y-120645321D01*
X196198438Y-120547024D01*
X196205398Y-120533878D01*
X196246349Y-120417271D01*
X196248957Y-120405386D01*
X196251177Y-120381900D01*
X196251400Y-120377159D01*
X196251400Y-119654133D01*
X196247212Y-119641243D01*
X196243023Y-119638200D01*
X195074133Y-119638200D01*
X195061243Y-119642388D01*
X195058200Y-119646577D01*
X195058200Y-120765466D01*
X194601800Y-120765466D01*
X194601800Y-119654133D01*
X194597612Y-119641243D01*
X194593423Y-119638200D01*
X193424534Y-119638200D01*
X193411644Y-119642388D01*
X193408601Y-119646577D01*
X193408601Y-120377176D01*
X175400200Y-120377176D01*
X175400200Y-120267397D01*
X175388243Y-120207738D01*
X175354790Y-120157767D01*
X174939431Y-119742410D01*
X174888792Y-119708680D01*
X174846678Y-119700341D01*
X174834632Y-119697956D01*
X174834630Y-119697956D01*
X174829803Y-119697000D01*
X174242397Y-119697000D01*
X174182738Y-119708957D01*
X174132767Y-119742410D01*
X173717410Y-120157769D01*
X173714650Y-120161913D01*
X173689602Y-120199518D01*
X173683680Y-120208408D01*
X173672000Y-120267397D01*
X173672000Y-120854803D01*
X167780200Y-120854803D01*
X167780200Y-120267397D01*
X167768243Y-120207738D01*
X167734790Y-120157767D01*
X167319431Y-119742410D01*
X167268792Y-119708680D01*
X167226678Y-119700341D01*
X167214632Y-119697956D01*
X167214630Y-119697956D01*
X167209803Y-119697000D01*
X166622397Y-119697000D01*
X166562738Y-119708957D01*
X166512767Y-119742410D01*
X166097410Y-120157769D01*
X166094650Y-120161913D01*
X166069602Y-120199518D01*
X166063680Y-120208408D01*
X166052000Y-120267397D01*
X166052000Y-120854803D01*
X151270200Y-120854803D01*
X151270200Y-120377176D01*
X161688601Y-120377176D01*
X161688823Y-120381884D01*
X161691043Y-120405380D01*
X161693653Y-120417275D01*
X161734602Y-120533878D01*
X161741562Y-120547024D01*
X161814164Y-120645321D01*
X161824679Y-120655836D01*
X161922976Y-120728438D01*
X161936122Y-120735398D01*
X162052729Y-120776349D01*
X162064614Y-120778957D01*
X162088100Y-120781177D01*
X162092841Y-120781400D01*
X162865867Y-120781400D01*
X162878757Y-120777212D01*
X162881800Y-120773023D01*
X162881800Y-120765466D01*
X163338200Y-120765466D01*
X163342388Y-120778356D01*
X163346577Y-120781399D01*
X164127176Y-120781399D01*
X164131884Y-120781177D01*
X164155380Y-120778957D01*
X164167275Y-120776347D01*
X164283878Y-120735398D01*
X164297024Y-120728438D01*
X164395321Y-120655836D01*
X164405836Y-120645321D01*
X164478438Y-120547024D01*
X164485398Y-120533878D01*
X164526349Y-120417271D01*
X164528957Y-120405386D01*
X164531177Y-120381900D01*
X164531400Y-120377159D01*
X164531400Y-119654133D01*
X164527212Y-119641243D01*
X164523023Y-119638200D01*
X163354133Y-119638200D01*
X163341243Y-119642388D01*
X163338200Y-119646577D01*
X163338200Y-120765466D01*
X162881800Y-120765466D01*
X162881800Y-119654133D01*
X162877612Y-119641243D01*
X162873423Y-119638200D01*
X161704534Y-119638200D01*
X161691644Y-119642388D01*
X161688601Y-119646577D01*
X161688601Y-120377176D01*
X151270200Y-120377176D01*
X151270200Y-120267397D01*
X151258243Y-120207738D01*
X151224790Y-120157767D01*
X150809431Y-119742410D01*
X150758792Y-119708680D01*
X150716678Y-119700341D01*
X150704632Y-119697956D01*
X150704630Y-119697956D01*
X150699803Y-119697000D01*
X150112397Y-119697000D01*
X150052738Y-119708957D01*
X150002767Y-119742410D01*
X149587410Y-120157769D01*
X149584650Y-120161913D01*
X149559602Y-120199518D01*
X149553680Y-120208408D01*
X149542000Y-120267397D01*
X149542000Y-120854803D01*
X143650200Y-120854803D01*
X143650200Y-120267397D01*
X143638243Y-120207738D01*
X143604790Y-120157767D01*
X143189431Y-119742410D01*
X143138792Y-119708680D01*
X143096678Y-119700341D01*
X143084632Y-119697956D01*
X143084630Y-119697956D01*
X143079803Y-119697000D01*
X142492397Y-119697000D01*
X142432738Y-119708957D01*
X142382767Y-119742410D01*
X141967410Y-120157769D01*
X141964650Y-120161913D01*
X141939602Y-120199518D01*
X141933680Y-120208408D01*
X141922000Y-120267397D01*
X141922000Y-120854803D01*
X140115179Y-120854803D01*
X140111854Y-119165867D01*
X161688600Y-119165867D01*
X161692788Y-119178757D01*
X161696977Y-119181800D01*
X162865867Y-119181800D01*
X162878757Y-119177612D01*
X162881800Y-119173423D01*
X162881800Y-119165867D01*
X163338200Y-119165867D01*
X163342388Y-119178757D01*
X163346577Y-119181800D01*
X164515466Y-119181800D01*
X164528356Y-119177612D01*
X164531399Y-119173423D01*
X164531399Y-119165867D01*
X193408600Y-119165867D01*
X193412788Y-119178757D01*
X193416977Y-119181800D01*
X194585867Y-119181800D01*
X194598757Y-119177612D01*
X194601800Y-119173423D01*
X194601800Y-119165867D01*
X195058200Y-119165867D01*
X195062388Y-119178757D01*
X195066577Y-119181800D01*
X196235466Y-119181800D01*
X196248356Y-119177612D01*
X196251399Y-119173423D01*
X196251399Y-118442824D01*
X196251177Y-118438116D01*
X196248957Y-118414620D01*
X196246347Y-118402725D01*
X196205398Y-118286122D01*
X196198438Y-118272976D01*
X196125836Y-118174679D01*
X196115321Y-118164164D01*
X196017024Y-118091562D01*
X196003878Y-118084602D01*
X195887271Y-118043651D01*
X195875386Y-118041043D01*
X195851900Y-118038823D01*
X195847159Y-118038600D01*
X195074133Y-118038600D01*
X195061243Y-118042788D01*
X195058200Y-118046977D01*
X195058200Y-119165867D01*
X194601800Y-119165867D01*
X194601800Y-118054534D01*
X194597612Y-118041644D01*
X194593423Y-118038601D01*
X193812824Y-118038601D01*
X193808116Y-118038823D01*
X193784620Y-118041043D01*
X193772725Y-118043653D01*
X193656122Y-118084602D01*
X193642976Y-118091562D01*
X193544679Y-118164164D01*
X193534164Y-118174679D01*
X193461562Y-118272976D01*
X193454602Y-118286122D01*
X193413651Y-118402729D01*
X193411043Y-118414614D01*
X193408823Y-118438100D01*
X193408600Y-118442841D01*
X193408600Y-119165867D01*
X164531399Y-119165867D01*
X164531399Y-118861164D01*
X178012400Y-118861164D01*
X178024219Y-118920580D01*
X178069240Y-118987960D01*
X178136620Y-119032981D01*
X178196036Y-119044800D01*
X181036164Y-119044800D01*
X181095580Y-119032981D01*
X181162960Y-118987960D01*
X181207981Y-118920580D01*
X181219800Y-118861164D01*
X181219800Y-116310000D01*
X193556454Y-116310000D01*
X193575802Y-116531149D01*
X193633258Y-116745578D01*
X193727077Y-116946773D01*
X193729596Y-116950370D01*
X193849580Y-117121726D01*
X193854407Y-117128620D01*
X194011380Y-117285593D01*
X194014974Y-117288110D01*
X194014977Y-117288112D01*
X194074186Y-117329570D01*
X194193227Y-117412923D01*
X194394422Y-117506742D01*
X194529963Y-117543060D01*
X194604603Y-117563060D01*
X194604606Y-117563060D01*
X194608851Y-117564198D01*
X194830000Y-117583546D01*
X195051149Y-117564198D01*
X195055394Y-117563060D01*
X195055397Y-117563060D01*
X195130037Y-117543060D01*
X195265578Y-117506742D01*
X195466773Y-117412923D01*
X195585814Y-117329570D01*
X195645023Y-117288112D01*
X195645026Y-117288110D01*
X195648620Y-117285593D01*
X195805593Y-117128620D01*
X195810421Y-117121726D01*
X195930404Y-116950370D01*
X195932923Y-116946773D01*
X196026742Y-116745578D01*
X196084198Y-116531149D01*
X196103546Y-116310000D01*
X196084198Y-116088851D01*
X196082710Y-116083295D01*
X196063319Y-116010931D01*
X196026742Y-115874422D01*
X195932923Y-115673227D01*
X195843520Y-115545546D01*
X195808112Y-115494977D01*
X195808110Y-115494974D01*
X195805593Y-115491380D01*
X195648620Y-115334407D01*
X195645026Y-115331890D01*
X195645023Y-115331888D01*
X195470743Y-115209857D01*
X195466773Y-115207077D01*
X195265578Y-115113258D01*
X195100110Y-115068921D01*
X195055397Y-115056940D01*
X195055394Y-115056940D01*
X195051149Y-115055802D01*
X194830000Y-115036454D01*
X194608851Y-115055802D01*
X194604606Y-115056940D01*
X194604603Y-115056940D01*
X194559890Y-115068921D01*
X194394422Y-115113258D01*
X194193227Y-115207077D01*
X194189257Y-115209857D01*
X194014977Y-115331888D01*
X194014974Y-115331890D01*
X194011380Y-115334407D01*
X193854407Y-115491380D01*
X193851890Y-115494974D01*
X193851888Y-115494977D01*
X193816480Y-115545546D01*
X193727077Y-115673227D01*
X193633258Y-115874422D01*
X193596681Y-116010931D01*
X193577291Y-116083295D01*
X193575802Y-116088851D01*
X193556454Y-116310000D01*
X181219800Y-116310000D01*
X181219800Y-116021036D01*
X181207981Y-115961620D01*
X181162960Y-115894240D01*
X181095580Y-115849219D01*
X181036164Y-115837400D01*
X178196036Y-115837400D01*
X178136620Y-115849219D01*
X178069240Y-115894240D01*
X178024219Y-115961620D01*
X178012400Y-116021036D01*
X178012400Y-118861164D01*
X164531399Y-118861164D01*
X164531399Y-118442824D01*
X164531177Y-118438116D01*
X164528957Y-118414620D01*
X164526347Y-118402725D01*
X164485398Y-118286122D01*
X164478438Y-118272976D01*
X164405836Y-118174679D01*
X164395321Y-118164164D01*
X164297024Y-118091562D01*
X164283878Y-118084602D01*
X164167271Y-118043651D01*
X164155386Y-118041043D01*
X164131900Y-118038823D01*
X164127159Y-118038600D01*
X163354133Y-118038600D01*
X163341243Y-118042788D01*
X163338200Y-118046977D01*
X163338200Y-119165867D01*
X162881800Y-119165867D01*
X162881800Y-118054534D01*
X162877612Y-118041644D01*
X162873423Y-118038601D01*
X162092824Y-118038601D01*
X162088116Y-118038823D01*
X162064620Y-118041043D01*
X162052725Y-118043653D01*
X161936122Y-118084602D01*
X161922976Y-118091562D01*
X161824679Y-118164164D01*
X161814164Y-118174679D01*
X161741562Y-118272976D01*
X161734602Y-118286122D01*
X161693651Y-118402729D01*
X161691043Y-118414614D01*
X161688823Y-118438100D01*
X161688600Y-118442841D01*
X161688600Y-119165867D01*
X140111854Y-119165867D01*
X140111254Y-118861164D01*
X144992400Y-118861164D01*
X145004219Y-118920580D01*
X145049240Y-118987960D01*
X145116620Y-119032981D01*
X145176036Y-119044800D01*
X148016164Y-119044800D01*
X148075580Y-119032981D01*
X148142960Y-118987960D01*
X148187981Y-118920580D01*
X148199800Y-118861164D01*
X148199800Y-118314803D01*
X153352000Y-118314803D01*
X153363957Y-118374462D01*
X153397410Y-118424433D01*
X153812769Y-118839790D01*
X153863408Y-118873520D01*
X153905522Y-118881859D01*
X153917568Y-118884244D01*
X153917570Y-118884244D01*
X153922397Y-118885200D01*
X154509803Y-118885200D01*
X154569462Y-118873243D01*
X154619433Y-118839790D01*
X155034790Y-118424431D01*
X155062570Y-118382725D01*
X155063037Y-118382024D01*
X155063037Y-118382023D01*
X155068520Y-118373792D01*
X155080200Y-118314803D01*
X155080200Y-117727397D01*
X155068243Y-117667738D01*
X155034790Y-117617767D01*
X154619431Y-117202410D01*
X154568792Y-117168680D01*
X154526678Y-117160341D01*
X154514632Y-117157956D01*
X154514630Y-117157956D01*
X154509803Y-117157000D01*
X153922397Y-117157000D01*
X153862738Y-117168957D01*
X153812767Y-117202410D01*
X153397410Y-117617769D01*
X153394650Y-117621913D01*
X153369602Y-117659518D01*
X153363680Y-117668408D01*
X153352000Y-117727397D01*
X153352000Y-118314803D01*
X148199800Y-118314803D01*
X148199800Y-116310000D01*
X161836454Y-116310000D01*
X161855802Y-116531149D01*
X161913258Y-116745578D01*
X162007077Y-116946773D01*
X162009596Y-116950370D01*
X162129580Y-117121726D01*
X162134407Y-117128620D01*
X162291380Y-117285593D01*
X162294974Y-117288110D01*
X162294977Y-117288112D01*
X162354186Y-117329570D01*
X162473227Y-117412923D01*
X162674422Y-117506742D01*
X162809963Y-117543060D01*
X162884603Y-117563060D01*
X162884606Y-117563060D01*
X162888851Y-117564198D01*
X163110000Y-117583546D01*
X163331149Y-117564198D01*
X163335394Y-117563060D01*
X163335397Y-117563060D01*
X163410037Y-117543060D01*
X163545578Y-117506742D01*
X163746773Y-117412923D01*
X163865814Y-117329570D01*
X163925023Y-117288112D01*
X163925026Y-117288110D01*
X163928620Y-117285593D01*
X164085593Y-117128620D01*
X164090421Y-117121726D01*
X164210404Y-116950370D01*
X164212923Y-116946773D01*
X164306742Y-116745578D01*
X164364198Y-116531149D01*
X164383546Y-116310000D01*
X164364198Y-116088851D01*
X164362710Y-116083295D01*
X164343319Y-116010931D01*
X164306742Y-115874422D01*
X164284864Y-115827504D01*
X171321499Y-115827504D01*
X171321877Y-115833646D01*
X171329220Y-115893183D01*
X171332671Y-115906253D01*
X171380073Y-116020411D01*
X171386884Y-116032068D01*
X171423399Y-116078720D01*
X171427425Y-116083267D01*
X171973905Y-116629746D01*
X171978521Y-116633827D01*
X172025810Y-116670733D01*
X172037491Y-116677534D01*
X172151733Y-116724738D01*
X172164790Y-116728163D01*
X172223592Y-116735331D01*
X172229666Y-116735700D01*
X172371967Y-116735700D01*
X172384857Y-116731512D01*
X172387900Y-116727323D01*
X172387900Y-116719768D01*
X172844300Y-116719768D01*
X172848488Y-116732658D01*
X172852677Y-116735701D01*
X173002504Y-116735701D01*
X173008646Y-116735323D01*
X173068183Y-116727980D01*
X173081253Y-116724529D01*
X173195411Y-116677127D01*
X173207068Y-116670316D01*
X173253720Y-116633801D01*
X173258267Y-116629775D01*
X173804746Y-116083295D01*
X173808827Y-116078679D01*
X173845733Y-116031390D01*
X173852534Y-116019709D01*
X173899738Y-115905467D01*
X173903163Y-115892410D01*
X173910331Y-115833608D01*
X173910700Y-115827534D01*
X173910700Y-115685233D01*
X173906512Y-115672343D01*
X173902323Y-115669300D01*
X172860233Y-115669300D01*
X172847343Y-115673488D01*
X172844300Y-115677677D01*
X172844300Y-116719768D01*
X172387900Y-116719768D01*
X172387900Y-115685233D01*
X172383712Y-115672343D01*
X172379523Y-115669300D01*
X171337432Y-115669300D01*
X171324542Y-115673488D01*
X171321499Y-115677677D01*
X171321499Y-115827504D01*
X164284864Y-115827504D01*
X164212923Y-115673227D01*
X164123520Y-115545546D01*
X164088112Y-115494977D01*
X164088110Y-115494974D01*
X164085593Y-115491380D01*
X163928620Y-115334407D01*
X163925026Y-115331890D01*
X163925023Y-115331888D01*
X163750743Y-115209857D01*
X163746773Y-115207077D01*
X163725092Y-115196967D01*
X171321500Y-115196967D01*
X171325688Y-115209857D01*
X171329877Y-115212900D01*
X173894768Y-115212900D01*
X173907658Y-115208712D01*
X173910701Y-115204523D01*
X173910701Y-115054696D01*
X173910323Y-115048554D01*
X173902980Y-114989017D01*
X173899529Y-114975947D01*
X173852127Y-114861789D01*
X173845316Y-114850132D01*
X173808801Y-114803480D01*
X173804775Y-114798933D01*
X173258295Y-114252454D01*
X173253679Y-114248373D01*
X173206390Y-114211467D01*
X173194709Y-114204666D01*
X173080472Y-114157464D01*
X173068090Y-114154216D01*
X173015769Y-114120628D01*
X172993183Y-114062701D01*
X173008959Y-114002562D01*
X173044366Y-113972920D01*
X173043109Y-113971043D01*
X173093080Y-113937590D01*
X173612590Y-113418078D01*
X173630589Y-113391056D01*
X173640837Y-113375671D01*
X173640837Y-113375670D01*
X173646320Y-113367439D01*
X173658000Y-113308450D01*
X173658000Y-112930000D01*
X193324859Y-112930000D01*
X193345070Y-113175829D01*
X193346075Y-113179830D01*
X193346076Y-113179836D01*
X193359843Y-113234644D01*
X193405159Y-113415055D01*
X193503514Y-113641256D01*
X193637492Y-113848355D01*
X193640266Y-113851404D01*
X193640271Y-113851410D01*
X193744393Y-113965837D01*
X193803496Y-114030790D01*
X193806735Y-114033348D01*
X193806736Y-114033349D01*
X193959730Y-114154176D01*
X193997068Y-114183664D01*
X194000682Y-114185659D01*
X194000685Y-114185661D01*
X194209395Y-114300875D01*
X194209400Y-114300877D01*
X194213008Y-114302869D01*
X194445518Y-114385206D01*
X194449581Y-114385930D01*
X194449582Y-114385930D01*
X194488611Y-114392882D01*
X194688354Y-114428461D01*
X194692483Y-114428511D01*
X194692489Y-114428512D01*
X194810142Y-114429949D01*
X194934993Y-114431475D01*
X194939075Y-114430850D01*
X194939080Y-114430850D01*
X195128781Y-114401821D01*
X195178813Y-114394165D01*
X195413266Y-114317534D01*
X195483687Y-114280875D01*
X195628395Y-114205545D01*
X195628397Y-114205544D01*
X195632054Y-114203640D01*
X195635348Y-114201167D01*
X195635354Y-114201163D01*
X195826000Y-114058022D01*
X195829303Y-114055542D01*
X195832153Y-114052560D01*
X195996864Y-113880199D01*
X195996867Y-113880195D01*
X195999714Y-113877216D01*
X196138712Y-113673452D01*
X196242564Y-113449722D01*
X196308481Y-113212035D01*
X196308920Y-113207928D01*
X196334253Y-112970884D01*
X196334253Y-112970881D01*
X196334692Y-112966774D01*
X196320493Y-112720525D01*
X196319587Y-112716504D01*
X196267173Y-112483924D01*
X196267172Y-112483920D01*
X196266266Y-112479901D01*
X196173468Y-112251366D01*
X196171317Y-112247856D01*
X196171314Y-112247850D01*
X196046745Y-112044573D01*
X196046744Y-112044572D01*
X196044589Y-112041055D01*
X195883092Y-111854618D01*
X195879924Y-111851988D01*
X195879919Y-111851983D01*
X195696487Y-111699696D01*
X195696486Y-111699695D01*
X195693313Y-111697061D01*
X195480350Y-111572615D01*
X195433428Y-111554697D01*
X195335868Y-111517443D01*
X195249921Y-111484623D01*
X195245878Y-111483800D01*
X195245873Y-111483799D01*
X195025359Y-111438935D01*
X195008215Y-111435447D01*
X194761722Y-111426408D01*
X194644403Y-111441437D01*
X194521152Y-111457226D01*
X194521148Y-111457227D01*
X194517064Y-111457750D01*
X194280809Y-111528630D01*
X194059303Y-111637144D01*
X194055949Y-111639536D01*
X194055948Y-111639537D01*
X193868431Y-111773292D01*
X193858495Y-111780379D01*
X193804066Y-111834618D01*
X193693690Y-111944610D01*
X193683777Y-111954488D01*
X193681372Y-111957835D01*
X193556619Y-112131448D01*
X193539842Y-112154795D01*
X193430555Y-112375921D01*
X193429356Y-112379868D01*
X193429355Y-112379870D01*
X193398963Y-112479901D01*
X193358851Y-112611926D01*
X193358312Y-112616022D01*
X193327973Y-112846474D01*
X193326656Y-112856474D01*
X193326104Y-112879068D01*
X193325169Y-112917331D01*
X193324859Y-112930000D01*
X173658000Y-112930000D01*
X173658000Y-112573750D01*
X173646043Y-112514091D01*
X173612590Y-112464120D01*
X173093078Y-111944610D01*
X173042439Y-111910880D01*
X173000325Y-111902541D01*
X172988279Y-111900156D01*
X172988277Y-111900156D01*
X172983450Y-111899200D01*
X172248750Y-111899200D01*
X172189091Y-111911157D01*
X172139120Y-111944610D01*
X171619610Y-112464122D01*
X171616850Y-112468266D01*
X171591802Y-112505871D01*
X171585880Y-112514761D01*
X171574200Y-112573750D01*
X171574200Y-113308450D01*
X171586157Y-113368109D01*
X171619610Y-113418080D01*
X172139122Y-113937590D01*
X172181529Y-113965837D01*
X172189761Y-113971320D01*
X172188245Y-113973596D01*
X172224214Y-114004240D01*
X172238803Y-114064678D01*
X172215080Y-114122149D01*
X172164183Y-114154176D01*
X172150947Y-114157670D01*
X172036789Y-114205073D01*
X172025132Y-114211884D01*
X171978480Y-114248399D01*
X171973933Y-114252425D01*
X171427454Y-114798905D01*
X171423373Y-114803521D01*
X171386467Y-114850810D01*
X171379666Y-114862491D01*
X171332462Y-114976733D01*
X171329037Y-114989790D01*
X171321869Y-115048592D01*
X171321500Y-115054666D01*
X171321500Y-115196967D01*
X163725092Y-115196967D01*
X163545578Y-115113258D01*
X163380110Y-115068921D01*
X163335397Y-115056940D01*
X163335394Y-115056940D01*
X163331149Y-115055802D01*
X163110000Y-115036454D01*
X162888851Y-115055802D01*
X162884606Y-115056940D01*
X162884603Y-115056940D01*
X162839890Y-115068921D01*
X162674422Y-115113258D01*
X162473227Y-115207077D01*
X162469257Y-115209857D01*
X162294977Y-115331888D01*
X162294974Y-115331890D01*
X162291380Y-115334407D01*
X162134407Y-115491380D01*
X162131890Y-115494974D01*
X162131888Y-115494977D01*
X162096480Y-115545546D01*
X162007077Y-115673227D01*
X161913258Y-115874422D01*
X161876681Y-116010931D01*
X161857291Y-116083295D01*
X161855802Y-116088851D01*
X161836454Y-116310000D01*
X148199800Y-116310000D01*
X148199800Y-116021036D01*
X148187981Y-115961620D01*
X148142960Y-115894240D01*
X148075580Y-115849219D01*
X148016164Y-115837400D01*
X145176036Y-115837400D01*
X145116620Y-115849219D01*
X145049240Y-115894240D01*
X145004219Y-115961620D01*
X144992400Y-116021036D01*
X144992400Y-118861164D01*
X140111254Y-118861164D01*
X140106500Y-116446037D01*
X140125597Y-116386869D01*
X140135965Y-116374705D01*
X140589069Y-115921599D01*
X140592590Y-115918078D01*
X140618841Y-115878667D01*
X140620837Y-115875671D01*
X140620837Y-115875670D01*
X140626320Y-115867439D01*
X140638000Y-115808450D01*
X140638000Y-115073750D01*
X140626043Y-115014091D01*
X140592590Y-114964120D01*
X140073078Y-114444610D01*
X140047745Y-114427736D01*
X140030671Y-114416363D01*
X140030670Y-114416363D01*
X140022439Y-114410880D01*
X139980325Y-114402541D01*
X139968279Y-114400156D01*
X139968277Y-114400156D01*
X139963450Y-114399200D01*
X139228750Y-114399200D01*
X139169091Y-114411157D01*
X139119120Y-114444610D01*
X138599610Y-114964122D01*
X138596850Y-114968266D01*
X138571802Y-115005871D01*
X138565880Y-115014761D01*
X138554200Y-115073750D01*
X138554200Y-115808450D01*
X138566157Y-115868109D01*
X138599610Y-115918080D01*
X138603087Y-115921557D01*
X139060040Y-116378509D01*
X139088266Y-116433907D01*
X139089505Y-116449443D01*
X139101967Y-122779622D01*
X139102466Y-123033263D01*
X139101082Y-123045760D01*
X139101183Y-123045768D01*
X139100609Y-123052906D01*
X139099026Y-123059900D01*
X139099470Y-123067055D01*
X139102445Y-123115018D01*
X139102638Y-123121046D01*
X139102673Y-123138614D01*
X139103187Y-123142154D01*
X139104236Y-123149381D01*
X139105087Y-123157605D01*
X139108045Y-123205277D01*
X139110476Y-123212012D01*
X139110477Y-123212016D01*
X139111789Y-123215649D01*
X139116720Y-123235345D01*
X139118305Y-123246258D01*
X139138157Y-123289692D01*
X139141282Y-123297349D01*
X139155069Y-123335539D01*
X139155072Y-123335545D01*
X139157504Y-123342281D01*
X139164007Y-123351182D01*
X139174271Y-123368708D01*
X139175872Y-123372211D01*
X139175875Y-123372215D01*
X139178854Y-123378734D01*
X139183545Y-123384156D01*
X139210100Y-123414853D01*
X139215248Y-123421324D01*
X139221230Y-123429512D01*
X139221238Y-123429521D01*
X139223525Y-123432652D01*
X139235576Y-123444703D01*
X139240522Y-123450019D01*
X139274150Y-123488891D01*
X139280167Y-123492775D01*
X139280171Y-123492778D01*
X139280977Y-123493298D01*
X139297558Y-123506686D01*
X140978135Y-125187263D01*
X141006361Y-125242661D01*
X141007600Y-125258398D01*
X141007600Y-133603803D01*
X140988387Y-133662934D01*
X140978135Y-133674938D01*
X139963338Y-134689735D01*
X139907940Y-134717961D01*
X139892203Y-134719200D01*
X139228750Y-134719200D01*
X139169091Y-134731157D01*
X139119120Y-134764610D01*
X138599610Y-135284122D01*
X138565880Y-135334761D01*
X138554200Y-135393750D01*
X138554200Y-136097203D01*
X138534987Y-136156334D01*
X138524735Y-136168338D01*
X135619938Y-139073135D01*
X135564540Y-139101361D01*
X135548803Y-139102600D01*
X124623398Y-139102600D01*
X124564267Y-139083387D01*
X124552263Y-139073135D01*
X121734065Y-136254938D01*
X121705839Y-136199540D01*
X121704600Y-136183803D01*
X121704600Y-134676578D01*
X122560850Y-134676578D01*
X122575871Y-134863275D01*
X122576835Y-134867199D01*
X122576835Y-134867200D01*
X122608952Y-134997953D01*
X122635608Y-135106477D01*
X122733459Y-135337000D01*
X122735614Y-135340422D01*
X122854908Y-135529857D01*
X122866908Y-135548913D01*
X123032521Y-135736765D01*
X123226037Y-135895721D01*
X123229530Y-135897754D01*
X123229533Y-135897756D01*
X123394018Y-135993488D01*
X123442479Y-136021693D01*
X123446255Y-136023142D01*
X123446254Y-136023142D01*
X123672499Y-136109989D01*
X123672502Y-136109990D01*
X123676277Y-136111439D01*
X123921416Y-136162652D01*
X124171589Y-136174012D01*
X124175607Y-136173547D01*
X124175610Y-136173547D01*
X124416345Y-136145693D01*
X124416349Y-136145692D01*
X124420361Y-136145228D01*
X124661330Y-136077041D01*
X124888298Y-135971204D01*
X125095425Y-135830440D01*
X125277382Y-135658372D01*
X125429488Y-135459426D01*
X125547829Y-135238720D01*
X125589085Y-135118905D01*
X125628046Y-135005752D01*
X125629361Y-135001933D01*
X125671987Y-134755156D01*
X125673350Y-134725142D01*
X125673350Y-131845622D01*
X125658329Y-131658925D01*
X125637822Y-131575436D01*
X125599557Y-131419650D01*
X125599555Y-131419645D01*
X125598592Y-131415723D01*
X125500741Y-131185200D01*
X125432441Y-131076742D01*
X125369446Y-130976707D01*
X125369444Y-130976704D01*
X125367292Y-130973287D01*
X125201679Y-130785435D01*
X125008163Y-130626479D01*
X124913590Y-130571436D01*
X124795216Y-130502541D01*
X124795215Y-130502540D01*
X124791721Y-130500507D01*
X124729347Y-130476564D01*
X124605550Y-130429043D01*
X124557232Y-130389916D01*
X124541140Y-130329860D01*
X124563421Y-130271815D01*
X124583129Y-130253263D01*
X125211790Y-129804220D01*
X125224591Y-129796447D01*
X125241197Y-129787986D01*
X125248251Y-129784392D01*
X125292344Y-129740299D01*
X125292920Y-129739728D01*
X125332113Y-129701162D01*
X125337427Y-129695933D01*
X125338203Y-129694440D01*
X125339392Y-129693251D01*
X125367737Y-129637622D01*
X125368106Y-129636905D01*
X125378031Y-129617808D01*
X125396868Y-129581564D01*
X125397144Y-129579907D01*
X125397909Y-129578406D01*
X125407677Y-129516733D01*
X125407807Y-129515931D01*
X125416756Y-129462238D01*
X125416756Y-129462237D01*
X125418058Y-129454425D01*
X125414115Y-129428159D01*
X125413000Y-129413224D01*
X125413000Y-128613077D01*
X125432213Y-128553946D01*
X125460585Y-128527581D01*
X125598356Y-128442160D01*
X125740900Y-128307362D01*
X125837813Y-128168957D01*
X125850509Y-128150825D01*
X125850510Y-128150824D01*
X125853428Y-128146656D01*
X125931343Y-127966604D01*
X125947891Y-127887397D01*
X125970674Y-127778343D01*
X125970675Y-127778337D01*
X125971463Y-127774564D01*
X125971800Y-127768133D01*
X125971800Y-127722127D01*
X126580400Y-127722127D01*
X126595246Y-127868282D01*
X126624494Y-127961611D01*
X126641487Y-128015836D01*
X126653914Y-128055492D01*
X126656381Y-128059942D01*
X126656382Y-128059945D01*
X126715362Y-128166347D01*
X126749027Y-128227080D01*
X126876700Y-128376039D01*
X126880730Y-128379165D01*
X127010252Y-128479632D01*
X127031718Y-128496283D01*
X127036293Y-128498534D01*
X127083016Y-128521525D01*
X127127589Y-128564871D01*
X127139200Y-128611789D01*
X127139200Y-129515546D01*
X127146773Y-129538852D01*
X127150457Y-129554198D01*
X127154291Y-129578406D01*
X127157884Y-129585457D01*
X127157884Y-129585458D01*
X127165416Y-129600240D01*
X127171455Y-129614818D01*
X127179030Y-129638132D01*
X127190001Y-129653232D01*
X127193435Y-129657958D01*
X127201681Y-129671413D01*
X127212808Y-129693251D01*
X127235734Y-129716177D01*
X127974186Y-130454630D01*
X128002412Y-130510028D01*
X127992686Y-130571436D01*
X127959597Y-130608969D01*
X127930054Y-130629047D01*
X127837775Y-130691760D01*
X127655818Y-130863828D01*
X127503712Y-131062774D01*
X127436072Y-131188922D01*
X127387817Y-131278919D01*
X127385371Y-131283480D01*
X127384054Y-131287304D01*
X127384053Y-131287307D01*
X127349992Y-131386228D01*
X127303839Y-131520267D01*
X127261213Y-131767044D01*
X127259850Y-131797058D01*
X127259850Y-134676578D01*
X127274871Y-134863275D01*
X127275835Y-134867199D01*
X127275835Y-134867200D01*
X127307952Y-134997953D01*
X127334608Y-135106477D01*
X127432459Y-135337000D01*
X127434614Y-135340422D01*
X127553908Y-135529857D01*
X127565908Y-135548913D01*
X127731521Y-135736765D01*
X127925037Y-135895721D01*
X127928530Y-135897754D01*
X127928533Y-135897756D01*
X128093018Y-135993488D01*
X128141479Y-136021693D01*
X128145255Y-136023142D01*
X128145254Y-136023142D01*
X128371499Y-136109989D01*
X128371502Y-136109990D01*
X128375277Y-136111439D01*
X128620416Y-136162652D01*
X128870589Y-136174012D01*
X128874607Y-136173547D01*
X128874610Y-136173547D01*
X129115345Y-136145693D01*
X129115349Y-136145692D01*
X129119361Y-136145228D01*
X129360330Y-136077041D01*
X129587298Y-135971204D01*
X129794425Y-135830440D01*
X129976382Y-135658372D01*
X130128488Y-135459426D01*
X130246829Y-135238720D01*
X130288085Y-135118905D01*
X130327046Y-135005752D01*
X130328361Y-135001933D01*
X130370987Y-134755156D01*
X130372350Y-134725142D01*
X130372350Y-131845622D01*
X130357329Y-131658925D01*
X130336822Y-131575436D01*
X130298557Y-131419650D01*
X130298555Y-131419645D01*
X130297592Y-131415723D01*
X130199741Y-131185200D01*
X130131441Y-131076742D01*
X130068446Y-130976707D01*
X130068444Y-130976704D01*
X130066292Y-130973287D01*
X129900679Y-130785435D01*
X129707163Y-130626479D01*
X129612590Y-130571436D01*
X129494216Y-130502541D01*
X129494215Y-130502540D01*
X129490721Y-130500507D01*
X129430181Y-130477268D01*
X129260701Y-130412211D01*
X129260698Y-130412210D01*
X129256923Y-130410761D01*
X129064156Y-130370489D01*
X129013594Y-130343150D01*
X127982465Y-129312022D01*
X127954239Y-129256624D01*
X127953000Y-129240887D01*
X127953000Y-128613077D01*
X127972213Y-128553946D01*
X128000585Y-128527581D01*
X128138356Y-128442160D01*
X128280900Y-128307362D01*
X128377813Y-128168957D01*
X128390509Y-128150825D01*
X128390510Y-128150824D01*
X128393428Y-128146656D01*
X128471343Y-127966604D01*
X128487891Y-127887397D01*
X128510674Y-127778343D01*
X128510675Y-127778337D01*
X128511463Y-127774564D01*
X128511800Y-127768133D01*
X128511800Y-127722127D01*
X129120400Y-127722127D01*
X129135246Y-127868282D01*
X129164494Y-127961611D01*
X129181487Y-128015836D01*
X129193914Y-128055492D01*
X129196381Y-128059942D01*
X129196382Y-128059945D01*
X129255362Y-128166347D01*
X129289027Y-128227080D01*
X129416700Y-128376039D01*
X129420730Y-128379165D01*
X129550252Y-128479632D01*
X129571718Y-128496283D01*
X129576293Y-128498534D01*
X129623016Y-128521525D01*
X129667589Y-128564871D01*
X129679200Y-128611789D01*
X129679200Y-129515546D01*
X129686773Y-129538852D01*
X129690457Y-129554198D01*
X129694291Y-129578406D01*
X129697884Y-129585457D01*
X129697884Y-129585458D01*
X129705416Y-129600240D01*
X129711455Y-129614818D01*
X129719030Y-129638132D01*
X129730001Y-129653232D01*
X129733435Y-129657958D01*
X129741681Y-129671413D01*
X129752808Y-129693251D01*
X131929385Y-131869828D01*
X131957611Y-131925226D01*
X131958850Y-131940963D01*
X131958850Y-134676578D01*
X131973871Y-134863275D01*
X131974835Y-134867199D01*
X131974835Y-134867200D01*
X132006952Y-134997953D01*
X132033608Y-135106477D01*
X132131459Y-135337000D01*
X132133614Y-135340422D01*
X132252908Y-135529857D01*
X132264908Y-135548913D01*
X132430521Y-135736765D01*
X132624037Y-135895721D01*
X132627530Y-135897754D01*
X132627533Y-135897756D01*
X132792018Y-135993488D01*
X132840479Y-136021693D01*
X132844255Y-136023142D01*
X132844254Y-136023142D01*
X133070499Y-136109989D01*
X133070502Y-136109990D01*
X133074277Y-136111439D01*
X133319416Y-136162652D01*
X133569589Y-136174012D01*
X133573607Y-136173547D01*
X133573610Y-136173547D01*
X133814345Y-136145693D01*
X133814349Y-136145692D01*
X133818361Y-136145228D01*
X134059330Y-136077041D01*
X134286298Y-135971204D01*
X134493425Y-135830440D01*
X134675382Y-135658372D01*
X134827488Y-135459426D01*
X134945829Y-135238720D01*
X134987085Y-135118905D01*
X135026046Y-135005752D01*
X135027361Y-135001933D01*
X135069987Y-134755156D01*
X135071350Y-134725142D01*
X135071350Y-133628450D01*
X138554200Y-133628450D01*
X138566157Y-133688109D01*
X138599610Y-133738080D01*
X139119122Y-134257590D01*
X139169761Y-134291320D01*
X139211875Y-134299659D01*
X139223921Y-134302044D01*
X139223923Y-134302044D01*
X139228750Y-134303000D01*
X139963450Y-134303000D01*
X140023109Y-134291043D01*
X140073080Y-134257590D01*
X140592590Y-133738078D01*
X140608982Y-133713469D01*
X140620837Y-133695671D01*
X140620837Y-133695670D01*
X140626320Y-133687439D01*
X140638000Y-133628450D01*
X140638000Y-132893750D01*
X140626043Y-132834091D01*
X140592590Y-132784120D01*
X140073078Y-132264610D01*
X140022439Y-132230880D01*
X139980325Y-132222541D01*
X139968279Y-132220156D01*
X139968277Y-132220156D01*
X139963450Y-132219200D01*
X139228750Y-132219200D01*
X139169091Y-132231157D01*
X139119120Y-132264610D01*
X138599610Y-132784122D01*
X138596850Y-132788266D01*
X138571802Y-132825871D01*
X138565880Y-132834761D01*
X138554200Y-132893750D01*
X138554200Y-133628450D01*
X135071350Y-133628450D01*
X135071350Y-131845622D01*
X135056329Y-131658925D01*
X135035822Y-131575436D01*
X134997557Y-131419650D01*
X134997555Y-131419645D01*
X134996592Y-131415723D01*
X134898741Y-131185200D01*
X134830441Y-131076742D01*
X134767446Y-130976707D01*
X134767444Y-130976704D01*
X134765292Y-130973287D01*
X134599679Y-130785435D01*
X134406163Y-130626479D01*
X134311590Y-130571436D01*
X134193216Y-130502541D01*
X134193215Y-130502540D01*
X134189721Y-130500507D01*
X134129181Y-130477268D01*
X133959701Y-130412211D01*
X133959698Y-130412210D01*
X133955923Y-130410761D01*
X133710784Y-130359548D01*
X133460611Y-130348188D01*
X133456593Y-130348653D01*
X133456590Y-130348653D01*
X133215855Y-130376507D01*
X133215851Y-130376508D01*
X133211839Y-130376972D01*
X132970870Y-130445159D01*
X132743902Y-130550996D01*
X132536775Y-130691760D01*
X132354818Y-130863828D01*
X132352364Y-130867038D01*
X132352362Y-130867040D01*
X132303057Y-130931528D01*
X132251879Y-130966833D01*
X132189723Y-130965314D01*
X132152004Y-130941561D01*
X130522465Y-129312022D01*
X130494239Y-129256624D01*
X130493000Y-129240887D01*
X130493000Y-128613077D01*
X130512213Y-128553946D01*
X130540585Y-128527581D01*
X130678356Y-128442160D01*
X130820900Y-128307362D01*
X130917813Y-128168957D01*
X130930509Y-128150825D01*
X130930510Y-128150824D01*
X130933428Y-128146656D01*
X131011343Y-127966604D01*
X131027891Y-127887397D01*
X131050674Y-127778343D01*
X131050675Y-127778337D01*
X131051463Y-127774564D01*
X131051800Y-127768133D01*
X131051800Y-127722127D01*
X131660400Y-127722127D01*
X131675246Y-127868282D01*
X131704494Y-127961611D01*
X131721487Y-128015836D01*
X131733914Y-128055492D01*
X131736381Y-128059942D01*
X131736382Y-128059945D01*
X131795362Y-128166347D01*
X131829027Y-128227080D01*
X131956700Y-128376039D01*
X131960730Y-128379165D01*
X132090252Y-128479632D01*
X132111718Y-128496283D01*
X132287748Y-128582901D01*
X132292676Y-128584185D01*
X132292677Y-128584185D01*
X132293629Y-128584433D01*
X132477600Y-128632354D01*
X132482684Y-128632620D01*
X132482688Y-128632621D01*
X132591169Y-128638306D01*
X132673517Y-128642621D01*
X132678555Y-128641859D01*
X132678556Y-128641859D01*
X132725977Y-128634687D01*
X132867498Y-128613284D01*
X133051618Y-128545541D01*
X133218356Y-128442160D01*
X133360900Y-128307362D01*
X133457813Y-128168957D01*
X133470509Y-128150825D01*
X133470510Y-128150824D01*
X133473428Y-128146656D01*
X133551343Y-127966604D01*
X133567891Y-127887397D01*
X133590674Y-127778343D01*
X133590675Y-127778337D01*
X133591463Y-127774564D01*
X133591800Y-127768133D01*
X133591800Y-127722127D01*
X134200400Y-127722127D01*
X134215246Y-127868282D01*
X134244494Y-127961611D01*
X134261487Y-128015836D01*
X134273914Y-128055492D01*
X134276381Y-128059942D01*
X134276382Y-128059945D01*
X134335362Y-128166347D01*
X134369027Y-128227080D01*
X134496700Y-128376039D01*
X134500730Y-128379165D01*
X134630252Y-128479632D01*
X134651718Y-128496283D01*
X134827748Y-128582901D01*
X134832676Y-128584185D01*
X134832677Y-128584185D01*
X134833629Y-128584433D01*
X135017600Y-128632354D01*
X135022684Y-128632620D01*
X135022688Y-128632621D01*
X135131169Y-128638306D01*
X135213517Y-128642621D01*
X135218555Y-128641859D01*
X135218556Y-128641859D01*
X135265977Y-128634687D01*
X135407498Y-128613284D01*
X135591618Y-128545541D01*
X135758356Y-128442160D01*
X135900900Y-128307362D01*
X135997813Y-128168957D01*
X136010509Y-128150825D01*
X136010510Y-128150824D01*
X136013428Y-128146656D01*
X136091343Y-127966604D01*
X136107891Y-127887397D01*
X136130674Y-127778343D01*
X136130675Y-127778337D01*
X136131463Y-127774564D01*
X136131800Y-127768133D01*
X136131800Y-126100073D01*
X136130317Y-126085468D01*
X136124781Y-126030970D01*
X136116954Y-125953918D01*
X136079011Y-125832841D01*
X136059809Y-125771567D01*
X136059808Y-125771565D01*
X136058286Y-125766708D01*
X135963173Y-125595120D01*
X135910928Y-125534164D01*
X135838818Y-125450032D01*
X135838817Y-125450031D01*
X135835500Y-125446161D01*
X135799970Y-125418601D01*
X135684511Y-125329042D01*
X135684510Y-125329041D01*
X135680482Y-125325917D01*
X135504452Y-125239299D01*
X135498579Y-125237769D01*
X135477387Y-125232249D01*
X135314600Y-125189846D01*
X135309516Y-125189580D01*
X135309512Y-125189579D01*
X135201031Y-125183894D01*
X135118683Y-125179579D01*
X135113645Y-125180341D01*
X135113644Y-125180341D01*
X135067875Y-125187263D01*
X134924702Y-125208916D01*
X134740582Y-125276659D01*
X134573844Y-125380040D01*
X134431300Y-125514838D01*
X134318772Y-125675544D01*
X134316750Y-125680217D01*
X134252756Y-125828100D01*
X134240857Y-125855596D01*
X134239814Y-125860589D01*
X134201849Y-126042315D01*
X134200737Y-126047636D01*
X134200400Y-126054067D01*
X134200400Y-127722127D01*
X133591800Y-127722127D01*
X133591800Y-126100073D01*
X133590317Y-126085468D01*
X133584781Y-126030970D01*
X133576954Y-125953918D01*
X133539011Y-125832841D01*
X133519809Y-125771567D01*
X133519808Y-125771565D01*
X133518286Y-125766708D01*
X133423173Y-125595120D01*
X133370928Y-125534164D01*
X133298818Y-125450032D01*
X133298817Y-125450031D01*
X133295500Y-125446161D01*
X133259970Y-125418601D01*
X133144511Y-125329042D01*
X133144510Y-125329041D01*
X133140482Y-125325917D01*
X132964452Y-125239299D01*
X132958579Y-125237769D01*
X132937387Y-125232249D01*
X132774600Y-125189846D01*
X132769516Y-125189580D01*
X132769512Y-125189579D01*
X132661031Y-125183894D01*
X132578683Y-125179579D01*
X132573645Y-125180341D01*
X132573644Y-125180341D01*
X132527875Y-125187263D01*
X132384702Y-125208916D01*
X132200582Y-125276659D01*
X132033844Y-125380040D01*
X131891300Y-125514838D01*
X131778772Y-125675544D01*
X131776750Y-125680217D01*
X131712756Y-125828100D01*
X131700857Y-125855596D01*
X131699814Y-125860589D01*
X131661849Y-126042315D01*
X131660737Y-126047636D01*
X131660400Y-126054067D01*
X131660400Y-127722127D01*
X131051800Y-127722127D01*
X131051800Y-126100073D01*
X131050317Y-126085468D01*
X131044781Y-126030970D01*
X131036954Y-125953918D01*
X130999011Y-125832841D01*
X130979809Y-125771567D01*
X130979808Y-125771565D01*
X130978286Y-125766708D01*
X130883173Y-125595120D01*
X130830928Y-125534164D01*
X130758818Y-125450032D01*
X130758817Y-125450031D01*
X130755500Y-125446161D01*
X130719970Y-125418601D01*
X130604511Y-125329042D01*
X130604510Y-125329041D01*
X130600482Y-125325917D01*
X130424452Y-125239299D01*
X130418579Y-125237769D01*
X130397387Y-125232249D01*
X130234600Y-125189846D01*
X130229516Y-125189580D01*
X130229512Y-125189579D01*
X130121031Y-125183894D01*
X130038683Y-125179579D01*
X130033645Y-125180341D01*
X130033644Y-125180341D01*
X129987875Y-125187263D01*
X129844702Y-125208916D01*
X129660582Y-125276659D01*
X129493844Y-125380040D01*
X129351300Y-125514838D01*
X129238772Y-125675544D01*
X129236750Y-125680217D01*
X129172756Y-125828100D01*
X129160857Y-125855596D01*
X129159814Y-125860589D01*
X129121849Y-126042315D01*
X129120737Y-126047636D01*
X129120400Y-126054067D01*
X129120400Y-127722127D01*
X128511800Y-127722127D01*
X128511800Y-126100073D01*
X128510317Y-126085468D01*
X128504781Y-126030970D01*
X128496954Y-125953918D01*
X128459011Y-125832841D01*
X128439809Y-125771567D01*
X128439808Y-125771565D01*
X128438286Y-125766708D01*
X128343173Y-125595120D01*
X128290928Y-125534164D01*
X128218818Y-125450032D01*
X128218817Y-125450031D01*
X128215500Y-125446161D01*
X128179970Y-125418601D01*
X128064511Y-125329042D01*
X128064510Y-125329041D01*
X128060482Y-125325917D01*
X127884452Y-125239299D01*
X127878579Y-125237769D01*
X127857387Y-125232249D01*
X127694600Y-125189846D01*
X127689516Y-125189580D01*
X127689512Y-125189579D01*
X127581031Y-125183894D01*
X127498683Y-125179579D01*
X127493645Y-125180341D01*
X127493644Y-125180341D01*
X127447875Y-125187263D01*
X127304702Y-125208916D01*
X127120582Y-125276659D01*
X126953844Y-125380040D01*
X126811300Y-125514838D01*
X126698772Y-125675544D01*
X126696750Y-125680217D01*
X126632756Y-125828100D01*
X126620857Y-125855596D01*
X126619814Y-125860589D01*
X126581849Y-126042315D01*
X126580737Y-126047636D01*
X126580400Y-126054067D01*
X126580400Y-127722127D01*
X125971800Y-127722127D01*
X125971800Y-126100073D01*
X125970317Y-126085468D01*
X125964781Y-126030970D01*
X125956954Y-125953918D01*
X125919011Y-125832841D01*
X125899809Y-125771567D01*
X125899808Y-125771565D01*
X125898286Y-125766708D01*
X125803173Y-125595120D01*
X125750928Y-125534164D01*
X125678818Y-125450032D01*
X125678817Y-125450031D01*
X125675500Y-125446161D01*
X125639970Y-125418601D01*
X125524511Y-125329042D01*
X125524510Y-125329041D01*
X125520482Y-125325917D01*
X125344452Y-125239299D01*
X125338579Y-125237769D01*
X125317387Y-125232249D01*
X125154600Y-125189846D01*
X125149516Y-125189580D01*
X125149512Y-125189579D01*
X125041031Y-125183894D01*
X124958683Y-125179579D01*
X124953645Y-125180341D01*
X124953644Y-125180341D01*
X124907875Y-125187263D01*
X124764702Y-125208916D01*
X124580582Y-125276659D01*
X124413844Y-125380040D01*
X124271300Y-125514838D01*
X124158772Y-125675544D01*
X124156750Y-125680217D01*
X124092756Y-125828100D01*
X124080857Y-125855596D01*
X124079814Y-125860589D01*
X124041849Y-126042315D01*
X124040737Y-126047636D01*
X124040400Y-126054067D01*
X124040400Y-127722127D01*
X124055246Y-127868282D01*
X124084494Y-127961611D01*
X124101487Y-128015836D01*
X124113914Y-128055492D01*
X124116381Y-128059942D01*
X124116382Y-128059945D01*
X124175362Y-128166347D01*
X124209027Y-128227080D01*
X124336700Y-128376039D01*
X124340730Y-128379165D01*
X124470252Y-128479632D01*
X124491718Y-128496283D01*
X124496293Y-128498534D01*
X124543016Y-128521525D01*
X124587589Y-128564871D01*
X124599200Y-128611789D01*
X124599200Y-129189931D01*
X124579987Y-129249062D01*
X124557072Y-129271793D01*
X123911409Y-129732980D01*
X123898612Y-129740751D01*
X123874949Y-129752808D01*
X123830941Y-129796816D01*
X123830365Y-129797388D01*
X123785772Y-129841267D01*
X123784995Y-129842762D01*
X123783808Y-129843949D01*
X123780427Y-129850585D01*
X123780426Y-129850586D01*
X123763208Y-129884378D01*
X123757479Y-129895622D01*
X123755448Y-129899607D01*
X123755083Y-129900316D01*
X123726332Y-129955637D01*
X123726056Y-129957292D01*
X123725291Y-129958794D01*
X123724126Y-129966151D01*
X123715501Y-130020608D01*
X123715370Y-130021409D01*
X123705142Y-130082776D01*
X123707900Y-130101149D01*
X123709085Y-130109042D01*
X123710200Y-130123977D01*
X123710200Y-130330216D01*
X123690987Y-130389347D01*
X123636991Y-130427015D01*
X123572870Y-130445159D01*
X123345902Y-130550996D01*
X123138775Y-130691760D01*
X122956818Y-130863828D01*
X122804712Y-131062774D01*
X122737072Y-131188922D01*
X122688817Y-131278919D01*
X122686371Y-131283480D01*
X122685054Y-131287304D01*
X122685053Y-131287307D01*
X122650992Y-131386228D01*
X122604839Y-131520267D01*
X122562213Y-131767044D01*
X122560850Y-131797058D01*
X122560850Y-134676578D01*
X121704600Y-134676578D01*
X121704600Y-131588333D01*
X121706041Y-131575436D01*
X121706017Y-131575434D01*
X121706592Y-131568293D01*
X121708174Y-131561300D01*
X121704793Y-131506801D01*
X121704600Y-131500572D01*
X121704600Y-131483587D01*
X121702972Y-131472214D01*
X121702150Y-131464196D01*
X121699599Y-131423072D01*
X121699598Y-131423069D01*
X121699155Y-131415922D01*
X121695618Y-131406124D01*
X121690657Y-131386228D01*
X121689180Y-131375913D01*
X121669156Y-131331872D01*
X121666118Y-131324411D01*
X121652129Y-131285661D01*
X121649695Y-131278919D01*
X121643549Y-131270506D01*
X121633206Y-131252806D01*
X121631858Y-131249841D01*
X121628892Y-131243318D01*
X121597327Y-131206685D01*
X121592306Y-131200362D01*
X121585967Y-131191685D01*
X121583675Y-131188547D01*
X121572023Y-131176895D01*
X121566958Y-131171440D01*
X121533813Y-131132973D01*
X121527798Y-131129074D01*
X121526487Y-131128224D01*
X121510070Y-131114942D01*
X118117255Y-127722127D01*
X121500400Y-127722127D01*
X121515246Y-127868282D01*
X121544494Y-127961611D01*
X121561487Y-128015836D01*
X121573914Y-128055492D01*
X121576381Y-128059942D01*
X121576382Y-128059945D01*
X121635362Y-128166347D01*
X121669027Y-128227080D01*
X121796700Y-128376039D01*
X121800730Y-128379165D01*
X121930252Y-128479632D01*
X121951718Y-128496283D01*
X122127748Y-128582901D01*
X122132676Y-128584185D01*
X122132677Y-128584185D01*
X122133629Y-128584433D01*
X122317600Y-128632354D01*
X122322684Y-128632620D01*
X122322688Y-128632621D01*
X122431169Y-128638306D01*
X122513517Y-128642621D01*
X122518555Y-128641859D01*
X122518556Y-128641859D01*
X122565977Y-128634687D01*
X122707498Y-128613284D01*
X122891618Y-128545541D01*
X123058356Y-128442160D01*
X123200900Y-128307362D01*
X123297813Y-128168957D01*
X123310509Y-128150825D01*
X123310510Y-128150824D01*
X123313428Y-128146656D01*
X123391343Y-127966604D01*
X123407891Y-127887397D01*
X123430674Y-127778343D01*
X123430675Y-127778337D01*
X123431463Y-127774564D01*
X123431800Y-127768133D01*
X123431800Y-126100073D01*
X123430317Y-126085468D01*
X123424781Y-126030970D01*
X123416954Y-125953918D01*
X123379011Y-125832841D01*
X123359809Y-125771567D01*
X123359808Y-125771565D01*
X123358286Y-125766708D01*
X123263173Y-125595120D01*
X123210928Y-125534164D01*
X123138818Y-125450032D01*
X123138817Y-125450031D01*
X123135500Y-125446161D01*
X123099970Y-125418601D01*
X122984511Y-125329042D01*
X122984510Y-125329041D01*
X122980482Y-125325917D01*
X122804452Y-125239299D01*
X122798579Y-125237769D01*
X122777387Y-125232249D01*
X122614600Y-125189846D01*
X122609516Y-125189580D01*
X122609512Y-125189579D01*
X122501031Y-125183894D01*
X122418683Y-125179579D01*
X122413645Y-125180341D01*
X122413644Y-125180341D01*
X122367875Y-125187263D01*
X122224702Y-125208916D01*
X122040582Y-125276659D01*
X121873844Y-125380040D01*
X121731300Y-125514838D01*
X121618772Y-125675544D01*
X121616750Y-125680217D01*
X121552756Y-125828100D01*
X121540857Y-125855596D01*
X121539814Y-125860589D01*
X121501849Y-126042315D01*
X121500737Y-126047636D01*
X121500400Y-126054067D01*
X121500400Y-127722127D01*
X118117255Y-127722127D01*
X114548513Y-124153386D01*
X114520287Y-124097988D01*
X114521174Y-124061682D01*
X114541463Y-123964564D01*
X114541800Y-123958133D01*
X114541800Y-123912127D01*
X115150400Y-123912127D01*
X115165246Y-124058282D01*
X115166771Y-124063147D01*
X115216188Y-124220837D01*
X115223914Y-124245492D01*
X115319027Y-124417080D01*
X115446700Y-124566039D01*
X115450730Y-124569165D01*
X115583043Y-124671797D01*
X115601718Y-124686283D01*
X115777748Y-124772901D01*
X115782678Y-124774185D01*
X115787458Y-124775963D01*
X115786881Y-124777515D01*
X115825507Y-124799634D01*
X116978285Y-125952412D01*
X116986388Y-125962553D01*
X116986406Y-125962538D01*
X116991051Y-125967996D01*
X116994876Y-125974058D01*
X117027287Y-126002682D01*
X117035807Y-126010207D01*
X117040348Y-126014475D01*
X117052355Y-126026482D01*
X117061551Y-126033374D01*
X117067792Y-126038456D01*
X117104051Y-126070478D01*
X117111323Y-126073892D01*
X117113480Y-126074905D01*
X117131054Y-126085464D01*
X117139395Y-126091716D01*
X117184701Y-126108700D01*
X117192115Y-126111824D01*
X117235900Y-126132381D01*
X117242984Y-126133484D01*
X117242987Y-126133485D01*
X117246202Y-126133986D01*
X117266027Y-126139187D01*
X117269066Y-126140326D01*
X117269068Y-126140326D01*
X117275784Y-126142844D01*
X117324005Y-126146427D01*
X117332018Y-126147347D01*
X117346486Y-126149600D01*
X117362963Y-126149600D01*
X117370419Y-126149877D01*
X117413892Y-126153108D01*
X117413894Y-126153108D01*
X117421041Y-126153639D01*
X117429577Y-126151817D01*
X117450578Y-126149600D01*
X119857868Y-126149600D01*
X119870766Y-126151041D01*
X119870768Y-126151017D01*
X119877906Y-126151591D01*
X119884900Y-126153174D01*
X119939398Y-126149793D01*
X119945627Y-126149600D01*
X119962613Y-126149600D01*
X119966160Y-126149092D01*
X119966162Y-126149092D01*
X119968805Y-126148713D01*
X119973981Y-126147972D01*
X119981999Y-126147151D01*
X119998333Y-126146137D01*
X120023126Y-126144599D01*
X120023128Y-126144599D01*
X120030277Y-126144155D01*
X120037015Y-126141722D01*
X120037017Y-126141722D01*
X120040074Y-126140618D01*
X120059972Y-126135657D01*
X120070287Y-126134180D01*
X120114318Y-126114160D01*
X120121789Y-126111119D01*
X120167281Y-126094696D01*
X120173069Y-126090468D01*
X120175698Y-126088548D01*
X120193399Y-126078204D01*
X120196358Y-126076859D01*
X120196361Y-126076857D01*
X120202882Y-126073892D01*
X120228878Y-126051493D01*
X120239530Y-126042315D01*
X120245849Y-126037298D01*
X120257652Y-126028675D01*
X120269298Y-126017029D01*
X120274766Y-126011953D01*
X120307798Y-125983491D01*
X120313227Y-125978813D01*
X120317978Y-125971484D01*
X120331259Y-125955068D01*
X122647263Y-123639065D01*
X122702661Y-123610839D01*
X122718398Y-123609600D01*
X137453803Y-123609600D01*
X137512934Y-123628813D01*
X137524938Y-123639065D01*
X139073135Y-125187263D01*
X139101361Y-125242661D01*
X139102600Y-125258398D01*
X139102600Y-128813726D01*
X139102597Y-128814518D01*
X139097497Y-129462238D01*
X139096259Y-129619392D01*
X139076581Y-129678370D01*
X139025995Y-129714518D01*
X138995662Y-129719200D01*
X138737836Y-129719200D01*
X138678420Y-129731019D01*
X138611040Y-129776040D01*
X138566019Y-129843420D01*
X138554200Y-129902836D01*
X138554200Y-131619364D01*
X138566019Y-131678780D01*
X138611040Y-131746160D01*
X138619279Y-131751665D01*
X138665075Y-131782264D01*
X138678420Y-131791181D01*
X138737836Y-131803000D01*
X140454364Y-131803000D01*
X140513780Y-131791181D01*
X140527126Y-131782264D01*
X140572921Y-131751665D01*
X140581160Y-131746160D01*
X140626181Y-131678780D01*
X140638000Y-131619364D01*
X140638000Y-129902836D01*
X140626181Y-129843420D01*
X140581160Y-129776040D01*
X140513780Y-129731019D01*
X140454364Y-129719200D01*
X140213900Y-129719200D01*
X140154769Y-129699987D01*
X140118224Y-129649687D01*
X140113303Y-129617808D01*
X140113442Y-129600240D01*
X140118197Y-128996269D01*
X140119277Y-128859132D01*
X140119356Y-128857281D01*
X140119600Y-128855714D01*
X140119600Y-128818546D01*
X140119603Y-128817754D01*
X140119844Y-128787174D01*
X140119844Y-128787171D01*
X140119872Y-128783592D01*
X140119659Y-128782020D01*
X140119600Y-128780138D01*
X140119600Y-125074332D01*
X140121041Y-125061434D01*
X140121017Y-125061432D01*
X140121591Y-125054294D01*
X140123174Y-125047300D01*
X140119793Y-124992802D01*
X140119600Y-124986573D01*
X140119600Y-124969587D01*
X140117972Y-124958219D01*
X140117150Y-124950196D01*
X140114599Y-124909074D01*
X140114599Y-124909072D01*
X140114155Y-124901923D01*
X140110618Y-124892125D01*
X140105657Y-124872228D01*
X140105196Y-124869011D01*
X140104180Y-124861913D01*
X140084160Y-124817882D01*
X140081117Y-124810407D01*
X140074427Y-124791876D01*
X140064696Y-124764919D01*
X140060468Y-124759131D01*
X140058548Y-124756502D01*
X140048204Y-124738801D01*
X140046859Y-124735842D01*
X140046857Y-124735839D01*
X140043892Y-124729318D01*
X140012315Y-124692670D01*
X140007298Y-124686351D01*
X140004965Y-124683158D01*
X139998675Y-124674548D01*
X139987029Y-124662902D01*
X139981953Y-124657434D01*
X139953491Y-124624402D01*
X139948813Y-124618973D01*
X139941484Y-124614222D01*
X139925068Y-124600941D01*
X138244065Y-122919938D01*
X138215839Y-122864540D01*
X138214600Y-122848803D01*
X138214600Y-113308450D01*
X138554200Y-113308450D01*
X138566157Y-113368109D01*
X138599610Y-113418080D01*
X139119122Y-113937590D01*
X139169761Y-113971320D01*
X139211875Y-113979659D01*
X139223921Y-113982044D01*
X139223923Y-113982044D01*
X139228750Y-113983000D01*
X139963450Y-113983000D01*
X140023109Y-113971043D01*
X140073080Y-113937590D01*
X140592590Y-113418078D01*
X140610589Y-113391056D01*
X140620837Y-113375671D01*
X140620837Y-113375670D01*
X140626320Y-113367439D01*
X140638000Y-113308450D01*
X140638000Y-112930000D01*
X161604859Y-112930000D01*
X161625070Y-113175829D01*
X161626075Y-113179830D01*
X161626076Y-113179836D01*
X161639843Y-113234644D01*
X161685159Y-113415055D01*
X161783514Y-113641256D01*
X161917492Y-113848355D01*
X161920266Y-113851404D01*
X161920271Y-113851410D01*
X162024393Y-113965837D01*
X162083496Y-114030790D01*
X162086735Y-114033348D01*
X162086736Y-114033349D01*
X162239730Y-114154176D01*
X162277068Y-114183664D01*
X162280682Y-114185659D01*
X162280685Y-114185661D01*
X162489395Y-114300875D01*
X162489400Y-114300877D01*
X162493008Y-114302869D01*
X162725518Y-114385206D01*
X162729581Y-114385930D01*
X162729582Y-114385930D01*
X162768611Y-114392882D01*
X162968354Y-114428461D01*
X162972483Y-114428511D01*
X162972489Y-114428512D01*
X163090142Y-114429949D01*
X163214993Y-114431475D01*
X163219075Y-114430850D01*
X163219080Y-114430850D01*
X163408781Y-114401821D01*
X163458813Y-114394165D01*
X163693266Y-114317534D01*
X163763687Y-114280875D01*
X163908395Y-114205545D01*
X163908397Y-114205544D01*
X163912054Y-114203640D01*
X163915348Y-114201167D01*
X163915354Y-114201163D01*
X164106000Y-114058022D01*
X164109303Y-114055542D01*
X164112153Y-114052560D01*
X164276864Y-113880199D01*
X164276867Y-113880195D01*
X164279714Y-113877216D01*
X164418712Y-113673452D01*
X164522564Y-113449722D01*
X164588481Y-113212035D01*
X164588920Y-113207928D01*
X164614253Y-112970884D01*
X164614253Y-112970881D01*
X164614692Y-112966774D01*
X164600493Y-112720525D01*
X164599587Y-112716504D01*
X164547173Y-112483924D01*
X164547172Y-112483920D01*
X164546266Y-112479901D01*
X164453468Y-112251366D01*
X164451317Y-112247856D01*
X164451314Y-112247850D01*
X164326745Y-112044573D01*
X164326744Y-112044572D01*
X164324589Y-112041055D01*
X164163092Y-111854618D01*
X164159924Y-111851988D01*
X164159919Y-111851983D01*
X163976487Y-111699696D01*
X163976486Y-111699695D01*
X163973313Y-111697061D01*
X163760350Y-111572615D01*
X163713428Y-111554697D01*
X163615868Y-111517443D01*
X163529921Y-111484623D01*
X163525878Y-111483800D01*
X163525873Y-111483799D01*
X163305359Y-111438935D01*
X163288215Y-111435447D01*
X163041722Y-111426408D01*
X162924403Y-111441437D01*
X162801152Y-111457226D01*
X162801148Y-111457227D01*
X162797064Y-111457750D01*
X162560809Y-111528630D01*
X162339303Y-111637144D01*
X162335949Y-111639536D01*
X162335948Y-111639537D01*
X162148431Y-111773292D01*
X162138495Y-111780379D01*
X162084066Y-111834618D01*
X161973690Y-111944610D01*
X161963777Y-111954488D01*
X161961372Y-111957835D01*
X161836619Y-112131448D01*
X161819842Y-112154795D01*
X161710555Y-112375921D01*
X161709356Y-112379868D01*
X161709355Y-112379870D01*
X161678963Y-112479901D01*
X161638851Y-112611926D01*
X161638312Y-112616022D01*
X161607973Y-112846474D01*
X161606656Y-112856474D01*
X161606104Y-112879068D01*
X161605169Y-112917331D01*
X161604859Y-112930000D01*
X140638000Y-112930000D01*
X140638000Y-112573750D01*
X140626043Y-112514091D01*
X140592590Y-112464120D01*
X140073078Y-111944610D01*
X140022439Y-111910880D01*
X139980325Y-111902541D01*
X139968279Y-111900156D01*
X139968277Y-111900156D01*
X139963450Y-111899200D01*
X139228750Y-111899200D01*
X139169091Y-111911157D01*
X139119120Y-111944610D01*
X138599610Y-112464122D01*
X138596850Y-112468266D01*
X138571802Y-112505871D01*
X138565880Y-112514761D01*
X138554200Y-112573750D01*
X138554200Y-113308450D01*
X138214600Y-113308450D01*
X138214600Y-111328397D01*
X138233813Y-111269266D01*
X138244065Y-111257262D01*
X138382465Y-111118862D01*
X138437863Y-111090636D01*
X138499271Y-111100362D01*
X138543235Y-111144326D01*
X138554200Y-111189997D01*
X138554200Y-111299364D01*
X138566019Y-111358780D01*
X138611040Y-111426160D01*
X138678420Y-111471181D01*
X138737836Y-111483000D01*
X140454364Y-111483000D01*
X140513780Y-111471181D01*
X140581160Y-111426160D01*
X140626181Y-111358780D01*
X140638000Y-111299364D01*
X171574200Y-111299364D01*
X171586019Y-111358780D01*
X171631040Y-111426160D01*
X171698420Y-111471181D01*
X171757836Y-111483000D01*
X173474364Y-111483000D01*
X173533780Y-111471181D01*
X173601160Y-111426160D01*
X173646181Y-111358780D01*
X173658000Y-111299364D01*
X173658000Y-109861164D01*
X178012400Y-109861164D01*
X178024219Y-109920580D01*
X178069240Y-109987960D01*
X178136620Y-110032981D01*
X178196036Y-110044800D01*
X181036164Y-110044800D01*
X181095580Y-110032981D01*
X181162960Y-109987960D01*
X181207981Y-109920580D01*
X181219800Y-109861164D01*
X181219800Y-108010000D01*
X193556454Y-108010000D01*
X193575802Y-108231149D01*
X193633258Y-108445578D01*
X193727077Y-108646773D01*
X193729596Y-108650370D01*
X193849580Y-108821726D01*
X193854407Y-108828620D01*
X194011380Y-108985593D01*
X194014974Y-108988110D01*
X194014977Y-108988112D01*
X194102304Y-109049258D01*
X194193227Y-109112923D01*
X194394422Y-109206742D01*
X194529963Y-109243060D01*
X194604603Y-109263060D01*
X194604606Y-109263060D01*
X194608851Y-109264198D01*
X194830000Y-109283546D01*
X195051149Y-109264198D01*
X195055394Y-109263060D01*
X195055397Y-109263060D01*
X195130037Y-109243060D01*
X195265578Y-109206742D01*
X195466773Y-109112923D01*
X195557697Y-109049258D01*
X195645023Y-108988112D01*
X195645026Y-108988110D01*
X195648620Y-108985593D01*
X195805593Y-108828620D01*
X195810421Y-108821726D01*
X195930404Y-108650370D01*
X195932923Y-108646773D01*
X196026742Y-108445578D01*
X196084198Y-108231149D01*
X196103546Y-108010000D01*
X196084198Y-107788851D01*
X196082693Y-107783232D01*
X196027879Y-107578667D01*
X196026742Y-107574422D01*
X195932923Y-107373227D01*
X195805593Y-107191380D01*
X195648620Y-107034407D01*
X195645026Y-107031890D01*
X195645023Y-107031888D01*
X195532902Y-106953381D01*
X195466773Y-106907077D01*
X195265578Y-106813258D01*
X195129069Y-106776681D01*
X195055397Y-106756940D01*
X195055394Y-106756940D01*
X195051149Y-106755802D01*
X194830000Y-106736454D01*
X194608851Y-106755802D01*
X194604606Y-106756940D01*
X194604603Y-106756940D01*
X194530931Y-106776681D01*
X194394422Y-106813258D01*
X194193227Y-106907077D01*
X194127098Y-106953381D01*
X194014977Y-107031888D01*
X194014974Y-107031890D01*
X194011380Y-107034407D01*
X193854407Y-107191380D01*
X193727077Y-107373227D01*
X193633258Y-107574422D01*
X193632121Y-107578667D01*
X193577308Y-107783232D01*
X193575802Y-107788851D01*
X193556454Y-108010000D01*
X181219800Y-108010000D01*
X181219800Y-107021036D01*
X181207981Y-106961620D01*
X181162960Y-106894240D01*
X181095580Y-106849219D01*
X181036164Y-106837400D01*
X178196036Y-106837400D01*
X178136620Y-106849219D01*
X178069240Y-106894240D01*
X178024219Y-106961620D01*
X178012400Y-107021036D01*
X178012400Y-109861164D01*
X173658000Y-109861164D01*
X173658000Y-109582836D01*
X173646181Y-109523420D01*
X173601160Y-109456040D01*
X173533780Y-109411019D01*
X173474364Y-109399200D01*
X171757836Y-109399200D01*
X171698420Y-109411019D01*
X171631040Y-109456040D01*
X171586019Y-109523420D01*
X171574200Y-109582836D01*
X171574200Y-111299364D01*
X140638000Y-111299364D01*
X140638000Y-110694803D01*
X153352000Y-110694803D01*
X153363957Y-110754462D01*
X153397410Y-110804433D01*
X153812769Y-111219790D01*
X153863408Y-111253520D01*
X153905522Y-111261859D01*
X153917568Y-111264244D01*
X153917570Y-111264244D01*
X153922397Y-111265200D01*
X154509803Y-111265200D01*
X154569462Y-111253243D01*
X154619433Y-111219790D01*
X155034790Y-110804431D01*
X155051182Y-110779822D01*
X155063037Y-110762024D01*
X155063037Y-110762023D01*
X155068520Y-110753792D01*
X155080200Y-110694803D01*
X155080200Y-110107397D01*
X155068243Y-110047738D01*
X155034790Y-109997767D01*
X154930037Y-109893014D01*
X154622952Y-109585931D01*
X154619431Y-109582410D01*
X154568792Y-109548680D01*
X154526678Y-109540341D01*
X154514632Y-109537956D01*
X154514630Y-109537956D01*
X154509803Y-109537000D01*
X153922397Y-109537000D01*
X153862738Y-109548957D01*
X153812767Y-109582410D01*
X153397410Y-109997769D01*
X153394650Y-110001913D01*
X153369582Y-110039548D01*
X153363680Y-110048408D01*
X153352000Y-110107397D01*
X153352000Y-110694803D01*
X140638000Y-110694803D01*
X140638000Y-109861164D01*
X144992400Y-109861164D01*
X145004219Y-109920580D01*
X145049240Y-109987960D01*
X145116620Y-110032981D01*
X145176036Y-110044800D01*
X148016164Y-110044800D01*
X148075580Y-110032981D01*
X148142960Y-109987960D01*
X148187981Y-109920580D01*
X148199800Y-109861164D01*
X148199800Y-108010000D01*
X161836454Y-108010000D01*
X161855802Y-108231149D01*
X161913258Y-108445578D01*
X162007077Y-108646773D01*
X162009596Y-108650370D01*
X162129580Y-108821726D01*
X162134407Y-108828620D01*
X162291380Y-108985593D01*
X162294974Y-108988110D01*
X162294977Y-108988112D01*
X162382304Y-109049258D01*
X162473227Y-109112923D01*
X162674422Y-109206742D01*
X162809963Y-109243060D01*
X162884603Y-109263060D01*
X162884606Y-109263060D01*
X162888851Y-109264198D01*
X163110000Y-109283546D01*
X163331149Y-109264198D01*
X163335394Y-109263060D01*
X163335397Y-109263060D01*
X163410037Y-109243060D01*
X163545578Y-109206742D01*
X163746773Y-109112923D01*
X163837697Y-109049258D01*
X163925023Y-108988112D01*
X163925026Y-108988110D01*
X163928620Y-108985593D01*
X164085593Y-108828620D01*
X164090421Y-108821726D01*
X164210404Y-108650370D01*
X164212923Y-108646773D01*
X164306742Y-108445578D01*
X164364198Y-108231149D01*
X164383546Y-108010000D01*
X164364198Y-107788851D01*
X164362693Y-107783232D01*
X164307879Y-107578667D01*
X164306742Y-107574422D01*
X164212923Y-107373227D01*
X164085593Y-107191380D01*
X163928620Y-107034407D01*
X163925026Y-107031890D01*
X163925023Y-107031888D01*
X163812902Y-106953381D01*
X163746773Y-106907077D01*
X163545578Y-106813258D01*
X163409069Y-106776681D01*
X163335397Y-106756940D01*
X163335394Y-106756940D01*
X163331149Y-106755802D01*
X163110000Y-106736454D01*
X162888851Y-106755802D01*
X162884606Y-106756940D01*
X162884603Y-106756940D01*
X162810931Y-106776681D01*
X162674422Y-106813258D01*
X162473227Y-106907077D01*
X162407098Y-106953381D01*
X162294977Y-107031888D01*
X162294974Y-107031890D01*
X162291380Y-107034407D01*
X162134407Y-107191380D01*
X162007077Y-107373227D01*
X161913258Y-107574422D01*
X161912121Y-107578667D01*
X161857308Y-107783232D01*
X161855802Y-107788851D01*
X161836454Y-108010000D01*
X148199800Y-108010000D01*
X148199800Y-107021036D01*
X148187981Y-106961620D01*
X148142960Y-106894240D01*
X148075580Y-106849219D01*
X148016164Y-106837400D01*
X145176036Y-106837400D01*
X145116620Y-106849219D01*
X145049240Y-106894240D01*
X145004219Y-106961620D01*
X144992400Y-107021036D01*
X144992400Y-109861164D01*
X140638000Y-109861164D01*
X140638000Y-109582836D01*
X140626181Y-109523420D01*
X140581160Y-109456040D01*
X140513780Y-109411019D01*
X140454364Y-109399200D01*
X138737836Y-109399200D01*
X138678420Y-109411019D01*
X138611040Y-109456040D01*
X138566019Y-109523420D01*
X138554200Y-109582836D01*
X138554200Y-109795277D01*
X138534987Y-109854408D01*
X138484687Y-109890953D01*
X138450398Y-109895826D01*
X138429022Y-109895145D01*
X138422050Y-109894514D01*
X138417034Y-109893014D01*
X138409867Y-109892970D01*
X138409866Y-109892970D01*
X138365695Y-109892700D01*
X138350474Y-109892607D01*
X138347897Y-109892558D01*
X138320804Y-109891695D01*
X138317246Y-109892090D01*
X138313673Y-109892230D01*
X138313668Y-109892093D01*
X138308688Y-109892352D01*
X138295732Y-109892273D01*
X138271379Y-109892124D01*
X138264490Y-109894093D01*
X138264489Y-109894093D01*
X138250669Y-109898043D01*
X138234107Y-109901304D01*
X138212694Y-109903677D01*
X138178251Y-109918032D01*
X138167194Y-109921901D01*
X138138224Y-109930180D01*
X138138221Y-109930181D01*
X138131329Y-109932151D01*
X138125264Y-109935977D01*
X138125261Y-109935979D01*
X138113111Y-109943645D01*
X138098130Y-109951423D01*
X138084863Y-109956952D01*
X138084861Y-109956953D01*
X138078246Y-109959710D01*
X138049219Y-109983153D01*
X138039706Y-109989961D01*
X138008142Y-110009876D01*
X138003397Y-110015249D01*
X137993883Y-110026021D01*
X137981688Y-110037690D01*
X137970507Y-110046720D01*
X137964928Y-110051226D01*
X137943649Y-110081871D01*
X137936420Y-110091086D01*
X137928281Y-110100302D01*
X137911722Y-110119051D01*
X137908677Y-110125536D01*
X137908676Y-110125538D01*
X137902570Y-110138544D01*
X137894139Y-110153169D01*
X137881849Y-110170868D01*
X137880120Y-110176043D01*
X137862213Y-110200860D01*
X137394788Y-110668285D01*
X137384647Y-110676388D01*
X137384662Y-110676406D01*
X137379204Y-110681051D01*
X137373142Y-110684876D01*
X137368397Y-110690249D01*
X137336993Y-110725807D01*
X137332725Y-110730348D01*
X137320718Y-110742355D01*
X137313826Y-110751551D01*
X137308744Y-110757792D01*
X137276722Y-110794051D01*
X137273675Y-110800542D01*
X137272295Y-110803480D01*
X137261736Y-110821054D01*
X137255484Y-110829395D01*
X137252968Y-110836105D01*
X137252968Y-110836106D01*
X137238502Y-110874694D01*
X137235374Y-110882118D01*
X137214819Y-110925900D01*
X137213717Y-110932979D01*
X137213217Y-110936190D01*
X137208015Y-110956017D01*
X137206872Y-110959068D01*
X137206871Y-110959072D01*
X137204355Y-110965784D01*
X137203824Y-110972932D01*
X137200772Y-111014005D01*
X137199851Y-111022030D01*
X137197600Y-111036486D01*
X137197600Y-111052960D01*
X137197323Y-111060414D01*
X137193561Y-111111041D01*
X137195057Y-111118049D01*
X137195057Y-111118051D01*
X137195383Y-111119580D01*
X137197600Y-111140582D01*
X137197600Y-122492000D01*
X137178387Y-122551131D01*
X137128087Y-122587676D01*
X137097000Y-122592600D01*
X122534333Y-122592600D01*
X122521436Y-122591159D01*
X122521434Y-122591183D01*
X122514293Y-122590608D01*
X122507300Y-122589026D01*
X122452911Y-122592400D01*
X122452801Y-122592407D01*
X122446572Y-122592600D01*
X122429587Y-122592600D01*
X122418214Y-122594228D01*
X122410201Y-122595049D01*
X122395663Y-122595952D01*
X122369072Y-122597601D01*
X122369069Y-122597602D01*
X122361922Y-122598045D01*
X122355185Y-122600477D01*
X122355182Y-122600478D01*
X122352124Y-122601582D01*
X122332228Y-122606543D01*
X122321913Y-122608020D01*
X122277872Y-122628044D01*
X122270419Y-122631079D01*
X122224919Y-122647505D01*
X122219133Y-122651732D01*
X122219131Y-122651733D01*
X122216506Y-122653651D01*
X122198806Y-122663994D01*
X122189318Y-122668308D01*
X122183888Y-122672987D01*
X122152686Y-122699872D01*
X122146369Y-122704889D01*
X122134547Y-122713525D01*
X122122895Y-122725177D01*
X122117440Y-122730242D01*
X122078973Y-122763387D01*
X122075075Y-122769401D01*
X122075074Y-122769402D01*
X122074224Y-122770713D01*
X122060942Y-122787130D01*
X120898112Y-123949961D01*
X119744938Y-125103135D01*
X119689540Y-125131361D01*
X119673803Y-125132600D01*
X119267410Y-125132600D01*
X119208279Y-125113387D01*
X119171734Y-125063087D01*
X119171734Y-125000913D01*
X119208279Y-124950613D01*
X119221270Y-124942605D01*
X119307604Y-124898044D01*
X119315151Y-124893255D01*
X119480587Y-124766312D01*
X119487150Y-124760277D01*
X119627496Y-124606039D01*
X119632899Y-124598920D01*
X119743708Y-124422277D01*
X119747764Y-124414316D01*
X119825542Y-124220837D01*
X119828121Y-124212295D01*
X119870569Y-124007322D01*
X119871531Y-124000016D01*
X119874417Y-123949961D01*
X119874500Y-123947073D01*
X119874500Y-123345233D01*
X119870312Y-123332343D01*
X119866123Y-123329300D01*
X117453633Y-123329300D01*
X117440743Y-123333488D01*
X117437700Y-123337677D01*
X117437700Y-123916035D01*
X117437900Y-123920519D01*
X117451711Y-124075274D01*
X117453291Y-124084053D01*
X117508316Y-124285189D01*
X117511431Y-124293566D01*
X117601204Y-124481779D01*
X117605746Y-124489459D01*
X117727434Y-124658807D01*
X117733265Y-124665563D01*
X117883021Y-124810685D01*
X117889958Y-124816302D01*
X118063039Y-124932609D01*
X118070859Y-124936908D01*
X118077639Y-124939884D01*
X118124061Y-124981245D01*
X118137306Y-125041992D01*
X118112315Y-125098922D01*
X118058634Y-125130291D01*
X118037203Y-125132600D01*
X117638398Y-125132600D01*
X117579267Y-125113387D01*
X117567263Y-125103135D01*
X116956135Y-124492007D01*
X116927909Y-124436609D01*
X116937635Y-124375201D01*
X116944863Y-124363171D01*
X116960506Y-124340831D01*
X116960511Y-124340821D01*
X116963428Y-124336656D01*
X117041343Y-124156604D01*
X117060868Y-124063147D01*
X117080674Y-123968343D01*
X117080675Y-123968337D01*
X117081463Y-123964564D01*
X117081800Y-123958133D01*
X117081800Y-122856967D01*
X117437700Y-122856967D01*
X117441888Y-122869857D01*
X117446077Y-122872900D01*
X118411967Y-122872900D01*
X118424857Y-122868712D01*
X118427900Y-122864523D01*
X118427900Y-122856967D01*
X118884300Y-122856967D01*
X118888488Y-122869857D01*
X118892677Y-122872900D01*
X119858567Y-122872900D01*
X119871457Y-122868712D01*
X119874500Y-122864523D01*
X119874500Y-122286165D01*
X119874300Y-122281681D01*
X119860489Y-122126926D01*
X119858909Y-122118147D01*
X119803884Y-121917011D01*
X119800769Y-121908634D01*
X119710996Y-121720421D01*
X119706454Y-121712741D01*
X119584766Y-121543393D01*
X119578935Y-121536637D01*
X119429179Y-121391515D01*
X119422242Y-121385898D01*
X119249161Y-121269591D01*
X119241341Y-121265292D01*
X119050395Y-121181473D01*
X119041929Y-121178624D01*
X118899795Y-121144500D01*
X118886889Y-121145516D01*
X118884300Y-121154696D01*
X118884300Y-122856967D01*
X118427900Y-122856967D01*
X118427900Y-121155277D01*
X118423712Y-121142387D01*
X118422006Y-121141148D01*
X118417007Y-121140662D01*
X118406207Y-121141969D01*
X118397473Y-121143826D01*
X118198165Y-121205140D01*
X118189893Y-121208516D01*
X118004596Y-121304156D01*
X117997049Y-121308945D01*
X117831613Y-121435888D01*
X117825050Y-121441923D01*
X117684704Y-121596161D01*
X117679301Y-121603280D01*
X117568492Y-121779923D01*
X117564436Y-121787884D01*
X117486658Y-121981363D01*
X117484079Y-121989905D01*
X117441631Y-122194878D01*
X117440669Y-122202184D01*
X117437783Y-122252239D01*
X117437700Y-122255127D01*
X117437700Y-122856967D01*
X117081800Y-122856967D01*
X117081800Y-122290073D01*
X117066954Y-122143918D01*
X117018689Y-121989905D01*
X117009809Y-121961567D01*
X117009808Y-121961565D01*
X117008286Y-121956708D01*
X116913173Y-121785120D01*
X116785500Y-121636161D01*
X116700257Y-121570040D01*
X116634511Y-121519042D01*
X116634510Y-121519041D01*
X116630482Y-121515917D01*
X116454452Y-121429299D01*
X116264600Y-121379846D01*
X116259516Y-121379580D01*
X116259512Y-121379579D01*
X116151031Y-121373894D01*
X116068683Y-121369579D01*
X116063645Y-121370341D01*
X116063644Y-121370341D01*
X116024448Y-121376269D01*
X115874702Y-121398916D01*
X115690582Y-121466659D01*
X115523844Y-121570040D01*
X115381300Y-121704838D01*
X115268772Y-121865544D01*
X115190857Y-122045596D01*
X115189814Y-122050589D01*
X115159670Y-122194878D01*
X115150737Y-122237636D01*
X115150400Y-122244067D01*
X115150400Y-123912127D01*
X114541800Y-123912127D01*
X114541800Y-122290073D01*
X114526954Y-122143918D01*
X114478689Y-121989905D01*
X114469809Y-121961567D01*
X114469808Y-121961565D01*
X114468286Y-121956708D01*
X114373173Y-121785120D01*
X114245500Y-121636161D01*
X114160257Y-121570040D01*
X114094511Y-121519042D01*
X114094510Y-121519041D01*
X114090482Y-121515917D01*
X113914452Y-121429299D01*
X113724600Y-121379846D01*
X113719516Y-121379580D01*
X113719512Y-121379579D01*
X113611031Y-121373894D01*
X113528683Y-121369579D01*
X113523645Y-121370341D01*
X113523644Y-121370341D01*
X113484448Y-121376269D01*
X113334702Y-121398916D01*
X113150582Y-121466659D01*
X112983844Y-121570040D01*
X112841300Y-121704838D01*
X112728772Y-121865544D01*
X112650857Y-122045596D01*
X112649814Y-122050589D01*
X112619670Y-122194878D01*
X112610737Y-122237636D01*
X112610400Y-122244067D01*
X112610400Y-123912127D01*
X112254500Y-123912127D01*
X112254500Y-123345233D01*
X112250312Y-123332343D01*
X112246123Y-123329300D01*
X111280233Y-123329300D01*
X111267343Y-123333488D01*
X111264300Y-123337677D01*
X111264300Y-125046923D01*
X110807900Y-125046923D01*
X110807900Y-123345233D01*
X110803712Y-123332343D01*
X110799523Y-123329300D01*
X109833633Y-123329300D01*
X109820743Y-123333488D01*
X109817700Y-123337677D01*
X109817700Y-123916035D01*
X94551600Y-123916035D01*
X94551600Y-122856967D01*
X109817700Y-122856967D01*
X109821888Y-122869857D01*
X109826077Y-122872900D01*
X110791967Y-122872900D01*
X110804857Y-122868712D01*
X110807900Y-122864523D01*
X110807900Y-122856967D01*
X111264300Y-122856967D01*
X111268488Y-122869857D01*
X111272677Y-122872900D01*
X112238567Y-122872900D01*
X112251457Y-122868712D01*
X112254500Y-122864523D01*
X112254500Y-122286165D01*
X112254300Y-122281681D01*
X112240489Y-122126926D01*
X112238909Y-122118147D01*
X112183884Y-121917011D01*
X112180769Y-121908634D01*
X112090996Y-121720421D01*
X112086454Y-121712741D01*
X111964766Y-121543393D01*
X111958935Y-121536637D01*
X111809179Y-121391515D01*
X111802242Y-121385898D01*
X111629161Y-121269591D01*
X111621341Y-121265292D01*
X111430395Y-121181473D01*
X111421929Y-121178624D01*
X111279795Y-121144500D01*
X111266889Y-121145516D01*
X111264300Y-121154696D01*
X111264300Y-122856967D01*
X110807900Y-122856967D01*
X110807900Y-121155277D01*
X110803712Y-121142387D01*
X110802006Y-121141148D01*
X110797007Y-121140662D01*
X110786207Y-121141969D01*
X110777473Y-121143826D01*
X110578165Y-121205140D01*
X110569893Y-121208516D01*
X110384596Y-121304156D01*
X110377049Y-121308945D01*
X110211613Y-121435888D01*
X110205050Y-121441923D01*
X110064704Y-121596161D01*
X110059301Y-121603280D01*
X109948492Y-121779923D01*
X109944436Y-121787884D01*
X109866658Y-121981363D01*
X109864079Y-121989905D01*
X109821631Y-122194878D01*
X109820669Y-122202184D01*
X109817783Y-122252239D01*
X109817700Y-122255127D01*
X109817700Y-122856967D01*
X94551600Y-122856967D01*
X94551600Y-120367176D01*
X99458601Y-120367176D01*
X99458823Y-120371884D01*
X99461043Y-120395380D01*
X99463653Y-120407275D01*
X99504602Y-120523878D01*
X99511562Y-120537024D01*
X99584164Y-120635321D01*
X99594679Y-120645836D01*
X99692976Y-120718438D01*
X99706122Y-120725398D01*
X99822729Y-120766349D01*
X99834614Y-120768957D01*
X99858100Y-120771177D01*
X99862841Y-120771400D01*
X100635867Y-120771400D01*
X100648757Y-120767212D01*
X100651800Y-120763023D01*
X100651800Y-120755466D01*
X101108200Y-120755466D01*
X101112388Y-120768356D01*
X101116577Y-120771399D01*
X101897176Y-120771399D01*
X101901884Y-120771177D01*
X101925380Y-120768957D01*
X101937275Y-120766347D01*
X102053878Y-120725398D01*
X102067024Y-120718438D01*
X102165321Y-120645836D01*
X102175836Y-120635321D01*
X102248438Y-120537024D01*
X102255398Y-120523878D01*
X102296349Y-120407271D01*
X102298957Y-120395386D01*
X102301177Y-120371900D01*
X102301400Y-120367159D01*
X102301400Y-120357176D01*
X112158601Y-120357176D01*
X112158823Y-120361884D01*
X112161043Y-120385380D01*
X112163653Y-120397275D01*
X112204602Y-120513878D01*
X112211562Y-120527024D01*
X112284164Y-120625321D01*
X112294679Y-120635836D01*
X112392976Y-120708438D01*
X112406122Y-120715398D01*
X112522729Y-120756349D01*
X112534614Y-120758957D01*
X112558100Y-120761177D01*
X112562841Y-120761400D01*
X113335867Y-120761400D01*
X113348757Y-120757212D01*
X113351800Y-120753023D01*
X113351800Y-120745466D01*
X113808200Y-120745466D01*
X113812388Y-120758356D01*
X113816577Y-120761399D01*
X114597176Y-120761399D01*
X114601884Y-120761177D01*
X114625380Y-120758957D01*
X114637275Y-120756347D01*
X114753878Y-120715398D01*
X114767024Y-120708438D01*
X114865321Y-120635836D01*
X114875836Y-120625321D01*
X114948438Y-120527024D01*
X114955398Y-120513878D01*
X114996349Y-120397271D01*
X114998957Y-120385386D01*
X115001177Y-120361900D01*
X115001400Y-120357159D01*
X115001400Y-120102127D01*
X121500400Y-120102127D01*
X121515246Y-120248282D01*
X121544494Y-120341611D01*
X121561938Y-120397275D01*
X121573914Y-120435492D01*
X121669027Y-120607080D01*
X121672344Y-120610950D01*
X121779009Y-120735398D01*
X121796700Y-120756039D01*
X121800730Y-120759165D01*
X121930252Y-120859632D01*
X121951718Y-120876283D01*
X122127748Y-120962901D01*
X122132676Y-120964185D01*
X122132677Y-120964185D01*
X122133629Y-120964433D01*
X122317600Y-121012354D01*
X122322684Y-121012620D01*
X122322688Y-121012621D01*
X122431169Y-121018306D01*
X122513517Y-121022621D01*
X122518555Y-121021859D01*
X122518556Y-121021859D01*
X122565977Y-121014687D01*
X122707498Y-120993284D01*
X122891618Y-120925541D01*
X123058356Y-120822160D01*
X123200900Y-120687362D01*
X123313428Y-120526656D01*
X123386768Y-120357176D01*
X123389317Y-120351286D01*
X123389317Y-120351285D01*
X123391343Y-120346604D01*
X123407891Y-120267397D01*
X123430674Y-120158343D01*
X123430675Y-120158337D01*
X123431463Y-120154564D01*
X123431800Y-120148133D01*
X123431800Y-120102127D01*
X124040400Y-120102127D01*
X124055246Y-120248282D01*
X124084494Y-120341611D01*
X124101938Y-120397275D01*
X124113914Y-120435492D01*
X124209027Y-120607080D01*
X124212344Y-120610950D01*
X124319009Y-120735398D01*
X124336700Y-120756039D01*
X124340730Y-120759165D01*
X124470252Y-120859632D01*
X124491718Y-120876283D01*
X124667748Y-120962901D01*
X124672676Y-120964185D01*
X124672677Y-120964185D01*
X124673629Y-120964433D01*
X124857600Y-121012354D01*
X124862684Y-121012620D01*
X124862688Y-121012621D01*
X124971169Y-121018306D01*
X125053517Y-121022621D01*
X125058555Y-121021859D01*
X125058556Y-121021859D01*
X125105977Y-121014687D01*
X125247498Y-120993284D01*
X125431618Y-120925541D01*
X125598356Y-120822160D01*
X125740900Y-120687362D01*
X125853428Y-120526656D01*
X125926768Y-120357176D01*
X125929317Y-120351286D01*
X125929317Y-120351285D01*
X125931343Y-120346604D01*
X125947891Y-120267397D01*
X125970674Y-120158343D01*
X125970675Y-120158337D01*
X125971463Y-120154564D01*
X125971800Y-120148133D01*
X125971800Y-120102127D01*
X126580400Y-120102127D01*
X126595246Y-120248282D01*
X126624494Y-120341611D01*
X126641938Y-120397275D01*
X126653914Y-120435492D01*
X126749027Y-120607080D01*
X126752344Y-120610950D01*
X126859009Y-120735398D01*
X126876700Y-120756039D01*
X126880730Y-120759165D01*
X127010252Y-120859632D01*
X127031718Y-120876283D01*
X127207748Y-120962901D01*
X127212676Y-120964185D01*
X127212677Y-120964185D01*
X127213629Y-120964433D01*
X127397600Y-121012354D01*
X127402684Y-121012620D01*
X127402688Y-121012621D01*
X127511169Y-121018306D01*
X127593517Y-121022621D01*
X127598555Y-121021859D01*
X127598556Y-121021859D01*
X127645977Y-121014687D01*
X127787498Y-120993284D01*
X127971618Y-120925541D01*
X128138356Y-120822160D01*
X128280900Y-120687362D01*
X128393428Y-120526656D01*
X128466768Y-120357176D01*
X128469317Y-120351286D01*
X128469317Y-120351285D01*
X128471343Y-120346604D01*
X128487891Y-120267397D01*
X128510674Y-120158343D01*
X128510675Y-120158337D01*
X128511463Y-120154564D01*
X128511800Y-120148133D01*
X128511800Y-120102127D01*
X129120400Y-120102127D01*
X129135246Y-120248282D01*
X129164494Y-120341611D01*
X129181938Y-120397275D01*
X129193914Y-120435492D01*
X129289027Y-120607080D01*
X129292344Y-120610950D01*
X129399009Y-120735398D01*
X129416700Y-120756039D01*
X129420730Y-120759165D01*
X129550252Y-120859632D01*
X129571718Y-120876283D01*
X129747748Y-120962901D01*
X129752676Y-120964185D01*
X129752677Y-120964185D01*
X129753629Y-120964433D01*
X129937600Y-121012354D01*
X129942684Y-121012620D01*
X129942688Y-121012621D01*
X130051169Y-121018306D01*
X130133517Y-121022621D01*
X130138555Y-121021859D01*
X130138556Y-121021859D01*
X130185977Y-121014687D01*
X130327498Y-120993284D01*
X130511618Y-120925541D01*
X130678356Y-120822160D01*
X130820900Y-120687362D01*
X130933428Y-120526656D01*
X131006768Y-120357176D01*
X131009317Y-120351286D01*
X131009317Y-120351285D01*
X131011343Y-120346604D01*
X131027891Y-120267397D01*
X131050674Y-120158343D01*
X131050675Y-120158337D01*
X131051463Y-120154564D01*
X131051800Y-120148133D01*
X131051800Y-118480073D01*
X131036954Y-118333918D01*
X130983918Y-118164679D01*
X130979809Y-118151567D01*
X130979808Y-118151565D01*
X130978286Y-118146708D01*
X130921161Y-118043651D01*
X130885644Y-117979578D01*
X130883173Y-117975120D01*
X130755500Y-117826161D01*
X130666801Y-117757359D01*
X130604511Y-117709042D01*
X130604510Y-117709041D01*
X130600482Y-117705917D01*
X130424452Y-117619299D01*
X130418579Y-117617769D01*
X130397387Y-117612249D01*
X130234600Y-117569846D01*
X130229516Y-117569580D01*
X130229512Y-117569579D01*
X130114382Y-117563546D01*
X130038683Y-117559579D01*
X130033645Y-117560341D01*
X130033644Y-117560341D01*
X130008141Y-117564198D01*
X129844702Y-117588916D01*
X129660582Y-117656659D01*
X129493844Y-117760040D01*
X129351300Y-117894838D01*
X129348375Y-117899016D01*
X129247100Y-118043651D01*
X129238772Y-118055544D01*
X129160857Y-118235596D01*
X129159814Y-118240589D01*
X129121739Y-118422841D01*
X129120737Y-118427636D01*
X129120400Y-118434067D01*
X129120400Y-120102127D01*
X128511800Y-120102127D01*
X128511800Y-118480073D01*
X128496954Y-118333918D01*
X128443918Y-118164679D01*
X128439809Y-118151567D01*
X128439808Y-118151565D01*
X128438286Y-118146708D01*
X128381161Y-118043651D01*
X128345644Y-117979578D01*
X128343173Y-117975120D01*
X128215500Y-117826161D01*
X128126801Y-117757359D01*
X128064511Y-117709042D01*
X128064510Y-117709041D01*
X128060482Y-117705917D01*
X127884452Y-117619299D01*
X127878579Y-117617769D01*
X127857387Y-117612249D01*
X127694600Y-117569846D01*
X127689516Y-117569580D01*
X127689512Y-117569579D01*
X127574382Y-117563546D01*
X127498683Y-117559579D01*
X127493645Y-117560341D01*
X127493644Y-117560341D01*
X127468141Y-117564198D01*
X127304702Y-117588916D01*
X127120582Y-117656659D01*
X126953844Y-117760040D01*
X126811300Y-117894838D01*
X126808375Y-117899016D01*
X126707100Y-118043651D01*
X126698772Y-118055544D01*
X126620857Y-118235596D01*
X126619814Y-118240589D01*
X126581739Y-118422841D01*
X126580737Y-118427636D01*
X126580400Y-118434067D01*
X126580400Y-120102127D01*
X125971800Y-120102127D01*
X125971800Y-118480073D01*
X125956954Y-118333918D01*
X125903918Y-118164679D01*
X125899809Y-118151567D01*
X125899808Y-118151565D01*
X125898286Y-118146708D01*
X125841161Y-118043651D01*
X125805644Y-117979578D01*
X125803173Y-117975120D01*
X125675500Y-117826161D01*
X125586801Y-117757359D01*
X125524511Y-117709042D01*
X125524510Y-117709041D01*
X125520482Y-117705917D01*
X125344452Y-117619299D01*
X125338579Y-117617769D01*
X125317387Y-117612249D01*
X125154600Y-117569846D01*
X125149516Y-117569580D01*
X125149512Y-117569579D01*
X125034382Y-117563546D01*
X124958683Y-117559579D01*
X124953645Y-117560341D01*
X124953644Y-117560341D01*
X124928141Y-117564198D01*
X124764702Y-117588916D01*
X124580582Y-117656659D01*
X124413844Y-117760040D01*
X124271300Y-117894838D01*
X124268375Y-117899016D01*
X124167100Y-118043651D01*
X124158772Y-118055544D01*
X124080857Y-118235596D01*
X124079814Y-118240589D01*
X124041739Y-118422841D01*
X124040737Y-118427636D01*
X124040400Y-118434067D01*
X124040400Y-120102127D01*
X123431800Y-120102127D01*
X123431800Y-118480073D01*
X123416954Y-118333918D01*
X123363918Y-118164679D01*
X123359809Y-118151567D01*
X123359808Y-118151565D01*
X123358286Y-118146708D01*
X123301161Y-118043651D01*
X123265644Y-117979578D01*
X123263173Y-117975120D01*
X123135500Y-117826161D01*
X123046801Y-117757359D01*
X122984511Y-117709042D01*
X122984510Y-117709041D01*
X122980482Y-117705917D01*
X122804452Y-117619299D01*
X122798579Y-117617769D01*
X122777387Y-117612249D01*
X122614600Y-117569846D01*
X122609516Y-117569580D01*
X122609512Y-117569579D01*
X122494382Y-117563546D01*
X122418683Y-117559579D01*
X122413645Y-117560341D01*
X122413644Y-117560341D01*
X122388141Y-117564198D01*
X122224702Y-117588916D01*
X122040582Y-117656659D01*
X121873844Y-117760040D01*
X121731300Y-117894838D01*
X121728375Y-117899016D01*
X121627100Y-118043651D01*
X121618772Y-118055544D01*
X121540857Y-118235596D01*
X121539814Y-118240589D01*
X121501739Y-118422841D01*
X121500737Y-118427636D01*
X121500400Y-118434067D01*
X121500400Y-120102127D01*
X115001400Y-120102127D01*
X115001400Y-119634133D01*
X114997212Y-119621243D01*
X114993023Y-119618200D01*
X113824133Y-119618200D01*
X113811243Y-119622388D01*
X113808200Y-119626577D01*
X113808200Y-120745466D01*
X113351800Y-120745466D01*
X113351800Y-119634133D01*
X113347612Y-119621243D01*
X113343423Y-119618200D01*
X112174534Y-119618200D01*
X112161644Y-119622388D01*
X112158601Y-119626577D01*
X112158601Y-120357176D01*
X102301400Y-120357176D01*
X102301400Y-119644133D01*
X102297212Y-119631243D01*
X102293023Y-119628200D01*
X101124133Y-119628200D01*
X101111243Y-119632388D01*
X101108200Y-119636577D01*
X101108200Y-120755466D01*
X100651800Y-120755466D01*
X100651800Y-119644133D01*
X100647612Y-119631243D01*
X100643423Y-119628200D01*
X99474534Y-119628200D01*
X99461644Y-119632388D01*
X99458601Y-119636577D01*
X99458601Y-120367176D01*
X94551600Y-120367176D01*
X94551600Y-119155867D01*
X99458600Y-119155867D01*
X99462788Y-119168757D01*
X99466977Y-119171800D01*
X100635867Y-119171800D01*
X100648757Y-119167612D01*
X100651800Y-119163423D01*
X100651800Y-119155867D01*
X101108200Y-119155867D01*
X101112388Y-119168757D01*
X101116577Y-119171800D01*
X102285466Y-119171800D01*
X102298356Y-119167612D01*
X102301399Y-119163423D01*
X102301399Y-119145867D01*
X112158600Y-119145867D01*
X112162788Y-119158757D01*
X112166977Y-119161800D01*
X113335867Y-119161800D01*
X113348757Y-119157612D01*
X113351800Y-119153423D01*
X113351800Y-119145867D01*
X113808200Y-119145867D01*
X113812388Y-119158757D01*
X113816577Y-119161800D01*
X114985466Y-119161800D01*
X114998356Y-119157612D01*
X115001399Y-119153423D01*
X115001399Y-118422824D01*
X115001177Y-118418116D01*
X114998957Y-118394620D01*
X114996347Y-118382725D01*
X114955398Y-118266122D01*
X114948438Y-118252976D01*
X114875836Y-118154679D01*
X114865321Y-118144164D01*
X114767024Y-118071562D01*
X114753878Y-118064602D01*
X114637271Y-118023651D01*
X114625386Y-118021043D01*
X114601900Y-118018823D01*
X114597159Y-118018600D01*
X113824133Y-118018600D01*
X113811243Y-118022788D01*
X113808200Y-118026977D01*
X113808200Y-119145867D01*
X113351800Y-119145867D01*
X113351800Y-118034534D01*
X113347612Y-118021644D01*
X113343423Y-118018601D01*
X112562824Y-118018601D01*
X112558116Y-118018823D01*
X112534620Y-118021043D01*
X112522725Y-118023653D01*
X112406122Y-118064602D01*
X112392976Y-118071562D01*
X112294679Y-118144164D01*
X112284164Y-118154679D01*
X112211562Y-118252976D01*
X112204602Y-118266122D01*
X112163651Y-118382729D01*
X112161043Y-118394614D01*
X112158823Y-118418100D01*
X112158600Y-118422841D01*
X112158600Y-119145867D01*
X102301399Y-119145867D01*
X102301399Y-118432824D01*
X102301177Y-118428116D01*
X102298957Y-118404620D01*
X102296347Y-118392725D01*
X102255398Y-118276122D01*
X102248438Y-118262976D01*
X102175836Y-118164679D01*
X102165321Y-118154164D01*
X102067024Y-118081562D01*
X102053878Y-118074602D01*
X101937271Y-118033651D01*
X101925386Y-118031043D01*
X101901900Y-118028823D01*
X101897159Y-118028600D01*
X101124133Y-118028600D01*
X101111243Y-118032788D01*
X101108200Y-118036977D01*
X101108200Y-119155867D01*
X100651800Y-119155867D01*
X100651800Y-118044534D01*
X100647612Y-118031644D01*
X100643423Y-118028601D01*
X99862824Y-118028601D01*
X99858116Y-118028823D01*
X99834620Y-118031043D01*
X99822725Y-118033653D01*
X99706122Y-118074602D01*
X99692976Y-118081562D01*
X99594679Y-118154164D01*
X99584164Y-118164679D01*
X99511562Y-118262976D01*
X99504602Y-118276122D01*
X99463651Y-118392729D01*
X99461043Y-118404614D01*
X99458823Y-118428100D01*
X99458600Y-118432841D01*
X99458600Y-119155867D01*
X94551600Y-119155867D01*
X94551600Y-116300000D01*
X99606454Y-116300000D01*
X99625802Y-116521149D01*
X99626940Y-116525394D01*
X99626940Y-116525397D01*
X99628481Y-116531149D01*
X99683258Y-116735578D01*
X99777077Y-116936773D01*
X99779596Y-116940370D01*
X99900835Y-117113518D01*
X99904407Y-117118620D01*
X100061380Y-117275593D01*
X100064974Y-117278110D01*
X100064977Y-117278112D01*
X100152303Y-117339258D01*
X100243227Y-117402923D01*
X100444422Y-117496742D01*
X100533984Y-117520740D01*
X100654603Y-117553060D01*
X100654606Y-117553060D01*
X100658851Y-117554198D01*
X100880000Y-117573546D01*
X101101149Y-117554198D01*
X101105394Y-117553060D01*
X101105397Y-117553060D01*
X101226016Y-117520740D01*
X101315578Y-117496742D01*
X101516773Y-117402923D01*
X101607697Y-117339258D01*
X101695023Y-117278112D01*
X101695026Y-117278110D01*
X101698620Y-117275593D01*
X101855593Y-117118620D01*
X101859166Y-117113518D01*
X101980404Y-116940370D01*
X101982923Y-116936773D01*
X102076742Y-116735578D01*
X102131519Y-116531149D01*
X102133060Y-116525397D01*
X102133060Y-116525394D01*
X102134198Y-116521149D01*
X102153546Y-116300000D01*
X102152671Y-116290000D01*
X112306454Y-116290000D01*
X112325802Y-116511149D01*
X112326940Y-116515394D01*
X112326940Y-116515397D01*
X112328481Y-116521149D01*
X112383258Y-116725578D01*
X112477077Y-116926773D01*
X112479596Y-116930370D01*
X112601007Y-117103764D01*
X112604407Y-117108620D01*
X112761380Y-117265593D01*
X112764974Y-117268110D01*
X112764977Y-117268112D01*
X112808169Y-117298355D01*
X112943227Y-117392923D01*
X113144422Y-117486742D01*
X113280931Y-117523319D01*
X113354603Y-117543060D01*
X113354606Y-117543060D01*
X113358851Y-117544198D01*
X113580000Y-117563546D01*
X113801149Y-117544198D01*
X113805394Y-117543060D01*
X113805397Y-117543060D01*
X113879069Y-117523319D01*
X114015578Y-117486742D01*
X114216773Y-117392923D01*
X114351831Y-117298355D01*
X114395023Y-117268112D01*
X114395026Y-117268110D01*
X114398620Y-117265593D01*
X114555593Y-117108620D01*
X114558994Y-117103764D01*
X114680404Y-116930370D01*
X114682923Y-116926773D01*
X114776742Y-116725578D01*
X114831519Y-116521149D01*
X114833060Y-116515397D01*
X114833060Y-116515394D01*
X114834198Y-116511149D01*
X114853546Y-116290000D01*
X114834198Y-116068851D01*
X114824161Y-116031390D01*
X114813319Y-115990931D01*
X114776742Y-115854422D01*
X114682923Y-115653227D01*
X114569597Y-115491380D01*
X114558112Y-115474977D01*
X114558110Y-115474974D01*
X114555593Y-115471380D01*
X114398620Y-115314407D01*
X114395026Y-115311890D01*
X114395023Y-115311888D01*
X114249306Y-115209857D01*
X114216773Y-115187077D01*
X114015578Y-115093258D01*
X113874361Y-115055419D01*
X113805397Y-115036940D01*
X113805394Y-115036940D01*
X113801149Y-115035802D01*
X113580000Y-115016454D01*
X113358851Y-115035802D01*
X113354606Y-115036940D01*
X113354603Y-115036940D01*
X113285639Y-115055419D01*
X113144422Y-115093258D01*
X112943227Y-115187077D01*
X112910694Y-115209857D01*
X112764977Y-115311888D01*
X112764974Y-115311890D01*
X112761380Y-115314407D01*
X112604407Y-115471380D01*
X112601890Y-115474974D01*
X112601888Y-115474977D01*
X112590403Y-115491380D01*
X112477077Y-115653227D01*
X112383258Y-115854422D01*
X112346681Y-115990931D01*
X112335840Y-116031390D01*
X112325802Y-116068851D01*
X112306454Y-116290000D01*
X102152671Y-116290000D01*
X102134198Y-116078851D01*
X102132693Y-116073232D01*
X102100578Y-115953381D01*
X102076742Y-115864422D01*
X101982923Y-115663227D01*
X101900522Y-115545546D01*
X101858112Y-115484977D01*
X101858110Y-115484974D01*
X101855593Y-115481380D01*
X101698620Y-115324407D01*
X101695026Y-115321890D01*
X101695023Y-115321888D01*
X101566568Y-115231944D01*
X101516773Y-115197077D01*
X101315578Y-115103258D01*
X101138470Y-115055802D01*
X101105397Y-115046940D01*
X101105394Y-115046940D01*
X101101149Y-115045802D01*
X100880000Y-115026454D01*
X100658851Y-115045802D01*
X100654606Y-115046940D01*
X100654603Y-115046940D01*
X100621530Y-115055802D01*
X100444422Y-115103258D01*
X100243227Y-115197077D01*
X100193432Y-115231944D01*
X100064977Y-115321888D01*
X100064974Y-115321890D01*
X100061380Y-115324407D01*
X99904407Y-115481380D01*
X99901890Y-115484974D01*
X99901888Y-115484977D01*
X99859478Y-115545546D01*
X99777077Y-115663227D01*
X99683258Y-115864422D01*
X99659422Y-115953381D01*
X99627308Y-116073232D01*
X99625802Y-116078851D01*
X99606454Y-116300000D01*
X94551600Y-116300000D01*
X94551600Y-112920000D01*
X99374859Y-112920000D01*
X99395070Y-113165829D01*
X99396075Y-113169830D01*
X99396076Y-113169836D01*
X99412355Y-113234644D01*
X99455159Y-113405055D01*
X99553514Y-113631256D01*
X99687492Y-113838355D01*
X99690266Y-113841404D01*
X99690271Y-113841410D01*
X99836910Y-114002562D01*
X99853496Y-114020790D01*
X99856735Y-114023348D01*
X99856736Y-114023349D01*
X99909068Y-114064678D01*
X100047068Y-114173664D01*
X100050682Y-114175659D01*
X100050685Y-114175661D01*
X100259395Y-114290875D01*
X100259400Y-114290877D01*
X100263008Y-114292869D01*
X100495518Y-114375206D01*
X100499581Y-114375930D01*
X100499582Y-114375930D01*
X100538611Y-114382882D01*
X100738354Y-114418461D01*
X100742483Y-114418511D01*
X100742489Y-114418512D01*
X100860142Y-114419949D01*
X100984993Y-114421475D01*
X100989075Y-114420850D01*
X100989080Y-114420850D01*
X101178781Y-114391821D01*
X101228813Y-114384165D01*
X101463266Y-114307534D01*
X101659185Y-114205545D01*
X101678395Y-114195545D01*
X101678397Y-114195544D01*
X101682054Y-114193640D01*
X101685348Y-114191167D01*
X101685354Y-114191163D01*
X101876000Y-114048022D01*
X101879303Y-114045542D01*
X101882153Y-114042560D01*
X102046864Y-113870199D01*
X102046867Y-113870195D01*
X102049714Y-113867216D01*
X102188712Y-113663452D01*
X102292564Y-113439722D01*
X102358481Y-113202035D01*
X102358920Y-113197928D01*
X102384253Y-112960884D01*
X102384253Y-112960881D01*
X102384692Y-112956774D01*
X102381995Y-112910000D01*
X112074859Y-112910000D01*
X112095070Y-113155829D01*
X112096075Y-113159830D01*
X112096076Y-113159836D01*
X112108156Y-113207928D01*
X112155159Y-113395055D01*
X112253514Y-113621256D01*
X112387492Y-113828355D01*
X112390266Y-113831404D01*
X112390271Y-113831410D01*
X112489377Y-113940325D01*
X112553496Y-114010790D01*
X112556735Y-114013348D01*
X112556736Y-114013349D01*
X112600640Y-114048022D01*
X112747068Y-114163664D01*
X112750682Y-114165659D01*
X112750685Y-114165661D01*
X112959395Y-114280875D01*
X112959400Y-114280877D01*
X112963008Y-114282869D01*
X113195518Y-114365206D01*
X113199581Y-114365930D01*
X113199582Y-114365930D01*
X113238611Y-114372882D01*
X113438354Y-114408461D01*
X113442483Y-114408511D01*
X113442489Y-114408512D01*
X113560142Y-114409949D01*
X113684993Y-114411475D01*
X113689075Y-114410850D01*
X113689080Y-114410850D01*
X113878781Y-114381821D01*
X113928813Y-114374165D01*
X114037070Y-114338781D01*
X114159338Y-114298818D01*
X114159339Y-114298817D01*
X114163266Y-114297534D01*
X114249864Y-114252454D01*
X114378395Y-114185545D01*
X114378397Y-114185544D01*
X114382054Y-114183640D01*
X114385348Y-114181167D01*
X114385354Y-114181163D01*
X114576000Y-114038022D01*
X114579303Y-114035542D01*
X114590955Y-114023349D01*
X114746864Y-113860199D01*
X114746867Y-113860195D01*
X114749714Y-113857216D01*
X114888712Y-113653452D01*
X114992564Y-113429722D01*
X115058481Y-113192035D01*
X115060653Y-113171714D01*
X115084253Y-112950884D01*
X115084253Y-112950881D01*
X115084692Y-112946774D01*
X115070493Y-112700525D01*
X115069587Y-112696504D01*
X115017173Y-112463924D01*
X115017172Y-112463920D01*
X115016266Y-112459901D01*
X114923468Y-112231366D01*
X114921317Y-112227856D01*
X114921314Y-112227850D01*
X114796745Y-112024573D01*
X114796744Y-112024572D01*
X114794589Y-112021055D01*
X114689035Y-111899200D01*
X114635793Y-111837736D01*
X114635792Y-111837735D01*
X114633092Y-111834618D01*
X114629924Y-111831988D01*
X114629919Y-111831983D01*
X114446487Y-111679696D01*
X114446486Y-111679695D01*
X114443313Y-111677061D01*
X114230350Y-111552615D01*
X113999921Y-111464623D01*
X113995878Y-111463800D01*
X113995873Y-111463799D01*
X113765519Y-111416933D01*
X113758215Y-111415447D01*
X113511722Y-111406408D01*
X113421851Y-111417921D01*
X113271152Y-111437226D01*
X113271148Y-111437227D01*
X113267064Y-111437750D01*
X113030809Y-111508630D01*
X112809303Y-111617144D01*
X112805949Y-111619536D01*
X112805948Y-111619537D01*
X112697264Y-111697061D01*
X112608495Y-111760379D01*
X112588425Y-111780379D01*
X112457190Y-111911157D01*
X112433777Y-111934488D01*
X112289842Y-112134795D01*
X112288018Y-112138486D01*
X112288016Y-112138489D01*
X112243851Y-112227850D01*
X112180555Y-112355921D01*
X112179356Y-112359868D01*
X112179355Y-112359870D01*
X112134797Y-112506529D01*
X112108851Y-112591926D01*
X112076656Y-112836474D01*
X112074859Y-112910000D01*
X102381995Y-112910000D01*
X102370493Y-112710525D01*
X102369587Y-112706504D01*
X102317173Y-112473924D01*
X102317172Y-112473920D01*
X102316266Y-112469901D01*
X102223468Y-112241366D01*
X102221317Y-112237856D01*
X102221314Y-112237850D01*
X102096745Y-112034573D01*
X102096744Y-112034572D01*
X102094589Y-112031055D01*
X101981201Y-111900156D01*
X101935793Y-111847736D01*
X101935792Y-111847735D01*
X101933092Y-111844618D01*
X101929924Y-111841988D01*
X101929919Y-111841983D01*
X101746487Y-111689696D01*
X101746486Y-111689695D01*
X101743313Y-111687061D01*
X101530350Y-111562615D01*
X101438765Y-111527642D01*
X101326108Y-111484623D01*
X101299921Y-111474623D01*
X101295878Y-111473800D01*
X101295873Y-111473799D01*
X101065519Y-111426933D01*
X101058215Y-111425447D01*
X100811722Y-111416408D01*
X100694403Y-111431437D01*
X100571152Y-111447226D01*
X100571148Y-111447227D01*
X100567064Y-111447750D01*
X100330809Y-111518630D01*
X100109303Y-111627144D01*
X100105949Y-111629536D01*
X100105948Y-111629537D01*
X99918431Y-111763292D01*
X99908495Y-111770379D01*
X99898460Y-111780379D01*
X99767225Y-111911157D01*
X99733777Y-111944488D01*
X99589842Y-112144795D01*
X99588018Y-112148486D01*
X99588016Y-112148489D01*
X99583074Y-112158489D01*
X99480555Y-112365921D01*
X99479356Y-112369868D01*
X99479355Y-112369870D01*
X99418895Y-112568867D01*
X99408851Y-112601926D01*
X99406995Y-112616022D01*
X99377973Y-112836474D01*
X99376656Y-112846474D01*
X99376344Y-112859241D01*
X99375169Y-112907331D01*
X99374859Y-112920000D01*
X94551600Y-112920000D01*
X94551600Y-108000000D01*
X99606454Y-108000000D01*
X99625802Y-108221149D01*
X99626940Y-108225394D01*
X99626940Y-108225397D01*
X99628481Y-108231149D01*
X99683258Y-108435578D01*
X99777077Y-108636773D01*
X99779596Y-108640370D01*
X99899580Y-108811726D01*
X99904407Y-108818620D01*
X100061380Y-108975593D01*
X100064974Y-108978110D01*
X100064977Y-108978112D01*
X100079259Y-108988112D01*
X100243227Y-109102923D01*
X100444422Y-109196742D01*
X100580931Y-109233319D01*
X100654603Y-109253060D01*
X100654606Y-109253060D01*
X100658851Y-109254198D01*
X100880000Y-109273546D01*
X101101149Y-109254198D01*
X101105394Y-109253060D01*
X101105397Y-109253060D01*
X101179069Y-109233319D01*
X101315578Y-109196742D01*
X101516773Y-109102923D01*
X101680741Y-108988112D01*
X101695023Y-108978112D01*
X101695026Y-108978110D01*
X101698620Y-108975593D01*
X101855593Y-108818620D01*
X101860421Y-108811726D01*
X101980404Y-108640370D01*
X101982923Y-108636773D01*
X102076742Y-108435578D01*
X102131519Y-108231149D01*
X102133060Y-108225397D01*
X102133060Y-108225394D01*
X102134198Y-108221149D01*
X102153546Y-108000000D01*
X102152671Y-107990000D01*
X112306454Y-107990000D01*
X112325802Y-108211149D01*
X112326940Y-108215394D01*
X112326940Y-108215397D01*
X112328481Y-108221149D01*
X112383258Y-108425578D01*
X112477077Y-108626773D01*
X112604407Y-108808620D01*
X112761380Y-108965593D01*
X112764974Y-108968110D01*
X112764977Y-108968112D01*
X112852303Y-109029258D01*
X112943227Y-109092923D01*
X113144422Y-109186742D01*
X113280931Y-109223319D01*
X113354603Y-109243060D01*
X113354606Y-109243060D01*
X113358851Y-109244198D01*
X113580000Y-109263546D01*
X113801149Y-109244198D01*
X113805394Y-109243060D01*
X113805397Y-109243060D01*
X113879069Y-109223319D01*
X114015578Y-109186742D01*
X114019561Y-109184885D01*
X114019563Y-109184884D01*
X114078395Y-109157450D01*
X114140106Y-109149872D01*
X114192046Y-109177489D01*
X116211004Y-111196448D01*
X118219735Y-113205179D01*
X118247961Y-113260577D01*
X118249200Y-113276314D01*
X118249200Y-115545546D01*
X118256773Y-115568852D01*
X118260457Y-115584198D01*
X118264291Y-115608406D01*
X118267884Y-115615457D01*
X118267884Y-115615458D01*
X118275416Y-115630240D01*
X118281455Y-115644818D01*
X118289030Y-115668132D01*
X118293686Y-115674540D01*
X118303435Y-115687958D01*
X118311681Y-115701413D01*
X118322808Y-115723251D01*
X118345734Y-115746177D01*
X119661022Y-117061466D01*
X119661026Y-117061469D01*
X119683949Y-117084392D01*
X119691001Y-117087985D01*
X119691002Y-117087986D01*
X119705781Y-117095516D01*
X119719233Y-117103759D01*
X119739068Y-117118170D01*
X119750013Y-117121726D01*
X119762376Y-117125743D01*
X119776962Y-117131785D01*
X119798794Y-117142909D01*
X119806612Y-117144147D01*
X119806614Y-117144148D01*
X119823000Y-117146743D01*
X119838343Y-117150426D01*
X119850192Y-117154275D01*
X119854124Y-117155553D01*
X119854125Y-117155553D01*
X119861653Y-117157999D01*
X119894072Y-117157999D01*
X119894076Y-117158000D01*
X131780887Y-117158000D01*
X131840018Y-117177213D01*
X131852022Y-117187465D01*
X132185297Y-117520740D01*
X132213523Y-117576138D01*
X132203797Y-117637546D01*
X132167177Y-117677371D01*
X132033844Y-117760040D01*
X131891300Y-117894838D01*
X131888375Y-117899016D01*
X131787100Y-118043651D01*
X131778772Y-118055544D01*
X131700857Y-118235596D01*
X131699814Y-118240589D01*
X131661739Y-118422841D01*
X131660737Y-118427636D01*
X131660400Y-118434067D01*
X131660400Y-120102127D01*
X131675246Y-120248282D01*
X131704494Y-120341611D01*
X131721938Y-120397275D01*
X131733914Y-120435492D01*
X131829027Y-120607080D01*
X131832344Y-120610950D01*
X131939009Y-120735398D01*
X131956700Y-120756039D01*
X131960730Y-120759165D01*
X132090252Y-120859632D01*
X132111718Y-120876283D01*
X132287748Y-120962901D01*
X132292676Y-120964185D01*
X132292677Y-120964185D01*
X132293629Y-120964433D01*
X132477600Y-121012354D01*
X132482684Y-121012620D01*
X132482688Y-121012621D01*
X132591169Y-121018306D01*
X132673517Y-121022621D01*
X132678555Y-121021859D01*
X132678556Y-121021859D01*
X132725977Y-121014687D01*
X132867498Y-120993284D01*
X133051618Y-120925541D01*
X133218356Y-120822160D01*
X133360900Y-120687362D01*
X133473428Y-120526656D01*
X133546768Y-120357176D01*
X133549317Y-120351286D01*
X133549317Y-120351285D01*
X133551343Y-120346604D01*
X133567891Y-120267397D01*
X133590674Y-120158343D01*
X133590675Y-120158337D01*
X133591463Y-120154564D01*
X133591800Y-120148133D01*
X133591800Y-120102127D01*
X134200400Y-120102127D01*
X134215246Y-120248282D01*
X134244494Y-120341611D01*
X134261938Y-120397275D01*
X134273914Y-120435492D01*
X134369027Y-120607080D01*
X134372344Y-120610950D01*
X134479009Y-120735398D01*
X134496700Y-120756039D01*
X134500730Y-120759165D01*
X134630252Y-120859632D01*
X134651718Y-120876283D01*
X134827748Y-120962901D01*
X134832676Y-120964185D01*
X134832677Y-120964185D01*
X134833629Y-120964433D01*
X135017600Y-121012354D01*
X135022684Y-121012620D01*
X135022688Y-121012621D01*
X135131169Y-121018306D01*
X135213517Y-121022621D01*
X135218555Y-121021859D01*
X135218556Y-121021859D01*
X135265977Y-121014687D01*
X135407498Y-120993284D01*
X135591618Y-120925541D01*
X135758356Y-120822160D01*
X135900900Y-120687362D01*
X136013428Y-120526656D01*
X136086768Y-120357176D01*
X136089317Y-120351286D01*
X136089317Y-120351285D01*
X136091343Y-120346604D01*
X136107891Y-120267397D01*
X136130674Y-120158343D01*
X136130675Y-120158337D01*
X136131463Y-120154564D01*
X136131800Y-120148133D01*
X136131800Y-118480073D01*
X136116954Y-118333918D01*
X136063918Y-118164679D01*
X136059809Y-118151567D01*
X136059808Y-118151565D01*
X136058286Y-118146708D01*
X136001161Y-118043651D01*
X135965644Y-117979578D01*
X135963173Y-117975120D01*
X135835500Y-117826161D01*
X135746801Y-117757359D01*
X135684511Y-117709042D01*
X135684510Y-117709041D01*
X135680482Y-117705917D01*
X135504452Y-117619299D01*
X135498579Y-117617769D01*
X135477387Y-117612249D01*
X135314600Y-117569846D01*
X135309516Y-117569580D01*
X135309512Y-117569579D01*
X135194382Y-117563546D01*
X135118683Y-117559579D01*
X135113645Y-117560341D01*
X135113644Y-117560341D01*
X135088141Y-117564198D01*
X134924702Y-117588916D01*
X134740582Y-117656659D01*
X134573844Y-117760040D01*
X134431300Y-117894838D01*
X134428375Y-117899016D01*
X134327100Y-118043651D01*
X134318772Y-118055544D01*
X134240857Y-118235596D01*
X134239814Y-118240589D01*
X134201739Y-118422841D01*
X134200737Y-118427636D01*
X134200400Y-118434067D01*
X134200400Y-120102127D01*
X133591800Y-120102127D01*
X133591800Y-118480073D01*
X133576954Y-118333918D01*
X133523918Y-118164679D01*
X133519809Y-118151567D01*
X133519808Y-118151565D01*
X133518286Y-118146708D01*
X133461161Y-118043651D01*
X133425644Y-117979578D01*
X133423173Y-117975120D01*
X133295500Y-117826161D01*
X133206801Y-117757359D01*
X133144511Y-117709042D01*
X133144510Y-117709041D01*
X133140482Y-117705917D01*
X133089184Y-117680675D01*
X133044611Y-117637329D01*
X133033000Y-117590411D01*
X133033000Y-117321654D01*
X133025427Y-117298348D01*
X133021743Y-117283002D01*
X133019147Y-117266611D01*
X133017909Y-117258794D01*
X133006783Y-117236958D01*
X133000744Y-117222379D01*
X132993170Y-117199068D01*
X132978764Y-117179241D01*
X132970519Y-117165787D01*
X132959392Y-117143949D01*
X132233251Y-116417808D01*
X132211413Y-116406681D01*
X132197958Y-116398435D01*
X132184540Y-116388686D01*
X132184541Y-116388686D01*
X132178132Y-116384030D01*
X132154818Y-116376455D01*
X132140240Y-116370416D01*
X132125458Y-116362884D01*
X132125457Y-116362884D01*
X132118406Y-116359291D01*
X132094198Y-116355457D01*
X132078852Y-116351773D01*
X132055546Y-116344200D01*
X120136314Y-116344200D01*
X120077183Y-116324987D01*
X120065179Y-116314735D01*
X119092465Y-115342022D01*
X119064239Y-115286624D01*
X119063000Y-115270887D01*
X119063000Y-114356578D01*
X122560850Y-114356578D01*
X122575871Y-114543275D01*
X122576835Y-114547199D01*
X122576835Y-114547200D01*
X122608952Y-114677953D01*
X122635608Y-114786477D01*
X122733459Y-115017000D01*
X122735614Y-115020422D01*
X122854908Y-115209857D01*
X122866908Y-115228913D01*
X123032521Y-115416765D01*
X123035640Y-115419327D01*
X123035641Y-115419328D01*
X123115097Y-115484593D01*
X123226037Y-115575721D01*
X123229530Y-115577754D01*
X123229533Y-115577756D01*
X123393569Y-115673227D01*
X123442479Y-115701693D01*
X123446255Y-115703142D01*
X123446254Y-115703142D01*
X123672499Y-115789989D01*
X123672502Y-115789990D01*
X123676277Y-115791439D01*
X123921416Y-115842652D01*
X124171589Y-115854012D01*
X124175607Y-115853547D01*
X124175610Y-115853547D01*
X124416345Y-115825693D01*
X124416349Y-115825692D01*
X124420361Y-115825228D01*
X124661330Y-115757041D01*
X124888298Y-115651204D01*
X125095425Y-115510440D01*
X125277382Y-115338372D01*
X125429488Y-115139426D01*
X125547829Y-114918720D01*
X125589085Y-114798905D01*
X125628046Y-114685752D01*
X125629361Y-114681933D01*
X125671987Y-114435156D01*
X125672157Y-114431424D01*
X125673062Y-114411475D01*
X125673350Y-114405142D01*
X125673350Y-114356578D01*
X127259850Y-114356578D01*
X127274871Y-114543275D01*
X127275835Y-114547199D01*
X127275835Y-114547200D01*
X127307952Y-114677953D01*
X127334608Y-114786477D01*
X127432459Y-115017000D01*
X127434614Y-115020422D01*
X127553908Y-115209857D01*
X127565908Y-115228913D01*
X127731521Y-115416765D01*
X127734640Y-115419327D01*
X127734641Y-115419328D01*
X127814097Y-115484593D01*
X127925037Y-115575721D01*
X127928530Y-115577754D01*
X127928533Y-115577756D01*
X128092569Y-115673227D01*
X128141479Y-115701693D01*
X128145255Y-115703142D01*
X128145254Y-115703142D01*
X128371499Y-115789989D01*
X128371502Y-115789990D01*
X128375277Y-115791439D01*
X128620416Y-115842652D01*
X128870589Y-115854012D01*
X128874607Y-115853547D01*
X128874610Y-115853547D01*
X129115345Y-115825693D01*
X129115349Y-115825692D01*
X129119361Y-115825228D01*
X129360330Y-115757041D01*
X129587298Y-115651204D01*
X129794425Y-115510440D01*
X129976382Y-115338372D01*
X130128488Y-115139426D01*
X130246829Y-114918720D01*
X130288085Y-114798905D01*
X130327046Y-114685752D01*
X130328361Y-114681933D01*
X130370987Y-114435156D01*
X130371157Y-114431424D01*
X130372062Y-114411475D01*
X130372350Y-114405142D01*
X130372350Y-114356578D01*
X131958850Y-114356578D01*
X131973871Y-114543275D01*
X131974835Y-114547199D01*
X131974835Y-114547200D01*
X132006952Y-114677953D01*
X132033608Y-114786477D01*
X132131459Y-115017000D01*
X132133614Y-115020422D01*
X132252908Y-115209857D01*
X132264908Y-115228913D01*
X132430521Y-115416765D01*
X132433640Y-115419327D01*
X132433641Y-115419328D01*
X132513097Y-115484593D01*
X132624037Y-115575721D01*
X132627530Y-115577754D01*
X132627533Y-115577756D01*
X132791569Y-115673227D01*
X132840479Y-115701693D01*
X132844255Y-115703142D01*
X132844254Y-115703142D01*
X133070499Y-115789989D01*
X133070502Y-115789990D01*
X133074277Y-115791439D01*
X133319416Y-115842652D01*
X133569589Y-115854012D01*
X133573607Y-115853547D01*
X133573610Y-115853547D01*
X133814345Y-115825693D01*
X133814349Y-115825692D01*
X133818361Y-115825228D01*
X134059330Y-115757041D01*
X134286298Y-115651204D01*
X134493425Y-115510440D01*
X134675382Y-115338372D01*
X134827488Y-115139426D01*
X134945829Y-114918720D01*
X134987085Y-114798905D01*
X135026046Y-114685752D01*
X135027361Y-114681933D01*
X135069987Y-114435156D01*
X135070157Y-114431424D01*
X135071062Y-114411475D01*
X135071350Y-114405142D01*
X135071350Y-111525622D01*
X135056329Y-111338925D01*
X135038220Y-111265200D01*
X134997557Y-111099650D01*
X134997555Y-111099645D01*
X134996592Y-111095723D01*
X134921754Y-110919416D01*
X134900321Y-110868922D01*
X134900320Y-110868921D01*
X134898741Y-110865200D01*
X134862690Y-110807952D01*
X134767446Y-110656707D01*
X134767444Y-110656704D01*
X134765292Y-110653287D01*
X134599679Y-110465435D01*
X134406163Y-110306479D01*
X134273541Y-110229291D01*
X134193216Y-110182541D01*
X134193215Y-110182540D01*
X134189721Y-110180507D01*
X134046521Y-110125538D01*
X133959701Y-110092211D01*
X133959698Y-110092210D01*
X133955923Y-110090761D01*
X133710784Y-110039548D01*
X133460611Y-110028188D01*
X133456593Y-110028653D01*
X133456590Y-110028653D01*
X133215855Y-110056507D01*
X133215851Y-110056508D01*
X133211839Y-110056972D01*
X132970870Y-110125159D01*
X132743902Y-110230996D01*
X132536775Y-110371760D01*
X132354818Y-110543828D01*
X132259663Y-110668285D01*
X132213898Y-110728144D01*
X132202712Y-110742774D01*
X132129951Y-110878474D01*
X132088373Y-110956017D01*
X132084371Y-110963480D01*
X132083054Y-110967304D01*
X132083053Y-110967307D01*
X132023390Y-111140582D01*
X132002839Y-111200267D01*
X131960213Y-111447044D01*
X131958850Y-111477058D01*
X131958850Y-114356578D01*
X130372350Y-114356578D01*
X130372350Y-111525622D01*
X130357329Y-111338925D01*
X130339220Y-111265200D01*
X130298557Y-111099650D01*
X130298555Y-111099645D01*
X130297592Y-111095723D01*
X130222754Y-110919416D01*
X130201321Y-110868922D01*
X130201320Y-110868921D01*
X130199741Y-110865200D01*
X130163690Y-110807952D01*
X130068446Y-110656707D01*
X130068444Y-110656704D01*
X130066292Y-110653287D01*
X129900679Y-110465435D01*
X129707163Y-110306479D01*
X129574541Y-110229291D01*
X129494216Y-110182541D01*
X129494215Y-110182540D01*
X129490721Y-110180507D01*
X129347521Y-110125538D01*
X129260701Y-110092211D01*
X129260698Y-110092210D01*
X129256923Y-110090761D01*
X129011784Y-110039548D01*
X128761611Y-110028188D01*
X128757593Y-110028653D01*
X128757590Y-110028653D01*
X128516855Y-110056507D01*
X128516851Y-110056508D01*
X128512839Y-110056972D01*
X128271870Y-110125159D01*
X128044902Y-110230996D01*
X127837775Y-110371760D01*
X127655818Y-110543828D01*
X127560663Y-110668285D01*
X127514898Y-110728144D01*
X127503712Y-110742774D01*
X127430951Y-110878474D01*
X127389373Y-110956017D01*
X127385371Y-110963480D01*
X127384054Y-110967304D01*
X127384053Y-110967307D01*
X127324390Y-111140582D01*
X127303839Y-111200267D01*
X127261213Y-111447044D01*
X127259850Y-111477058D01*
X127259850Y-114356578D01*
X125673350Y-114356578D01*
X125673350Y-111525622D01*
X125658329Y-111338925D01*
X125640220Y-111265200D01*
X125599557Y-111099650D01*
X125599555Y-111099645D01*
X125598592Y-111095723D01*
X125523754Y-110919416D01*
X125502321Y-110868922D01*
X125502320Y-110868921D01*
X125500741Y-110865200D01*
X125464690Y-110807952D01*
X125369446Y-110656707D01*
X125369444Y-110656704D01*
X125367292Y-110653287D01*
X125201679Y-110465435D01*
X125008163Y-110306479D01*
X124875541Y-110229291D01*
X124795216Y-110182541D01*
X124795215Y-110182540D01*
X124791721Y-110180507D01*
X124648521Y-110125538D01*
X124561701Y-110092211D01*
X124561698Y-110092210D01*
X124557923Y-110090761D01*
X124312784Y-110039548D01*
X124062611Y-110028188D01*
X124058593Y-110028653D01*
X124058590Y-110028653D01*
X123817855Y-110056507D01*
X123817851Y-110056508D01*
X123813839Y-110056972D01*
X123572870Y-110125159D01*
X123345902Y-110230996D01*
X123138775Y-110371760D01*
X122956818Y-110543828D01*
X122861663Y-110668285D01*
X122815898Y-110728144D01*
X122804712Y-110742774D01*
X122731951Y-110878474D01*
X122690373Y-110956017D01*
X122686371Y-110963480D01*
X122685054Y-110967304D01*
X122685053Y-110967307D01*
X122625390Y-111140582D01*
X122604839Y-111200267D01*
X122562213Y-111447044D01*
X122560850Y-111477058D01*
X122560850Y-114356578D01*
X119063000Y-114356578D01*
X119063000Y-113034076D01*
X119062999Y-113034070D01*
X119062999Y-113001653D01*
X119055427Y-112978348D01*
X119051743Y-112963000D01*
X119049148Y-112946613D01*
X119049147Y-112946610D01*
X119047909Y-112938794D01*
X119043428Y-112930000D01*
X119036783Y-112916957D01*
X119030742Y-112902373D01*
X119025617Y-112886601D01*
X119025616Y-112886599D01*
X119023169Y-112879068D01*
X119008764Y-112859241D01*
X119000516Y-112845782D01*
X118999518Y-112843822D01*
X118989392Y-112823949D01*
X118966469Y-112801026D01*
X118966466Y-112801022D01*
X114767489Y-108602046D01*
X114739263Y-108546648D01*
X114747450Y-108488395D01*
X114774884Y-108429563D01*
X114774886Y-108429558D01*
X114776742Y-108425578D01*
X114831519Y-108221149D01*
X114833060Y-108215397D01*
X114833060Y-108215394D01*
X114834198Y-108211149D01*
X114853546Y-107990000D01*
X114834198Y-107768851D01*
X114776742Y-107554422D01*
X114682923Y-107353227D01*
X114569597Y-107191380D01*
X114558112Y-107174977D01*
X114558110Y-107174974D01*
X114555593Y-107171380D01*
X114398620Y-107014407D01*
X114395026Y-107011890D01*
X114395023Y-107011888D01*
X114307696Y-106950742D01*
X114216773Y-106887077D01*
X114015578Y-106793258D01*
X113838470Y-106745802D01*
X113805397Y-106736940D01*
X113805394Y-106736940D01*
X113801149Y-106735802D01*
X113580000Y-106716454D01*
X113358851Y-106735802D01*
X113354606Y-106736940D01*
X113354603Y-106736940D01*
X113321530Y-106745802D01*
X113144422Y-106793258D01*
X112943227Y-106887077D01*
X112852304Y-106950742D01*
X112764977Y-107011888D01*
X112764974Y-107011890D01*
X112761380Y-107014407D01*
X112604407Y-107171380D01*
X112601890Y-107174974D01*
X112601888Y-107174977D01*
X112590403Y-107191380D01*
X112477077Y-107353227D01*
X112383258Y-107554422D01*
X112325802Y-107768851D01*
X112306454Y-107990000D01*
X102152671Y-107990000D01*
X102134198Y-107778851D01*
X102132693Y-107773232D01*
X102077879Y-107568667D01*
X102076742Y-107564422D01*
X101982923Y-107363227D01*
X101862595Y-107191380D01*
X101858112Y-107184977D01*
X101858110Y-107184974D01*
X101855593Y-107181380D01*
X101698620Y-107024407D01*
X101695026Y-107021890D01*
X101695023Y-107021888D01*
X101534652Y-106909596D01*
X101516773Y-106897077D01*
X101315578Y-106803258D01*
X101138470Y-106755802D01*
X101105397Y-106746940D01*
X101105394Y-106746940D01*
X101101149Y-106745802D01*
X100880000Y-106726454D01*
X100658851Y-106745802D01*
X100654606Y-106746940D01*
X100654603Y-106746940D01*
X100621530Y-106755802D01*
X100444422Y-106803258D01*
X100243227Y-106897077D01*
X100225348Y-106909596D01*
X100064977Y-107021888D01*
X100064974Y-107021890D01*
X100061380Y-107024407D01*
X99904407Y-107181380D01*
X99901890Y-107184974D01*
X99901888Y-107184977D01*
X99897405Y-107191380D01*
X99777077Y-107363227D01*
X99683258Y-107564422D01*
X99682121Y-107568667D01*
X99627308Y-107773232D01*
X99625802Y-107778851D01*
X99606454Y-108000000D01*
X94551600Y-108000000D01*
X94551600Y-105316028D01*
X94548088Y-105307549D01*
X94555342Y-105246263D01*
X94597547Y-105200607D01*
X94646849Y-105187781D01*
X99658821Y-105195163D01*
G37*
%TD.AperFunction*%
%TD*%
M02*
