%TF.GenerationSoftware,KiCad,Pcbnew,(6.0.7)*%
%TF.CreationDate,2022-08-19T14:07:05+02:00*%
%TF.ProjectId,ioboard,696f626f-6172-4642-9e6b-696361645f70,rev?*%
%TF.SameCoordinates,Original*%
%TF.FileFunction,Profile,NP*%
%FSLAX46Y46*%
G04 Gerber Fmt 4.6, Leading zero omitted, Abs format (unit mm)*
G04 Created by KiCad (PCBNEW (6.0.7)) date 2022-08-19 14:07:05*
%MOMM*%
%LPD*%
G01*
G04 APERTURE LIST*
%TA.AperFunction,Profile*%
%ADD10C,0.050000*%
%TD*%
G04 APERTURE END LIST*
D10*
X94526100Y-105321100D02*
X94526100Y-140881100D01*
X94526100Y-140881100D02*
X202476100Y-140881100D01*
X202476100Y-140881100D02*
X202476100Y-105321100D01*
X202476100Y-105321100D02*
X199618600Y-105321100D01*
X197078600Y-105321100D02*
X149771100Y-105321100D01*
X147231100Y-105321100D02*
X99923600Y-105321100D01*
X97383600Y-105321100D02*
X94526100Y-105321100D01*
X202476100Y-104686100D02*
X199618600Y-104686100D01*
X197078600Y-104686100D02*
X149771100Y-104686100D01*
X147231100Y-104686100D02*
X99923600Y-104686100D01*
X97383600Y-104686100D02*
X94526100Y-104686100D01*
X94526100Y-69126100D02*
X94526100Y-104686100D01*
X202476100Y-104686100D02*
X202476100Y-69126100D01*
X94526100Y-69126100D02*
X202476100Y-69126100D01*
X97701100Y-105003600D02*
G75*
G03*
X97383600Y-104686100I-317500J0D01*
G01*
X97383600Y-105321100D02*
G75*
G03*
X97701100Y-105003600I0J317500D01*
G01*
X99923600Y-104686100D02*
G75*
G03*
X99606100Y-105003600I0J-317500D01*
G01*
X99606100Y-105003600D02*
G75*
G03*
X99923600Y-105321100I317500J0D01*
G01*
X197396100Y-105003600D02*
G75*
G03*
X197078600Y-104686100I-317500J0D01*
G01*
X197078600Y-105321100D02*
G75*
G03*
X197396100Y-105003600I0J317500D01*
G01*
X199618600Y-104686100D02*
G75*
G03*
X199301100Y-105003600I0J-317500D01*
G01*
X199301100Y-105003600D02*
G75*
G03*
X199618600Y-105321100I317500J0D01*
G01*
X147548600Y-105003600D02*
G75*
G03*
X147231100Y-104686100I-317500J0D01*
G01*
X147231100Y-105321100D02*
G75*
G03*
X147548600Y-105003600I0J317500D01*
G01*
X149771100Y-104686100D02*
G75*
G03*
X149453600Y-105003600I0J-317500D01*
G01*
X149453600Y-105003600D02*
G75*
G03*
X149771100Y-105321100I317500J0D01*
G01*
M02*
