%TF.GenerationSoftware,KiCad,Pcbnew,(6.0.7)*%
%TF.CreationDate,2022-08-20T16:45:58+02:00*%
%TF.ProjectId,ioboard,696f626f-6172-4642-9e6b-696361645f70,rev?*%
%TF.SameCoordinates,Original*%
%TF.FileFunction,Copper,L2,Bot*%
%TF.FilePolarity,Positive*%
%FSLAX46Y46*%
G04 Gerber Fmt 4.6, Leading zero omitted, Abs format (unit mm)*
G04 Created by KiCad (PCBNEW (6.0.7)) date 2022-08-20 16:45:58*
%MOMM*%
%LPD*%
G01*
G04 APERTURE LIST*
G04 Aperture macros list*
%AMOutline5P*
0 Free polygon, 5 corners , with rotation*
0 The origin of the aperture is its center*
0 number of corners: always 5*
0 $1 to $10 corner X, Y*
0 $11 Rotation angle, in degrees counterclockwise*
0 create outline with 5 corners*
4,1,5,$1,$2,$3,$4,$5,$6,$7,$8,$9,$10,$1,$2,$11*%
%AMOutline6P*
0 Free polygon, 6 corners , with rotation*
0 The origin of the aperture is its center*
0 number of corners: always 6*
0 $1 to $12 corner X, Y*
0 $13 Rotation angle, in degrees counterclockwise*
0 create outline with 6 corners*
4,1,6,$1,$2,$3,$4,$5,$6,$7,$8,$9,$10,$11,$12,$1,$2,$13*%
%AMOutline7P*
0 Free polygon, 7 corners , with rotation*
0 The origin of the aperture is its center*
0 number of corners: always 7*
0 $1 to $14 corner X, Y*
0 $15 Rotation angle, in degrees counterclockwise*
0 create outline with 7 corners*
4,1,7,$1,$2,$3,$4,$5,$6,$7,$8,$9,$10,$11,$12,$13,$14,$1,$2,$15*%
%AMOutline8P*
0 Free polygon, 8 corners , with rotation*
0 The origin of the aperture is its center*
0 number of corners: always 8*
0 $1 to $16 corner X, Y*
0 $17 Rotation angle, in degrees counterclockwise*
0 create outline with 8 corners*
4,1,8,$1,$2,$3,$4,$5,$6,$7,$8,$9,$10,$11,$12,$13,$14,$15,$16,$1,$2,$17*%
G04 Aperture macros list end*
%TA.AperFunction,ComponentPad*%
%ADD10O,2.705100X5.410200*%
%TD*%
%TA.AperFunction,ComponentPad*%
%ADD11Outline8P,-0.660400X0.273547X-0.273547X0.660400X0.273547X0.660400X0.660400X0.273547X0.660400X-0.273547X0.273547X-0.660400X-0.273547X-0.660400X-0.660400X-0.273547X270.000000*%
%TD*%
%TA.AperFunction,ComponentPad*%
%ADD12R,1.676400X1.676400*%
%TD*%
%TA.AperFunction,ComponentPad*%
%ADD13Outline8P,-0.838200X0.347194X-0.347194X0.838200X0.347194X0.838200X0.838200X0.347194X0.838200X-0.347194X0.347194X-0.838200X-0.347194X-0.838200X-0.838200X-0.347194X180.000000*%
%TD*%
%TA.AperFunction,ComponentPad*%
%ADD14R,2.800000X2.800000*%
%TD*%
%TA.AperFunction,ComponentPad*%
%ADD15Outline8P,-0.660400X0.273547X-0.273547X0.660400X0.273547X0.660400X0.660400X0.273547X0.660400X-0.273547X0.273547X-0.660400X-0.273547X-0.660400X-0.660400X-0.273547X180.000000*%
%TD*%
%TA.AperFunction,ComponentPad*%
%ADD16O,1.524000X3.048000*%
%TD*%
%TA.AperFunction,ComponentPad*%
%ADD17R,1.930000X1.830000*%
%TD*%
%TA.AperFunction,ComponentPad*%
%ADD18C,2.130000*%
%TD*%
%TA.AperFunction,ComponentPad*%
%ADD19Outline8P,-0.660400X0.273547X-0.273547X0.660400X0.273547X0.660400X0.660400X0.273547X0.660400X-0.273547X0.273547X-0.660400X-0.273547X-0.660400X-0.660400X-0.273547X0.000000*%
%TD*%
%TA.AperFunction,ComponentPad*%
%ADD20Outline8P,-0.660400X0.273547X-0.273547X0.660400X0.273547X0.660400X0.660400X0.273547X0.660400X-0.273547X0.273547X-0.660400X-0.273547X-0.660400X-0.660400X-0.273547X90.000000*%
%TD*%
%TA.AperFunction,Conductor*%
%ADD21C,0.406400*%
%TD*%
%TA.AperFunction,Conductor*%
%ADD22C,0.250000*%
%TD*%
G04 APERTURE END LIST*
D10*
%TO.P,S2,1,O*%
%TO.N,/SWA2_IO*%
X133515100Y-133261100D03*
%TO.P,S2,2,P*%
%TO.N,/SWB2_IO*%
X128816100Y-133261100D03*
%TO.P,S2,3,S*%
%TO.N,/SWC2_IO*%
X124117100Y-133261100D03*
%TD*%
D11*
%TO.P,R16,1,1*%
%TO.N,Net-(CV2_1-PadT)*%
X154216100Y-110401100D03*
%TO.P,R16,2,2*%
%TO.N,/CV1_IO*%
X154216100Y-118021100D03*
%TD*%
D12*
%TO.P,CV_ATTN_1,1,A*%
%TO.N,Net-(CV_ATTN_1-Pad1)*%
X172616100Y-110441100D03*
D13*
%TO.P,CV_ATTN_1,2,S*%
%TO.N,Net-(CV1_1-PadT)*%
X172616100Y-112941100D03*
%TO.P,CV_ATTN_1,3,E*%
%TO.N,GND*%
X172616100Y-115441100D03*
D14*
%TO.P,CV_ATTN_1,M1*%
%TO.N,N/C*%
X179616100Y-117441100D03*
%TO.P,CV_ATTN_1,M2*%
X179616100Y-108441100D03*
%TD*%
D15*
%TO.P,R38,1,1*%
%TO.N,Net-(CV_ATTN_2-Pad1)*%
X174536100Y-125641100D03*
%TO.P,R38,2,2*%
%TO.N,/CV2_IO*%
X166916100Y-125641100D03*
%TD*%
%TO.P,R18,1,1*%
%TO.N,Net-(CV_ATTN_1-Pad1)*%
X174536100Y-120561100D03*
%TO.P,R18,2,2*%
%TO.N,/CV1_IO*%
X166916100Y-120561100D03*
%TD*%
D16*
%TO.P,JP2,1,1*%
%TO.N,/CV1_IO*%
X135166100Y-119291100D03*
%TO.P,JP2,2,2*%
%TO.N,/AI1_IO*%
X132626100Y-119291100D03*
%TO.P,JP2,3,3*%
%TO.N,/SWA1_IO*%
X130086100Y-119291100D03*
%TO.P,JP2,4,4*%
%TO.N,/SWB1_IO*%
X127546100Y-119291100D03*
%TO.P,JP2,5,5*%
%TO.N,/SWC1_IO*%
X125006100Y-119291100D03*
%TO.P,JP2,6,6*%
%TO.N,/AO1_IO*%
X122466100Y-119291100D03*
%TD*%
D17*
%TO.P,AUDIO_OUT_2,S*%
%TO.N,GND*%
X100890000Y-126800000D03*
D18*
%TO.P,AUDIO_OUT_2,T*%
%TO.N,/AO2_IO*%
X100890000Y-138200000D03*
%TO.P,AUDIO_OUT_2,TN*%
%TO.N,unconnected-(AUDIO_OUT_2-PadTN)*%
X100890000Y-129900000D03*
%TD*%
D19*
%TO.P,R37,1,1*%
%TO.N,Net-(BIAS_2-Pad2)*%
X142786100Y-125641100D03*
%TO.P,R37,2,2*%
%TO.N,/CV2_IO*%
X150406100Y-125641100D03*
%TD*%
D12*
%TO.P,BIAS_1,1,A*%
%TO.N,-12V*%
X139596100Y-110441100D03*
D13*
%TO.P,BIAS_1,2,S*%
%TO.N,Net-(BIAS_1-Pad2)*%
X139596100Y-112941100D03*
%TO.P,BIAS_1,3,E*%
%TO.N,+12V*%
X139596100Y-115441100D03*
D14*
%TO.P,BIAS_1,M1*%
%TO.N,N/C*%
X146596100Y-117441100D03*
%TO.P,BIAS_1,M2*%
X146596100Y-108441100D03*
%TD*%
D20*
%TO.P,R36,1,1*%
%TO.N,Net-(CV2_2-PadT)*%
X154216100Y-135801100D03*
%TO.P,R36,2,2*%
%TO.N,/CV2_IO*%
X154216100Y-128181100D03*
%TD*%
D19*
%TO.P,R17,1,1*%
%TO.N,Net-(BIAS_1-Pad2)*%
X142786100Y-120561100D03*
%TO.P,R17,2,2*%
%TO.N,/CV1_IO*%
X150406100Y-120561100D03*
%TD*%
D16*
%TO.P,JP5,1,1*%
%TO.N,GND*%
X111036100Y-123101100D03*
%TO.P,JP5,2,2*%
%TO.N,+12V*%
X113576100Y-123101100D03*
%TO.P,JP5,3,3*%
%TO.N,-12V*%
X116116100Y-123101100D03*
%TO.P,JP5,4,4*%
%TO.N,GND*%
X118656100Y-123101100D03*
%TD*%
D17*
%TO.P,CV2_2,S*%
%TO.N,GND*%
X163110000Y-126770000D03*
D18*
%TO.P,CV2_2,T*%
%TO.N,Net-(CV2_2-PadT)*%
X163110000Y-138170000D03*
%TO.P,CV2_2,TN*%
%TO.N,unconnected-(CV2_2-PadTN)*%
X163110000Y-129870000D03*
%TD*%
D12*
%TO.P,BIAS_2,1,A*%
%TO.N,-12V*%
X139596100Y-130761100D03*
D13*
%TO.P,BIAS_2,2,S*%
%TO.N,Net-(BIAS_2-Pad2)*%
X139596100Y-133261100D03*
%TO.P,BIAS_2,3,E*%
%TO.N,+12V*%
X139596100Y-135761100D03*
D14*
%TO.P,BIAS_2,M1*%
%TO.N,N/C*%
X146596100Y-137761100D03*
%TO.P,BIAS_2,M2*%
X146596100Y-128761100D03*
%TD*%
D17*
%TO.P,AUDIO_IN_2,S*%
%TO.N,GND*%
X113570000Y-126790000D03*
D18*
%TO.P,AUDIO_IN_2,T*%
%TO.N,/AI2_IO*%
X113570000Y-138190000D03*
%TO.P,AUDIO_IN_2,TN*%
%TO.N,unconnected-(AUDIO_IN_2-PadTN)*%
X113570000Y-129890000D03*
%TD*%
D12*
%TO.P,CV_ATTN_2,1,A*%
%TO.N,Net-(CV_ATTN_2-Pad1)*%
X172616100Y-130761100D03*
D13*
%TO.P,CV_ATTN_2,2,S*%
%TO.N,Net-(CV1_2-PadT)*%
X172616100Y-133261100D03*
%TO.P,CV_ATTN_2,3,E*%
%TO.N,GND*%
X172616100Y-135761100D03*
D14*
%TO.P,CV_ATTN_2,M1*%
%TO.N,N/C*%
X179616100Y-137761100D03*
%TO.P,CV_ATTN_2,M2*%
X179616100Y-128761100D03*
%TD*%
D16*
%TO.P,JP1,1,1*%
%TO.N,/CV2_IO*%
X135166100Y-126911100D03*
%TO.P,JP1,2,2*%
%TO.N,/AI2_IO*%
X132626100Y-126911100D03*
%TO.P,JP1,3,3*%
%TO.N,/SWA2_IO*%
X130086100Y-126911100D03*
%TO.P,JP1,4,4*%
%TO.N,/SWB2_IO*%
X127546100Y-126911100D03*
%TO.P,JP1,5,5*%
%TO.N,/SWC2_IO*%
X125006100Y-126911100D03*
%TO.P,JP1,6,6*%
%TO.N,/AO2_IO*%
X122466100Y-126911100D03*
%TD*%
D17*
%TO.P,AUDIO_IN_1,S*%
%TO.N,GND*%
X113580000Y-119390000D03*
D18*
%TO.P,AUDIO_IN_1,T*%
%TO.N,/AI1_IO*%
X113580000Y-107990000D03*
%TO.P,AUDIO_IN_1,TN*%
%TO.N,unconnected-(AUDIO_IN_1-PadTN)*%
X113580000Y-116290000D03*
%TD*%
D10*
%TO.P,S1,1,O*%
%TO.N,/SWA1_IO*%
X133515100Y-112941100D03*
%TO.P,S1,2,P*%
%TO.N,/SWB1_IO*%
X128816100Y-112941100D03*
%TO.P,S1,3,S*%
%TO.N,/SWC1_IO*%
X124117100Y-112941100D03*
%TD*%
D17*
%TO.P,AUDIO_OUT_1,S*%
%TO.N,GND*%
X100880000Y-119400000D03*
D18*
%TO.P,AUDIO_OUT_1,T*%
%TO.N,/AO1_IO*%
X100880000Y-108000000D03*
%TO.P,AUDIO_OUT_1,TN*%
%TO.N,unconnected-(AUDIO_OUT_1-PadTN)*%
X100880000Y-116300000D03*
%TD*%
D17*
%TO.P,CV2_1,S*%
%TO.N,GND*%
X163110000Y-119410000D03*
D18*
%TO.P,CV2_1,T*%
%TO.N,Net-(CV2_1-PadT)*%
X163110000Y-108010000D03*
%TO.P,CV2_1,TN*%
%TO.N,unconnected-(CV2_1-PadTN)*%
X163110000Y-116310000D03*
%TD*%
D17*
%TO.P,CV1_2,S*%
%TO.N,GND*%
X194850000Y-126780000D03*
D18*
%TO.P,CV1_2,T*%
%TO.N,Net-(CV1_2-PadT)*%
X194850000Y-138180000D03*
%TO.P,CV1_2,TN*%
%TO.N,unconnected-(CV1_2-PadTN)*%
X194850000Y-129880000D03*
%TD*%
D17*
%TO.P,CV1_1,S*%
%TO.N,GND*%
X194830000Y-119410000D03*
D18*
%TO.P,CV1_1,T*%
%TO.N,Net-(CV1_1-PadT)*%
X194830000Y-108010000D03*
%TO.P,CV1_1,TN*%
%TO.N,unconnected-(CV1_1-PadTN)*%
X194830000Y-116310000D03*
%TD*%
D21*
%TO.N,/AO2_IO*%
X109349077Y-125423123D02*
X106591100Y-128181100D01*
%TO.N,/AO1_IO*%
X122466100Y-119291100D02*
X120561100Y-119291100D01*
%TO.N,/CV1_IO*%
X153741100Y-120561100D02*
X154216100Y-120561100D01*
%TO.N,/AI2_IO*%
X131356100Y-136436100D02*
X129451100Y-138341100D01*
D22*
%TO.N,Net-(CV2_2-PadT)*%
X154216100Y-135801100D02*
X160741100Y-135801100D01*
D21*
%TO.N,Net-(CV_ATTN_2-Pad1)*%
X172631100Y-127546100D02*
X172631100Y-130721100D01*
%TO.N,/CV1_IO*%
X149136100Y-121831100D02*
X150406100Y-120561100D01*
%TO.N,Net-(CV2_1-PadT)*%
X160718900Y-110401100D02*
X163110000Y-108010000D01*
%TO.N,/AI2_IO*%
X131356100Y-130086100D02*
X131356100Y-136436100D01*
%TO.N,Net-(CV_ATTN_2-Pad1)*%
X172616100Y-130721100D02*
X172616100Y-130761100D01*
%TO.N,/CV1_IO*%
X135166100Y-119291100D02*
X135166100Y-120561100D01*
%TO.N,Net-(CV_ATTN_1-Pad1)*%
X171356877Y-111700323D02*
X171356877Y-117381877D01*
%TO.N,/AI2_IO*%
X132626100Y-128816100D02*
X131356100Y-130086100D01*
%TO.N,/CV1_IO*%
X153741100Y-120561100D02*
X154208074Y-121028074D01*
%TO.N,Net-(BIAS_1-Pad2)*%
X142786100Y-116116100D02*
X139596100Y-112941100D01*
%TO.N,/CV1_IO*%
X154208074Y-121028074D02*
X166449126Y-121028074D01*
%TO.N,/CV2_IO*%
X154448074Y-125174126D02*
X166449126Y-125174126D01*
X153981100Y-125641100D02*
X154448074Y-125174126D01*
%TO.N,/AO2_IO*%
X105755830Y-133085830D02*
X105622100Y-133261100D01*
%TO.N,Net-(CV_ATTN_2-Pad1)*%
X172631100Y-130721100D02*
X172616100Y-130721100D01*
%TO.N,/CV1_IO*%
X150406100Y-120561100D02*
X153741100Y-120561100D01*
%TO.N,Net-(CV_ATTN_2-Pad1)*%
X174536100Y-125641100D02*
X172631100Y-127546100D01*
%TO.N,/AO2_IO*%
X105755830Y-133334170D02*
X100890000Y-138200000D01*
%TO.N,Net-(BIAS_2-Pad2)*%
X140881100Y-133261100D02*
X139596100Y-133261100D01*
%TO.N,/SWA1_IO*%
X133261100Y-114211100D02*
X130086100Y-117386100D01*
%TO.N,Net-(CV_ATTN_1-Pad1)*%
X172616100Y-110401100D02*
X172616100Y-110441100D01*
%TO.N,/AI2_IO*%
X129451100Y-138341100D02*
X121831100Y-138341100D01*
%TO.N,/SWB1_IO*%
X128816100Y-112941100D02*
X128816100Y-115481100D01*
%TO.N,/CV1_IO*%
X136436100Y-121831100D02*
X149136100Y-121831100D01*
%TO.N,Net-(CV1_1-PadT)*%
X172616100Y-112941100D02*
X184696100Y-112941100D01*
%TO.N,/AO1_IO*%
X105321100Y-117871100D02*
X105321100Y-112441100D01*
%TO.N,Net-(CV1_2-PadT)*%
X172616100Y-133261100D02*
X189931100Y-133261100D01*
%TO.N,/SWB1_IO*%
X128816100Y-115481100D02*
X127546100Y-116751100D01*
%TO.N,Net-(CV_ATTN_1-Pad1)*%
X171996100Y-110401100D02*
X172616100Y-110401100D01*
%TO.N,/CV1_IO*%
X166449126Y-121028074D02*
X166916100Y-120561100D01*
%TO.N,/AO2_IO*%
X106591100Y-131991100D02*
X105755830Y-133085830D01*
%TO.N,/CV1_IO*%
X135166100Y-120561100D02*
X136436100Y-121831100D01*
%TO.N,/SWA1_IO*%
X130086100Y-117386100D02*
X130086100Y-119291100D01*
%TO.N,Net-(BIAS_1-Pad2)*%
X142786100Y-120561100D02*
X142786100Y-116116100D01*
%TO.N,Net-(CV_ATTN_1-Pad1)*%
X172616100Y-110441100D02*
X171356877Y-111700323D01*
%TO.N,Net-(CV2_1-PadT)*%
X154216100Y-110401100D02*
X160718900Y-110401100D01*
%TO.N,/SWA1_IO*%
X133261100Y-112941100D02*
X133261100Y-114211100D01*
%TO.N,Net-(BIAS_2-Pad2)*%
X142786100Y-131356100D02*
X140881100Y-133261100D01*
%TO.N,Net-(CV1_1-PadT)*%
X184696100Y-112941100D02*
X189627200Y-108010000D01*
%TO.N,Net-(BIAS_2-Pad2)*%
X142786100Y-125641100D02*
X142786100Y-131356100D01*
%TO.N,Net-(CV_ATTN_1-Pad1)*%
X171356877Y-117381877D02*
X174536100Y-120561100D01*
%TO.N,/SWA1_IO*%
X133515100Y-112941100D02*
X133261100Y-112941100D01*
%TO.N,/AO1_IO*%
X120561100Y-119291100D02*
X119122200Y-120730000D01*
X119122200Y-120730000D02*
X108180000Y-120730000D01*
X108180000Y-120730000D02*
X105321100Y-117871100D01*
%TO.N,/SWC1_IO*%
X124117100Y-116116100D02*
X124117100Y-112941100D01*
X125006100Y-119291100D02*
X125006100Y-116751100D01*
%TO.N,/CV2_IO*%
X166449126Y-125174126D02*
X166916100Y-125641100D01*
X135166100Y-126911100D02*
X135166100Y-125641100D01*
X150406100Y-125641100D02*
X153981100Y-125641100D01*
%TO.N,/AI2_IO*%
X121831100Y-138341100D02*
X121680000Y-138190000D01*
%TO.N,/CV2_IO*%
X136436100Y-124371100D02*
X149136100Y-124371100D01*
X149136100Y-124371100D02*
X150406100Y-125641100D01*
%TO.N,/AO1_IO*%
X105321100Y-112441100D02*
X100880000Y-108000000D01*
%TO.N,/AI2_IO*%
X132626100Y-126911100D02*
X132626100Y-128816100D01*
X121680000Y-138190000D02*
X113570000Y-138190000D01*
%TO.N,/AO2_IO*%
X119926100Y-126911100D02*
X118438123Y-125423123D01*
X122466100Y-126911100D02*
X119926100Y-126911100D01*
%TO.N,/CV1_IO*%
X154216100Y-118021100D02*
X154216100Y-120561100D01*
%TO.N,/SWB1_IO*%
X127546100Y-116751100D02*
X127546100Y-119291100D01*
D22*
%TO.N,Net-(CV2_2-PadT)*%
X160741100Y-135801100D02*
X163110000Y-138170000D01*
D21*
%TO.N,/CV2_IO*%
X154216100Y-125641100D02*
X154216100Y-128181100D01*
%TO.N,/SWC1_IO*%
X125006100Y-116751100D02*
X124117100Y-116116100D01*
%TO.N,/CV2_IO*%
X153981100Y-125641100D02*
X154216100Y-125641100D01*
X135166100Y-125641100D02*
X136436100Y-124371100D01*
%TO.N,/AO2_IO*%
X106591100Y-128181100D02*
X106591100Y-131991100D01*
X118438123Y-125423123D02*
X109349077Y-125423123D01*
X105755830Y-133085830D02*
X105755830Y-133334170D01*
%TO.N,Net-(CV1_2-PadT)*%
X189931100Y-133261100D02*
X194850000Y-138180000D01*
%TO.N,Net-(CV1_1-PadT)*%
X189627200Y-108010000D02*
X194830000Y-108010000D01*
%TD*%
%TA.AperFunction,Conductor*%
%TO.N,GND*%
G36*
X99658821Y-105195163D02*
G01*
X201943848Y-105345816D01*
X202002951Y-105365116D01*
X202039422Y-105415470D01*
X202044300Y-105446416D01*
X202044300Y-140755000D01*
X202025087Y-140814131D01*
X201974787Y-140850676D01*
X201943700Y-140855600D01*
X94652200Y-140855600D01*
X94593069Y-140836387D01*
X94556524Y-140786087D01*
X94551600Y-140755000D01*
X94551600Y-138200000D01*
X99616454Y-138200000D01*
X99635802Y-138421149D01*
X99693258Y-138635578D01*
X99787077Y-138836773D01*
X99789596Y-138840370D01*
X99909580Y-139011726D01*
X99914407Y-139018620D01*
X100071380Y-139175593D01*
X100074974Y-139178110D01*
X100074977Y-139178112D01*
X100150313Y-139230862D01*
X100253227Y-139302923D01*
X100454422Y-139396742D01*
X100558319Y-139424581D01*
X100664603Y-139453060D01*
X100664606Y-139453060D01*
X100668851Y-139454198D01*
X100890000Y-139473546D01*
X101111149Y-139454198D01*
X101115394Y-139453060D01*
X101115397Y-139453060D01*
X101221681Y-139424581D01*
X101325578Y-139396742D01*
X101526773Y-139302923D01*
X101629687Y-139230862D01*
X101705023Y-139178112D01*
X101705026Y-139178110D01*
X101708620Y-139175593D01*
X101865593Y-139018620D01*
X101870421Y-139011726D01*
X101990404Y-138840370D01*
X101992923Y-138836773D01*
X102086742Y-138635578D01*
X102144198Y-138421149D01*
X102163546Y-138200000D01*
X102162671Y-138190000D01*
X112296454Y-138190000D01*
X112315802Y-138411149D01*
X112316940Y-138415394D01*
X112316940Y-138415397D01*
X112318481Y-138421149D01*
X112373258Y-138625578D01*
X112467077Y-138826773D01*
X112469596Y-138830370D01*
X112589580Y-139001726D01*
X112594407Y-139008620D01*
X112751380Y-139165593D01*
X112754974Y-139168110D01*
X112754977Y-139168112D01*
X112780544Y-139186014D01*
X112933227Y-139292923D01*
X113134422Y-139386742D01*
X113269963Y-139423060D01*
X113344603Y-139443060D01*
X113344606Y-139443060D01*
X113348851Y-139444198D01*
X113570000Y-139463546D01*
X113791149Y-139444198D01*
X113795394Y-139443060D01*
X113795397Y-139443060D01*
X113870037Y-139423060D01*
X114005578Y-139386742D01*
X114206773Y-139292923D01*
X114359456Y-139186014D01*
X114366383Y-139181164D01*
X144992400Y-139181164D01*
X145004219Y-139240580D01*
X145049240Y-139307960D01*
X145116620Y-139352981D01*
X145176036Y-139364800D01*
X148016164Y-139364800D01*
X148075580Y-139352981D01*
X148142960Y-139307960D01*
X148187981Y-139240580D01*
X148199800Y-139181164D01*
X148199800Y-136341036D01*
X148187981Y-136281620D01*
X148142960Y-136214240D01*
X148075580Y-136169219D01*
X148016164Y-136157400D01*
X145176036Y-136157400D01*
X145116620Y-136169219D01*
X145049240Y-136214240D01*
X145004219Y-136281620D01*
X144992400Y-136341036D01*
X144992400Y-139181164D01*
X114366383Y-139181164D01*
X114385023Y-139168112D01*
X114385026Y-139168110D01*
X114388620Y-139165593D01*
X114545593Y-139008620D01*
X114550421Y-139001726D01*
X114670404Y-138830370D01*
X114672923Y-138826773D01*
X114753030Y-138654984D01*
X114795432Y-138609513D01*
X114844204Y-138596900D01*
X121469787Y-138596900D01*
X121528918Y-138616113D01*
X121540922Y-138626365D01*
X121588949Y-138674392D01*
X121610787Y-138685519D01*
X121624241Y-138693764D01*
X121644068Y-138708170D01*
X121667382Y-138715745D01*
X121681958Y-138721783D01*
X121703794Y-138732909D01*
X121711611Y-138734147D01*
X121728002Y-138736743D01*
X121743348Y-138740427D01*
X121766654Y-138748000D01*
X129515546Y-138748000D01*
X129538852Y-138740427D01*
X129554198Y-138736743D01*
X129570589Y-138734147D01*
X129578406Y-138732909D01*
X129600242Y-138721783D01*
X129614818Y-138715745D01*
X129638132Y-138708170D01*
X129657959Y-138693764D01*
X129671413Y-138685519D01*
X129693251Y-138674392D01*
X131689392Y-136678251D01*
X131700519Y-136656413D01*
X131708765Y-136642958D01*
X131718514Y-136629540D01*
X131723170Y-136623132D01*
X131730745Y-136599818D01*
X131736784Y-136585240D01*
X131744316Y-136570458D01*
X131744316Y-136570457D01*
X131747909Y-136563406D01*
X131751743Y-136539198D01*
X131755427Y-136523852D01*
X131763000Y-136500546D01*
X131763000Y-134747114D01*
X131782213Y-134687983D01*
X131832513Y-134651438D01*
X131894687Y-134651438D01*
X131944987Y-134687983D01*
X131963876Y-134739046D01*
X131973871Y-134863275D01*
X131974835Y-134867199D01*
X131974835Y-134867200D01*
X132006952Y-134997953D01*
X132033608Y-135106477D01*
X132131459Y-135337000D01*
X132133614Y-135340422D01*
X132252908Y-135529857D01*
X132264908Y-135548913D01*
X132430521Y-135736765D01*
X132624037Y-135895721D01*
X132627530Y-135897754D01*
X132627533Y-135897756D01*
X132792018Y-135993488D01*
X132840479Y-136021693D01*
X132844255Y-136023142D01*
X132844254Y-136023142D01*
X133070499Y-136109989D01*
X133070502Y-136109990D01*
X133074277Y-136111439D01*
X133276307Y-136153646D01*
X133303204Y-136159265D01*
X133319416Y-136162652D01*
X133569589Y-136174012D01*
X133573607Y-136173547D01*
X133573610Y-136173547D01*
X133814345Y-136145693D01*
X133814349Y-136145692D01*
X133818361Y-136145228D01*
X133877654Y-136128450D01*
X138554200Y-136128450D01*
X138566157Y-136188109D01*
X138599610Y-136238080D01*
X139119122Y-136757590D01*
X139169761Y-136791320D01*
X139211875Y-136799659D01*
X139223921Y-136802044D01*
X139223923Y-136802044D01*
X139228750Y-136803000D01*
X139963450Y-136803000D01*
X140023109Y-136791043D01*
X140073080Y-136757590D01*
X140592590Y-136238078D01*
X140617765Y-136200283D01*
X140620837Y-136195671D01*
X140620837Y-136195670D01*
X140626320Y-136187439D01*
X140634896Y-136144127D01*
X140637044Y-136133279D01*
X140637044Y-136133277D01*
X140638000Y-136128450D01*
X140638000Y-136094803D01*
X153352000Y-136094803D01*
X153363957Y-136154462D01*
X153397410Y-136204433D01*
X153812769Y-136619790D01*
X153863408Y-136653520D01*
X153905522Y-136661859D01*
X153917568Y-136664244D01*
X153917570Y-136664244D01*
X153922397Y-136665200D01*
X154509803Y-136665200D01*
X154569462Y-136653243D01*
X154619433Y-136619790D01*
X155034790Y-136204431D01*
X155037548Y-136200290D01*
X155037554Y-136200283D01*
X155054639Y-136174632D01*
X155103409Y-136136069D01*
X155138366Y-136129800D01*
X160563278Y-136129800D01*
X160622409Y-136149013D01*
X160634413Y-136159265D01*
X161957680Y-137482532D01*
X161985906Y-137537930D01*
X161977720Y-137596182D01*
X161967657Y-137617763D01*
X161913258Y-137734422D01*
X161888295Y-137827586D01*
X161860060Y-137932961D01*
X161855802Y-137948851D01*
X161836454Y-138170000D01*
X161855802Y-138391149D01*
X161856940Y-138395394D01*
X161856940Y-138395397D01*
X161863840Y-138421149D01*
X161913258Y-138605578D01*
X162007077Y-138806773D01*
X162134407Y-138988620D01*
X162291380Y-139145593D01*
X162294974Y-139148110D01*
X162294977Y-139148112D01*
X162335117Y-139176218D01*
X162473227Y-139272923D01*
X162674422Y-139366742D01*
X162779457Y-139394886D01*
X162884603Y-139423060D01*
X162884606Y-139423060D01*
X162888851Y-139424198D01*
X163110000Y-139443546D01*
X163331149Y-139424198D01*
X163335394Y-139423060D01*
X163335397Y-139423060D01*
X163440543Y-139394886D01*
X163545578Y-139366742D01*
X163746773Y-139272923D01*
X163877819Y-139181164D01*
X178012400Y-139181164D01*
X178024219Y-139240580D01*
X178069240Y-139307960D01*
X178136620Y-139352981D01*
X178196036Y-139364800D01*
X181036164Y-139364800D01*
X181095580Y-139352981D01*
X181162960Y-139307960D01*
X181207981Y-139240580D01*
X181219800Y-139181164D01*
X181219800Y-136341036D01*
X181207981Y-136281620D01*
X181162960Y-136214240D01*
X181095580Y-136169219D01*
X181036164Y-136157400D01*
X178196036Y-136157400D01*
X178136620Y-136169219D01*
X178069240Y-136214240D01*
X178024219Y-136281620D01*
X178012400Y-136341036D01*
X178012400Y-139181164D01*
X163877819Y-139181164D01*
X163884883Y-139176218D01*
X163925023Y-139148112D01*
X163925026Y-139148110D01*
X163928620Y-139145593D01*
X164085593Y-138988620D01*
X164212923Y-138806773D01*
X164306742Y-138605578D01*
X164356160Y-138421149D01*
X164363060Y-138395397D01*
X164363060Y-138395394D01*
X164364198Y-138391149D01*
X164383546Y-138170000D01*
X164364198Y-137948851D01*
X164359941Y-137932961D01*
X164331705Y-137827586D01*
X164306742Y-137734422D01*
X164212923Y-137533227D01*
X164106599Y-137381380D01*
X164088112Y-137354977D01*
X164088110Y-137354974D01*
X164085593Y-137351380D01*
X163928620Y-137194407D01*
X163925026Y-137191890D01*
X163925023Y-137191888D01*
X163793215Y-137099596D01*
X163746773Y-137067077D01*
X163545578Y-136973258D01*
X163372717Y-136926940D01*
X163335397Y-136916940D01*
X163335394Y-136916940D01*
X163331149Y-136915802D01*
X163110000Y-136896454D01*
X162888851Y-136915802D01*
X162884606Y-136916940D01*
X162884603Y-136916940D01*
X162847283Y-136926940D01*
X162674422Y-136973258D01*
X162670441Y-136975114D01*
X162670442Y-136975114D01*
X162536182Y-137037720D01*
X162474471Y-137045297D01*
X162422532Y-137017680D01*
X161552356Y-136147504D01*
X171321499Y-136147504D01*
X171321877Y-136153646D01*
X171329220Y-136213183D01*
X171332671Y-136226253D01*
X171380073Y-136340411D01*
X171386884Y-136352068D01*
X171423399Y-136398720D01*
X171427425Y-136403267D01*
X171973905Y-136949746D01*
X171978521Y-136953827D01*
X172025810Y-136990733D01*
X172037491Y-136997534D01*
X172151733Y-137044738D01*
X172164790Y-137048163D01*
X172223592Y-137055331D01*
X172229666Y-137055700D01*
X172371967Y-137055700D01*
X172384857Y-137051512D01*
X172387900Y-137047323D01*
X172387900Y-137039768D01*
X172844300Y-137039768D01*
X172848488Y-137052658D01*
X172852677Y-137055701D01*
X173002504Y-137055701D01*
X173008646Y-137055323D01*
X173068183Y-137047980D01*
X173081253Y-137044529D01*
X173195411Y-136997127D01*
X173207068Y-136990316D01*
X173253720Y-136953801D01*
X173258267Y-136949775D01*
X173804746Y-136403295D01*
X173808827Y-136398679D01*
X173845733Y-136351390D01*
X173852534Y-136339709D01*
X173899738Y-136225467D01*
X173903163Y-136212410D01*
X173910331Y-136153608D01*
X173910700Y-136147534D01*
X173910700Y-136005233D01*
X173906512Y-135992343D01*
X173902323Y-135989300D01*
X172860233Y-135989300D01*
X172847343Y-135993488D01*
X172844300Y-135997677D01*
X172844300Y-137039768D01*
X172387900Y-137039768D01*
X172387900Y-136005233D01*
X172383712Y-135992343D01*
X172379523Y-135989300D01*
X171337432Y-135989300D01*
X171324542Y-135993488D01*
X171321499Y-135997677D01*
X171321499Y-136147504D01*
X161552356Y-136147504D01*
X160986777Y-135581925D01*
X160980848Y-135575454D01*
X160961304Y-135552162D01*
X160961303Y-135552161D01*
X160955644Y-135545417D01*
X160921680Y-135525808D01*
X160914299Y-135521106D01*
X160908388Y-135516967D01*
X171321500Y-135516967D01*
X171325688Y-135529857D01*
X171329877Y-135532900D01*
X173894768Y-135532900D01*
X173907658Y-135528712D01*
X173910701Y-135524523D01*
X173910701Y-135374696D01*
X173910323Y-135368554D01*
X173902980Y-135309017D01*
X173899529Y-135295947D01*
X173852127Y-135181789D01*
X173845316Y-135170132D01*
X173808801Y-135123480D01*
X173804775Y-135118933D01*
X173258295Y-134572454D01*
X173253679Y-134568373D01*
X173206390Y-134531467D01*
X173194709Y-134524666D01*
X173080472Y-134477464D01*
X173068090Y-134474216D01*
X173015769Y-134440628D01*
X172993183Y-134382701D01*
X173008959Y-134322562D01*
X173044366Y-134292920D01*
X173043109Y-134291043D01*
X173093080Y-134257590D01*
X173612590Y-133738078D01*
X173615349Y-133733936D01*
X173615353Y-133733931D01*
X173629408Y-133712830D01*
X173678179Y-133674268D01*
X173713134Y-133668000D01*
X189720887Y-133668000D01*
X189780018Y-133687213D01*
X189792022Y-133697465D01*
X193662511Y-137567954D01*
X193690737Y-137623352D01*
X193682550Y-137681605D01*
X193655942Y-137738667D01*
X193653258Y-137744422D01*
X193632877Y-137820484D01*
X193597308Y-137953232D01*
X193595802Y-137958851D01*
X193576454Y-138180000D01*
X193595802Y-138401149D01*
X193596940Y-138405394D01*
X193596940Y-138405397D01*
X193598481Y-138411149D01*
X193653258Y-138615578D01*
X193747077Y-138816773D01*
X193749596Y-138820370D01*
X193869580Y-138991726D01*
X193874407Y-138998620D01*
X194031380Y-139155593D01*
X194034974Y-139158110D01*
X194034977Y-139158112D01*
X194067899Y-139181164D01*
X194213227Y-139282923D01*
X194414422Y-139376742D01*
X194550931Y-139413319D01*
X194624603Y-139433060D01*
X194624606Y-139433060D01*
X194628851Y-139434198D01*
X194850000Y-139453546D01*
X195071149Y-139434198D01*
X195075394Y-139433060D01*
X195075397Y-139433060D01*
X195149069Y-139413319D01*
X195285578Y-139376742D01*
X195486773Y-139282923D01*
X195632101Y-139181164D01*
X195665023Y-139158112D01*
X195665026Y-139158110D01*
X195668620Y-139155593D01*
X195825593Y-138998620D01*
X195830421Y-138991726D01*
X195950404Y-138820370D01*
X195952923Y-138816773D01*
X196046742Y-138615578D01*
X196101519Y-138411149D01*
X196103060Y-138405397D01*
X196103060Y-138405394D01*
X196104198Y-138401149D01*
X196123546Y-138180000D01*
X196104198Y-137958851D01*
X196102693Y-137953232D01*
X196067123Y-137820484D01*
X196046742Y-137744422D01*
X195952923Y-137543227D01*
X195839597Y-137381380D01*
X195828112Y-137364977D01*
X195828110Y-137364974D01*
X195825593Y-137361380D01*
X195668620Y-137204407D01*
X195665026Y-137201890D01*
X195665023Y-137201888D01*
X195577696Y-137140742D01*
X195486773Y-137077077D01*
X195285578Y-136983258D01*
X195108470Y-136935802D01*
X195075397Y-136926940D01*
X195075394Y-136926940D01*
X195071149Y-136925802D01*
X194850000Y-136906454D01*
X194628851Y-136925802D01*
X194624606Y-136926940D01*
X194624603Y-136926940D01*
X194591530Y-136935802D01*
X194414422Y-136983258D01*
X194410442Y-136985114D01*
X194410437Y-136985116D01*
X194351605Y-137012550D01*
X194289894Y-137020128D01*
X194237954Y-136992511D01*
X190173251Y-132927808D01*
X190151413Y-132916681D01*
X190137958Y-132908435D01*
X190124540Y-132898686D01*
X190124541Y-132898686D01*
X190118132Y-132894030D01*
X190094818Y-132886455D01*
X190080240Y-132880416D01*
X190065458Y-132872884D01*
X190065457Y-132872884D01*
X190058406Y-132869291D01*
X190034198Y-132865457D01*
X190018852Y-132861773D01*
X189995546Y-132854200D01*
X173713220Y-132854200D01*
X173654089Y-132834987D01*
X173629623Y-132809563D01*
X173615328Y-132788209D01*
X173615325Y-132788205D01*
X173612590Y-132784120D01*
X173093078Y-132264610D01*
X173068469Y-132248218D01*
X173050671Y-132236363D01*
X173050670Y-132236363D01*
X173042439Y-132230880D01*
X173000325Y-132222541D01*
X172988279Y-132220156D01*
X172988277Y-132220156D01*
X172983450Y-132219200D01*
X172248750Y-132219200D01*
X172189091Y-132231157D01*
X172139120Y-132264610D01*
X171619610Y-132784122D01*
X171585880Y-132834761D01*
X171583959Y-132844465D01*
X171576129Y-132884010D01*
X171574200Y-132893750D01*
X171574200Y-133628450D01*
X171586157Y-133688109D01*
X171619610Y-133738080D01*
X172139122Y-134257590D01*
X172181529Y-134285837D01*
X172189761Y-134291320D01*
X172188245Y-134293596D01*
X172224214Y-134324240D01*
X172238803Y-134384678D01*
X172215080Y-134442149D01*
X172164183Y-134474176D01*
X172150947Y-134477670D01*
X172036789Y-134525073D01*
X172025132Y-134531884D01*
X171978480Y-134568399D01*
X171973933Y-134572425D01*
X171427454Y-135118905D01*
X171423373Y-135123521D01*
X171386467Y-135170810D01*
X171379666Y-135182491D01*
X171332462Y-135296733D01*
X171329037Y-135309790D01*
X171321869Y-135368592D01*
X171321500Y-135374666D01*
X171321500Y-135516967D01*
X160908388Y-135516967D01*
X160882158Y-135498601D01*
X160873658Y-135496323D01*
X160868365Y-135493855D01*
X160862875Y-135491857D01*
X160855256Y-135487458D01*
X160846594Y-135485931D01*
X160846592Y-135485930D01*
X160816635Y-135480648D01*
X160808068Y-135478748D01*
X160778692Y-135470877D01*
X160778691Y-135470877D01*
X160770190Y-135468599D01*
X160761423Y-135469366D01*
X160731123Y-135472017D01*
X160722355Y-135472400D01*
X155138468Y-135472400D01*
X155079337Y-135453187D01*
X155054871Y-135427763D01*
X155040291Y-135405984D01*
X155034790Y-135397767D01*
X154619431Y-134982410D01*
X154568792Y-134948680D01*
X154526678Y-134940341D01*
X154514632Y-134937956D01*
X154514630Y-134937956D01*
X154509803Y-134937000D01*
X153922397Y-134937000D01*
X153862738Y-134948957D01*
X153812767Y-134982410D01*
X153397410Y-135397769D01*
X153363680Y-135448408D01*
X153352000Y-135507397D01*
X153352000Y-136094803D01*
X140638000Y-136094803D01*
X140638000Y-135393750D01*
X140626043Y-135334091D01*
X140592590Y-135284120D01*
X140073078Y-134764610D01*
X140022439Y-134730880D01*
X139980325Y-134722541D01*
X139968279Y-134720156D01*
X139968277Y-134720156D01*
X139963450Y-134719200D01*
X139228750Y-134719200D01*
X139169091Y-134731157D01*
X139119120Y-134764610D01*
X138599610Y-135284122D01*
X138596850Y-135288266D01*
X138571802Y-135325871D01*
X138565880Y-135334761D01*
X138554200Y-135393750D01*
X138554200Y-136128450D01*
X133877654Y-136128450D01*
X134059330Y-136077041D01*
X134286298Y-135971204D01*
X134493425Y-135830440D01*
X134675382Y-135658372D01*
X134797536Y-135498601D01*
X134825034Y-135462636D01*
X134825035Y-135462634D01*
X134827488Y-135459426D01*
X134945829Y-135238720D01*
X134987085Y-135118905D01*
X135026046Y-135005752D01*
X135027361Y-135001933D01*
X135069987Y-134755156D01*
X135071350Y-134725142D01*
X135071350Y-131845622D01*
X135056329Y-131658925D01*
X135046612Y-131619364D01*
X138554200Y-131619364D01*
X138566019Y-131678780D01*
X138611040Y-131746160D01*
X138678420Y-131791181D01*
X138737836Y-131803000D01*
X140454364Y-131803000D01*
X140513780Y-131791181D01*
X140581160Y-131746160D01*
X140626181Y-131678780D01*
X140638000Y-131619364D01*
X140638000Y-129902836D01*
X140626181Y-129843420D01*
X140581160Y-129776040D01*
X140513780Y-129731019D01*
X140454364Y-129719200D01*
X138737836Y-129719200D01*
X138678420Y-129731019D01*
X138611040Y-129776040D01*
X138566019Y-129843420D01*
X138554200Y-129902836D01*
X138554200Y-131619364D01*
X135046612Y-131619364D01*
X135041426Y-131598251D01*
X134997557Y-131419650D01*
X134997555Y-131419645D01*
X134996592Y-131415723D01*
X134898741Y-131185200D01*
X134830441Y-131076742D01*
X134767446Y-130976707D01*
X134767444Y-130976704D01*
X134765292Y-130973287D01*
X134599679Y-130785435D01*
X134406163Y-130626479D01*
X134273541Y-130549291D01*
X134193216Y-130502541D01*
X134193215Y-130502540D01*
X134189721Y-130500507D01*
X134049983Y-130446867D01*
X133959701Y-130412211D01*
X133959698Y-130412210D01*
X133955923Y-130410761D01*
X133710784Y-130359548D01*
X133460611Y-130348188D01*
X133456593Y-130348653D01*
X133456590Y-130348653D01*
X133215855Y-130376507D01*
X133215851Y-130376508D01*
X133211839Y-130376972D01*
X132970870Y-130445159D01*
X132743902Y-130550996D01*
X132536775Y-130691760D01*
X132354818Y-130863828D01*
X132202712Y-131062774D01*
X132084371Y-131283480D01*
X132083054Y-131287304D01*
X132083053Y-131287307D01*
X132034584Y-131428073D01*
X132002839Y-131520267D01*
X131963820Y-131746160D01*
X131962732Y-131752461D01*
X131933735Y-131807459D01*
X131877948Y-131834909D01*
X131816681Y-131824327D01*
X131773336Y-131779753D01*
X131763000Y-131735338D01*
X131763000Y-130296313D01*
X131782213Y-130237182D01*
X131792465Y-130225178D01*
X132353041Y-129664603D01*
X132936466Y-129081178D01*
X132936469Y-129081174D01*
X132959392Y-129058251D01*
X132970517Y-129036417D01*
X132978759Y-129022967D01*
X132993170Y-129003132D01*
X133000743Y-128979824D01*
X133006785Y-128965238D01*
X133014315Y-128950459D01*
X133017909Y-128943406D01*
X133021743Y-128919199D01*
X133025426Y-128903857D01*
X133032999Y-128880547D01*
X133032999Y-128848130D01*
X133033000Y-128848124D01*
X133033000Y-128613077D01*
X133052213Y-128553946D01*
X133080585Y-128527581D01*
X133218356Y-128442160D01*
X133360900Y-128307362D01*
X133457813Y-128168957D01*
X133470509Y-128150825D01*
X133470510Y-128150824D01*
X133473428Y-128146656D01*
X133551343Y-127966604D01*
X133567891Y-127887397D01*
X133590674Y-127778343D01*
X133590675Y-127778337D01*
X133591463Y-127774564D01*
X133591800Y-127768133D01*
X133591800Y-127722127D01*
X134200400Y-127722127D01*
X134215246Y-127868282D01*
X134237392Y-127938949D01*
X134266540Y-128031960D01*
X134273914Y-128055492D01*
X134276381Y-128059942D01*
X134276382Y-128059945D01*
X134335362Y-128166347D01*
X134369027Y-128227080D01*
X134496700Y-128376039D01*
X134500730Y-128379165D01*
X134630252Y-128479632D01*
X134651718Y-128496283D01*
X134827748Y-128582901D01*
X134832676Y-128584185D01*
X134832677Y-128584185D01*
X134833629Y-128584433D01*
X135017600Y-128632354D01*
X135022684Y-128632620D01*
X135022688Y-128632621D01*
X135131169Y-128638306D01*
X135213517Y-128642621D01*
X135218555Y-128641859D01*
X135218556Y-128641859D01*
X135265977Y-128634687D01*
X135407498Y-128613284D01*
X135591618Y-128545541D01*
X135758356Y-128442160D01*
X135900900Y-128307362D01*
X135997813Y-128168957D01*
X136010509Y-128150825D01*
X136010510Y-128150824D01*
X136013428Y-128146656D01*
X136091343Y-127966604D01*
X136107891Y-127887397D01*
X136130674Y-127778343D01*
X136130675Y-127778337D01*
X136131463Y-127774564D01*
X136131800Y-127768133D01*
X136131800Y-126100073D01*
X136116954Y-125953918D01*
X136079011Y-125832841D01*
X136059809Y-125771567D01*
X136059808Y-125771565D01*
X136058286Y-125766708D01*
X136006412Y-125673124D01*
X135966795Y-125601655D01*
X135963173Y-125595120D01*
X135942729Y-125571267D01*
X135918837Y-125513866D01*
X135933247Y-125453385D01*
X135947978Y-125434665D01*
X136575179Y-124807465D01*
X136630577Y-124779239D01*
X136646314Y-124778000D01*
X142184308Y-124778000D01*
X142243439Y-124797213D01*
X142279984Y-124847513D01*
X142279984Y-124909687D01*
X142255444Y-124949734D01*
X141967410Y-125237769D01*
X141964650Y-125241913D01*
X141939602Y-125279518D01*
X141933680Y-125288408D01*
X141922000Y-125347397D01*
X141922000Y-125934803D01*
X141933957Y-125994462D01*
X141967410Y-126044433D01*
X141970887Y-126047910D01*
X142349735Y-126426756D01*
X142377961Y-126482153D01*
X142379200Y-126497891D01*
X142379200Y-131145887D01*
X142359987Y-131205018D01*
X142349735Y-131217022D01*
X140755400Y-132811357D01*
X140700002Y-132839583D01*
X140638594Y-132829857D01*
X140600670Y-132796188D01*
X140595329Y-132788211D01*
X140595327Y-132788209D01*
X140592590Y-132784120D01*
X140073078Y-132264610D01*
X140048469Y-132248218D01*
X140030671Y-132236363D01*
X140030670Y-132236363D01*
X140022439Y-132230880D01*
X139980325Y-132222541D01*
X139968279Y-132220156D01*
X139968277Y-132220156D01*
X139963450Y-132219200D01*
X139228750Y-132219200D01*
X139169091Y-132231157D01*
X139119120Y-132264610D01*
X138599610Y-132784122D01*
X138565880Y-132834761D01*
X138563959Y-132844465D01*
X138556129Y-132884010D01*
X138554200Y-132893750D01*
X138554200Y-133628450D01*
X138566157Y-133688109D01*
X138599610Y-133738080D01*
X139119122Y-134257590D01*
X139169761Y-134291320D01*
X139211875Y-134299659D01*
X139223921Y-134302044D01*
X139223923Y-134302044D01*
X139228750Y-134303000D01*
X139963450Y-134303000D01*
X140023109Y-134291043D01*
X140073080Y-134257590D01*
X140592590Y-133738078D01*
X140595349Y-133733936D01*
X140595353Y-133733931D01*
X140609408Y-133712830D01*
X140658179Y-133674268D01*
X140693134Y-133668000D01*
X140945546Y-133668000D01*
X140968852Y-133660427D01*
X140984198Y-133656743D01*
X141000589Y-133654147D01*
X141008406Y-133652909D01*
X141030242Y-133641783D01*
X141044818Y-133635745D01*
X141068132Y-133628170D01*
X141087959Y-133613764D01*
X141101413Y-133605519D01*
X141123251Y-133594392D01*
X143098279Y-131619364D01*
X171574200Y-131619364D01*
X171586019Y-131678780D01*
X171631040Y-131746160D01*
X171698420Y-131791181D01*
X171757836Y-131803000D01*
X173474364Y-131803000D01*
X173533780Y-131791181D01*
X173601160Y-131746160D01*
X173646181Y-131678780D01*
X173658000Y-131619364D01*
X173658000Y-130181164D01*
X178012400Y-130181164D01*
X178024219Y-130240580D01*
X178069240Y-130307960D01*
X178136620Y-130352981D01*
X178196036Y-130364800D01*
X181036164Y-130364800D01*
X181095580Y-130352981D01*
X181162960Y-130307960D01*
X181207981Y-130240580D01*
X181219800Y-130181164D01*
X181219800Y-129880000D01*
X193576454Y-129880000D01*
X193595802Y-130101149D01*
X193596940Y-130105394D01*
X193596940Y-130105397D01*
X193598481Y-130111149D01*
X193653258Y-130315578D01*
X193747077Y-130516773D01*
X193749596Y-130520370D01*
X193871549Y-130694538D01*
X193874407Y-130698620D01*
X194031380Y-130855593D01*
X194034974Y-130858110D01*
X194034977Y-130858112D01*
X194122304Y-130919258D01*
X194213227Y-130982923D01*
X194414422Y-131076742D01*
X194550931Y-131113319D01*
X194624603Y-131133060D01*
X194624606Y-131133060D01*
X194628851Y-131134198D01*
X194850000Y-131153546D01*
X195071149Y-131134198D01*
X195075394Y-131133060D01*
X195075397Y-131133060D01*
X195149069Y-131113319D01*
X195285578Y-131076742D01*
X195486773Y-130982923D01*
X195577697Y-130919258D01*
X195665023Y-130858112D01*
X195665026Y-130858110D01*
X195668620Y-130855593D01*
X195825593Y-130698620D01*
X195828452Y-130694538D01*
X195950404Y-130520370D01*
X195952923Y-130516773D01*
X196046742Y-130315578D01*
X196101519Y-130111149D01*
X196103060Y-130105397D01*
X196103060Y-130105394D01*
X196104198Y-130101149D01*
X196123546Y-129880000D01*
X196104198Y-129658851D01*
X196102693Y-129653232D01*
X196052101Y-129464422D01*
X196046742Y-129444422D01*
X195952923Y-129243227D01*
X195839453Y-129081174D01*
X195828112Y-129064977D01*
X195828110Y-129064974D01*
X195825593Y-129061380D01*
X195668620Y-128904407D01*
X195665026Y-128901890D01*
X195665023Y-128901888D01*
X195577697Y-128840742D01*
X195486773Y-128777077D01*
X195285578Y-128683258D01*
X195144361Y-128645419D01*
X195075397Y-128626940D01*
X195075394Y-128626940D01*
X195071149Y-128625802D01*
X194850000Y-128606454D01*
X194628851Y-128625802D01*
X194624606Y-128626940D01*
X194624603Y-128626940D01*
X194555639Y-128645419D01*
X194414422Y-128683258D01*
X194213227Y-128777077D01*
X194122303Y-128840742D01*
X194034977Y-128901888D01*
X194034974Y-128901890D01*
X194031380Y-128904407D01*
X193874407Y-129061380D01*
X193871890Y-129064974D01*
X193871888Y-129064977D01*
X193860547Y-129081174D01*
X193747077Y-129243227D01*
X193653258Y-129444422D01*
X193647899Y-129464422D01*
X193597308Y-129653232D01*
X193595802Y-129658851D01*
X193576454Y-129880000D01*
X181219800Y-129880000D01*
X181219800Y-127747176D01*
X193428601Y-127747176D01*
X193428823Y-127751884D01*
X193431043Y-127775380D01*
X193433653Y-127787275D01*
X193474602Y-127903878D01*
X193481562Y-127917024D01*
X193554164Y-128015321D01*
X193564679Y-128025836D01*
X193662976Y-128098438D01*
X193676122Y-128105398D01*
X193792729Y-128146349D01*
X193804614Y-128148957D01*
X193828100Y-128151177D01*
X193832841Y-128151400D01*
X194605867Y-128151400D01*
X194618757Y-128147212D01*
X194621800Y-128143023D01*
X194621800Y-128135466D01*
X195078200Y-128135466D01*
X195082388Y-128148356D01*
X195086577Y-128151399D01*
X195867176Y-128151399D01*
X195871884Y-128151177D01*
X195895380Y-128148957D01*
X195907275Y-128146347D01*
X196023878Y-128105398D01*
X196037024Y-128098438D01*
X196135321Y-128025836D01*
X196145836Y-128015321D01*
X196218438Y-127917024D01*
X196225398Y-127903878D01*
X196266349Y-127787271D01*
X196268957Y-127775386D01*
X196271177Y-127751900D01*
X196271400Y-127747159D01*
X196271400Y-127024133D01*
X196267212Y-127011243D01*
X196263023Y-127008200D01*
X195094133Y-127008200D01*
X195081243Y-127012388D01*
X195078200Y-127016577D01*
X195078200Y-128135466D01*
X194621800Y-128135466D01*
X194621800Y-127024133D01*
X194617612Y-127011243D01*
X194613423Y-127008200D01*
X193444534Y-127008200D01*
X193431644Y-127012388D01*
X193428601Y-127016577D01*
X193428601Y-127747176D01*
X181219800Y-127747176D01*
X181219800Y-127341036D01*
X181207981Y-127281620D01*
X181162960Y-127214240D01*
X181095580Y-127169219D01*
X181036164Y-127157400D01*
X178196036Y-127157400D01*
X178136620Y-127169219D01*
X178069240Y-127214240D01*
X178024219Y-127281620D01*
X178012400Y-127341036D01*
X178012400Y-130181164D01*
X173658000Y-130181164D01*
X173658000Y-129902836D01*
X173646181Y-129843420D01*
X173601160Y-129776040D01*
X173533780Y-129731019D01*
X173474364Y-129719200D01*
X173138600Y-129719200D01*
X173079469Y-129699987D01*
X173042924Y-129649687D01*
X173038000Y-129618600D01*
X173038000Y-127756313D01*
X173057213Y-127697182D01*
X173067465Y-127685178D01*
X174216776Y-126535867D01*
X193428600Y-126535867D01*
X193432788Y-126548757D01*
X193436977Y-126551800D01*
X194605867Y-126551800D01*
X194618757Y-126547612D01*
X194621800Y-126543423D01*
X194621800Y-126535867D01*
X195078200Y-126535867D01*
X195082388Y-126548757D01*
X195086577Y-126551800D01*
X196255466Y-126551800D01*
X196268356Y-126547612D01*
X196271399Y-126543423D01*
X196271399Y-125812824D01*
X196271177Y-125808116D01*
X196268957Y-125784620D01*
X196266347Y-125772725D01*
X196225398Y-125656122D01*
X196218438Y-125642976D01*
X196145836Y-125544679D01*
X196135321Y-125534164D01*
X196037024Y-125461562D01*
X196023878Y-125454602D01*
X195907271Y-125413651D01*
X195895386Y-125411043D01*
X195871900Y-125408823D01*
X195867159Y-125408600D01*
X195094133Y-125408600D01*
X195081243Y-125412788D01*
X195078200Y-125416977D01*
X195078200Y-126535867D01*
X194621800Y-126535867D01*
X194621800Y-125424534D01*
X194617612Y-125411644D01*
X194613423Y-125408601D01*
X193832824Y-125408601D01*
X193828116Y-125408823D01*
X193804620Y-125411043D01*
X193792725Y-125413653D01*
X193676122Y-125454602D01*
X193662976Y-125461562D01*
X193564679Y-125534164D01*
X193554164Y-125544679D01*
X193481562Y-125642976D01*
X193474602Y-125656122D01*
X193433651Y-125772729D01*
X193431043Y-125784614D01*
X193428823Y-125808100D01*
X193428600Y-125812841D01*
X193428600Y-126535867D01*
X174216776Y-126535867D01*
X174217978Y-126534665D01*
X174273376Y-126506439D01*
X174289113Y-126505200D01*
X174829803Y-126505200D01*
X174889462Y-126493243D01*
X174939433Y-126459790D01*
X175354790Y-126044431D01*
X175371182Y-126019822D01*
X175383037Y-126002024D01*
X175383037Y-126002023D01*
X175388520Y-125993792D01*
X175400200Y-125934803D01*
X175400200Y-125347397D01*
X175388243Y-125287738D01*
X175354790Y-125237767D01*
X174939431Y-124822410D01*
X174888792Y-124788680D01*
X174837293Y-124778483D01*
X174834632Y-124777956D01*
X174834630Y-124777956D01*
X174829803Y-124777000D01*
X174242397Y-124777000D01*
X174182738Y-124788957D01*
X174132767Y-124822410D01*
X173717410Y-125237769D01*
X173714650Y-125241913D01*
X173689602Y-125279518D01*
X173683680Y-125288408D01*
X173672000Y-125347397D01*
X173672000Y-125888087D01*
X173652787Y-125947218D01*
X173642535Y-125959222D01*
X172297808Y-127303949D01*
X172286681Y-127325787D01*
X172278436Y-127339241D01*
X172264030Y-127359068D01*
X172256456Y-127382379D01*
X172250417Y-127396958D01*
X172239291Y-127418794D01*
X172238053Y-127426611D01*
X172235457Y-127443002D01*
X172231773Y-127458348D01*
X172224200Y-127481654D01*
X172224200Y-129618600D01*
X172204987Y-129677731D01*
X172154687Y-129714276D01*
X172123600Y-129719200D01*
X171757836Y-129719200D01*
X171698420Y-129731019D01*
X171631040Y-129776040D01*
X171586019Y-129843420D01*
X171574200Y-129902836D01*
X171574200Y-131619364D01*
X143098279Y-131619364D01*
X143119392Y-131598251D01*
X143130519Y-131576413D01*
X143138765Y-131562958D01*
X143148514Y-131549540D01*
X143153170Y-131543132D01*
X143160745Y-131519818D01*
X143166784Y-131505240D01*
X143174316Y-131490458D01*
X143174316Y-131490457D01*
X143177909Y-131483406D01*
X143181743Y-131459198D01*
X143185427Y-131443852D01*
X143193000Y-131420546D01*
X143193000Y-130181164D01*
X144992400Y-130181164D01*
X145004219Y-130240580D01*
X145049240Y-130307960D01*
X145116620Y-130352981D01*
X145176036Y-130364800D01*
X148016164Y-130364800D01*
X148075580Y-130352981D01*
X148142960Y-130307960D01*
X148187981Y-130240580D01*
X148199800Y-130181164D01*
X148199800Y-129870000D01*
X161836454Y-129870000D01*
X161855802Y-130091149D01*
X161856940Y-130095394D01*
X161856940Y-130095397D01*
X161863840Y-130121149D01*
X161913258Y-130305578D01*
X162007077Y-130506773D01*
X162134407Y-130688620D01*
X162291380Y-130845593D01*
X162294974Y-130848110D01*
X162294977Y-130848112D01*
X162337822Y-130878112D01*
X162473227Y-130972923D01*
X162674422Y-131066742D01*
X162779457Y-131094886D01*
X162884603Y-131123060D01*
X162884606Y-131123060D01*
X162888851Y-131124198D01*
X163110000Y-131143546D01*
X163331149Y-131124198D01*
X163335394Y-131123060D01*
X163335397Y-131123060D01*
X163440543Y-131094886D01*
X163545578Y-131066742D01*
X163746773Y-130972923D01*
X163882178Y-130878112D01*
X163925023Y-130848112D01*
X163925026Y-130848110D01*
X163928620Y-130845593D01*
X164085593Y-130688620D01*
X164212923Y-130506773D01*
X164306742Y-130305578D01*
X164356160Y-130121149D01*
X164363060Y-130095397D01*
X164363060Y-130095394D01*
X164364198Y-130091149D01*
X164383546Y-129870000D01*
X164364198Y-129648851D01*
X164306742Y-129434422D01*
X164212923Y-129233227D01*
X164106455Y-129081174D01*
X164088112Y-129054977D01*
X164088110Y-129054974D01*
X164085593Y-129051380D01*
X163928620Y-128894407D01*
X163925026Y-128891890D01*
X163925023Y-128891888D01*
X163793215Y-128799596D01*
X163746773Y-128767077D01*
X163545578Y-128673258D01*
X163404361Y-128635419D01*
X163335397Y-128616940D01*
X163335394Y-128616940D01*
X163331149Y-128615802D01*
X163110000Y-128596454D01*
X162888851Y-128615802D01*
X162884606Y-128616940D01*
X162884603Y-128616940D01*
X162815639Y-128635419D01*
X162674422Y-128673258D01*
X162473227Y-128767077D01*
X162426785Y-128799596D01*
X162294977Y-128891888D01*
X162294974Y-128891890D01*
X162291380Y-128894407D01*
X162134407Y-129051380D01*
X162131890Y-129054974D01*
X162131888Y-129054977D01*
X162113545Y-129081174D01*
X162007077Y-129233227D01*
X161913258Y-129434422D01*
X161855802Y-129648851D01*
X161836454Y-129870000D01*
X148199800Y-129870000D01*
X148199800Y-127341036D01*
X148187981Y-127281620D01*
X148142960Y-127214240D01*
X148075580Y-127169219D01*
X148016164Y-127157400D01*
X145176036Y-127157400D01*
X145116620Y-127169219D01*
X145049240Y-127214240D01*
X145004219Y-127281620D01*
X144992400Y-127341036D01*
X144992400Y-130181164D01*
X143193000Y-130181164D01*
X143193000Y-126497893D01*
X143212213Y-126438762D01*
X143222465Y-126426758D01*
X143601269Y-126047952D01*
X143604790Y-126044431D01*
X143621182Y-126019822D01*
X143633037Y-126002024D01*
X143633037Y-126002023D01*
X143638520Y-125993792D01*
X143650200Y-125934803D01*
X143650200Y-125347397D01*
X143638243Y-125287738D01*
X143604790Y-125237767D01*
X143535064Y-125168041D01*
X143316757Y-124949735D01*
X143288531Y-124894337D01*
X143298257Y-124832929D01*
X143342220Y-124788965D01*
X143387892Y-124778000D01*
X148925887Y-124778000D01*
X148985018Y-124797213D01*
X148997022Y-124807465D01*
X149512535Y-125322979D01*
X149540761Y-125378377D01*
X149542000Y-125394114D01*
X149542000Y-125934803D01*
X149553957Y-125994462D01*
X149587410Y-126044433D01*
X149590887Y-126047910D01*
X149793784Y-126250806D01*
X150002769Y-126459790D01*
X150025206Y-126474735D01*
X150036343Y-126482153D01*
X150053408Y-126493520D01*
X150095522Y-126501859D01*
X150107568Y-126504244D01*
X150107570Y-126504244D01*
X150112397Y-126505200D01*
X150699803Y-126505200D01*
X150759462Y-126493243D01*
X150809433Y-126459790D01*
X151191756Y-126077465D01*
X151247153Y-126049239D01*
X151262891Y-126048000D01*
X153708600Y-126048000D01*
X153767731Y-126067213D01*
X153804276Y-126117513D01*
X153809200Y-126148600D01*
X153809200Y-127324307D01*
X153789987Y-127383438D01*
X153779735Y-127395442D01*
X153490001Y-127685178D01*
X153397410Y-127777769D01*
X153391081Y-127787271D01*
X153369602Y-127819518D01*
X153363680Y-127828408D01*
X153352000Y-127887397D01*
X153352000Y-128474803D01*
X153363957Y-128534462D01*
X153397410Y-128584433D01*
X153812769Y-128999790D01*
X153863408Y-129033520D01*
X153905522Y-129041859D01*
X153917568Y-129044244D01*
X153917570Y-129044244D01*
X153922397Y-129045200D01*
X154509803Y-129045200D01*
X154569462Y-129033243D01*
X154619433Y-128999790D01*
X154724816Y-128894407D01*
X155031269Y-128587952D01*
X155034790Y-128584431D01*
X155055096Y-128553946D01*
X155063037Y-128542024D01*
X155063037Y-128542023D01*
X155068520Y-128533792D01*
X155080200Y-128474803D01*
X155080200Y-127887397D01*
X155068243Y-127827738D01*
X155034790Y-127777767D01*
X154994199Y-127737176D01*
X161688601Y-127737176D01*
X161688823Y-127741884D01*
X161691043Y-127765380D01*
X161693653Y-127777275D01*
X161734602Y-127893878D01*
X161741562Y-127907024D01*
X161814164Y-128005321D01*
X161824679Y-128015836D01*
X161922976Y-128088438D01*
X161936122Y-128095398D01*
X162052729Y-128136349D01*
X162064614Y-128138957D01*
X162088100Y-128141177D01*
X162092841Y-128141400D01*
X162865867Y-128141400D01*
X162878757Y-128137212D01*
X162881800Y-128133023D01*
X162881800Y-128125466D01*
X163338200Y-128125466D01*
X163342388Y-128138356D01*
X163346577Y-128141399D01*
X164127176Y-128141399D01*
X164131884Y-128141177D01*
X164155380Y-128138957D01*
X164167275Y-128136347D01*
X164283878Y-128095398D01*
X164297024Y-128088438D01*
X164395321Y-128015836D01*
X164405836Y-128005321D01*
X164478438Y-127907024D01*
X164485398Y-127893878D01*
X164526349Y-127777271D01*
X164528957Y-127765386D01*
X164531177Y-127741900D01*
X164531400Y-127737159D01*
X164531400Y-127014133D01*
X164527212Y-127001243D01*
X164523023Y-126998200D01*
X163354133Y-126998200D01*
X163341243Y-127002388D01*
X163338200Y-127006577D01*
X163338200Y-128125466D01*
X162881800Y-128125466D01*
X162881800Y-127014133D01*
X162877612Y-127001243D01*
X162873423Y-126998200D01*
X161704534Y-126998200D01*
X161691644Y-127002388D01*
X161688601Y-127006577D01*
X161688601Y-127737176D01*
X154994199Y-127737176D01*
X154652465Y-127395444D01*
X154624239Y-127340047D01*
X154623000Y-127324309D01*
X154623000Y-125681626D01*
X154642213Y-125622495D01*
X154692513Y-125585950D01*
X154723600Y-125581026D01*
X161615510Y-125581026D01*
X161674641Y-125600239D01*
X161711186Y-125650539D01*
X161710427Y-125714959D01*
X161693651Y-125762729D01*
X161691043Y-125774614D01*
X161688823Y-125798100D01*
X161688600Y-125802841D01*
X161688600Y-126525867D01*
X161692788Y-126538757D01*
X161696977Y-126541800D01*
X164515466Y-126541800D01*
X164528356Y-126537612D01*
X164531399Y-126533423D01*
X164531399Y-125802824D01*
X164531177Y-125798116D01*
X164528957Y-125774620D01*
X164526347Y-125762724D01*
X164509573Y-125714959D01*
X164508108Y-125652802D01*
X164543458Y-125601655D01*
X164604490Y-125581026D01*
X165951400Y-125581026D01*
X166010531Y-125600239D01*
X166047076Y-125650539D01*
X166052000Y-125681626D01*
X166052000Y-125934803D01*
X166063957Y-125994462D01*
X166097410Y-126044433D01*
X166100887Y-126047910D01*
X166303784Y-126250806D01*
X166512769Y-126459790D01*
X166535206Y-126474735D01*
X166546343Y-126482153D01*
X166563408Y-126493520D01*
X166605522Y-126501859D01*
X166617568Y-126504244D01*
X166617570Y-126504244D01*
X166622397Y-126505200D01*
X167209803Y-126505200D01*
X167269462Y-126493243D01*
X167319433Y-126459790D01*
X167734790Y-126044431D01*
X167751182Y-126019822D01*
X167763037Y-126002024D01*
X167763037Y-126002023D01*
X167768520Y-125993792D01*
X167780200Y-125934803D01*
X167780200Y-125347397D01*
X167768243Y-125287738D01*
X167734790Y-125237767D01*
X167319431Y-124822410D01*
X167268792Y-124788680D01*
X167217293Y-124778483D01*
X167214632Y-124777956D01*
X167214630Y-124777956D01*
X167209803Y-124777000D01*
X166622397Y-124777000D01*
X166604979Y-124780491D01*
X166569474Y-124781215D01*
X166552221Y-124778483D01*
X166536878Y-124774799D01*
X166513572Y-124767226D01*
X154383628Y-124767226D01*
X154360322Y-124774799D01*
X154344976Y-124778483D01*
X154320768Y-124782317D01*
X154313717Y-124785910D01*
X154313716Y-124785910D01*
X154298934Y-124793442D01*
X154284356Y-124799481D01*
X154261042Y-124807056D01*
X154243674Y-124819675D01*
X154241216Y-124821461D01*
X154227761Y-124829707D01*
X154205923Y-124840834D01*
X153842022Y-125204735D01*
X153786624Y-125232961D01*
X153770887Y-125234200D01*
X151262893Y-125234200D01*
X151203762Y-125214987D01*
X151191758Y-125204735D01*
X150812952Y-124825931D01*
X150809431Y-124822410D01*
X150758792Y-124788680D01*
X150707293Y-124778483D01*
X150704632Y-124777956D01*
X150704630Y-124777956D01*
X150699803Y-124777000D01*
X150159114Y-124777000D01*
X150099983Y-124757787D01*
X150087979Y-124747535D01*
X149401177Y-124060734D01*
X149378251Y-124037808D01*
X149356413Y-124026681D01*
X149342958Y-124018435D01*
X149329540Y-124008686D01*
X149329541Y-124008686D01*
X149323132Y-124004030D01*
X149299818Y-123996455D01*
X149285240Y-123990416D01*
X149270458Y-123982884D01*
X149270457Y-123982884D01*
X149263406Y-123979291D01*
X149239198Y-123975457D01*
X149223852Y-123971773D01*
X149200546Y-123964200D01*
X136404076Y-123964200D01*
X136404072Y-123964201D01*
X136371653Y-123964201D01*
X136364125Y-123966647D01*
X136364124Y-123966647D01*
X136360192Y-123967925D01*
X136348343Y-123971774D01*
X136333000Y-123975457D01*
X136316614Y-123978052D01*
X136316612Y-123978053D01*
X136308794Y-123979291D01*
X136301740Y-123982885D01*
X136301741Y-123982885D01*
X136286962Y-123990415D01*
X136272376Y-123996457D01*
X136264487Y-123999020D01*
X136249068Y-124004030D01*
X136229233Y-124018441D01*
X136215783Y-124026683D01*
X136193949Y-124037808D01*
X136171026Y-124060731D01*
X136171022Y-124060734D01*
X136171014Y-124060742D01*
X135063716Y-125168041D01*
X135007625Y-125196375D01*
X134924702Y-125208916D01*
X134740582Y-125276659D01*
X134573844Y-125380040D01*
X134431300Y-125514838D01*
X134318772Y-125675544D01*
X134316750Y-125680217D01*
X134252756Y-125828100D01*
X134240857Y-125855596D01*
X134239814Y-125860589D01*
X134202260Y-126040347D01*
X134200737Y-126047636D01*
X134200400Y-126054067D01*
X134200400Y-127722127D01*
X133591800Y-127722127D01*
X133591800Y-126100073D01*
X133576954Y-125953918D01*
X133539011Y-125832841D01*
X133519809Y-125771567D01*
X133519808Y-125771565D01*
X133518286Y-125766708D01*
X133466412Y-125673124D01*
X133426795Y-125601655D01*
X133423173Y-125595120D01*
X133295500Y-125446161D01*
X133208113Y-125378377D01*
X133144511Y-125329042D01*
X133144510Y-125329041D01*
X133140482Y-125325917D01*
X132964452Y-125239299D01*
X132958579Y-125237769D01*
X132937387Y-125232249D01*
X132774600Y-125189846D01*
X132769516Y-125189580D01*
X132769512Y-125189579D01*
X132661031Y-125183894D01*
X132578683Y-125179579D01*
X132573645Y-125180341D01*
X132573644Y-125180341D01*
X132526223Y-125187513D01*
X132384702Y-125208916D01*
X132200582Y-125276659D01*
X132033844Y-125380040D01*
X131891300Y-125514838D01*
X131778772Y-125675544D01*
X131776750Y-125680217D01*
X131712756Y-125828100D01*
X131700857Y-125855596D01*
X131699814Y-125860589D01*
X131662260Y-126040347D01*
X131660737Y-126047636D01*
X131660400Y-126054067D01*
X131660400Y-127722127D01*
X131675246Y-127868282D01*
X131697392Y-127938949D01*
X131726540Y-128031960D01*
X131733914Y-128055492D01*
X131736381Y-128059942D01*
X131736382Y-128059945D01*
X131795362Y-128166347D01*
X131829027Y-128227080D01*
X131956700Y-128376039D01*
X131960730Y-128379165D01*
X132090252Y-128479632D01*
X132111718Y-128496283D01*
X132116297Y-128498536D01*
X132159059Y-128519578D01*
X132203633Y-128562923D01*
X132214216Y-128624190D01*
X132185779Y-128680977D01*
X131113949Y-129752808D01*
X131022808Y-129843949D01*
X131011681Y-129865787D01*
X131003436Y-129879241D01*
X130989030Y-129899068D01*
X130986199Y-129907782D01*
X130981456Y-129922379D01*
X130975417Y-129936958D01*
X130964291Y-129958794D01*
X130963053Y-129966611D01*
X130960457Y-129983002D01*
X130956773Y-129998348D01*
X130949200Y-130021654D01*
X130949200Y-136225887D01*
X130929987Y-136285018D01*
X130919735Y-136297022D01*
X129312022Y-137904735D01*
X129256624Y-137932961D01*
X129240887Y-137934200D01*
X122041313Y-137934200D01*
X121982182Y-137914987D01*
X121970178Y-137904735D01*
X121922151Y-137856708D01*
X121900313Y-137845581D01*
X121886858Y-137837335D01*
X121873440Y-137827586D01*
X121873441Y-137827586D01*
X121867032Y-137822930D01*
X121843718Y-137815355D01*
X121829140Y-137809316D01*
X121814358Y-137801784D01*
X121814357Y-137801784D01*
X121807306Y-137798191D01*
X121783098Y-137794357D01*
X121767752Y-137790673D01*
X121744446Y-137783100D01*
X114844204Y-137783100D01*
X114785073Y-137763887D01*
X114753029Y-137725015D01*
X114732787Y-137681605D01*
X114672923Y-137553227D01*
X114552595Y-137381380D01*
X114548112Y-137374977D01*
X114548110Y-137374974D01*
X114545593Y-137371380D01*
X114388620Y-137214407D01*
X114385026Y-137211890D01*
X114385023Y-137211888D01*
X114224652Y-137099596D01*
X114206773Y-137087077D01*
X114005578Y-136993258D01*
X113828470Y-136945802D01*
X113795397Y-136936940D01*
X113795394Y-136936940D01*
X113791149Y-136935802D01*
X113570000Y-136916454D01*
X113348851Y-136935802D01*
X113344606Y-136936940D01*
X113344603Y-136936940D01*
X113311530Y-136945802D01*
X113134422Y-136993258D01*
X112933227Y-137087077D01*
X112915348Y-137099596D01*
X112754977Y-137211888D01*
X112754974Y-137211890D01*
X112751380Y-137214407D01*
X112594407Y-137371380D01*
X112591890Y-137374974D01*
X112591888Y-137374977D01*
X112587405Y-137381380D01*
X112467077Y-137553227D01*
X112373258Y-137754422D01*
X112353654Y-137827586D01*
X112317308Y-137963232D01*
X112315802Y-137968851D01*
X112296454Y-138190000D01*
X102162671Y-138190000D01*
X102144198Y-137978851D01*
X102142693Y-137973232D01*
X102106279Y-137837335D01*
X102086742Y-137764422D01*
X102084059Y-137758667D01*
X102057450Y-137701605D01*
X102049872Y-137639894D01*
X102077489Y-137587954D01*
X104988865Y-134676578D01*
X122560850Y-134676578D01*
X122575871Y-134863275D01*
X122576835Y-134867199D01*
X122576835Y-134867200D01*
X122608952Y-134997953D01*
X122635608Y-135106477D01*
X122733459Y-135337000D01*
X122735614Y-135340422D01*
X122854908Y-135529857D01*
X122866908Y-135548913D01*
X123032521Y-135736765D01*
X123226037Y-135895721D01*
X123229530Y-135897754D01*
X123229533Y-135897756D01*
X123394018Y-135993488D01*
X123442479Y-136021693D01*
X123446255Y-136023142D01*
X123446254Y-136023142D01*
X123672499Y-136109989D01*
X123672502Y-136109990D01*
X123676277Y-136111439D01*
X123878307Y-136153646D01*
X123905204Y-136159265D01*
X123921416Y-136162652D01*
X124171589Y-136174012D01*
X124175607Y-136173547D01*
X124175610Y-136173547D01*
X124416345Y-136145693D01*
X124416349Y-136145692D01*
X124420361Y-136145228D01*
X124661330Y-136077041D01*
X124888298Y-135971204D01*
X125095425Y-135830440D01*
X125277382Y-135658372D01*
X125399536Y-135498601D01*
X125427034Y-135462636D01*
X125427035Y-135462634D01*
X125429488Y-135459426D01*
X125547829Y-135238720D01*
X125589085Y-135118905D01*
X125628046Y-135005752D01*
X125629361Y-135001933D01*
X125671987Y-134755156D01*
X125673350Y-134725142D01*
X125673350Y-134676578D01*
X127259850Y-134676578D01*
X127274871Y-134863275D01*
X127275835Y-134867199D01*
X127275835Y-134867200D01*
X127307952Y-134997953D01*
X127334608Y-135106477D01*
X127432459Y-135337000D01*
X127434614Y-135340422D01*
X127553908Y-135529857D01*
X127565908Y-135548913D01*
X127731521Y-135736765D01*
X127925037Y-135895721D01*
X127928530Y-135897754D01*
X127928533Y-135897756D01*
X128093018Y-135993488D01*
X128141479Y-136021693D01*
X128145255Y-136023142D01*
X128145254Y-136023142D01*
X128371499Y-136109989D01*
X128371502Y-136109990D01*
X128375277Y-136111439D01*
X128577307Y-136153646D01*
X128604204Y-136159265D01*
X128620416Y-136162652D01*
X128870589Y-136174012D01*
X128874607Y-136173547D01*
X128874610Y-136173547D01*
X129115345Y-136145693D01*
X129115349Y-136145692D01*
X129119361Y-136145228D01*
X129360330Y-136077041D01*
X129587298Y-135971204D01*
X129794425Y-135830440D01*
X129976382Y-135658372D01*
X130098536Y-135498601D01*
X130126034Y-135462636D01*
X130126035Y-135462634D01*
X130128488Y-135459426D01*
X130246829Y-135238720D01*
X130288085Y-135118905D01*
X130327046Y-135005752D01*
X130328361Y-135001933D01*
X130370987Y-134755156D01*
X130372350Y-134725142D01*
X130372350Y-131845622D01*
X130357329Y-131658925D01*
X130342426Y-131598251D01*
X130298557Y-131419650D01*
X130298555Y-131419645D01*
X130297592Y-131415723D01*
X130199741Y-131185200D01*
X130131441Y-131076742D01*
X130068446Y-130976707D01*
X130068444Y-130976704D01*
X130066292Y-130973287D01*
X129900679Y-130785435D01*
X129707163Y-130626479D01*
X129574541Y-130549291D01*
X129494216Y-130502541D01*
X129494215Y-130502540D01*
X129490721Y-130500507D01*
X129350983Y-130446867D01*
X129260701Y-130412211D01*
X129260698Y-130412210D01*
X129256923Y-130410761D01*
X129011784Y-130359548D01*
X128761611Y-130348188D01*
X128757593Y-130348653D01*
X128757590Y-130348653D01*
X128516855Y-130376507D01*
X128516851Y-130376508D01*
X128512839Y-130376972D01*
X128271870Y-130445159D01*
X128044902Y-130550996D01*
X127837775Y-130691760D01*
X127655818Y-130863828D01*
X127503712Y-131062774D01*
X127385371Y-131283480D01*
X127384054Y-131287304D01*
X127384053Y-131287307D01*
X127335584Y-131428073D01*
X127303839Y-131520267D01*
X127261213Y-131767044D01*
X127259850Y-131797058D01*
X127259850Y-134676578D01*
X125673350Y-134676578D01*
X125673350Y-131845622D01*
X125658329Y-131658925D01*
X125643426Y-131598251D01*
X125599557Y-131419650D01*
X125599555Y-131419645D01*
X125598592Y-131415723D01*
X125500741Y-131185200D01*
X125432441Y-131076742D01*
X125369446Y-130976707D01*
X125369444Y-130976704D01*
X125367292Y-130973287D01*
X125201679Y-130785435D01*
X125008163Y-130626479D01*
X124875541Y-130549291D01*
X124795216Y-130502541D01*
X124795215Y-130502540D01*
X124791721Y-130500507D01*
X124651983Y-130446867D01*
X124561701Y-130412211D01*
X124561698Y-130412210D01*
X124557923Y-130410761D01*
X124312784Y-130359548D01*
X124062611Y-130348188D01*
X124058593Y-130348653D01*
X124058590Y-130348653D01*
X123817855Y-130376507D01*
X123817851Y-130376508D01*
X123813839Y-130376972D01*
X123572870Y-130445159D01*
X123345902Y-130550996D01*
X123138775Y-130691760D01*
X122956818Y-130863828D01*
X122804712Y-131062774D01*
X122686371Y-131283480D01*
X122685054Y-131287304D01*
X122685053Y-131287307D01*
X122636584Y-131428073D01*
X122604839Y-131520267D01*
X122562213Y-131767044D01*
X122560850Y-131797058D01*
X122560850Y-134676578D01*
X104988865Y-134676578D01*
X106089122Y-133576321D01*
X106100249Y-133554483D01*
X106108495Y-133541028D01*
X106118244Y-133527610D01*
X106122900Y-133521202D01*
X106130475Y-133497888D01*
X106136514Y-133483310D01*
X106144046Y-133468528D01*
X106144046Y-133468527D01*
X106147639Y-133461476D01*
X106151473Y-133437268D01*
X106155157Y-133421922D01*
X106162730Y-133398616D01*
X106162730Y-133257330D01*
X106183352Y-133196307D01*
X106893996Y-132264916D01*
X106902839Y-132254804D01*
X106924392Y-132233251D01*
X106931065Y-132220156D01*
X106950933Y-132181162D01*
X106952028Y-132179073D01*
X106976061Y-132134520D01*
X106979817Y-132127557D01*
X106980694Y-132122754D01*
X106982909Y-132118406D01*
X106992071Y-132060554D01*
X106992453Y-132058318D01*
X107002958Y-132000758D01*
X106998897Y-131970548D01*
X106998000Y-131957147D01*
X106998000Y-129890000D01*
X112296454Y-129890000D01*
X112315802Y-130111149D01*
X112316940Y-130115394D01*
X112316940Y-130115397D01*
X112318481Y-130121149D01*
X112373258Y-130325578D01*
X112467077Y-130526773D01*
X112469596Y-130530370D01*
X112589580Y-130701726D01*
X112594407Y-130708620D01*
X112751380Y-130865593D01*
X112754974Y-130868110D01*
X112754977Y-130868112D01*
X112769259Y-130878112D01*
X112933227Y-130992923D01*
X113134422Y-131086742D01*
X113269963Y-131123060D01*
X113344603Y-131143060D01*
X113344606Y-131143060D01*
X113348851Y-131144198D01*
X113570000Y-131163546D01*
X113791149Y-131144198D01*
X113795394Y-131143060D01*
X113795397Y-131143060D01*
X113870037Y-131123060D01*
X114005578Y-131086742D01*
X114206773Y-130992923D01*
X114370741Y-130878112D01*
X114385023Y-130868112D01*
X114385026Y-130868110D01*
X114388620Y-130865593D01*
X114545593Y-130708620D01*
X114550421Y-130701726D01*
X114670404Y-130530370D01*
X114672923Y-130526773D01*
X114766742Y-130325578D01*
X114821519Y-130121149D01*
X114823060Y-130115397D01*
X114823060Y-130115394D01*
X114824198Y-130111149D01*
X114843546Y-129890000D01*
X114824198Y-129668851D01*
X114822693Y-129663232D01*
X114767879Y-129458667D01*
X114766742Y-129454422D01*
X114672923Y-129253227D01*
X114552451Y-129081174D01*
X114548112Y-129074977D01*
X114548110Y-129074974D01*
X114545593Y-129071380D01*
X114388620Y-128914407D01*
X114385026Y-128911890D01*
X114385023Y-128911888D01*
X114224652Y-128799596D01*
X114206773Y-128787077D01*
X114005578Y-128693258D01*
X113828470Y-128645802D01*
X113795397Y-128636940D01*
X113795394Y-128636940D01*
X113791149Y-128635802D01*
X113570000Y-128616454D01*
X113348851Y-128635802D01*
X113344606Y-128636940D01*
X113344603Y-128636940D01*
X113311530Y-128645802D01*
X113134422Y-128693258D01*
X112933227Y-128787077D01*
X112915348Y-128799596D01*
X112754977Y-128911888D01*
X112754974Y-128911890D01*
X112751380Y-128914407D01*
X112594407Y-129071380D01*
X112591890Y-129074974D01*
X112591888Y-129074977D01*
X112587549Y-129081174D01*
X112467077Y-129253227D01*
X112373258Y-129454422D01*
X112372121Y-129458667D01*
X112317308Y-129663232D01*
X112315802Y-129668851D01*
X112296454Y-129890000D01*
X106998000Y-129890000D01*
X106998000Y-128391313D01*
X107017213Y-128332182D01*
X107027465Y-128320178D01*
X107590467Y-127757176D01*
X112148601Y-127757176D01*
X112148823Y-127761884D01*
X112151043Y-127785380D01*
X112153653Y-127797275D01*
X112194602Y-127913878D01*
X112201562Y-127927024D01*
X112274164Y-128025321D01*
X112284679Y-128035836D01*
X112382976Y-128108438D01*
X112396122Y-128115398D01*
X112512729Y-128156349D01*
X112524614Y-128158957D01*
X112548100Y-128161177D01*
X112552841Y-128161400D01*
X113325867Y-128161400D01*
X113338757Y-128157212D01*
X113341800Y-128153023D01*
X113341800Y-128145466D01*
X113798200Y-128145466D01*
X113802388Y-128158356D01*
X113806577Y-128161399D01*
X114587176Y-128161399D01*
X114591884Y-128161177D01*
X114615380Y-128158957D01*
X114627275Y-128156347D01*
X114743878Y-128115398D01*
X114757024Y-128108438D01*
X114855321Y-128035836D01*
X114865836Y-128025321D01*
X114938438Y-127927024D01*
X114945398Y-127913878D01*
X114986349Y-127797271D01*
X114988957Y-127785386D01*
X114991177Y-127761900D01*
X114991400Y-127757159D01*
X114991400Y-127034133D01*
X114987212Y-127021243D01*
X114983023Y-127018200D01*
X113814133Y-127018200D01*
X113801243Y-127022388D01*
X113798200Y-127026577D01*
X113798200Y-128145466D01*
X113341800Y-128145466D01*
X113341800Y-127034133D01*
X113337612Y-127021243D01*
X113333423Y-127018200D01*
X112164534Y-127018200D01*
X112151644Y-127022388D01*
X112148601Y-127026577D01*
X112148601Y-127757176D01*
X107590467Y-127757176D01*
X109488156Y-125859488D01*
X109543554Y-125831262D01*
X109559291Y-125830023D01*
X112048000Y-125830023D01*
X112107131Y-125849236D01*
X112143676Y-125899536D01*
X112148600Y-125930623D01*
X112148600Y-126545867D01*
X112152788Y-126558757D01*
X112156977Y-126561800D01*
X114975466Y-126561800D01*
X114988356Y-126557612D01*
X114991399Y-126553423D01*
X114991399Y-125930623D01*
X115010612Y-125871492D01*
X115060912Y-125834947D01*
X115091999Y-125830023D01*
X118227910Y-125830023D01*
X118287041Y-125849236D01*
X118299045Y-125859488D01*
X119661022Y-127221466D01*
X119661026Y-127221469D01*
X119683949Y-127244392D01*
X119691001Y-127247985D01*
X119691002Y-127247986D01*
X119705781Y-127255516D01*
X119719233Y-127263759D01*
X119739068Y-127278170D01*
X119749687Y-127281620D01*
X119762376Y-127285743D01*
X119776962Y-127291785D01*
X119798794Y-127302909D01*
X119806612Y-127304147D01*
X119806614Y-127304148D01*
X119823000Y-127306743D01*
X119838343Y-127310426D01*
X119850192Y-127314275D01*
X119854124Y-127315553D01*
X119854125Y-127315553D01*
X119861653Y-127317999D01*
X119894072Y-127317999D01*
X119894076Y-127318000D01*
X121399800Y-127318000D01*
X121458931Y-127337213D01*
X121495476Y-127387513D01*
X121500400Y-127418600D01*
X121500400Y-127722127D01*
X121515246Y-127868282D01*
X121537392Y-127938949D01*
X121566540Y-128031960D01*
X121573914Y-128055492D01*
X121576381Y-128059942D01*
X121576382Y-128059945D01*
X121635362Y-128166347D01*
X121669027Y-128227080D01*
X121796700Y-128376039D01*
X121800730Y-128379165D01*
X121930252Y-128479632D01*
X121951718Y-128496283D01*
X122127748Y-128582901D01*
X122132676Y-128584185D01*
X122132677Y-128584185D01*
X122133629Y-128584433D01*
X122317600Y-128632354D01*
X122322684Y-128632620D01*
X122322688Y-128632621D01*
X122431169Y-128638306D01*
X122513517Y-128642621D01*
X122518555Y-128641859D01*
X122518556Y-128641859D01*
X122565977Y-128634687D01*
X122707498Y-128613284D01*
X122891618Y-128545541D01*
X123058356Y-128442160D01*
X123200900Y-128307362D01*
X123297813Y-128168957D01*
X123310509Y-128150825D01*
X123310510Y-128150824D01*
X123313428Y-128146656D01*
X123391343Y-127966604D01*
X123407891Y-127887397D01*
X123430674Y-127778343D01*
X123430675Y-127778337D01*
X123431463Y-127774564D01*
X123431800Y-127768133D01*
X123431800Y-127722127D01*
X124040400Y-127722127D01*
X124055246Y-127868282D01*
X124077392Y-127938949D01*
X124106540Y-128031960D01*
X124113914Y-128055492D01*
X124116381Y-128059942D01*
X124116382Y-128059945D01*
X124175362Y-128166347D01*
X124209027Y-128227080D01*
X124336700Y-128376039D01*
X124340730Y-128379165D01*
X124470252Y-128479632D01*
X124491718Y-128496283D01*
X124667748Y-128582901D01*
X124672676Y-128584185D01*
X124672677Y-128584185D01*
X124673629Y-128584433D01*
X124857600Y-128632354D01*
X124862684Y-128632620D01*
X124862688Y-128632621D01*
X124971169Y-128638306D01*
X125053517Y-128642621D01*
X125058555Y-128641859D01*
X125058556Y-128641859D01*
X125105977Y-128634687D01*
X125247498Y-128613284D01*
X125431618Y-128545541D01*
X125598356Y-128442160D01*
X125740900Y-128307362D01*
X125837813Y-128168957D01*
X125850509Y-128150825D01*
X125850510Y-128150824D01*
X125853428Y-128146656D01*
X125931343Y-127966604D01*
X125947891Y-127887397D01*
X125970674Y-127778343D01*
X125970675Y-127778337D01*
X125971463Y-127774564D01*
X125971800Y-127768133D01*
X125971800Y-127722127D01*
X126580400Y-127722127D01*
X126595246Y-127868282D01*
X126617392Y-127938949D01*
X126646540Y-128031960D01*
X126653914Y-128055492D01*
X126656381Y-128059942D01*
X126656382Y-128059945D01*
X126715362Y-128166347D01*
X126749027Y-128227080D01*
X126876700Y-128376039D01*
X126880730Y-128379165D01*
X127010252Y-128479632D01*
X127031718Y-128496283D01*
X127207748Y-128582901D01*
X127212676Y-128584185D01*
X127212677Y-128584185D01*
X127213629Y-128584433D01*
X127397600Y-128632354D01*
X127402684Y-128632620D01*
X127402688Y-128632621D01*
X127511169Y-128638306D01*
X127593517Y-128642621D01*
X127598555Y-128641859D01*
X127598556Y-128641859D01*
X127645977Y-128634687D01*
X127787498Y-128613284D01*
X127971618Y-128545541D01*
X128138356Y-128442160D01*
X128280900Y-128307362D01*
X128377813Y-128168957D01*
X128390509Y-128150825D01*
X128390510Y-128150824D01*
X128393428Y-128146656D01*
X128471343Y-127966604D01*
X128487891Y-127887397D01*
X128510674Y-127778343D01*
X128510675Y-127778337D01*
X128511463Y-127774564D01*
X128511800Y-127768133D01*
X128511800Y-127722127D01*
X129120400Y-127722127D01*
X129135246Y-127868282D01*
X129157392Y-127938949D01*
X129186540Y-128031960D01*
X129193914Y-128055492D01*
X129196381Y-128059942D01*
X129196382Y-128059945D01*
X129255362Y-128166347D01*
X129289027Y-128227080D01*
X129416700Y-128376039D01*
X129420730Y-128379165D01*
X129550252Y-128479632D01*
X129571718Y-128496283D01*
X129747748Y-128582901D01*
X129752676Y-128584185D01*
X129752677Y-128584185D01*
X129753629Y-128584433D01*
X129937600Y-128632354D01*
X129942684Y-128632620D01*
X129942688Y-128632621D01*
X130051169Y-128638306D01*
X130133517Y-128642621D01*
X130138555Y-128641859D01*
X130138556Y-128641859D01*
X130185977Y-128634687D01*
X130327498Y-128613284D01*
X130511618Y-128545541D01*
X130678356Y-128442160D01*
X130820900Y-128307362D01*
X130917813Y-128168957D01*
X130930509Y-128150825D01*
X130930510Y-128150824D01*
X130933428Y-128146656D01*
X131011343Y-127966604D01*
X131027891Y-127887397D01*
X131050674Y-127778343D01*
X131050675Y-127778337D01*
X131051463Y-127774564D01*
X131051800Y-127768133D01*
X131051800Y-126100073D01*
X131036954Y-125953918D01*
X130999011Y-125832841D01*
X130979809Y-125771567D01*
X130979808Y-125771565D01*
X130978286Y-125766708D01*
X130926412Y-125673124D01*
X130886795Y-125601655D01*
X130883173Y-125595120D01*
X130755500Y-125446161D01*
X130668113Y-125378377D01*
X130604511Y-125329042D01*
X130604510Y-125329041D01*
X130600482Y-125325917D01*
X130424452Y-125239299D01*
X130418579Y-125237769D01*
X130397387Y-125232249D01*
X130234600Y-125189846D01*
X130229516Y-125189580D01*
X130229512Y-125189579D01*
X130121031Y-125183894D01*
X130038683Y-125179579D01*
X130033645Y-125180341D01*
X130033644Y-125180341D01*
X129986223Y-125187513D01*
X129844702Y-125208916D01*
X129660582Y-125276659D01*
X129493844Y-125380040D01*
X129351300Y-125514838D01*
X129238772Y-125675544D01*
X129236750Y-125680217D01*
X129172756Y-125828100D01*
X129160857Y-125855596D01*
X129159814Y-125860589D01*
X129122260Y-126040347D01*
X129120737Y-126047636D01*
X129120400Y-126054067D01*
X129120400Y-127722127D01*
X128511800Y-127722127D01*
X128511800Y-126100073D01*
X128496954Y-125953918D01*
X128459011Y-125832841D01*
X128439809Y-125771567D01*
X128439808Y-125771565D01*
X128438286Y-125766708D01*
X128386412Y-125673124D01*
X128346795Y-125601655D01*
X128343173Y-125595120D01*
X128215500Y-125446161D01*
X128128113Y-125378377D01*
X128064511Y-125329042D01*
X128064510Y-125329041D01*
X128060482Y-125325917D01*
X127884452Y-125239299D01*
X127878579Y-125237769D01*
X127857387Y-125232249D01*
X127694600Y-125189846D01*
X127689516Y-125189580D01*
X127689512Y-125189579D01*
X127581031Y-125183894D01*
X127498683Y-125179579D01*
X127493645Y-125180341D01*
X127493644Y-125180341D01*
X127446223Y-125187513D01*
X127304702Y-125208916D01*
X127120582Y-125276659D01*
X126953844Y-125380040D01*
X126811300Y-125514838D01*
X126698772Y-125675544D01*
X126696750Y-125680217D01*
X126632756Y-125828100D01*
X126620857Y-125855596D01*
X126619814Y-125860589D01*
X126582260Y-126040347D01*
X126580737Y-126047636D01*
X126580400Y-126054067D01*
X126580400Y-127722127D01*
X125971800Y-127722127D01*
X125971800Y-126100073D01*
X125956954Y-125953918D01*
X125919011Y-125832841D01*
X125899809Y-125771567D01*
X125899808Y-125771565D01*
X125898286Y-125766708D01*
X125846412Y-125673124D01*
X125806795Y-125601655D01*
X125803173Y-125595120D01*
X125675500Y-125446161D01*
X125588113Y-125378377D01*
X125524511Y-125329042D01*
X125524510Y-125329041D01*
X125520482Y-125325917D01*
X125344452Y-125239299D01*
X125338579Y-125237769D01*
X125317387Y-125232249D01*
X125154600Y-125189846D01*
X125149516Y-125189580D01*
X125149512Y-125189579D01*
X125041031Y-125183894D01*
X124958683Y-125179579D01*
X124953645Y-125180341D01*
X124953644Y-125180341D01*
X124906223Y-125187513D01*
X124764702Y-125208916D01*
X124580582Y-125276659D01*
X124413844Y-125380040D01*
X124271300Y-125514838D01*
X124158772Y-125675544D01*
X124156750Y-125680217D01*
X124092756Y-125828100D01*
X124080857Y-125855596D01*
X124079814Y-125860589D01*
X124042260Y-126040347D01*
X124040737Y-126047636D01*
X124040400Y-126054067D01*
X124040400Y-127722127D01*
X123431800Y-127722127D01*
X123431800Y-126100073D01*
X123416954Y-125953918D01*
X123379011Y-125832841D01*
X123359809Y-125771567D01*
X123359808Y-125771565D01*
X123358286Y-125766708D01*
X123306412Y-125673124D01*
X123266795Y-125601655D01*
X123263173Y-125595120D01*
X123135500Y-125446161D01*
X123048113Y-125378377D01*
X122984511Y-125329042D01*
X122984510Y-125329041D01*
X122980482Y-125325917D01*
X122804452Y-125239299D01*
X122798579Y-125237769D01*
X122777387Y-125232249D01*
X122614600Y-125189846D01*
X122609516Y-125189580D01*
X122609512Y-125189579D01*
X122501031Y-125183894D01*
X122418683Y-125179579D01*
X122413645Y-125180341D01*
X122413644Y-125180341D01*
X122366223Y-125187513D01*
X122224702Y-125208916D01*
X122040582Y-125276659D01*
X121873844Y-125380040D01*
X121731300Y-125514838D01*
X121618772Y-125675544D01*
X121616750Y-125680217D01*
X121552756Y-125828100D01*
X121540857Y-125855596D01*
X121539814Y-125860589D01*
X121502260Y-126040347D01*
X121500737Y-126047636D01*
X121500400Y-126054067D01*
X121500400Y-126403600D01*
X121481187Y-126462731D01*
X121430887Y-126499276D01*
X121399800Y-126504200D01*
X120136314Y-126504200D01*
X120077183Y-126484987D01*
X120065179Y-126474735D01*
X119446040Y-125855596D01*
X118824407Y-125233964D01*
X118796181Y-125178566D01*
X118805907Y-125117158D01*
X118849871Y-125073194D01*
X118883456Y-125062958D01*
X118905997Y-125060230D01*
X118914723Y-125058375D01*
X119114035Y-124997060D01*
X119122307Y-124993684D01*
X119307604Y-124898044D01*
X119315151Y-124893255D01*
X119480587Y-124766312D01*
X119487150Y-124760277D01*
X119627496Y-124606039D01*
X119632899Y-124598920D01*
X119743708Y-124422277D01*
X119747764Y-124414316D01*
X119825542Y-124220837D01*
X119828121Y-124212295D01*
X119870569Y-124007322D01*
X119871531Y-124000016D01*
X119874417Y-123949961D01*
X119874500Y-123947073D01*
X119874500Y-123345233D01*
X119870312Y-123332343D01*
X119866123Y-123329300D01*
X117453633Y-123329300D01*
X117440743Y-123333488D01*
X117437700Y-123337677D01*
X117437700Y-123916035D01*
X117437900Y-123920519D01*
X117451711Y-124075274D01*
X117453291Y-124084053D01*
X117508316Y-124285189D01*
X117511431Y-124293566D01*
X117601204Y-124481779D01*
X117605746Y-124489459D01*
X117727434Y-124658807D01*
X117733265Y-124665563D01*
X117883021Y-124810685D01*
X117889958Y-124816302D01*
X117913503Y-124832124D01*
X117951867Y-124881051D01*
X117954145Y-124943183D01*
X117919468Y-124994789D01*
X117857394Y-125016223D01*
X116287442Y-125016223D01*
X116228311Y-124997010D01*
X116191766Y-124946710D01*
X116191766Y-124884536D01*
X116228311Y-124834236D01*
X116272399Y-124816154D01*
X116357498Y-124803284D01*
X116541618Y-124735541D01*
X116708356Y-124632160D01*
X116850900Y-124497362D01*
X116963428Y-124336656D01*
X117041343Y-124156604D01*
X117064992Y-124043405D01*
X117080674Y-123968343D01*
X117080675Y-123968337D01*
X117081463Y-123964564D01*
X117081800Y-123958133D01*
X117081800Y-122290073D01*
X117066954Y-122143918D01*
X117018689Y-121989905D01*
X117009809Y-121961567D01*
X117009808Y-121961565D01*
X117008286Y-121956708D01*
X116913173Y-121785120D01*
X116785500Y-121636161D01*
X116700257Y-121570040D01*
X116634511Y-121519042D01*
X116634510Y-121519041D01*
X116630482Y-121515917D01*
X116454452Y-121429299D01*
X116443473Y-121426439D01*
X116422607Y-121421004D01*
X116264600Y-121379846D01*
X116259516Y-121379580D01*
X116259512Y-121379579D01*
X116151031Y-121373894D01*
X116068683Y-121369579D01*
X116063645Y-121370341D01*
X116063644Y-121370341D01*
X116049448Y-121372488D01*
X115874702Y-121398916D01*
X115690582Y-121466659D01*
X115523844Y-121570040D01*
X115381300Y-121704838D01*
X115268772Y-121865544D01*
X115190857Y-122045596D01*
X115189814Y-122050589D01*
X115152243Y-122230429D01*
X115150737Y-122237636D01*
X115150400Y-122244067D01*
X115150400Y-123912127D01*
X115165246Y-124058282D01*
X115166771Y-124063147D01*
X115216188Y-124220837D01*
X115223914Y-124245492D01*
X115319027Y-124417080D01*
X115446700Y-124566039D01*
X115450730Y-124569165D01*
X115535406Y-124634846D01*
X115601718Y-124686283D01*
X115777748Y-124772901D01*
X115782676Y-124774185D01*
X115782677Y-124774185D01*
X115951925Y-124818271D01*
X116004304Y-124851769D01*
X116026990Y-124909657D01*
X116011318Y-124969823D01*
X115963273Y-125009287D01*
X115926567Y-125016223D01*
X113747442Y-125016223D01*
X113688311Y-124997010D01*
X113651766Y-124946710D01*
X113651766Y-124884536D01*
X113688311Y-124834236D01*
X113732399Y-124816154D01*
X113817498Y-124803284D01*
X114001618Y-124735541D01*
X114168356Y-124632160D01*
X114310900Y-124497362D01*
X114423428Y-124336656D01*
X114501343Y-124156604D01*
X114524992Y-124043405D01*
X114540674Y-123968343D01*
X114540675Y-123968337D01*
X114541463Y-123964564D01*
X114541800Y-123958133D01*
X114541800Y-122290073D01*
X114526954Y-122143918D01*
X114478689Y-121989905D01*
X114469809Y-121961567D01*
X114469808Y-121961565D01*
X114468286Y-121956708D01*
X114373173Y-121785120D01*
X114245500Y-121636161D01*
X114160257Y-121570040D01*
X114094511Y-121519042D01*
X114094510Y-121519041D01*
X114090482Y-121515917D01*
X113914452Y-121429299D01*
X113903473Y-121426439D01*
X113882607Y-121421004D01*
X113724600Y-121379846D01*
X113719516Y-121379580D01*
X113719512Y-121379579D01*
X113611031Y-121373894D01*
X113528683Y-121369579D01*
X113523645Y-121370341D01*
X113523644Y-121370341D01*
X113509448Y-121372488D01*
X113334702Y-121398916D01*
X113150582Y-121466659D01*
X112983844Y-121570040D01*
X112841300Y-121704838D01*
X112728772Y-121865544D01*
X112650857Y-122045596D01*
X112649814Y-122050589D01*
X112612243Y-122230429D01*
X112610737Y-122237636D01*
X112610400Y-122244067D01*
X112610400Y-123912127D01*
X112625246Y-124058282D01*
X112626771Y-124063147D01*
X112676188Y-124220837D01*
X112683914Y-124245492D01*
X112779027Y-124417080D01*
X112906700Y-124566039D01*
X112910730Y-124569165D01*
X112995406Y-124634846D01*
X113061718Y-124686283D01*
X113237748Y-124772901D01*
X113242676Y-124774185D01*
X113242677Y-124774185D01*
X113411925Y-124818271D01*
X113464304Y-124851769D01*
X113486990Y-124909657D01*
X113471318Y-124969823D01*
X113423273Y-125009287D01*
X113386567Y-125016223D01*
X111831253Y-125016223D01*
X111772122Y-124997010D01*
X111735577Y-124946710D01*
X111735577Y-124884536D01*
X111770012Y-124835812D01*
X111860587Y-124766312D01*
X111867150Y-124760277D01*
X112007496Y-124606039D01*
X112012899Y-124598920D01*
X112123708Y-124422277D01*
X112127764Y-124414316D01*
X112205542Y-124220837D01*
X112208121Y-124212295D01*
X112250569Y-124007322D01*
X112251531Y-124000016D01*
X112254417Y-123949961D01*
X112254500Y-123947073D01*
X112254500Y-123345233D01*
X112250312Y-123332343D01*
X112246123Y-123329300D01*
X109833633Y-123329300D01*
X109820743Y-123333488D01*
X109817700Y-123337677D01*
X109817700Y-123916035D01*
X109817900Y-123920519D01*
X109831711Y-124075274D01*
X109833291Y-124084053D01*
X109888316Y-124285189D01*
X109891431Y-124293566D01*
X109981204Y-124481779D01*
X109985746Y-124489459D01*
X110107434Y-124658807D01*
X110113265Y-124665563D01*
X110263021Y-124810685D01*
X110269958Y-124816302D01*
X110293503Y-124832124D01*
X110331867Y-124881051D01*
X110334145Y-124943183D01*
X110299468Y-124994789D01*
X110237394Y-125016223D01*
X109317053Y-125016223D01*
X109317049Y-125016224D01*
X109284630Y-125016224D01*
X109262883Y-125023290D01*
X109261325Y-125023796D01*
X109245977Y-125027480D01*
X109229590Y-125030075D01*
X109229587Y-125030076D01*
X109221771Y-125031314D01*
X109214717Y-125034909D01*
X109214715Y-125034909D01*
X109199934Y-125042440D01*
X109185350Y-125048481D01*
X109169578Y-125053606D01*
X109169576Y-125053607D01*
X109162045Y-125056054D01*
X109155640Y-125060707D01*
X109155639Y-125060708D01*
X109142218Y-125070459D01*
X109128762Y-125078705D01*
X109106926Y-125089831D01*
X109084003Y-125112754D01*
X109083999Y-125112757D01*
X106348949Y-127847808D01*
X106257808Y-127938949D01*
X106246681Y-127960787D01*
X106238436Y-127974241D01*
X106224030Y-127994068D01*
X106216957Y-128015836D01*
X106216456Y-128017379D01*
X106210417Y-128031958D01*
X106199291Y-128053794D01*
X106198053Y-128061611D01*
X106195457Y-128078002D01*
X106191773Y-128093348D01*
X106184200Y-128116654D01*
X106184200Y-131819600D01*
X106163578Y-131880623D01*
X105452934Y-132812014D01*
X105444091Y-132822126D01*
X105422538Y-132843679D01*
X105414133Y-132860176D01*
X105404475Y-132875528D01*
X105364586Y-132927808D01*
X105279183Y-133039738D01*
X105233384Y-133124642D01*
X105210242Y-133251441D01*
X105211296Y-133259284D01*
X105211185Y-133264034D01*
X105190590Y-133322698D01*
X105181748Y-133332809D01*
X101502046Y-137012511D01*
X101446648Y-137040737D01*
X101388395Y-137032550D01*
X101329563Y-137005116D01*
X101329558Y-137005114D01*
X101325578Y-137003258D01*
X101141002Y-136953801D01*
X101115397Y-136946940D01*
X101115394Y-136946940D01*
X101111149Y-136945802D01*
X100890000Y-136926454D01*
X100668851Y-136945802D01*
X100664606Y-136946940D01*
X100664603Y-136946940D01*
X100638998Y-136953801D01*
X100454422Y-137003258D01*
X100253227Y-137097077D01*
X100162304Y-137160742D01*
X100074977Y-137221888D01*
X100074974Y-137221890D01*
X100071380Y-137224407D01*
X99914407Y-137381380D01*
X99787077Y-137563227D01*
X99693258Y-137764422D01*
X99673721Y-137837335D01*
X99637308Y-137973232D01*
X99635802Y-137978851D01*
X99616454Y-138200000D01*
X94551600Y-138200000D01*
X94551600Y-129900000D01*
X99616454Y-129900000D01*
X99635802Y-130121149D01*
X99636940Y-130125394D01*
X99636940Y-130125397D01*
X99656681Y-130199069D01*
X99693258Y-130335578D01*
X99787077Y-130536773D01*
X99789596Y-130540370D01*
X99909580Y-130711726D01*
X99914407Y-130718620D01*
X100071380Y-130875593D01*
X100074974Y-130878110D01*
X100074977Y-130878112D01*
X100162303Y-130939258D01*
X100253227Y-131002923D01*
X100454422Y-131096742D01*
X100558319Y-131124581D01*
X100664603Y-131153060D01*
X100664606Y-131153060D01*
X100668851Y-131154198D01*
X100890000Y-131173546D01*
X101111149Y-131154198D01*
X101115394Y-131153060D01*
X101115397Y-131153060D01*
X101221681Y-131124581D01*
X101325578Y-131096742D01*
X101526773Y-131002923D01*
X101617697Y-130939258D01*
X101705023Y-130878112D01*
X101705026Y-130878110D01*
X101708620Y-130875593D01*
X101865593Y-130718620D01*
X101870421Y-130711726D01*
X101990404Y-130540370D01*
X101992923Y-130536773D01*
X102086742Y-130335578D01*
X102123319Y-130199069D01*
X102143060Y-130125397D01*
X102143060Y-130125394D01*
X102144198Y-130121149D01*
X102163546Y-129900000D01*
X102144198Y-129678851D01*
X102142693Y-129673232D01*
X102087879Y-129468667D01*
X102086742Y-129464422D01*
X101992923Y-129263227D01*
X101865593Y-129081380D01*
X101708620Y-128924407D01*
X101705026Y-128921890D01*
X101705023Y-128921888D01*
X101599693Y-128848136D01*
X101526773Y-128797077D01*
X101325578Y-128703258D01*
X101189069Y-128666681D01*
X101115397Y-128646940D01*
X101115394Y-128646940D01*
X101111149Y-128645802D01*
X100890000Y-128626454D01*
X100668851Y-128645802D01*
X100664606Y-128646940D01*
X100664603Y-128646940D01*
X100590931Y-128666681D01*
X100454422Y-128703258D01*
X100253227Y-128797077D01*
X100180307Y-128848136D01*
X100074977Y-128921888D01*
X100074974Y-128921890D01*
X100071380Y-128924407D01*
X99914407Y-129081380D01*
X99787077Y-129263227D01*
X99693258Y-129464422D01*
X99692121Y-129468667D01*
X99637308Y-129673232D01*
X99635802Y-129678851D01*
X99616454Y-129900000D01*
X94551600Y-129900000D01*
X94551600Y-127767176D01*
X99468601Y-127767176D01*
X99468823Y-127771884D01*
X99471043Y-127795380D01*
X99473653Y-127807275D01*
X99514602Y-127923878D01*
X99521562Y-127937024D01*
X99594164Y-128035321D01*
X99604679Y-128045836D01*
X99702976Y-128118438D01*
X99716122Y-128125398D01*
X99832729Y-128166349D01*
X99844614Y-128168957D01*
X99868100Y-128171177D01*
X99872841Y-128171400D01*
X100645867Y-128171400D01*
X100658757Y-128167212D01*
X100661800Y-128163023D01*
X100661800Y-128155466D01*
X101118200Y-128155466D01*
X101122388Y-128168356D01*
X101126577Y-128171399D01*
X101907176Y-128171399D01*
X101911884Y-128171177D01*
X101935380Y-128168957D01*
X101947275Y-128166347D01*
X102063878Y-128125398D01*
X102077024Y-128118438D01*
X102175321Y-128045836D01*
X102185836Y-128035321D01*
X102258438Y-127937024D01*
X102265398Y-127923878D01*
X102306349Y-127807271D01*
X102308957Y-127795386D01*
X102311177Y-127771900D01*
X102311400Y-127767159D01*
X102311400Y-127044133D01*
X102307212Y-127031243D01*
X102303023Y-127028200D01*
X101134133Y-127028200D01*
X101121243Y-127032388D01*
X101118200Y-127036577D01*
X101118200Y-128155466D01*
X100661800Y-128155466D01*
X100661800Y-127044133D01*
X100657612Y-127031243D01*
X100653423Y-127028200D01*
X99484534Y-127028200D01*
X99471644Y-127032388D01*
X99468601Y-127036577D01*
X99468601Y-127767176D01*
X94551600Y-127767176D01*
X94551600Y-126555867D01*
X99468600Y-126555867D01*
X99472788Y-126568757D01*
X99476977Y-126571800D01*
X100645867Y-126571800D01*
X100658757Y-126567612D01*
X100661800Y-126563423D01*
X100661800Y-126555867D01*
X101118200Y-126555867D01*
X101122388Y-126568757D01*
X101126577Y-126571800D01*
X102295466Y-126571800D01*
X102308356Y-126567612D01*
X102311399Y-126563423D01*
X102311399Y-125832824D01*
X102311177Y-125828116D01*
X102308957Y-125804620D01*
X102306347Y-125792725D01*
X102265398Y-125676122D01*
X102258438Y-125662976D01*
X102185836Y-125564679D01*
X102175321Y-125554164D01*
X102077024Y-125481562D01*
X102063878Y-125474602D01*
X101947271Y-125433651D01*
X101935386Y-125431043D01*
X101911900Y-125428823D01*
X101907159Y-125428600D01*
X101134133Y-125428600D01*
X101121243Y-125432788D01*
X101118200Y-125436977D01*
X101118200Y-126555867D01*
X100661800Y-126555867D01*
X100661800Y-125444534D01*
X100657612Y-125431644D01*
X100653423Y-125428601D01*
X99872824Y-125428601D01*
X99868116Y-125428823D01*
X99844620Y-125431043D01*
X99832725Y-125433653D01*
X99716122Y-125474602D01*
X99702976Y-125481562D01*
X99604679Y-125554164D01*
X99594164Y-125564679D01*
X99521562Y-125662976D01*
X99514602Y-125676122D01*
X99473651Y-125792729D01*
X99471043Y-125804614D01*
X99468823Y-125828100D01*
X99468600Y-125832841D01*
X99468600Y-126555867D01*
X94551600Y-126555867D01*
X94551600Y-120367176D01*
X99458601Y-120367176D01*
X99458823Y-120371884D01*
X99461043Y-120395380D01*
X99463653Y-120407275D01*
X99504602Y-120523878D01*
X99511562Y-120537024D01*
X99584164Y-120635321D01*
X99594679Y-120645836D01*
X99692976Y-120718438D01*
X99706122Y-120725398D01*
X99822729Y-120766349D01*
X99834614Y-120768957D01*
X99858100Y-120771177D01*
X99862841Y-120771400D01*
X100635867Y-120771400D01*
X100648757Y-120767212D01*
X100651800Y-120763023D01*
X100651800Y-120755466D01*
X101108200Y-120755466D01*
X101112388Y-120768356D01*
X101116577Y-120771399D01*
X101897176Y-120771399D01*
X101901884Y-120771177D01*
X101925380Y-120768957D01*
X101937275Y-120766347D01*
X102053878Y-120725398D01*
X102067024Y-120718438D01*
X102165321Y-120645836D01*
X102175836Y-120635321D01*
X102248438Y-120537024D01*
X102255398Y-120523878D01*
X102296349Y-120407271D01*
X102298957Y-120395386D01*
X102301177Y-120371900D01*
X102301400Y-120367159D01*
X102301400Y-119644133D01*
X102297212Y-119631243D01*
X102293023Y-119628200D01*
X101124133Y-119628200D01*
X101111243Y-119632388D01*
X101108200Y-119636577D01*
X101108200Y-120755466D01*
X100651800Y-120755466D01*
X100651800Y-119644133D01*
X100647612Y-119631243D01*
X100643423Y-119628200D01*
X99474534Y-119628200D01*
X99461644Y-119632388D01*
X99458601Y-119636577D01*
X99458601Y-120367176D01*
X94551600Y-120367176D01*
X94551600Y-119155867D01*
X99458600Y-119155867D01*
X99462788Y-119168757D01*
X99466977Y-119171800D01*
X100635867Y-119171800D01*
X100648757Y-119167612D01*
X100651800Y-119163423D01*
X100651800Y-119155867D01*
X101108200Y-119155867D01*
X101112388Y-119168757D01*
X101116577Y-119171800D01*
X102285466Y-119171800D01*
X102298356Y-119167612D01*
X102301399Y-119163423D01*
X102301399Y-118432824D01*
X102301177Y-118428116D01*
X102298957Y-118404620D01*
X102296347Y-118392725D01*
X102255398Y-118276122D01*
X102248438Y-118262976D01*
X102175836Y-118164679D01*
X102165321Y-118154164D01*
X102067024Y-118081562D01*
X102053878Y-118074602D01*
X101937271Y-118033651D01*
X101925386Y-118031043D01*
X101901900Y-118028823D01*
X101897159Y-118028600D01*
X101124133Y-118028600D01*
X101111243Y-118032788D01*
X101108200Y-118036977D01*
X101108200Y-119155867D01*
X100651800Y-119155867D01*
X100651800Y-118044534D01*
X100647612Y-118031644D01*
X100643423Y-118028601D01*
X99862824Y-118028601D01*
X99858116Y-118028823D01*
X99834620Y-118031043D01*
X99822725Y-118033653D01*
X99706122Y-118074602D01*
X99692976Y-118081562D01*
X99594679Y-118154164D01*
X99584164Y-118164679D01*
X99511562Y-118262976D01*
X99504602Y-118276122D01*
X99463651Y-118392729D01*
X99461043Y-118404614D01*
X99458823Y-118428100D01*
X99458600Y-118432841D01*
X99458600Y-119155867D01*
X94551600Y-119155867D01*
X94551600Y-116300000D01*
X99606454Y-116300000D01*
X99625802Y-116521149D01*
X99626940Y-116525394D01*
X99626940Y-116525397D01*
X99628382Y-116530779D01*
X99683258Y-116735578D01*
X99777077Y-116936773D01*
X99794260Y-116961313D01*
X99899580Y-117111726D01*
X99904407Y-117118620D01*
X100061380Y-117275593D01*
X100064974Y-117278110D01*
X100064977Y-117278112D01*
X100152303Y-117339258D01*
X100243227Y-117402923D01*
X100444422Y-117496742D01*
X100535783Y-117521222D01*
X100654603Y-117553060D01*
X100654606Y-117553060D01*
X100658851Y-117554198D01*
X100880000Y-117573546D01*
X101101149Y-117554198D01*
X101105394Y-117553060D01*
X101105397Y-117553060D01*
X101224217Y-117521222D01*
X101315578Y-117496742D01*
X101516773Y-117402923D01*
X101607697Y-117339258D01*
X101695023Y-117278112D01*
X101695026Y-117278110D01*
X101698620Y-117275593D01*
X101855593Y-117118620D01*
X101860421Y-117111726D01*
X101965740Y-116961313D01*
X101982923Y-116936773D01*
X102076742Y-116735578D01*
X102131618Y-116530779D01*
X102133060Y-116525397D01*
X102133060Y-116525394D01*
X102134198Y-116521149D01*
X102153546Y-116300000D01*
X102134198Y-116078851D01*
X102132693Y-116073232D01*
X102102786Y-115961620D01*
X102076742Y-115864422D01*
X101982923Y-115663227D01*
X101862595Y-115491380D01*
X101858112Y-115484977D01*
X101858110Y-115484974D01*
X101855593Y-115481380D01*
X101698620Y-115324407D01*
X101695026Y-115321890D01*
X101695023Y-115321888D01*
X101566568Y-115231944D01*
X101516773Y-115197077D01*
X101315578Y-115103258D01*
X101138470Y-115055802D01*
X101105397Y-115046940D01*
X101105394Y-115046940D01*
X101101149Y-115045802D01*
X100880000Y-115026454D01*
X100658851Y-115045802D01*
X100654606Y-115046940D01*
X100654603Y-115046940D01*
X100621530Y-115055802D01*
X100444422Y-115103258D01*
X100243227Y-115197077D01*
X100193432Y-115231944D01*
X100064977Y-115321888D01*
X100064974Y-115321890D01*
X100061380Y-115324407D01*
X99904407Y-115481380D01*
X99901890Y-115484974D01*
X99901888Y-115484977D01*
X99897405Y-115491380D01*
X99777077Y-115663227D01*
X99683258Y-115864422D01*
X99657214Y-115961620D01*
X99627308Y-116073232D01*
X99625802Y-116078851D01*
X99606454Y-116300000D01*
X94551600Y-116300000D01*
X94551600Y-108000000D01*
X99606454Y-108000000D01*
X99625802Y-108221149D01*
X99626940Y-108225394D01*
X99626940Y-108225397D01*
X99628481Y-108231149D01*
X99683258Y-108435578D01*
X99777077Y-108636773D01*
X99779596Y-108640370D01*
X99899580Y-108811726D01*
X99904407Y-108818620D01*
X100061380Y-108975593D01*
X100064974Y-108978110D01*
X100064977Y-108978112D01*
X100079259Y-108988112D01*
X100243227Y-109102923D01*
X100444422Y-109196742D01*
X100580931Y-109233319D01*
X100654603Y-109253060D01*
X100654606Y-109253060D01*
X100658851Y-109254198D01*
X100880000Y-109273546D01*
X101101149Y-109254198D01*
X101105394Y-109253060D01*
X101105397Y-109253060D01*
X101179069Y-109233319D01*
X101315578Y-109196742D01*
X101319561Y-109194885D01*
X101319563Y-109194884D01*
X101378395Y-109167450D01*
X101440106Y-109159872D01*
X101492046Y-109187489D01*
X104884735Y-112580178D01*
X104912961Y-112635576D01*
X104914200Y-112651313D01*
X104914200Y-117935546D01*
X104921773Y-117958852D01*
X104925457Y-117974198D01*
X104929291Y-117998406D01*
X104932884Y-118005457D01*
X104932884Y-118005458D01*
X104940416Y-118020240D01*
X104946455Y-118034818D01*
X104954030Y-118058132D01*
X104958686Y-118064540D01*
X104968435Y-118077958D01*
X104976681Y-118091413D01*
X104987808Y-118113251D01*
X107937849Y-121063292D01*
X107959687Y-121074419D01*
X107973141Y-121082664D01*
X107992968Y-121097070D01*
X108000499Y-121099517D01*
X108000501Y-121099518D01*
X108016275Y-121104643D01*
X108030860Y-121110684D01*
X108052694Y-121121809D01*
X108071510Y-121124789D01*
X108076900Y-121125643D01*
X108092243Y-121129326D01*
X108115553Y-121136900D01*
X110304906Y-121136900D01*
X110364037Y-121156113D01*
X110400582Y-121206413D01*
X110400582Y-121268587D01*
X110366147Y-121317312D01*
X110211606Y-121435894D01*
X110205050Y-121441923D01*
X110064704Y-121596161D01*
X110059301Y-121603280D01*
X109948492Y-121779923D01*
X109944436Y-121787884D01*
X109866658Y-121981363D01*
X109864079Y-121989905D01*
X109821631Y-122194878D01*
X109820669Y-122202184D01*
X109817783Y-122252239D01*
X109817700Y-122255127D01*
X109817700Y-122856967D01*
X109821888Y-122869857D01*
X109826077Y-122872900D01*
X112238567Y-122872900D01*
X112251457Y-122868712D01*
X112254500Y-122864523D01*
X112254500Y-122286165D01*
X112254300Y-122281681D01*
X112240489Y-122126926D01*
X112238909Y-122118147D01*
X112183884Y-121917011D01*
X112180769Y-121908634D01*
X112090996Y-121720421D01*
X112086454Y-121712741D01*
X111964766Y-121543393D01*
X111958935Y-121536637D01*
X111809179Y-121391515D01*
X111802242Y-121385898D01*
X111705663Y-121320999D01*
X111667299Y-121272072D01*
X111665021Y-121209940D01*
X111699698Y-121158334D01*
X111761772Y-121136900D01*
X117924906Y-121136900D01*
X117984037Y-121156113D01*
X118020582Y-121206413D01*
X118020582Y-121268587D01*
X117986147Y-121317312D01*
X117831606Y-121435894D01*
X117825050Y-121441923D01*
X117684704Y-121596161D01*
X117679301Y-121603280D01*
X117568492Y-121779923D01*
X117564436Y-121787884D01*
X117486658Y-121981363D01*
X117484079Y-121989905D01*
X117441631Y-122194878D01*
X117440669Y-122202184D01*
X117437783Y-122252239D01*
X117437700Y-122255127D01*
X117437700Y-122856967D01*
X117441888Y-122869857D01*
X117446077Y-122872900D01*
X119858567Y-122872900D01*
X119871457Y-122868712D01*
X119874500Y-122864523D01*
X119874500Y-122286165D01*
X119874300Y-122281681D01*
X119860489Y-122126926D01*
X119858909Y-122118147D01*
X119803884Y-121917011D01*
X119800769Y-121908634D01*
X119710996Y-121720421D01*
X119706454Y-121712741D01*
X119584766Y-121543393D01*
X119578935Y-121536637D01*
X119429179Y-121391515D01*
X119422242Y-121385898D01*
X119267259Y-121281753D01*
X119228895Y-121232826D01*
X119226617Y-121170694D01*
X119261294Y-121119088D01*
X119292277Y-121102579D01*
X119309232Y-121097070D01*
X119329059Y-121082664D01*
X119342513Y-121074419D01*
X119364351Y-121063292D01*
X120700178Y-119727465D01*
X120755576Y-119699239D01*
X120771313Y-119698000D01*
X121399800Y-119698000D01*
X121458931Y-119717213D01*
X121495476Y-119767513D01*
X121500400Y-119798600D01*
X121500400Y-120102127D01*
X121515246Y-120248282D01*
X121538304Y-120321861D01*
X121561346Y-120395386D01*
X121573914Y-120435492D01*
X121576381Y-120439942D01*
X121576382Y-120439945D01*
X121626758Y-120530825D01*
X121669027Y-120607080D01*
X121672344Y-120610950D01*
X121779009Y-120735398D01*
X121796700Y-120756039D01*
X121800730Y-120759165D01*
X121930252Y-120859632D01*
X121951718Y-120876283D01*
X122127748Y-120962901D01*
X122132676Y-120964185D01*
X122132677Y-120964185D01*
X122133629Y-120964433D01*
X122317600Y-121012354D01*
X122322684Y-121012620D01*
X122322688Y-121012621D01*
X122431169Y-121018306D01*
X122513517Y-121022621D01*
X122518555Y-121021859D01*
X122518556Y-121021859D01*
X122575486Y-121013249D01*
X122707498Y-120993284D01*
X122891618Y-120925541D01*
X123058356Y-120822160D01*
X123200900Y-120687362D01*
X123313428Y-120526656D01*
X123391343Y-120346604D01*
X123407891Y-120267397D01*
X123430674Y-120158343D01*
X123430675Y-120158337D01*
X123431463Y-120154564D01*
X123431800Y-120148133D01*
X123431800Y-118480073D01*
X123416954Y-118333918D01*
X123363918Y-118164679D01*
X123359809Y-118151567D01*
X123359808Y-118151565D01*
X123358286Y-118146708D01*
X123339741Y-118113251D01*
X123265644Y-117979578D01*
X123263173Y-117975120D01*
X123135500Y-117826161D01*
X123046801Y-117757359D01*
X122984511Y-117709042D01*
X122984510Y-117709041D01*
X122980482Y-117705917D01*
X122804452Y-117619299D01*
X122798579Y-117617769D01*
X122777387Y-117612249D01*
X122614600Y-117569846D01*
X122609516Y-117569580D01*
X122609512Y-117569579D01*
X122494382Y-117563546D01*
X122418683Y-117559579D01*
X122413645Y-117560341D01*
X122413644Y-117560341D01*
X122388141Y-117564198D01*
X122224702Y-117588916D01*
X122040582Y-117656659D01*
X121873844Y-117760040D01*
X121731300Y-117894838D01*
X121686482Y-117958845D01*
X121627100Y-118043651D01*
X121618772Y-118055544D01*
X121540857Y-118235596D01*
X121539814Y-118240589D01*
X121501739Y-118422841D01*
X121500737Y-118427636D01*
X121500400Y-118434067D01*
X121500400Y-118783600D01*
X121481187Y-118842731D01*
X121430887Y-118879276D01*
X121399800Y-118884200D01*
X120496654Y-118884200D01*
X120473348Y-118891773D01*
X120458002Y-118895457D01*
X120433794Y-118899291D01*
X120426743Y-118902884D01*
X120426742Y-118902884D01*
X120411960Y-118910416D01*
X120397382Y-118916455D01*
X120374068Y-118924030D01*
X120367659Y-118928686D01*
X120367660Y-118928686D01*
X120354242Y-118938435D01*
X120340787Y-118946681D01*
X120318949Y-118957808D01*
X118983122Y-120293635D01*
X118927724Y-120321861D01*
X118911987Y-120323100D01*
X115102000Y-120323100D01*
X115042869Y-120303887D01*
X115006324Y-120253587D01*
X115001400Y-120222500D01*
X115001400Y-119634133D01*
X114997212Y-119621243D01*
X114993023Y-119618200D01*
X112174534Y-119618200D01*
X112161644Y-119622388D01*
X112158601Y-119626577D01*
X112158601Y-120222500D01*
X112139388Y-120281631D01*
X112089088Y-120318176D01*
X112058001Y-120323100D01*
X108390213Y-120323100D01*
X108331082Y-120303887D01*
X108319078Y-120293635D01*
X107171310Y-119145867D01*
X112158600Y-119145867D01*
X112162788Y-119158757D01*
X112166977Y-119161800D01*
X113335867Y-119161800D01*
X113348757Y-119157612D01*
X113351800Y-119153423D01*
X113351800Y-119145867D01*
X113808200Y-119145867D01*
X113812388Y-119158757D01*
X113816577Y-119161800D01*
X114985466Y-119161800D01*
X114998356Y-119157612D01*
X115001399Y-119153423D01*
X115001399Y-118422824D01*
X115001177Y-118418116D01*
X114998957Y-118394620D01*
X114996347Y-118382725D01*
X114955398Y-118266122D01*
X114948438Y-118252976D01*
X114875836Y-118154679D01*
X114865321Y-118144164D01*
X114767024Y-118071562D01*
X114753878Y-118064602D01*
X114637271Y-118023651D01*
X114625386Y-118021043D01*
X114601900Y-118018823D01*
X114597159Y-118018600D01*
X113824133Y-118018600D01*
X113811243Y-118022788D01*
X113808200Y-118026977D01*
X113808200Y-119145867D01*
X113351800Y-119145867D01*
X113351800Y-118034534D01*
X113347612Y-118021644D01*
X113343423Y-118018601D01*
X112562824Y-118018601D01*
X112558116Y-118018823D01*
X112534620Y-118021043D01*
X112522725Y-118023653D01*
X112406122Y-118064602D01*
X112392976Y-118071562D01*
X112294679Y-118144164D01*
X112284164Y-118154679D01*
X112211562Y-118252976D01*
X112204602Y-118266122D01*
X112163651Y-118382729D01*
X112161043Y-118394614D01*
X112158823Y-118418100D01*
X112158600Y-118422841D01*
X112158600Y-119145867D01*
X107171310Y-119145867D01*
X105757465Y-117732022D01*
X105729239Y-117676624D01*
X105728000Y-117660887D01*
X105728000Y-116290000D01*
X112306454Y-116290000D01*
X112325802Y-116511149D01*
X112326940Y-116515394D01*
X112326940Y-116515397D01*
X112339982Y-116564068D01*
X112383258Y-116725578D01*
X112477077Y-116926773D01*
X112604407Y-117108620D01*
X112761380Y-117265593D01*
X112764974Y-117268110D01*
X112764977Y-117268112D01*
X112808169Y-117298355D01*
X112943227Y-117392923D01*
X113144422Y-117486742D01*
X113254492Y-117516235D01*
X113354603Y-117543060D01*
X113354606Y-117543060D01*
X113358851Y-117544198D01*
X113580000Y-117563546D01*
X113801149Y-117544198D01*
X113805394Y-117543060D01*
X113805397Y-117543060D01*
X113905508Y-117516235D01*
X114015578Y-117486742D01*
X114216773Y-117392923D01*
X114351831Y-117298355D01*
X114395023Y-117268112D01*
X114395026Y-117268110D01*
X114398620Y-117265593D01*
X114555593Y-117108620D01*
X114682923Y-116926773D01*
X114776742Y-116725578D01*
X114820018Y-116564068D01*
X114833060Y-116515397D01*
X114833060Y-116515394D01*
X114834198Y-116511149D01*
X114853546Y-116290000D01*
X114853127Y-116285205D01*
X114848826Y-116236046D01*
X114834198Y-116068851D01*
X114824161Y-116031390D01*
X114810856Y-115981738D01*
X114776742Y-115854422D01*
X114682923Y-115653227D01*
X114569597Y-115491380D01*
X114558112Y-115474977D01*
X114558110Y-115474974D01*
X114555593Y-115471380D01*
X114398620Y-115314407D01*
X114395026Y-115311890D01*
X114395023Y-115311888D01*
X114253652Y-115212900D01*
X114216773Y-115187077D01*
X114015578Y-115093258D01*
X113874361Y-115055419D01*
X113805397Y-115036940D01*
X113805394Y-115036940D01*
X113801149Y-115035802D01*
X113580000Y-115016454D01*
X113358851Y-115035802D01*
X113354606Y-115036940D01*
X113354603Y-115036940D01*
X113285639Y-115055419D01*
X113144422Y-115093258D01*
X112943227Y-115187077D01*
X112906348Y-115212900D01*
X112764977Y-115311888D01*
X112764974Y-115311890D01*
X112761380Y-115314407D01*
X112604407Y-115471380D01*
X112601890Y-115474974D01*
X112601888Y-115474977D01*
X112590403Y-115491380D01*
X112477077Y-115653227D01*
X112383258Y-115854422D01*
X112349144Y-115981738D01*
X112335840Y-116031390D01*
X112325802Y-116068851D01*
X112311174Y-116236046D01*
X112306874Y-116285205D01*
X112306454Y-116290000D01*
X105728000Y-116290000D01*
X105728000Y-114356578D01*
X122560850Y-114356578D01*
X122575871Y-114543275D01*
X122576835Y-114547199D01*
X122576835Y-114547200D01*
X122608952Y-114677953D01*
X122635608Y-114786477D01*
X122733459Y-115017000D01*
X122735614Y-115020422D01*
X122854187Y-115208712D01*
X122866908Y-115228913D01*
X123032521Y-115416765D01*
X123035640Y-115419327D01*
X123035641Y-115419328D01*
X123115097Y-115484593D01*
X123226037Y-115575721D01*
X123229530Y-115577754D01*
X123229533Y-115577756D01*
X123393569Y-115673227D01*
X123442479Y-115701693D01*
X123446254Y-115703142D01*
X123446258Y-115703144D01*
X123645651Y-115779683D01*
X123693970Y-115818810D01*
X123710200Y-115873601D01*
X123710200Y-116078223D01*
X123709085Y-116093158D01*
X123705142Y-116119424D01*
X123706444Y-116127236D01*
X123706444Y-116127237D01*
X123715370Y-116180790D01*
X123715501Y-116181592D01*
X123725291Y-116243406D01*
X123726056Y-116244908D01*
X123726332Y-116246563D01*
X123729757Y-116253153D01*
X123729758Y-116253156D01*
X123755071Y-116301860D01*
X123755441Y-116302579D01*
X123783808Y-116358251D01*
X123784995Y-116359438D01*
X123785772Y-116360933D01*
X123791088Y-116366164D01*
X123830365Y-116404812D01*
X123830941Y-116405384D01*
X123874949Y-116449392D01*
X123882003Y-116452986D01*
X123898609Y-116461447D01*
X123911409Y-116469220D01*
X124557072Y-116930407D01*
X124594022Y-116980411D01*
X124599200Y-117012269D01*
X124599200Y-117589123D01*
X124579987Y-117648254D01*
X124551615Y-117674619D01*
X124413844Y-117760040D01*
X124271300Y-117894838D01*
X124226482Y-117958845D01*
X124167100Y-118043651D01*
X124158772Y-118055544D01*
X124080857Y-118235596D01*
X124079814Y-118240589D01*
X124041739Y-118422841D01*
X124040737Y-118427636D01*
X124040400Y-118434067D01*
X124040400Y-120102127D01*
X124055246Y-120248282D01*
X124078304Y-120321861D01*
X124101346Y-120395386D01*
X124113914Y-120435492D01*
X124116381Y-120439942D01*
X124116382Y-120439945D01*
X124166758Y-120530825D01*
X124209027Y-120607080D01*
X124212344Y-120610950D01*
X124319009Y-120735398D01*
X124336700Y-120756039D01*
X124340730Y-120759165D01*
X124470252Y-120859632D01*
X124491718Y-120876283D01*
X124667748Y-120962901D01*
X124672676Y-120964185D01*
X124672677Y-120964185D01*
X124673629Y-120964433D01*
X124857600Y-121012354D01*
X124862684Y-121012620D01*
X124862688Y-121012621D01*
X124971169Y-121018306D01*
X125053517Y-121022621D01*
X125058555Y-121021859D01*
X125058556Y-121021859D01*
X125115486Y-121013249D01*
X125247498Y-120993284D01*
X125431618Y-120925541D01*
X125598356Y-120822160D01*
X125740900Y-120687362D01*
X125853428Y-120526656D01*
X125931343Y-120346604D01*
X125947891Y-120267397D01*
X125970674Y-120158343D01*
X125970675Y-120158337D01*
X125971463Y-120154564D01*
X125971800Y-120148133D01*
X125971800Y-120102127D01*
X126580400Y-120102127D01*
X126595246Y-120248282D01*
X126618304Y-120321861D01*
X126641346Y-120395386D01*
X126653914Y-120435492D01*
X126656381Y-120439942D01*
X126656382Y-120439945D01*
X126706758Y-120530825D01*
X126749027Y-120607080D01*
X126752344Y-120610950D01*
X126859009Y-120735398D01*
X126876700Y-120756039D01*
X126880730Y-120759165D01*
X127010252Y-120859632D01*
X127031718Y-120876283D01*
X127207748Y-120962901D01*
X127212676Y-120964185D01*
X127212677Y-120964185D01*
X127213629Y-120964433D01*
X127397600Y-121012354D01*
X127402684Y-121012620D01*
X127402688Y-121012621D01*
X127511169Y-121018306D01*
X127593517Y-121022621D01*
X127598555Y-121021859D01*
X127598556Y-121021859D01*
X127655486Y-121013249D01*
X127787498Y-120993284D01*
X127971618Y-120925541D01*
X128138356Y-120822160D01*
X128280900Y-120687362D01*
X128393428Y-120526656D01*
X128471343Y-120346604D01*
X128487891Y-120267397D01*
X128510674Y-120158343D01*
X128510675Y-120158337D01*
X128511463Y-120154564D01*
X128511800Y-120148133D01*
X128511800Y-120102127D01*
X129120400Y-120102127D01*
X129135246Y-120248282D01*
X129158304Y-120321861D01*
X129181346Y-120395386D01*
X129193914Y-120435492D01*
X129196381Y-120439942D01*
X129196382Y-120439945D01*
X129246758Y-120530825D01*
X129289027Y-120607080D01*
X129292344Y-120610950D01*
X129399009Y-120735398D01*
X129416700Y-120756039D01*
X129420730Y-120759165D01*
X129550252Y-120859632D01*
X129571718Y-120876283D01*
X129747748Y-120962901D01*
X129752676Y-120964185D01*
X129752677Y-120964185D01*
X129753629Y-120964433D01*
X129937600Y-121012354D01*
X129942684Y-121012620D01*
X129942688Y-121012621D01*
X130051169Y-121018306D01*
X130133517Y-121022621D01*
X130138555Y-121021859D01*
X130138556Y-121021859D01*
X130195486Y-121013249D01*
X130327498Y-120993284D01*
X130511618Y-120925541D01*
X130678356Y-120822160D01*
X130820900Y-120687362D01*
X130933428Y-120526656D01*
X131011343Y-120346604D01*
X131027891Y-120267397D01*
X131050674Y-120158343D01*
X131050675Y-120158337D01*
X131051463Y-120154564D01*
X131051800Y-120148133D01*
X131051800Y-120102127D01*
X131660400Y-120102127D01*
X131675246Y-120248282D01*
X131698304Y-120321861D01*
X131721346Y-120395386D01*
X131733914Y-120435492D01*
X131736381Y-120439942D01*
X131736382Y-120439945D01*
X131786758Y-120530825D01*
X131829027Y-120607080D01*
X131832344Y-120610950D01*
X131939009Y-120735398D01*
X131956700Y-120756039D01*
X131960730Y-120759165D01*
X132090252Y-120859632D01*
X132111718Y-120876283D01*
X132287748Y-120962901D01*
X132292676Y-120964185D01*
X132292677Y-120964185D01*
X132293629Y-120964433D01*
X132477600Y-121012354D01*
X132482684Y-121012620D01*
X132482688Y-121012621D01*
X132591169Y-121018306D01*
X132673517Y-121022621D01*
X132678555Y-121021859D01*
X132678556Y-121021859D01*
X132735486Y-121013249D01*
X132867498Y-120993284D01*
X133051618Y-120925541D01*
X133218356Y-120822160D01*
X133360900Y-120687362D01*
X133473428Y-120526656D01*
X133551343Y-120346604D01*
X133567891Y-120267397D01*
X133590674Y-120158343D01*
X133590675Y-120158337D01*
X133591463Y-120154564D01*
X133591800Y-120148133D01*
X133591800Y-120102127D01*
X134200400Y-120102127D01*
X134215246Y-120248282D01*
X134238304Y-120321861D01*
X134261346Y-120395386D01*
X134273914Y-120435492D01*
X134276381Y-120439942D01*
X134276382Y-120439945D01*
X134326758Y-120530825D01*
X134369027Y-120607080D01*
X134372344Y-120610950D01*
X134479009Y-120735398D01*
X134496700Y-120756039D01*
X134500730Y-120759165D01*
X134630252Y-120859632D01*
X134651718Y-120876283D01*
X134827748Y-120962901D01*
X134832676Y-120964185D01*
X134832677Y-120964185D01*
X135012674Y-121011071D01*
X135012675Y-121011071D01*
X135017600Y-121012354D01*
X135017367Y-121013249D01*
X135068998Y-121039441D01*
X136171022Y-122141466D01*
X136171026Y-122141469D01*
X136193949Y-122164392D01*
X136201001Y-122167985D01*
X136201002Y-122167986D01*
X136215781Y-122175516D01*
X136229233Y-122183759D01*
X136249068Y-122198170D01*
X136264486Y-122203179D01*
X136272376Y-122205743D01*
X136286960Y-122211784D01*
X136308794Y-122222909D01*
X136316612Y-122224147D01*
X136316614Y-122224148D01*
X136333000Y-122226743D01*
X136348343Y-122230426D01*
X136360192Y-122234275D01*
X136364124Y-122235553D01*
X136364125Y-122235553D01*
X136371653Y-122237999D01*
X136404072Y-122237999D01*
X136404076Y-122238000D01*
X149200546Y-122238000D01*
X149223852Y-122230427D01*
X149239198Y-122226743D01*
X149255589Y-122224147D01*
X149263406Y-122222909D01*
X149285242Y-122211783D01*
X149299818Y-122205745D01*
X149323132Y-122198170D01*
X149342959Y-122183764D01*
X149356413Y-122175519D01*
X149378251Y-122164392D01*
X149469392Y-122073251D01*
X150087979Y-121454665D01*
X150143377Y-121426439D01*
X150159114Y-121425200D01*
X150699803Y-121425200D01*
X150759462Y-121413243D01*
X150809433Y-121379790D01*
X151191756Y-120997465D01*
X151247153Y-120969239D01*
X151262891Y-120968000D01*
X153530887Y-120968000D01*
X153590018Y-120987213D01*
X153602022Y-120997465D01*
X153965923Y-121361366D01*
X153987761Y-121372493D01*
X154001215Y-121380738D01*
X154021042Y-121395144D01*
X154044356Y-121402719D01*
X154058932Y-121408757D01*
X154080768Y-121419883D01*
X154088585Y-121421121D01*
X154104976Y-121423717D01*
X154120322Y-121427401D01*
X154143628Y-121434974D01*
X166513572Y-121434974D01*
X166536878Y-121427401D01*
X166552221Y-121423717D01*
X166569354Y-121421004D01*
X166604629Y-121421682D01*
X166617566Y-121424244D01*
X166617571Y-121424245D01*
X166622397Y-121425200D01*
X167209803Y-121425200D01*
X167269462Y-121413243D01*
X167319433Y-121379790D01*
X167734790Y-120964431D01*
X167762484Y-120922854D01*
X167763037Y-120922024D01*
X167763037Y-120922023D01*
X167768520Y-120913792D01*
X167780200Y-120854803D01*
X167780200Y-120267397D01*
X167768243Y-120207738D01*
X167734790Y-120157767D01*
X167630623Y-120053600D01*
X167322952Y-119745931D01*
X167319431Y-119742410D01*
X167294822Y-119726018D01*
X167277024Y-119714163D01*
X167277023Y-119714163D01*
X167268792Y-119708680D01*
X167221111Y-119699239D01*
X167214632Y-119697956D01*
X167214630Y-119697956D01*
X167209803Y-119697000D01*
X166622397Y-119697000D01*
X166562738Y-119708957D01*
X166512767Y-119742410D01*
X166097410Y-120157769D01*
X166094650Y-120161913D01*
X166069602Y-120199518D01*
X166063680Y-120208408D01*
X166052000Y-120267397D01*
X166052000Y-120520574D01*
X166032787Y-120579705D01*
X165982487Y-120616250D01*
X165951400Y-120621174D01*
X164596693Y-120621174D01*
X164537562Y-120601961D01*
X164501017Y-120551661D01*
X164501776Y-120487240D01*
X164526349Y-120417268D01*
X164528957Y-120405386D01*
X164531177Y-120381900D01*
X164531400Y-120377159D01*
X164531400Y-119654133D01*
X164527212Y-119641243D01*
X164523023Y-119638200D01*
X161704534Y-119638200D01*
X161691644Y-119642388D01*
X161688601Y-119646577D01*
X161688601Y-120377176D01*
X161688823Y-120381884D01*
X161691043Y-120405380D01*
X161693652Y-120417272D01*
X161718224Y-120487240D01*
X161719690Y-120549397D01*
X161684340Y-120600545D01*
X161623307Y-120621174D01*
X154723600Y-120621174D01*
X154664469Y-120601961D01*
X154627924Y-120551661D01*
X154623000Y-120520574D01*
X154623000Y-119165867D01*
X161688600Y-119165867D01*
X161692788Y-119178757D01*
X161696977Y-119181800D01*
X162865867Y-119181800D01*
X162878757Y-119177612D01*
X162881800Y-119173423D01*
X162881800Y-119165867D01*
X163338200Y-119165867D01*
X163342388Y-119178757D01*
X163346577Y-119181800D01*
X164515466Y-119181800D01*
X164528356Y-119177612D01*
X164531399Y-119173423D01*
X164531399Y-118442824D01*
X164531177Y-118438116D01*
X164528957Y-118414620D01*
X164526347Y-118402725D01*
X164485398Y-118286122D01*
X164478438Y-118272976D01*
X164405836Y-118174679D01*
X164395321Y-118164164D01*
X164297024Y-118091562D01*
X164283878Y-118084602D01*
X164167271Y-118043651D01*
X164155386Y-118041043D01*
X164131900Y-118038823D01*
X164127159Y-118038600D01*
X163354133Y-118038600D01*
X163341243Y-118042788D01*
X163338200Y-118046977D01*
X163338200Y-119165867D01*
X162881800Y-119165867D01*
X162881800Y-118054534D01*
X162877612Y-118041644D01*
X162873423Y-118038601D01*
X162092824Y-118038601D01*
X162088116Y-118038823D01*
X162064620Y-118041043D01*
X162052725Y-118043653D01*
X161936122Y-118084602D01*
X161922976Y-118091562D01*
X161824679Y-118164164D01*
X161814164Y-118174679D01*
X161741562Y-118272976D01*
X161734602Y-118286122D01*
X161693651Y-118402729D01*
X161691043Y-118414614D01*
X161688823Y-118438100D01*
X161688600Y-118442841D01*
X161688600Y-119165867D01*
X154623000Y-119165867D01*
X154623000Y-118877893D01*
X154642213Y-118818762D01*
X154652465Y-118806758D01*
X155031269Y-118427952D01*
X155034790Y-118424431D01*
X155062570Y-118382725D01*
X155063037Y-118382024D01*
X155063037Y-118382023D01*
X155068520Y-118373792D01*
X155080200Y-118314803D01*
X155080200Y-117727397D01*
X155068243Y-117667738D01*
X155034790Y-117617767D01*
X154619431Y-117202410D01*
X154568792Y-117168680D01*
X154526678Y-117160341D01*
X154514632Y-117157956D01*
X154514630Y-117157956D01*
X154509803Y-117157000D01*
X153922397Y-117157000D01*
X153862738Y-117168957D01*
X153812767Y-117202410D01*
X153397410Y-117617769D01*
X153394650Y-117621913D01*
X153369602Y-117659518D01*
X153363680Y-117668408D01*
X153352000Y-117727397D01*
X153352000Y-118314803D01*
X153363957Y-118374462D01*
X153397410Y-118424433D01*
X153400887Y-118427910D01*
X153779735Y-118806756D01*
X153807961Y-118862153D01*
X153809200Y-118877891D01*
X153809200Y-120053600D01*
X153789987Y-120112731D01*
X153739687Y-120149276D01*
X153708600Y-120154200D01*
X151262893Y-120154200D01*
X151203762Y-120134987D01*
X151191758Y-120124735D01*
X150812952Y-119745931D01*
X150809431Y-119742410D01*
X150784822Y-119726018D01*
X150767024Y-119714163D01*
X150767023Y-119714163D01*
X150758792Y-119708680D01*
X150711111Y-119699239D01*
X150704632Y-119697956D01*
X150704630Y-119697956D01*
X150699803Y-119697000D01*
X150112397Y-119697000D01*
X150052738Y-119708957D01*
X150002767Y-119742410D01*
X149587410Y-120157769D01*
X149584650Y-120161913D01*
X149559602Y-120199518D01*
X149553680Y-120208408D01*
X149542000Y-120267397D01*
X149542000Y-120808086D01*
X149522787Y-120867217D01*
X149512535Y-120879221D01*
X148997022Y-121394735D01*
X148941624Y-121422961D01*
X148925887Y-121424200D01*
X143387892Y-121424200D01*
X143328761Y-121404987D01*
X143292216Y-121354687D01*
X143292216Y-121292513D01*
X143316757Y-121252465D01*
X143462132Y-121107090D01*
X143604790Y-120964431D01*
X143632484Y-120922854D01*
X143633037Y-120922024D01*
X143633037Y-120922023D01*
X143638520Y-120913792D01*
X143650200Y-120854803D01*
X143650200Y-120267397D01*
X143638243Y-120207738D01*
X143604790Y-120157767D01*
X143222465Y-119775444D01*
X143194239Y-119720047D01*
X143193000Y-119704309D01*
X143193000Y-118861164D01*
X144992400Y-118861164D01*
X145004219Y-118920580D01*
X145049240Y-118987960D01*
X145116620Y-119032981D01*
X145176036Y-119044800D01*
X148016164Y-119044800D01*
X148075580Y-119032981D01*
X148142960Y-118987960D01*
X148187981Y-118920580D01*
X148199800Y-118861164D01*
X148199800Y-116310000D01*
X161836454Y-116310000D01*
X161855802Y-116531149D01*
X161856940Y-116535394D01*
X161856940Y-116535397D01*
X161864758Y-116564574D01*
X161913258Y-116745578D01*
X162007077Y-116946773D01*
X162052938Y-117012269D01*
X162129580Y-117121726D01*
X162134407Y-117128620D01*
X162291380Y-117285593D01*
X162294974Y-117288110D01*
X162294977Y-117288112D01*
X162354186Y-117329570D01*
X162473227Y-117412923D01*
X162674422Y-117506742D01*
X162765018Y-117531017D01*
X162884603Y-117563060D01*
X162884606Y-117563060D01*
X162888851Y-117564198D01*
X163110000Y-117583546D01*
X163331149Y-117564198D01*
X163335394Y-117563060D01*
X163335397Y-117563060D01*
X163454982Y-117531017D01*
X163545578Y-117506742D01*
X163675147Y-117446323D01*
X170949977Y-117446323D01*
X170957550Y-117469629D01*
X170961234Y-117484975D01*
X170965068Y-117509183D01*
X170968661Y-117516234D01*
X170968661Y-117516235D01*
X170976193Y-117531017D01*
X170982232Y-117545595D01*
X170989807Y-117568909D01*
X171000442Y-117583546D01*
X171004212Y-117588735D01*
X171012458Y-117602190D01*
X171023585Y-117624028D01*
X171046511Y-117646954D01*
X173642535Y-120242979D01*
X173670761Y-120298377D01*
X173672000Y-120314114D01*
X173672000Y-120854803D01*
X173683957Y-120914462D01*
X173717410Y-120964433D01*
X174132769Y-121379790D01*
X174183408Y-121413520D01*
X174224630Y-121421682D01*
X174237568Y-121424244D01*
X174237570Y-121424244D01*
X174242397Y-121425200D01*
X174829803Y-121425200D01*
X174889462Y-121413243D01*
X174939433Y-121379790D01*
X175354790Y-120964431D01*
X175382484Y-120922854D01*
X175383037Y-120922024D01*
X175383037Y-120922023D01*
X175388520Y-120913792D01*
X175400200Y-120854803D01*
X175400200Y-120377176D01*
X193408601Y-120377176D01*
X193408823Y-120381884D01*
X193411043Y-120405380D01*
X193413653Y-120417275D01*
X193454602Y-120533878D01*
X193461562Y-120547024D01*
X193534164Y-120645321D01*
X193544679Y-120655836D01*
X193642976Y-120728438D01*
X193656122Y-120735398D01*
X193772729Y-120776349D01*
X193784614Y-120778957D01*
X193808100Y-120781177D01*
X193812841Y-120781400D01*
X194585867Y-120781400D01*
X194598757Y-120777212D01*
X194601800Y-120773023D01*
X194601800Y-120765466D01*
X195058200Y-120765466D01*
X195062388Y-120778356D01*
X195066577Y-120781399D01*
X195847176Y-120781399D01*
X195851884Y-120781177D01*
X195875380Y-120778957D01*
X195887275Y-120776347D01*
X196003878Y-120735398D01*
X196017024Y-120728438D01*
X196115321Y-120655836D01*
X196125836Y-120645321D01*
X196198438Y-120547024D01*
X196205398Y-120533878D01*
X196246349Y-120417271D01*
X196248957Y-120405386D01*
X196251177Y-120381900D01*
X196251400Y-120377159D01*
X196251400Y-119654133D01*
X196247212Y-119641243D01*
X196243023Y-119638200D01*
X195074133Y-119638200D01*
X195061243Y-119642388D01*
X195058200Y-119646577D01*
X195058200Y-120765466D01*
X194601800Y-120765466D01*
X194601800Y-119654133D01*
X194597612Y-119641243D01*
X194593423Y-119638200D01*
X193424534Y-119638200D01*
X193411644Y-119642388D01*
X193408601Y-119646577D01*
X193408601Y-120377176D01*
X175400200Y-120377176D01*
X175400200Y-120267397D01*
X175388243Y-120207738D01*
X175354790Y-120157767D01*
X175250623Y-120053600D01*
X174942952Y-119745931D01*
X174939431Y-119742410D01*
X174914822Y-119726018D01*
X174897024Y-119714163D01*
X174897023Y-119714163D01*
X174888792Y-119708680D01*
X174841111Y-119699239D01*
X174834632Y-119697956D01*
X174834630Y-119697956D01*
X174829803Y-119697000D01*
X174289114Y-119697000D01*
X174229983Y-119677787D01*
X174217979Y-119667535D01*
X173716311Y-119165867D01*
X193408600Y-119165867D01*
X193412788Y-119178757D01*
X193416977Y-119181800D01*
X194585867Y-119181800D01*
X194598757Y-119177612D01*
X194601800Y-119173423D01*
X194601800Y-119165867D01*
X195058200Y-119165867D01*
X195062388Y-119178757D01*
X195066577Y-119181800D01*
X196235466Y-119181800D01*
X196248356Y-119177612D01*
X196251399Y-119173423D01*
X196251399Y-118442824D01*
X196251177Y-118438116D01*
X196248957Y-118414620D01*
X196246347Y-118402725D01*
X196205398Y-118286122D01*
X196198438Y-118272976D01*
X196125836Y-118174679D01*
X196115321Y-118164164D01*
X196017024Y-118091562D01*
X196003878Y-118084602D01*
X195887271Y-118043651D01*
X195875386Y-118041043D01*
X195851900Y-118038823D01*
X195847159Y-118038600D01*
X195074133Y-118038600D01*
X195061243Y-118042788D01*
X195058200Y-118046977D01*
X195058200Y-119165867D01*
X194601800Y-119165867D01*
X194601800Y-118054534D01*
X194597612Y-118041644D01*
X194593423Y-118038601D01*
X193812824Y-118038601D01*
X193808116Y-118038823D01*
X193784620Y-118041043D01*
X193772725Y-118043653D01*
X193656122Y-118084602D01*
X193642976Y-118091562D01*
X193544679Y-118164164D01*
X193534164Y-118174679D01*
X193461562Y-118272976D01*
X193454602Y-118286122D01*
X193413651Y-118402729D01*
X193411043Y-118414614D01*
X193408823Y-118438100D01*
X193408600Y-118442841D01*
X193408600Y-119165867D01*
X173716311Y-119165867D01*
X173411608Y-118861164D01*
X178012400Y-118861164D01*
X178024219Y-118920580D01*
X178069240Y-118987960D01*
X178136620Y-119032981D01*
X178196036Y-119044800D01*
X181036164Y-119044800D01*
X181095580Y-119032981D01*
X181162960Y-118987960D01*
X181207981Y-118920580D01*
X181219800Y-118861164D01*
X181219800Y-116310000D01*
X193556454Y-116310000D01*
X193575802Y-116531149D01*
X193576940Y-116535394D01*
X193576940Y-116535397D01*
X193584758Y-116564574D01*
X193633258Y-116745578D01*
X193727077Y-116946773D01*
X193772938Y-117012269D01*
X193849580Y-117121726D01*
X193854407Y-117128620D01*
X194011380Y-117285593D01*
X194014974Y-117288110D01*
X194014977Y-117288112D01*
X194074186Y-117329570D01*
X194193227Y-117412923D01*
X194394422Y-117506742D01*
X194485018Y-117531017D01*
X194604603Y-117563060D01*
X194604606Y-117563060D01*
X194608851Y-117564198D01*
X194830000Y-117583546D01*
X195051149Y-117564198D01*
X195055394Y-117563060D01*
X195055397Y-117563060D01*
X195174982Y-117531017D01*
X195265578Y-117506742D01*
X195466773Y-117412923D01*
X195585814Y-117329570D01*
X195645023Y-117288112D01*
X195645026Y-117288110D01*
X195648620Y-117285593D01*
X195805593Y-117128620D01*
X195810421Y-117121726D01*
X195887062Y-117012269D01*
X195932923Y-116946773D01*
X196026742Y-116745578D01*
X196075242Y-116564574D01*
X196083060Y-116535397D01*
X196083060Y-116535394D01*
X196084198Y-116531149D01*
X196103546Y-116310000D01*
X196084198Y-116088851D01*
X196082791Y-116083598D01*
X196055497Y-115981738D01*
X196026742Y-115874422D01*
X195932923Y-115673227D01*
X195805593Y-115491380D01*
X195648620Y-115334407D01*
X195645026Y-115331890D01*
X195645023Y-115331888D01*
X195475089Y-115212900D01*
X195466773Y-115207077D01*
X195265578Y-115113258D01*
X195100110Y-115068921D01*
X195055397Y-115056940D01*
X195055394Y-115056940D01*
X195051149Y-115055802D01*
X194830000Y-115036454D01*
X194608851Y-115055802D01*
X194604606Y-115056940D01*
X194604603Y-115056940D01*
X194559890Y-115068921D01*
X194394422Y-115113258D01*
X194193227Y-115207077D01*
X194184911Y-115212900D01*
X194014977Y-115331888D01*
X194014974Y-115331890D01*
X194011380Y-115334407D01*
X193854407Y-115491380D01*
X193727077Y-115673227D01*
X193633258Y-115874422D01*
X193604503Y-115981738D01*
X193577210Y-116083598D01*
X193575802Y-116088851D01*
X193556454Y-116310000D01*
X181219800Y-116310000D01*
X181219800Y-116021036D01*
X181207981Y-115961620D01*
X181162960Y-115894240D01*
X181095580Y-115849219D01*
X181036164Y-115837400D01*
X178196036Y-115837400D01*
X178136620Y-115849219D01*
X178069240Y-115894240D01*
X178024219Y-115961620D01*
X178012400Y-116021036D01*
X178012400Y-118861164D01*
X173411608Y-118861164D01*
X171793242Y-117242799D01*
X171765016Y-117187401D01*
X171763777Y-117171664D01*
X171763777Y-116662488D01*
X171782990Y-116603357D01*
X171833290Y-116566812D01*
X171895464Y-116566812D01*
X171935512Y-116591353D01*
X171973905Y-116629746D01*
X171978521Y-116633827D01*
X172025810Y-116670733D01*
X172037491Y-116677534D01*
X172151733Y-116724738D01*
X172164790Y-116728163D01*
X172223592Y-116735331D01*
X172229666Y-116735700D01*
X172371967Y-116735700D01*
X172384857Y-116731512D01*
X172387900Y-116727323D01*
X172387900Y-116719768D01*
X172844300Y-116719768D01*
X172848488Y-116732658D01*
X172852677Y-116735701D01*
X173002504Y-116735701D01*
X173008646Y-116735323D01*
X173068183Y-116727980D01*
X173081253Y-116724529D01*
X173195411Y-116677127D01*
X173207068Y-116670316D01*
X173253720Y-116633801D01*
X173258267Y-116629775D01*
X173804746Y-116083295D01*
X173808827Y-116078679D01*
X173845733Y-116031390D01*
X173852534Y-116019709D01*
X173899738Y-115905467D01*
X173903163Y-115892410D01*
X173910331Y-115833608D01*
X173910700Y-115827534D01*
X173910700Y-115685233D01*
X173906512Y-115672343D01*
X173902323Y-115669300D01*
X172860233Y-115669300D01*
X172847343Y-115673488D01*
X172844300Y-115677677D01*
X172844300Y-116719768D01*
X172387900Y-116719768D01*
X172387900Y-115313500D01*
X172407113Y-115254369D01*
X172457413Y-115217824D01*
X172488500Y-115212900D01*
X173894768Y-115212900D01*
X173907658Y-115208712D01*
X173910701Y-115204523D01*
X173910701Y-115054696D01*
X173910323Y-115048554D01*
X173902980Y-114989017D01*
X173899529Y-114975947D01*
X173852127Y-114861789D01*
X173845316Y-114850132D01*
X173808801Y-114803480D01*
X173804775Y-114798933D01*
X173258295Y-114252454D01*
X173253679Y-114248373D01*
X173206390Y-114211467D01*
X173194709Y-114204666D01*
X173080472Y-114157464D01*
X173068090Y-114154216D01*
X173015769Y-114120628D01*
X172993183Y-114062701D01*
X173008959Y-114002562D01*
X173044366Y-113972920D01*
X173043109Y-113971043D01*
X173093080Y-113937590D01*
X173612590Y-113418078D01*
X173615349Y-113413936D01*
X173615353Y-113413931D01*
X173629408Y-113392830D01*
X173678179Y-113354268D01*
X173713134Y-113348000D01*
X184760546Y-113348000D01*
X184783852Y-113340427D01*
X184799198Y-113336743D01*
X184815589Y-113334147D01*
X184823406Y-113332909D01*
X184845242Y-113321783D01*
X184859818Y-113315745D01*
X184883132Y-113308170D01*
X184902959Y-113293764D01*
X184916413Y-113285519D01*
X184938251Y-113274392D01*
X187375178Y-110837465D01*
X189766279Y-108446365D01*
X189821677Y-108418139D01*
X189837414Y-108416900D01*
X193555796Y-108416900D01*
X193614927Y-108436113D01*
X193646970Y-108474984D01*
X193727077Y-108646773D01*
X193729596Y-108650370D01*
X193849580Y-108821726D01*
X193854407Y-108828620D01*
X194011380Y-108985593D01*
X194014974Y-108988110D01*
X194014977Y-108988112D01*
X194102304Y-109049258D01*
X194193227Y-109112923D01*
X194394422Y-109206742D01*
X194529963Y-109243060D01*
X194604603Y-109263060D01*
X194604606Y-109263060D01*
X194608851Y-109264198D01*
X194830000Y-109283546D01*
X195051149Y-109264198D01*
X195055394Y-109263060D01*
X195055397Y-109263060D01*
X195130037Y-109243060D01*
X195265578Y-109206742D01*
X195466773Y-109112923D01*
X195557697Y-109049258D01*
X195645023Y-108988112D01*
X195645026Y-108988110D01*
X195648620Y-108985593D01*
X195805593Y-108828620D01*
X195810421Y-108821726D01*
X195930404Y-108650370D01*
X195932923Y-108646773D01*
X196026742Y-108445578D01*
X196084198Y-108231149D01*
X196103546Y-108010000D01*
X196084198Y-107788851D01*
X196082693Y-107783232D01*
X196060292Y-107699631D01*
X196026742Y-107574422D01*
X195932923Y-107373227D01*
X195805593Y-107191380D01*
X195648620Y-107034407D01*
X195645026Y-107031890D01*
X195645023Y-107031888D01*
X195532902Y-106953381D01*
X195466773Y-106907077D01*
X195265578Y-106813258D01*
X195129069Y-106776681D01*
X195055397Y-106756940D01*
X195055394Y-106756940D01*
X195051149Y-106755802D01*
X194830000Y-106736454D01*
X194608851Y-106755802D01*
X194604606Y-106756940D01*
X194604603Y-106756940D01*
X194530931Y-106776681D01*
X194394422Y-106813258D01*
X194193227Y-106907077D01*
X194127098Y-106953381D01*
X194014977Y-107031888D01*
X194014974Y-107031890D01*
X194011380Y-107034407D01*
X193854407Y-107191380D01*
X193727077Y-107373227D01*
X193725221Y-107377208D01*
X193646971Y-107545015D01*
X193604568Y-107590487D01*
X193555796Y-107603100D01*
X189595176Y-107603100D01*
X189595172Y-107603101D01*
X189562753Y-107603101D01*
X189541006Y-107610167D01*
X189539448Y-107610673D01*
X189524100Y-107614357D01*
X189507713Y-107616952D01*
X189507710Y-107616953D01*
X189499894Y-107618191D01*
X189492840Y-107621786D01*
X189492838Y-107621786D01*
X189478057Y-107629317D01*
X189463473Y-107635358D01*
X189447701Y-107640483D01*
X189447699Y-107640484D01*
X189440168Y-107642931D01*
X189433763Y-107647584D01*
X189433762Y-107647585D01*
X189420341Y-107657336D01*
X189406885Y-107665582D01*
X189385049Y-107676708D01*
X189362126Y-107699631D01*
X189362122Y-107699634D01*
X186949438Y-110112319D01*
X184557022Y-112504735D01*
X184501624Y-112532961D01*
X184485887Y-112534200D01*
X173713220Y-112534200D01*
X173654089Y-112514987D01*
X173629623Y-112489563D01*
X173615328Y-112468209D01*
X173615325Y-112468205D01*
X173612590Y-112464120D01*
X173093078Y-111944610D01*
X173042439Y-111910880D01*
X173000325Y-111902541D01*
X172988279Y-111900156D01*
X172988277Y-111900156D01*
X172983450Y-111899200D01*
X172248750Y-111899200D01*
X172189091Y-111911157D01*
X172139120Y-111944610D01*
X171960975Y-112122756D01*
X171935512Y-112148219D01*
X171880115Y-112176445D01*
X171818706Y-112166719D01*
X171774742Y-112122756D01*
X171763777Y-112077084D01*
X171763777Y-111910536D01*
X171782990Y-111851405D01*
X171793242Y-111839401D01*
X172120178Y-111512465D01*
X172175576Y-111484239D01*
X172191313Y-111483000D01*
X173474364Y-111483000D01*
X173533780Y-111471181D01*
X173601160Y-111426160D01*
X173646181Y-111358780D01*
X173658000Y-111299364D01*
X173658000Y-109861164D01*
X178012400Y-109861164D01*
X178024219Y-109920580D01*
X178069240Y-109987960D01*
X178136620Y-110032981D01*
X178196036Y-110044800D01*
X181036164Y-110044800D01*
X181095580Y-110032981D01*
X181162960Y-109987960D01*
X181207981Y-109920580D01*
X181219800Y-109861164D01*
X181219800Y-107021036D01*
X181207981Y-106961620D01*
X181162960Y-106894240D01*
X181095580Y-106849219D01*
X181036164Y-106837400D01*
X178196036Y-106837400D01*
X178136620Y-106849219D01*
X178069240Y-106894240D01*
X178024219Y-106961620D01*
X178012400Y-107021036D01*
X178012400Y-109861164D01*
X173658000Y-109861164D01*
X173658000Y-109582836D01*
X173646181Y-109523420D01*
X173601160Y-109456040D01*
X173533780Y-109411019D01*
X173474364Y-109399200D01*
X171757836Y-109399200D01*
X171698420Y-109411019D01*
X171631040Y-109456040D01*
X171586019Y-109523420D01*
X171574200Y-109582836D01*
X171574200Y-110865887D01*
X171554987Y-110925018D01*
X171544735Y-110937022D01*
X171023585Y-111458172D01*
X171012458Y-111480010D01*
X171004213Y-111493464D01*
X170989807Y-111513291D01*
X170982233Y-111536602D01*
X170976194Y-111551181D01*
X170965068Y-111573017D01*
X170963830Y-111580834D01*
X170961234Y-111597225D01*
X170957550Y-111612571D01*
X170949977Y-111635877D01*
X170949977Y-117446323D01*
X163675147Y-117446323D01*
X163746773Y-117412923D01*
X163865814Y-117329570D01*
X163925023Y-117288112D01*
X163925026Y-117288110D01*
X163928620Y-117285593D01*
X164085593Y-117128620D01*
X164090421Y-117121726D01*
X164167062Y-117012269D01*
X164212923Y-116946773D01*
X164306742Y-116745578D01*
X164355242Y-116564574D01*
X164363060Y-116535397D01*
X164363060Y-116535394D01*
X164364198Y-116531149D01*
X164383546Y-116310000D01*
X164364198Y-116088851D01*
X164362791Y-116083598D01*
X164335497Y-115981738D01*
X164306742Y-115874422D01*
X164212923Y-115673227D01*
X164085593Y-115491380D01*
X163928620Y-115334407D01*
X163925026Y-115331890D01*
X163925023Y-115331888D01*
X163755089Y-115212900D01*
X163746773Y-115207077D01*
X163545578Y-115113258D01*
X163380110Y-115068921D01*
X163335397Y-115056940D01*
X163335394Y-115056940D01*
X163331149Y-115055802D01*
X163110000Y-115036454D01*
X162888851Y-115055802D01*
X162884606Y-115056940D01*
X162884603Y-115056940D01*
X162839890Y-115068921D01*
X162674422Y-115113258D01*
X162473227Y-115207077D01*
X162464911Y-115212900D01*
X162294977Y-115331888D01*
X162294974Y-115331890D01*
X162291380Y-115334407D01*
X162134407Y-115491380D01*
X162007077Y-115673227D01*
X161913258Y-115874422D01*
X161884503Y-115981738D01*
X161857210Y-116083598D01*
X161855802Y-116088851D01*
X161836454Y-116310000D01*
X148199800Y-116310000D01*
X148199800Y-116021036D01*
X148187981Y-115961620D01*
X148142960Y-115894240D01*
X148075580Y-115849219D01*
X148016164Y-115837400D01*
X145176036Y-115837400D01*
X145116620Y-115849219D01*
X145049240Y-115894240D01*
X145004219Y-115961620D01*
X144992400Y-116021036D01*
X144992400Y-118861164D01*
X143193000Y-118861164D01*
X143193000Y-116180312D01*
X143193027Y-116179970D01*
X143193150Y-116179587D01*
X143193000Y-116115779D01*
X143193000Y-116084076D01*
X143192937Y-116083678D01*
X143192923Y-116083340D01*
X143192923Y-116083232D01*
X143192847Y-116050695D01*
X143185407Y-116027978D01*
X143181649Y-116012406D01*
X143179148Y-115996614D01*
X143179147Y-115996612D01*
X143177909Y-115988794D01*
X143174314Y-115981738D01*
X143166511Y-115966422D01*
X143160545Y-115952066D01*
X143155195Y-115935732D01*
X143155192Y-115935727D01*
X143152728Y-115928203D01*
X143147876Y-115921557D01*
X143138629Y-115908894D01*
X143130243Y-115895246D01*
X143119392Y-115873949D01*
X143096301Y-115850858D01*
X143096076Y-115850615D01*
X143095840Y-115850292D01*
X143073509Y-115828066D01*
X143028251Y-115782808D01*
X143027893Y-115782626D01*
X143027627Y-115782399D01*
X140660374Y-113426278D01*
X140632017Y-113370947D01*
X140632657Y-113335437D01*
X140637044Y-113313281D01*
X140637045Y-113313275D01*
X140638000Y-113308450D01*
X140638000Y-112573750D01*
X140626043Y-112514091D01*
X140592590Y-112464120D01*
X140073078Y-111944610D01*
X140022439Y-111910880D01*
X139980325Y-111902541D01*
X139968279Y-111900156D01*
X139968277Y-111900156D01*
X139963450Y-111899200D01*
X139228750Y-111899200D01*
X139169091Y-111911157D01*
X139119120Y-111944610D01*
X138599610Y-112464122D01*
X138596850Y-112468266D01*
X138571802Y-112505871D01*
X138565880Y-112514761D01*
X138554200Y-112573750D01*
X138554200Y-113308450D01*
X138566157Y-113368109D01*
X138599610Y-113418080D01*
X139119122Y-113937590D01*
X139169761Y-113971320D01*
X139211875Y-113979659D01*
X139223921Y-113982044D01*
X139223923Y-113982044D01*
X139228750Y-113983000D01*
X139963450Y-113983000D01*
X139996245Y-113976427D01*
X140057997Y-113983644D01*
X140086977Y-114003761D01*
X142347000Y-116253156D01*
X142349567Y-116255711D01*
X142377924Y-116311042D01*
X142379200Y-116327013D01*
X142379200Y-119704307D01*
X142359987Y-119763438D01*
X142349735Y-119775442D01*
X141967410Y-120157769D01*
X141964650Y-120161913D01*
X141939602Y-120199518D01*
X141933680Y-120208408D01*
X141922000Y-120267397D01*
X141922000Y-120854803D01*
X141933957Y-120914462D01*
X141967410Y-120964433D01*
X141970887Y-120967910D01*
X142255443Y-121252465D01*
X142283669Y-121307863D01*
X142273943Y-121369271D01*
X142229980Y-121413235D01*
X142184308Y-121424200D01*
X136646314Y-121424200D01*
X136587183Y-121404987D01*
X136575179Y-121394735D01*
X135946960Y-120766516D01*
X135918734Y-120711118D01*
X135928460Y-120649710D01*
X135935689Y-120637679D01*
X136010505Y-120530832D01*
X136010509Y-120530824D01*
X136013428Y-120526656D01*
X136091343Y-120346604D01*
X136107891Y-120267397D01*
X136130674Y-120158343D01*
X136130675Y-120158337D01*
X136131463Y-120154564D01*
X136131800Y-120148133D01*
X136131800Y-118480073D01*
X136116954Y-118333918D01*
X136063918Y-118164679D01*
X136059809Y-118151567D01*
X136059808Y-118151565D01*
X136058286Y-118146708D01*
X136039741Y-118113251D01*
X135965644Y-117979578D01*
X135963173Y-117975120D01*
X135835500Y-117826161D01*
X135746801Y-117757359D01*
X135684511Y-117709042D01*
X135684510Y-117709041D01*
X135680482Y-117705917D01*
X135504452Y-117619299D01*
X135498579Y-117617769D01*
X135477387Y-117612249D01*
X135314600Y-117569846D01*
X135309516Y-117569580D01*
X135309512Y-117569579D01*
X135194382Y-117563546D01*
X135118683Y-117559579D01*
X135113645Y-117560341D01*
X135113644Y-117560341D01*
X135088141Y-117564198D01*
X134924702Y-117588916D01*
X134740582Y-117656659D01*
X134573844Y-117760040D01*
X134431300Y-117894838D01*
X134386482Y-117958845D01*
X134327100Y-118043651D01*
X134318772Y-118055544D01*
X134240857Y-118235596D01*
X134239814Y-118240589D01*
X134201739Y-118422841D01*
X134200737Y-118427636D01*
X134200400Y-118434067D01*
X134200400Y-120102127D01*
X133591800Y-120102127D01*
X133591800Y-118480073D01*
X133576954Y-118333918D01*
X133523918Y-118164679D01*
X133519809Y-118151567D01*
X133519808Y-118151565D01*
X133518286Y-118146708D01*
X133499741Y-118113251D01*
X133425644Y-117979578D01*
X133423173Y-117975120D01*
X133295500Y-117826161D01*
X133206801Y-117757359D01*
X133144511Y-117709042D01*
X133144510Y-117709041D01*
X133140482Y-117705917D01*
X132964452Y-117619299D01*
X132958579Y-117617769D01*
X132937387Y-117612249D01*
X132774600Y-117569846D01*
X132769516Y-117569580D01*
X132769512Y-117569579D01*
X132654382Y-117563546D01*
X132578683Y-117559579D01*
X132573645Y-117560341D01*
X132573644Y-117560341D01*
X132548141Y-117564198D01*
X132384702Y-117588916D01*
X132200582Y-117656659D01*
X132033844Y-117760040D01*
X131891300Y-117894838D01*
X131846482Y-117958845D01*
X131787100Y-118043651D01*
X131778772Y-118055544D01*
X131700857Y-118235596D01*
X131699814Y-118240589D01*
X131661739Y-118422841D01*
X131660737Y-118427636D01*
X131660400Y-118434067D01*
X131660400Y-120102127D01*
X131051800Y-120102127D01*
X131051800Y-118480073D01*
X131036954Y-118333918D01*
X130983918Y-118164679D01*
X130979809Y-118151567D01*
X130979808Y-118151565D01*
X130978286Y-118146708D01*
X130959741Y-118113251D01*
X130885644Y-117979578D01*
X130883173Y-117975120D01*
X130755500Y-117826161D01*
X130666801Y-117757359D01*
X130604511Y-117709042D01*
X130604510Y-117709041D01*
X130600482Y-117705917D01*
X130553139Y-117682621D01*
X130508566Y-117639274D01*
X130497985Y-117578007D01*
X130526421Y-117521222D01*
X132476021Y-115571622D01*
X132531419Y-115543396D01*
X132592827Y-115553122D01*
X132611005Y-115565017D01*
X132624037Y-115575721D01*
X132627530Y-115577754D01*
X132627533Y-115577756D01*
X132791569Y-115673227D01*
X132840479Y-115701693D01*
X132844255Y-115703142D01*
X132844254Y-115703142D01*
X133070499Y-115789989D01*
X133070502Y-115789990D01*
X133074277Y-115791439D01*
X133319416Y-115842652D01*
X133569589Y-115854012D01*
X133573607Y-115853547D01*
X133573610Y-115853547D01*
X133814345Y-115825693D01*
X133814349Y-115825692D01*
X133818361Y-115825228D01*
X133877654Y-115808450D01*
X138554200Y-115808450D01*
X138566157Y-115868109D01*
X138599610Y-115918080D01*
X139119122Y-116437590D01*
X139142236Y-116452986D01*
X139154939Y-116461447D01*
X139169761Y-116471320D01*
X139211875Y-116479659D01*
X139223921Y-116482044D01*
X139223923Y-116482044D01*
X139228750Y-116483000D01*
X139963450Y-116483000D01*
X140023109Y-116471043D01*
X140073080Y-116437590D01*
X140592590Y-115918078D01*
X140618841Y-115878667D01*
X140620837Y-115875671D01*
X140620837Y-115875670D01*
X140626320Y-115867439D01*
X140638000Y-115808450D01*
X140638000Y-115073750D01*
X140626043Y-115014091D01*
X140592590Y-114964120D01*
X140073078Y-114444610D01*
X140022439Y-114410880D01*
X139980325Y-114402541D01*
X139968279Y-114400156D01*
X139968277Y-114400156D01*
X139963450Y-114399200D01*
X139228750Y-114399200D01*
X139169091Y-114411157D01*
X139119120Y-114444610D01*
X138599610Y-114964122D01*
X138596850Y-114968266D01*
X138571802Y-115005871D01*
X138565880Y-115014761D01*
X138554200Y-115073750D01*
X138554200Y-115808450D01*
X133877654Y-115808450D01*
X134059330Y-115757041D01*
X134286298Y-115651204D01*
X134493425Y-115510440D01*
X134675382Y-115338372D01*
X134827488Y-115139426D01*
X134945829Y-114918720D01*
X134972831Y-114840302D01*
X135026046Y-114685752D01*
X135027361Y-114681933D01*
X135069987Y-114435156D01*
X135071350Y-114405142D01*
X135071350Y-111525622D01*
X135056329Y-111338925D01*
X135046612Y-111299364D01*
X138554200Y-111299364D01*
X138566019Y-111358780D01*
X138611040Y-111426160D01*
X138678420Y-111471181D01*
X138737836Y-111483000D01*
X140454364Y-111483000D01*
X140513780Y-111471181D01*
X140581160Y-111426160D01*
X140626181Y-111358780D01*
X140638000Y-111299364D01*
X140638000Y-110694803D01*
X153352000Y-110694803D01*
X153363957Y-110754462D01*
X153397410Y-110804433D01*
X153812769Y-111219790D01*
X153863408Y-111253520D01*
X153905522Y-111261859D01*
X153917568Y-111264244D01*
X153917570Y-111264244D01*
X153922397Y-111265200D01*
X154509803Y-111265200D01*
X154569462Y-111253243D01*
X154619433Y-111219790D01*
X155001756Y-110837465D01*
X155057153Y-110809239D01*
X155072891Y-110808000D01*
X160783346Y-110808000D01*
X160806652Y-110800427D01*
X160821998Y-110796743D01*
X160838389Y-110794147D01*
X160846206Y-110792909D01*
X160868042Y-110781783D01*
X160882618Y-110775745D01*
X160905932Y-110768170D01*
X160925759Y-110753764D01*
X160939213Y-110745519D01*
X160961051Y-110734392D01*
X162497954Y-109197489D01*
X162553352Y-109169263D01*
X162611605Y-109177450D01*
X162670437Y-109204884D01*
X162670439Y-109204885D01*
X162674422Y-109206742D01*
X162809963Y-109243060D01*
X162884603Y-109263060D01*
X162884606Y-109263060D01*
X162888851Y-109264198D01*
X163110000Y-109283546D01*
X163331149Y-109264198D01*
X163335394Y-109263060D01*
X163335397Y-109263060D01*
X163410037Y-109243060D01*
X163545578Y-109206742D01*
X163746773Y-109112923D01*
X163837697Y-109049258D01*
X163925023Y-108988112D01*
X163925026Y-108988110D01*
X163928620Y-108985593D01*
X164085593Y-108828620D01*
X164090421Y-108821726D01*
X164210404Y-108650370D01*
X164212923Y-108646773D01*
X164306742Y-108445578D01*
X164364198Y-108231149D01*
X164383546Y-108010000D01*
X164364198Y-107788851D01*
X164362693Y-107783232D01*
X164340292Y-107699631D01*
X164306742Y-107574422D01*
X164212923Y-107373227D01*
X164085593Y-107191380D01*
X163928620Y-107034407D01*
X163925026Y-107031890D01*
X163925023Y-107031888D01*
X163812902Y-106953381D01*
X163746773Y-106907077D01*
X163545578Y-106813258D01*
X163409069Y-106776681D01*
X163335397Y-106756940D01*
X163335394Y-106756940D01*
X163331149Y-106755802D01*
X163110000Y-106736454D01*
X162888851Y-106755802D01*
X162884606Y-106756940D01*
X162884603Y-106756940D01*
X162810931Y-106776681D01*
X162674422Y-106813258D01*
X162473227Y-106907077D01*
X162407098Y-106953381D01*
X162294977Y-107031888D01*
X162294974Y-107031890D01*
X162291380Y-107034407D01*
X162134407Y-107191380D01*
X162007077Y-107373227D01*
X161913258Y-107574422D01*
X161879708Y-107699631D01*
X161857308Y-107783232D01*
X161855802Y-107788851D01*
X161836454Y-108010000D01*
X161855802Y-108231149D01*
X161913258Y-108445578D01*
X161915114Y-108449558D01*
X161915116Y-108449563D01*
X161942550Y-108508395D01*
X161950128Y-108570106D01*
X161922511Y-108622046D01*
X160579822Y-109964735D01*
X160524424Y-109992961D01*
X160508687Y-109994200D01*
X155072893Y-109994200D01*
X155013762Y-109974987D01*
X155001758Y-109964735D01*
X154622952Y-109585931D01*
X154619431Y-109582410D01*
X154568792Y-109548680D01*
X154526678Y-109540341D01*
X154514632Y-109537956D01*
X154514630Y-109537956D01*
X154509803Y-109537000D01*
X153922397Y-109537000D01*
X153862738Y-109548957D01*
X153812767Y-109582410D01*
X153397410Y-109997769D01*
X153394650Y-110001913D01*
X153369582Y-110039548D01*
X153363680Y-110048408D01*
X153352000Y-110107397D01*
X153352000Y-110694803D01*
X140638000Y-110694803D01*
X140638000Y-109861164D01*
X144992400Y-109861164D01*
X145004219Y-109920580D01*
X145049240Y-109987960D01*
X145116620Y-110032981D01*
X145176036Y-110044800D01*
X148016164Y-110044800D01*
X148075580Y-110032981D01*
X148142960Y-109987960D01*
X148187981Y-109920580D01*
X148199800Y-109861164D01*
X148199800Y-107021036D01*
X148187981Y-106961620D01*
X148142960Y-106894240D01*
X148075580Y-106849219D01*
X148016164Y-106837400D01*
X145176036Y-106837400D01*
X145116620Y-106849219D01*
X145049240Y-106894240D01*
X145004219Y-106961620D01*
X144992400Y-107021036D01*
X144992400Y-109861164D01*
X140638000Y-109861164D01*
X140638000Y-109582836D01*
X140626181Y-109523420D01*
X140581160Y-109456040D01*
X140513780Y-109411019D01*
X140454364Y-109399200D01*
X138737836Y-109399200D01*
X138678420Y-109411019D01*
X138611040Y-109456040D01*
X138566019Y-109523420D01*
X138554200Y-109582836D01*
X138554200Y-111299364D01*
X135046612Y-111299364D01*
X135038220Y-111265200D01*
X134997557Y-111099650D01*
X134997555Y-111099645D01*
X134996592Y-111095723D01*
X134924132Y-110925018D01*
X134900321Y-110868922D01*
X134900320Y-110868921D01*
X134898741Y-110865200D01*
X134862720Y-110808000D01*
X134767446Y-110656707D01*
X134767444Y-110656704D01*
X134765292Y-110653287D01*
X134599679Y-110465435D01*
X134406163Y-110306479D01*
X134273541Y-110229291D01*
X134193216Y-110182541D01*
X134193215Y-110182540D01*
X134189721Y-110180507D01*
X134049983Y-110126867D01*
X133959701Y-110092211D01*
X133959698Y-110092210D01*
X133955923Y-110090761D01*
X133710784Y-110039548D01*
X133460611Y-110028188D01*
X133456593Y-110028653D01*
X133456590Y-110028653D01*
X133215855Y-110056507D01*
X133215851Y-110056508D01*
X133211839Y-110056972D01*
X132970870Y-110125159D01*
X132743902Y-110230996D01*
X132536775Y-110371760D01*
X132354818Y-110543828D01*
X132243195Y-110689825D01*
X132209121Y-110734392D01*
X132202712Y-110742774D01*
X132084371Y-110963480D01*
X132002839Y-111200267D01*
X131960213Y-111447044D01*
X131958850Y-111477058D01*
X131958850Y-114356578D01*
X131973871Y-114543275D01*
X132033398Y-114785621D01*
X132033608Y-114786477D01*
X132033404Y-114786527D01*
X132033824Y-114846974D01*
X132009069Y-114887688D01*
X129752808Y-117143949D01*
X129741681Y-117165787D01*
X129733436Y-117179241D01*
X129719030Y-117199068D01*
X129714395Y-117213334D01*
X129711456Y-117222379D01*
X129705417Y-117236958D01*
X129694291Y-117258794D01*
X129693053Y-117266611D01*
X129690457Y-117283002D01*
X129686773Y-117298348D01*
X129679200Y-117321654D01*
X129679200Y-117589123D01*
X129659987Y-117648254D01*
X129631615Y-117674619D01*
X129493844Y-117760040D01*
X129351300Y-117894838D01*
X129306482Y-117958845D01*
X129247100Y-118043651D01*
X129238772Y-118055544D01*
X129160857Y-118235596D01*
X129159814Y-118240589D01*
X129121739Y-118422841D01*
X129120737Y-118427636D01*
X129120400Y-118434067D01*
X129120400Y-120102127D01*
X128511800Y-120102127D01*
X128511800Y-118480073D01*
X128496954Y-118333918D01*
X128443918Y-118164679D01*
X128439809Y-118151567D01*
X128439808Y-118151565D01*
X128438286Y-118146708D01*
X128419741Y-118113251D01*
X128345644Y-117979578D01*
X128343173Y-117975120D01*
X128215500Y-117826161D01*
X128126801Y-117757359D01*
X128064511Y-117709042D01*
X128064510Y-117709041D01*
X128060482Y-117705917D01*
X128009184Y-117680675D01*
X127964611Y-117637329D01*
X127953000Y-117590411D01*
X127953000Y-116961313D01*
X127972213Y-116902182D01*
X127982465Y-116890178D01*
X129013231Y-115859413D01*
X129072802Y-115830615D01*
X129093391Y-115828233D01*
X129115345Y-115825693D01*
X129115349Y-115825692D01*
X129119361Y-115825228D01*
X129360330Y-115757041D01*
X129587298Y-115651204D01*
X129794425Y-115510440D01*
X129976382Y-115338372D01*
X130128488Y-115139426D01*
X130246829Y-114918720D01*
X130273831Y-114840302D01*
X130327046Y-114685752D01*
X130328361Y-114681933D01*
X130370987Y-114435156D01*
X130372350Y-114405142D01*
X130372350Y-111525622D01*
X130357329Y-111338925D01*
X130339220Y-111265200D01*
X130298557Y-111099650D01*
X130298555Y-111099645D01*
X130297592Y-111095723D01*
X130225132Y-110925018D01*
X130201321Y-110868922D01*
X130201320Y-110868921D01*
X130199741Y-110865200D01*
X130163720Y-110808000D01*
X130068446Y-110656707D01*
X130068444Y-110656704D01*
X130066292Y-110653287D01*
X129900679Y-110465435D01*
X129707163Y-110306479D01*
X129574541Y-110229291D01*
X129494216Y-110182541D01*
X129494215Y-110182540D01*
X129490721Y-110180507D01*
X129350983Y-110126867D01*
X129260701Y-110092211D01*
X129260698Y-110092210D01*
X129256923Y-110090761D01*
X129011784Y-110039548D01*
X128761611Y-110028188D01*
X128757593Y-110028653D01*
X128757590Y-110028653D01*
X128516855Y-110056507D01*
X128516851Y-110056508D01*
X128512839Y-110056972D01*
X128271870Y-110125159D01*
X128044902Y-110230996D01*
X127837775Y-110371760D01*
X127655818Y-110543828D01*
X127544195Y-110689825D01*
X127510121Y-110734392D01*
X127503712Y-110742774D01*
X127385371Y-110963480D01*
X127303839Y-111200267D01*
X127261213Y-111447044D01*
X127259850Y-111477058D01*
X127259850Y-114356578D01*
X127274871Y-114543275D01*
X127275835Y-114547199D01*
X127275835Y-114547200D01*
X127307952Y-114677953D01*
X127334608Y-114786477D01*
X127432459Y-115017000D01*
X127434614Y-115020422D01*
X127553187Y-115208712D01*
X127565908Y-115228913D01*
X127731521Y-115416765D01*
X127734640Y-115419327D01*
X127734641Y-115419328D01*
X127814097Y-115484593D01*
X127925037Y-115575721D01*
X127928535Y-115577757D01*
X127928538Y-115577759D01*
X127951830Y-115591316D01*
X127993271Y-115637666D01*
X127999553Y-115699522D01*
X127972360Y-115749396D01*
X127637681Y-116084076D01*
X127212808Y-116508949D01*
X127201681Y-116530787D01*
X127193436Y-116544241D01*
X127179030Y-116564068D01*
X127171456Y-116587379D01*
X127165417Y-116601958D01*
X127154291Y-116623794D01*
X127153053Y-116631611D01*
X127150457Y-116648002D01*
X127146773Y-116663348D01*
X127139200Y-116686654D01*
X127139200Y-117589123D01*
X127119987Y-117648254D01*
X127091615Y-117674619D01*
X126953844Y-117760040D01*
X126811300Y-117894838D01*
X126766482Y-117958845D01*
X126707100Y-118043651D01*
X126698772Y-118055544D01*
X126620857Y-118235596D01*
X126619814Y-118240589D01*
X126581739Y-118422841D01*
X126580737Y-118427636D01*
X126580400Y-118434067D01*
X126580400Y-120102127D01*
X125971800Y-120102127D01*
X125971800Y-118480073D01*
X125956954Y-118333918D01*
X125903918Y-118164679D01*
X125899809Y-118151567D01*
X125899808Y-118151565D01*
X125898286Y-118146708D01*
X125879741Y-118113251D01*
X125805644Y-117979578D01*
X125803173Y-117975120D01*
X125675500Y-117826161D01*
X125586801Y-117757359D01*
X125524511Y-117709042D01*
X125524510Y-117709041D01*
X125520482Y-117705917D01*
X125469184Y-117680675D01*
X125424611Y-117637329D01*
X125413000Y-117590411D01*
X125413000Y-116788976D01*
X125414115Y-116774041D01*
X125416882Y-116755608D01*
X125418058Y-116747775D01*
X125416689Y-116739558D01*
X125407807Y-116686269D01*
X125407677Y-116685467D01*
X125399076Y-116631163D01*
X125397909Y-116623794D01*
X125397144Y-116622293D01*
X125396868Y-116620636D01*
X125368104Y-116565291D01*
X125367735Y-116564574D01*
X125343376Y-116516768D01*
X125339392Y-116508949D01*
X125338203Y-116507760D01*
X125337427Y-116506267D01*
X125292919Y-116462471D01*
X125292344Y-116461901D01*
X125248251Y-116417808D01*
X125224588Y-116405751D01*
X125211790Y-116397980D01*
X124583227Y-115949007D01*
X124546278Y-115899003D01*
X124545776Y-115836831D01*
X124581914Y-115786238D01*
X124614309Y-115770346D01*
X124661330Y-115757041D01*
X124888298Y-115651204D01*
X125095425Y-115510440D01*
X125277382Y-115338372D01*
X125429488Y-115139426D01*
X125547829Y-114918720D01*
X125574831Y-114840302D01*
X125628046Y-114685752D01*
X125629361Y-114681933D01*
X125671987Y-114435156D01*
X125673350Y-114405142D01*
X125673350Y-111525622D01*
X125658329Y-111338925D01*
X125640220Y-111265200D01*
X125599557Y-111099650D01*
X125599555Y-111099645D01*
X125598592Y-111095723D01*
X125526132Y-110925018D01*
X125502321Y-110868922D01*
X125502320Y-110868921D01*
X125500741Y-110865200D01*
X125464720Y-110808000D01*
X125369446Y-110656707D01*
X125369444Y-110656704D01*
X125367292Y-110653287D01*
X125201679Y-110465435D01*
X125008163Y-110306479D01*
X124875541Y-110229291D01*
X124795216Y-110182541D01*
X124795215Y-110182540D01*
X124791721Y-110180507D01*
X124651983Y-110126867D01*
X124561701Y-110092211D01*
X124561698Y-110092210D01*
X124557923Y-110090761D01*
X124312784Y-110039548D01*
X124062611Y-110028188D01*
X124058593Y-110028653D01*
X124058590Y-110028653D01*
X123817855Y-110056507D01*
X123817851Y-110056508D01*
X123813839Y-110056972D01*
X123572870Y-110125159D01*
X123345902Y-110230996D01*
X123138775Y-110371760D01*
X122956818Y-110543828D01*
X122845195Y-110689825D01*
X122811121Y-110734392D01*
X122804712Y-110742774D01*
X122686371Y-110963480D01*
X122604839Y-111200267D01*
X122562213Y-111447044D01*
X122560850Y-111477058D01*
X122560850Y-114356578D01*
X105728000Y-114356578D01*
X105728000Y-112376654D01*
X105720427Y-112353348D01*
X105716743Y-112338002D01*
X105714147Y-112321611D01*
X105712909Y-112313794D01*
X105701783Y-112291958D01*
X105695744Y-112277379D01*
X105688170Y-112254068D01*
X105673764Y-112234241D01*
X105665519Y-112220787D01*
X105654392Y-112198949D01*
X102067489Y-108612046D01*
X102039263Y-108556648D01*
X102047450Y-108498395D01*
X102074884Y-108439563D01*
X102074886Y-108439558D01*
X102076742Y-108435578D01*
X102131519Y-108231149D01*
X102133060Y-108225397D01*
X102133060Y-108225394D01*
X102134198Y-108221149D01*
X102153546Y-108000000D01*
X102152671Y-107990000D01*
X112306454Y-107990000D01*
X112325802Y-108211149D01*
X112326940Y-108215394D01*
X112326940Y-108215397D01*
X112328481Y-108221149D01*
X112383258Y-108425578D01*
X112477077Y-108626773D01*
X112604407Y-108808620D01*
X112761380Y-108965593D01*
X112764974Y-108968110D01*
X112764977Y-108968112D01*
X112852303Y-109029258D01*
X112943227Y-109092923D01*
X113144422Y-109186742D01*
X113280931Y-109223319D01*
X113354603Y-109243060D01*
X113354606Y-109243060D01*
X113358851Y-109244198D01*
X113580000Y-109263546D01*
X113801149Y-109244198D01*
X113805394Y-109243060D01*
X113805397Y-109243060D01*
X113879069Y-109223319D01*
X114015578Y-109186742D01*
X114216773Y-109092923D01*
X114307697Y-109029258D01*
X114395023Y-108968112D01*
X114395026Y-108968110D01*
X114398620Y-108965593D01*
X114555593Y-108808620D01*
X114682923Y-108626773D01*
X114776742Y-108425578D01*
X114831519Y-108221149D01*
X114833060Y-108215397D01*
X114833060Y-108215394D01*
X114834198Y-108211149D01*
X114853546Y-107990000D01*
X114834198Y-107768851D01*
X114776742Y-107554422D01*
X114682923Y-107353227D01*
X114569597Y-107191380D01*
X114558112Y-107174977D01*
X114558110Y-107174974D01*
X114555593Y-107171380D01*
X114398620Y-107014407D01*
X114395026Y-107011890D01*
X114395023Y-107011888D01*
X114307696Y-106950742D01*
X114216773Y-106887077D01*
X114015578Y-106793258D01*
X113838470Y-106745802D01*
X113805397Y-106736940D01*
X113805394Y-106736940D01*
X113801149Y-106735802D01*
X113580000Y-106716454D01*
X113358851Y-106735802D01*
X113354606Y-106736940D01*
X113354603Y-106736940D01*
X113321530Y-106745802D01*
X113144422Y-106793258D01*
X112943227Y-106887077D01*
X112852304Y-106950742D01*
X112764977Y-107011888D01*
X112764974Y-107011890D01*
X112761380Y-107014407D01*
X112604407Y-107171380D01*
X112601890Y-107174974D01*
X112601888Y-107174977D01*
X112590403Y-107191380D01*
X112477077Y-107353227D01*
X112383258Y-107554422D01*
X112325802Y-107768851D01*
X112306454Y-107990000D01*
X102152671Y-107990000D01*
X102134198Y-107778851D01*
X102132693Y-107773232D01*
X102095094Y-107632913D01*
X102076742Y-107564422D01*
X101982923Y-107363227D01*
X101862595Y-107191380D01*
X101858112Y-107184977D01*
X101858110Y-107184974D01*
X101855593Y-107181380D01*
X101698620Y-107024407D01*
X101695026Y-107021890D01*
X101695023Y-107021888D01*
X101534652Y-106909596D01*
X101516773Y-106897077D01*
X101315578Y-106803258D01*
X101138470Y-106755802D01*
X101105397Y-106746940D01*
X101105394Y-106746940D01*
X101101149Y-106745802D01*
X100880000Y-106726454D01*
X100658851Y-106745802D01*
X100654606Y-106746940D01*
X100654603Y-106746940D01*
X100621530Y-106755802D01*
X100444422Y-106803258D01*
X100243227Y-106897077D01*
X100225348Y-106909596D01*
X100064977Y-107021888D01*
X100064974Y-107021890D01*
X100061380Y-107024407D01*
X99904407Y-107181380D01*
X99901890Y-107184974D01*
X99901888Y-107184977D01*
X99897405Y-107191380D01*
X99777077Y-107363227D01*
X99683258Y-107564422D01*
X99664906Y-107632913D01*
X99627308Y-107773232D01*
X99625802Y-107778851D01*
X99606454Y-108000000D01*
X94551600Y-108000000D01*
X94551600Y-105316028D01*
X94548088Y-105307549D01*
X94555342Y-105246263D01*
X94597547Y-105200607D01*
X94646849Y-105187781D01*
X99658821Y-105195163D01*
G37*
%TD.AperFunction*%
%TD*%
M02*
