%TF.GenerationSoftware,KiCad,Pcbnew,(6.0.5)*%
%TF.CreationDate,2022-07-06T11:36:20+02:00*%
%TF.ProjectId,faceplate-kicad,66616365-706c-4617-9465-2d6b69636164,rev?*%
%TF.SameCoordinates,Original*%
%TF.FileFunction,Copper,L2,Bot*%
%TF.FilePolarity,Positive*%
%FSLAX46Y46*%
G04 Gerber Fmt 4.6, Leading zero omitted, Abs format (unit mm)*
G04 Created by KiCad (PCBNEW (6.0.5)) date 2022-07-06 11:36:20*
%MOMM*%
%LPD*%
G01*
G04 APERTURE LIST*
%TA.AperFunction,ConnectorPad*%
%ADD10C,7.400000*%
%TD*%
%TA.AperFunction,ComponentPad*%
%ADD11C,7.200000*%
%TD*%
%TA.AperFunction,ComponentPad*%
%ADD12C,6.800000*%
%TD*%
%TA.AperFunction,ConnectorPad*%
%ADD13C,6.400000*%
%TD*%
G04 APERTURE END LIST*
D10*
%TO.P,REF\u002A\u002A,1*%
%TO.N,N/C*%
X154910000Y-108790000D03*
D11*
X154910000Y-108790000D03*
%TD*%
D10*
%TO.P,REF\u002A\u002A,1*%
%TO.N,N/C*%
X154900000Y-66890000D03*
D11*
X154900000Y-66890000D03*
%TD*%
D10*
%TO.P,REF\u002A\u002A,1*%
%TO.N,N/C*%
X170770000Y-129730000D03*
D11*
X170770000Y-129730000D03*
%TD*%
D10*
%TO.P,REF\u002A\u002A,1*%
%TO.N,N/C*%
X154910000Y-45940000D03*
D11*
X154910000Y-45940000D03*
%TD*%
D10*
%TO.P,REF\u002A\u002A,1*%
%TO.N,N/C*%
X154910000Y-87830000D03*
D11*
X154910000Y-87830000D03*
%TD*%
D10*
%TO.P,REF\u002A\u002A,1*%
%TO.N,N/C*%
X154890000Y-129750000D03*
D11*
X154890000Y-129750000D03*
%TD*%
D12*
%TO.P,REF\u002A\u002A,1*%
%TO.N,N/C*%
X139050000Y-87830000D03*
D13*
X139050000Y-87830000D03*
%TD*%
D12*
%TO.P,REF\u002A\u002A,1*%
%TO.N,N/C*%
X139110000Y-108750000D03*
D13*
X139110000Y-108750000D03*
%TD*%
D12*
%TO.P,REF\u002A\u002A,1*%
%TO.N,N/C*%
X139090000Y-45900000D03*
D13*
X139090000Y-45900000D03*
%TD*%
D12*
%TO.P,REF\u002A\u002A,1*%
%TO.N,N/C*%
X139050000Y-66930000D03*
D13*
X139050000Y-66930000D03*
%TD*%
D12*
%TO.P,REF\u002A\u002A,1*%
%TO.N,N/C*%
X170790000Y-66860000D03*
D13*
X170790000Y-66860000D03*
%TD*%
D12*
%TO.P,GND,1*%
%TO.N,N/C*%
X170790000Y-45920000D03*
D13*
X170790000Y-45920000D03*
%TD*%
D12*
%TO.P,REF\u002A\u002A,1*%
%TO.N,N/C*%
X139050000Y-129760000D03*
D13*
X139050000Y-129760000D03*
%TD*%
D12*
%TO.P,REF\u002A\u002A,1*%
%TO.N,N/C*%
X170820000Y-108770000D03*
D13*
X170820000Y-108770000D03*
%TD*%
D12*
%TO.P,REF\u002A\u002A,1*%
%TO.N,N/C*%
X170780000Y-87850000D03*
D13*
X170780000Y-87850000D03*
%TD*%
%TA.AperFunction,NonConductor*%
G36*
X179593648Y-33060002D02*
G01*
X179640141Y-33113658D01*
X179651527Y-33166000D01*
X179651527Y-143200728D01*
X179631525Y-143268849D01*
X179577869Y-143315342D01*
X179525293Y-143326728D01*
X172627293Y-143313940D01*
X130294159Y-143235458D01*
X130226076Y-143215329D01*
X130179683Y-143161588D01*
X130168393Y-143109458D01*
X130168393Y-129746339D01*
X135136501Y-129746339D01*
X135136651Y-129749520D01*
X135152213Y-130079503D01*
X135155155Y-130141893D01*
X135213686Y-130533537D01*
X135311496Y-130917260D01*
X135372107Y-131082887D01*
X135445678Y-131283928D01*
X135447583Y-131289135D01*
X135620554Y-131645354D01*
X135828637Y-131982270D01*
X136069702Y-132296432D01*
X136071884Y-132298748D01*
X136071893Y-132298758D01*
X136266680Y-132505460D01*
X136341282Y-132584625D01*
X136343687Y-132586709D01*
X136343693Y-132586714D01*
X136593808Y-132803370D01*
X136640595Y-132843898D01*
X136964576Y-133071596D01*
X137005909Y-133094791D01*
X137214067Y-133211604D01*
X137309910Y-133265389D01*
X137312824Y-133266656D01*
X137312828Y-133266658D01*
X137364575Y-133289158D01*
X137673060Y-133423291D01*
X137852788Y-133480650D01*
X138047263Y-133542715D01*
X138047271Y-133542717D01*
X138050307Y-133543686D01*
X138101965Y-133554572D01*
X138434671Y-133624684D01*
X138434676Y-133624685D01*
X138437790Y-133625341D01*
X138831541Y-133667421D01*
X138834728Y-133667438D01*
X138834734Y-133667438D01*
X139014648Y-133668380D01*
X139227529Y-133669494D01*
X139342579Y-133658416D01*
X139618515Y-133631847D01*
X139618523Y-133631846D01*
X139621699Y-133631540D01*
X140010016Y-133553947D01*
X140301054Y-133464412D01*
X140385462Y-133438445D01*
X140385465Y-133438444D01*
X140388504Y-133437509D01*
X140391432Y-133436272D01*
X140391438Y-133436270D01*
X140555773Y-133366851D01*
X140753287Y-133283418D01*
X140756090Y-133281884D01*
X140756095Y-133281881D01*
X140927391Y-133188099D01*
X141100631Y-133093253D01*
X141426979Y-132868960D01*
X141674430Y-132659106D01*
X141726561Y-132614896D01*
X141726563Y-132614894D01*
X141728991Y-132612835D01*
X141731196Y-132610543D01*
X141731202Y-132610538D01*
X141853706Y-132483237D01*
X142003573Y-132327502D01*
X142247915Y-132015881D01*
X142270885Y-131979547D01*
X142457806Y-131683866D01*
X142459515Y-131681163D01*
X142636207Y-131326775D01*
X142776180Y-130956346D01*
X142787402Y-130914173D01*
X142854097Y-130663511D01*
X142878003Y-130573667D01*
X142890825Y-130493621D01*
X142940128Y-130185809D01*
X142940633Y-130182658D01*
X142942802Y-130145052D01*
X142950649Y-130008956D01*
X142963428Y-129787321D01*
X142963523Y-129760000D01*
X142963117Y-129751974D01*
X142960037Y-129691169D01*
X150676836Y-129691169D01*
X150676944Y-129694258D01*
X150690505Y-130082583D01*
X150691203Y-130102583D01*
X150691609Y-130105627D01*
X150691610Y-130105637D01*
X150711546Y-130255045D01*
X150745648Y-130510631D01*
X150746348Y-130513615D01*
X150746349Y-130513621D01*
X150786892Y-130686477D01*
X150839652Y-130911419D01*
X150972317Y-131301120D01*
X151142377Y-131676016D01*
X151348210Y-132032528D01*
X151349999Y-132035026D01*
X151350001Y-132035030D01*
X151571738Y-132344749D01*
X151587849Y-132367253D01*
X151589876Y-132369568D01*
X151589878Y-132369571D01*
X151704771Y-132500812D01*
X151859008Y-132676995D01*
X152159098Y-132958799D01*
X152335688Y-133094791D01*
X152456851Y-133188099D01*
X152485256Y-133209974D01*
X152487859Y-133211601D01*
X152487864Y-133211604D01*
X152571447Y-133263832D01*
X152834367Y-133428123D01*
X153203099Y-133611163D01*
X153587934Y-133757348D01*
X153985197Y-133865282D01*
X153988240Y-133865797D01*
X153988246Y-133865798D01*
X154388055Y-133933421D01*
X154388062Y-133933422D01*
X154391096Y-133933935D01*
X154394167Y-133934150D01*
X154394169Y-133934150D01*
X154798692Y-133962437D01*
X154798700Y-133962437D01*
X154801758Y-133962651D01*
X155065974Y-133955271D01*
X155210187Y-133951243D01*
X155210190Y-133951243D01*
X155213261Y-133951157D01*
X155216314Y-133950771D01*
X155216318Y-133950771D01*
X155374631Y-133930771D01*
X155621680Y-133899561D01*
X155624684Y-133898879D01*
X155624687Y-133898878D01*
X156020118Y-133809039D01*
X156020124Y-133809037D01*
X156023114Y-133808358D01*
X156239878Y-133736250D01*
X156410808Y-133679389D01*
X156410814Y-133679387D01*
X156413732Y-133678416D01*
X156433771Y-133669494D01*
X156787006Y-133512224D01*
X156787012Y-133512221D01*
X156789806Y-133510977D01*
X156792475Y-133509461D01*
X157145073Y-133309158D01*
X157145081Y-133309153D01*
X157147746Y-133307639D01*
X157173945Y-133289158D01*
X157449477Y-133094791D01*
X157484136Y-133070342D01*
X157507307Y-133050342D01*
X157793426Y-132803370D01*
X157795764Y-132801352D01*
X157797885Y-132799125D01*
X157797891Y-132799119D01*
X158077538Y-132505460D01*
X158079655Y-132503237D01*
X158097176Y-132480812D01*
X158331191Y-132181286D01*
X158331193Y-132181283D01*
X158333101Y-132178841D01*
X158334757Y-132176231D01*
X158334763Y-132176223D01*
X158552029Y-131833866D01*
X158552031Y-131833863D01*
X158553682Y-131831261D01*
X158565175Y-131808510D01*
X158737906Y-131466558D01*
X158739292Y-131463815D01*
X158747050Y-131443815D01*
X158887045Y-131082887D01*
X158887048Y-131082877D01*
X158888160Y-131080011D01*
X158998865Y-130683511D01*
X159070350Y-130278101D01*
X159101932Y-129867650D01*
X159103575Y-129750000D01*
X159102694Y-129731974D01*
X159099720Y-129671169D01*
X166556836Y-129671169D01*
X166557642Y-129694258D01*
X166563766Y-129869603D01*
X166571203Y-130082583D01*
X166571609Y-130085627D01*
X166571610Y-130085637D01*
X166584556Y-130182658D01*
X166625648Y-130490631D01*
X166626348Y-130493615D01*
X166626349Y-130493621D01*
X166671583Y-130686477D01*
X166719652Y-130891419D01*
X166852317Y-131281120D01*
X167022377Y-131656016D01*
X167228210Y-132012528D01*
X167229999Y-132015026D01*
X167230001Y-132015030D01*
X167453709Y-132327502D01*
X167467849Y-132347253D01*
X167469876Y-132349568D01*
X167469878Y-132349571D01*
X167698338Y-132610538D01*
X167739008Y-132656995D01*
X168039098Y-132938799D01*
X168365256Y-133189974D01*
X168367859Y-133191601D01*
X168367864Y-133191604D01*
X168399871Y-133211604D01*
X168714367Y-133408123D01*
X169083099Y-133591163D01*
X169467934Y-133737348D01*
X169865197Y-133845282D01*
X169868240Y-133845797D01*
X169868246Y-133845798D01*
X170268055Y-133913421D01*
X170268062Y-133913422D01*
X170271096Y-133913935D01*
X170274167Y-133914150D01*
X170274169Y-133914150D01*
X170678692Y-133942437D01*
X170678700Y-133942437D01*
X170681758Y-133942651D01*
X170945974Y-133935271D01*
X171090187Y-133931243D01*
X171090190Y-133931243D01*
X171093261Y-133931157D01*
X171096314Y-133930771D01*
X171096318Y-133930771D01*
X171244984Y-133911990D01*
X171501680Y-133879561D01*
X171504684Y-133878879D01*
X171504687Y-133878878D01*
X171900118Y-133789039D01*
X171900124Y-133789037D01*
X171903114Y-133788358D01*
X172059756Y-133736250D01*
X172290808Y-133659389D01*
X172290814Y-133659387D01*
X172293732Y-133658416D01*
X172353407Y-133631847D01*
X172667006Y-133492224D01*
X172667012Y-133492221D01*
X172669806Y-133490977D01*
X172672475Y-133489461D01*
X173025073Y-133289158D01*
X173025081Y-133289153D01*
X173027746Y-133287639D01*
X173035909Y-133281881D01*
X173200799Y-133165563D01*
X173364136Y-133050342D01*
X173675764Y-132781352D01*
X173677885Y-132779125D01*
X173677891Y-132779119D01*
X173957538Y-132485460D01*
X173959655Y-132483237D01*
X174064087Y-132349571D01*
X174211191Y-132161286D01*
X174211193Y-132161283D01*
X174213101Y-132158841D01*
X174214757Y-132156231D01*
X174214763Y-132156223D01*
X174432029Y-131813866D01*
X174432031Y-131813863D01*
X174433682Y-131811261D01*
X174503421Y-131673202D01*
X174521710Y-131636995D01*
X174619292Y-131443815D01*
X174620402Y-131440954D01*
X174767045Y-131062887D01*
X174767048Y-131062877D01*
X174768160Y-131060011D01*
X174878865Y-130663511D01*
X174946291Y-130281119D01*
X174949818Y-130261119D01*
X174949818Y-130261116D01*
X174950350Y-130258101D01*
X174981932Y-129847650D01*
X174983575Y-129730000D01*
X174963465Y-129318827D01*
X174903328Y-128911579D01*
X174803738Y-128512143D01*
X174790848Y-128475942D01*
X174700172Y-128221296D01*
X174665644Y-128124331D01*
X174490366Y-127751846D01*
X174469875Y-127717471D01*
X174347853Y-127512778D01*
X174279576Y-127398243D01*
X174035287Y-127066897D01*
X174033231Y-127064614D01*
X174033224Y-127064605D01*
X173761899Y-126763268D01*
X173761891Y-126763260D01*
X173759830Y-126760971D01*
X173455834Y-126483385D01*
X173172548Y-126271460D01*
X173128670Y-126238635D01*
X173128669Y-126238635D01*
X173126201Y-126236788D01*
X173069870Y-126202673D01*
X172776706Y-126025126D01*
X172776697Y-126025121D01*
X172774078Y-126023535D01*
X172542988Y-125912815D01*
X172405598Y-125846988D01*
X172405596Y-125846987D01*
X172402826Y-125845660D01*
X172399937Y-125844608D01*
X172399931Y-125844606D01*
X172018887Y-125705918D01*
X172018884Y-125705917D01*
X172015988Y-125704863D01*
X171693321Y-125622016D01*
X171620241Y-125603252D01*
X171620238Y-125603251D01*
X171617257Y-125602486D01*
X171210439Y-125539507D01*
X170799416Y-125516528D01*
X170796337Y-125516657D01*
X170796334Y-125516657D01*
X170526857Y-125527951D01*
X170388113Y-125533766D01*
X170385069Y-125534194D01*
X170385067Y-125534194D01*
X170201599Y-125559979D01*
X169980455Y-125591059D01*
X169580333Y-125687859D01*
X169191567Y-125823241D01*
X169188769Y-125824534D01*
X168820664Y-125994622D01*
X168820654Y-125994627D01*
X168817867Y-125995915D01*
X168462801Y-126204231D01*
X168294815Y-126326280D01*
X168132239Y-126444398D01*
X168132233Y-126444403D01*
X168129758Y-126446201D01*
X167821916Y-126719516D01*
X167819837Y-126721761D01*
X167819830Y-126721768D01*
X167628622Y-126928254D01*
X167542214Y-127021566D01*
X167540359Y-127024010D01*
X167406384Y-127200516D01*
X167293322Y-127349469D01*
X167077616Y-127700095D01*
X166897154Y-128070096D01*
X166896083Y-128072977D01*
X166896080Y-128072983D01*
X166807038Y-128312412D01*
X166753660Y-128455942D01*
X166648502Y-128853948D01*
X166582684Y-129260317D01*
X166582491Y-129263390D01*
X166582490Y-129263396D01*
X166575929Y-129367687D01*
X166556836Y-129671169D01*
X159099720Y-129671169D01*
X159093470Y-129543396D01*
X159083465Y-129338827D01*
X159023328Y-128931579D01*
X159018342Y-128911579D01*
X158990823Y-128801207D01*
X158923738Y-128532143D01*
X158917686Y-128515145D01*
X158786676Y-128147230D01*
X158785644Y-128144331D01*
X158610366Y-127771846D01*
X158596867Y-127749200D01*
X158501876Y-127589853D01*
X158399576Y-127418243D01*
X158155287Y-127086897D01*
X158153231Y-127084614D01*
X158153224Y-127084605D01*
X157881899Y-126783268D01*
X157881891Y-126783260D01*
X157879830Y-126780971D01*
X157575834Y-126503385D01*
X157246201Y-126256788D01*
X157159419Y-126204231D01*
X156896706Y-126045126D01*
X156896697Y-126045121D01*
X156894078Y-126043535D01*
X156662988Y-125932815D01*
X156525598Y-125866988D01*
X156525596Y-125866987D01*
X156522826Y-125865660D01*
X156519937Y-125864608D01*
X156519931Y-125864606D01*
X156138887Y-125725918D01*
X156138884Y-125725917D01*
X156135988Y-125724863D01*
X155845250Y-125650214D01*
X155740241Y-125623252D01*
X155740238Y-125623251D01*
X155737257Y-125622486D01*
X155330439Y-125559507D01*
X154919416Y-125536528D01*
X154916337Y-125536657D01*
X154916334Y-125536657D01*
X154646857Y-125547951D01*
X154508113Y-125553766D01*
X154505069Y-125554194D01*
X154505067Y-125554194D01*
X154284518Y-125585190D01*
X154100455Y-125611059D01*
X153700333Y-125707859D01*
X153311567Y-125843241D01*
X153308769Y-125844534D01*
X152940664Y-126014622D01*
X152940654Y-126014627D01*
X152937867Y-126015915D01*
X152582801Y-126224231D01*
X152535448Y-126258635D01*
X152252239Y-126464398D01*
X152252233Y-126464403D01*
X152249758Y-126466201D01*
X151941916Y-126739516D01*
X151939837Y-126741761D01*
X151939830Y-126741768D01*
X151680734Y-127021566D01*
X151662214Y-127041566D01*
X151413322Y-127369469D01*
X151197616Y-127720095D01*
X151017154Y-128090096D01*
X150873660Y-128475942D01*
X150768502Y-128873948D01*
X150702684Y-129280317D01*
X150702491Y-129283390D01*
X150702490Y-129283396D01*
X150698439Y-129347784D01*
X150676836Y-129691169D01*
X142960037Y-129691169D01*
X142943650Y-129367687D01*
X142943649Y-129367682D01*
X142943489Y-129364514D01*
X142883590Y-128973077D01*
X142857186Y-128870981D01*
X142785238Y-128592777D01*
X142785235Y-128592769D01*
X142784441Y-128589697D01*
X142780758Y-128579741D01*
X142648166Y-128221296D01*
X142648163Y-128221290D01*
X142647057Y-128218299D01*
X142472844Y-127862686D01*
X142467196Y-127853611D01*
X142265272Y-127529208D01*
X142263586Y-127526499D01*
X142021426Y-127213180D01*
X141748842Y-126925937D01*
X141448626Y-126667710D01*
X141123851Y-126441144D01*
X140792628Y-126256788D01*
X140780628Y-126250109D01*
X140780626Y-126250108D01*
X140777843Y-126248559D01*
X140774923Y-126247301D01*
X140774918Y-126247299D01*
X140417078Y-126093188D01*
X140417075Y-126093187D01*
X140414145Y-126091925D01*
X140036479Y-125972848D01*
X139761004Y-125915799D01*
X139651839Y-125893192D01*
X139651836Y-125893192D01*
X139648714Y-125892545D01*
X139344783Y-125861137D01*
X139257974Y-125852166D01*
X139257971Y-125852166D01*
X139254818Y-125851840D01*
X139251652Y-125851834D01*
X139251643Y-125851834D01*
X139056080Y-125851493D01*
X138858825Y-125851149D01*
X138464790Y-125890479D01*
X138461655Y-125891117D01*
X138461654Y-125891117D01*
X138454635Y-125892545D01*
X138076746Y-125969428D01*
X137698668Y-126087186D01*
X137334424Y-126242549D01*
X136987746Y-126433925D01*
X136662183Y-126659356D01*
X136361067Y-126916533D01*
X136087482Y-127202823D01*
X136085525Y-127205336D01*
X136085524Y-127205338D01*
X135919783Y-127418243D01*
X135844230Y-127515295D01*
X135842534Y-127517999D01*
X135842531Y-127518003D01*
X135835502Y-127529208D01*
X135633799Y-127850750D01*
X135458346Y-128205753D01*
X135319666Y-128576668D01*
X135219180Y-128959700D01*
X135218687Y-128962849D01*
X135218685Y-128962858D01*
X135217085Y-128973077D01*
X135157916Y-129350925D01*
X135136501Y-129746339D01*
X130168393Y-129746339D01*
X130168393Y-108736339D01*
X135196501Y-108736339D01*
X135196651Y-108739520D01*
X135198514Y-108779014D01*
X135215155Y-109131893D01*
X135273686Y-109523537D01*
X135274472Y-109526619D01*
X135274472Y-109526621D01*
X135323888Y-109720485D01*
X135371496Y-109907260D01*
X135507583Y-110279135D01*
X135680554Y-110635354D01*
X135888637Y-110972270D01*
X135890581Y-110974803D01*
X136079714Y-111221286D01*
X136129702Y-111286432D01*
X136131884Y-111288748D01*
X136131893Y-111288758D01*
X136369418Y-111540812D01*
X136401282Y-111574625D01*
X136403687Y-111576709D01*
X136403693Y-111576714D01*
X136454285Y-111620538D01*
X136700595Y-111833898D01*
X137024576Y-112061596D01*
X137107835Y-112108319D01*
X137360261Y-112249974D01*
X137369910Y-112255389D01*
X137372824Y-112256656D01*
X137372828Y-112256658D01*
X137407839Y-112271881D01*
X137733060Y-112413291D01*
X137843212Y-112448445D01*
X138107263Y-112532715D01*
X138107271Y-112532717D01*
X138110307Y-112533686D01*
X138161965Y-112544572D01*
X138494671Y-112614684D01*
X138494676Y-112614685D01*
X138497790Y-112615341D01*
X138891541Y-112657421D01*
X138894728Y-112657438D01*
X138894734Y-112657438D01*
X139074648Y-112658380D01*
X139287529Y-112659494D01*
X139393621Y-112649279D01*
X139678515Y-112621847D01*
X139678523Y-112621846D01*
X139681699Y-112621540D01*
X140070016Y-112543947D01*
X140361054Y-112454412D01*
X140445462Y-112428445D01*
X140445465Y-112428444D01*
X140448504Y-112427509D01*
X140451432Y-112426272D01*
X140451438Y-112426270D01*
X140637582Y-112347639D01*
X140813287Y-112273418D01*
X140816090Y-112271884D01*
X140816095Y-112271881D01*
X140965623Y-112190017D01*
X141160631Y-112083253D01*
X141486979Y-111858960D01*
X141492948Y-111853898D01*
X141786561Y-111604896D01*
X141786563Y-111604894D01*
X141788991Y-111602835D01*
X141791196Y-111600543D01*
X141791202Y-111600538D01*
X141974973Y-111409571D01*
X142063573Y-111317502D01*
X142307915Y-111005881D01*
X142314919Y-110994803D01*
X142505163Y-110693866D01*
X142519515Y-110671163D01*
X142696207Y-110316775D01*
X142786918Y-110076715D01*
X142835056Y-109949321D01*
X142835057Y-109949318D01*
X142836180Y-109946346D01*
X142841259Y-109927260D01*
X142902479Y-109697175D01*
X142938003Y-109563667D01*
X142939613Y-109553621D01*
X143000128Y-109175809D01*
X143000633Y-109172658D01*
X143001831Y-109151893D01*
X143022177Y-108799014D01*
X143023428Y-108777321D01*
X143023454Y-108770000D01*
X143023517Y-108751697D01*
X143023523Y-108750000D01*
X143022569Y-108731169D01*
X150696836Y-108731169D01*
X150696944Y-108734258D01*
X150710830Y-109131893D01*
X150711203Y-109142583D01*
X150711609Y-109145627D01*
X150711610Y-109145637D01*
X150734214Y-109315045D01*
X150765648Y-109550631D01*
X150766348Y-109553615D01*
X150766349Y-109553621D01*
X150854687Y-109930251D01*
X150859652Y-109951419D01*
X150992317Y-110341120D01*
X151162377Y-110716016D01*
X151368210Y-111072528D01*
X151369999Y-111075026D01*
X151370001Y-111075030D01*
X151556115Y-111334991D01*
X151607849Y-111407253D01*
X151609876Y-111409568D01*
X151609878Y-111409571D01*
X151794566Y-111620538D01*
X151879008Y-111716995D01*
X152179098Y-111998799D01*
X152505256Y-112249974D01*
X152507859Y-112251601D01*
X152507864Y-112251604D01*
X152633522Y-112330124D01*
X152854367Y-112468123D01*
X153223099Y-112651163D01*
X153607934Y-112797348D01*
X154005197Y-112905282D01*
X154008240Y-112905797D01*
X154008246Y-112905798D01*
X154408055Y-112973421D01*
X154408062Y-112973422D01*
X154411096Y-112973935D01*
X154414167Y-112974150D01*
X154414169Y-112974150D01*
X154818692Y-113002437D01*
X154818700Y-113002437D01*
X154821758Y-113002651D01*
X155085974Y-112995271D01*
X155230187Y-112991243D01*
X155230190Y-112991243D01*
X155233261Y-112991157D01*
X155236314Y-112990771D01*
X155236318Y-112990771D01*
X155384984Y-112971990D01*
X155641680Y-112939561D01*
X155644684Y-112938879D01*
X155644687Y-112938878D01*
X156040118Y-112849039D01*
X156040124Y-112849037D01*
X156043114Y-112848358D01*
X156199756Y-112796250D01*
X156430808Y-112719389D01*
X156430814Y-112719387D01*
X156433732Y-112718416D01*
X156436542Y-112717165D01*
X156807006Y-112552224D01*
X156807012Y-112552221D01*
X156809806Y-112550977D01*
X156822181Y-112543947D01*
X157165073Y-112349158D01*
X157165081Y-112349153D01*
X157167746Y-112347639D01*
X157504136Y-112110342D01*
X157539558Y-112079767D01*
X157813426Y-111843370D01*
X157815764Y-111841352D01*
X157817885Y-111839125D01*
X157817891Y-111839119D01*
X158097538Y-111545460D01*
X158099655Y-111543237D01*
X158204087Y-111409571D01*
X158351191Y-111221286D01*
X158351193Y-111221283D01*
X158353101Y-111218841D01*
X158354757Y-111216231D01*
X158354763Y-111216223D01*
X158572029Y-110873866D01*
X158572031Y-110873863D01*
X158573682Y-110871261D01*
X158759292Y-110503815D01*
X158760402Y-110500954D01*
X158907045Y-110122887D01*
X158907048Y-110122877D01*
X158908160Y-110120011D01*
X159018865Y-109723511D01*
X159090350Y-109318101D01*
X159121932Y-108907650D01*
X159123575Y-108790000D01*
X159122515Y-108768316D01*
X159121929Y-108756339D01*
X166906501Y-108756339D01*
X166906651Y-108759520D01*
X166924716Y-109142583D01*
X166925155Y-109151893D01*
X166983686Y-109543537D01*
X166984472Y-109546619D01*
X166984472Y-109546621D01*
X167028790Y-109720485D01*
X167081496Y-109927260D01*
X167217583Y-110299135D01*
X167390554Y-110655354D01*
X167426282Y-110713202D01*
X167523901Y-110871261D01*
X167598637Y-110992270D01*
X167839702Y-111306432D01*
X167841884Y-111308748D01*
X167841893Y-111308758D01*
X168060571Y-111540812D01*
X168111282Y-111594625D01*
X168113687Y-111596709D01*
X168113693Y-111596714D01*
X168254987Y-111719106D01*
X168410595Y-111853898D01*
X168734576Y-112081596D01*
X168907243Y-112178493D01*
X169076398Y-112273418D01*
X169079910Y-112275389D01*
X169082824Y-112276656D01*
X169082828Y-112276658D01*
X169117839Y-112291881D01*
X169443060Y-112433291D01*
X169622788Y-112490650D01*
X169817263Y-112552715D01*
X169817271Y-112552717D01*
X169820307Y-112553686D01*
X169871965Y-112564572D01*
X170204671Y-112634684D01*
X170204676Y-112634685D01*
X170207790Y-112635341D01*
X170601541Y-112677421D01*
X170604728Y-112677438D01*
X170604734Y-112677438D01*
X170784648Y-112678380D01*
X170997529Y-112679494D01*
X171103621Y-112669279D01*
X171388515Y-112641847D01*
X171388523Y-112641846D01*
X171391699Y-112641540D01*
X171780016Y-112563947D01*
X172096792Y-112466494D01*
X172155462Y-112448445D01*
X172155465Y-112448444D01*
X172158504Y-112447509D01*
X172161432Y-112446272D01*
X172161438Y-112446270D01*
X172399128Y-112345865D01*
X172523287Y-112293418D01*
X172526090Y-112291884D01*
X172526095Y-112291881D01*
X172854420Y-112112128D01*
X172870631Y-112103253D01*
X173196979Y-111878960D01*
X173243958Y-111839119D01*
X173496561Y-111624896D01*
X173496563Y-111624894D01*
X173498991Y-111622835D01*
X173501196Y-111620543D01*
X173501202Y-111620538D01*
X173706450Y-111407253D01*
X173773573Y-111337502D01*
X174017915Y-111025881D01*
X174030559Y-111005881D01*
X174212112Y-110718692D01*
X174229515Y-110691163D01*
X174406207Y-110336775D01*
X174546180Y-109966346D01*
X174552321Y-109943269D01*
X174647182Y-109586752D01*
X174648003Y-109583667D01*
X174650713Y-109566752D01*
X174710128Y-109195809D01*
X174710633Y-109192658D01*
X174712802Y-109155052D01*
X174733330Y-108799014D01*
X174733428Y-108797321D01*
X174733454Y-108790000D01*
X174733492Y-108779014D01*
X174733523Y-108770000D01*
X174731713Y-108734258D01*
X174713650Y-108377687D01*
X174713649Y-108377682D01*
X174713489Y-108374514D01*
X174653590Y-107983077D01*
X174554441Y-107599697D01*
X174550758Y-107589741D01*
X174418166Y-107231296D01*
X174418163Y-107231290D01*
X174417057Y-107228299D01*
X174242844Y-106872686D01*
X174237196Y-106863611D01*
X174035272Y-106539208D01*
X174033586Y-106536499D01*
X173791426Y-106223180D01*
X173518842Y-105935937D01*
X173482247Y-105904460D01*
X173221041Y-105679787D01*
X173221038Y-105679785D01*
X173218626Y-105677710D01*
X172893851Y-105451144D01*
X172613658Y-105295191D01*
X172550628Y-105260109D01*
X172550626Y-105260108D01*
X172547843Y-105258559D01*
X172544923Y-105257301D01*
X172544918Y-105257299D01*
X172187078Y-105103188D01*
X172187075Y-105103187D01*
X172184145Y-105101925D01*
X171806479Y-104982848D01*
X171531004Y-104925799D01*
X171421839Y-104903192D01*
X171421836Y-104903192D01*
X171418714Y-104902545D01*
X171114783Y-104871137D01*
X171027974Y-104862166D01*
X171027971Y-104862166D01*
X171024818Y-104861840D01*
X171021652Y-104861834D01*
X171021643Y-104861834D01*
X170826080Y-104861493D01*
X170628825Y-104861149D01*
X170234790Y-104900479D01*
X170231655Y-104901117D01*
X170231654Y-104901117D01*
X169945048Y-104959428D01*
X169846746Y-104979428D01*
X169468668Y-105097186D01*
X169104424Y-105252549D01*
X168757746Y-105443925D01*
X168432183Y-105669356D01*
X168251975Y-105823268D01*
X168145915Y-105913852D01*
X168131067Y-105926533D01*
X167857482Y-106212823D01*
X167855525Y-106215336D01*
X167855524Y-106215338D01*
X167618969Y-106519208D01*
X167614230Y-106525295D01*
X167612534Y-106527999D01*
X167612531Y-106528003D01*
X167605502Y-106539208D01*
X167403799Y-106860750D01*
X167228346Y-107215753D01*
X167089666Y-107586668D01*
X166989180Y-107969700D01*
X166988687Y-107972849D01*
X166988685Y-107972858D01*
X166987085Y-107983077D01*
X166927916Y-108360925D01*
X166927745Y-108364091D01*
X166927744Y-108364096D01*
X166927008Y-108377687D01*
X166906501Y-108756339D01*
X159121929Y-108756339D01*
X159103615Y-108381900D01*
X159103465Y-108378827D01*
X159043328Y-107971579D01*
X159038661Y-107952858D01*
X159010823Y-107841207D01*
X158943738Y-107572143D01*
X158941789Y-107566668D01*
X158876470Y-107383233D01*
X158805644Y-107184331D01*
X158630366Y-106811846D01*
X158601168Y-106762865D01*
X158459547Y-106525295D01*
X158419576Y-106458243D01*
X158175287Y-106126897D01*
X158173231Y-106124614D01*
X158173224Y-106124605D01*
X157901899Y-105823268D01*
X157901891Y-105823260D01*
X157899830Y-105820971D01*
X157595834Y-105543385D01*
X157266201Y-105296788D01*
X157200997Y-105257299D01*
X156916706Y-105085126D01*
X156916697Y-105085121D01*
X156914078Y-105083535D01*
X156542826Y-104905660D01*
X156539937Y-104904608D01*
X156539931Y-104904606D01*
X156158887Y-104765918D01*
X156158884Y-104765917D01*
X156155988Y-104764863D01*
X155865250Y-104690214D01*
X155760241Y-104663252D01*
X155760238Y-104663251D01*
X155757257Y-104662486D01*
X155350439Y-104599507D01*
X154939416Y-104576528D01*
X154936337Y-104576657D01*
X154936334Y-104576657D01*
X154666857Y-104587951D01*
X154528113Y-104593766D01*
X154525069Y-104594194D01*
X154525067Y-104594194D01*
X154304518Y-104625190D01*
X154120455Y-104651059D01*
X153720333Y-104747859D01*
X153331567Y-104883241D01*
X153288389Y-104903192D01*
X152960664Y-105054622D01*
X152960654Y-105054627D01*
X152957867Y-105055915D01*
X152602801Y-105264231D01*
X152555448Y-105298635D01*
X152272239Y-105504398D01*
X152272233Y-105504403D01*
X152269758Y-105506201D01*
X151961916Y-105779516D01*
X151959837Y-105781761D01*
X151959830Y-105781768D01*
X151684300Y-106079313D01*
X151682214Y-106081566D01*
X151680359Y-106084010D01*
X151572807Y-106225705D01*
X151433322Y-106409469D01*
X151217616Y-106760095D01*
X151037154Y-107130096D01*
X151036083Y-107132977D01*
X151036080Y-107132983D01*
X151001702Y-107225424D01*
X150893660Y-107515942D01*
X150788502Y-107913948D01*
X150722684Y-108320317D01*
X150722491Y-108323390D01*
X150722490Y-108323396D01*
X150697030Y-108728082D01*
X150696836Y-108731169D01*
X143022569Y-108731169D01*
X143004877Y-108381900D01*
X143003650Y-108357687D01*
X143003649Y-108357682D01*
X143003489Y-108354514D01*
X142947134Y-107986237D01*
X142944074Y-107966237D01*
X142944072Y-107966228D01*
X142943590Y-107963077D01*
X142850410Y-107602777D01*
X142845238Y-107582777D01*
X142845235Y-107582769D01*
X142844441Y-107579697D01*
X142840569Y-107569230D01*
X142708166Y-107211296D01*
X142708163Y-107211290D01*
X142707057Y-107208299D01*
X142532844Y-106852686D01*
X142527196Y-106843611D01*
X142334464Y-106533975D01*
X142323586Y-106516499D01*
X142238969Y-106407017D01*
X142083378Y-106205705D01*
X142083373Y-106205700D01*
X142081426Y-106203180D01*
X141830020Y-105938254D01*
X141811041Y-105918254D01*
X141811038Y-105918252D01*
X141808842Y-105915937D01*
X141696012Y-105818888D01*
X141511041Y-105659787D01*
X141511038Y-105659785D01*
X141508626Y-105657710D01*
X141183851Y-105431144D01*
X140883967Y-105264231D01*
X140840628Y-105240109D01*
X140840626Y-105240108D01*
X140837843Y-105238559D01*
X140834923Y-105237301D01*
X140834918Y-105237299D01*
X140477078Y-105083188D01*
X140477075Y-105083187D01*
X140474145Y-105081925D01*
X140096479Y-104962848D01*
X139808414Y-104903192D01*
X139711839Y-104883192D01*
X139711836Y-104883192D01*
X139708714Y-104882545D01*
X139404783Y-104851137D01*
X139317974Y-104842166D01*
X139317971Y-104842166D01*
X139314818Y-104841840D01*
X139311652Y-104841834D01*
X139311643Y-104841834D01*
X139116080Y-104841493D01*
X138918825Y-104841149D01*
X138524790Y-104880479D01*
X138521655Y-104881117D01*
X138521654Y-104881117D01*
X138423352Y-104901117D01*
X138136746Y-104959428D01*
X137758668Y-105077186D01*
X137394424Y-105232549D01*
X137047746Y-105423925D01*
X136722183Y-105649356D01*
X136421067Y-105906533D01*
X136418867Y-105908835D01*
X136418864Y-105908838D01*
X136302060Y-106031067D01*
X136147482Y-106192823D01*
X136145525Y-106195336D01*
X136145524Y-106195338D01*
X135940859Y-106458243D01*
X135904230Y-106505295D01*
X135902534Y-106507999D01*
X135902531Y-106508003D01*
X135882956Y-106539208D01*
X135693799Y-106840750D01*
X135518346Y-107195753D01*
X135379666Y-107566668D01*
X135279180Y-107949700D01*
X135278687Y-107952849D01*
X135278685Y-107952858D01*
X135274437Y-107979988D01*
X135217916Y-108340925D01*
X135217745Y-108344091D01*
X135217744Y-108344096D01*
X135215925Y-108377687D01*
X135196501Y-108736339D01*
X130168393Y-108736339D01*
X130168393Y-87816339D01*
X135136501Y-87816339D01*
X135136651Y-87819520D01*
X135153917Y-88185637D01*
X135155155Y-88211893D01*
X135213686Y-88603537D01*
X135214472Y-88606619D01*
X135214472Y-88606621D01*
X135217982Y-88620389D01*
X135311496Y-88987260D01*
X135447583Y-89359135D01*
X135620554Y-89715354D01*
X135828637Y-90052270D01*
X135938773Y-90195802D01*
X135989021Y-90261286D01*
X136069702Y-90366432D01*
X136071884Y-90368748D01*
X136071893Y-90368758D01*
X136148048Y-90449571D01*
X136341282Y-90654625D01*
X136343687Y-90656709D01*
X136343693Y-90656714D01*
X136638188Y-90911813D01*
X136640595Y-90913898D01*
X136964576Y-91141596D01*
X137137243Y-91238493D01*
X137228982Y-91289974D01*
X137309910Y-91335389D01*
X137312824Y-91336656D01*
X137312828Y-91336658D01*
X137347839Y-91351881D01*
X137673060Y-91493291D01*
X137783212Y-91528445D01*
X138047263Y-91612715D01*
X138047271Y-91612717D01*
X138050307Y-91613686D01*
X138101965Y-91624572D01*
X138434671Y-91694684D01*
X138434676Y-91694685D01*
X138437790Y-91695341D01*
X138831541Y-91737421D01*
X138834728Y-91737438D01*
X138834734Y-91737438D01*
X139014648Y-91738380D01*
X139227529Y-91739494D01*
X139333621Y-91729279D01*
X139618515Y-91701847D01*
X139618523Y-91701846D01*
X139621699Y-91701540D01*
X140010016Y-91623947D01*
X140301054Y-91534412D01*
X140385462Y-91508445D01*
X140385465Y-91508444D01*
X140388504Y-91507509D01*
X140391432Y-91506272D01*
X140391438Y-91506270D01*
X140555773Y-91436851D01*
X140753287Y-91353418D01*
X140756090Y-91351884D01*
X140756095Y-91351881D01*
X140905623Y-91270017D01*
X141100631Y-91163253D01*
X141426979Y-90938960D01*
X141432948Y-90933898D01*
X141726561Y-90684896D01*
X141726563Y-90684894D01*
X141728991Y-90682835D01*
X141731196Y-90680543D01*
X141731202Y-90680538D01*
X141843187Y-90564168D01*
X142003573Y-90397502D01*
X142247915Y-90085881D01*
X142254919Y-90074803D01*
X142445163Y-89773866D01*
X142459515Y-89751163D01*
X142636207Y-89396775D01*
X142726918Y-89156715D01*
X142775056Y-89029321D01*
X142775057Y-89029318D01*
X142776180Y-89026346D01*
X142781259Y-89007260D01*
X142846920Y-88760485D01*
X142878003Y-88643667D01*
X142880734Y-88626621D01*
X142940128Y-88255809D01*
X142940633Y-88252658D01*
X142941831Y-88231893D01*
X142958107Y-87949603D01*
X142963428Y-87857321D01*
X142963454Y-87850000D01*
X142963517Y-87831697D01*
X142963523Y-87830000D01*
X142963424Y-87828031D01*
X142960543Y-87771169D01*
X150696836Y-87771169D01*
X150711203Y-88182583D01*
X150711609Y-88185627D01*
X150711610Y-88185637D01*
X150723642Y-88275809D01*
X150765648Y-88590631D01*
X150766348Y-88593615D01*
X150766349Y-88593621D01*
X150858949Y-88988422D01*
X150859652Y-88991419D01*
X150992317Y-89381120D01*
X151162377Y-89756016D01*
X151368210Y-90112528D01*
X151369999Y-90115026D01*
X151370001Y-90115030D01*
X151584752Y-90414991D01*
X151607849Y-90447253D01*
X151609876Y-90449568D01*
X151609878Y-90449571D01*
X151831594Y-90702835D01*
X151879008Y-90756995D01*
X152179098Y-91038799D01*
X152505256Y-91289974D01*
X152507859Y-91291601D01*
X152507864Y-91291604D01*
X152633522Y-91370124D01*
X152854367Y-91508123D01*
X153223099Y-91691163D01*
X153607934Y-91837348D01*
X154005197Y-91945282D01*
X154008240Y-91945797D01*
X154008246Y-91945798D01*
X154408055Y-92013421D01*
X154408062Y-92013422D01*
X154411096Y-92013935D01*
X154414167Y-92014150D01*
X154414169Y-92014150D01*
X154818692Y-92042437D01*
X154818700Y-92042437D01*
X154821758Y-92042651D01*
X155085974Y-92035271D01*
X155230187Y-92031243D01*
X155230190Y-92031243D01*
X155233261Y-92031157D01*
X155236314Y-92030771D01*
X155236318Y-92030771D01*
X155384984Y-92011990D01*
X155641680Y-91979561D01*
X155644684Y-91978879D01*
X155644687Y-91978878D01*
X156040118Y-91889039D01*
X156040124Y-91889037D01*
X156043114Y-91888358D01*
X156199756Y-91836250D01*
X156430808Y-91759389D01*
X156430814Y-91759387D01*
X156433732Y-91758416D01*
X156436728Y-91757082D01*
X156807006Y-91592224D01*
X156807012Y-91592221D01*
X156809806Y-91590977D01*
X156812475Y-91589461D01*
X157165073Y-91389158D01*
X157165081Y-91389153D01*
X157167746Y-91387639D01*
X157190085Y-91371881D01*
X157501604Y-91152128D01*
X157504136Y-91150342D01*
X157514269Y-91141596D01*
X157729900Y-90955467D01*
X157815764Y-90881352D01*
X157817885Y-90879125D01*
X157817891Y-90879119D01*
X158097538Y-90585460D01*
X158099655Y-90583237D01*
X158204087Y-90449571D01*
X158351191Y-90261286D01*
X158351193Y-90261283D01*
X158353101Y-90258841D01*
X158354757Y-90256231D01*
X158354763Y-90256223D01*
X158572029Y-89913866D01*
X158572031Y-89913863D01*
X158573682Y-89911261D01*
X158644451Y-89771163D01*
X158757906Y-89546558D01*
X158759292Y-89543815D01*
X158809723Y-89413797D01*
X158907045Y-89162887D01*
X158907048Y-89162877D01*
X158908160Y-89160011D01*
X159018865Y-88763511D01*
X159090350Y-88358101D01*
X159121932Y-87947650D01*
X159123486Y-87836339D01*
X166866501Y-87836339D01*
X166866651Y-87839520D01*
X166884361Y-88215052D01*
X166885155Y-88231893D01*
X166943686Y-88623537D01*
X167041496Y-89007260D01*
X167177583Y-89379135D01*
X167350554Y-89735354D01*
X167558637Y-90072270D01*
X167799702Y-90386432D01*
X167801884Y-90388748D01*
X167801893Y-90388758D01*
X167859201Y-90449571D01*
X168071282Y-90674625D01*
X168073687Y-90676709D01*
X168073693Y-90676714D01*
X168307356Y-90879119D01*
X168370595Y-90933898D01*
X168694576Y-91161596D01*
X168735909Y-91184791D01*
X169036398Y-91353418D01*
X169039910Y-91355389D01*
X169042824Y-91356656D01*
X169042828Y-91356658D01*
X169077839Y-91371881D01*
X169403060Y-91513291D01*
X169582788Y-91570650D01*
X169777263Y-91632715D01*
X169777271Y-91632717D01*
X169780307Y-91633686D01*
X169831965Y-91644572D01*
X170164671Y-91714684D01*
X170164676Y-91714685D01*
X170167790Y-91715341D01*
X170561541Y-91757421D01*
X170564728Y-91757438D01*
X170564734Y-91757438D01*
X170744648Y-91758380D01*
X170957529Y-91759494D01*
X171063621Y-91749279D01*
X171348515Y-91721847D01*
X171348523Y-91721846D01*
X171351699Y-91721540D01*
X171740016Y-91643947D01*
X172031054Y-91554412D01*
X172115462Y-91528445D01*
X172115465Y-91528444D01*
X172118504Y-91527509D01*
X172121432Y-91526272D01*
X172121438Y-91526270D01*
X172285773Y-91456851D01*
X172483287Y-91373418D01*
X172486090Y-91371884D01*
X172486095Y-91371881D01*
X172639126Y-91288099D01*
X172830631Y-91183253D01*
X173156979Y-90958960D01*
X173188990Y-90931813D01*
X173456561Y-90704896D01*
X173456563Y-90704894D01*
X173458991Y-90702835D01*
X173461196Y-90700543D01*
X173461202Y-90700538D01*
X173702712Y-90449571D01*
X173733573Y-90417502D01*
X173977915Y-90105881D01*
X173990559Y-90085881D01*
X174187806Y-89773866D01*
X174189515Y-89771163D01*
X174366207Y-89416775D01*
X174506180Y-89046346D01*
X174512321Y-89023269D01*
X174607182Y-88666752D01*
X174608003Y-88663667D01*
X174610713Y-88646752D01*
X174656947Y-88358101D01*
X174670633Y-88272658D01*
X174672802Y-88235052D01*
X174693330Y-87879014D01*
X174693428Y-87877321D01*
X174693523Y-87850000D01*
X174689374Y-87768082D01*
X174673650Y-87457687D01*
X174673649Y-87457682D01*
X174673489Y-87454514D01*
X174613590Y-87063077D01*
X174514441Y-86679697D01*
X174510758Y-86669741D01*
X174378166Y-86311296D01*
X174378163Y-86311290D01*
X174377057Y-86308299D01*
X174202844Y-85952686D01*
X174197196Y-85943611D01*
X173995272Y-85619208D01*
X173993586Y-85616499D01*
X173751426Y-85303180D01*
X173581400Y-85124010D01*
X173481041Y-85018254D01*
X173481038Y-85018252D01*
X173478842Y-85015937D01*
X173178626Y-84757710D01*
X172853851Y-84531144D01*
X172507843Y-84338559D01*
X172504923Y-84337301D01*
X172504918Y-84337299D01*
X172147078Y-84183188D01*
X172147075Y-84183187D01*
X172144145Y-84181925D01*
X171766479Y-84062848D01*
X171491004Y-84005799D01*
X171381839Y-83983192D01*
X171381836Y-83983192D01*
X171378714Y-83982545D01*
X171074783Y-83951137D01*
X170987974Y-83942166D01*
X170987971Y-83942166D01*
X170984818Y-83941840D01*
X170981652Y-83941834D01*
X170981643Y-83941834D01*
X170786080Y-83941493D01*
X170588825Y-83941149D01*
X170194790Y-83980479D01*
X170191655Y-83981117D01*
X170191654Y-83981117D01*
X169905048Y-84039428D01*
X169806746Y-84059428D01*
X169428668Y-84177186D01*
X169064424Y-84332549D01*
X168717746Y-84523925D01*
X168392183Y-84749356D01*
X168258809Y-84863268D01*
X168105915Y-84993852D01*
X168091067Y-85006533D01*
X167817482Y-85292823D01*
X167815525Y-85295336D01*
X167815524Y-85295338D01*
X167578969Y-85599208D01*
X167574230Y-85605295D01*
X167572534Y-85607999D01*
X167572531Y-85608003D01*
X167565502Y-85619208D01*
X167363799Y-85940750D01*
X167188346Y-86295753D01*
X167049666Y-86666668D01*
X166949180Y-87049700D01*
X166948687Y-87052849D01*
X166948685Y-87052858D01*
X166947085Y-87063077D01*
X166887916Y-87440925D01*
X166866501Y-87836339D01*
X159123486Y-87836339D01*
X159123575Y-87830000D01*
X159123063Y-87819520D01*
X159113470Y-87623396D01*
X159103465Y-87418827D01*
X159043328Y-87011579D01*
X158943738Y-86612143D01*
X158922700Y-86553060D01*
X158825016Y-86278735D01*
X158805644Y-86224331D01*
X158630366Y-85851846D01*
X158601168Y-85802865D01*
X158421156Y-85500894D01*
X158419576Y-85498243D01*
X158175287Y-85166897D01*
X158173231Y-85164614D01*
X158173224Y-85164605D01*
X157901899Y-84863268D01*
X157901891Y-84863260D01*
X157899830Y-84860971D01*
X157595834Y-84583385D01*
X157266201Y-84336788D01*
X157234021Y-84317299D01*
X156916706Y-84125126D01*
X156916697Y-84125121D01*
X156914078Y-84123535D01*
X156575087Y-83961117D01*
X156545598Y-83946988D01*
X156545596Y-83946987D01*
X156542826Y-83945660D01*
X156539937Y-83944608D01*
X156539931Y-83944606D01*
X156158887Y-83805918D01*
X156158884Y-83805917D01*
X156155988Y-83804863D01*
X155865250Y-83730214D01*
X155760241Y-83703252D01*
X155760238Y-83703251D01*
X155757257Y-83702486D01*
X155350439Y-83639507D01*
X154939416Y-83616528D01*
X154936337Y-83616657D01*
X154936334Y-83616657D01*
X154666857Y-83627951D01*
X154528113Y-83633766D01*
X154525069Y-83634194D01*
X154525067Y-83634194D01*
X154304518Y-83665190D01*
X154120455Y-83691059D01*
X153720333Y-83787859D01*
X153331567Y-83923241D01*
X153328769Y-83924534D01*
X152960664Y-84094622D01*
X152960654Y-84094627D01*
X152957867Y-84095915D01*
X152602801Y-84304231D01*
X152434815Y-84426280D01*
X152272239Y-84544398D01*
X152272233Y-84544403D01*
X152269758Y-84546201D01*
X151961916Y-84819516D01*
X151959837Y-84821761D01*
X151959830Y-84821768D01*
X151777882Y-85018254D01*
X151682214Y-85121566D01*
X151433322Y-85449469D01*
X151217616Y-85800095D01*
X151037154Y-86170096D01*
X150893660Y-86555942D01*
X150788502Y-86953948D01*
X150722684Y-87360317D01*
X150722491Y-87363390D01*
X150722490Y-87363396D01*
X150716558Y-87457687D01*
X150696836Y-87771169D01*
X142960543Y-87771169D01*
X142943650Y-87437687D01*
X142943649Y-87437682D01*
X142943489Y-87434514D01*
X142887134Y-87066237D01*
X142884074Y-87046237D01*
X142884072Y-87046228D01*
X142883590Y-87043077D01*
X142790410Y-86682777D01*
X142785238Y-86662777D01*
X142785235Y-86662769D01*
X142784441Y-86659697D01*
X142780758Y-86649741D01*
X142648166Y-86291296D01*
X142648163Y-86291290D01*
X142647057Y-86288299D01*
X142472844Y-85932686D01*
X142467196Y-85923611D01*
X142274464Y-85613975D01*
X142263586Y-85596499D01*
X142148053Y-85447017D01*
X142023378Y-85285705D01*
X142023373Y-85285700D01*
X142021426Y-85283180D01*
X141770020Y-85018254D01*
X141751041Y-84998254D01*
X141751038Y-84998252D01*
X141748842Y-84995937D01*
X141735499Y-84984460D01*
X141451041Y-84739787D01*
X141451038Y-84739785D01*
X141448626Y-84737710D01*
X141123851Y-84511144D01*
X140802978Y-84332549D01*
X140780628Y-84320109D01*
X140780626Y-84320108D01*
X140777843Y-84318559D01*
X140774923Y-84317301D01*
X140774918Y-84317299D01*
X140417078Y-84163188D01*
X140417075Y-84163187D01*
X140414145Y-84161925D01*
X140036479Y-84042848D01*
X139748414Y-83983192D01*
X139651839Y-83963192D01*
X139651836Y-83963192D01*
X139648714Y-83962545D01*
X139344783Y-83931137D01*
X139257974Y-83922166D01*
X139257971Y-83922166D01*
X139254818Y-83921840D01*
X139251652Y-83921834D01*
X139251643Y-83921834D01*
X139056080Y-83921493D01*
X138858825Y-83921149D01*
X138464790Y-83960479D01*
X138461655Y-83961117D01*
X138461654Y-83961117D01*
X138363352Y-83981117D01*
X138076746Y-84039428D01*
X137698668Y-84157186D01*
X137334424Y-84312549D01*
X136987746Y-84503925D01*
X136662183Y-84729356D01*
X136361067Y-84986533D01*
X136358867Y-84988835D01*
X136358864Y-84988838D01*
X136242060Y-85111067D01*
X136087482Y-85272823D01*
X136085525Y-85275336D01*
X136085524Y-85275338D01*
X135913928Y-85495764D01*
X135844230Y-85585295D01*
X135842534Y-85587999D01*
X135842531Y-85588003D01*
X135822956Y-85619208D01*
X135633799Y-85920750D01*
X135458346Y-86275753D01*
X135319666Y-86646668D01*
X135219180Y-87029700D01*
X135218687Y-87032849D01*
X135218685Y-87032858D01*
X135214437Y-87059988D01*
X135157916Y-87420925D01*
X135136501Y-87816339D01*
X130168393Y-87816339D01*
X130168393Y-66916339D01*
X135136501Y-66916339D01*
X135136651Y-66919520D01*
X135153925Y-67285809D01*
X135155155Y-67311893D01*
X135213686Y-67703537D01*
X135214472Y-67706619D01*
X135214472Y-67706621D01*
X135294416Y-68020251D01*
X135311496Y-68087260D01*
X135447583Y-68459135D01*
X135620554Y-68815354D01*
X135828637Y-69152270D01*
X135852360Y-69183186D01*
X136014049Y-69393903D01*
X136069702Y-69466432D01*
X136071884Y-69468748D01*
X136071893Y-69468758D01*
X136273126Y-69682300D01*
X136341282Y-69754625D01*
X136343687Y-69756709D01*
X136343693Y-69756714D01*
X136557378Y-69941813D01*
X136640595Y-70013898D01*
X136964576Y-70241596D01*
X137005909Y-70264791D01*
X137154362Y-70348099D01*
X137309910Y-70435389D01*
X137312824Y-70436656D01*
X137312828Y-70436658D01*
X137347839Y-70451881D01*
X137673060Y-70593291D01*
X137827926Y-70642715D01*
X138047263Y-70712715D01*
X138047271Y-70712717D01*
X138050307Y-70713686D01*
X138107218Y-70725679D01*
X138434671Y-70794684D01*
X138434676Y-70794685D01*
X138437790Y-70795341D01*
X138831541Y-70837421D01*
X138834728Y-70837438D01*
X138834734Y-70837438D01*
X139014648Y-70838380D01*
X139227529Y-70839494D01*
X139333621Y-70829279D01*
X139618515Y-70801847D01*
X139618523Y-70801846D01*
X139621699Y-70801540D01*
X140010016Y-70723947D01*
X140301054Y-70634412D01*
X140385462Y-70608445D01*
X140385465Y-70608444D01*
X140388504Y-70607509D01*
X140391432Y-70606272D01*
X140391438Y-70606270D01*
X140590889Y-70522018D01*
X140753287Y-70453418D01*
X140756090Y-70451884D01*
X140756095Y-70451881D01*
X140939254Y-70351604D01*
X141100631Y-70263253D01*
X141426979Y-70038960D01*
X141542074Y-69941352D01*
X141726561Y-69784896D01*
X141726563Y-69784894D01*
X141728991Y-69782835D01*
X141731196Y-69780543D01*
X141731202Y-69780538D01*
X141865663Y-69640812D01*
X142003573Y-69497502D01*
X142247915Y-69185881D01*
X142256357Y-69172528D01*
X142457806Y-68853866D01*
X142459515Y-68851163D01*
X142636207Y-68496775D01*
X142776180Y-68126346D01*
X142787402Y-68084173D01*
X142877182Y-67746752D01*
X142878003Y-67743667D01*
X142889216Y-67673667D01*
X142929667Y-67421119D01*
X142940633Y-67352658D01*
X142942802Y-67315052D01*
X142963330Y-66959014D01*
X142963428Y-66957321D01*
X142963523Y-66930000D01*
X142958517Y-66831169D01*
X150686836Y-66831169D01*
X150701203Y-67242583D01*
X150701609Y-67245627D01*
X150701610Y-67245637D01*
X150724214Y-67415045D01*
X150755648Y-67650631D01*
X150756348Y-67653615D01*
X150756349Y-67653621D01*
X150796892Y-67826477D01*
X150849652Y-68051419D01*
X150982317Y-68441120D01*
X151152377Y-68816016D01*
X151358210Y-69172528D01*
X151359999Y-69175026D01*
X151360001Y-69175030D01*
X151592517Y-69499805D01*
X151597849Y-69507253D01*
X151599876Y-69509568D01*
X151599878Y-69509571D01*
X151754955Y-69686714D01*
X151869008Y-69816995D01*
X152169098Y-70098799D01*
X152495256Y-70349974D01*
X152497859Y-70351601D01*
X152497864Y-70351604D01*
X152550768Y-70384662D01*
X152844367Y-70568123D01*
X153213099Y-70751163D01*
X153597934Y-70897348D01*
X153995197Y-71005282D01*
X153998240Y-71005797D01*
X153998246Y-71005798D01*
X154398055Y-71073421D01*
X154398062Y-71073422D01*
X154401096Y-71073935D01*
X154404167Y-71074150D01*
X154404169Y-71074150D01*
X154808692Y-71102437D01*
X154808700Y-71102437D01*
X154811758Y-71102651D01*
X155075974Y-71095271D01*
X155220187Y-71091243D01*
X155220190Y-71091243D01*
X155223261Y-71091157D01*
X155226314Y-71090771D01*
X155226318Y-71090771D01*
X155374984Y-71071990D01*
X155631680Y-71039561D01*
X155634684Y-71038879D01*
X155634687Y-71038878D01*
X156030118Y-70949039D01*
X156030124Y-70949037D01*
X156033114Y-70948358D01*
X156360421Y-70839477D01*
X156420808Y-70819389D01*
X156420814Y-70819387D01*
X156423732Y-70818416D01*
X156474800Y-70795679D01*
X156797006Y-70652224D01*
X156797012Y-70652221D01*
X156799806Y-70650977D01*
X156802475Y-70649461D01*
X157155073Y-70449158D01*
X157155081Y-70449153D01*
X157157746Y-70447639D01*
X157175112Y-70435389D01*
X157419130Y-70263253D01*
X157494136Y-70210342D01*
X157805764Y-69941352D01*
X157807885Y-69939125D01*
X157807891Y-69939119D01*
X158087538Y-69645460D01*
X158089655Y-69643237D01*
X158194087Y-69509571D01*
X158341191Y-69321286D01*
X158341193Y-69321283D01*
X158343101Y-69318841D01*
X158344757Y-69316231D01*
X158344763Y-69316223D01*
X158562029Y-68973866D01*
X158562031Y-68973863D01*
X158563682Y-68971261D01*
X158625792Y-68848305D01*
X158747906Y-68606558D01*
X158749292Y-68603815D01*
X158750402Y-68600954D01*
X158897045Y-68222887D01*
X158897048Y-68222877D01*
X158898160Y-68220011D01*
X159008865Y-67823511D01*
X159080350Y-67418101D01*
X159111932Y-67007650D01*
X159113575Y-66890000D01*
X159112026Y-66858316D01*
X159111440Y-66846339D01*
X166876501Y-66846339D01*
X166876651Y-66849520D01*
X166878514Y-66889014D01*
X166895155Y-67241893D01*
X166895627Y-67245050D01*
X166895627Y-67245052D01*
X166900771Y-67279472D01*
X166953686Y-67633537D01*
X166954472Y-67636619D01*
X166954472Y-67636621D01*
X167001339Y-67820485D01*
X167051496Y-68017260D01*
X167187583Y-68389135D01*
X167360554Y-68745354D01*
X167424138Y-68848305D01*
X167501686Y-68973866D01*
X167568637Y-69082270D01*
X167809702Y-69396432D01*
X167811884Y-69398748D01*
X167811893Y-69398758D01*
X168042280Y-69643237D01*
X168081282Y-69684625D01*
X168083687Y-69686709D01*
X168083693Y-69686714D01*
X168234094Y-69816995D01*
X168380595Y-69943898D01*
X168704576Y-70171596D01*
X168776803Y-70212128D01*
X169022441Y-70349974D01*
X169049910Y-70365389D01*
X169052824Y-70366656D01*
X169052828Y-70366658D01*
X169087839Y-70381881D01*
X169413060Y-70523291D01*
X169548433Y-70566494D01*
X169787263Y-70642715D01*
X169787271Y-70642717D01*
X169790307Y-70643686D01*
X169841965Y-70654572D01*
X170174671Y-70724684D01*
X170174676Y-70724685D01*
X170177790Y-70725341D01*
X170571541Y-70767421D01*
X170574728Y-70767438D01*
X170574734Y-70767438D01*
X170754648Y-70768380D01*
X170967529Y-70769494D01*
X171073621Y-70759279D01*
X171358515Y-70731847D01*
X171358523Y-70731846D01*
X171361699Y-70731540D01*
X171750016Y-70653947D01*
X172041054Y-70564412D01*
X172125462Y-70538445D01*
X172125465Y-70538444D01*
X172128504Y-70537509D01*
X172131432Y-70536272D01*
X172131438Y-70536270D01*
X172295773Y-70466851D01*
X172493287Y-70383418D01*
X172496090Y-70381884D01*
X172496095Y-70381881D01*
X172716083Y-70261441D01*
X172840631Y-70193253D01*
X173166979Y-69968960D01*
X173386450Y-69782835D01*
X173466561Y-69714896D01*
X173466563Y-69714894D01*
X173468991Y-69712835D01*
X173471196Y-69710543D01*
X173471202Y-69710538D01*
X173666827Y-69507253D01*
X173743573Y-69427502D01*
X173987915Y-69115881D01*
X174010885Y-69079547D01*
X174155263Y-68851163D01*
X174199515Y-68781163D01*
X174376207Y-68426775D01*
X174490892Y-68123269D01*
X174515056Y-68059321D01*
X174515057Y-68059318D01*
X174516180Y-68056346D01*
X174518289Y-68048422D01*
X174617182Y-67676752D01*
X174618003Y-67673667D01*
X174680633Y-67282658D01*
X174682802Y-67245052D01*
X174701571Y-66919520D01*
X174703428Y-66887321D01*
X174703523Y-66860000D01*
X174686188Y-66517784D01*
X174683650Y-66467687D01*
X174683649Y-66467682D01*
X174683489Y-66464514D01*
X174623590Y-66073077D01*
X174543341Y-65762777D01*
X174525238Y-65692777D01*
X174525235Y-65692769D01*
X174524441Y-65689697D01*
X174520758Y-65679741D01*
X174388166Y-65321296D01*
X174388163Y-65321290D01*
X174387057Y-65318299D01*
X174212844Y-64962686D01*
X174207196Y-64953611D01*
X174040183Y-64685295D01*
X174003586Y-64626499D01*
X173809467Y-64375338D01*
X173763378Y-64315705D01*
X173763373Y-64315700D01*
X173761426Y-64313180D01*
X173634391Y-64179313D01*
X173491041Y-64028254D01*
X173491038Y-64028252D01*
X173488842Y-64025937D01*
X173364386Y-63918888D01*
X173191041Y-63769787D01*
X173191038Y-63769785D01*
X173188626Y-63767710D01*
X172863851Y-63541144D01*
X172604494Y-63396788D01*
X172520628Y-63350109D01*
X172520626Y-63350108D01*
X172517843Y-63348559D01*
X172514923Y-63347301D01*
X172514918Y-63347299D01*
X172157078Y-63193188D01*
X172157075Y-63193187D01*
X172154145Y-63191925D01*
X171776479Y-63072848D01*
X171458456Y-63006988D01*
X171391839Y-62993192D01*
X171391836Y-62993192D01*
X171388714Y-62992545D01*
X171084783Y-62961137D01*
X170997974Y-62952166D01*
X170997971Y-62952166D01*
X170994818Y-62951840D01*
X170991652Y-62951834D01*
X170991643Y-62951834D01*
X170796080Y-62951493D01*
X170598825Y-62951149D01*
X170204790Y-62990479D01*
X170201655Y-62991117D01*
X170201654Y-62991117D01*
X169852184Y-63062218D01*
X169816746Y-63069428D01*
X169438668Y-63187186D01*
X169074424Y-63342549D01*
X168727746Y-63533925D01*
X168402183Y-63759356D01*
X168101067Y-64016533D01*
X167827482Y-64302823D01*
X167825525Y-64305336D01*
X167825524Y-64305338D01*
X167628644Y-64558243D01*
X167584230Y-64615295D01*
X167582534Y-64617999D01*
X167582531Y-64618003D01*
X167575502Y-64629208D01*
X167373799Y-64950750D01*
X167198346Y-65305753D01*
X167059666Y-65676668D01*
X166959180Y-66059700D01*
X166958687Y-66062849D01*
X166958685Y-66062858D01*
X166911747Y-66362605D01*
X166897916Y-66450925D01*
X166876501Y-66846339D01*
X159111440Y-66846339D01*
X159096344Y-66537687D01*
X159093465Y-66478827D01*
X159033328Y-66071579D01*
X158933738Y-65672143D01*
X158912700Y-65613060D01*
X158866470Y-65483233D01*
X158795644Y-65284331D01*
X158620366Y-64911846D01*
X158591168Y-64862865D01*
X158411156Y-64560894D01*
X158409576Y-64558243D01*
X158165287Y-64226897D01*
X158163231Y-64224614D01*
X158163224Y-64224605D01*
X157891899Y-63923268D01*
X157891891Y-63923260D01*
X157889830Y-63920971D01*
X157585834Y-63643385D01*
X157256201Y-63396788D01*
X157179125Y-63350109D01*
X156906706Y-63185126D01*
X156906697Y-63185121D01*
X156904078Y-63183535D01*
X156566584Y-63021834D01*
X156535598Y-63006988D01*
X156535596Y-63006987D01*
X156532826Y-63005660D01*
X156529937Y-63004608D01*
X156529931Y-63004606D01*
X156148887Y-62865918D01*
X156148884Y-62865917D01*
X156145988Y-62864863D01*
X155855250Y-62790214D01*
X155750241Y-62763252D01*
X155750238Y-62763251D01*
X155747257Y-62762486D01*
X155340439Y-62699507D01*
X154929416Y-62676528D01*
X154926337Y-62676657D01*
X154926334Y-62676657D01*
X154656857Y-62687951D01*
X154518113Y-62693766D01*
X154515069Y-62694194D01*
X154515067Y-62694194D01*
X154294518Y-62725190D01*
X154110455Y-62751059D01*
X153710333Y-62847859D01*
X153321567Y-62983241D01*
X153300031Y-62993192D01*
X152950664Y-63154622D01*
X152950654Y-63154627D01*
X152947867Y-63155915D01*
X152592801Y-63364231D01*
X152518025Y-63418559D01*
X152262239Y-63604398D01*
X152262233Y-63604403D01*
X152259758Y-63606201D01*
X152257472Y-63608230D01*
X152257469Y-63608233D01*
X152252137Y-63612967D01*
X151951916Y-63879516D01*
X151949837Y-63881761D01*
X151949830Y-63881768D01*
X151749362Y-64098254D01*
X151672214Y-64181566D01*
X151670359Y-64184010D01*
X151520936Y-64380868D01*
X151423322Y-64509469D01*
X151207616Y-64860095D01*
X151027154Y-65230096D01*
X151026083Y-65232977D01*
X151026080Y-65232983D01*
X150937038Y-65472412D01*
X150883660Y-65615942D01*
X150778502Y-66013948D01*
X150712684Y-66420317D01*
X150712491Y-66423390D01*
X150712490Y-66423396D01*
X150705300Y-66537687D01*
X150686836Y-66831169D01*
X142958517Y-66831169D01*
X142943489Y-66534514D01*
X142883590Y-66143077D01*
X142784441Y-65759697D01*
X142780758Y-65749741D01*
X142648166Y-65391296D01*
X142648163Y-65391290D01*
X142647057Y-65388299D01*
X142472844Y-65032686D01*
X142467196Y-65023611D01*
X142265272Y-64699208D01*
X142263586Y-64696499D01*
X142021426Y-64383180D01*
X142009408Y-64370516D01*
X141751041Y-64098254D01*
X141751038Y-64098252D01*
X141748842Y-64095937D01*
X141656527Y-64016533D01*
X141451041Y-63839787D01*
X141451038Y-63839785D01*
X141448626Y-63837710D01*
X141123851Y-63611144D01*
X140777843Y-63418559D01*
X140774923Y-63417301D01*
X140774918Y-63417299D01*
X140417078Y-63263188D01*
X140417075Y-63263187D01*
X140414145Y-63261925D01*
X140036479Y-63142848D01*
X139761004Y-63085799D01*
X139651839Y-63063192D01*
X139651836Y-63063192D01*
X139648714Y-63062545D01*
X139344783Y-63031137D01*
X139257974Y-63022166D01*
X139257971Y-63022166D01*
X139254818Y-63021840D01*
X139251652Y-63021834D01*
X139251643Y-63021834D01*
X139056080Y-63021493D01*
X138858825Y-63021149D01*
X138464790Y-63060479D01*
X138461655Y-63061117D01*
X138461654Y-63061117D01*
X138079867Y-63138793D01*
X138076746Y-63139428D01*
X137698668Y-63257186D01*
X137334424Y-63412549D01*
X136987746Y-63603925D01*
X136662183Y-63829356D01*
X136361067Y-64086533D01*
X136087482Y-64372823D01*
X136085525Y-64375336D01*
X136085524Y-64375338D01*
X135900683Y-64612778D01*
X135844230Y-64685295D01*
X135842534Y-64687999D01*
X135842531Y-64688003D01*
X135835502Y-64699208D01*
X135633799Y-65020750D01*
X135458346Y-65375753D01*
X135319666Y-65746668D01*
X135219180Y-66129700D01*
X135218687Y-66132849D01*
X135218685Y-66132858D01*
X135217085Y-66143077D01*
X135157916Y-66520925D01*
X135136501Y-66916339D01*
X130168393Y-66916339D01*
X130168393Y-45886339D01*
X135176501Y-45886339D01*
X135176651Y-45889520D01*
X135178514Y-45929014D01*
X135195155Y-46281893D01*
X135253686Y-46673537D01*
X135254472Y-46676619D01*
X135254472Y-46676621D01*
X135303888Y-46870485D01*
X135351496Y-47057260D01*
X135487583Y-47429135D01*
X135660554Y-47785354D01*
X135868637Y-48122270D01*
X135870581Y-48124803D01*
X136059714Y-48371286D01*
X136109702Y-48436432D01*
X136111884Y-48438748D01*
X136111893Y-48438758D01*
X136349418Y-48690812D01*
X136381282Y-48724625D01*
X136383687Y-48726709D01*
X136383693Y-48726714D01*
X136434285Y-48770538D01*
X136680595Y-48983898D01*
X137004576Y-49211596D01*
X137087835Y-49258319D01*
X137340261Y-49399974D01*
X137349910Y-49405389D01*
X137352824Y-49406656D01*
X137352828Y-49406658D01*
X137387839Y-49421881D01*
X137713060Y-49563291D01*
X137823212Y-49598445D01*
X138087263Y-49682715D01*
X138087271Y-49682717D01*
X138090307Y-49683686D01*
X138141965Y-49694572D01*
X138474671Y-49764684D01*
X138474676Y-49764685D01*
X138477790Y-49765341D01*
X138871541Y-49807421D01*
X138874728Y-49807438D01*
X138874734Y-49807438D01*
X139054648Y-49808380D01*
X139267529Y-49809494D01*
X139373621Y-49799279D01*
X139658515Y-49771847D01*
X139658523Y-49771846D01*
X139661699Y-49771540D01*
X140050016Y-49693947D01*
X140341054Y-49604412D01*
X140425462Y-49578445D01*
X140425465Y-49578444D01*
X140428504Y-49577509D01*
X140431432Y-49576272D01*
X140431438Y-49576270D01*
X140617582Y-49497639D01*
X140793287Y-49423418D01*
X140796090Y-49421884D01*
X140796095Y-49421881D01*
X140945623Y-49340017D01*
X141140631Y-49233253D01*
X141466979Y-49008960D01*
X141472948Y-49003898D01*
X141766561Y-48754896D01*
X141766563Y-48754894D01*
X141768991Y-48752835D01*
X141771196Y-48750543D01*
X141771202Y-48750538D01*
X141954973Y-48559571D01*
X142043573Y-48467502D01*
X142287915Y-48155881D01*
X142294919Y-48144803D01*
X142485163Y-47843866D01*
X142499515Y-47821163D01*
X142676207Y-47466775D01*
X142766918Y-47226715D01*
X142815056Y-47099321D01*
X142815057Y-47099318D01*
X142816180Y-47096346D01*
X142821259Y-47077260D01*
X142882479Y-46847175D01*
X142918003Y-46713667D01*
X142919613Y-46703621D01*
X142980128Y-46325809D01*
X142980633Y-46322658D01*
X142981831Y-46301893D01*
X143002177Y-45949014D01*
X143003428Y-45927321D01*
X143003454Y-45920000D01*
X143003517Y-45901697D01*
X143003523Y-45900000D01*
X143002569Y-45881169D01*
X150696836Y-45881169D01*
X150696944Y-45884258D01*
X150710830Y-46281893D01*
X150711203Y-46292583D01*
X150711609Y-46295627D01*
X150711610Y-46295637D01*
X150734214Y-46465045D01*
X150765648Y-46700631D01*
X150766348Y-46703615D01*
X150766349Y-46703621D01*
X150854687Y-47080251D01*
X150859652Y-47101419D01*
X150992317Y-47491120D01*
X151162377Y-47866016D01*
X151368210Y-48222528D01*
X151369999Y-48225026D01*
X151370001Y-48225030D01*
X151556115Y-48484991D01*
X151607849Y-48557253D01*
X151609876Y-48559568D01*
X151609878Y-48559571D01*
X151794566Y-48770538D01*
X151879008Y-48866995D01*
X152179098Y-49148799D01*
X152505256Y-49399974D01*
X152507859Y-49401601D01*
X152507864Y-49401604D01*
X152633522Y-49480124D01*
X152854367Y-49618123D01*
X153223099Y-49801163D01*
X153607934Y-49947348D01*
X154005197Y-50055282D01*
X154008240Y-50055797D01*
X154008246Y-50055798D01*
X154408055Y-50123421D01*
X154408062Y-50123422D01*
X154411096Y-50123935D01*
X154414167Y-50124150D01*
X154414169Y-50124150D01*
X154818692Y-50152437D01*
X154818700Y-50152437D01*
X154821758Y-50152651D01*
X155085974Y-50145271D01*
X155230187Y-50141243D01*
X155230190Y-50141243D01*
X155233261Y-50141157D01*
X155236314Y-50140771D01*
X155236318Y-50140771D01*
X155384984Y-50121990D01*
X155641680Y-50089561D01*
X155644684Y-50088879D01*
X155644687Y-50088878D01*
X156040118Y-49999039D01*
X156040124Y-49999037D01*
X156043114Y-49998358D01*
X156199756Y-49946250D01*
X156430808Y-49869389D01*
X156430814Y-49869387D01*
X156433732Y-49868416D01*
X156436542Y-49867165D01*
X156807006Y-49702224D01*
X156807012Y-49702221D01*
X156809806Y-49700977D01*
X156822181Y-49693947D01*
X157165073Y-49499158D01*
X157165081Y-49499153D01*
X157167746Y-49497639D01*
X157504136Y-49260342D01*
X157539558Y-49229767D01*
X157813426Y-48993370D01*
X157815764Y-48991352D01*
X157817885Y-48989125D01*
X157817891Y-48989119D01*
X158097538Y-48695460D01*
X158099655Y-48693237D01*
X158204087Y-48559571D01*
X158351191Y-48371286D01*
X158351193Y-48371283D01*
X158353101Y-48368841D01*
X158354757Y-48366231D01*
X158354763Y-48366223D01*
X158572029Y-48023866D01*
X158572031Y-48023863D01*
X158573682Y-48021261D01*
X158759292Y-47653815D01*
X158760402Y-47650954D01*
X158907045Y-47272887D01*
X158907048Y-47272877D01*
X158908160Y-47270011D01*
X159018865Y-46873511D01*
X159090350Y-46468101D01*
X159121932Y-46057650D01*
X159123575Y-45940000D01*
X159122515Y-45918316D01*
X159121929Y-45906339D01*
X166876501Y-45906339D01*
X166876651Y-45909520D01*
X166894716Y-46292583D01*
X166895155Y-46301893D01*
X166953686Y-46693537D01*
X166954472Y-46696619D01*
X166954472Y-46696621D01*
X166998790Y-46870485D01*
X167051496Y-47077260D01*
X167187583Y-47449135D01*
X167360554Y-47805354D01*
X167396282Y-47863202D01*
X167493901Y-48021261D01*
X167568637Y-48142270D01*
X167809702Y-48456432D01*
X167811884Y-48458748D01*
X167811893Y-48458758D01*
X168030571Y-48690812D01*
X168081282Y-48744625D01*
X168083687Y-48746709D01*
X168083693Y-48746714D01*
X168224987Y-48869106D01*
X168380595Y-49003898D01*
X168704576Y-49231596D01*
X168877243Y-49328492D01*
X169046398Y-49423418D01*
X169049910Y-49425389D01*
X169052824Y-49426656D01*
X169052828Y-49426658D01*
X169087839Y-49441881D01*
X169413060Y-49583291D01*
X169592788Y-49640650D01*
X169787263Y-49702715D01*
X169787271Y-49702717D01*
X169790307Y-49703686D01*
X169841965Y-49714572D01*
X170174671Y-49784684D01*
X170174676Y-49784685D01*
X170177790Y-49785341D01*
X170571541Y-49827421D01*
X170574728Y-49827438D01*
X170574734Y-49827438D01*
X170754648Y-49828380D01*
X170967529Y-49829494D01*
X171073621Y-49819279D01*
X171358515Y-49791847D01*
X171358523Y-49791846D01*
X171361699Y-49791540D01*
X171750016Y-49713947D01*
X172066792Y-49616494D01*
X172125462Y-49598445D01*
X172125465Y-49598444D01*
X172128504Y-49597509D01*
X172131432Y-49596272D01*
X172131438Y-49596270D01*
X172369128Y-49495865D01*
X172493287Y-49443418D01*
X172496090Y-49441884D01*
X172496095Y-49441881D01*
X172824420Y-49262128D01*
X172840631Y-49253253D01*
X173166979Y-49028960D01*
X173213958Y-48989119D01*
X173466561Y-48774896D01*
X173466563Y-48774894D01*
X173468991Y-48772835D01*
X173471196Y-48770543D01*
X173471202Y-48770538D01*
X173676450Y-48557253D01*
X173743573Y-48487502D01*
X173987915Y-48175881D01*
X174000559Y-48155881D01*
X174182112Y-47868692D01*
X174199515Y-47841163D01*
X174376207Y-47486775D01*
X174516180Y-47116346D01*
X174522321Y-47093269D01*
X174617182Y-46736752D01*
X174618003Y-46733667D01*
X174620713Y-46716752D01*
X174680128Y-46345809D01*
X174680633Y-46342658D01*
X174682802Y-46305052D01*
X174703330Y-45949014D01*
X174703428Y-45947321D01*
X174703454Y-45940000D01*
X174703492Y-45929014D01*
X174703523Y-45920000D01*
X174701713Y-45884258D01*
X174683650Y-45527687D01*
X174683649Y-45527682D01*
X174683489Y-45524514D01*
X174623590Y-45133077D01*
X174524441Y-44749697D01*
X174520758Y-44739741D01*
X174388166Y-44381296D01*
X174388163Y-44381290D01*
X174387057Y-44378299D01*
X174212844Y-44022686D01*
X174207196Y-44013611D01*
X174005272Y-43689208D01*
X174003586Y-43686499D01*
X173761426Y-43373180D01*
X173488842Y-43085937D01*
X173452247Y-43054460D01*
X173191041Y-42829787D01*
X173191038Y-42829785D01*
X173188626Y-42827710D01*
X172863851Y-42601144D01*
X172583658Y-42445191D01*
X172520628Y-42410109D01*
X172520626Y-42410108D01*
X172517843Y-42408559D01*
X172514923Y-42407301D01*
X172514918Y-42407299D01*
X172157078Y-42253188D01*
X172157075Y-42253187D01*
X172154145Y-42251925D01*
X171776479Y-42132848D01*
X171501004Y-42075799D01*
X171391839Y-42053192D01*
X171391836Y-42053192D01*
X171388714Y-42052545D01*
X171084783Y-42021137D01*
X170997974Y-42012166D01*
X170997971Y-42012166D01*
X170994818Y-42011840D01*
X170991652Y-42011834D01*
X170991643Y-42011834D01*
X170796080Y-42011493D01*
X170598825Y-42011149D01*
X170204790Y-42050479D01*
X170201655Y-42051117D01*
X170201654Y-42051117D01*
X169915048Y-42109428D01*
X169816746Y-42129428D01*
X169438668Y-42247186D01*
X169074424Y-42402549D01*
X168727746Y-42593925D01*
X168402183Y-42819356D01*
X168221975Y-42973268D01*
X168115915Y-43063852D01*
X168101067Y-43076533D01*
X167827482Y-43362823D01*
X167825525Y-43365336D01*
X167825524Y-43365338D01*
X167588969Y-43669208D01*
X167584230Y-43675295D01*
X167582534Y-43677999D01*
X167582531Y-43678003D01*
X167575502Y-43689208D01*
X167373799Y-44010750D01*
X167198346Y-44365753D01*
X167059666Y-44736668D01*
X166959180Y-45119700D01*
X166958687Y-45122849D01*
X166958685Y-45122858D01*
X166957085Y-45133077D01*
X166897916Y-45510925D01*
X166897745Y-45514091D01*
X166897744Y-45514096D01*
X166897008Y-45527687D01*
X166876501Y-45906339D01*
X159121929Y-45906339D01*
X159103615Y-45531900D01*
X159103465Y-45528827D01*
X159043328Y-45121579D01*
X159038661Y-45102858D01*
X159010823Y-44991207D01*
X158943738Y-44722143D01*
X158941789Y-44716668D01*
X158876470Y-44533233D01*
X158805644Y-44334331D01*
X158630366Y-43961846D01*
X158601168Y-43912865D01*
X158459547Y-43675295D01*
X158419576Y-43608243D01*
X158175287Y-43276897D01*
X158173231Y-43274614D01*
X158173224Y-43274605D01*
X157901899Y-42973268D01*
X157901891Y-42973260D01*
X157899830Y-42970971D01*
X157595834Y-42693385D01*
X157266201Y-42446788D01*
X157200997Y-42407299D01*
X156916706Y-42235126D01*
X156916697Y-42235121D01*
X156914078Y-42233535D01*
X156542826Y-42055660D01*
X156539937Y-42054608D01*
X156539931Y-42054606D01*
X156158887Y-41915918D01*
X156158884Y-41915917D01*
X156155988Y-41914863D01*
X155865250Y-41840214D01*
X155760241Y-41813252D01*
X155760238Y-41813251D01*
X155757257Y-41812486D01*
X155350439Y-41749507D01*
X154939416Y-41726528D01*
X154936337Y-41726657D01*
X154936334Y-41726657D01*
X154666857Y-41737951D01*
X154528113Y-41743766D01*
X154525069Y-41744194D01*
X154525067Y-41744194D01*
X154304518Y-41775190D01*
X154120455Y-41801059D01*
X153720333Y-41897859D01*
X153331567Y-42033241D01*
X153288389Y-42053192D01*
X152960664Y-42204622D01*
X152960654Y-42204627D01*
X152957867Y-42205915D01*
X152602801Y-42414231D01*
X152555448Y-42448635D01*
X152272239Y-42654398D01*
X152272233Y-42654403D01*
X152269758Y-42656201D01*
X151961916Y-42929516D01*
X151959837Y-42931761D01*
X151959830Y-42931768D01*
X151684300Y-43229313D01*
X151682214Y-43231566D01*
X151680359Y-43234010D01*
X151572807Y-43375705D01*
X151433322Y-43559469D01*
X151217616Y-43910095D01*
X151037154Y-44280096D01*
X151036083Y-44282977D01*
X151036080Y-44282983D01*
X151001702Y-44375424D01*
X150893660Y-44665942D01*
X150788502Y-45063948D01*
X150722684Y-45470317D01*
X150722491Y-45473390D01*
X150722490Y-45473396D01*
X150697030Y-45878082D01*
X150696836Y-45881169D01*
X143002569Y-45881169D01*
X142984877Y-45531900D01*
X142983650Y-45507687D01*
X142983649Y-45507682D01*
X142983489Y-45504514D01*
X142927134Y-45136237D01*
X142924074Y-45116237D01*
X142924072Y-45116228D01*
X142923590Y-45113077D01*
X142830410Y-44752777D01*
X142825238Y-44732777D01*
X142825235Y-44732769D01*
X142824441Y-44729697D01*
X142820569Y-44719230D01*
X142688166Y-44361296D01*
X142688163Y-44361290D01*
X142687057Y-44358299D01*
X142512844Y-44002686D01*
X142507196Y-43993611D01*
X142314464Y-43683975D01*
X142303586Y-43666499D01*
X142218969Y-43557017D01*
X142063378Y-43355705D01*
X142063373Y-43355700D01*
X142061426Y-43353180D01*
X141810020Y-43088254D01*
X141791041Y-43068254D01*
X141791038Y-43068252D01*
X141788842Y-43065937D01*
X141676012Y-42968888D01*
X141491041Y-42809787D01*
X141491038Y-42809785D01*
X141488626Y-42807710D01*
X141163851Y-42581144D01*
X140863967Y-42414231D01*
X140820628Y-42390109D01*
X140820626Y-42390108D01*
X140817843Y-42388559D01*
X140814923Y-42387301D01*
X140814918Y-42387299D01*
X140457078Y-42233188D01*
X140457075Y-42233187D01*
X140454145Y-42231925D01*
X140076479Y-42112848D01*
X139788414Y-42053192D01*
X139691839Y-42033192D01*
X139691836Y-42033192D01*
X139688714Y-42032545D01*
X139384783Y-42001137D01*
X139297974Y-41992166D01*
X139297971Y-41992166D01*
X139294818Y-41991840D01*
X139291652Y-41991834D01*
X139291643Y-41991834D01*
X139096080Y-41991493D01*
X138898825Y-41991149D01*
X138504790Y-42030479D01*
X138501655Y-42031117D01*
X138501654Y-42031117D01*
X138403352Y-42051117D01*
X138116746Y-42109428D01*
X137738668Y-42227186D01*
X137374424Y-42382549D01*
X137027746Y-42573925D01*
X136702183Y-42799356D01*
X136401067Y-43056533D01*
X136398867Y-43058835D01*
X136398864Y-43058838D01*
X136282060Y-43181067D01*
X136127482Y-43342823D01*
X136125525Y-43345336D01*
X136125524Y-43345338D01*
X135920859Y-43608243D01*
X135884230Y-43655295D01*
X135882534Y-43657999D01*
X135882531Y-43658003D01*
X135862956Y-43689208D01*
X135673799Y-43990750D01*
X135498346Y-44345753D01*
X135359666Y-44716668D01*
X135259180Y-45099700D01*
X135258687Y-45102849D01*
X135258685Y-45102858D01*
X135254437Y-45129988D01*
X135197916Y-45490925D01*
X135197745Y-45494091D01*
X135197744Y-45494096D01*
X135195925Y-45527687D01*
X135176501Y-45886339D01*
X130168393Y-45886339D01*
X130168393Y-33166000D01*
X130188395Y-33097879D01*
X130242051Y-33051386D01*
X130294393Y-33040000D01*
X179525527Y-33040000D01*
X179593648Y-33060002D01*
G37*
%TD.AperFunction*%
M02*
