%TF.GenerationSoftware,KiCad,Pcbnew,(6.0.7)*%
%TF.CreationDate,2022-08-19T18:02:00+02:00*%
%TF.ProjectId,faceplate,66616365-706c-4617-9465-2e6b69636164,rev?*%
%TF.SameCoordinates,Original*%
%TF.FileFunction,Profile,NP*%
%FSLAX46Y46*%
G04 Gerber Fmt 4.6, Leading zero omitted, Abs format (unit mm)*
G04 Created by KiCad (PCBNEW (6.0.7)) date 2022-08-19 18:02:00*
%MOMM*%
%LPD*%
G01*
G04 APERTURE LIST*
%TA.AperFunction,Profile*%
%ADD10C,0.200000*%
%TD*%
%TA.AperFunction,Profile*%
%ADD11C,0.264583*%
%TD*%
G04 APERTURE END LIST*
D10*
X115613965Y-40357413D02*
X115694954Y-40363622D01*
X115774801Y-40373844D01*
X115853401Y-40387977D01*
X115930652Y-40405919D01*
X116006453Y-40427567D01*
X116080700Y-40452819D01*
X116153291Y-40481571D01*
X116224124Y-40513721D01*
X116293095Y-40549167D01*
X116360103Y-40587807D01*
X116425045Y-40629536D01*
X116487819Y-40674254D01*
X116548321Y-40721857D01*
X116606449Y-40772243D01*
X116662102Y-40825309D01*
X116715175Y-40880952D01*
X116765568Y-40939071D01*
X116813177Y-40999562D01*
X116857899Y-41062323D01*
X116899633Y-41127251D01*
X116938276Y-41194244D01*
X116973725Y-41263199D01*
X117005878Y-41334014D01*
X117034632Y-41406586D01*
X117059885Y-41480812D01*
X117081534Y-41556590D01*
X117099476Y-41633817D01*
X117113610Y-41712391D01*
X117123833Y-41792209D01*
X117130041Y-41873169D01*
X117132134Y-41955168D01*
X117130041Y-42037198D01*
X117123833Y-42118188D01*
X117113610Y-42198034D01*
X117099476Y-42276634D01*
X117081534Y-42353886D01*
X117059885Y-42429687D01*
X117034632Y-42503934D01*
X117005878Y-42576525D01*
X116973725Y-42647358D01*
X116938276Y-42716329D01*
X116899633Y-42783337D01*
X116857899Y-42848279D01*
X116813177Y-42911052D01*
X116765568Y-42971554D01*
X116715175Y-43029683D01*
X116662102Y-43085335D01*
X116606449Y-43138409D01*
X116548321Y-43188802D01*
X116487819Y-43236410D01*
X116425045Y-43281133D01*
X116360103Y-43322867D01*
X116293095Y-43361510D01*
X116224124Y-43396959D01*
X116153291Y-43429112D01*
X116080700Y-43457866D01*
X116006453Y-43483118D01*
X115930652Y-43504767D01*
X115853401Y-43522710D01*
X115774801Y-43536844D01*
X115694954Y-43547067D01*
X115613965Y-43553275D01*
X115531934Y-43555367D01*
X112731937Y-43555367D01*
X112649939Y-43553275D01*
X112568979Y-43547067D01*
X112489161Y-43536844D01*
X112410587Y-43522710D01*
X112333360Y-43504767D01*
X112257582Y-43483118D01*
X112183355Y-43457866D01*
X112110784Y-43429112D01*
X112039969Y-43396959D01*
X111971014Y-43361510D01*
X111904021Y-43322867D01*
X111839092Y-43281133D01*
X111776331Y-43236410D01*
X111715840Y-43188802D01*
X111657722Y-43138409D01*
X111602078Y-43085335D01*
X111549012Y-43029683D01*
X111498626Y-42971554D01*
X111451023Y-42911052D01*
X111406306Y-42848279D01*
X111364576Y-42783337D01*
X111325937Y-42716329D01*
X111290491Y-42647358D01*
X111258340Y-42576525D01*
X111229588Y-42503934D01*
X111204337Y-42429687D01*
X111182689Y-42353886D01*
X111164747Y-42276634D01*
X111150613Y-42198034D01*
X111140391Y-42118188D01*
X111134182Y-42037198D01*
X111132090Y-41955168D01*
X111134182Y-41873169D01*
X111140391Y-41792209D01*
X111150613Y-41712391D01*
X111164747Y-41633817D01*
X111182689Y-41556590D01*
X111204337Y-41480812D01*
X111229588Y-41406586D01*
X111258340Y-41334014D01*
X111290491Y-41263200D01*
X111325937Y-41194244D01*
X111364576Y-41127251D01*
X111406306Y-41062323D01*
X111451023Y-40999562D01*
X111498626Y-40939071D01*
X111549012Y-40880953D01*
X111602078Y-40825309D01*
X111657722Y-40772243D01*
X111715840Y-40721857D01*
X111776331Y-40674254D01*
X111839092Y-40629537D01*
X111904021Y-40587807D01*
X111971014Y-40549168D01*
X112039969Y-40513722D01*
X112110783Y-40481571D01*
X112183355Y-40452819D01*
X112257581Y-40427568D01*
X112333359Y-40405920D01*
X112410587Y-40387978D01*
X112489161Y-40373844D01*
X112568979Y-40363622D01*
X112649938Y-40357413D01*
X112731937Y-40355321D01*
X115531934Y-40355321D01*
X115613965Y-40357413D01*
X140913876Y-40357413D02*
X140994866Y-40363622D01*
X141074712Y-40373844D01*
X141153312Y-40387977D01*
X141230564Y-40405919D01*
X141306365Y-40427567D01*
X141380612Y-40452819D01*
X141453203Y-40481571D01*
X141524036Y-40513721D01*
X141593007Y-40549167D01*
X141660015Y-40587807D01*
X141724957Y-40629536D01*
X141787730Y-40674254D01*
X141848233Y-40721857D01*
X141906361Y-40772243D01*
X141962014Y-40825309D01*
X142015087Y-40880952D01*
X142065480Y-40939071D01*
X142113089Y-40999562D01*
X142157812Y-41062323D01*
X142199546Y-41127251D01*
X142238188Y-41194244D01*
X142273637Y-41263199D01*
X142305790Y-41334014D01*
X142334544Y-41406586D01*
X142359797Y-41480812D01*
X142381446Y-41556590D01*
X142399389Y-41633817D01*
X142413523Y-41712391D01*
X142423745Y-41792209D01*
X142429954Y-41873169D01*
X142432046Y-41955168D01*
X142429954Y-42037198D01*
X142423745Y-42118188D01*
X142413523Y-42198034D01*
X142399389Y-42276634D01*
X142381446Y-42353886D01*
X142359797Y-42429687D01*
X142334544Y-42503934D01*
X142305790Y-42576525D01*
X142273637Y-42647358D01*
X142238188Y-42716329D01*
X142199546Y-42783337D01*
X142157812Y-42848279D01*
X142113089Y-42911052D01*
X142065480Y-42971554D01*
X142015087Y-43029683D01*
X141962014Y-43085335D01*
X141906361Y-43138409D01*
X141848233Y-43188802D01*
X141787730Y-43236410D01*
X141724957Y-43281133D01*
X141660015Y-43322867D01*
X141593007Y-43361510D01*
X141524036Y-43396959D01*
X141453203Y-43429112D01*
X141380612Y-43457866D01*
X141306365Y-43483118D01*
X141230564Y-43504767D01*
X141153312Y-43522710D01*
X141074712Y-43536844D01*
X140994866Y-43547067D01*
X140913876Y-43553275D01*
X140831846Y-43555367D01*
X138031850Y-43555367D01*
X137949852Y-43553275D01*
X137868892Y-43547067D01*
X137789074Y-43536844D01*
X137710500Y-43522710D01*
X137633273Y-43504767D01*
X137557495Y-43483118D01*
X137483269Y-43457866D01*
X137410697Y-43429112D01*
X137339882Y-43396959D01*
X137270927Y-43361510D01*
X137203934Y-43322867D01*
X137139005Y-43281133D01*
X137076244Y-43236410D01*
X137015753Y-43188802D01*
X136957635Y-43138409D01*
X136901991Y-43085335D01*
X136848925Y-43029683D01*
X136798539Y-42971554D01*
X136750936Y-42911052D01*
X136706218Y-42848279D01*
X136664489Y-42783337D01*
X136625850Y-42716329D01*
X136590403Y-42647358D01*
X136558253Y-42576525D01*
X136529501Y-42503934D01*
X136504249Y-42429687D01*
X136482601Y-42353886D01*
X136464659Y-42276634D01*
X136450526Y-42198034D01*
X136440303Y-42118188D01*
X136434095Y-42037198D01*
X136432002Y-41955168D01*
X136434095Y-41873169D01*
X136440303Y-41792209D01*
X136450526Y-41712391D01*
X136464659Y-41633817D01*
X136482601Y-41556590D01*
X136504249Y-41480812D01*
X136529501Y-41406586D01*
X136558253Y-41334014D01*
X136590403Y-41263200D01*
X136625850Y-41194244D01*
X136664489Y-41127251D01*
X136706218Y-41062323D01*
X136750936Y-40999562D01*
X136798539Y-40939071D01*
X136848925Y-40880953D01*
X136901991Y-40825309D01*
X136957635Y-40772243D01*
X137015753Y-40721857D01*
X137076244Y-40674254D01*
X137139005Y-40629537D01*
X137203934Y-40587807D01*
X137270927Y-40549168D01*
X137339882Y-40513722D01*
X137410697Y-40481571D01*
X137483269Y-40452819D01*
X137557495Y-40427568D01*
X137633273Y-40405920D01*
X137710500Y-40387978D01*
X137789074Y-40373844D01*
X137868892Y-40363622D01*
X137949852Y-40357413D01*
X138031850Y-40355321D01*
X140831846Y-40355321D01*
X140913876Y-40357413D01*
X140913876Y-162857577D02*
X140994866Y-162863785D01*
X141074712Y-162874008D01*
X141153312Y-162888141D01*
X141230564Y-162906083D01*
X141306365Y-162927731D01*
X141380612Y-162952982D01*
X141453203Y-162981734D01*
X141524036Y-163013885D01*
X141593007Y-163049331D01*
X141660015Y-163087970D01*
X141724957Y-163129699D01*
X141787730Y-163174417D01*
X141848233Y-163222020D01*
X141906361Y-163272406D01*
X141962014Y-163325471D01*
X142015087Y-163381115D01*
X142065480Y-163439233D01*
X142113089Y-163499724D01*
X142157812Y-163562485D01*
X142199546Y-163627414D01*
X142238188Y-163694407D01*
X142273637Y-163763362D01*
X142305790Y-163834176D01*
X142334544Y-163906748D01*
X142359797Y-163980974D01*
X142381446Y-164056752D01*
X142399389Y-164133980D01*
X142413523Y-164212554D01*
X142423745Y-164292372D01*
X142429954Y-164373332D01*
X142432046Y-164455330D01*
X142429954Y-164537328D01*
X142423745Y-164618288D01*
X142413523Y-164698105D01*
X142399389Y-164776679D01*
X142381446Y-164853906D01*
X142359797Y-164929684D01*
X142334544Y-165003910D01*
X142305790Y-165076481D01*
X142273637Y-165147296D01*
X142238188Y-165216251D01*
X142199546Y-165283244D01*
X142157812Y-165348172D01*
X142113089Y-165410933D01*
X142065480Y-165471424D01*
X142015087Y-165529543D01*
X141962014Y-165585187D01*
X141906361Y-165638253D01*
X141848233Y-165688638D01*
X141787730Y-165736242D01*
X141724957Y-165780959D01*
X141660015Y-165822689D01*
X141593007Y-165861329D01*
X141524036Y-165896775D01*
X141453203Y-165928925D01*
X141380612Y-165957678D01*
X141306365Y-165982929D01*
X141230564Y-166004577D01*
X141153312Y-166022519D01*
X141074712Y-166036653D01*
X140994866Y-166046875D01*
X140913876Y-166053084D01*
X140831846Y-166055176D01*
X138031850Y-166055176D01*
X137949852Y-166053084D01*
X137868892Y-166046875D01*
X137789074Y-166036653D01*
X137710500Y-166022519D01*
X137633273Y-166004577D01*
X137557495Y-165982929D01*
X137483269Y-165957678D01*
X137410697Y-165928925D01*
X137339882Y-165896775D01*
X137270927Y-165861329D01*
X137203934Y-165822689D01*
X137139005Y-165780959D01*
X137076244Y-165736242D01*
X137015753Y-165688638D01*
X136957635Y-165638253D01*
X136901991Y-165585187D01*
X136848925Y-165529543D01*
X136798539Y-165471424D01*
X136750936Y-165410933D01*
X136706218Y-165348172D01*
X136664489Y-165283244D01*
X136625850Y-165216251D01*
X136590403Y-165147296D01*
X136558253Y-165076481D01*
X136529501Y-165003910D01*
X136504249Y-164929684D01*
X136482601Y-164853906D01*
X136464659Y-164776679D01*
X136450526Y-164698105D01*
X136440303Y-164618288D01*
X136434095Y-164537328D01*
X136432002Y-164455330D01*
X136434095Y-164373332D01*
X136440303Y-164292372D01*
X136450526Y-164212554D01*
X136464659Y-164133980D01*
X136482601Y-164056752D01*
X136504249Y-163980974D01*
X136529501Y-163906748D01*
X136558253Y-163834176D01*
X136590403Y-163763362D01*
X136625850Y-163694407D01*
X136664489Y-163627414D01*
X136706218Y-163562485D01*
X136750936Y-163499724D01*
X136798539Y-163439233D01*
X136848925Y-163381115D01*
X136901991Y-163325471D01*
X136957635Y-163272406D01*
X137015753Y-163222020D01*
X137076244Y-163174417D01*
X137139005Y-163129699D01*
X137203934Y-163087970D01*
X137270927Y-163049331D01*
X137339882Y-163013885D01*
X137410697Y-162981734D01*
X137483269Y-162952982D01*
X137557495Y-162927731D01*
X137633273Y-162906083D01*
X137710500Y-162888141D01*
X137789074Y-162874008D01*
X137868892Y-162863785D01*
X137949852Y-162857577D01*
X138031850Y-162855484D01*
X140831846Y-162855484D01*
X140913876Y-162857577D01*
X115613965Y-162857577D02*
X115694954Y-162863785D01*
X115774801Y-162874008D01*
X115853401Y-162888141D01*
X115930652Y-162906083D01*
X116006453Y-162927731D01*
X116080700Y-162952982D01*
X116153291Y-162981734D01*
X116224124Y-163013885D01*
X116293095Y-163049331D01*
X116360103Y-163087970D01*
X116425045Y-163129699D01*
X116487819Y-163174417D01*
X116548321Y-163222020D01*
X116606449Y-163272406D01*
X116662102Y-163325471D01*
X116715175Y-163381115D01*
X116765568Y-163439233D01*
X116813177Y-163499724D01*
X116857899Y-163562485D01*
X116899633Y-163627414D01*
X116938276Y-163694407D01*
X116973725Y-163763362D01*
X117005878Y-163834176D01*
X117034632Y-163906748D01*
X117059885Y-163980974D01*
X117081534Y-164056752D01*
X117099476Y-164133980D01*
X117113610Y-164212554D01*
X117123833Y-164292372D01*
X117130041Y-164373332D01*
X117132134Y-164455330D01*
X117130041Y-164537328D01*
X117123833Y-164618288D01*
X117113610Y-164698105D01*
X117099476Y-164776679D01*
X117081534Y-164853906D01*
X117059885Y-164929684D01*
X117034632Y-165003910D01*
X117005878Y-165076481D01*
X116973725Y-165147296D01*
X116938276Y-165216251D01*
X116899633Y-165283244D01*
X116857899Y-165348172D01*
X116813177Y-165410933D01*
X116765568Y-165471424D01*
X116715175Y-165529543D01*
X116662102Y-165585187D01*
X116606449Y-165638253D01*
X116548321Y-165688638D01*
X116487819Y-165736242D01*
X116425045Y-165780959D01*
X116360103Y-165822689D01*
X116293095Y-165861329D01*
X116224124Y-165896775D01*
X116153291Y-165928925D01*
X116080700Y-165957678D01*
X116006453Y-165982929D01*
X115930652Y-166004577D01*
X115853401Y-166022519D01*
X115774801Y-166036653D01*
X115694954Y-166046875D01*
X115613965Y-166053084D01*
X115531934Y-166055176D01*
X112731937Y-166055176D01*
X112649939Y-166053084D01*
X112568979Y-166046875D01*
X112489161Y-166036653D01*
X112410587Y-166022519D01*
X112333360Y-166004577D01*
X112257582Y-165982929D01*
X112183355Y-165957678D01*
X112110784Y-165928925D01*
X112039969Y-165896775D01*
X111971014Y-165861329D01*
X111904021Y-165822689D01*
X111839092Y-165780959D01*
X111776331Y-165736242D01*
X111715840Y-165688638D01*
X111657722Y-165638253D01*
X111602078Y-165585187D01*
X111549012Y-165529543D01*
X111498626Y-165471424D01*
X111451023Y-165410933D01*
X111406306Y-165348172D01*
X111364576Y-165283244D01*
X111325937Y-165216251D01*
X111290491Y-165147296D01*
X111258340Y-165076481D01*
X111229588Y-165003910D01*
X111204337Y-164929684D01*
X111182689Y-164853906D01*
X111164747Y-164776679D01*
X111150613Y-164698105D01*
X111140391Y-164618288D01*
X111134182Y-164537328D01*
X111132090Y-164455330D01*
X111134182Y-164373332D01*
X111140391Y-164292372D01*
X111150613Y-164212554D01*
X111164747Y-164133980D01*
X111182689Y-164056752D01*
X111204337Y-163980974D01*
X111229588Y-163906748D01*
X111258340Y-163834176D01*
X111290491Y-163763362D01*
X111325937Y-163694407D01*
X111364576Y-163627414D01*
X111406306Y-163562485D01*
X111451023Y-163499724D01*
X111498626Y-163439233D01*
X111549012Y-163381115D01*
X111602078Y-163325471D01*
X111657722Y-163272406D01*
X111715840Y-163222020D01*
X111776331Y-163174417D01*
X111839092Y-163129699D01*
X111904021Y-163087970D01*
X111971014Y-163049331D01*
X112039969Y-163013885D01*
X112110783Y-162981734D01*
X112183355Y-162952982D01*
X112257581Y-162927731D01*
X112333359Y-162906083D01*
X112410587Y-162888141D01*
X112489161Y-162874008D01*
X112568979Y-162863785D01*
X112649938Y-162857577D01*
X112731937Y-162855484D01*
X115531934Y-162855484D01*
X115613965Y-162857577D01*
D11*
X106632057Y-167455277D02*
X106632057Y-38955422D01*
X106632057Y-167455277D02*
X106632057Y-167455277D01*
X146931897Y-167455277D02*
X106632057Y-167455277D01*
X146931897Y-167455277D02*
X146931897Y-167455277D01*
X146931897Y-38955422D02*
X146931897Y-167455277D01*
X146931897Y-38955422D02*
X146931897Y-38955422D01*
X106632057Y-38955422D02*
X146931897Y-38955422D01*
M02*
